<svg width="60" height="60" viewBox="0 0 60 60" fill="none" xmlns="http://www.w3.org/2000/svg">
<rect width="60" height="60" fill="white"/>
<circle cx="30" cy="30" r="27.5" stroke="#FF6666" stroke-opacity="0.1"/>
<g clip-path="url(#clip0_20_112)">
<path d="M45 30.7128C44.9139 31.3101 44.8513 31.9153 44.7339 32.5046C44.186 35.284 42.8711 37.6652 40.9692 39.712C39.4039 41.3924 37.5646 42.6745 35.4748 43.5745C35.4044 43.6063 35.3339 43.6382 35.2009 43.6939C35.4748 43.8213 35.7174 43.9249 35.9444 44.0364C36.2653 44.1877 36.3671 44.4186 36.2418 44.7053C36.1244 44.9841 35.8662 45.0796 35.5609 44.9363C34.9504 44.6655 34.3478 44.3947 33.7451 44.116C33.3851 43.9488 33.299 43.6541 33.5103 43.3196C33.8703 42.7542 34.2304 42.1887 34.5982 41.6233C34.7782 41.3446 35.0678 41.2809 35.3026 41.4481C35.5296 41.6074 35.5766 41.8782 35.4044 42.1569C35.3183 42.3082 35.2244 42.4516 35.1304 42.5949C35.1461 42.6188 35.1617 42.6347 35.1774 42.6586C35.7331 42.3639 36.3123 42.0932 36.8445 41.7667C40.0613 39.8155 42.3545 37.0918 43.4816 33.4285C44.3269 30.6809 44.1625 27.9493 43.239 25.2416C43.1998 25.1301 43.1529 25.0186 43.1216 24.9071C43.0276 24.5885 43.145 24.3178 43.419 24.2302C43.6773 24.1426 43.9356 24.2779 44.0373 24.5885C44.233 25.1779 44.4443 25.7672 44.5773 26.3804C44.7417 27.1449 44.8278 27.9254 44.9452 28.6979C44.9609 28.7935 44.9765 28.889 45 28.9846C45 29.558 45 30.1394 45 30.7128Z" fill="#FF6666"/>
<path d="M34.0582 36.9087C33.3068 37.1954 32.6572 37.4423 31.9997 37.6971C31.9371 37.721 31.8667 37.8325 31.8589 37.9121C31.8432 38.151 31.8589 38.39 31.851 38.6289C31.8354 39.3695 31.3658 39.8394 30.6535 39.8394C30.0743 39.8394 29.503 39.8314 28.9316 39.7916C28.4072 39.7518 28.0237 39.3217 28.0003 38.7882C27.9846 38.5094 28.0081 38.2307 27.9846 37.952C27.9768 37.8723 27.8985 37.7608 27.8281 37.729C27.2411 37.4662 26.6462 37.2113 26.0514 36.9644C25.9809 36.9326 25.8635 36.9485 25.8088 36.9963C25.6287 37.1476 25.4722 37.3308 25.3078 37.498C24.8461 37.9599 24.1964 37.9997 23.7268 37.5538C23.3042 37.1556 22.905 36.7335 22.5215 36.2955C22.1224 35.8336 22.1615 35.1725 22.5841 34.7266C22.7955 34.4956 23.0224 34.2806 23.1946 34.1054C22.9285 33.3807 22.6859 32.7117 22.4276 32.0348C22.4041 31.979 22.3024 31.9153 22.2319 31.9153C21.9815 31.8994 21.7232 31.9153 21.4727 31.9074C20.8231 31.8914 20.3457 31.4216 20.33 30.7606C20.3144 30.211 20.3222 29.6695 20.33 29.12C20.3457 28.459 20.8309 27.9812 21.4727 27.9812C21.7623 27.9812 22.0597 27.9812 22.2945 27.9812C22.5998 27.2963 22.8894 26.6512 23.1711 26.0061C23.1946 25.9424 23.1633 25.815 23.1164 25.7592C22.9676 25.584 22.8033 25.4327 22.6467 25.2734C22.185 24.7956 22.1537 24.1266 22.5998 23.6408C22.9911 23.2267 23.3981 22.8205 23.8208 22.4383C24.2669 22.0321 24.893 22.056 25.3392 22.4701C25.5426 22.6533 25.7227 22.8683 25.9262 23.0515C25.9809 23.0993 26.1062 23.1232 26.1688 23.0993C26.8106 22.8205 27.4524 22.5338 28.1411 22.2233C28.1411 22.0003 28.1411 21.7056 28.1411 21.4109C28.149 20.6544 28.6029 20.1845 29.3386 20.1686C29.8395 20.1606 30.3326 20.1606 30.8335 20.1686C31.4988 20.1765 31.9449 20.6305 31.9763 21.3154C31.9841 21.5702 31.9684 21.833 31.9841 22.0879C31.9919 22.1675 32.0623 22.287 32.1328 22.3188C32.7668 22.5896 33.4086 22.8444 34.1364 23.1311C34.2773 22.9719 34.4652 22.7489 34.6765 22.5418C35.1226 22.0958 35.7957 22.0719 36.2575 22.51C36.6645 22.9002 37.048 23.3063 37.4237 23.7284C37.8542 24.2142 37.815 24.8673 37.3767 25.3451C37.1654 25.5681 36.8367 25.7592 36.7819 26.0141C36.7349 26.245 37.0089 26.5397 37.1184 26.8105C37.2593 27.1768 37.3924 27.5511 37.5098 27.9254C37.5646 28.0926 37.635 28.1643 37.815 28.1564C38.0655 28.1404 38.3238 28.1484 38.5742 28.1564C39.1925 28.1802 39.6621 28.6422 39.6778 29.2713C39.6934 29.8288 39.6934 30.3862 39.6778 30.9358C39.6621 31.5808 39.1925 32.0507 38.5586 32.0666C38.3316 32.0746 38.1124 32.0746 37.8855 32.0666C37.7133 32.0587 37.635 32.1144 37.5724 32.2817C37.3532 32.8551 37.1184 33.4205 36.868 33.978C36.7975 34.1372 36.8054 34.2248 36.9306 34.3284C37.095 34.4717 37.2358 34.631 37.3845 34.7903C37.8228 35.2442 37.8698 35.9052 37.4393 36.3751C37.0402 36.8211 36.6097 37.2432 36.1557 37.6334C35.7174 38.0157 35.0757 37.9679 34.6608 37.5617C34.4182 37.3308 34.2147 37.0839 34.0582 36.9087ZM29.9178 38.8598C30.1291 38.8598 30.3483 38.8519 30.5596 38.8598C30.7944 38.8678 30.8962 38.7882 30.8883 38.5333C30.8727 38.159 30.8805 37.7767 30.8883 37.4024C30.8962 37.068 31.0136 36.9087 31.3423 36.845C32.1954 36.6698 32.9781 36.3353 33.7138 35.8734C34.0034 35.6902 34.1991 35.7221 34.4417 35.9689C34.7 36.2238 34.9583 36.4786 35.2087 36.7494C35.3731 36.9246 35.4983 36.9405 35.6705 36.7653C35.9757 36.4468 36.2966 36.1362 36.6175 35.8336C36.7819 35.6822 36.7741 35.5628 36.6175 35.4115C36.3592 35.1646 36.1166 34.9097 35.874 34.6549C35.6157 34.3841 35.5922 34.193 35.7879 33.8904C36.2497 33.1656 36.5784 32.3852 36.7662 31.549C36.8445 31.2065 37.001 31.0871 37.3454 31.0791C37.7054 31.0711 38.0655 31.0711 38.4255 31.0791C38.6368 31.0871 38.7229 30.9995 38.7229 30.7844C38.7151 30.3385 38.7151 29.8925 38.7229 29.4465C38.7308 29.1996 38.6212 29.112 38.3864 29.12C37.995 29.128 37.6037 29.12 37.2124 29.12C36.9306 29.12 36.7428 28.9766 36.688 28.6979C36.5314 27.8139 36.1871 27.0096 35.7253 26.253C35.5453 25.9504 35.5687 25.7672 35.8192 25.5123C36.0853 25.2336 36.3514 24.9628 36.6254 24.6921C36.7584 24.5646 36.7584 24.4452 36.6332 24.3098C36.3123 23.9753 35.9914 23.6408 35.6783 23.2984C35.5296 23.1311 35.4044 23.1471 35.2635 23.3063C35.013 23.5692 34.7548 23.832 34.4965 24.0868C34.2538 24.3257 34.066 24.3576 33.7921 24.1664C33.072 23.6886 32.2971 23.3621 31.4597 23.155C31.1075 23.0674 30.9979 22.9241 30.9979 22.5418C30.9979 22.1516 30.9901 21.7693 30.9979 21.3791C30.9979 21.2039 30.9353 21.1242 30.7553 21.1242C30.2935 21.1322 29.8395 21.1322 29.3778 21.1242C29.1821 21.1242 29.096 21.2039 29.1038 21.4109C29.1117 21.8171 29.1038 22.2233 29.1038 22.6294C29.1038 22.932 28.9551 23.1232 28.6734 23.1789C27.8046 23.3382 27.0141 23.6886 26.2705 24.1585C25.9888 24.3337 25.8088 24.3098 25.5661 24.0709C25.3 23.8081 25.0339 23.5453 24.7835 23.2665C24.6347 23.1072 24.5095 23.0754 24.3452 23.2506C24.0321 23.5771 23.7034 23.8877 23.3746 24.2063C23.2259 24.3496 23.2259 24.4611 23.3746 24.6045C23.6251 24.8513 23.8755 25.1062 24.1182 25.361C24.3843 25.6398 24.4156 25.8309 24.2121 26.1495C23.7581 26.8662 23.4294 27.6307 23.2494 28.4669C23.1711 28.8253 23.0224 28.9448 22.6467 28.9448C22.2867 28.9527 21.9267 28.9527 21.5667 28.9448C21.371 28.9448 21.2849 29.0244 21.2849 29.2235C21.2927 29.6775 21.2927 30.1394 21.2849 30.5933C21.2771 30.8322 21.3788 30.9039 21.6058 30.8959C21.9736 30.888 22.3493 30.888 22.7172 30.8959C23.0537 30.9039 23.2103 31.0234 23.2729 31.3499C23.4451 32.2179 23.7738 33.0143 24.2356 33.7629C24.4156 34.0576 24.3843 34.2567 24.1417 34.5115C23.8912 34.7744 23.6407 35.0372 23.3746 35.292C23.2024 35.4513 23.1868 35.5867 23.359 35.7619C23.6721 36.0725 23.9773 36.399 24.2747 36.7255C24.4234 36.8848 24.5408 36.8848 24.6895 36.7335C24.94 36.4707 25.1983 36.2079 25.4566 35.953C25.6914 35.7221 25.8949 35.6902 26.161 35.8654C26.8889 36.3432 27.6715 36.6857 28.5168 36.8768C28.8377 36.9485 28.9473 37.1078 28.9473 37.4502C28.9473 37.8245 28.9551 38.2068 28.9473 38.5811C28.9473 38.7722 29.0256 38.8519 29.2134 38.8519C29.4482 38.8519 29.683 38.8598 29.9178 38.8598Z" fill="#FF6666"/>
<path d="M16.4637 25.1301C16.1819 25.2734 15.9628 25.3849 15.7436 25.4885C15.4462 25.6318 15.1723 25.5442 15.047 25.2814C14.9296 25.0265 15.0235 24.7717 15.3131 24.6204C15.908 24.3098 16.5106 23.9992 17.1133 23.6966C17.4342 23.5373 17.6925 23.6249 17.8412 23.9514C18.1386 24.5965 18.4282 25.2495 18.71 25.9026C18.843 26.2052 18.7413 26.4521 18.4673 26.5715C18.2012 26.691 17.9664 26.5875 17.8255 26.2928C17.7551 26.1495 17.7003 26.0061 17.6299 25.8548C17.5672 25.7194 17.5046 25.584 17.4264 25.4168C17.3794 25.5123 17.3481 25.5761 17.3246 25.6398C16.9255 26.7308 16.5498 27.8219 16.3932 28.9846C16.2367 30.1155 16.3228 31.2543 16.5576 32.3613C17.7003 37.7767 20.9015 41.3366 26.028 43.1126C27.4838 43.6143 28.9943 43.7895 30.5284 43.7576C30.6536 43.7576 30.7867 43.7417 30.9041 43.7736C31.1467 43.8532 31.2641 44.0364 31.2328 44.2992C31.1937 44.5779 31.0215 44.7292 30.7475 44.7213C29.9648 44.7053 29.1822 44.7213 28.4073 44.6337C25.5897 44.2992 23.0538 43.232 20.8467 41.4162C17.7707 38.8758 15.9706 35.6026 15.4384 31.5888C15.1566 29.4784 15.5949 27.5033 16.3071 25.5601C16.3619 25.4407 16.4011 25.3212 16.4637 25.1301Z" fill="#FF6666"/>
<path d="M42.1902 20.7659C42.1902 20.511 42.1824 20.3358 42.1902 20.1526C42.2058 19.858 42.4015 19.6509 42.6598 19.643C42.9181 19.635 43.1451 19.8261 43.1529 20.1287C43.1764 20.8455 43.1764 21.5623 43.1685 22.271C43.1685 22.5498 42.9416 22.7648 42.6441 22.7648C41.9084 22.7728 41.1805 22.7728 40.4448 22.7648C40.1239 22.7568 39.9361 22.5498 39.9361 22.271C39.9361 21.9764 40.1396 21.7852 40.4761 21.7773C40.8753 21.7693 41.2666 21.7773 41.7362 21.7773C41.5014 21.4906 41.3136 21.2517 41.1101 21.0287C38.5586 18.2413 35.4435 16.4892 31.7258 16.0831C26.8263 15.5336 22.7172 17.2458 19.4691 21.0526C19.3908 21.1402 19.3204 21.2357 19.2499 21.3313C19.0464 21.5702 18.7647 21.61 18.5534 21.4428C18.3264 21.2596 18.3029 20.9729 18.5064 20.7021C18.7334 20.4154 18.9603 20.1287 19.2108 19.8659C22.4433 16.3857 26.4271 14.7133 31.1231 15.0398C35.4357 15.3345 39.0125 17.2697 41.9397 20.4871C42.0102 20.5588 42.0728 20.6305 42.1902 20.7659Z" fill="#FF6666"/>
<path d="M25.6366 30.0358C25.6522 27.6307 27.6324 25.6477 30.0039 25.6796C30.1448 25.6796 30.2935 25.7035 30.4344 25.7433C30.6457 25.807 30.7553 25.9663 30.7474 26.1893C30.7396 26.4123 30.6222 26.5715 30.4031 26.6114C30.0978 26.6591 29.7848 26.6591 29.4717 26.7069C27.5933 27.0016 26.3488 28.7377 26.6619 30.6331C26.9593 32.425 28.7829 33.6913 30.5909 33.3568C32.845 32.9427 34.019 30.6729 33.0798 28.5546C32.9311 28.228 33.0016 27.9413 33.2677 27.8219C33.5416 27.6945 33.7921 27.8059 33.9564 28.1404C35.1931 30.6013 33.7216 33.6753 31.0214 34.2886C28.5168 34.854 26.1375 33.2533 25.6992 30.6889C25.66 30.4739 25.66 30.2509 25.6366 30.0358Z" fill="#FF6666"/>
<path d="M32.8059 26.8344C32.8059 27.2803 32.438 27.5272 32.1015 27.352C31.9215 27.2564 31.7493 27.1449 31.5849 27.0175C31.3814 26.8662 31.3266 26.5954 31.4597 26.3804C31.5927 26.1574 31.7962 26.0619 32.0389 26.1733C32.258 26.2769 32.4693 26.4123 32.6572 26.5636C32.7354 26.6353 32.7746 26.7786 32.8059 26.8344Z" fill="#FF6666"/>
</g>
<defs>
<clipPath id="clip0_20_112">
<rect width="30" height="30" fill="white" transform="translate(15 15)"/>
</clipPath>
</defs>
</svg>
