<svg width="60" height="60" viewBox="0 0 60 60" fill="none" xmlns="http://www.w3.org/2000/svg">
<rect width="60" height="60" fill="white"/>
<circle cx="30" cy="30" r="28" fill="#1E89C5" fill-opacity="0.1"/>
<g clip-path="url(#clip0_15_50)">
<path d="M48 29.8451C47.7934 29.4678 47.4741 29.3481 47.042 29.3573C45.8023 29.3758 44.5625 29.3665 43.3228 29.3665C42.8062 29.3665 42.4869 29.6242 42.4775 30.0384C42.4681 30.4618 42.7968 30.7471 43.3228 30.7471C44.5625 30.7471 45.8023 30.7379 47.042 30.7563C47.4741 30.7655 47.7934 30.6366 48 30.2685C48 30.1212 48 29.9832 48 29.8451Z" fill="#1E89C5"/>
<path d="M48 22.602C47.7934 22.2339 47.4835 22.0958 47.0514 22.1142C46.4222 22.1419 45.7929 22.1142 45.1636 22.1235C44.6658 22.1235 44.3465 22.4088 44.3559 22.8321C44.3653 23.2371 44.6752 23.504 45.1636 23.504C45.7929 23.504 46.4222 23.4856 47.0514 23.5132C47.4835 23.5316 47.7934 23.3935 48 23.0254C48 22.8781 48 22.7401 48 22.602Z" fill="#1E89C5"/>
<path d="M28.4269 17.8437C26.9335 19.307 25.4496 20.7704 23.9562 22.2337C23.8623 22.3258 23.7778 22.4178 23.6745 22.4914C23.4115 22.6755 23.0358 22.6479 22.801 22.4362C22.5568 22.2153 22.5004 21.8656 22.6789 21.5895C22.754 21.4699 22.8573 21.3778 22.9513 21.2766C24.9518 19.307 26.9617 17.3375 28.9622 15.368C29.4694 14.871 29.7793 14.871 30.2959 15.3772C33.9119 18.9297 37.5372 22.4822 41.1532 26.0348C41.6698 26.5409 41.6698 26.8447 41.1626 27.3416C35.6306 32.7809 30.1081 38.2017 24.5855 43.6225C24.0783 44.1287 23.759 44.1287 23.2518 43.6225C19.6265 40.07 16.0105 36.5175 12.3945 32.9649C11.8686 32.4495 11.8686 32.155 12.4039 31.6304C14.4514 29.6149 16.5083 27.5993 18.5651 25.5838C18.6591 25.4917 18.7436 25.3997 18.8469 25.3261C19.1099 25.142 19.495 25.1788 19.7204 25.3997C19.974 25.639 20.0115 25.9979 19.8143 26.2832C19.7392 26.3845 19.6452 26.4765 19.5513 26.5593C17.9922 28.0871 16.4331 29.6149 14.8834 31.1519C14.7989 31.2347 14.7144 31.3267 14.5923 31.4556C14.7613 31.4648 14.8553 31.474 14.9398 31.474C18.9033 31.474 22.8573 31.474 26.8208 31.474C27.0274 31.474 27.2435 31.4556 27.4407 31.4003C28.2954 31.1611 28.765 30.4708 28.765 29.4768C28.765 25.639 28.765 21.792 28.765 17.9541C28.765 17.8437 28.7556 17.7333 28.7462 17.5676C28.6147 17.678 28.5208 17.7517 28.4269 17.8437ZM30.1832 27.4061C30.1832 27.9859 30.1926 28.5473 30.1832 29.1087C30.1738 29.4952 30.1926 29.9002 30.1081 30.2775C29.8075 31.7409 28.5865 32.7717 27.065 32.8361C26.2667 32.8729 25.4777 32.8453 24.6512 32.8453C24.6512 35.7628 24.6512 38.6527 24.6512 41.4781C29.413 36.8028 34.203 32.0998 38.9742 27.4153C36.0908 27.4061 33.1605 27.4061 30.1832 27.4061ZM38.9742 25.9887C36.0533 23.1265 33.1229 20.2458 30.202 17.3835C30.202 20.1998 30.202 23.0897 30.202 25.9887C33.1605 25.9887 36.0908 25.9887 38.9742 25.9887ZM23.1861 32.8729C20.2369 32.8729 17.2972 32.8729 14.3669 32.8729C17.3066 35.7536 20.2369 38.6342 23.1861 41.5333C23.1861 38.6527 23.1861 35.772 23.1861 32.8729Z" fill="#1E89C5"/>
<path d="M40.4581 38.9565C42.0172 38.9565 43.5669 38.9565 45.126 38.9565C45.2293 38.9565 45.3421 38.9657 45.4454 38.9473C45.8211 38.9105 46.1028 38.616 46.1028 38.2663C46.1028 37.9073 45.8304 37.6128 45.4454 37.576C45.3514 37.5668 45.2575 37.576 45.1636 37.576C42.0172 37.576 38.8709 37.576 35.7245 37.576C35.6306 37.576 35.5367 37.576 35.4428 37.576C35.0671 37.6128 34.7853 37.8981 34.7853 38.2571C34.7853 38.616 35.0577 38.9105 35.4428 38.9473C35.5461 38.9565 35.6494 38.9565 35.7621 38.9565C37.3212 38.9565 38.8897 38.9565 40.4581 38.9565Z" fill="#1E89C5"/>
<path d="M40.5521 34.5389C41.1719 34.5389 41.7918 34.5389 42.4117 34.5389C42.8813 34.5389 43.21 34.2444 43.21 33.8486C43.21 33.4529 42.8813 33.1584 42.4117 33.1584C41.1625 33.1584 39.9134 33.1584 38.6642 33.1584C38.1759 33.1584 37.8753 33.4253 37.8753 33.8486C37.8753 34.2628 38.1759 34.5297 38.6642 34.5389C39.2841 34.5481 39.9228 34.5389 40.5521 34.5389Z" fill="#1E89C5"/>
<path d="M41.4443 23.4948C41.867 23.4948 42.2896 23.504 42.7029 23.4948C43.1537 23.4856 43.4448 23.2002 43.4448 22.7953C43.4354 22.3996 43.1537 22.1234 42.7216 22.1234C41.8576 22.1142 40.9935 22.1142 40.1294 22.1234C39.6974 22.1327 39.4062 22.418 39.4062 22.8045C39.4062 23.2095 39.6974 23.4948 40.1576 23.4948C40.5802 23.504 41.0123 23.4948 41.4443 23.4948Z" fill="#1E89C5"/>
<path d="M40.3924 30.0752C40.4018 30.4526 40.7117 30.7471 41.0968 30.7471C41.4819 30.7471 41.8106 30.4157 41.8012 30.0384C41.7918 29.6703 41.4631 29.3665 41.0874 29.3665C40.6835 29.3665 40.3736 29.6795 40.3924 30.0752Z" fill="#1E89C5"/>
<path d="M21.1667 24.682C21.5518 24.682 21.8524 24.3967 21.8618 24.0194C21.8711 23.6328 21.5518 23.3107 21.1667 23.3107C20.7817 23.3107 20.4529 23.6512 20.4623 24.0194C20.4717 24.3875 20.7817 24.682 21.1667 24.682Z" fill="#1E89C5"/>
</g>
<defs>
<clipPath id="clip0_15_50">
<rect width="36" height="29" fill="white" transform="translate(12 15)"/>
</clipPath>
</defs>
</svg>
