<svg width="60" height="60" viewBox="0 0 60 60" fill="none" xmlns="http://www.w3.org/2000/svg">
<rect width="60" height="60" fill="white"/>
<circle cx="30" cy="30" r="27.5" stroke="#00B884" stroke-opacity="0.1"/>
<g clip-path="url(#clip0_18_68)">
<path d="M34.8388 21.1191C36.798 19.9446 38.859 20.7702 39.7156 22.1829C40.2499 23.068 40.3771 24.0042 40.1057 24.9914C39.8343 25.9787 39.2067 26.6765 38.3162 27.1787C38.9099 28.2085 39.4866 29.2212 40.0718 30.2255C40.3008 30.617 40.5298 31.0085 40.7503 31.4085C41.3016 32.4127 41.0811 33.6212 40.2329 34.3191C39.3594 35.0425 38.155 35.017 37.256 34.285C37.1542 34.1999 36.9931 34.1319 36.8659 34.1489C33.4818 34.5063 30.2589 35.4425 27.1378 36.8978C27.2311 36.9999 27.3159 37.085 27.3922 37.1702C28.6305 38.4127 29.8603 39.6468 31.0986 40.8893C31.6244 41.417 31.6159 41.7744 31.0986 42.3021C30.3522 43.051 29.6059 43.7999 28.851 44.5574C28.2658 45.1446 27.935 45.1446 27.3583 44.5659C25.7638 42.9659 24.1693 41.3744 22.5833 39.7659C22.4391 39.6212 22.3374 39.5787 22.1253 39.6638C19.793 40.634 17.2655 39.7829 15.9679 37.6042C15.5269 36.8553 15.1028 36.0978 14.6703 35.3404C13.2963 32.9063 14.085 29.9957 16.4937 28.5829C17.8253 27.817 19.1738 27.085 20.4545 26.234C23.4145 24.2595 25.9589 21.834 28.0623 18.9489C28.1725 18.7957 28.2149 18.6595 28.1725 18.4553C27.9774 17.3233 28.5711 16.2765 29.6228 15.885C30.666 15.4936 31.811 15.8936 32.3962 16.8893C33.1595 18.1829 33.8974 19.4936 34.6522 20.7957C34.7031 20.9063 34.7625 20.9999 34.8388 21.1191ZM36.1958 32.685C33.7871 28.4978 31.4124 24.3787 29.0206 20.217C26.8664 23.0765 24.3135 25.4425 21.4044 27.4595C22.9904 30.217 24.5595 32.9489 26.137 35.6893C29.3345 34.1574 32.6506 33.1276 36.1958 32.685ZM20.0983 28.268C19.0721 28.8638 18.0628 29.4255 17.0874 30.0297C15.5862 30.9744 15.0858 32.8638 15.917 34.4382C16.375 35.2978 16.8584 36.1404 17.3758 36.9659C18.2494 38.3702 19.988 38.9574 21.4723 38.2595C22.6088 37.7319 23.6689 37.051 24.7885 36.4212C23.2194 33.6893 21.6758 30.9999 20.0983 28.268ZM39.5629 32.5319C39.4781 32.3531 39.4103 32.1659 39.317 31.9957C36.6029 27.2723 33.8889 22.5574 31.1749 17.8425C31.124 17.7574 31.0816 17.6723 31.0222 17.6042C30.7763 17.2808 30.3692 17.2042 30.0299 17.3999C29.6991 17.5957 29.5634 17.9957 29.7161 18.3702C29.7585 18.4638 29.8179 18.5574 29.8688 18.651C32.5743 23.3489 35.2799 28.0553 37.9854 32.7531C38.0448 32.8638 38.1126 32.9744 38.1889 33.0765C38.401 33.3319 38.7487 33.417 39.054 33.2893C39.3424 33.1531 39.529 32.8723 39.5629 32.5319ZM29.555 41.6042C28.2658 40.3106 26.9597 38.9999 25.6451 37.6723C25.0344 38.0212 24.4068 38.3957 23.7962 38.7446C25.2549 40.2085 26.6883 41.6467 28.0962 43.068C28.5796 42.5914 29.08 42.0893 29.555 41.6042ZM37.5444 25.8425C38.6893 25.2212 39.054 23.9616 38.401 22.9659C37.7903 22.0297 36.4927 21.7914 35.6021 22.4808C36.2467 23.5957 36.8913 24.7106 37.5444 25.8425Z" fill="#00B884"/>
<path d="M45.1858 27.5872C45.1434 27.5787 45.0331 27.5617 44.9398 27.5362C44.0578 27.2553 43.1757 26.966 42.2937 26.6766C41.912 26.5489 41.6915 26.2511 41.7085 25.9021C41.7254 25.5617 41.9544 25.2723 42.2937 25.1957C42.4124 25.1702 42.5481 25.1617 42.6668 25.2043C43.6083 25.5021 44.5582 25.8 45.4911 26.1234C45.8643 26.2511 46.0594 26.617 45.9915 26.9745C45.9152 27.3319 45.6099 27.5787 45.1858 27.5872Z" fill="#00B884"/>
<path d="M38.265 19.3744C37.7986 19.3744 37.4254 18.9659 37.5187 18.5063C37.7053 17.5276 37.9173 16.5574 38.1378 15.5872C38.2396 15.1531 38.6382 14.9234 39.0623 15.0255C39.4439 15.1106 39.6984 15.4936 39.6136 15.9021C39.4185 16.8723 39.2149 17.834 39.0029 18.7957C38.9181 19.1617 38.6213 19.3744 38.265 19.3744Z" fill="#00B884"/>
<path d="M42.0053 22.1064C41.6236 22.0979 41.3522 21.9021 41.242 21.6043C41.1317 21.2894 41.2081 20.9319 41.4964 20.7532C42.3785 20.217 43.2775 19.6979 44.185 19.1957C44.5158 19.017 44.9314 19.1872 45.1179 19.5106C45.313 19.8511 45.2536 20.2936 44.9144 20.4979C44.0239 21.034 43.1333 21.5362 42.2428 22.0468C42.158 22.0979 42.0477 22.0979 42.0053 22.1064Z" fill="#00B884"/>
</g>
<defs>
<clipPath id="clip0_18_68">
<rect width="32" height="30" fill="white" transform="translate(14 15)"/>
</clipPath>
</defs>
</svg>
