<svg width="60" height="60" viewBox="0 0 60 60" fill="none" xmlns="http://www.w3.org/2000/svg">
<rect width="60" height="60" fill="white"/>
<circle cx="30" cy="30" r="27.5" stroke="#1E89C5" stroke-opacity="0.1"/>
<g clip-path="url(#clip0_20_146)">
<path d="M29.7069 45C29.143 44.8752 28.6088 44.7065 28.1711 44.3028C27.3846 43.591 27.073 42.703 27.2881 41.683C27.4959 40.6849 28.1117 39.9804 29.0985 39.6575C30.9237 39.0704 32.6748 40.2813 32.7787 42.1747C32.8454 43.4662 31.7993 44.7358 30.4934 44.9413C30.4266 44.9486 30.3599 44.978 30.2931 44.9927C30.1002 45 29.8998 45 29.7069 45ZM31.7993 42.248C31.7993 41.2647 31.0202 40.4795 30.026 40.4721C29.0243 40.4574 28.2156 41.25 28.2082 42.2407C28.2082 43.2314 29.0169 44.0313 30.0186 44.024C31.0054 44.0166 31.7918 43.2314 31.7993 42.248Z" fill="#1E89C5"/>
<path d="M30.0334 24.5548C33.068 24.5841 35.5388 27.0499 35.5091 30.0294C35.4794 33.0308 32.9864 35.4746 29.9741 35.4452C26.9394 35.4159 24.4687 32.9501 24.4984 29.9706C24.5281 26.9618 27.021 24.5254 30.0334 24.5548ZM26.9246 33.2436C26.9617 33.1923 26.9839 33.1556 26.9988 33.1262C27.3846 32.3997 27.993 31.9961 28.824 31.9814C29.6624 31.9667 30.5008 31.9667 31.3393 31.9961C31.8957 32.0108 32.3558 32.275 32.7119 32.7006C32.8529 32.8694 32.9642 33.0528 33.0903 33.2363C34.9452 31.5998 34.9897 28.6424 33.209 26.8518C31.4209 25.0538 28.4085 25.1052 26.6946 26.9472C24.8842 28.8845 25.2329 31.7833 26.9246 33.2436ZM30.0037 32.9281C29.6253 32.9281 29.2543 32.9207 28.8759 32.9281C28.3863 32.9428 27.9708 33.2363 27.8224 33.6473C27.7704 33.794 27.7778 33.8968 27.9485 33.9702C29.3211 34.6233 30.6789 34.6233 32.0515 33.9702C32.2222 33.8894 32.2296 33.794 32.1777 33.6473C32.0367 33.229 31.6212 32.9354 31.1241 32.9281C30.7531 32.9207 30.3747 32.9281 30.0037 32.9281Z" fill="#1E89C5"/>
<path d="M29.9889 15C31.5025 14.9853 32.7861 16.2475 32.7861 17.752C32.7861 19.2417 31.5396 20.4819 30.0186 20.5039C28.5124 20.5186 27.2214 19.2564 27.2214 17.752C27.2214 16.2549 28.4679 15.0147 29.9889 15ZM31.7993 17.7593C31.8067 16.7686 31.0054 15.9687 30.0037 15.9687C29.0095 15.9687 28.223 16.7466 28.2082 17.7299C28.2008 18.706 28.9798 19.4985 29.9741 19.5205C30.9757 19.5426 31.7919 18.7573 31.7993 17.7593Z" fill="#1E89C5"/>
<path d="M40.7325 26.6169C39.1744 26.6169 37.9501 25.3841 37.9501 23.7989C37.9501 22.3532 39.2337 21.1204 40.7251 21.1204C42.2906 21.1204 43.5074 22.3606 43.5074 23.9384C43.5 25.3914 42.2238 26.6169 40.7325 26.6169ZM38.9369 23.8796C38.9444 24.885 39.7383 25.6629 40.7399 25.6556C41.7193 25.6482 42.528 24.841 42.5206 23.8796C42.5132 22.8596 41.7119 22.0744 40.7028 22.089C39.7234 22.0964 38.9295 22.911 38.9369 23.8796Z" fill="#1E89C5"/>
<path d="M19.2824 21.1277C20.7737 21.1277 22.0573 22.3679 22.0573 23.8063C22.0573 25.3914 20.8405 26.6243 19.2749 26.6243C17.7836 26.6169 16.5 25.3841 16.5 23.9457C16.4926 22.3679 17.7242 21.1204 19.2824 21.1277ZM21.0705 23.8943C21.0853 22.9183 20.2988 22.1111 19.3195 22.089C18.3104 22.067 17.5017 22.8523 17.4868 23.865C17.472 24.8337 18.2733 25.6409 19.2527 25.6556C20.2469 25.6703 21.0556 24.8924 21.0705 23.8943Z" fill="#1E89C5"/>
<path d="M19.2527 38.8723C17.6797 38.843 16.4777 37.6101 16.5 36.025C16.5148 34.5866 17.8207 33.3537 19.2972 33.3757C20.8702 33.3977 22.0721 34.638 22.0499 36.2158C22.035 37.6614 20.7292 38.8943 19.2527 38.8723ZM21.0705 36.113C21.0556 35.115 20.2617 34.3297 19.2601 34.3371C18.2807 34.3444 17.4794 35.1517 17.4868 36.1204C17.4942 37.1404 18.2955 37.9256 19.312 37.911C20.284 37.8889 21.0779 37.0817 21.0705 36.113Z" fill="#1E89C5"/>
<path d="M40.6806 38.865C39.1299 38.8283 37.913 37.5734 37.9501 36.0616C37.9872 34.5426 39.2486 33.339 40.7696 33.3757C42.3129 33.4051 43.5371 34.6673 43.5 36.1791C43.4629 37.6908 42.1942 38.9017 40.6806 38.865ZM38.9369 36.1057C38.9221 37.0817 39.7086 37.8889 40.6954 37.9036C41.7045 37.9183 42.5058 37.1404 42.5206 36.1204C42.5355 35.159 41.7267 34.3444 40.7473 34.3371C39.7457 34.3297 38.9518 35.1076 38.9369 36.1057Z" fill="#1E89C5"/>
<path d="M35.6352 27.3434C35.4646 27.0572 35.3162 26.7931 35.1455 26.5068C35.8949 26.0812 36.6294 25.6556 37.4011 25.2153C37.5643 25.4941 37.7201 25.7583 37.8908 26.0519C37.1488 26.4775 36.4068 26.8958 35.6352 27.3434Z" fill="#1E89C5"/>
<path d="M22.5989 34.7847C22.4357 34.4985 22.2799 34.2417 22.1093 33.9481C22.8512 33.5225 23.5858 33.1042 24.3648 32.6566C24.528 32.9281 24.6839 33.1923 24.8545 33.4931C24.1126 33.9188 23.378 34.3371 22.5989 34.7847Z" fill="#1E89C5"/>
<path d="M22.1093 26.0519C22.2725 25.7657 22.4283 25.5088 22.5989 25.2153C23.3557 25.6482 24.0903 26.0665 24.8545 26.4995C24.6913 26.7784 24.5429 27.0426 24.3722 27.3361C23.6154 26.9105 22.8735 26.4922 22.1093 26.0519Z" fill="#1E89C5"/>
<path d="M35.1455 33.4931C35.3087 33.2143 35.4646 32.9501 35.6352 32.6566C36.392 33.0895 37.1414 33.5152 37.8908 33.9408C37.7275 34.227 37.5717 34.4839 37.4011 34.7774C36.6443 34.3444 35.9023 33.9261 35.1455 33.4931Z" fill="#1E89C5"/>
<path d="M29.5289 21.2818C29.8479 21.2818 30.1521 21.2818 30.4637 21.2818C30.4637 22.1331 30.4637 22.9623 30.4637 23.8209C30.1595 23.8209 29.8553 23.8209 29.5289 23.8209C29.5289 22.9843 29.5289 22.1477 29.5289 21.2818Z" fill="#1E89C5"/>
<path d="M30.4637 38.7182C30.1521 38.7182 29.8553 38.7182 29.5363 38.7182C29.5363 37.8669 29.5363 37.023 29.5363 36.1644C29.8331 36.1644 30.1373 36.1644 30.4637 36.1644C30.4637 37.0083 30.4637 37.8523 30.4637 38.7182Z" fill="#1E89C5"/>
<path d="M22.0054 21.2818C21.7754 21.0323 21.575 20.8121 21.3524 20.57C21.6344 20.3351 21.9015 20.115 22.1909 19.8728C22.3986 20.1443 22.5841 20.3865 22.7844 20.6433C22.5173 20.8635 22.2725 21.0616 22.0054 21.2818Z" fill="#1E89C5"/>
<path d="M37.9946 21.2818C37.7275 21.0616 37.4827 20.8635 37.2156 20.6433C37.4085 20.3938 37.5866 20.1517 37.8017 19.8728C38.0837 20.1076 38.3508 20.3205 38.6476 20.5626C38.4324 20.8048 38.2246 21.0323 37.9946 21.2818Z" fill="#1E89C5"/>
<path d="M18.2065 31.5044C18.2659 31.8567 18.3178 32.1575 18.3698 32.4878C18.0507 32.5538 17.7465 32.6199 17.42 32.6932C17.3607 32.3337 17.3013 32.0034 17.2346 31.6292C17.561 31.5851 17.8652 31.5484 18.2065 31.5044Z" fill="#1E89C5"/>
<path d="M42.7655 31.6218C42.7061 31.9887 42.6468 32.3263 42.5874 32.6859C42.2609 32.6199 41.9716 32.5538 41.6377 32.4804C41.6896 32.1575 41.7416 31.842 41.8009 31.4971C42.12 31.5411 42.4242 31.5851 42.7655 31.6218Z" fill="#1E89C5"/>
<path d="M42.5874 27.2994C42.6468 27.6737 42.7061 28.0039 42.7655 28.3635C42.439 28.4075 42.1422 28.4442 41.8083 28.4883C41.749 28.1654 41.6971 27.8498 41.6377 27.5049C41.9493 27.4388 42.2461 27.3728 42.5874 27.2994Z" fill="#1E89C5"/>
<path d="M18.3698 27.5049C18.3104 27.8425 18.2585 28.1433 18.2065 28.4883C17.8875 28.4516 17.5833 28.4149 17.242 28.3708C17.3013 28.0039 17.3607 27.6663 17.42 27.3068C17.7391 27.3728 18.0359 27.4388 18.3698 27.5049Z" fill="#1E89C5"/>
<path d="M22.0054 38.7109C22.2799 38.931 22.5173 39.1292 22.777 39.3493C22.5841 39.5988 22.3986 39.8483 22.1909 40.1199C21.9089 39.885 21.6418 39.6649 21.345 39.4227C21.575 39.1879 21.7828 38.9604 22.0054 38.7109Z" fill="#1E89C5"/>
<path d="M25.4184 19.1389C25.2848 18.8307 25.1735 18.5592 25.04 18.251C25.3887 18.1189 25.7152 18.0015 26.0639 17.8767C26.1678 18.1849 26.2568 18.4711 26.3607 18.794C26.049 18.9041 25.7448 19.0215 25.4184 19.1389Z" fill="#1E89C5"/>
<path d="M37.2156 39.3493C37.4975 39.1218 37.7349 38.9237 37.9946 38.7109C38.2172 38.953 38.425 39.1732 38.655 39.4227C38.373 39.6575 38.1059 39.8777 37.8166 40.1199C37.6014 39.8483 37.4159 39.6062 37.2156 39.3493Z" fill="#1E89C5"/>
<path d="M36.9114 40.7436C36.5849 40.9271 36.2956 41.0959 35.9691 41.2867C35.8133 41.0005 35.6649 40.729 35.5091 40.4428C35.7985 40.274 36.073 40.1125 36.3846 39.9364C36.5627 40.2006 36.7259 40.4648 36.9114 40.7436Z" fill="#1E89C5"/>
<path d="M34.5816 40.8537C34.7152 41.1619 34.8339 41.4408 34.96 41.7417C34.6039 41.8738 34.2774 41.9912 33.9361 42.116C33.8323 41.8077 33.7432 41.5215 33.6393 41.1986C33.9435 41.0886 34.2478 40.9785 34.5816 40.8537Z" fill="#1E89C5"/>
<path d="M23.096 19.249C23.4225 19.0656 23.7193 18.8968 24.0457 18.706C24.2016 18.9995 24.3425 19.2637 24.4983 19.5572C24.209 19.726 23.9345 19.8801 23.6228 20.0636C23.4522 19.7994 23.2815 19.5426 23.096 19.249Z" fill="#1E89C5"/>
<path d="M35.9543 18.706C36.2807 18.8968 36.5775 19.0656 36.904 19.249C36.7259 19.5279 36.5627 19.7847 36.3846 20.0636C36.0878 19.8948 35.8133 19.7407 35.5091 19.5646C35.6501 19.2857 35.791 19.0142 35.9543 18.706Z" fill="#1E89C5"/>
<path d="M33.6393 18.794C33.7432 18.4785 33.8323 18.1849 33.9361 17.8767C34.2774 18.0015 34.5965 18.1189 34.96 18.251C34.8339 18.5445 34.7152 18.8307 34.5816 19.1389C34.2626 19.0215 33.9658 18.9114 33.6393 18.794Z" fill="#1E89C5"/>
<path d="M23.6154 39.9291C23.9196 40.1052 24.1867 40.2593 24.4909 40.4281C24.35 40.6996 24.2016 40.9711 24.0457 41.2794C23.7267 41.1032 23.4299 40.9344 23.096 40.7436C23.2741 40.4721 23.4373 40.2153 23.6154 39.9291Z" fill="#1E89C5"/>
<path d="M25.04 41.749C25.1735 41.4408 25.2922 41.1619 25.4184 40.8611C25.7374 40.9785 26.0416 41.0886 26.3607 41.206C26.2568 41.5215 26.1603 41.8151 26.0639 42.1233C25.73 41.9985 25.4035 41.8811 25.04 41.749Z" fill="#1E89C5"/>
<path d="M17.1529 29.4936C17.4794 29.4936 17.7688 29.4936 18.0878 29.4936C18.0878 29.8312 18.0878 30.1468 18.0878 30.499C17.7836 30.499 17.4794 30.499 17.1529 30.499C17.1529 30.1688 17.1529 29.8312 17.1529 29.4936Z" fill="#1E89C5"/>
<path d="M41.9122 29.4936C42.2238 29.4936 42.528 29.4936 42.8471 29.4936C42.8471 29.8239 42.8471 30.1541 42.8471 30.499C42.5354 30.499 42.2312 30.499 41.9122 30.499C41.9122 30.1541 41.9122 29.8386 41.9122 29.4936Z" fill="#1E89C5"/>
<path d="M30.0111 26.9985C31.1983 27.0059 32.148 27.9599 32.1406 29.1341C32.1257 30.3082 31.1537 31.2476 29.974 31.2329C28.8017 31.2182 27.8594 30.2715 27.8594 29.112C27.8669 27.9379 28.824 26.9912 30.0111 26.9985ZM30.0185 27.9599C29.3879 27.9525 28.8462 28.4736 28.8314 29.1047C28.8166 29.7285 29.3508 30.2642 29.9889 30.2789C30.6195 30.2935 31.1612 29.7652 31.176 29.1341C31.1834 28.5103 30.6492 27.9672 30.0185 27.9599Z" fill="#1E89C5"/>
</g>
<defs>
<clipPath id="clip0_20_146">
<rect width="27" height="30" fill="white" transform="translate(16.5 15)"/>
</clipPath>
</defs>
</svg>
