<svg width="60" height="60" viewBox="0 0 60 60" fill="none" xmlns="http://www.w3.org/2000/svg">
<rect width="60" height="60" fill="white"/>
<circle cx="30" cy="30" r="28" fill="#FD71AF" fill-opacity="0.1"/>
<g clip-path="url(#clip0_2_31)">
<path d="M51 42.8039C50.7744 43.621 50.395 44.3361 49.5747 44.6834C49.1646 44.857 48.6826 44.9796 48.2314 44.9796C36.0703 45 23.9092 44.9898 11.748 44.9898C10.3228 44.9898 9.58447 44.3871 8.98975 42.7937C8.98975 42.1399 8.98975 41.4862 8.98975 40.8325C9.21533 40.2605 9.58447 39.8621 10.3022 39.8315C10.3022 39.6578 10.3022 39.4842 10.3022 39.3105C10.3022 32.1399 10.3022 24.9591 10.3022 17.7886C10.3022 16.6548 10.7329 15.7661 11.7788 15.2656C12.1582 15.0817 12.6196 14.9898 13.04 14.9898C24.3501 15 35.6499 15 46.9497 15C48.6108 15 49.6772 16.1134 49.6772 17.7988C49.6772 24.9694 49.6772 32.1502 49.6772 39.3207C49.6772 39.4842 49.6772 39.6476 49.6772 39.8315C50.3643 39.8723 50.7744 40.2503 50.9897 40.8427C51 41.4964 51 42.1502 51 42.8039ZM48.457 39.8519C48.457 39.6782 48.457 39.5557 48.457 39.4331C48.457 32.2114 48.457 25 48.457 17.7784C48.457 16.7365 47.9238 16.2155 46.8574 16.2155C35.6191 16.2257 24.3809 16.2257 13.1426 16.2257C12.0659 16.2257 11.543 16.7467 11.543 17.8396C11.543 25.0306 11.543 32.2217 11.543 39.4127C11.543 39.5557 11.543 39.6987 11.543 39.8621C12.2095 39.8621 12.8042 39.8621 13.4092 39.8621C13.8911 39.8621 14.168 40.097 14.168 40.475C14.168 40.8529 13.8911 41.0776 13.3989 41.0878C12.6094 41.0981 11.8096 41.0878 11.02 41.0878C10.7637 41.0878 10.5073 41.0878 10.2407 41.0878C10.2407 41.619 10.21 42.0991 10.251 42.569C10.3125 43.3453 10.9175 43.7845 11.8608 43.7845C23.9604 43.7845 36.0601 43.7845 48.1494 43.7845C48.2827 43.7845 48.4263 43.7845 48.5596 43.7743C49.1543 43.7028 49.6465 43.3044 49.7183 42.7324C49.79 42.2012 49.7285 41.6599 49.7285 41.0981C49.5439 41.0981 49.3799 41.0981 49.2158 41.0981C44.6221 41.0981 40.0283 41.1185 35.4346 41.0776C34.5835 41.0674 34.0093 41.2411 33.6094 42.0378C33.2402 42.7835 32.5327 43.0695 31.7021 43.0695C30.8101 43.0592 29.918 42.998 29.0361 43.0797C27.6006 43.2125 26.5547 42.7222 25.9292 41.4147C25.8062 41.1594 25.6113 41.0981 25.3345 41.0981C22.3916 41.1083 19.459 41.1083 16.5161 41.0981C16.3521 41.0981 16.188 41.0879 16.0342 41.0572C15.7266 40.9857 15.5625 40.761 15.583 40.4648C15.6035 40.1481 15.7881 39.9336 16.1162 39.8928C16.2803 39.8723 16.4443 39.8825 16.6084 39.8825C27.0264 39.8825 37.4443 39.8825 47.8623 39.8825C48.0366 39.8519 48.2212 39.8519 48.457 39.8519ZM27.2622 41.0878C27.4878 41.6292 27.8262 41.8335 28.3594 41.8233C29.4771 41.7927 30.5947 41.8131 31.7124 41.8131C32.2764 41.8131 32.5122 41.6394 32.6968 41.0878C30.9023 41.0878 29.0977 41.0878 27.2622 41.0878Z" fill="#FD71AF"/>
<path d="M23.3965 18.8407C23.3965 24.9898 23.3965 31.0879 23.3965 37.2166C30.8716 37.2166 38.3262 37.2166 45.8013 37.2166C45.8013 31.1083 45.8013 25.0102 45.8013 18.8407C45.5757 18.8407 45.3501 18.8509 45.1245 18.8407C44.7759 18.8202 44.5605 18.6364 44.5195 18.2891C44.4785 17.9622 44.7041 17.6762 45.063 17.6456C45.5347 17.6149 46.0166 17.6149 46.4985 17.6456C46.8267 17.666 47.0112 17.8907 47.042 18.2074C47.0625 18.3401 47.0522 18.4832 47.0522 18.6159C47.0522 24.8979 47.0522 31.1798 47.0522 37.4515C47.0522 38.3095 46.8984 38.4627 46.0166 38.4627C35.3423 38.4627 24.6577 38.4627 13.9834 38.4627C13.0811 38.4627 12.9375 38.3197 12.9375 37.4208C12.9375 31.1594 12.9375 24.8876 12.9375 18.6262C12.9375 17.7784 13.1016 17.6149 13.9321 17.6149C23.3247 17.6149 32.7173 17.6149 42.1099 17.6149C42.2944 17.6149 42.5405 17.5843 42.6636 17.6864C42.8481 17.8192 43.043 18.0541 43.0737 18.2584C43.1147 18.5444 42.8994 18.7692 42.5918 18.8202C42.4277 18.8509 42.2637 18.8407 42.0996 18.8407C36.0601 18.8407 30.0103 18.8407 23.9707 18.8407C23.7964 18.8407 23.6221 18.8407 23.3965 18.8407ZM14.1987 18.8611C14.1987 24.9898 14.1987 31.0981 14.1987 37.2063C16.8545 37.2063 19.4795 37.2063 22.1045 37.2063C22.1045 31.0674 22.1045 24.9694 22.1045 18.8611C19.4487 18.8611 16.834 18.8611 14.1987 18.8611Z" fill="#FD71AF"/>
<path d="M40.2026 29.4637C40.5513 28.5036 40.8589 27.6353 41.1665 26.7671C41.3921 26.144 42.2739 25.8478 42.8071 26.2462C42.9609 26.3687 43.0942 26.6343 43.0942 26.8284C43.1148 28.7283 43.1148 30.6384 43.1045 32.5383C43.1045 32.9571 42.8482 33.2125 42.4893 33.2125C42.1201 33.2125 41.8843 32.9571 41.874 32.4974C41.8638 31.2206 41.874 29.9438 41.8125 28.6466C41.7612 28.7589 41.71 28.8713 41.669 28.9837C41.3818 29.7702 41.0947 30.5669 40.8179 31.3636C40.7051 31.6701 40.541 31.905 40.1821 31.905C39.8233 31.905 39.6592 31.6803 39.5464 31.3739C39.2285 30.4852 38.9107 29.5965 38.521 28.7181C38.5107 28.8407 38.5005 28.9734 38.5005 29.096C38.5005 30.1685 38.5005 31.2411 38.5005 32.3136C38.5005 32.4872 38.4902 32.6711 38.4287 32.8345C38.3364 33.1103 38.0903 33.2737 37.8237 33.192C37.6187 33.1307 37.4443 32.9367 37.3008 32.7528C37.229 32.6609 37.27 32.4872 37.27 32.3544C37.27 30.5567 37.27 28.7692 37.27 26.9714C37.27 26.4096 37.4136 26.2053 37.834 26.1236C38.5723 25.9908 38.9824 26.144 39.167 26.6547C39.4541 27.4311 39.7207 28.2176 40.0078 28.9939C40.0591 29.1267 40.1206 29.2492 40.2026 29.4637Z" fill="#FD71AF"/>
<path d="M34.604 22.1093C31.6611 22.1093 28.7285 22.1093 25.7857 22.1093C25.6318 22.1093 25.4883 22.1093 25.3345 22.0991C25.0064 22.0684 24.8115 21.8642 24.791 21.5373C24.7705 21.2104 24.9448 20.9959 25.273 20.9244C25.4165 20.8938 25.5703 20.8836 25.7241 20.8836C31.6406 20.8836 37.5571 20.8836 43.4736 20.8836C44.0991 20.8836 44.4067 21.0776 44.417 21.4862C44.4273 21.905 44.1196 22.1093 43.4634 22.1093C40.5103 22.1093 37.5571 22.1093 34.604 22.1093Z" fill="#FD71AF"/>
<path d="M34.9731 31.0776C35.2397 31.4658 35.4858 31.8233 35.7114 32.191C35.9473 32.5587 35.8857 32.9265 35.5781 33.1205C35.3013 33.3044 34.9321 33.2125 34.6963 32.8754C34.4297 32.4974 34.1528 32.1195 33.9272 31.7211C33.7222 31.3534 33.4453 31.2002 33.0352 31.2615C32.9019 31.2819 32.7686 31.2819 32.5737 31.2819C32.5737 31.7211 32.5942 32.1399 32.5737 32.5485C32.5532 33.0082 32.2559 33.2533 31.856 33.1818C31.4766 33.1205 31.3535 32.8447 31.3535 32.4974C31.3535 31.762 31.3535 31.0266 31.3535 30.3013C31.3535 29.1982 31.3535 28.1052 31.3535 27.002C31.3535 26.2666 31.5381 26.093 32.2764 26.093C32.9019 26.093 33.5376 26.0827 34.1528 26.1338C35.3218 26.236 36.2241 27.0429 36.4497 28.1256C36.6855 29.239 36.2036 30.3115 35.1987 30.904C35.1475 30.9653 35.0859 31.0061 34.9731 31.0776ZM32.6147 30.0153C33.1685 30.0153 33.6709 30.0562 34.1631 30.0051C34.7988 29.9438 35.2603 29.4025 35.3013 28.7589C35.3423 28.1665 34.9219 27.523 34.3271 27.4208C33.7734 27.3289 33.1992 27.3493 32.6147 27.3187C32.6147 28.2584 32.6147 29.1164 32.6147 30.0153Z" fill="#FD71AF"/>
<path d="M25.4165 29.6476C25.4063 28.7283 25.519 27.8601 26.1548 27.1246C27.2212 25.8887 29.1899 25.7865 30.3589 26.9203C30.6357 27.1859 30.6768 27.5434 30.4614 27.7988C30.2358 28.0643 29.8975 28.1154 29.5898 27.8601C29.1592 27.5128 28.6978 27.288 28.1235 27.3698C27.3647 27.4719 26.77 28.0235 26.6982 28.7794C26.647 29.3718 26.6265 29.9745 26.6982 30.5669C26.8418 31.8335 28.3389 32.4157 29.354 31.6496C29.877 31.2513 30.1948 31.2206 30.4512 31.5475C30.7075 31.8641 30.5947 32.2319 30.1128 32.5996C29.2207 33.2737 28.2261 33.4065 27.2109 32.9775C26.1958 32.5587 25.5806 31.7722 25.4575 30.6588C25.4473 30.3218 25.437 29.9847 25.4165 29.6476Z" fill="#FD71AF"/>
<path d="M18.1567 22.0991C17.5415 22.0991 16.9263 22.1093 16.3213 22.0991C15.8701 22.0889 15.5933 21.8642 15.583 21.5066C15.5728 21.1491 15.8496 20.8836 16.2905 20.8836C17.5415 20.8733 18.7925 20.8733 20.0537 20.8836C20.5049 20.8836 20.751 21.1491 20.7407 21.5271C20.7305 21.8846 20.4844 22.0991 20.0435 22.0991C19.4077 22.1093 18.7822 22.0991 18.1567 22.0991Z" fill="#FD71AF"/>
<path d="M18.1567 25.3779C17.5415 25.3779 16.9263 25.3882 16.3213 25.3779C15.8701 25.3677 15.5933 25.143 15.583 24.7855C15.5728 24.428 15.8496 24.1624 16.2905 24.1624C17.5415 24.1522 18.7925 24.1522 20.0537 24.1624C20.5049 24.1726 20.751 24.428 20.7407 24.8059C20.7305 25.1634 20.4844 25.3779 20.0435 25.3779C19.4077 25.3779 18.7822 25.3779 18.1567 25.3779Z" fill="#FD71AF"/>
<path d="M18.1567 28.6466C17.562 28.6466 16.957 28.6568 16.3623 28.6466C15.8701 28.6364 15.5933 28.4219 15.583 28.0541C15.5727 27.6864 15.8599 27.4311 16.3315 27.4311C17.562 27.4208 18.7822 27.4208 20.0127 27.4311C20.4946 27.4311 20.751 27.6864 20.7407 28.0746C20.7305 28.4423 20.4741 28.6466 20.0024 28.6568C19.3872 28.6466 18.772 28.6466 18.1567 28.6466Z" fill="#FD71AF"/>
<path d="M18.1772 33.9683C18.7925 33.9683 19.4077 33.9581 20.0127 33.9683C20.4741 33.9786 20.7305 34.1931 20.7305 34.5608C20.7305 34.9285 20.4844 35.1737 20.0229 35.1839C18.7822 35.1941 17.5415 35.1941 16.3008 35.1839C15.8496 35.1839 15.5728 34.9285 15.5728 34.571C15.5728 34.2033 15.8496 33.9683 16.3315 33.9581C16.957 33.9683 17.562 33.9683 18.1772 33.9683Z" fill="#FD71AF"/>
<path d="M18.1875 30.6997C18.7925 30.6997 19.3872 30.6895 19.9922 30.6997C20.4844 30.7099 20.7407 30.9346 20.7407 31.3228C20.7305 31.6905 20.4844 31.9152 20.0127 31.9152C18.7822 31.9254 17.5518 31.9254 16.3213 31.9152C15.8599 31.9152 15.5933 31.6701 15.5933 31.3126C15.5933 30.9448 15.8701 30.7099 16.3521 30.6997C16.957 30.6895 17.5723 30.6997 18.1875 30.6997Z" fill="#FD71AF"/>
</g>
<defs>
<clipPath id="clip0_2_31">
<rect width="42" height="30" fill="white" transform="translate(9 15)"/>
</clipPath>
</defs>
</svg>
