<svg width="60" height="60" viewBox="0 0 60 60" fill="none" xmlns="http://www.w3.org/2000/svg">
<rect width="60" height="60" fill="white"/>
<circle cx="30" cy="30" r="28" fill="#F9C359" fill-opacity="0.1"/>
<g clip-path="url(#clip0_25_2)">
<path d="M25.5589 25.1147C26.2838 24.0331 26.8795 22.8737 27.334 21.6592C28.074 19.7295 28.4554 17.686 28.4603 15.625C28.4603 15.0664 28.8957 14.8377 29.3951 15.1238C32.7505 17.0443 35.0202 19.8133 36.2042 23.4309C36.2317 23.5134 36.2656 23.5932 36.3179 23.7321C36.668 22.6894 36.6258 21.7237 36.2116 20.7733C36.1199 20.5554 36.0631 20.3528 36.2116 20.1412C36.4269 19.8274 36.8228 19.8103 37.1198 20.1098C38.6823 21.6745 39.9164 23.5235 40.7525 25.5522C41.6561 27.74 42.1272 30.0254 41.9668 32.3665C41.5883 37.7704 38.8417 41.6097 33.7326 43.7938C33.6171 43.8431 33.4989 43.8835 33.3834 43.9328C33.1241 44.0386 32.8849 44.0162 32.6998 43.7983C32.5147 43.5804 32.5293 43.3446 32.6796 43.116C33.9205 41.225 34.4172 39.1476 34.2266 36.9177C34.0749 35.1026 33.4112 33.3644 32.3094 31.8967C32.2728 31.8353 32.2394 31.7722 32.2095 31.7075C32.1719 32.3916 32.1701 32.9681 32.1014 33.5366C31.9355 34.9111 31.3746 36.1367 30.5287 37.2369C30.3638 37.453 30.1393 37.5561 29.8671 37.4386C29.5793 37.3149 29.4703 37.0889 29.5124 36.785C29.6041 36.1224 29.4978 35.2455 29.2833 34.7784C28.8663 36.0274 28.3568 37.2772 28.0406 38.5728C27.6548 40.1554 28.0406 41.6563 28.9571 43.0129C29.1312 43.2693 29.2393 43.5096 29.0404 43.7786C28.8416 44.0475 28.563 44.0189 28.267 43.9364C24.2585 42.812 21.5678 40.3499 20.4131 36.4165C19.6002 33.6478 20.0062 30.966 21.4001 28.4366C22.3191 26.7963 22.8954 24.9935 23.0955 23.1332C23.123 22.8642 23.2504 22.6849 23.5024 22.6087C23.6237 22.5684 23.7557 22.5719 23.8746 22.6186C23.9934 22.6654 24.0912 22.7521 24.1503 22.8633C24.6232 23.6057 25.086 24.3553 25.5589 25.1147ZM27.324 42.5628L27.3899 42.4794C27.3788 42.4287 27.3647 42.3787 27.3478 42.3296C26.6238 40.5364 26.6073 38.7432 27.3661 36.9733C27.9481 35.6158 28.3146 34.2252 28.3183 32.7502C28.312 32.6369 28.3469 32.525 28.4168 32.4344C28.4868 32.3438 28.5873 32.2804 28.7005 32.2553C28.969 32.1791 29.1917 32.267 29.3557 32.4974C29.8578 33.1793 30.228 33.9454 30.4481 34.7578C30.471 34.8474 30.5022 34.9308 30.548 35.0778C31.019 33.9544 31.1895 32.8551 31.0291 31.7281C30.9503 31.1695 30.7588 30.6253 30.6039 30.0783C30.526 29.8013 30.5544 29.5637 30.8028 29.3933C31.0511 29.223 31.2793 29.2642 31.4965 29.4426C31.5927 29.5224 31.6798 29.6094 31.7714 29.6955C34.8311 32.6328 35.9308 36.1538 35.0706 40.2585C34.9286 40.9408 34.6655 41.6034 34.4538 42.2857C34.5519 42.2364 34.6518 42.196 34.7453 42.1387C38.7199 39.8281 40.7791 36.4003 40.8717 31.8985C40.9413 28.5353 39.9048 25.4707 37.9189 22.7172C37.8566 22.6275 37.7833 22.5522 37.6843 22.4329C37.6586 22.6383 37.6366 22.7916 37.622 22.9431C37.5303 23.9025 37.1509 24.7534 36.5873 25.5352C36.4315 25.7522 36.2262 25.8517 35.9678 25.7952C35.7094 25.7387 35.5847 25.5567 35.5352 25.2967C34.9359 22.1729 33.4033 19.5727 30.9375 17.4962C30.5168 17.142 30.0586 16.8291 29.6132 16.4938C29.572 16.5583 29.5527 16.5754 29.55 16.5942C29.5353 16.7054 29.5207 16.8166 29.5124 16.9277C29.3383 19.2033 28.7793 21.3902 27.7492 23.4327C27.1682 24.5785 26.4332 25.6527 25.7385 26.7412C25.6469 26.8846 25.3573 27.0101 25.1969 26.9814C25.0191 26.9447 24.8762 26.7196 24.7387 26.5618C24.692 26.5098 24.7066 26.4112 24.681 26.3377C24.4885 25.7791 24.2924 25.2214 24.0972 24.6637L23.9918 24.6915C23.9699 24.7416 23.9516 24.7932 23.9368 24.8457C23.6459 26.2153 23.1519 27.5359 22.4705 28.7657C21.8052 29.9564 21.3158 31.2045 21.193 32.5575C20.8484 36.3331 22.2771 39.3305 25.4388 41.5236C26.0217 41.9253 26.6925 42.2167 27.324 42.5628V42.5628Z" fill="#F9C359"/>
</g>
<defs>
<clipPath id="clip0_25_2">
<rect width="22" height="29" fill="white" transform="translate(20 15)"/>
</clipPath>
</defs>
</svg>
