<svg width="60" height="60" viewBox="0 0 60 60" fill="none" xmlns="http://www.w3.org/2000/svg">
<rect width="60" height="60" fill="white"/>
<circle cx="30" cy="30" r="27.5" stroke="#FF9900" stroke-opacity="0.1"/>
<path d="M41.5641 43.8512C33.8534 43.8512 26.1515 43.8512 18.4408 43.8512C18.1044 43.7147 17.7237 43.6208 17.4227 43.4246C16.502 42.8104 16.1479 41.9061 16.1479 40.8568C16.1479 34.4841 16.1479 28.1114 16.1479 21.7388C16.1479 20.2288 17.2368 19.1709 18.8037 19.1624C19.4323 19.1624 20.0608 19.1624 20.6805 19.1624C20.7779 19.1624 20.8753 19.1539 20.9992 19.1453C20.9992 18.5311 20.9992 17.9425 20.9992 17.3624C20.9992 16.8846 21.2294 16.5434 21.6632 16.3557C21.9111 16.2448 22.1943 16.1766 22.4688 16.168C23.1504 16.1424 23.8321 16.151 24.5138 16.1595C25.3813 16.168 25.8328 16.6202 25.8417 17.4562C25.8417 18.0107 25.8417 18.5738 25.8417 19.1453C28.6214 19.1453 31.3746 19.1453 34.1455 19.1453C34.1455 18.5482 34.1455 17.9595 34.1455 17.3794C34.1455 16.6628 34.597 16.1936 35.3318 16.168C36.1108 16.1424 36.881 16.1424 37.6601 16.168C38.5188 16.2021 38.988 16.7055 38.988 17.5245C38.988 17.7207 38.988 17.9169 38.988 18.1216C38.988 18.4629 38.988 18.7956 38.988 19.1624C39.1296 19.1624 39.227 19.1624 39.3332 19.1624C39.9795 19.1624 40.6257 19.1539 41.272 19.1624C42.7238 19.1795 43.8393 20.2373 43.8481 21.6279C43.857 28.0688 43.8481 34.5182 43.8481 40.9592C43.8481 41.5563 43.6888 42.1108 43.3612 42.6312C42.9452 43.2881 42.3255 43.672 41.5641 43.8512ZM17.5378 26.8489C17.5378 26.9598 17.5378 27.0621 17.5378 27.156C17.5378 31.7286 17.5378 36.2927 17.5378 40.8653C17.5378 40.9677 17.5378 41.0615 17.5467 41.1639C17.6086 41.9744 18.1486 42.5118 18.9188 42.5118C26.3109 42.5118 33.694 42.5118 41.0861 42.5203C41.6881 42.5203 42.0953 42.2559 42.2989 41.7355C42.4051 41.4625 42.4583 41.1554 42.4583 40.8653C42.4671 36.2927 42.4671 31.7286 42.4671 27.156C42.4671 27.0621 42.4671 26.9598 42.4671 26.8489C34.1455 26.8489 25.8594 26.8489 17.5378 26.8489ZM42.4583 25.4924C42.4583 24.1957 42.4583 22.9417 42.4583 21.6791C42.4583 20.971 41.9625 20.5018 41.2189 20.4932C40.5638 20.4932 39.9087 20.4932 39.2536 20.4932C39.1739 20.4932 39.0942 20.5018 38.988 20.5103C38.988 20.698 38.988 20.8686 38.988 21.0392C38.988 21.9094 38.4214 22.481 37.5096 22.4895C36.8191 22.498 36.1285 22.498 35.438 22.4895C34.6944 22.481 34.1544 21.9606 34.1455 21.2354C34.1455 20.9966 34.1455 20.7577 34.1455 20.5103C31.3569 20.5103 28.6126 20.5103 25.8328 20.5103C25.8328 20.7918 25.8417 21.0478 25.8328 21.3122C25.8063 21.935 25.2928 22.4724 24.6643 22.4895C23.8852 22.5066 23.115 22.5151 22.336 22.4895C21.5392 22.4639 20.9992 21.8838 20.9904 21.116C20.9904 20.9198 20.9904 20.7236 20.9904 20.5188C20.1405 20.5188 19.3261 20.4847 18.5205 20.5274C17.9185 20.5615 17.5201 21.0648 17.5201 21.6449C17.5201 22.8563 17.5201 24.0592 17.5201 25.2706C17.5201 25.3474 17.5289 25.4242 17.5378 25.501C25.8682 25.4924 34.1455 25.4924 42.4583 25.4924ZM35.4912 17.5159C35.4912 18.7529 35.4912 19.9473 35.4912 21.1501C36.2082 21.1501 36.9076 21.1501 37.5981 21.1501C37.5981 19.9302 37.5981 18.7273 37.5981 17.5159C36.881 17.5159 36.1905 17.5159 35.4912 17.5159ZM24.4429 17.5159C23.779 17.5159 23.1416 17.5159 22.5042 17.5159C22.5042 18.7359 22.5042 19.9302 22.5042 21.1501C23.1593 21.1501 23.7967 21.1501 24.4429 21.1501C24.4429 19.9302 24.4429 18.7359 24.4429 17.5159Z" fill="#FF9900"/>
<path d="M25.523 39.3214C25.6735 38.511 25.7797 37.6664 26.001 36.8474C26.1869 36.182 26.0541 35.7299 25.4876 35.2948C24.859 34.817 24.319 34.2284 23.7347 33.6995C23.4868 33.4777 23.354 33.2217 23.4603 32.9061C23.5665 32.5904 23.8409 32.4881 24.1596 32.4454C25.1689 32.3004 26.1692 32.1468 27.1784 32.0189C27.4086 31.9933 27.5148 31.8994 27.6122 31.7117C28.0548 30.8245 28.5152 29.9544 28.9578 29.0757C29.0995 28.7856 29.2942 28.5723 29.6483 28.5723C30.0024 28.5723 30.1972 28.7856 30.3389 29.0757C30.7992 29.98 31.2684 30.8842 31.7287 31.7885C31.7996 31.9336 31.8969 31.9933 32.0651 32.0189C33.1009 32.1554 34.1367 32.3089 35.1724 32.4625C35.4911 32.5051 35.7479 32.6246 35.8541 32.9487C35.9515 33.2644 35.8098 33.5033 35.5797 33.7165C34.8449 34.3905 34.1101 35.0815 33.3665 35.7555C33.2071 35.9005 33.1629 36.037 33.1983 36.2417C33.3842 37.1887 33.5701 38.1356 33.7295 39.0825C33.7649 39.2958 33.7472 39.5603 33.6498 39.748C33.4727 40.0807 33.0743 40.1319 32.6671 39.9271C31.7641 39.475 30.8612 39.0314 29.967 38.5622C29.7369 38.4427 29.5687 38.4598 29.3473 38.5707C28.4355 39.0399 27.5148 39.5006 26.5941 39.9612C26.0541 40.2172 25.4964 39.8845 25.523 39.3214ZM27.1607 38.1783C27.8778 37.8114 28.524 37.4787 29.1703 37.1289C29.489 36.9583 29.7988 36.9498 30.1264 37.1204C30.7107 37.4361 31.3038 37.7346 31.8969 38.0418C31.9678 38.0759 32.0386 38.1015 32.136 38.1441C32.0297 37.5384 31.9855 36.9583 31.8261 36.4123C31.6314 35.7213 31.8084 35.2351 32.375 34.7829C32.8176 34.4246 33.1717 33.9554 33.5612 33.5374C33.5524 33.5715 33.4727 33.5459 33.393 33.5374C32.7114 33.4435 32.0209 33.3497 31.3392 33.2644C31.0559 33.2303 30.8612 33.0938 30.7372 32.8464C30.4185 32.2236 30.0998 31.6094 29.7723 30.9866C29.7369 30.9184 29.6926 30.8586 29.6395 30.7648C29.2677 31.4814 28.9047 32.1639 28.5595 32.8549C28.4444 33.0767 28.285 33.2132 28.0283 33.2473C27.745 33.29 27.4529 33.3241 27.1696 33.3668C26.665 33.435 26.1604 33.5033 25.6558 33.58C25.638 33.6056 25.6292 33.6312 25.6115 33.6568C25.6912 33.708 25.7708 33.7507 25.8328 33.8104C26.3197 34.254 26.8066 34.7061 27.2935 35.1583C27.5325 35.3716 27.6299 35.6275 27.5502 35.9431C27.5237 36.0455 27.5148 36.1564 27.4971 36.2588C27.3909 36.8645 27.2847 37.4872 27.1607 38.1783Z" fill="#FF9900"/>
</svg>
