<svg width="60" height="60" viewBox="0 0 60 60" fill="none" xmlns="http://www.w3.org/2000/svg">
<rect width="60" height="60" fill="white"/>
<g clip-path="url(#clip0_1_12)">
<path d="M31.8046 15C32.4803 15.1757 33.167 15.3294 33.8317 15.5326C36.0071 16.1969 37.9464 17.3005 39.6548 18.7994C41.4677 20.3971 42.874 22.2914 43.8409 24.5095C44.3463 25.668 44.6979 26.8704 44.9341 28.1058C44.9451 28.1717 44.9725 28.2376 44.9945 28.2979C44.9945 28.3583 44.9945 28.4132 44.9945 28.4736C44.989 28.4791 44.978 28.4846 44.9725 28.4956C44.7913 29.0007 44.4946 29.2423 44.1046 29.2203C43.6266 29.1874 43.3465 28.9184 43.2421 28.3474C42.852 26.2445 42.05 24.3119 40.7975 22.5769C39.1604 20.3093 37.0619 18.6018 34.447 17.5695C33.5351 17.2127 32.5682 16.993 31.6178 16.735C31.074 16.5867 30.7938 16.3616 30.7444 15.9608C30.6949 15.5381 30.8872 15.2526 31.3871 14.9945C31.5299 15 31.6673 15 31.8046 15Z" fill="#49CCF9"/>
<path d="M24.3554 27.5238C25.4541 30.0933 29.2611 34.1398 32.4748 35.6058C32.5462 35.507 32.6232 35.3532 32.7385 35.2379C33.4142 34.5736 34.0734 33.8873 34.7821 33.2668C35.8204 32.3609 37.3695 32.3609 38.3694 33.3108C39.7592 34.6395 41.1216 36.0011 42.44 37.4012C43.3849 38.4059 43.4399 39.9542 42.5389 40.9974C41.6545 42.0242 40.7041 43.0015 39.7043 43.9129C38.6715 44.8518 37.3805 45.0933 36.0126 44.9726C33.4801 44.7529 31.2333 43.7317 29.0524 42.5238C26.3551 41.0304 23.9599 39.1471 21.8614 36.8906C19.3124 34.1563 17.2029 31.1256 15.879 27.5952C15.3955 26.3159 15.0385 24.9982 15 23.6146C14.9616 22.22 15.3131 20.9627 16.313 19.9469C17.1095 19.1398 17.8731 18.2943 18.7301 17.5531C20.0485 16.4111 21.4878 16.4165 22.7568 17.608C24.1027 18.8708 25.3937 20.194 26.6517 21.5447C27.6186 22.5824 27.6021 24.1142 26.6627 25.1794C25.998 25.9316 25.2619 26.6234 24.5587 27.3426C24.4928 27.403 24.4269 27.4579 24.3554 27.5238ZM16.703 23.5212C16.736 23.8616 16.7634 24.2021 16.8019 24.5425C16.8184 24.6852 16.8513 24.828 16.8843 24.9707C17.3512 27.0406 18.2137 28.9458 19.3179 30.7412C22.2624 35.5234 26.1848 39.2624 31.2498 41.7496C32.7989 42.5128 34.3921 43.1223 36.1335 43.2815C37.2267 43.3803 38.1826 43.1277 38.9627 42.3152C39.5999 41.6508 40.2481 41.0029 40.8854 40.3441C40.9678 40.2617 41.0447 40.1739 41.1161 40.0805C41.5666 39.515 41.5721 38.9495 41.0831 38.4169C40.5558 37.8459 39.9899 37.3023 39.4406 36.7478C38.7594 36.0615 38.0782 35.3752 37.386 34.6999C36.8696 34.1947 36.2873 34.1892 35.738 34.6559C35.6336 34.7438 35.5402 34.8426 35.4413 34.9359C34.7711 35.6058 34.1064 36.2811 33.4307 36.94C32.9473 37.4176 32.4089 37.5 31.8211 37.2035C31.4146 36.9949 31.0026 36.7917 30.607 36.5556C28.8381 35.5015 27.3 34.1673 25.9101 32.6574C24.685 31.3232 23.5644 29.9122 22.8063 28.2485C22.4052 27.3701 22.4931 26.9363 23.1853 26.2665C23.8885 25.5857 24.5917 24.9103 25.2619 24.2021C25.7947 23.642 25.7783 23.0985 25.2674 22.511C25.2014 22.4396 25.1355 22.3682 25.0696 22.2969C23.9654 21.1933 22.8612 20.0842 21.757 18.9806C21.0374 18.2613 20.4111 18.2613 19.6805 18.9861C19.0487 19.612 18.4334 20.2599 17.7907 20.8693C17.0271 21.5941 16.6645 22.4671 16.703 23.5212Z" fill="#49CCF9"/>
<path d="M31.5245 20.4466C31.8925 20.5399 32.4364 20.6387 32.9473 20.8199C36.2983 22.0388 38.4572 24.3613 39.3856 27.8093C39.4406 28.007 39.479 28.2101 39.5175 28.4078C39.6109 28.8909 39.3472 29.3302 38.8912 29.451C38.4572 29.5608 38.0068 29.3082 37.8694 28.8415C37.7266 28.3638 37.6497 27.8642 37.4739 27.4085C36.3587 24.5425 34.2932 22.78 31.2718 22.1486C30.7059 22.0278 30.4038 21.6051 30.5191 21.0944C30.6125 20.7211 30.9586 20.4466 31.5245 20.4466Z" fill="#49CCF9"/>
</g>
<circle cx="30" cy="30" r="28" fill="#49CCF9" fill-opacity="0.1"/>
<defs>
<clipPath id="clip0_1_12">
<rect width="30" height="30" fill="white" transform="translate(15 15)"/>
</clipPath>
</defs>
</svg>
