<svg width="60" height="60" viewBox="0 0 60 60" fill="none" xmlns="http://www.w3.org/2000/svg">
<rect width="60" height="60" fill="white"/>
<circle cx="30" cy="30" r="28" fill="#FF6666" fill-opacity="0.1"/>
<g clip-path="url(#clip0_14_2)">
<path d="M27.3898 45C27.0695 44.8092 26.9821 44.5303 26.9821 44.1634C26.9967 42.1233 26.9894 40.0832 26.9821 38.0431C26.9821 37.8743 26.9166 37.6761 26.8219 37.5367C24.3173 33.7647 21.8055 30 19.3009 26.2353C18.9223 25.6703 18.9077 25.1712 19.2499 24.7162C19.5047 24.3787 19.8615 24.2539 20.2692 24.2539C21.0337 24.2539 21.7982 24.2539 22.5627 24.2539C22.6573 24.2539 22.7447 24.2539 22.8539 24.2539C22.2642 22.6174 22.4972 21.5166 23.582 20.7387C24.4557 20.1076 25.7444 20.1517 26.5962 20.8121C27.3971 21.4359 28.0014 22.7568 27.2224 24.2319C28.3218 24.2319 29.4066 24.2319 30.5206 24.2319C30.9793 22.544 32.0568 21.5093 33.8406 21.5313C35.5734 21.5533 36.6219 22.5807 37.0733 24.2612C38.1436 24.2612 39.2066 24.2539 40.2695 24.2612C40.9685 24.2686 41.449 24.7016 41.5073 25.362C41.5364 25.6996 41.3908 25.9858 41.2088 26.2573C38.828 29.8239 36.4544 33.4051 34.0518 36.9569C33.6659 37.522 33.4693 38.0724 33.5057 38.7622C33.5567 39.8116 33.513 40.8684 33.5203 41.9251C33.5275 42.2994 33.3674 42.5196 33.0324 42.6663C31.2996 43.4149 29.5741 44.1781 27.8485 44.9413C27.8121 44.956 27.783 44.978 27.7539 45C27.6228 45 27.5063 45 27.3898 45ZM28.1616 43.4883C28.2344 43.4662 28.2781 43.4662 28.3072 43.4516C29.5959 42.8865 30.8773 42.3214 32.166 41.7637C32.3335 41.6903 32.3335 41.5802 32.3335 41.4408C32.3335 40.2593 32.3408 39.0778 32.3262 37.8963C32.3262 37.566 32.4136 37.2945 32.5956 37.023C35.1148 33.273 37.6121 29.5083 40.1239 25.751C40.1895 25.6556 40.2404 25.5602 40.3132 25.4501C33.5858 25.4501 26.8947 25.4501 20.1746 25.4501C20.4949 25.9271 20.8007 26.3674 21.0774 26.8224C21.1939 27.0132 21.3249 27.0719 21.5434 27.0719C25.5332 27.0646 29.5231 27.0646 33.513 27.0646C33.6586 27.0646 33.8042 27.0646 33.9425 27.1086C34.2119 27.182 34.343 27.3875 34.343 27.6517C34.343 27.9158 34.2047 28.1213 33.9353 28.1947C33.8042 28.2314 33.6659 28.2314 33.5348 28.2314C29.8216 28.2314 26.1157 28.2314 22.4025 28.2314C22.2933 28.2314 22.1841 28.2314 22.0457 28.2314C22.0894 28.3121 22.104 28.3488 22.1258 28.3782C24.0043 31.1962 25.8827 34.0142 27.7684 36.8249C27.834 36.9203 28.0014 36.9936 28.1252 36.9936C28.8314 37.0083 29.5377 36.9936 30.2439 37.0083C30.5861 37.0157 30.7972 37.2431 30.8118 37.5514C30.8264 37.8596 30.6516 38.0944 30.3313 38.1385C30.0546 38.1751 29.7707 38.1678 29.494 38.1678C29.0499 38.1751 28.613 38.1678 28.1543 38.1678C28.1616 39.9731 28.1616 41.7123 28.1616 43.4883ZM26.4142 22.8596C26.4215 22.089 25.8099 21.4579 25.0454 21.4432C24.2737 21.4359 23.633 22.0744 23.633 22.8522C23.633 23.6155 24.2664 24.2539 25.0236 24.2539C25.7881 24.2539 26.4069 23.6301 26.4142 22.8596ZM35.8137 24.2466C35.6026 23.2999 34.6415 22.6174 33.6513 22.6761C32.7267 22.7348 31.8311 23.476 31.7656 24.2466C33.1053 24.2466 34.4449 24.2466 35.8137 24.2466Z" fill="#FF6666"/>
<path d="M34.7798 17.6125C34.7507 19.0362 33.5785 20.1883 32.1952 20.1517C30.7972 20.115 29.6614 18.9481 29.676 17.5685C29.6906 16.1448 30.8846 14.9633 32.268 15C33.6877 15.0367 34.809 16.2035 34.7798 17.6125ZM33.6222 17.5685C33.6222 16.7979 32.996 16.1742 32.2388 16.1742C31.4816 16.1742 30.8482 16.8053 30.8409 17.5685C30.8336 18.339 31.4816 18.9922 32.2534 18.9775C33.0106 18.9701 33.6222 18.339 33.6222 17.5685Z" fill="#FF6666"/>
<path d="M19.665 17.4878C19.665 18.1189 19.6722 18.7573 19.665 19.3885C19.6577 19.6967 19.4902 19.9095 19.2208 19.9609C18.9515 20.0122 18.733 19.9242 18.602 19.6893C18.5437 19.5866 18.5073 19.4472 18.5073 19.3297C18.5 18.1042 18.5 16.886 18.5073 15.6678C18.5073 15.2642 18.7549 15 19.0898 15C19.432 15 19.6577 15.2642 19.665 15.6678C19.665 16.2769 19.665 16.886 19.665 17.4878Z" fill="#FF6666"/>
<path d="M39.0245 20.0783C39.0245 20.6067 39.0318 21.1277 39.0245 21.6561C39.0172 22.067 38.7988 22.3165 38.4493 22.3165C38.1071 22.3165 37.8669 22.0597 37.8669 21.6561C37.8596 20.6067 37.8596 19.5499 37.8669 18.5005C37.8669 18.0895 38.1071 17.84 38.4493 17.8327C38.7915 17.8327 39.0172 18.0895 39.0245 18.5005C39.0245 19.0289 39.0245 19.5572 39.0245 20.0783Z" fill="#FF6666"/>
<path d="M27.5791 17.5465C27.5791 17.9207 27.5864 18.2877 27.5791 18.6619C27.5719 19.0582 27.3534 19.3077 27.0258 19.3224C26.6982 19.3371 26.4361 19.0729 26.4288 18.6693C26.4142 17.9207 26.4142 17.1649 26.4288 16.4163C26.4361 16.0054 26.6763 15.7559 27.0185 15.7632C27.3607 15.7705 27.5791 16.0201 27.5864 16.4384C27.5864 16.7979 27.5791 17.1722 27.5791 17.5465Z" fill="#FF6666"/>
<path d="M19.6576 21.59C19.6649 21.9056 19.4028 22.1698 19.0897 22.1771C18.784 22.1844 18.5073 21.9129 18.5 21.6047C18.5 21.3038 18.7694 21.0323 19.0825 21.0249C19.3955 21.0249 19.6576 21.2745 19.6576 21.59Z" fill="#FF6666"/>
<path d="M38.4348 17.0621C38.1217 17.0548 37.8596 16.7906 37.8669 16.4824C37.8742 16.1742 38.1436 15.91 38.4566 15.9173C38.7697 15.9247 39.0245 16.1815 39.0173 16.4971C39.01 16.82 38.7551 17.0695 38.4348 17.0621Z" fill="#FF6666"/>
<path d="M36.9277 27.6737C36.9204 27.9892 36.651 28.2461 36.3452 28.2387C36.0394 28.2314 35.7773 27.9525 35.7846 27.6443C35.7919 27.3361 36.0758 27.0719 36.3743 27.0793C36.6874 27.0866 36.935 27.3508 36.9277 27.6737Z" fill="#FF6666"/>
</g>
<defs>
<clipPath id="clip0_14_2">
<rect width="23" height="30" fill="white" transform="translate(18.5 15)"/>
</clipPath>
</defs>
</svg>
