<svg width="60" height="60" viewBox="0 0 60 60" fill="none" xmlns="http://www.w3.org/2000/svg">
<rect width="60" height="60" fill="white"/>
<circle cx="30" cy="30" r="27.5" stroke="#7B68EE" stroke-opacity="0.1"/>
<g clip-path="url(#clip0_22_267)">
<path d="M12 36.9706C12.2201 36.0802 12.9156 35.529 13.5583 34.9439C16.4989 32.2727 19.8973 30.3816 23.8063 29.347C26.3947 28.6686 29.0271 28.4397 31.7036 28.6177C35.5774 28.8806 39.1431 30.017 42.4446 31.9674C44.2495 33.0359 45.8782 34.3249 47.3309 35.8004C48.1937 36.6738 48.2289 37.9035 47.3837 38.8023C46.2392 40.015 45.0682 41.1937 43.8709 42.364C43.0081 43.2035 41.8371 43.1866 40.9039 42.4149C40.0059 41.6771 39.1079 40.9309 38.1834 40.227C37.8048 39.9387 37.347 39.7267 36.9244 39.4892C36.2025 39.0822 35.8415 38.4716 35.7535 37.6745C35.6126 36.4788 35.4365 35.2831 35.2605 34.0874C35.2428 33.9856 35.1108 33.8415 34.9963 33.8076C32.989 33.1885 30.9464 32.8917 28.8423 33.0528C27.4952 33.1546 26.1834 33.4344 24.898 33.8415C24.81 33.8669 24.7219 34.0026 24.7043 34.1044C24.5282 35.2746 24.3434 36.4449 24.2201 37.6236C24.1321 38.4801 23.7447 39.1161 22.9611 39.5232C21.5789 40.244 20.3639 41.1683 19.2546 42.2283C18.1805 43.2629 16.9303 43.2205 15.8738 42.1605C14.9758 41.2531 14.0866 40.3372 13.1886 39.4384C12.6779 38.9295 12.1849 38.4292 12 37.7169C12 37.471 12 37.225 12 36.9706ZM29.5642 31.5773C32.1174 31.5688 34.1511 31.9928 36.1497 32.6373C36.4666 32.7391 36.6427 32.9596 36.6867 33.2818C36.8804 34.7149 37.0917 36.1396 37.2766 37.5727C37.3206 37.8865 37.4615 38.1155 37.752 38.2681C39.2575 39.0652 40.6134 40.0659 41.8195 41.2446C42.2245 41.6432 42.5591 41.6177 42.9552 41.2107C44.0205 40.1337 45.0858 39.0567 46.1511 37.9713C46.609 37.5134 46.6001 37.1318 46.1423 36.6823C42.4622 33.0698 38.0602 30.831 32.8217 30.1611C29.5202 29.7371 26.2803 30.0424 23.1196 31.0346C19.5539 32.1539 16.4989 34.062 13.8841 36.6399C13.3822 37.1402 13.3734 37.4879 13.8753 38.0052C14.8966 39.0483 15.9266 40.0828 16.9479 41.1259C17.4585 41.6432 17.7227 41.6601 18.2333 41.1598C19.3778 40.0489 20.6456 39.0822 22.0719 38.3444C22.5121 38.1155 22.697 37.8017 22.7498 37.3268C22.9083 35.97 23.1108 34.6217 23.2957 33.2733C23.3397 32.9341 23.5334 32.7221 23.8679 32.6119C25.8665 32.0013 27.8914 31.5773 29.5642 31.5773Z" fill="#8171E5"/>
<path d="M21.755 19.4932C21.755 19.6882 21.755 19.8069 21.755 19.9256C21.755 21.062 21.7638 22.2068 21.755 23.3431C21.7461 23.9622 21.35 24.3353 20.8305 24.1657C20.6192 24.0978 20.4431 23.8774 20.3111 23.6823C20.2318 23.5806 20.2583 23.4025 20.2583 23.2498C20.2583 21.486 20.2583 19.7306 20.2583 17.9667C20.2406 17.2544 20.5048 17 21.2531 17C23.0844 17 24.9068 17 26.7381 17C26.8085 17 26.8789 17 26.9494 17C27.416 17.0254 27.7329 17.3138 27.7417 17.7038C27.7506 18.1109 27.4248 18.4247 26.9406 18.4331C25.7256 18.4501 24.5018 18.4416 23.2869 18.4416C23.1636 18.4416 23.0404 18.4416 22.9523 18.4416C25.3118 20.7143 27.6713 22.987 30.066 25.2935C30.0924 25.2681 30.1981 25.1748 30.2949 25.0815C32.945 22.529 35.595 19.9765 38.245 17.424C38.3595 17.3138 38.4828 17.2035 38.6148 17.1187C38.9142 16.9406 39.2751 16.9915 39.5128 17.2205C39.7417 17.4494 39.7946 17.8141 39.6097 18.0939C39.5304 18.2042 39.4336 18.3059 39.3368 18.3992C36.4578 21.1807 33.5701 23.9537 30.6911 26.7267C30.1629 27.2355 29.8107 27.2355 29.2913 26.7267C26.8877 24.4116 24.4842 22.0965 22.0807 19.79C22.0015 19.7052 21.9046 19.6288 21.755 19.4932Z" fill="#8171E5"/>
</g>
<defs>
<clipPath id="clip0_22_267">
<rect width="36" height="26" fill="white" transform="translate(12 17)"/>
</clipPath>
</defs>
</svg>
