<svg width="60" height="60" viewBox="0 0 60 60" fill="none" xmlns="http://www.w3.org/2000/svg">
<rect width="60" height="60" fill="white"/>
<circle cx="30" cy="30" r="28" fill="#A5BE5E" fill-opacity="0.1"/>
<g clip-path="url(#clip0_15_28)">
<path d="M45.5001 29.3285C45.3626 29.9959 44.9744 30.5168 44.5458 31.0296C42.8959 33.0074 41.2865 35.0097 39.6204 36.9631C38.6095 38.1514 37.2507 38.6967 35.706 38.7049C33.0856 38.7212 30.4571 38.7293 27.8367 38.7049C26.6721 38.6967 25.8633 39.299 25.1435 40.1048C25.095 40.1618 25.0869 40.2758 25.0869 40.3571C25.095 41.1711 24.82 41.871 24.2539 42.4489C23.6635 43.0594 23.0569 43.6617 22.4584 44.2558C22.1268 44.5814 21.8114 44.5814 21.4798 44.2477C19.2395 41.9931 16.9911 39.7467 14.7589 37.4921C14.4193 37.1503 14.4193 36.8329 14.7589 36.491C15.3332 35.905 15.9155 35.3353 16.4978 34.7492C17.0477 34.1876 17.7109 33.8946 18.4954 33.8458C18.6006 33.8376 18.7381 33.7481 18.7866 33.6586C19.8461 31.6238 21.496 30.3459 23.7039 29.8087C23.7605 29.7925 23.8171 29.768 23.898 29.7436C23.898 29.6297 23.898 29.5076 23.898 29.3855C23.898 25.0392 23.898 20.6928 23.898 16.3546C23.898 15.6872 24.0759 15.5081 24.7391 15.5081C29.7696 15.5 34.8002 15.5 39.8307 15.5C40.4696 15.5 40.6556 15.6872 40.6556 16.3383C40.6556 20.0905 40.6556 23.8508 40.6556 27.603C40.6556 27.7088 40.6556 27.8146 40.6556 27.9367C40.8659 27.7414 41.0681 27.5786 41.246 27.3914C41.9254 26.6751 42.7342 26.3903 43.6885 26.6426C44.6428 26.8949 45.2171 27.5379 45.4435 28.4983C45.4516 28.539 45.4759 28.5716 45.5001 28.6041C45.5001 28.8402 45.5001 29.0843 45.5001 29.3285ZM39.4506 16.7372C34.6465 16.7372 29.8829 16.7372 25.1192 16.7372C25.1192 21.0265 25.1192 25.2915 25.1192 29.5727C25.3053 29.5727 25.4832 29.5727 25.653 29.5727C26.6316 29.5646 27.5779 29.7436 28.4918 30.0773C28.6616 30.1343 28.8396 30.175 29.0175 30.175C31.2173 30.1831 33.4172 30.175 35.617 30.1831C35.8111 30.1831 35.9971 30.1913 36.1912 30.2157C36.7978 30.2971 37.2831 30.6145 37.6147 30.9808C38.1646 30.468 38.7065 29.9634 39.2484 29.475C39.402 29.3367 39.4506 29.1739 39.4506 28.9704C39.4425 24.9985 39.4506 21.0347 39.4506 17.0627C39.4506 16.9651 39.4506 16.8592 39.4506 16.7372ZM24.6744 38.8595C25.6449 37.777 26.8904 37.4514 28.2977 37.4759C30.7563 37.5166 33.2231 37.4921 35.6817 37.484C36.8302 37.4759 37.8816 37.1177 38.6337 36.2387C40.4534 34.1062 42.2246 31.9331 44.0039 29.768C44.4407 29.2308 44.376 28.5146 43.8826 28.0751C43.3893 27.6356 42.6695 27.6763 42.1923 28.1646C40.9225 29.4832 39.6528 30.8017 38.3911 32.1284C38.3021 32.2179 38.2455 32.3726 38.2455 32.4947C38.2455 33.9841 37.2103 35.0504 35.7222 35.0504C34.0561 35.0504 32.39 35.0504 30.7321 35.0504C30.6512 35.0504 30.5703 35.0585 30.4894 35.0422C30.1821 35.0015 29.9557 34.7492 29.9557 34.4399C29.9557 34.1388 30.1821 33.8783 30.4894 33.8376C30.5865 33.8214 30.6916 33.8295 30.7887 33.8295C32.4547 33.8295 34.1208 33.8295 35.7788 33.8295C36.3449 33.8295 36.7978 33.5121 36.9677 33.0074C37.2426 32.1935 36.6522 31.3959 35.7626 31.3959C33.5708 31.3877 31.3872 31.3877 29.1954 31.3959C28.7506 31.3959 28.3462 31.3145 27.9257 31.1761C25.7986 30.4761 23.7686 30.6796 21.868 31.8924C20.9945 32.454 20.3475 33.2353 19.9108 34.1144C21.5688 35.6527 23.0811 37.2724 24.6744 38.8595ZM21.965 42.978C22.4827 42.4652 23.0245 41.985 23.5017 41.4559C24.0436 40.8536 24.0193 39.942 23.4532 39.3479C22.1915 38.0456 20.9137 36.7678 19.6277 35.498C19.1101 34.9934 18.2852 34.8876 17.7352 35.319C17.1044 35.8155 16.5625 36.4096 15.9964 36.9387C18.0021 38.9816 19.9836 40.9757 21.965 42.978Z" fill="#A5BE5E"/>
<path d="M28.6777 20.4649C28.5968 20.4405 28.5321 20.4161 28.4674 20.3917C28.1924 20.2777 28.0387 20.0173 28.0792 19.7405C28.1196 19.4638 28.3461 19.2359 28.6372 19.2278C29.074 19.2115 29.5026 19.2115 29.9393 19.2278C30.2305 19.2359 30.4489 19.4719 30.4893 19.7487C30.5297 20.0173 30.3842 20.2696 30.1254 20.3835C30.0526 20.4161 29.9798 20.4405 29.8666 20.4812C29.8908 21.0347 29.8666 21.5963 29.9555 22.1416C30.1496 23.3462 31.2819 24.1845 32.5031 24.095C33.7001 24.0055 34.6787 23.0043 34.7272 21.7997C34.7434 21.3684 34.7272 20.9288 34.7272 20.4731C34.6949 20.4649 34.6545 20.4486 34.6221 20.4405C34.2582 20.3184 34.0802 20.058 34.1368 19.7405C34.1935 19.4231 34.4442 19.2359 34.8243 19.2278C35.1478 19.2278 35.4713 19.2278 35.7948 19.2278C36.2315 19.2278 36.4823 19.4068 36.547 19.7324C36.6036 20.0742 36.4095 20.3184 35.9 20.4812C35.9 21.0509 35.9647 21.6614 35.8838 22.2393C35.625 24.1031 33.9266 25.4298 32.0502 25.2996C30.2062 25.1775 28.7181 23.5985 28.6858 21.7428C28.6696 21.3195 28.6777 20.8882 28.6777 20.4649Z" fill="#A5BE5E"/>
<path d="M28.6211 34.3504C28.6211 34.6923 28.3622 34.9446 28.0226 34.9446C27.691 34.9446 27.4241 34.6841 27.416 34.3504C27.4079 34.0167 27.7071 33.7237 28.0387 33.7318C28.3703 33.74 28.6211 34.0167 28.6211 34.3504Z" fill="#A5BE5E"/>
</g>
<defs>
<clipPath id="clip0_15_28">
<rect width="31" height="29" fill="white" transform="translate(14.5 15.5)"/>
</clipPath>
</defs>
</svg>
