<svg width="60" height="60" viewBox="0 0 60 60" fill="none" xmlns="http://www.w3.org/2000/svg">
<rect width="60" height="60" fill="white"/>
<circle cx="30" cy="30" r="27.5" stroke="#8769DC" stroke-opacity="0.1"/>
<g clip-path="url(#clip0_20_188)">
<path d="M45 17.5781C45 25.8574 45 34.1426 45 42.4219C44.9757 42.4863 44.9515 42.5449 44.9333 42.6094C44.6846 43.6289 44.0659 44.3613 43.0651 44.7715C42.8286 44.8711 42.5739 44.9238 42.3312 45C33.773 45 25.2209 45 16.6627 45C16.6506 44.9883 16.6324 44.9648 16.6202 44.9648C14.8431 44.5312 14 43.4824 14 41.7129C14 34.2012 14 26.6836 14 19.1719C14 18.7617 13.9879 18.3516 14.0061 17.9414C14.0485 16.8574 14.5398 16.0078 15.5042 15.4512C15.856 15.2461 16.2806 15.1465 16.6687 15C25.2209 15 33.7791 15 42.3373 15C42.3919 15.0176 42.4465 15.0469 42.5011 15.0586C43.8172 15.3633 44.63 16.1543 44.9454 17.4199C44.9515 17.4727 44.9757 17.5254 45 17.5781ZM29.497 44.0039C33.5729 44.0039 37.6488 44.0039 41.7247 44.0039C43.1076 44.0039 43.9689 43.1719 43.9689 41.8301C43.9689 33.9492 43.9689 26.0684 43.9689 18.1875C43.9689 16.8281 43.1137 16.002 41.7065 16.002C33.5729 16.002 25.4453 16.002 17.3117 16.002C15.8803 15.9961 15.0372 16.8164 15.0372 18.2051C15.0372 26.0684 15.0372 33.9258 15.0372 41.7891C15.0372 43.1895 15.8803 44.0039 17.3299 44.0039C21.3815 44.0039 25.4392 44.0039 29.497 44.0039Z" fill="#8B74CE"/>
<path d="M29.503 43.002C25.6212 43.002 21.7333 43.002 17.8515 43.002C16.6748 43.002 16.0683 42.4102 16.0683 41.2676C16.0683 36.416 16.0804 31.5586 16.0562 26.707C16.0501 25.7402 16.7173 24.9902 17.8151 24.9961C25.603 25.0137 33.3909 25.0137 41.1788 24.9961C42.2949 24.9961 42.9439 25.752 42.9439 26.707C42.9196 31.5703 42.9317 36.4336 42.9317 41.2969C42.9317 42.4102 42.3131 43.0078 41.1485 43.0078C37.2728 43.002 33.3849 43.002 29.503 43.002ZM29.5091 26.0039C25.6273 26.0039 21.7394 26.0039 17.8576 26.0039C17.2389 26.0039 17.0994 26.1387 17.0994 26.748C17.0994 31.582 17.0994 36.416 17.0994 41.25C17.0994 41.8652 17.245 42.0059 17.8879 42.0059C25.6333 42.0059 33.3849 42.0059 41.1303 42.0059C41.755 42.0059 41.9067 41.8594 41.9067 41.2676C41.9067 36.4219 41.9067 31.582 41.9067 26.7363C41.9067 26.1387 41.7672 26.0039 41.1364 26.0039C37.2606 26.0039 33.3849 26.0039 29.5091 26.0039Z" fill="#8B74CE"/>
<path d="M37.1211 22.6641C37.1696 22.377 37.2303 22.0078 37.297 21.6445C37.3334 21.457 37.3031 21.3105 37.1514 21.1758C36.9149 20.9648 36.6965 20.7363 36.4721 20.5137C36.2416 20.2852 36.1507 20.0215 36.2659 19.7109C36.3751 19.4121 36.6116 19.2715 36.927 19.2246C37.1939 19.1836 37.4608 19.125 37.7337 19.1133C38.0006 19.1016 38.1522 18.9961 38.2432 18.75C38.3524 18.4687 38.5101 18.2051 38.6374 17.9297C38.777 17.6484 39.0014 17.4902 39.3228 17.4902C39.6382 17.4961 39.8505 17.6484 39.984 17.918C40.1356 18.2285 40.2994 18.5273 40.4328 18.8437C40.5056 19.0137 40.6148 19.0781 40.7967 19.0957C41.0939 19.125 41.3972 19.1777 41.6944 19.2187C42.0219 19.2656 42.2706 19.4121 42.3676 19.7285C42.4647 20.0332 42.3737 20.3027 42.1432 20.5312C41.9309 20.7363 41.7247 20.959 41.5003 21.1523C41.3305 21.2988 41.2819 21.4453 41.3305 21.6621C41.4093 22.002 41.47 22.3535 41.5003 22.6992C41.5549 23.291 40.9787 23.6602 40.4267 23.3965C40.0507 23.2148 39.6807 22.8809 39.3046 22.875C38.9407 22.8691 38.5829 23.2148 38.2129 23.3906C37.6731 23.666 37.115 23.3262 37.1211 22.6641ZM37.6367 20.1797C37.8732 20.4727 38.2129 20.7363 38.3221 21.0703C38.4312 21.4102 38.316 21.8145 38.2978 22.2773C38.9892 21.6445 39.6746 21.6973 40.3418 22.248C40.3176 21.8027 40.1962 21.3984 40.3115 21.0645C40.4267 20.7305 40.7725 20.4668 41.009 20.1855C40.6451 20.0918 40.2144 20.0801 39.9294 19.875C39.6504 19.6758 39.5109 19.2832 39.3168 18.9785C39.1712 19.1484 37.9035 20.0625 37.6367 20.1797Z" fill="#8B74CE"/>
<path d="M27.3134 22.6523C27.362 22.3711 27.4226 22.002 27.4893 21.6387C27.5257 21.4629 27.5015 21.3281 27.3559 21.1934C27.1072 20.9766 26.8889 20.7363 26.6523 20.5078C26.4279 20.2852 26.349 20.0273 26.4461 19.7285C26.5492 19.418 26.7979 19.2656 27.1193 19.2246C27.2285 19.207 27.3377 19.1777 27.4469 19.1836C28.1141 19.2187 28.478 18.8848 28.6478 18.2988C28.6903 18.1582 28.7691 18.0352 28.8358 17.9004C28.9693 17.6426 29.1876 17.502 29.4848 17.4961C29.7942 17.4902 30.0246 17.6367 30.1581 17.9062C30.3158 18.2227 30.4553 18.5449 30.6312 18.8496C30.6918 18.9551 30.8374 19.0547 30.9587 19.084C31.262 19.1543 31.5774 19.1777 31.8806 19.2246C32.19 19.2715 32.4326 19.4121 32.5418 19.7109C32.6509 20.0156 32.566 20.2852 32.3355 20.5137C32.1051 20.7422 31.8564 20.959 31.6441 21.2051C31.5592 21.3105 31.5046 21.4805 31.5107 21.6094C31.541 21.9492 31.6198 22.2832 31.6744 22.6172C31.7229 22.9219 31.638 23.1797 31.3651 23.3613C31.0921 23.543 30.8192 23.5195 30.5402 23.3672C30.2612 23.2148 29.9822 23.0508 29.6911 22.9219C29.5758 22.875 29.3999 22.875 29.2847 22.9277C28.9753 23.0625 28.6842 23.25 28.3809 23.3965C27.8533 23.666 27.2952 23.3145 27.3134 22.6523ZM29.503 18.9082C29.2604 19.8047 28.6842 20.1797 27.7441 20.1445C28.5265 20.6836 28.7813 21.3457 28.4355 22.2363C29.1634 21.6562 29.8488 21.6621 30.5766 22.2363C30.2309 21.3516 30.4856 20.6895 31.268 20.1504C30.3279 20.1738 29.7396 19.8105 29.503 18.9082Z" fill="#8B74CE"/>
<path d="M21.5574 23.4961C21.4483 23.4492 21.2178 23.3906 21.054 23.2617C20.4778 22.8105 19.9259 22.8164 19.3618 23.2617C19.3314 23.2852 19.289 23.2969 19.2587 23.3203C18.9554 23.502 18.6461 23.5898 18.3307 23.3672C18.0092 23.1445 17.9485 22.834 18.0456 22.4824C18.0577 22.4355 18.0517 22.3828 18.0699 22.3359C18.3671 21.6152 18.1184 21.0703 17.4936 20.6367C17.4391 20.5957 17.3905 20.543 17.342 20.4902C17.1358 20.2734 17.0448 20.0332 17.1419 19.7402C17.2389 19.4355 17.4694 19.2773 17.7787 19.2305C18.0941 19.1777 18.4216 19.1543 18.731 19.084C18.8584 19.0547 18.9979 18.9551 19.0646 18.8496C19.2344 18.5625 19.3678 18.2578 19.5134 17.9531C19.6529 17.6602 19.8773 17.4844 20.217 17.4844C20.5445 17.4844 20.7629 17.6602 20.8963 17.9414C21.0419 18.2402 21.1996 18.5391 21.333 18.8437C21.4058 19.0137 21.515 19.0781 21.6969 19.0957C22.0002 19.125 22.2974 19.1777 22.5946 19.2187C22.9161 19.2656 23.1647 19.4121 23.2679 19.7285C23.371 20.0391 23.2679 20.3027 23.0374 20.5254C22.7948 20.7598 22.5461 20.9883 22.3217 21.2402C22.2549 21.3164 22.2125 21.4453 22.2246 21.5391C22.2671 21.9082 22.3459 22.2715 22.4005 22.6348C22.4612 23.1035 22.1154 23.502 21.5574 23.4961ZM20.2534 18.8906C20.0229 19.2598 19.8895 19.6582 19.6105 19.8574C19.3193 20.0684 18.8826 20.0859 18.5248 20.1855C18.7552 20.4609 19.101 20.7246 19.2101 21.0586C19.3254 21.3984 19.2041 21.8145 19.1859 22.2656C19.8713 21.6504 20.5627 21.6855 21.2906 22.2363C20.9448 21.3516 21.1814 20.6895 21.9759 20.1621C21.0176 20.1855 20.4353 19.793 20.2534 18.8906Z" fill="#8B74CE"/>
<path d="M38.2796 37.9395C38.2796 38.1328 38.2796 38.2969 38.2796 38.4609C38.2735 39.1992 37.7822 39.8086 37.0787 39.9551C36.3266 40.1133 35.629 39.7617 35.3015 39.0586C35.2833 39.0176 35.259 38.9707 35.2348 38.9238C35.0407 38.9473 34.8587 38.9883 34.6707 38.9883C34.4948 38.9883 34.3129 38.9473 34.1066 38.9238C34.0824 38.9707 34.052 39.0293 34.0278 39.0879C33.6153 39.9609 32.5842 40.2598 31.7411 39.75C31.6684 39.7031 31.5289 39.6738 31.4621 39.709C30.5463 40.1836 29.9094 40.084 29.2726 39.3809C28.8298 39.4277 28.4173 39.4687 27.9685 39.5098C27.8836 40.3359 27.4226 40.9336 26.4582 40.9922C25.6879 41.0391 25.1724 40.6113 24.8994 39.9258C23.7895 40.166 23.1708 39.7207 22.819 38.9238C21.7636 39.1113 21.1874 38.8301 20.775 37.9336C20.5384 37.9512 20.2958 37.998 20.0654 37.9805C19.2769 37.9219 18.6703 37.3125 18.6643 36.5508C18.6521 34.8516 18.6461 33.1523 18.6643 31.4531C18.6703 30.5039 19.5801 29.8359 20.5384 30.041C20.6052 30.0527 20.678 30.0703 20.7568 30.0879C21.151 29.1855 21.8364 28.8457 22.819 29.0742C23.2982 28.0605 24.0442 27.8789 24.8934 28.0723C25.233 27.2988 25.8274 26.8652 26.719 27.041C27.5197 27.1934 27.9078 27.75 27.9624 28.5C28.387 28.5352 28.7995 28.5703 29.2726 28.6113C30.1278 27.8672 30.613 27.8027 31.5713 28.3535C32.6449 27.627 33.7306 28.1191 34.0945 29.0391C34.4645 29.0391 34.8345 29.0391 35.2409 29.0391C35.5563 28.2891 36.1628 27.8379 37.0605 28.0312C38.1522 28.2656 38.3645 29.0977 38.2857 30.0059C38.6193 30.0234 38.9225 30 39.2137 30.0645C39.8627 30.2051 40.3418 30.7793 40.3418 31.4238C40.3539 33.1406 40.36 34.8633 40.3418 36.5801C40.3357 37.4238 39.5473 38.0684 38.6738 37.9922C38.5525 37.9746 38.4312 37.957 38.2796 37.9395ZM19.6893 33.9902C19.6893 34.793 19.6893 35.5898 19.6893 36.3926C19.6893 36.7617 19.8591 36.9668 20.1624 36.9902C20.4717 37.0078 20.6537 36.8379 20.7204 36.4687C20.7689 36.1758 20.9752 36 21.2481 36.0059C21.5332 36.0176 21.7394 36.2227 21.7455 36.5273C21.7515 36.8203 21.7455 37.1133 21.7515 37.4062C21.7576 37.7637 21.9335 37.9805 22.2428 37.9922C22.54 38.0039 22.728 37.8281 22.7826 37.4824C22.8372 37.166 23.0374 36.9902 23.3224 37.002C23.6196 37.0137 23.8016 37.2246 23.8077 37.5586C23.8137 37.834 23.8077 38.1035 23.8077 38.3789C23.8137 38.748 23.9775 38.959 24.2808 38.9883C24.578 39.0176 24.7478 38.8301 24.857 38.4727C24.9055 38.3086 25.045 38.1152 25.1966 38.0391C25.512 37.8867 25.8517 38.127 25.8699 38.4844C25.8881 38.8242 25.8638 39.1699 25.882 39.5098C25.9002 39.8086 26.1428 40.0078 26.4218 39.9961C26.6948 39.9785 26.8889 39.7793 26.9071 39.4922C26.9131 39.3281 26.9131 39.1582 26.9131 38.9941C26.9131 38.6719 26.9071 38.3496 26.9192 38.0273C26.9313 37.7168 27.1375 37.5117 27.4166 37.5C27.6895 37.4883 27.8836 37.6582 27.9442 37.9629C27.9564 38.0098 27.9624 38.0566 27.9746 38.1094C28.0413 38.3613 28.2111 38.4961 28.4719 38.4961C28.7327 38.4961 28.9026 38.3555 28.9693 38.1035C28.9875 38.0391 28.9935 37.9687 29.0057 37.9043C29.0724 37.6406 29.2544 37.5 29.5273 37.5117C29.8002 37.5234 29.9761 37.6816 30.0065 37.9512C30.0247 38.1035 30.0186 38.2617 30.0186 38.4199C30.0307 38.7656 30.2005 38.9707 30.4856 39C30.7768 39.0234 30.983 38.8477 31.0497 38.5078C31.1164 38.168 31.2862 38.0098 31.5713 38.0098C31.8443 38.0156 32.0202 38.1797 32.0808 38.4902C32.1475 38.8359 32.3416 39.0117 32.6267 38.9941C32.93 38.9766 33.1059 38.7539 33.1119 38.3965C33.118 38.1152 33.1059 37.8281 33.1119 37.5469C33.118 37.2246 33.2999 37.0254 33.585 37.0078C33.8761 36.9902 34.0824 37.1602 34.143 37.4766C34.2097 37.834 34.3856 38.0039 34.6707 37.998C34.9497 37.9922 35.1195 37.8164 35.1741 37.4766C35.2287 37.166 35.4349 36.9902 35.7261 37.0078C36.0112 37.0254 36.1992 37.2305 36.2052 37.5469C36.2113 37.8281 36.2052 38.1152 36.2052 38.3965C36.2113 38.7656 36.4054 38.9941 36.7147 39C37.0301 39 37.2303 38.7715 37.2364 38.4082C37.2424 37.8223 37.2364 37.2363 37.2364 36.6504C37.2364 36.252 37.3941 36.041 37.7034 36.0059C38.0127 35.9766 38.2007 36.1523 38.2735 36.5449C38.3281 36.8379 38.5343 37.002 38.8194 36.9902C39.0984 36.9727 39.2986 36.7852 39.2986 36.4863C39.3046 34.8281 39.3046 33.1641 39.2986 31.5059C39.2986 31.2188 39.0863 31.0137 38.8194 31.002C38.5525 30.9844 38.3281 31.1719 38.2796 31.4531C38.2068 31.8457 38.0188 32.0215 37.7095 31.9922C37.4062 31.9629 37.2485 31.7461 37.2485 31.3477C37.2485 30.75 37.2545 30.1582 37.2485 29.5605C37.2485 29.2148 37.0362 28.998 36.7269 28.998C36.4175 28.998 36.2234 29.2148 36.2174 29.5664C36.2113 29.8477 36.2174 30.1348 36.2174 30.416C36.2113 30.75 36.0293 30.9668 35.7382 30.9902C35.4471 31.0137 35.2409 30.8262 35.1863 30.4922C35.1317 30.1758 34.9315 29.9883 34.6525 29.9941C34.3796 30 34.2097 30.1699 34.1552 30.4863C34.0945 30.8203 33.8883 31.0078 33.6032 30.9902C33.306 30.9727 33.1301 30.7676 33.124 30.4219C33.118 30.1113 33.1362 29.7949 33.118 29.4844C33.0998 29.1973 32.8814 29.0039 32.6146 28.998C32.3477 28.9922 32.1536 29.1562 32.099 29.4375C32.0869 29.4961 32.0808 29.5547 32.0687 29.6074C31.9959 29.8535 31.8261 29.9941 31.5653 29.9883C31.3044 29.9824 31.1346 29.8418 31.08 29.5898C31.0618 29.5137 31.0558 29.4316 31.0315 29.3613C30.9527 29.1152 30.7707 28.9863 30.5099 29.0039C30.2491 29.0215 30.0792 29.1621 30.0428 29.4199C30.0247 29.5664 30.0307 29.7129 30.0247 29.8594C30.0186 30.252 29.8488 30.4687 29.5394 30.4863C29.2362 30.5039 29.0542 30.3398 28.9814 29.959C28.9208 29.666 28.7449 29.5078 28.4841 29.502C28.205 29.4961 28.0231 29.6602 27.9564 29.9648C27.8775 30.3398 27.6956 30.5098 27.3923 30.4863C27.083 30.4629 26.9192 30.2461 26.9131 29.8535C26.9071 29.4141 26.9192 28.9746 26.9071 28.5352C26.901 28.2012 26.7008 28.002 26.3976 28.002C26.1004 28.002 25.8942 28.207 25.882 28.5352C25.8699 28.8164 25.882 29.1035 25.876 29.3848C25.8699 29.7539 25.7061 29.9648 25.4089 29.9941C25.1117 30.0176 24.9055 29.8242 24.8448 29.4727C24.7903 29.1621 24.584 28.9863 24.299 29.0039C24.02 29.0215 23.8259 29.2324 23.8198 29.5488C23.8137 29.8418 23.8198 30.1348 23.8137 30.4277C23.8077 30.7676 23.6318 30.9785 23.3346 30.9961C23.0434 31.0137 22.8372 30.8262 22.7826 30.498C22.728 30.1699 22.5097 29.9824 22.2246 30.0059C21.9456 30.0293 21.7636 30.2402 21.7576 30.5566C21.7515 30.8672 21.7636 31.1836 21.7515 31.4941C21.7394 31.7871 21.5392 31.9805 21.2663 31.998C20.9873 32.0098 20.7811 31.8398 20.7265 31.5527C20.6598 31.1719 20.4535 30.9785 20.1503 31.0078C19.8531 31.0371 19.6893 31.2539 19.6893 31.623C19.6893 32.4082 19.6893 33.1992 19.6893 33.9902Z" fill="#8B74CE"/>
</g>
<defs>
<clipPath id="clip0_20_188">
<rect width="31" height="30" fill="white" transform="translate(14 15)"/>
</clipPath>
</defs>
</svg>
