<svg width="60" height="61" viewBox="0 0 60 61" fill="none" xmlns="http://www.w3.org/2000/svg">
<rect width="60" height="60" transform="translate(0 0.599983)" fill="white"/>
<circle cx="30" cy="30.6" r="28" fill="#7595A8" fill-opacity="0.1"/>
<path d="M36.1792 41.1317C35.0337 41.5688 34.0432 41.9452 33.0409 42.3338C32.9454 42.3702 32.838 42.5402 32.8261 42.6616C32.8022 43.0259 32.8261 43.3901 32.8141 43.7544C32.7903 44.8836 32.0743 45.6 30.9884 45.6C30.1053 45.6 29.2342 45.5878 28.3631 45.5271C27.5636 45.4664 26.9789 44.8107 26.9431 43.9972C26.9192 43.5723 26.955 43.1473 26.9192 42.7223C26.9073 42.6009 26.788 42.4309 26.6806 42.3823C25.7856 41.9816 24.8787 41.5931 23.9718 41.2167C23.8644 41.1681 23.6854 41.1924 23.6019 41.2653C23.3274 41.496 23.0887 41.7752 22.8381 42.0302C22.1341 42.7345 21.1437 42.7952 20.4277 42.1152C19.7833 41.5081 19.1747 40.8646 18.59 40.1968C17.9814 39.4925 18.0411 38.4847 18.6855 37.8048C19.0077 37.4527 19.3537 37.1248 19.6162 36.8577C19.2105 35.7528 18.8406 34.7328 18.4468 33.7008C18.411 33.6158 18.2559 33.5186 18.1485 33.5186C17.7666 33.4943 17.3728 33.5186 16.991 33.5065C16.0005 33.4822 15.2726 32.7658 15.2488 31.758C15.2249 30.9202 15.2368 30.0946 15.2488 29.2568C15.2726 28.249 16.0125 27.5204 16.991 27.5204C17.4325 27.5204 17.886 27.5204 18.2439 27.5204C18.7093 26.4762 19.1509 25.4927 19.5804 24.5092C19.6162 24.4121 19.5685 24.2178 19.4969 24.1328C19.2702 23.8657 19.0196 23.635 18.7809 23.3921C18.0769 22.6636 18.0292 21.6437 18.7093 20.903C19.306 20.2716 19.9265 19.6524 20.5709 19.0696C21.2511 18.4503 22.2057 18.4868 22.8859 19.1181C23.1961 19.3974 23.4706 19.7252 23.7809 20.0045C23.8644 20.0774 24.0553 20.1138 24.1508 20.0774C25.1293 19.6524 26.1078 19.2153 27.1579 18.7417C27.1579 18.4018 27.1579 17.9525 27.1579 17.5033C27.1698 16.3498 27.8619 15.6334 28.9836 15.6091C29.7473 15.5969 30.4991 15.5969 31.2628 15.6091C32.2771 15.6212 32.9573 16.3133 33.0051 17.3575C33.017 17.7461 32.9931 18.1468 33.017 18.5353C33.0289 18.6567 33.1363 18.8389 33.2437 18.8874C34.2103 19.3003 35.1888 19.6888 36.2986 20.1259C36.5134 19.8831 36.7997 19.5431 37.1219 19.2274C37.8021 18.5475 38.8284 18.511 39.5324 19.1789C40.1529 19.7738 40.7376 20.3931 41.3104 21.0366C41.9667 21.7773 41.9071 22.7729 41.2388 23.5014C40.9166 23.8414 40.4154 24.1328 40.3319 24.5214C40.2603 24.8735 40.678 25.3227 40.845 25.7356C41.0598 26.2941 41.2627 26.8648 41.4417 27.4355C41.5252 27.6904 41.6326 27.7997 41.9071 27.7876C42.2889 27.7633 42.6827 27.7754 43.0646 27.7876C44.0073 27.824 44.7232 28.5282 44.7471 29.4875C44.771 30.3374 44.771 31.1874 44.7471 32.0252C44.7232 33.0087 44.0073 33.725 43.0407 33.7493C42.6946 33.7615 42.3605 33.7615 42.0145 33.7493C41.7519 33.7372 41.6326 33.8222 41.5371 34.0772C41.203 34.9514 40.845 35.8135 40.4632 36.6634C40.3558 36.9063 40.3677 37.0398 40.5586 37.1977C40.8092 37.4162 41.024 37.6591 41.2507 37.9019C41.919 38.594 41.9906 39.6018 41.3343 40.3182C40.7257 40.9981 40.0694 41.6417 39.3773 42.2366C38.709 42.8194 37.7305 42.7466 37.0981 42.1273C36.7281 41.7752 36.4179 41.3988 36.1792 41.1317ZM29.8667 44.1065C30.1889 44.1065 30.523 44.0944 30.8452 44.1065C31.2032 44.1186 31.3583 43.9972 31.3464 43.6087C31.3225 43.038 31.3344 42.4552 31.3464 41.8845C31.3583 41.3745 31.5373 41.1317 32.0385 41.0346C33.3392 40.7674 34.5325 40.2575 35.6542 39.5532C36.0957 39.274 36.394 39.3225 36.7639 39.6989C37.1577 40.0875 37.5515 40.476 37.9334 40.8889C38.184 41.156 38.3749 41.1803 38.6374 40.9131C39.1028 40.4275 39.5921 39.9539 40.0813 39.4925C40.3319 39.2618 40.32 39.0797 40.0813 38.849C39.6875 38.4726 39.3176 38.084 38.9477 37.6955C38.5539 37.2827 38.5181 36.9913 38.8164 36.5299C39.5205 35.4249 40.0217 34.235 40.308 32.9601C40.4274 32.438 40.666 32.2559 41.1911 32.2437C41.74 32.2316 42.2889 32.2316 42.8378 32.2437C43.16 32.2559 43.2913 32.1223 43.2913 31.7945C43.2794 31.1145 43.2794 30.4345 43.2913 29.7546C43.3032 29.3782 43.1362 29.2446 42.7782 29.2568C42.1815 29.2689 41.5849 29.2568 40.9882 29.2568C40.5586 29.2568 40.2722 29.0382 40.1887 28.6132C39.9501 27.2655 39.425 26.0391 38.721 24.8856C38.4465 24.4242 38.4823 24.145 38.8642 23.7564C39.2699 23.3314 39.6756 22.9186 40.0932 22.5058C40.2961 22.3115 40.2961 22.1294 40.1052 21.923C39.6159 21.413 39.1267 20.903 38.6494 20.3809C38.4226 20.1259 38.2317 20.1502 38.0169 20.3931C37.6351 20.7937 37.2413 21.1944 36.8475 21.583C36.4776 21.9472 36.1912 21.9958 35.7735 21.7044C34.6757 20.9759 33.4943 20.4781 32.2175 20.1624C31.6805 20.0288 31.5134 19.8102 31.5134 19.2274C31.5134 18.6325 31.5015 18.0496 31.5134 17.4547C31.5134 17.1876 31.418 17.0661 31.1435 17.0661C30.4395 17.0783 29.7473 17.0783 29.0433 17.0661C28.745 17.0661 28.6137 17.1876 28.6256 17.5033C28.6376 18.1225 28.6256 18.7417 28.6256 19.361C28.6256 19.8224 28.3989 20.1138 27.9693 20.1988C26.6448 20.4416 25.4395 20.9759 24.3059 21.6923C23.8763 21.9594 23.6019 21.923 23.2319 21.5587C22.8262 21.158 22.4205 20.7573 22.0386 20.3324C21.8119 20.0895 21.621 20.0409 21.3704 20.3081C20.8931 20.8059 20.3919 21.2794 19.8907 21.7651C19.664 21.9837 19.664 22.1537 19.8907 22.3722C20.2726 22.7486 20.6544 23.1372 21.0243 23.5257C21.4301 23.9507 21.4778 24.2421 21.1675 24.7278C20.4754 25.8206 19.9742 26.9862 19.6998 28.2611C19.5804 28.8075 19.3537 28.9896 18.7809 28.9896C18.232 29.0018 17.6831 29.0018 17.1342 28.9896C16.8359 28.9896 16.7046 29.1111 16.7046 29.4146C16.7165 30.1067 16.7165 30.8109 16.7046 31.503C16.6927 31.8673 16.8478 31.9766 17.1938 31.9644C17.7547 31.9523 18.3275 31.9523 18.8883 31.9644C19.4014 31.9766 19.6401 32.1587 19.7356 32.6565C19.9981 33.98 20.4993 35.1942 21.2033 36.3356C21.4778 36.7848 21.4301 37.0884 21.0601 37.4769C20.6783 37.8776 20.2964 38.2783 19.8907 38.6669C19.6282 38.9097 19.6043 39.1161 19.8668 39.3832C20.3442 39.8568 20.8095 40.3546 21.263 40.8524C21.4897 41.0953 21.6687 41.0953 21.8954 40.8646C22.2773 40.4639 22.6711 40.0632 23.0649 39.6747C23.4229 39.3225 23.7331 39.274 24.1388 39.5411C25.2486 40.2696 26.4419 40.7917 27.7307 41.0831C28.2199 41.1924 28.387 41.4352 28.387 41.9574C28.387 42.528 28.3989 43.1109 28.387 43.6815C28.387 43.9729 28.5063 44.0944 28.7927 44.0944C29.1507 44.0944 29.5087 44.1065 29.8667 44.1065Z" fill="#7595A8"/>
</svg>
