<svg width="60" height="60" viewBox="0 0 60 60" fill="none" xmlns="http://www.w3.org/2000/svg">
<rect width="60" height="60" fill="white"/>
<circle cx="30" cy="30" r="27.5" stroke="#49CCF9" stroke-opacity="0.1"/>
<g clip-path="url(#clip0_20_91)">
<path d="M22.2319 44C21.863 43.9262 21.494 43.8695 21.125 43.7843C17.4014 42.8763 15.0004 39.2896 15.5907 35.51C15.8405 33.8869 16.5727 32.5135 17.725 31.3614C19.2519 29.8292 20.7788 28.3025 22.3114 26.7759C23.1231 25.9644 24.0653 25.3515 25.1495 24.9599C25.2744 24.9145 25.4163 24.7783 25.4617 24.6478C25.8704 23.5014 26.5402 22.5366 27.3916 21.691C28.9867 20.102 30.542 18.4618 32.1937 16.9296C36.1615 13.2521 42.6721 15.0851 44.1934 20.2779C44.3353 20.7546 44.3977 21.254 44.4999 21.7421C44.4999 22.1564 44.4999 22.5706 44.4999 22.9906C44.4828 23.0644 44.4545 23.1325 44.4488 23.2063C44.2558 24.8123 43.6314 26.2254 42.5018 27.3832C40.9522 28.9779 39.3629 30.5386 37.7905 32.1219C36.9505 32.9675 35.9912 33.6429 34.8559 34.0288C34.6799 34.0912 34.5778 34.1877 34.521 34.3636C34.1521 35.4532 33.522 36.384 32.716 37.2012C31.2004 38.7221 29.6735 40.2431 28.1523 41.764C27.1192 42.7969 25.9045 43.5006 24.4797 43.8184C24.1505 43.8922 23.8156 43.9433 23.4864 44.0057C23.0663 44 22.6463 44 22.2319 44ZM30.4057 25.0961C32.2732 25.919 33.5844 27.2299 34.3961 29.08C34.487 28.9949 34.5607 28.9382 34.6232 28.8701C35.1965 28.2969 35.7698 27.7237 36.3488 27.1505C37.2626 26.2368 38.1822 25.3288 39.0904 24.4037C40.0951 23.3879 40.2427 21.8896 39.465 20.7546C38.6363 19.5458 36.9959 19.1769 35.7244 19.9204C35.6506 19.9658 35.5768 20.0055 35.503 20.0452C35.1568 20.2268 34.8559 20.1701 34.6856 19.892C34.5097 19.6025 34.5948 19.2961 34.9297 19.0748C35.7698 18.5243 36.6837 18.2973 37.677 18.4505C39.1812 18.6832 40.254 19.5117 40.8103 20.9192C41.3779 22.3607 41.1963 23.7795 40.1405 24.9145C38.4887 26.6851 36.7291 28.365 35.0035 30.0675C34.8332 30.2321 34.7935 30.374 34.8162 30.601C34.8786 31.1515 34.9013 31.7076 34.9297 32.2638C34.9411 32.4284 34.9127 32.593 34.907 32.7916C35.679 32.4624 36.3034 32.0027 36.8596 31.4466C38.3979 29.9143 39.9305 28.3763 41.4688 26.844C42.3088 26.0041 42.8935 25.0223 43.1773 23.8646C43.8244 21.2256 42.6721 18.4164 40.3846 17.0658C37.8303 15.5562 34.8162 15.9194 32.6876 18.0135C31.1266 19.5515 29.5883 21.1065 28.0387 22.6558C26.9829 23.717 26.3358 24.9883 26.211 26.4808C26.0237 28.6714 26.7786 30.4988 28.4588 31.9233C28.9753 32.3603 29.56 32.7008 30.2581 32.9391C30.3092 32.644 30.383 32.3773 30.4057 32.1106C30.4852 31.1458 30.0538 30.3967 29.4237 29.7043C28.0955 28.2515 28.1068 25.9303 29.4408 24.4832C30.0935 23.7738 30.786 23.1098 31.4729 22.4288C31.7567 22.145 32.0859 22.1337 32.3243 22.3777C32.557 22.616 32.5457 22.9452 32.2619 23.2346C31.7283 23.7795 31.1834 24.3186 30.6385 24.8577C30.5703 24.9202 30.5022 24.9939 30.4057 25.0961ZM25.0019 26.2595C24.4854 26.4354 23.7588 26.9235 23.1288 27.5534C21.5905 29.0857 20.0579 30.6237 18.5196 32.156C17.6796 32.9959 17.0949 33.9777 16.8111 35.1354C16.164 37.7744 17.3163 40.5836 19.6038 41.9342C22.1581 43.4438 25.1779 43.0806 27.3008 40.9865C28.8618 39.4485 30.4114 37.8992 31.9497 36.3386C34.7821 33.4669 34.3507 28.9892 31.0244 26.7078C30.6441 26.4468 30.2127 26.2595 29.7927 26.0382C29.7473 26.1346 29.7303 26.1687 29.7189 26.2027C29.3783 27.3491 29.6848 28.3196 30.4795 29.1935C31.9667 30.828 31.927 33.1207 30.3773 34.7041C28.8277 36.2932 27.2497 37.8538 25.6717 39.4088C24.667 40.3963 23.4466 40.7879 22.0616 40.4928C20.5517 40.1863 19.53 39.2613 19.0759 37.7914C18.6161 36.2818 18.9794 34.9254 20.0863 33.8074C21.7381 32.1389 23.4183 30.4932 25.0871 28.836C25.1438 28.7793 25.1949 28.6771 25.1892 28.6033C25.1325 27.8202 25.0644 27.0427 25.0019 26.2595ZM29.5827 33.8982C27.7209 33.081 26.404 31.7644 25.6036 29.937C25.5582 29.954 25.5355 29.954 25.5241 29.971C23.9234 31.5714 22.3057 33.1548 20.7334 34.7836C19.8422 35.7086 19.8082 37.2352 20.5631 38.2851C21.5848 39.7096 23.6169 39.8628 24.8941 38.5973C26.4153 37.0933 27.9252 35.5724 29.4408 34.0571C29.4748 34.0174 29.5146 33.9777 29.5827 33.8982Z" fill="#49CCF9"/>
<path d="M20.3475 19.245C20.5575 19.3755 20.7278 19.4436 20.8527 19.5628C21.6133 20.3119 22.3683 21.0667 23.1175 21.8215C23.3957 22.1053 23.4184 22.4401 23.1857 22.6785C22.9472 22.9282 22.6067 22.9112 22.3115 22.616C21.5509 21.8669 20.8016 21.1065 20.0467 20.3517C19.8537 20.1587 19.7345 19.9147 19.8764 19.665C19.9786 19.5004 20.1772 19.3982 20.3475 19.245Z" fill="#49CCF9"/>
<path d="M26.143 18.6775C26.143 19.2053 26.143 19.7331 26.143 20.2609C26.1373 20.6751 25.9159 20.9362 25.581 20.9362C25.2405 20.9362 25.0134 20.6751 25.0134 20.2609C25.0077 19.2053 25.0077 18.1497 25.0134 17.0885C25.0134 16.6798 25.2405 16.4131 25.5754 16.4131C25.9103 16.4131 26.1373 16.6742 26.143 17.0885C26.143 17.6219 26.143 18.1497 26.143 18.6775Z" fill="#49CCF9"/>
<path d="M19.3371 24.5115C19.8537 24.5115 20.3759 24.5115 20.8924 24.5115C21.3295 24.5115 21.5963 24.7215 21.602 25.0677C21.6077 25.4139 21.3409 25.6409 20.9038 25.6409C19.8537 25.6409 18.8093 25.6409 17.7591 25.6409C17.3448 25.6409 17.0837 25.4196 17.078 25.0847C17.0723 24.7386 17.3448 24.5115 17.7762 24.5115C18.2984 24.5115 18.8206 24.5115 19.3371 24.5115Z" fill="#49CCF9"/>
<path d="M37.1663 36.0718C37.3706 36.191 37.5409 36.2534 37.6544 36.3613C38.4264 37.1217 39.1927 37.8879 39.9533 38.6597C40.2314 38.9434 40.2371 39.2726 39.9987 39.511C39.7717 39.7323 39.4368 39.7266 39.1643 39.4656C38.3867 38.6994 37.6147 37.9219 36.8427 37.1501C36.6554 36.9628 36.5532 36.7188 36.7008 36.4861C36.803 36.3215 37.0017 36.2137 37.1663 36.0718Z" fill="#49CCF9"/>
<path d="M40.8048 34.426C40.2769 34.426 39.749 34.4317 39.2211 34.426C38.8124 34.4203 38.5513 34.1877 38.557 33.8472C38.5626 33.518 38.8181 33.2967 39.2154 33.291C40.2825 33.2853 41.3497 33.2853 42.4168 33.291C42.8255 33.291 43.0923 33.5294 43.0809 33.8642C43.0753 34.1933 42.8142 34.4147 42.4225 34.4204C41.8776 34.4317 41.344 34.426 40.8048 34.426Z" fill="#49CCF9"/>
<path d="M34.9241 40.3452C34.9241 40.8616 34.9298 41.3838 34.9241 41.9002C34.9185 42.3088 34.6914 42.5755 34.3565 42.5755C34.0216 42.5755 33.7946 42.3088 33.7946 41.9002C33.7889 40.8446 33.7889 39.789 33.7946 38.7278C33.7946 38.3135 34.0216 38.0524 34.3622 38.0524C34.6971 38.0524 34.9241 38.3192 34.9241 38.7278C34.9241 39.2669 34.9241 39.8061 34.9241 40.3452Z" fill="#49CCF9"/>
<path d="M34.0784 21.1802C34.067 21.4867 33.8059 21.7364 33.5051 21.725C33.2042 21.7137 32.9545 21.4413 32.9658 21.1462C32.9772 20.8397 33.2383 20.5957 33.5448 20.607C33.857 20.6127 34.0897 20.8681 34.0784 21.1802Z" fill="#49CCF9"/>
</g>
<defs>
<clipPath id="clip0_20_91">
<rect width="29" height="29" fill="white" transform="translate(15.5 15)"/>
</clipPath>
</defs>
</svg>
