<svg width="60" height="60" viewBox="0 0 60 60" fill="none" xmlns="http://www.w3.org/2000/svg">
<rect width="60" height="60" fill="white"/>
<circle cx="30" cy="30" r="28" fill="#00B884" fill-opacity="0.1"/>
<g clip-path="url(#clip0_1_2)">
<path d="M30.9914 15C31.5047 15.1641 32.0239 15.3164 32.4439 15.6914C33.1089 16.2773 33.4764 17.0039 33.4939 17.8887C33.5114 18.9785 33.4997 20.0742 33.4997 21.2109C33.6222 21.2109 33.7389 21.2109 33.8497 21.2109C36.5739 21.2109 39.2922 21.2109 42.0164 21.2109C43.2997 21.2109 44.0055 21.9141 44.0055 23.1973C44.0055 25.7871 44.0055 28.3711 44.0055 30.9609C44.0055 32.2207 43.2939 32.9297 42.0339 32.9297C39.9222 32.9297 37.8164 32.9297 35.7047 32.9355C35.553 32.9355 35.378 32.9941 35.2555 33.082C34.748 33.4453 34.2639 33.832 33.7564 34.1953C33.5755 34.3242 33.4997 34.4648 33.4997 34.6992C33.5114 37.084 33.4822 39.4629 33.5172 41.8477C33.5405 43.3418 32.5955 44.6777 31.073 44.9531C31.0497 44.959 31.0264 44.9824 31.003 45C26.8439 45 22.6789 45 18.5197 45C18.2397 44.9004 17.9422 44.8359 17.6797 44.7012C16.548 44.127 15.9997 43.1895 15.9997 41.9355C15.9997 33.9785 15.9997 26.0215 15.9997 18.0645C15.9997 17.9648 15.9939 17.8711 16.0055 17.7715C16.0755 16.9512 16.408 16.2598 17.0322 15.709C17.458 15.3281 17.983 15.1641 18.508 15C22.6672 15 26.8322 15 30.9914 15ZM17.178 39.1172C22.2414 39.1172 27.2814 39.1172 32.3155 39.1172C32.3155 37.8398 32.3155 36.5859 32.3155 35.2852C31.8489 35.6367 31.4172 35.959 30.9855 36.2871C30.7872 36.4395 30.5714 36.5039 30.3322 36.3809C30.0872 36.2578 29.9939 36.0469 29.9939 35.7832C29.9997 35.0801 29.9939 34.377 29.9939 33.6738C29.9939 33.4336 29.9939 33.1934 29.9939 32.9297C29.4455 32.9297 28.9322 32.9297 28.4189 32.9297C27.2172 32.9297 26.4939 32.2031 26.4939 30.9961C26.4939 28.377 26.4939 25.7637 26.4939 23.1445C26.4939 21.9375 27.2172 21.2109 28.413 21.2109C29.6089 21.2109 30.8047 21.2109 32.0005 21.2109C32.1055 21.2109 32.2047 21.2109 32.3039 21.2109C32.3039 20.291 32.3039 19.4062 32.3039 18.5332C27.2464 18.5332 22.218 18.5332 17.1722 18.5332C17.178 25.4004 17.178 32.25 17.178 39.1172ZM31.1664 34.6758C31.3064 34.5762 31.3997 34.5117 31.493 34.4414C32.5664 33.6328 33.6397 32.8301 34.7072 32.0156C34.9464 31.834 35.1855 31.752 35.483 31.752C37.688 31.7578 39.893 31.7578 42.1039 31.7578C42.6055 31.7578 42.833 31.541 42.833 31.0547C42.833 28.4004 42.833 25.7461 42.833 23.0918C42.833 22.6113 42.6114 22.3887 42.1389 22.3887C37.5539 22.3887 32.963 22.3887 28.378 22.3887C27.888 22.3887 27.6722 22.6113 27.6722 23.1152C27.6722 25.7578 27.6722 28.4062 27.6722 31.0488C27.6722 31.541 27.8939 31.7578 28.3897 31.7637C29.0722 31.7695 29.7489 31.7637 30.4314 31.7637C30.9622 31.7637 31.1722 31.9746 31.1722 32.5137C31.1664 33.2109 31.1664 33.9141 31.1664 34.6758ZM17.1664 40.3242C17.1664 40.8516 17.1664 41.3496 17.1664 41.8418C17.1664 43.125 17.8722 43.8281 19.1555 43.8281C22.8889 43.8281 26.6164 43.8281 30.3497 43.8281C30.478 43.8281 30.6005 43.8281 30.7289 43.8164C31.4989 43.7402 32.1639 43.2305 32.263 42.4746C32.3505 41.7715 32.2805 41.0449 32.2805 40.3184C27.2639 40.3242 22.2355 40.3242 17.1664 40.3242ZM17.3005 17.3262C22.2764 17.3262 27.2347 17.3262 32.1989 17.3262C31.9655 16.6406 31.353 16.1777 30.618 16.1777C26.7039 16.1719 22.7897 16.1719 18.8755 16.1719C18.8464 16.1719 18.8172 16.1719 18.788 16.1777C18.0997 16.2305 17.5105 16.6816 17.3005 17.3262Z" fill="#00B884"/>
<path d="M36.4458 24.7266C37.5542 24.7266 38.6625 24.7207 39.7708 24.7324C39.9458 24.7324 40.15 24.7793 40.2842 24.8848C40.6342 25.1484 40.5292 25.7051 40.115 25.8516C39.9925 25.8926 39.8467 25.8984 39.7125 25.8984C37.5133 25.8984 35.32 25.8984 33.1208 25.8984C33.0508 25.8984 32.9867 25.9043 32.9167 25.8926C32.5783 25.8633 32.3392 25.6172 32.3392 25.3066C32.3392 24.9961 32.5783 24.7441 32.9167 24.7266C33.2492 24.709 33.5758 24.7207 33.9083 24.7207C34.7542 24.7266 35.6 24.7266 36.4458 24.7266Z" fill="#00B884"/>
<path d="M36.4458 28.2422C37.5542 28.2422 38.6625 28.2363 39.7708 28.248C39.9458 28.248 40.15 28.2949 40.2842 28.4004C40.6342 28.6641 40.5292 29.2207 40.115 29.3672C39.9925 29.4082 39.8467 29.4141 39.7125 29.4141C37.5133 29.4141 35.32 29.4141 33.1208 29.4141C33.0508 29.4141 32.9867 29.4199 32.9167 29.4082C32.5783 29.3789 32.3392 29.1328 32.3392 28.8281C32.3392 28.5176 32.5783 28.2656 32.9167 28.248C33.2492 28.2305 33.5758 28.2422 33.9083 28.2422C34.7542 28.2422 35.6 28.2422 36.4458 28.2422Z" fill="#00B884"/>
<path d="M31.1608 25.3184C31.1608 25.623 30.8808 25.8984 30.5775 25.8984C30.2742 25.8984 30 25.623 30 25.3125C30 25.0078 30.2742 24.7324 30.5833 24.7324C30.8925 24.7324 31.1667 25.0078 31.1608 25.3184Z" fill="#00B884"/>
<path d="M30.595 28.248C30.9042 28.2539 31.1725 28.5352 31.1608 28.8398C31.155 29.1504 30.875 29.4199 30.5717 29.4082C30.2625 29.4023 29.9942 29.1211 30.0058 28.8164C30.0117 28.5117 30.2858 28.2422 30.595 28.248Z" fill="#00B884"/>
<path d="M25.9167 42.6563C25.555 42.6563 25.1992 42.6621 24.8375 42.6563C24.435 42.6504 24.1725 42.4102 24.1725 42.0703C24.1725 41.7305 24.4408 41.4902 24.8375 41.4844C25.555 41.4785 26.2783 41.4785 26.9958 41.4844C27.3983 41.4902 27.6608 41.7305 27.6608 42.0703C27.6608 42.4102 27.3925 42.6504 26.9958 42.6563C26.6342 42.6621 26.2783 42.6563 25.9167 42.6563Z" fill="#00B884"/>
<path d="M22.9942 42.0586C23 42.3633 22.7317 42.6445 22.4225 42.6504C22.1192 42.6562 21.8392 42.3867 21.8333 42.0762C21.8275 41.7715 22.0958 41.4902 22.405 41.4844C22.7142 41.4844 22.9883 41.7539 22.9942 42.0586Z" fill="#00B884"/>
</g>
<defs>
<clipPath id="clip0_1_2">
<rect width="28" height="30" fill="white" transform="translate(16 15)"/>
</clipPath>
</defs>
</svg>
