<svg width="60" height="60" viewBox="0 0 60 60" fill="none" xmlns="http://www.w3.org/2000/svg">
<rect width="60" height="60" fill="white"/>
<circle cx="30" cy="30" r="28" fill="#FE7878" fill-opacity="0.1"/>
<g clip-path="url(#clip0_7_134)">
<path d="M30.4138 15C30.6184 15.0457 30.8229 15.0822 31.0182 15.137C31.9946 15.411 32.7013 15.9954 33.1011 16.9178C33.1755 17.0822 33.2592 17.1553 33.4545 17.1461C34.0403 17.137 34.6261 17.137 35.2119 17.1461C35.37 17.1461 35.5281 17.1553 35.6862 17.1918C36.0395 17.274 36.179 17.4658 36.1883 17.8219C36.1976 18.1781 36.1883 18.5342 36.1883 18.9269C37.0624 18.9269 37.9086 18.9178 38.7454 18.9361C39.0895 18.9452 39.4429 18.9726 39.7776 19.0639C41.0608 19.4018 41.9907 20.5982 41.9907 21.9041C42 28.6895 42 35.4749 41.9907 42.2603C41.9907 43.6027 40.9492 44.726 39.5451 44.9452C39.3034 44.9817 39.0523 45 38.8012 45C32.9244 45 27.0477 45 21.1709 45C20.4921 45 19.8504 44.8539 19.2739 44.4886C18.4463 43.9498 18 43.1918 18 42.1872C18 39.1826 18 36.1689 18 33.1644C18 29.4658 18 25.7671 18 22.0594C18 20.2329 19.3297 18.9269 21.1988 18.9178C21.9613 18.9178 22.733 18.9178 23.4955 18.9178C23.5885 18.9178 23.6908 18.9087 23.8117 18.9087C23.8117 18.5616 23.8117 18.2329 23.8117 17.9041C23.8117 17.3927 24.0163 17.1735 24.5463 17.1553C25.1879 17.137 25.8388 17.1461 26.4804 17.1461C26.6571 17.1461 26.7408 17.0913 26.8152 16.9361C27.2987 15.9041 28.1263 15.274 29.27 15.0548C29.3165 15.0457 29.363 15.0183 29.4002 15C29.735 15 30.079 15 30.4138 15ZM36.2162 20.379C36.1976 20.4155 36.1883 20.4338 36.1883 20.4521C36.1883 20.9269 36.179 21.411 36.179 21.8858C36.179 22.5799 35.9 22.8539 35.184 22.8539C31.7156 22.8539 28.2472 22.8539 24.7788 22.8539C24.0721 22.8539 23.8117 22.5982 23.8117 21.895C23.8117 21.3927 23.8117 20.8904 23.8117 20.379C23.7187 20.3699 23.6536 20.3516 23.5978 20.3607C22.7052 20.3607 21.8032 20.3333 20.9105 20.3881C20.0457 20.4338 19.4413 21.137 19.4413 22.0137C19.4413 28.7169 19.4413 35.4292 19.4413 42.1324C19.4413 42.8082 19.7668 43.2648 20.427 43.4658C20.6873 43.5479 20.9756 43.5753 21.2453 43.5753C27.0663 43.5845 32.8966 43.5845 38.7176 43.5753C38.8663 43.5753 39.0151 43.5662 39.1639 43.5479C40.0752 43.4384 40.5401 42.9269 40.5401 42.0228C40.5401 35.3927 40.5401 28.7626 40.5401 22.1324C40.5401 22.0502 40.5401 21.9772 40.5401 21.895C40.5122 21.1187 39.9171 20.4247 39.1453 20.3881C38.1782 20.3425 37.2112 20.379 36.2162 20.379ZM25.2902 21.411C28.4518 21.411 31.5761 21.411 34.7005 21.411C34.7005 20.4612 34.7005 19.5297 34.7005 18.5708C34.0868 18.5708 33.4917 18.5708 32.8966 18.5708C32.2828 18.5708 32.069 18.4064 31.9016 17.8219C31.6319 16.8813 30.7578 16.2603 29.8094 16.3333C28.9446 16.3973 28.2286 17.0091 27.9682 17.895C27.8287 18.379 27.5777 18.5708 27.0663 18.5708C26.8803 18.5708 26.685 18.5708 26.499 18.5708C26.0992 18.5708 25.69 18.5708 25.2902 18.5708C25.2902 19.5388 25.2902 20.4703 25.2902 21.411Z" fill="#FE7878"/>
<path d="M33.4452 26.7808C34.8028 26.7808 36.1697 26.7808 37.5273 26.7808C37.9458 26.7808 38.234 26.9726 38.327 27.3014C38.4386 27.6941 38.1875 28.105 37.7691 28.1872C37.6389 28.2055 37.5087 28.2146 37.3879 28.2146C34.7656 28.2146 32.1434 28.2146 29.5211 28.2146C29.4188 28.2146 29.3259 28.2146 29.2236 28.2055C28.8144 28.1598 28.5448 27.8767 28.5541 27.484C28.5634 27.1005 28.8423 26.8082 29.2515 26.7808C29.5118 26.7626 29.7722 26.7717 30.0233 26.7717C31.167 26.7808 32.3107 26.7808 33.4452 26.7808Z" fill="#FE7878"/>
<path d="M33.4266 39.6484C32.0876 39.6484 30.7486 39.6484 29.4002 39.6484C28.8981 39.6484 28.5913 39.4018 28.5541 39.0091C28.5169 38.6256 28.7493 38.3151 29.1306 38.2329C29.205 38.2146 29.2887 38.2146 29.363 38.2146C32.0876 38.2146 34.8028 38.2146 37.5273 38.2146C38.0109 38.2146 38.327 38.4795 38.3456 38.8813C38.3642 39.2466 38.1317 39.5479 37.7691 39.621C37.6389 39.6484 37.5087 39.6484 37.3878 39.6484C36.0674 39.6484 34.747 39.6484 33.4266 39.6484Z" fill="#FE7878"/>
<path d="M33.4266 33.9315C32.0689 33.9315 30.702 33.9315 29.3444 33.9315C28.8609 33.9315 28.5447 33.6393 28.554 33.21C28.5633 32.8447 28.8237 32.5616 29.1956 32.5251C29.2514 32.516 29.3165 32.516 29.3723 32.516C32.0968 32.516 34.8121 32.516 37.5366 32.516C38.0015 32.516 38.2991 32.7443 38.3549 33.1187C38.42 33.5753 38.0852 33.9315 37.5738 33.9315C36.4672 33.9406 35.37 33.9315 34.2634 33.9315C33.9845 33.9315 33.7055 33.9315 33.4266 33.9315Z" fill="#FE7878"/>
<path d="M23.914 33.0457C24.6021 32.3973 25.3181 31.7215 26.0527 31.0457C26.1829 30.9269 26.3503 30.8082 26.5269 30.7626C26.8431 30.6712 27.1685 30.8448 27.3266 31.1279C27.494 31.4201 27.4475 31.7123 27.1685 31.9772C26.3503 32.7443 25.532 33.5114 24.7044 34.2785C24.5742 34.3973 24.4533 34.5251 24.3138 34.6347C23.9977 34.8904 23.635 34.8813 23.3468 34.6073C22.8353 34.1142 22.3425 33.6119 21.8497 33.1005C21.5521 32.79 21.5707 32.3333 21.8497 32.0685C22.1379 31.7945 22.5564 31.8219 22.8911 32.1324C23.2259 32.4338 23.5606 32.726 23.914 33.0457Z" fill="#FE7878"/>
<path d="M23.8954 27.347C24.5277 26.7534 25.1879 26.1416 25.8481 25.5205C25.9597 25.4201 26.062 25.3105 26.1736 25.2192C26.5083 24.9452 26.9175 24.9635 27.215 25.2648C27.5033 25.5571 27.494 25.9589 27.1778 26.2511C26.2387 27.137 25.2995 28.0137 24.351 28.8904C24.0163 29.1918 23.6443 29.1735 23.3189 28.863C22.8446 28.3973 22.3704 27.9224 21.9055 27.4384C21.5707 27.0913 21.5521 26.6256 21.8683 26.3425C22.1658 26.0776 22.6029 26.1233 22.9562 26.4612C23.2538 26.7626 23.5699 27.0457 23.8954 27.347Z" fill="#FE7878"/>
<path d="M23.8954 38.7808C24.6207 38.105 25.3646 37.411 26.0992 36.7169C26.4061 36.4338 26.7129 36.3881 27.0198 36.5525C27.4568 36.7991 27.5591 37.3196 27.1965 37.6667C26.248 38.5708 25.2902 39.4566 24.3231 40.3425C24.007 40.6347 23.6257 40.6073 23.3189 40.2968C22.8447 39.8311 22.3704 39.3562 21.9055 38.8721C21.5614 38.5251 21.5521 38.0594 21.859 37.7763C22.1565 37.5023 22.5936 37.5571 22.9469 37.895C23.2538 38.1872 23.57 38.4703 23.8954 38.7808Z" fill="#FE7878"/>
</g>
<defs>
<clipPath id="clip0_7_134">
<rect width="24" height="30" fill="white" transform="translate(18 15)"/>
</clipPath>
</defs>
</svg>
