<svg width="60" height="60" viewBox="0 0 60 60" fill="none" xmlns="http://www.w3.org/2000/svg">
<rect width="60" height="60" fill="white"/>
<circle cx="30" cy="30" r="28" fill="#FFC800" fill-opacity="0.1"/>
<g clip-path="url(#clip0_3_91)">
<path d="M31.3466 15C32.0198 15.0939 32.7009 15.1643 33.3664 15.2973C35.2375 15.6571 36.9598 16.3924 38.5491 17.4485C38.8935 17.6754 38.9796 18.0039 38.7918 18.2934C38.596 18.5984 38.2516 18.6532 37.8993 18.4185C36.2239 17.3077 34.392 16.5802 32.4034 16.3142C28.6613 15.8136 25.2636 16.6819 22.2808 19.013C19.5094 21.1799 17.8575 24.0352 17.2938 27.5085C17.2625 27.7119 17.239 27.9153 17.2234 28.1186C17.1999 28.322 17.1921 28.5254 17.1686 28.7601C17.2547 28.7053 17.3252 28.6741 17.3878 28.6349C18.1628 28.1343 19.1258 28.2047 19.7834 28.8462C20.5819 29.6206 21.3727 30.4029 22.1477 31.2086C22.8836 31.9674 22.8758 33.1095 22.1555 33.8761C21.952 34.0952 21.7171 34.2907 21.4901 34.4941C22.6018 36.2621 23.9953 37.6545 25.7646 38.7653C25.9525 38.5619 26.1326 38.3507 26.3205 38.163C27.1425 37.3572 28.2933 37.3572 29.1232 38.163C29.8591 38.8905 30.5872 39.6258 31.3231 40.3533C31.9729 41.0026 32.1216 41.7536 31.7771 42.6063C31.7615 42.6454 31.7537 42.6767 31.7458 42.7158C31.7458 42.7236 31.7458 42.7314 31.7615 42.8096C32.4896 42.6688 33.2333 42.5906 33.9301 42.3794C39.1362 40.8227 42.4087 37.3963 43.5595 32.0926C44.3189 28.5958 43.6143 25.2947 41.6884 22.2673C41.6571 22.2203 41.6258 22.1656 41.5945 22.1186C41.3831 21.7744 41.4301 21.4381 41.7119 21.2425C42.0094 21.0469 42.3695 21.133 42.5809 21.5007C43.0115 22.2595 43.4812 23.0104 43.8257 23.8162C46.7771 30.7627 44.0136 38.6636 37.3747 42.2777C35.3549 43.3807 33.1785 43.9439 30.8768 43.9987C30.6654 44.0065 30.501 44.0613 30.3288 44.1943C29.2406 45.0626 28.0271 45.266 26.7667 44.6636C21.3727 42.09 17.513 38.0535 15.1722 32.5541C15.1096 32.4055 15.0548 32.249 15 32.0926C15 31.8814 15 31.6623 15 31.4511C15.1331 30.9113 15.4306 30.4811 15.8377 30.1134C15.9316 30.0274 15.9864 29.8631 15.9864 29.7379C15.9551 27.5476 16.3544 25.4433 17.3017 23.472C19.4624 18.9739 23.0089 16.2125 27.9175 15.2347C28.4734 15.1252 29.0371 15.0782 29.5929 15C30.1801 15 30.7672 15 31.3466 15ZM28.0115 43.8109C28.7552 43.7953 29.2641 43.5997 29.6868 43.2008C29.9687 42.9348 30.2427 42.6532 30.5167 42.3716C30.8768 41.9961 30.8847 41.5737 30.5245 41.206C29.7886 40.4628 29.0527 39.7197 28.309 38.9922C27.941 38.6245 27.5183 38.6323 27.1425 39C26.8528 39.2816 26.5788 39.5711 26.2891 39.8448C26.023 40.103 25.7881 40.1343 25.4671 39.9465C23.2985 38.6714 21.5762 36.9583 20.3001 34.7914C20.1044 34.4628 20.1435 34.2282 20.4175 33.9544C20.6915 33.6727 20.9734 33.4068 21.2474 33.1252C21.6232 32.734 21.6232 32.3194 21.2396 31.9361C20.5193 31.2086 19.7912 30.4811 19.0632 29.7614C18.6717 29.3703 18.2568 29.3703 17.8575 29.7614C17.38 30.2229 16.9181 30.7001 16.4483 31.1695C16.1665 31.4511 16.1039 31.7562 16.2604 32.1317C18.4838 37.3338 22.1399 41.1512 27.2443 43.5919C27.5261 43.7249 27.8549 43.7718 28.0115 43.8109Z" fill="#FFC800"/>
<path d="M30.5715 32.5854C30.9551 33.0235 31.3231 33.4303 31.6754 33.8449C31.9494 34.1656 31.9572 34.5176 31.6832 34.7523C31.4092 34.987 31.0804 34.94 30.7907 34.6193C30.3914 34.1656 29.9922 33.7119 29.5303 33.1877C29.5303 33.6024 29.5381 33.9465 29.5303 34.2907C29.5146 34.7445 29.1153 35.0183 28.7239 34.854C28.489 34.7523 28.3638 34.5645 28.3638 34.3064C28.3638 32.7575 28.3559 31.2086 28.3638 29.6597C28.3638 29.2921 28.5986 29.073 28.9744 29.0652C29.3267 29.0574 29.679 29.0574 30.0313 29.0652C30.9473 29.0808 31.6988 29.6832 31.8632 30.5359C32.0277 31.3651 31.5736 32.1552 30.7359 32.5306C30.6889 32.5228 30.6498 32.5463 30.5715 32.5854ZM29.5537 30.223C29.5537 30.6454 29.5537 31.0365 29.5537 31.4589C29.9452 31.4668 30.3523 31.5606 30.595 31.1695C30.6889 31.013 30.7124 30.7392 30.642 30.575C30.4227 30.1291 29.9765 30.2073 29.5537 30.223Z" fill="#FFC800"/>
<path d="M32.8262 24.2621C32.8262 24.5828 32.834 24.9035 32.8262 25.2242C32.7949 26.2803 31.9416 27.1408 30.9082 27.1799C29.7886 27.219 28.8492 26.4524 28.7709 25.3729C28.7161 24.6375 28.7239 23.8866 28.7709 23.1512C28.8413 22.0952 29.7965 21.2973 30.8455 21.3364C31.9259 21.3755 32.7871 22.2203 32.8262 23.2999C32.834 23.6206 32.8262 23.9413 32.8262 24.2621ZM31.6519 24.2777C31.6519 23.9726 31.6597 23.6754 31.6519 23.3703C31.6362 22.8774 31.2761 22.5098 30.8064 22.502C30.3523 22.4941 29.9452 22.8383 29.9296 23.3077C29.9061 23.9413 29.8982 24.575 29.9296 25.2086C29.953 25.7014 30.3523 26.03 30.8377 26.0143C31.2996 25.9987 31.6519 25.6388 31.6597 25.1617C31.6597 24.8644 31.6519 24.575 31.6519 24.2777Z" fill="#FFC800"/>
<path d="M38.3612 30.2151C38.3612 30.6219 38.3612 30.9896 38.3612 31.3885C38.6978 31.3885 39.0188 31.3807 39.3398 31.3885C39.7312 31.3964 39.9739 31.6232 39.9739 31.9674C39.9739 32.3116 39.7312 32.5463 39.3476 32.5541C39.0266 32.5619 38.7056 32.5541 38.369 32.5541C38.369 32.9531 38.369 33.3129 38.369 33.7275C38.7213 33.7275 39.0736 33.7275 39.4181 33.7275C39.8565 33.7275 40.107 33.9465 40.107 34.3064C40.107 34.6662 39.8486 34.8931 39.4181 34.8931C38.9092 34.9009 38.4003 34.9009 37.8993 34.8931C37.4139 34.8931 37.1868 34.6741 37.1868 34.2047C37.179 32.7106 37.179 31.2243 37.1868 29.7301C37.1868 29.2608 37.406 29.0495 37.8679 29.0417C38.4081 29.0339 38.9405 29.0339 39.4807 29.0417C39.8721 29.0495 40.1148 29.2686 40.1148 29.6128C40.1148 29.957 39.88 30.1917 39.4885 30.2073C39.1127 30.223 38.7526 30.2151 38.3612 30.2151Z" fill="#FFC800"/>
<path d="M34.251 31.3885C34.5955 31.3885 34.9165 31.3807 35.2375 31.3885C35.6054 31.3964 35.8481 31.6154 35.8638 31.9439C35.8716 32.2803 35.6289 32.5306 35.2531 32.5541C35.0887 32.5619 34.9243 32.5541 34.7521 32.5541C34.5877 32.5541 34.4233 32.5541 34.251 32.5541C34.251 32.9531 34.251 33.3207 34.251 33.7275C34.6112 33.7275 34.9635 33.7275 35.3079 33.7275C35.7463 33.7275 35.989 33.9465 35.989 34.3142C35.9812 34.6662 35.7385 34.8853 35.3236 34.8931C34.7991 34.9009 34.2667 34.9009 33.7422 34.8931C33.3038 34.8853 33.0689 34.6584 33.0689 34.2203C33.0611 32.7184 33.0611 31.2164 33.0689 29.7145C33.0689 29.2608 33.2881 29.0417 33.7343 29.0417C34.2745 29.0339 34.8069 29.0339 35.3471 29.0417C35.7463 29.0417 35.989 29.2608 35.9969 29.5971C36.0047 29.9492 35.762 30.1917 35.3549 30.2073C34.9948 30.2151 34.6347 30.2073 34.2589 30.2073C34.251 30.6063 34.251 30.9739 34.251 31.3885Z" fill="#FFC800"/>
<path d="M25.4515 30.2151C25.4515 30.5984 25.4515 30.9426 25.4515 31.3416C25.7568 31.3416 26.0699 31.3416 26.3753 31.3416C26.7902 31.3416 27.0642 31.5841 27.0564 31.9361C27.0485 32.2725 26.7824 32.5072 26.3753 32.515C26.0934 32.5228 25.8116 32.515 25.5298 32.5228C25.5141 32.5228 25.4906 32.5306 25.4358 32.5463C25.4358 33 25.4358 33.4615 25.4358 33.9231C25.4358 34.0561 25.4436 34.1969 25.4358 34.3299C25.4123 34.6506 25.1775 34.8853 24.8721 34.8931C24.5903 34.9009 24.332 34.6897 24.2772 34.3846C24.2615 34.3064 24.2693 34.2282 24.2693 34.1499C24.2693 32.6871 24.2693 31.2242 24.2693 29.7614C24.2693 29.2529 24.4729 29.0417 24.9739 29.0417C25.4906 29.0417 26.0073 29.0417 26.524 29.0417C26.9389 29.0417 27.1895 29.2608 27.1973 29.6128C27.2051 29.9726 26.9468 30.2073 26.5162 30.2151C26.1639 30.2151 25.8194 30.2151 25.4515 30.2151Z" fill="#FFC800"/>
<path d="M26.6101 22.502C26.6101 23.3859 26.6101 24.2229 26.6101 25.06C26.6101 25.5293 26.6101 25.9987 26.6101 26.4681C26.6101 26.9296 26.4066 27.1877 26.0308 27.1877C25.6628 27.1877 25.4358 26.9296 25.4358 26.4759C25.4358 25.2634 25.4358 24.0587 25.4358 22.8462C25.4358 22.7445 25.4358 22.6349 25.4358 22.502C25.2166 22.502 25.0365 22.5098 24.8565 22.502C24.5198 22.4863 24.2771 22.2438 24.2771 21.9309C24.2771 21.6336 24.5042 21.352 24.8251 21.352C25.6315 21.3364 26.4457 21.3364 27.2521 21.352C27.5887 21.3598 27.8001 21.6415 27.7844 21.97C27.7688 22.2829 27.5417 22.4941 27.2051 22.5098C27.0172 22.5098 26.8293 22.502 26.6101 22.502Z" fill="#FFC800"/>
<path d="M39.1597 25.9674C39.4337 25.9674 39.6764 25.9596 39.9191 25.9674C40.3262 25.9752 40.5845 26.2021 40.5845 26.5541C40.5845 26.8983 40.3262 27.133 39.9191 27.1408C39.4885 27.1486 39.0579 27.1486 38.6352 27.1408C38.2202 27.133 37.9932 26.9218 37.9932 26.5072C37.9854 25.013 37.9854 23.5267 37.9932 22.0326C37.9932 21.6336 38.2437 21.3755 38.596 21.3833C38.9405 21.3911 39.1597 21.6415 39.1675 22.0561C39.1675 23.2451 39.1675 24.4342 39.1675 25.6232C39.1597 25.7249 39.1597 25.8344 39.1597 25.9674Z" fill="#FFC800"/>
<path d="M35.3079 25.9674C35.5898 25.9674 35.8246 25.9596 36.0673 25.9674C36.4666 25.9752 36.7328 26.2177 36.7249 26.5619C36.7171 26.8905 36.4666 27.1252 36.083 27.133C35.6446 27.1408 35.2061 27.1408 34.7677 27.133C34.3606 27.1252 34.1414 26.9218 34.1414 26.515C34.1336 25.013 34.1336 23.5111 34.1414 22.0091C34.1414 21.6258 34.392 21.3755 34.7286 21.3833C35.0652 21.3833 35.3001 21.6336 35.3079 22.0248C35.3158 23.2138 35.3079 24.4029 35.3079 25.5919C35.3079 25.7093 35.3079 25.8266 35.3079 25.9674Z" fill="#FFC800"/>
<path d="M40.9134 19.6545C40.9212 19.9752 40.6707 20.2412 40.3575 20.249C40.0365 20.2647 39.7547 19.983 39.7547 19.6623C39.7547 19.3494 40.013 19.0913 40.334 19.0913C40.655 19.0913 40.9055 19.3338 40.9134 19.6545Z" fill="#FFC800"/>
</g>
<defs>
<clipPath id="clip0_3_91">
<rect width="30" height="30" fill="white" transform="translate(15 15)"/>
</clipPath>
</defs>
</svg>
