<svg width="60" height="60" viewBox="0 0 60 60" fill="none" xmlns="http://www.w3.org/2000/svg">
<rect width="60" height="60" fill="white"/>
<circle cx="30" cy="30" r="27.5" stroke="#26C9BF" stroke-opacity="0.1"/>
<path d="M28.5824 33.1503L28.4244 32.9371C28.3847 32.8834 28.3486 32.8313 28.3196 32.7894C28.3056 32.7691 28.2932 32.7512 28.2828 32.7366C28.2469 32.6862 28.2245 32.6599 28.2025 32.6411L28.1965 32.6359L28.1909 32.6303C27.1579 31.5914 26.1249 30.5584 25.086 29.5254L25.0856 29.525C24.8063 29.2456 24.4923 29.1989 24.194 29.3458L24.1929 29.3463L24.1929 29.3463C23.9031 29.4867 23.7509 29.7793 23.7989 30.1368C23.8248 30.3163 23.926 30.4533 24.0884 30.6158C24.7285 31.2529 25.3671 31.8914 26.0054 32.5298C26.6438 33.1682 27.282 33.8064 27.9217 34.4431C28.1907 34.7094 28.4036 34.8076 28.5875 34.8071C28.7715 34.8066 28.9847 34.7071 29.2539 34.4378C30.127 33.5648 31 32.6924 31.8728 31.8203C33.6177 30.0767 35.3616 28.334 37.103 26.5887L37.1032 26.5885C37.1163 26.5754 37.129 26.5628 37.1412 26.5507C37.2133 26.4791 37.2708 26.4221 37.3147 26.3583L37.315 26.3578C37.4848 26.1125 37.5021 25.857 37.3665 25.595L28.5824 33.1503ZM28.5824 33.1503L28.7439 32.9397C28.7943 32.8739 28.8329 32.8218 28.8648 32.7789C28.9263 32.6959 28.9623 32.6473 29.0084 32.6013C31.3684 30.2413 33.7285 27.8812 36.0886 25.5151M28.5824 33.1503L36.0886 25.5151M36.0886 25.5151C36.2948 25.309 36.4845 25.1949 36.7326 25.2038L36.7333 25.2038C37.0273 25.2133 37.2365 25.3443 37.3664 25.5949L36.0886 25.5151Z" fill="#26C9BF" stroke="white" stroke-width="0.4"/>
<circle cx="30" cy="30.012" r="14.4347" stroke="#26C9BF"/>
</svg>
