<svg width="50" height="50" viewBox="0 0 50 50" fill="none" xmlns="http://www.w3.org/2000/svg">
<g clip-path="url(#clip0_1846_499)">
<rect width="50" height="50" fill="white"/>
<circle cx="25" cy="25" r="25" fill="#FFF6E9"/>
<g clip-path="url(#clip1_1846_499)">
<path d="M23.9419 38.4996C23.383 38.446 22.8226 38.4073 22.2664 38.3368C20.7861 38.1508 19.3255 37.8873 18.0003 37.1644C17.6006 36.9448 17.2412 36.6589 16.9373 36.3189C16.403 35.7179 16.4255 34.976 16.9253 34.3461C17.3828 33.7684 18.0081 33.4182 18.6834 33.1836C19.4108 32.9313 20.1637 32.7517 20.9052 32.5403L21.0955 32.4895C20.9398 32.324 20.8086 32.1873 20.6804 32.0478C19.0379 30.2673 17.6218 28.3333 16.642 26.1033C15.8976 24.4123 15.4725 22.6509 15.5014 20.7901C15.5649 16.7036 18.3739 13.0271 22.3066 11.885C23.53 11.5239 24.8137 11.413 26.081 11.5588C27.3482 11.7046 28.5731 12.1042 29.6825 12.7337C30.7918 13.3631 31.7629 14.2096 32.5377 15.2225C33.3125 16.2355 33.8751 17.3941 34.192 18.6292C34.7425 20.7387 34.5148 22.8122 33.8346 24.8513C33.0592 27.1679 31.7607 29.1802 30.2029 31.0381C29.8505 31.4609 29.467 31.8653 29.0983 32.2782C29.0419 32.3416 28.9877 32.4064 28.9235 32.4797C29.4874 32.6269 30.0337 32.7517 30.568 32.9123C31.3632 33.1518 32.1301 33.4605 32.761 34.0213C33.2791 34.4814 33.5794 35.0359 33.375 35.7531C33.2544 36.1759 32.976 36.4908 32.6369 36.7557C31.9165 37.3194 31.077 37.6252 30.2093 37.8647C28.9526 38.2023 27.6626 38.4003 26.3626 38.4552C26.259 38.4601 26.1561 38.4841 26.0524 38.4989L23.9419 38.4996ZM16.5376 21.0423C16.5672 21.4277 16.582 21.8174 16.6293 22.1978C16.8506 23.9938 17.4878 25.6502 18.3845 27.2067C20.0283 30.0686 22.2741 32.3972 24.8301 34.449C24.9789 34.568 25.0642 34.5251 25.1875 34.4271C26.3338 33.522 27.411 32.5329 28.4103 31.4679C30.0506 29.7213 31.4555 27.8098 32.4135 25.5988C33.1931 23.7979 33.6175 21.9259 33.3736 19.9538C32.7688 15.0647 28.11 11.7286 23.2934 12.7192C19.3664 13.5294 16.5412 17.0178 16.5376 21.0423ZM23.2342 34.5159C22.8613 34.177 22.4898 33.8311 22.1064 33.4978C22.0353 33.451 21.9491 33.4331 21.8653 33.4478C20.901 33.5964 19.9402 33.7761 19.0457 34.177C18.6307 34.3629 18.2395 34.5978 17.8805 34.8766C17.5076 35.1683 17.5125 35.4755 17.8628 35.7848C18.1153 36.0037 18.3946 36.1895 18.6939 36.3379C19.5116 36.7543 20.4012 36.9657 21.3021 37.1278C23.5656 37.5244 25.8782 37.5555 28.1516 37.2201C29.2393 37.0636 30.3171 36.8354 31.3075 36.3351C31.6266 36.1711 31.9221 35.9647 32.1858 35.7214C32.4678 35.4636 32.4678 35.2036 32.1823 34.9464C31.9099 34.6998 31.606 34.4904 31.2786 34.3236C30.2776 33.8254 29.1914 33.6084 28.0945 33.4428C28.0272 33.4309 27.9578 33.4453 27.9007 33.483C27.5151 33.8233 27.1366 34.1721 26.7418 34.5314C26.849 34.58 26.9385 34.6145 27.0238 34.6603C27.3058 34.8118 27.6223 34.9584 27.6258 35.3269C27.6258 35.7102 27.3029 35.8631 27.0118 36.0117C26.87 36.0811 26.7217 36.1366 26.5691 36.1773C25.7202 36.4147 24.8285 36.4566 23.961 36.2999C23.4816 36.2182 23.0115 36.1012 22.6217 35.7863C22.2692 35.5009 22.2692 35.1627 22.6217 34.8837C22.807 34.7407 23.0249 34.6406 23.2349 34.5159H23.2342Z" fill="#FFA113"/>
<path d="M32.3839 20.9808C32.3826 22.9368 31.6064 24.8126 30.225 26.1981C28.8436 27.5836 26.9696 28.3659 25.0127 28.3739C23.0514 28.3739 21.1703 27.5958 19.7825 26.2105C18.3947 24.8253 17.6138 22.9461 17.6112 20.9857C17.6112 16.921 20.9242 13.6081 24.9951 13.6067C26.9517 13.61 28.8274 14.3877 30.2121 15.7695C31.5967 17.1514 32.3775 19.025 32.3839 20.9808ZM26.8856 22.6224C27.4256 22.9803 28.0015 23.2798 28.473 23.6976C28.9446 24.1154 29.3253 24.6608 29.7419 25.1462C31.7642 23.0043 32.0328 19.1327 29.5001 16.5504C28.9096 15.9476 28.2041 15.4695 27.4253 15.1442C26.6466 14.819 25.8104 14.6532 24.9664 14.6568C24.1224 14.6604 23.2877 14.8333 22.5118 15.1652C21.7358 15.4972 21.0344 15.9814 20.4491 16.5892C17.9467 19.1728 18.2392 23.0261 20.2447 25.142C20.662 24.6572 21.037 24.1175 21.5135 23.6948C21.99 23.272 22.5709 22.9726 23.0989 22.6217C21.971 21.4113 22.2318 19.8126 23.1193 18.922C23.5782 18.4588 24.1928 18.1824 24.844 18.1463C25.4952 18.1103 26.1365 18.3171 26.6438 18.7268C26.9103 18.9374 27.1325 19.1987 27.2974 19.4956C27.4623 19.7925 27.5667 20.1191 27.6046 20.4566C27.7167 21.314 27.4291 22.044 26.8884 22.6224H26.8856ZM21.1378 25.9706C23.2398 27.7553 26.7192 27.7729 28.8509 25.9706C28.3892 24.5523 26.6854 23.4193 25.0084 23.4137C23.3315 23.408 21.6115 24.5417 21.1406 25.9706H21.1378ZM26.5761 20.7884C26.5775 20.3705 26.4137 19.969 26.1204 19.6712C25.827 19.3734 25.4279 19.2034 25.0099 19.1982C24.5927 19.1961 24.1914 19.3585 23.8932 19.6501C23.595 19.9417 23.4238 20.3391 23.4168 20.756C23.4143 20.9652 23.4534 21.1727 23.5315 21.3668C23.6097 21.5608 23.7255 21.7375 23.8723 21.8866C24.019 22.0357 24.1938 22.1543 24.3867 22.2356C24.5795 22.3169 24.7865 22.3593 24.9958 22.3603C25.4135 22.3592 25.8139 22.1936 26.1103 21.8993C26.4067 21.6051 26.5751 21.2059 26.579 20.7884H26.5761Z" fill="#FFA113"/>
</g>
</g>
<defs>
<clipPath id="clip0_1846_499">
<rect width="50" height="50" fill="white"/>
</clipPath>
<clipPath id="clip1_1846_499">
<rect width="19" height="27" fill="white" transform="translate(15.5 11.5)"/>
</clipPath>
</defs>
</svg>
