<svg width="60" height="60" viewBox="0 0 60 60" fill="none" xmlns="http://www.w3.org/2000/svg">
<rect width="60" height="60" fill="white"/>
<g clip-path="url(#clip0_2_52)">
<path d="M47 28.8802C46.8884 29.5456 46.8162 30.2175 46.6718 30.8763C45.5166 36.0146 41.3487 39.9672 36.1568 40.8038C35.0935 40.9751 33.9973 40.9553 32.9143 41.0014C32.6911 41.008 32.5664 41.0673 32.4614 41.2781C31.9823 42.2663 31.4769 43.2412 31.0043 44.2294C30.7942 44.6708 30.5186 45.0067 29.9869 45.0001C29.4618 44.9935 29.1927 44.651 28.9827 44.2162C28.5035 43.2281 28.0047 42.2531 27.5255 41.265C27.4271 41.0673 27.3155 40.9949 27.0989 41.0014C25.4908 41.0476 23.8827 40.9751 22.3402 40.4679C17.3452 38.8341 14.1815 35.4613 13.2232 30.2702C12.1467 24.4534 15.0282 18.9659 20.312 16.3308C21.9989 15.4876 23.7973 15.0397 25.6811 15.0199C28.5232 14.9935 31.3718 14.9804 34.2139 15.0199C40.4429 15.0989 45.7529 19.6773 46.8097 25.8368C46.8819 26.2715 46.941 26.7129 47 27.1477C47 27.7208 47 28.3005 47 28.8802ZM30 41.7722C30.361 41.041 30.6958 40.4086 30.9977 39.7564C31.2406 39.2294 31.6213 39.012 32.1989 39.0054C33.3935 38.9922 34.6012 39.0318 35.7761 38.8539C41.5653 37.958 45.602 32.5693 44.9325 26.7261C44.3155 21.3308 39.6684 17.0884 34.2664 17.0225C31.4244 16.9896 28.5757 17.0094 25.7336 17.0225C24.6637 17.0291 23.6201 17.2202 22.6093 17.5561C17.3058 19.315 14.2209 24.5061 15.1792 30.0265C15.9012 34.1767 19.2749 37.7274 23.3641 38.6892C24.7753 39.0186 26.1931 39.0383 27.6174 38.9988C28.3328 38.979 28.7857 39.2294 29.068 39.8947C29.3305 40.5074 29.6587 41.1003 30 41.7722Z" fill="#668BFF"/>
<path d="M27.0069 28.0435C27.0069 29.9737 27.0004 31.9104 27.0135 33.8406C27.0135 34.3281 26.8625 34.7233 26.4031 34.921C25.9239 35.1318 25.5301 34.9473 25.1822 34.5916C24.0664 33.4651 22.944 32.3452 21.8347 31.2187C21.6838 31.0606 21.5262 31.0013 21.3162 31.0079C20.266 31.0145 19.2158 31.0145 18.1656 31.0145C17.4568 31.0145 17.0564 30.6061 17.0564 29.8946C17.0564 28.643 17.0564 27.3847 17.0564 26.1331C17.0564 25.4216 17.4568 25.0198 18.1656 25.0198C19.229 25.0198 20.2923 25.0264 21.349 25.0132C21.5066 25.0132 21.6903 24.9341 21.8019 24.8221C22.9506 23.6825 24.0927 22.5362 25.2347 21.39C25.6351 20.9947 26.0749 20.9091 26.495 21.1528C26.8691 21.3636 27.0135 21.7062 27.0135 22.1278C27.0069 24.0909 27.0069 26.0672 27.0069 28.0435ZM24.9985 24.4466C24.3355 25.1186 23.712 25.7378 23.095 26.3702C23.0359 26.4295 23.0293 26.5547 23.0293 26.6469C23.0228 27.556 23.0228 28.4651 23.0359 29.3742C23.0359 29.4993 23.1015 29.6574 23.1934 29.7431C23.7317 30.303 24.283 30.8498 24.8344 31.3966C24.8803 31.4427 24.9459 31.4756 25.0116 31.5217C24.9984 29.17 24.9985 26.8445 24.9985 24.4466ZM19.0649 27.029C19.0649 27.7009 19.0649 28.3531 19.0649 28.9855C19.7344 28.9855 20.3776 28.9855 21.0143 28.9855C21.0143 28.3202 21.0143 27.6812 21.0143 27.029C20.3579 27.029 19.7212 27.029 19.0649 27.029Z" fill="#668BFF"/>
<path d="M34.9753 28.0105C34.9753 29.2951 34.9753 30.5863 34.9753 31.8709C34.9753 32.5494 34.5815 33.004 33.9907 33.0105C33.3869 33.0171 32.9865 32.556 32.9865 31.8577C32.9865 29.2754 32.9865 26.6864 32.9865 24.1041C32.9865 23.3136 33.656 22.8195 34.3452 23.083C34.7456 23.2411 34.9818 23.5968 34.9818 24.0777C34.9818 25.3887 34.9753 26.6996 34.9753 28.0105Z" fill="#668BFF"/>
<path d="M38.9595 28.0435C38.9595 29.3215 38.9595 30.5929 38.9595 31.8709C38.9595 32.5494 38.5591 33.004 37.9684 33.004C37.3776 33.0105 36.9707 32.5494 36.9641 31.8775C36.9641 29.2951 36.9641 26.7062 36.9641 24.1239C36.9641 23.4519 37.3776 22.9974 37.9684 23.004C38.546 23.0105 38.9529 23.4585 38.9529 24.1107C38.966 25.4282 38.9595 26.7391 38.9595 28.0435Z" fill="#668BFF"/>
<path d="M30.9911 28.0435C30.9911 28.6759 30.9977 29.3083 30.9911 29.9407C30.9846 30.56 30.5711 31.0079 30 31.0079C29.429 31.0145 29.0023 30.5665 28.9958 29.9539C28.9892 28.6561 28.9892 27.3584 28.9958 26.0606C28.9958 25.448 29.429 25.0066 30 25.0066C30.5579 25.0132 30.978 25.448 30.9846 26.0408C30.9977 26.7128 30.9911 27.3781 30.9911 28.0435Z" fill="#668BFF"/>
<path d="M42.9502 28.0237C42.9502 28.6561 42.9502 29.2885 42.9502 29.9209C42.9436 30.5599 42.5301 31.0145 41.9525 31.0079C41.3749 31.0079 40.9614 30.5534 40.9614 29.9078C40.9614 28.643 40.9614 27.3781 40.9614 26.1133C40.9614 25.4677 41.3683 25.0132 41.946 25.0066C42.5367 25 42.9502 25.4545 42.9502 26.1199C42.9502 26.7589 42.9502 27.3913 42.9502 28.0237Z" fill="#668BFF"/>
</g>
<circle cx="30" cy="30" r="28" fill="#668BFF" fill-opacity="0.1"/>
<defs>
<clipPath id="clip0_2_52">
<rect width="34" height="30" fill="white" transform="translate(13 15)"/>
</clipPath>
</defs>
</svg>
