<svg width="25" height="25" viewBox="0 0 25 25" fill="none" xmlns="http://www.w3.org/2000/svg">
<circle cx="12.0051" cy="12.4842" r="11.5" stroke="#9D9B9B"/>
<path d="M14.8495 13.3071L14.8517 13.3071C15.0074 13.3071 15.1567 13.3354 15.299 13.3924C15.4424 13.4497 15.5709 13.5356 15.6841 13.6489L16.7583 14.7231C16.8686 14.8334 16.9528 14.9603 17.01 15.1033C17.0667 15.2452 17.0966 15.3954 17.1001 15.5533L17.1001 15.5555C17.1001 15.7112 17.0718 15.8605 17.0148 16.0028C16.9575 16.1462 16.8716 16.2747 16.7583 16.3879L16.69 16.4563C16.5136 16.6327 16.3516 16.7898 16.2041 16.9274C16.0525 17.069 15.8933 17.1876 15.7265 17.283C15.5588 17.3788 15.3732 17.4535 15.1704 17.5076C14.9641 17.5626 14.722 17.5875 14.4458 17.5842M14.8495 13.3071L14.4464 17.4842M14.8495 13.3071C14.6905 13.3106 14.5488 13.3365 14.4269 13.3883C14.3109 13.4375 14.2023 13.5024 14.1011 13.5826C14.0019 13.6613 13.9141 13.7456 13.8378 13.8356C13.7683 13.9178 13.6975 13.9933 13.6253 14.0623C13.5537 14.1309 13.4847 14.1875 13.4184 14.2327C13.363 14.2705 13.3044 14.2885 13.2404 14.2885C13.1433 14.2885 13.0629 14.2552 12.9937 14.186L10.3033 11.4955C10.2344 11.4267 10.2011 11.3469 10.2007 11.2506M14.8495 13.3071L14.8517 13.4071M14.4458 17.5842C14.4456 17.5842 14.4454 17.5842 14.4452 17.5842L14.4464 17.4842M14.4458 17.5842C14.446 17.5842 14.4462 17.5842 14.4464 17.5842V17.4842M14.4458 17.5842C14.0286 17.5842 13.601 17.519 13.1632 17.3897C12.7267 17.2607 12.294 17.0823 11.8653 16.8548C11.4372 16.6275 11.0161 16.3577 10.602 16.0455C10.188 15.7334 9.79869 15.3933 9.43398 15.0253C9.06948 14.6575 8.73125 14.2668 8.4193 13.853C8.1069 13.4387 7.84013 13.0172 7.61924 12.5886C7.39849 12.1603 7.22356 11.7297 7.09471 11.2969C6.96533 10.8623 6.9017 10.4424 6.905 10.0375C6.90503 9.76237 6.9282 9.5232 6.97607 9.32149C7.02381 9.12027 7.09742 8.93501 7.19727 8.7663C7.29553 8.60026 7.41387 8.44316 7.55196 8.29496C7.68642 8.15066 7.84352 7.98866 8.02316 7.80902L8.10129 7.73089C8.21118 7.621 8.33745 7.5356 8.47956 7.4752C8.62258 7.41441 8.77428 7.38422 8.93372 7.38422C9.09022 7.38422 9.24025 7.41453 9.38299 7.4752C9.52479 7.53546 9.65225 7.62054 9.76501 7.72978L9.76615 7.73089L9.76615 7.73089L10.8404 8.80511C10.9507 8.91543 11.0348 9.04236 11.092 9.18536C11.1487 9.32719 11.1786 9.47741 11.1821 9.63532L11.1822 9.63754C11.1822 9.79215 11.1558 9.93325 11.1004 10.0588C11.0485 10.1764 10.9843 10.2857 10.9079 10.3865C10.8322 10.4863 10.7491 10.5747 10.6585 10.6514C10.5758 10.7213 10.4981 10.7927 10.4253 10.8655C10.3539 10.937 10.2982 11.0035 10.2572 11.0651C10.2232 11.116 10.2036 11.1767 10.2007 11.2506M14.4464 17.4842C14.0395 17.4842 13.6212 17.4207 13.1915 17.2938C12.7618 17.1668 12.3354 16.9911 11.9122 16.7664C11.4891 16.5418 11.0724 16.2749 10.6622 15.9657C10.2521 15.6564 9.86633 15.3195 9.50501 14.9549C9.14368 14.5903 8.80839 14.203 8.49915 13.7928C8.1899 13.3827 7.92623 12.966 7.70813 12.5428C7.49003 12.1196 7.3175 11.6948 7.19055 11.2684C7.0636 10.842 7.00175 10.4318 7.005 10.0379C7.005 9.76775 7.02779 9.53663 7.07336 9.34457C7.11894 9.15252 7.18892 8.97674 7.28333 8.81723C7.37773 8.65772 7.49166 8.50636 7.62512 8.36313C7.75859 8.2199 7.91484 8.05877 8.09387 7.87973L8.172 7.80161C8.27291 7.70069 8.38847 7.62257 8.51868 7.56723C8.64889 7.51189 8.78723 7.48422 8.93372 7.48422C9.07695 7.48422 9.21366 7.51189 9.34387 7.56723C9.47408 7.62257 9.59127 7.70069 9.69544 7.80161L10.7697 8.87582C10.8706 8.97674 10.9471 9.0923 10.9991 9.2225C11.0512 9.35271 11.0789 9.49106 11.0822 9.63754C11.0822 9.78077 11.0577 9.90773 11.0089 10.0184C10.9601 10.1291 10.8999 10.2316 10.8282 10.326C10.7566 10.4204 10.6785 10.5034 10.5939 10.575C10.5092 10.6467 10.4295 10.7199 10.3546 10.7948C10.2797 10.8696 10.2195 10.9413 10.174 11.0096C10.1284 11.078 10.104 11.1577 10.1007 11.2489M10.2007 11.2506C10.2007 11.2501 10.2007 11.2495 10.2007 11.2489H10.1007M10.2007 11.2506C10.2007 11.2512 10.2007 11.2518 10.2006 11.2524L10.1007 11.2489M10.1007 11.2489C10.1007 11.3726 10.1447 11.4784 10.2325 11.5663L12.923 14.2567C13.0109 14.3446 13.1167 14.3885 13.2404 14.3885C13.325 14.3885 13.4031 14.3641 13.4747 14.3153C13.5463 14.2664 13.6196 14.2062 13.6945 14.1346C13.7693 14.063 13.8426 13.9849 13.9142 13.9002C13.9858 13.8156 14.0688 13.7358 14.1632 13.661C14.2576 13.5861 14.3585 13.5259 14.4659 13.4803C14.5734 13.4347 14.7019 13.4103 14.8517 13.4071M14.8517 13.4071C14.9949 13.4071 15.1316 13.4331 15.2618 13.4852C15.392 13.5373 15.5092 13.6154 15.6134 13.7196L16.6876 14.7938C16.7885 14.8947 16.865 15.0103 16.9171 15.1405C16.9692 15.2707 16.9969 15.409 17.0001 15.5555L14.8517 13.4071ZM13.2404 15.1135L13.2425 15.1135C13.4015 15.11 13.5433 15.084 13.6652 15.0323C13.7811 14.9831 13.8898 14.9182 13.991 14.838C14.0897 14.7597 14.1786 14.6759 14.2576 14.5866C14.3313 14.5033 14.4032 14.4267 14.4732 14.3567C14.5411 14.2888 14.608 14.2327 14.6736 14.1879C14.7291 14.1501 14.7877 14.1321 14.8517 14.1321C14.9528 14.1321 15.0345 14.1659 15.1032 14.2346C15.1535 14.2849 15.215 14.343 15.2873 14.4088C15.3586 14.4736 15.4413 14.5498 15.5355 14.6375C15.6291 14.7246 15.7193 14.8117 15.8064 14.8987C15.8925 14.9848 15.9738 15.0725 16.0502 15.1616C16.1256 15.2496 16.1835 15.3293 16.2253 15.4008C16.2664 15.4713 16.28 15.5217 16.28 15.5555C16.28 15.6524 16.2468 15.7327 16.1778 15.8019C16.0178 15.9586 15.8787 16.0993 15.7605 16.224C15.6482 16.3426 15.5305 16.4415 15.4075 16.5215C15.2864 16.6002 15.1528 16.6595 15.0062 16.6992C14.8614 16.7384 14.6757 16.7592 14.4468 16.7592C14.1026 16.756 13.7443 16.6991 13.3716 16.5876C12.9978 16.4758 12.62 16.3174 12.2379 16.112C11.8552 15.9061 11.4785 15.6647 11.1079 15.3875C10.7374 15.1105 10.3846 14.8044 10.0493 14.4692C9.71388 14.1337 9.40429 13.7806 9.12055 13.4098C8.83699 13.0392 8.59081 12.6626 8.38183 12.28C8.17324 11.8982 8.01164 11.5171 7.89662 11.1369C7.78204 10.7582 7.7252 10.3922 7.72512 10.0386C7.72834 9.80955 7.75065 9.62345 7.79 9.47814C7.82949 9.33235 7.88992 9.20125 7.97101 9.08411C8.05516 8.96257 8.15538 8.84344 8.272 8.72681L8.68704 8.31177C8.75506 8.24375 8.83385 8.21041 8.9286 8.20925C8.97527 8.21476 9.03029 8.23325 9.09447 8.26952C9.16198 8.30768 9.23962 8.36363 9.32762 8.43905C9.41669 8.5154 9.50596 8.59828 9.59543 8.68775C9.68573 8.77805 9.77276 8.86831 9.85653 8.95852C9.94102 9.0495 10.0173 9.1323 10.0855 9.20692C10.1542 9.28226 10.2107 9.34212 10.2546 9.38599C10.3229 9.45428 10.3568 9.53551 10.3572 9.63576C10.3542 9.70969 10.3347 9.76789 10.302 9.81457C10.2602 9.87429 10.2036 9.94192 10.131 10.0176C10.0586 10.0931 9.98144 10.1656 9.8994 10.235C9.8088 10.3117 9.72569 10.4001 9.64995 10.5C9.57352 10.6007 9.50937 10.71 9.45746 10.8276C9.40208 10.9532 9.37571 11.0943 9.37568 11.2489L9.37573 11.2511C9.37924 11.409 9.40914 11.5592 9.46587 11.701C9.52307 11.8441 9.60718 11.971 9.7175 12.0813L12.4079 14.7717C12.5212 14.885 12.6496 14.9709 12.7931 15.0282C12.9353 15.0852 13.0847 15.1135 13.2404 15.1135Z" fill="#9D9B9B" stroke="#9D9B9B" stroke-width="0.2"/>
</svg>
