<svg width="37" height="37" viewBox="0 0 37 37" fill="none" xmlns="http://www.w3.org/2000/svg">
<circle cx="18.1553" cy="18.4843" r="17.5" stroke="#F2994A"/>
<path d="M27.1411 13.0293C26.9573 12.7225 26.694 12.4669 26.377 12.2873C26.06 12.1078 25.7 12.0104 25.3323 12.0047H11.7128L11.0957 9.68905C11.0333 9.46552 10.8942 9.2689 10.701 9.13122C10.5078 8.99354 10.2719 8.92291 10.0317 8.93084H7.90362C7.62142 8.93084 7.35079 9.03879 7.15124 9.23094C6.9517 9.42309 6.8396 9.68371 6.8396 9.95545C6.8396 10.2272 6.9517 10.4878 7.15124 10.68C7.35079 10.8721 7.62142 10.9801 7.90362 10.9801H9.22301L12.1597 21.4926C12.2221 21.7161 12.3612 21.9127 12.5544 22.0504C12.7476 22.1881 12.9835 22.2587 13.2237 22.2508H22.7999C22.9964 22.2502 23.1889 22.1973 23.356 22.0978C23.5232 21.9983 23.6585 21.8562 23.7469 21.6873L27.2369 14.9658C27.3881 14.6605 27.4586 14.3239 27.4419 13.986C27.4251 13.648 27.3218 13.3194 27.1411 13.0293Z" fill="#F2994A"/>
<path d="M12.6919 27.3739C13.5733 27.3739 14.2879 26.6858 14.2879 25.837C14.2879 24.9882 13.5733 24.3 12.6919 24.3C11.8104 24.3 11.0958 24.9882 11.0958 25.837C11.0958 26.6858 11.8104 27.3739 12.6919 27.3739Z" fill="#F2994A"/>
<path d="M23.332 27.3739C24.2135 27.3739 24.928 26.6858 24.928 25.837C24.928 24.9882 24.2135 24.3 23.332 24.3C22.4505 24.3 21.736 24.9882 21.736 25.837C21.736 26.6858 22.4505 27.3739 23.332 27.3739Z" fill="#F2994A"/>
</svg>
