<svg width="37" height="37" viewBox="0 0 37 37" fill="none" xmlns="http://www.w3.org/2000/svg">
<circle cx="18.933" cy="18.4843" r="17.5" stroke="#F2994A"/>
<path d="M28.2914 14.5368C27.8105 13.3914 27.1109 12.3504 26.2315 11.4717C25.3548 10.5914 24.3133 9.89153 23.1663 9.41181C21.9913 8.91798 20.7287 8.66485 19.4537 8.66744H19.4109C18.1141 8.67386 16.8601 8.93053 15.679 9.43534C14.5418 9.91998 13.5102 10.6211 12.6417 11.4995C11.7708 12.3762 11.0792 13.4136 10.6053 14.5539C10.1134 15.7397 9.86419 17.0117 9.87226 18.295C9.87869 19.7795 10.2345 21.2532 10.899 22.5709V25.8221C10.899 26.3654 11.3406 26.8061 11.8829 26.8061H15.1367C16.4633 27.474 17.9272 27.8255 19.413 27.8328H19.458C20.7399 27.8328 21.9809 27.5847 23.1513 27.0991C24.2925 26.6251 25.3301 25.9334 26.2058 25.0628C27.0889 24.1879 27.7834 23.1655 28.27 22.0254C28.7737 20.8447 29.0309 19.5891 29.0374 18.2929C29.0417 16.9902 28.7887 15.7261 28.2914 14.5368ZM15.1753 19.2768C14.6094 19.2768 14.1486 18.8169 14.1486 18.2501C14.1486 17.6833 14.6094 17.2234 15.1753 17.2234C15.7412 17.2234 16.202 17.6833 16.202 18.2501C16.202 18.8169 15.7433 19.2768 15.1753 19.2768ZM19.4537 19.2768C18.8879 19.2768 18.427 18.8169 18.427 18.2501C18.427 17.6833 18.8879 17.2234 19.4537 17.2234C20.0196 17.2234 20.4805 17.6833 20.4805 18.2501C20.4805 18.8169 20.0196 19.2768 19.4537 19.2768ZM23.7322 19.2768C23.1663 19.2768 22.7054 18.8169 22.7054 18.2501C22.7054 17.6833 23.1663 17.2234 23.7322 17.2234C24.2981 17.2234 24.7589 17.6833 24.7589 18.2501C24.7589 18.8169 24.2981 19.2768 23.7322 19.2768Z" fill="#F2994A"/>
</svg>
