<svg width="37" height="37" viewBox="0 0 37 37" fill="none" xmlns="http://www.w3.org/2000/svg">
<circle cx="18.2502" cy="18.4843" r="17.5" stroke="#F2994A"/>
<path d="M16.8294 11.5713H20.2115C20.2115 11.1092 20.0334 10.666 19.7162 10.3393C19.3991 10.0125 18.969 9.82896 18.5205 9.82896C18.072 9.82896 17.6418 10.0125 17.3247 10.3393C17.0076 10.666 16.8294 11.1092 16.8294 11.5713ZM15.702 11.5713C15.702 10.8011 15.999 10.0625 16.5275 9.51794C17.0561 8.97336 17.773 8.66742 18.5205 8.66742C19.268 8.66742 19.9848 8.97336 20.5134 9.51794C21.0419 10.0625 21.3389 10.8011 21.3389 11.5713H26.9758C27.1253 11.5713 27.2686 11.6324 27.3743 11.7414C27.4801 11.8503 27.5394 11.998 27.5394 12.152C27.5394 12.3061 27.4801 12.4538 27.3743 12.5627C27.2686 12.6716 27.1253 12.7328 26.9758 12.7328H25.7875L24.4414 24.7477C24.3463 25.597 23.9514 26.3807 23.3319 26.9495C22.7125 27.5184 21.9116 27.8327 21.0819 27.8328H15.9591C15.1293 27.8327 14.3284 27.5184 13.709 26.9495C13.0895 26.3807 12.6946 25.597 12.5995 24.7477L11.2534 12.7328H10.0652C9.91565 12.7328 9.77228 12.6716 9.66657 12.5627C9.56085 12.4538 9.50146 12.3061 9.50146 12.152C9.50146 11.998 9.56085 11.8503 9.66657 11.7414C9.77228 11.6324 9.91565 11.5713 10.0652 11.5713H15.702ZM17.3931 16.2174C17.3931 16.0634 17.3337 15.9157 17.228 15.8067C17.1223 15.6978 16.9789 15.6366 16.8294 15.6366C16.6799 15.6366 16.5365 15.6978 16.4308 15.8067C16.3251 15.9157 16.2657 16.0634 16.2657 16.2174V23.1866C16.2657 23.3407 16.3251 23.4884 16.4308 23.5973C16.5365 23.7062 16.6799 23.7674 16.8294 23.7674C16.9789 23.7674 17.1223 23.7062 17.228 23.5973C17.3337 23.4884 17.3931 23.3407 17.3931 23.1866V16.2174ZM20.2115 15.6366C20.062 15.6366 19.9186 15.6978 19.8129 15.8067C19.7072 15.9157 19.6478 16.0634 19.6478 16.2174V23.1866C19.6478 23.3407 19.7072 23.4884 19.8129 23.5973C19.9186 23.7062 20.062 23.7674 20.2115 23.7674C20.361 23.7674 20.5044 23.7062 20.6101 23.5973C20.7158 23.4884 20.7752 23.3407 20.7752 23.1866V16.2174C20.7752 16.0634 20.7158 15.9157 20.6101 15.8067C20.5044 15.6978 20.361 15.6366 20.2115 15.6366Z" fill="#F2994A"/>
</svg>
