<svg width="25" height="25" viewBox="0 0 25 25" fill="none" xmlns="http://www.w3.org/2000/svg">
<circle cx="12.6089" cy="12.1009" r="11.5" stroke="#E37C7C"/>
<path d="M11.6617 7.49223H13.9164C13.9164 7.18417 13.7976 6.88873 13.5862 6.6709C13.3748 6.45307 13.088 6.33069 12.789 6.33069C12.49 6.33069 12.2033 6.45307 11.9919 6.6709C11.7804 6.88873 11.6617 7.18417 11.6617 7.49223ZM10.9101 7.49223C10.9101 6.9788 11.108 6.4864 11.4604 6.12335C11.8128 5.7603 12.2907 5.55634 12.789 5.55634C13.2874 5.55634 13.7653 5.7603 14.1177 6.12335C14.47 6.4864 14.668 6.9788 14.668 7.49223H18.4259C18.5256 7.49223 18.6211 7.53302 18.6916 7.60563C18.7621 7.67824 18.8017 7.77672 18.8017 7.87941C18.8017 7.9821 18.7621 8.08058 18.6916 8.15319C18.6211 8.2258 18.5256 8.26659 18.4259 8.26659H17.6337L16.7363 16.2765C16.6729 16.8427 16.4097 17.3652 15.9967 17.7444C15.5837 18.1236 15.0498 18.3332 14.4966 18.3332H11.0814C10.5282 18.3332 9.99435 18.1236 9.58138 17.7444C9.1684 17.3652 8.90515 16.8427 8.84172 16.2765L7.94433 8.26659H7.15216C7.05249 8.26659 6.95691 8.2258 6.88643 8.15319C6.81596 8.08058 6.77637 7.9821 6.77637 7.87941C6.77637 7.77672 6.81596 7.67824 6.88643 7.60563C6.95691 7.53302 7.05249 7.49223 7.15216 7.49223H10.9101ZM12.0374 10.5897C12.0374 10.487 11.9979 10.3885 11.9274 10.3159C11.8569 10.2433 11.7613 10.2025 11.6617 10.2025C11.562 10.2025 11.4664 10.2433 11.3959 10.3159C11.3255 10.3885 11.2859 10.487 11.2859 10.5897V15.2358C11.2859 15.3385 11.3255 15.437 11.3959 15.5096C11.4664 15.5822 11.562 15.623 11.6617 15.623C11.7613 15.623 11.8569 15.5822 11.9274 15.5096C11.9979 15.437 12.0374 15.3385 12.0374 15.2358V10.5897ZM13.9164 10.2025C13.8167 10.2025 13.7212 10.2433 13.6507 10.3159C13.5802 10.3885 13.5406 10.487 13.5406 10.5897V15.2358C13.5406 15.3385 13.5802 15.437 13.6507 15.5096C13.7212 15.5822 13.8167 15.623 13.9164 15.623C14.0161 15.623 14.1117 15.5822 14.1821 15.5096C14.2526 15.437 14.2922 15.3385 14.2922 15.2358V10.5897C14.2922 10.487 14.2526 10.3885 14.1821 10.3159C14.1117 10.2433 14.0161 10.2025 13.9164 10.2025Z" fill="#ED6969"/>
</svg>
