<svg width="25" height="25" viewBox="0 0 25 25" fill="none" xmlns="http://www.w3.org/2000/svg">
<circle cx="12.3311" cy="12.0864" r="11.5" stroke="#A5A5A5"/>
<path d="M12.6606 8.81879H12.003C11.9428 8.81879 11.8936 8.86801 11.8936 8.92816V12.692C11.8936 12.7276 11.91 12.7604 11.9387 12.7809L14.1987 14.4311C14.2479 14.4666 14.3163 14.4571 14.3518 14.4079L14.7428 13.8746C14.7797 13.8241 14.7688 13.7557 14.7196 13.7215L12.77 12.312V8.92816C12.77 8.86801 12.7208 8.81879 12.6606 8.81879ZM15.6657 9.84691L17.8094 10.3705C17.8778 10.387 17.9448 10.335 17.9448 10.2653L17.9557 8.05726C17.9557 7.96566 17.8505 7.91371 17.7794 7.97113L15.6247 9.65414C15.6084 9.66674 15.596 9.68368 15.5889 9.70301C15.5818 9.72234 15.5803 9.74327 15.5846 9.76341C15.5889 9.78355 15.5988 9.80207 15.6131 9.81684C15.6275 9.83161 15.6457 9.84204 15.6657 9.84691ZM17.9585 13.9635L17.1833 13.6969C17.1562 13.6876 17.1267 13.6893 17.1009 13.7016C17.075 13.7139 17.0551 13.7357 17.0452 13.7625C17.0192 13.8323 16.9919 13.9006 16.9631 13.969C16.7198 14.5446 16.3712 15.0627 15.9255 15.5071C15.4847 15.9492 14.9624 16.3016 14.3874 16.5448C13.7917 16.7966 13.1514 16.9259 12.5047 16.9248C11.8512 16.9248 11.2182 16.7977 10.6221 16.5448C10.0471 16.3016 9.5248 15.9492 9.08404 15.5071C8.63971 15.0627 8.29108 14.5446 8.04635 13.969C7.7959 13.373 7.66759 12.7328 7.669 12.0864C7.669 11.4329 7.79615 10.7985 8.04908 10.2024C8.29244 9.6268 8.64108 9.10863 9.08678 8.6643C9.52753 8.22217 10.0499 7.86976 10.6249 7.6266C11.2182 7.37367 11.8526 7.24652 12.5061 7.24652C13.1596 7.24652 13.7926 7.37367 14.3887 7.6266C14.9637 7.86976 15.4861 8.22217 15.9268 8.6643C16.0663 8.80512 16.1975 8.95141 16.3178 9.1059L17.1354 8.46605C16.0594 7.09066 14.3846 6.20609 12.5034 6.20746C9.2276 6.20883 6.59713 8.86937 6.62994 12.1465C6.66275 15.3662 9.28092 17.9653 12.5061 17.9653C15.0422 17.9653 17.2024 16.3575 18.0255 14.1057C18.046 14.0483 18.0159 13.984 17.9585 13.9635Z" fill="#A5A5A5"/>
</svg>
