<svg width="25" height="25" viewBox="0 0 25 25" fill="none" xmlns="http://www.w3.org/2000/svg">
<circle cx="12.0051" cy="12.4842" r="11.5" stroke="#9D9B9B"/>
<g clip-path="url(#clip0_306_696)">
<path d="M7.00513 10.3226C7.00513 9.99108 7.13682 9.67314 7.37124 9.43872C7.60566 9.2043 7.92361 9.0726 8.25513 9.0726H15.7551C16.0866 9.0726 16.4046 9.2043 16.639 9.43872C16.8734 9.67314 17.0051 9.99108 17.0051 10.3226V15.3226C17.0051 15.6541 16.8734 15.9721 16.639 16.2065C16.4046 16.4409 16.0866 16.5726 15.7551 16.5726H8.25513C7.92361 16.5726 7.60566 16.4409 7.37124 16.2065C7.13682 15.9721 7.00513 15.6541 7.00513 15.3226V10.3226ZM8.25513 9.6976C8.08937 9.6976 7.9304 9.76345 7.81319 9.88066C7.69597 9.99787 7.63013 10.1568 7.63013 10.3226V10.4582L12.0051 13.0832L16.3801 10.4582V10.3226C16.3801 10.1568 16.3143 9.99787 16.1971 9.88066C16.0799 9.76345 15.9209 9.6976 15.7551 9.6976H8.25513ZM16.3801 11.187L13.4376 12.9526L16.3801 14.7632V11.187ZM16.3589 15.4845L12.8339 13.3151L12.0051 13.812L11.1764 13.3151L7.65138 15.4839C7.68689 15.6169 7.76532 15.7344 7.8745 15.8183C7.98367 15.9021 8.11747 15.9476 8.25513 15.9476H15.7551C15.8927 15.9476 16.0264 15.9022 16.1356 15.8185C16.2448 15.7348 16.3232 15.6174 16.3589 15.4845ZM7.63013 14.7632L10.5726 12.9526L7.63013 11.187V14.7632Z" fill="#9D9B9B"/>
</g>
<defs>
<clipPath id="clip0_306_696">
<rect width="10" height="10" fill="white" transform="translate(7.00513 7.8226)"/>
</clipPath>
</defs>
</svg>
