<svg width="37" height="37" viewBox="0 0 37 37" fill="none" xmlns="http://www.w3.org/2000/svg">
<circle cx="18.6157" cy="18.4843" r="17.5" stroke="#F2994A"/>
<path d="M13.5896 27.8328C13.1001 27.8328 12.6812 27.6453 12.3329 27.2703C11.984 26.8946 11.8096 26.4433 11.8096 25.9162V10.584C11.8096 10.0569 11.984 9.60556 12.3329 9.22992C12.6812 8.85492 13.1001 8.66742 13.5896 8.66742H19.9756C20.213 8.66742 20.4393 8.71533 20.6547 8.81116C20.8695 8.90699 21.0585 9.04274 21.2217 9.21842L25.5383 13.866C25.7015 14.0417 25.8276 14.2452 25.9166 14.4764C26.0056 14.7083 26.0501 14.9521 26.0501 15.2076V17.3877L18.9298 25.0298V27.8328H13.5896ZM21.1549 27.8328C21.0362 27.8328 20.9324 27.7849 20.8434 27.689C20.7544 27.5932 20.7099 27.4814 20.7099 27.3536V26.2037C20.7099 26.076 20.736 25.9482 20.7882 25.8204C20.8398 25.6926 20.9027 25.5888 20.9769 25.509L25.2936 20.8374L27.2071 22.8498L22.8682 27.5453C22.794 27.6411 22.6976 27.713 22.579 27.7609C22.4603 27.8088 22.3416 27.8328 22.2229 27.8328H21.1549ZM27.8524 22.179L25.9611 20.1427L26.5841 19.4719C26.7621 19.2802 26.9772 19.1844 27.2294 19.1844C27.4816 19.1844 27.6892 19.2802 27.8524 19.4719L28.4754 20.1666C28.6386 20.3583 28.7202 20.5857 28.7202 20.8489C28.7202 21.1128 28.6386 21.3325 28.4754 21.5082L27.8524 22.179ZM20.7099 15.3753H24.27L19.8199 10.584V14.417C19.8199 14.6885 19.9053 14.916 20.0762 15.0993C20.2465 15.2833 20.4577 15.3753 20.7099 15.3753Z" fill="#F2994A"/>
</svg>
