<svg width="37" height="37" viewBox="0 0 37 37" fill="none" xmlns="http://www.w3.org/2000/svg">
<circle cx="18.8381" cy="18.4843" r="17.5" stroke="#F2994A"/>
<g clip-path="url(#clip0_302_1740)">
<path d="M26.4661 13.1135C23.7678 8.6937 18.2589 7.37971 13.9866 10.1272C9.82681 12.8746 8.47768 18.8473 11.1759 23.2671L11.4008 23.6255L10.5014 27.2091L13.8742 26.2535L14.2115 26.4924C15.673 27.3286 17.247 27.8064 18.821 27.8064C20.5074 27.8064 22.1938 27.3286 23.6554 26.3729C27.8152 23.506 29.0519 17.6528 26.4661 13.1135ZM24.1051 22.3115C23.6554 23.0282 23.0932 23.506 22.3063 23.6255C21.8565 23.6255 21.2944 23.8644 19.0459 22.9087C17.1346 21.9531 15.5606 20.4002 14.4363 18.6084C13.7618 17.7722 13.4245 16.6971 13.3121 15.622C13.3121 14.6664 13.6493 13.8302 14.2115 13.233C14.4363 12.9941 14.6612 12.8746 14.886 12.8746H15.4482C15.673 12.8746 15.8979 12.8746 16.0103 13.3524C16.2352 13.9497 16.7973 15.3831 16.7973 15.5026C16.9097 15.622 16.9097 15.861 16.7973 15.9804C16.9097 16.2193 16.7973 16.4582 16.6849 16.5777C16.5725 16.6971 16.46 16.936 16.3476 17.0555C16.1227 17.1749 16.0103 17.4139 16.1227 17.6528C16.5725 18.3695 17.1346 19.0862 17.6967 19.6835C18.3713 20.2808 19.0459 20.7586 19.8329 21.1169C20.0577 21.2364 20.2826 21.2364 20.395 20.9975C20.5074 20.7586 21.0696 20.1613 21.2944 19.9224C21.5193 19.6835 21.6317 19.6835 21.8565 19.8029L23.6554 20.7586C23.8802 20.878 24.1051 20.9975 24.2175 21.1169C24.3299 21.4753 24.3299 21.9531 24.1051 22.3115Z" fill="#F2994A"/>
</g>
<defs>
<clipPath id="clip0_302_1740">
<rect width="18.038" height="19.1654" fill="white" transform="translate(9.7771 8.66742)"/>
</clipPath>
</defs>
</svg>
