<svg width="20" height="14" viewBox="0 0 20 14" fill="none" xmlns="http://www.w3.org/2000/svg">
<path fill-rule="evenodd" clip-rule="evenodd" d="M10.0361 0.0732422C6.20132 0.0732422 3.0918 3.18276 3.0918 7.01758C3.0918 10.8524 6.20132 13.9619 10.0361 13.9619C13.8709 13.9619 16.9805 10.8524 16.9805 7.01758C16.9805 3.18276 13.8709 0.0732422 10.0361 0.0732422ZM10.0361 12.4187C7.05778 12.4187 4.63498 9.99592 4.63498 7.01758C4.63498 4.03923 7.05778 1.61643 10.0361 1.61643C13.0145 1.61643 15.4373 4.03923 15.4373 7.01758C15.4373 9.99592 13.0145 12.4187 10.0361 12.4187ZM9.26454 3.93121H10.8077V6.24599H13.1225V7.78917H10.8077V10.104H9.26454V7.78917H6.94976V6.24599H9.26454V3.93121Z" fill="#168C66"/>
</svg>
