<svg width="24" height="19" viewBox="0 0 24 19" fill="none" xmlns="http://www.w3.org/2000/svg">
<path fill-rule="evenodd" clip-rule="evenodd" d="M12 0.0947266C7.03 0.0947266 3 4.12473 3 9.09473C3 14.0647 7.03 18.0947 12 18.0947C16.97 18.0947 21 14.0647 21 9.09473C21 4.12473 16.97 0.0947266 12 0.0947266ZM12 16.0947C8.14 16.0947 5 12.9547 5 9.09473C5 5.23473 8.14 2.09473 12 2.09473C15.86 2.09473 19 5.23473 19 9.09473C19 12.9547 15.86 16.0947 12 16.0947ZM11 8.09473V5.09473H13V8.09473H16V10.0947H13V13.0947H11V10.0947H8V8.09473H11Z" fill="white"/>
</svg>
