<svg width="14" height="14" viewBox="0 0 14 14" fill="none" xmlns="http://www.w3.org/2000/svg">
<path d="M6.96636 5.11617C6.92127 5.06736 6.8762 5.04297 6.83117 5.04297H6.38806V5.61374H6.84995C6.89502 5.61374 6.93693 5.58875 6.97576 5.53863C7.01453 5.48859 7.03395 5.41848 7.03395 5.32836C7.03392 5.23574 7.01142 5.16498 6.96636 5.11617Z" fill="#7F7F7F"/>
<path d="M0.938843 2.03394V9.85709H13.0613V2.03394H0.938843ZM5.21458 6.73646C5.13318 6.81409 5.04057 6.87917 4.93669 6.93172C4.83278 6.9843 4.72136 7.02439 4.60249 7.0519C4.48355 7.07941 4.3678 7.09321 4.25515 7.09321C4.05734 7.09321 3.87646 7.05378 3.71251 6.97493C3.5485 6.89607 3.40705 6.79159 3.28819 6.66137C3.16925 6.53122 3.07726 6.38348 3.01218 6.21827C2.94708 6.05303 2.91457 5.88536 2.91457 5.71509C2.91457 5.55239 2.94519 5.39216 3.00658 5.23444C3.06788 5.07672 3.15738 4.93533 3.27507 4.81009C3.3927 4.68494 3.53538 4.58355 3.70313 4.50595C3.87083 4.42837 4.06232 4.38955 4.27768 4.38955C4.53548 4.38955 4.7589 4.44276 4.94796 4.54915C5.13693 4.65557 5.27775 4.79642 5.37042 4.97161L4.81091 5.36966C4.78586 5.3046 4.75272 5.25076 4.71141 5.20819C4.67012 5.16564 4.6244 5.13185 4.57436 5.1068C4.52424 5.08184 4.47234 5.06425 4.41853 5.05422C4.36466 5.04424 4.31273 5.03918 4.26267 5.03918C4.15753 5.03918 4.06675 5.05982 3.99043 5.10114C3.91403 5.14243 3.8515 5.19632 3.80266 5.2626C3.75385 5.32894 3.71751 5.40405 3.69378 5.48792C3.66996 5.57184 3.6581 5.65504 3.6581 5.73762C3.6581 5.83029 3.67185 5.91916 3.69941 6.00422C3.72692 6.08934 3.76701 6.16446 3.81959 6.22953C3.87217 6.29464 3.93659 6.34659 4.01299 6.38537C4.08931 6.42419 4.17506 6.44355 4.27019 6.44355C4.32025 6.44355 4.37158 6.43792 4.42416 6.42666C4.47674 6.41539 4.52741 6.39663 4.57624 6.37036C4.62508 6.34405 4.66883 6.31028 4.70769 6.26896C4.74646 6.22765 4.77717 6.17695 4.7997 6.11688L5.39675 6.47363C5.35664 6.57125 5.2959 6.65891 5.21458 6.73646ZM7.13157 7.07071V7.07068L6.66216 6.25209H6.38801V7.07068H5.65578V4.40456H6.87996C7.01011 4.40456 7.13026 4.43149 7.24043 4.4853C7.3506 4.53917 7.44512 4.60923 7.52398 4.69558C7.60284 4.78196 7.66478 4.88086 7.70984 4.99223C7.7549 5.10363 7.77743 5.21566 7.77743 5.32831C7.77743 5.48357 7.74364 5.62814 7.67604 5.76204C7.60848 5.89597 7.51458 6.00553 7.3944 6.0906L7.95768 7.07068H7.13157V7.07071ZM10.2069 7.07068V5.66628L9.76007 6.65386H9.36955L8.92267 5.66625V7.07066H8.19043V4.40453H8.99026L9.56478 5.65873L10.1431 4.40453H10.9391V7.07068H10.2069Z" fill="#7F7F7F"/>
<path d="M14 10.7144H0V11.9661H14V10.7144Z" fill="#7F7F7F"/>
</svg>
