<svg width="16" height="16" viewBox="0 0 16 16" fill="none" xmlns="http://www.w3.org/2000/svg">
<path d="M12.1777 6.31254C11.9072 6.04208 11.4686 6.04203 11.1981 6.31254L8.70825 8.80248L8.7082 1.41338C8.7082 1.03084 8.39806 0.720703 8.01552 0.720703C7.63298 0.720703 7.32285 1.03084 7.32285 1.41338L7.32289 8.80262L4.83286 6.31263C4.56239 6.04212 4.12379 6.04212 3.85328 6.31263C3.58276 6.58315 3.58276 7.02171 3.85328 7.29222L7.52575 10.9646C7.65565 11.0946 7.83182 11.1675 8.01552 11.1675C8.19922 11.1675 8.37544 11.0945 8.50534 10.9646L12.1777 7.29213C12.4482 7.02161 12.4482 6.58306 12.1777 6.31254Z" fill="#D68B00"/>
<path d="M14.693 14.0757H1.33818C0.955642 14.0757 0.645508 14.3858 0.645508 14.7684C0.645508 15.1509 0.955642 15.461 1.33818 15.461H14.693C15.0755 15.461 15.3857 15.1509 15.3857 14.7684C15.3857 14.3858 15.0755 14.0757 14.693 14.0757Z" fill="#D68B00"/>
</svg>
