<svg width="26" height="24" viewBox="0 0 26 24" fill="none" xmlns="http://www.w3.org/2000/svg">
<path d="M0.986328 4.83301H25.013V23.7158H0.986328V4.83301Z" fill="white"/>
<path d="M13.0088 4.83301H25.0133V23.7158H13.0088V4.83301Z" fill="#E9EDF5"/>
<path d="M0.986328 1.9248H25.013V6.26523H0.986328V1.9248Z" fill="#FE6A16"/>
<path d="M13.0088 1.9248H25.0133V6.26523H13.0088V1.9248Z" fill="#F24500"/>
<path d="M3.7002 8.13965H7.01164V11.4511H3.7002V8.13965Z" fill="#DCE1EB"/>
<path d="M3.7002 17.9376H7.01164V21.2491H3.7002V17.9376Z" fill="#DCE1EB"/>
<path d="M3.7002 13.0381H7.01164V16.3495H3.7002V13.0381Z" fill="#DCE1EB"/>
<path d="M8.79639 8.13965H12.1078V11.4511H8.79639V8.13965Z" fill="#DCE1EB"/>
<path d="M8.79639 17.9376H12.1078V21.2491H8.79639V17.9376Z" fill="#DCE1EB"/>
<path d="M8.79639 13.0381H12.1078V16.3495H8.79639V13.0381Z" fill="#DCE1EB"/>
<path d="M13.8921 8.13965H17.2035V11.4511H13.8921V8.13965Z" fill="#BEC3D2"/>
<path d="M13.8921 17.9376H17.2035V21.2491H13.8921V17.9376Z" fill="#BEC3D2"/>
<path d="M13.8921 13.0381H17.2035V16.3495H13.8921V13.0381Z" fill="#BEC3D2"/>
<path d="M18.9883 8.13965H22.2997V11.4511H18.9883V8.13965Z" fill="#BEC3D2"/>
<path d="M18.9883 17.9376H22.2997V21.2491H18.9883V17.9376Z" fill="#BEC3D2"/>
<path d="M18.9883 13.0381H22.2997V16.3495H18.9883V13.0381Z" fill="#BEC3D2"/>
<path d="M3.7002 0H6.53723V4.09556H3.7002V0Z" fill="#555A66"/>
<path d="M19.4624 0H22.2994V4.09556H19.4624V0Z" fill="#333940"/>
<path d="M11.5811 0H14.4181V4.09556H11.5811V0Z" fill="#555A66"/>
<path d="M13.0088 0H14.4185V4.09563H13.0088V0Z" fill="#333940"/>
</svg>
