<svg width="12" height="12" viewBox="0 0 12 12" fill="none" xmlns="http://www.w3.org/2000/svg">
<g clip-path="url(#clip0)">
<path d="M10.625 0H1.37503C0.616516 0 0 0.616516 0 1.37503V10.625C0 11.3835 0.616516 12 1.37503 12H10.625C11.3835 12 12 11.3835 12 10.625V1.37503C12 0.616516 11.3835 0 10.625 0V0ZM6 2.50003C6.27603 2.50003 6.49997 2.72397 6.49997 3C6.49997 3.27603 6.27603 3.49997 6 3.49997C5.72397 3.49997 5.50003 3.27603 5.50003 3C5.50003 2.72397 5.72397 2.50003 6 2.50003ZM7.125 9.49997H4.875C4.59897 9.49997 4.37503 9.27603 4.37503 9C4.37503 8.72397 4.59897 8.50003 4.875 8.50003H5.50003V5.50003H5.12503C4.849 5.50003 4.62497 5.276 4.62497 4.99997C4.62497 4.72403 4.849 4.5 5.12503 4.5H6C6.27603 4.5 6.49997 4.72403 6.49997 4.99997V8.50003H7.125C7.40103 8.50003 7.62497 8.72397 7.62497 9C7.62497 9.27603 7.40103 9.49997 7.125 9.49997Z" fill="#7F7F7F"/>
</g>
<defs>
<clipPath id="clip0">
<rect width="12" height="12" fill="white"/>
</clipPath>
</defs>
</svg>
