<svg width="29" height="33" viewBox="0 0 29 33" fill="none" xmlns="http://www.w3.org/2000/svg">
<path d="M28.6602 3.87949V11.2558C28.6919 16.7632 26.9096 22.1279 23.5885 26.5215C21.4063 29.3675 18.4315 31.9295 14.4998 32.8359C10.568 31.9295 7.59324 29.3675 5.41099 26.5215C2.08989 22.1279 0.307574 16.7632 0.339283 11.2558V3.87949C8.96705 3.98906 14.4998 0.164062 14.4998 0.164062C14.4998 0.164062 20.0325 3.98906 28.6602 3.87949Z" fill="#F6C863"/>
<path d="M14.4998 29.9042C11.9781 29.1341 9.66914 27.3977 7.62674 24.7341C4.62939 20.7485 3.02 15.8908 3.04471 10.9039V6.33147C7.03567 6.0004 10.9252 4.90199 14.4998 3.09656C18.0742 4.90167 21.9634 5.99993 25.9541 6.33107V10.9035C25.979 15.8907 24.3696 20.7487 21.372 24.7345C19.3304 27.3977 17.0215 29.1337 14.4998 29.9042Z" fill="#EEEFEE"/>
<path d="M14.4997 20.5506C17.739 20.5506 20.3651 17.9245 20.3651 14.6852C20.3651 11.4458 17.739 8.81976 14.4997 8.81976C11.2603 8.81976 8.63428 11.4458 8.63428 14.6852C8.63428 17.9245 11.2603 20.5506 14.4997 20.5506Z" fill="#EF5261"/>
<path d="M13.2958 17.5823C13.1874 17.5823 13.08 17.5609 12.9799 17.5194C12.8797 17.4779 12.7887 17.4171 12.7121 17.3404L10.9777 15.6064C10.901 15.5298 10.8402 15.4387 10.7987 15.3385C10.7572 15.2384 10.7358 15.131 10.7358 15.0225C10.7358 14.9141 10.7572 14.8067 10.7987 14.7065C10.8402 14.6063 10.901 14.5153 10.9777 14.4386C11.0544 14.3619 11.1454 14.3011 11.2456 14.2596C11.3458 14.2181 11.4532 14.1968 11.5616 14.1968C11.6701 14.1968 11.7774 14.2181 11.8776 14.2596C11.9778 14.3011 12.0688 14.3619 12.1455 14.4386L13.2958 15.5889L16.8547 12.0301C16.9313 11.9534 17.0224 11.8926 17.1226 11.8511C17.2227 11.8096 17.3301 11.7882 17.4386 11.7882C17.547 11.7882 17.6544 11.8096 17.7546 11.8511C17.8548 11.8926 17.9458 11.9534 18.0225 12.0301C18.0992 12.1068 18.16 12.1978 18.2015 12.298C18.243 12.3982 18.2643 12.5055 18.2643 12.614C18.2643 12.7224 18.243 12.8298 18.2015 12.93C18.16 13.0302 18.0992 13.1212 18.0225 13.1979L13.8787 17.3416C13.7239 17.4959 13.5143 17.5824 13.2958 17.5823Z" fill="#EEEFEE"/>
</svg>
