<svg width="18" height="19" viewBox="0 0 18 19" fill="none" xmlns="http://www.w3.org/2000/svg">
<path fill-rule="evenodd" clip-rule="evenodd" d="M9 0.0947266C4.03 0.0947266 0 4.12473 0 9.09473C0 14.0647 4.03 18.0947 9 18.0947C13.97 18.0947 18 14.0647 18 9.09473C18 4.12473 13.97 0.0947266 9 0.0947266ZM9 16.0947C5.14 16.0947 2 12.9547 2 9.09473C2 5.23473 5.14 2.09473 9 2.09473C12.86 2.09473 16 5.23473 16 9.09473C16 12.9547 12.86 16.0947 9 16.0947ZM8 8.09473V5.09473H10V8.09473H13V10.0947H10V13.0947H8V10.0947H5V8.09473H8Z" fill="#0AC883"/>
</svg>
