<svg width="36" height="32" viewBox="0 0 36 32" fill="none" xmlns="http://www.w3.org/2000/svg">
<path d="M23.3432 31C22.5303 31 21.6854 30.9744 20.8146 30.9477C19.9023 30.9201 18.9593 30.8914 17.9999 30.8914C17.3458 30.8914 16.8156 30.3486 16.8156 29.6792C16.8156 29.0097 17.3459 28.4669 17.9999 28.4669C18.9944 28.4669 19.9554 28.4962 20.8848 28.5244C24.336 28.6292 27.3154 28.7198 28.9134 27.1318C30.0692 25.9833 30.6311 23.8761 30.6311 20.6896C30.6311 15.0139 29.6973 10.595 27.8561 7.55601C25.7642 4.10304 22.54 2.42457 17.9999 2.42457C13.4809 2.42457 10.2635 4.10354 8.1639 7.55772C6.30906 10.6089 5.36863 15.0272 5.36863 20.6897C5.36863 21.3593 4.83836 21.9019 4.18432 21.9019C3.53018 21.9019 3 21.3592 3 20.6897C3 3.5896 11.1571 0 18 0C24.8429 0 33 3.5895 33 20.6897C33 24.6201 32.2257 27.2198 30.5635 28.8717C28.7525 30.671 26.2528 31 23.3432 31Z" fill="#FFC61B"/>
<path d="M18.1396 0C18.0931 0 18.0466 0.000904228 18 0.0012056V2.42627C18.0468 2.42597 18.0927 2.42456 18.1396 2.42456C22.6375 2.42456 25.8316 4.10301 27.9042 7.55607C29.7284 10.595 30.6533 15.0138 30.6533 20.6896C30.6533 23.8759 30.0967 25.9832 28.9517 27.1318C27.3685 28.7196 24.4168 28.6291 20.9976 28.5243C20.077 28.4961 19.1249 28.4668 18.1396 28.4668C18.0924 28.4668 18.0459 28.4705 18 28.4762V30.8821C18.0459 30.8876 18.0924 30.8914 18.1396 30.8914C19.0901 30.8914 20.0244 30.9201 20.9281 30.9477C21.7909 30.9742 22.6279 31 23.4332 31C26.3157 31 28.7921 30.671 30.5861 28.8716C32.2329 27.2198 33 24.62 33 20.6897C33 3.58947 24.9188 0 18.1396 0Z" fill="#D8A013"/>
<path d="M21 32C22.1046 32 23 30.6569 23 29C23 27.3431 22.1046 26 21 26C19.8954 26 19 27.3431 19 29C19 30.6569 19.8954 32 21 32Z" fill="#FFEDB5"/>
<path d="M4 22C1.79082 22 0 20.2091 0 18C0 15.7909 1.79082 14 4 14H8V21.9999H4V22V22Z" fill="#E03A00"/>
<path d="M8.5 23C7.67164 23 7 22.4403 7 21.75V14.25C7 13.5597 7.67164 13 8.5 13C9.32836 13 10 13.5597 10 14.25V21.75C10 22.4403 9.32858 23 8.5 23Z" fill="#FFC61B"/>
<path d="M32 14.0001C34.2091 14.0001 36 15.791 36 18C36 20.2091 34.2092 22 32 22H28V14H32V14.0001Z" fill="#E03A00"/>
<path d="M27.5 13C28.3284 13 29 13.5597 29 14.25V21.75C29 22.4403 28.3284 23 27.5 23C26.6716 23 26 22.4403 26 21.75V14.25C25.9999 13.5597 26.6715 13 27.5 13Z" fill="#FFC61B"/>
</svg>
