<svg width="24" height="34" viewBox="0 0 24 34" fill="none" xmlns="http://www.w3.org/2000/svg">
<path d="M23.7482 17.5379C23.748 17.531 23.7477 17.524 23.7475 17.5168C23.7473 17.5107 23.7471 17.5046 23.7469 17.4985C23.7465 17.4879 23.7458 17.4774 23.7452 17.4668C23.7452 17.4662 23.745 17.4656 23.745 17.4649C23.6878 16.5317 22.9443 15.7842 22.0128 15.7209C22.0164 15.7021 22.02 15.6834 22.0231 15.6646C22.0237 15.6604 22.0246 15.6561 22.0252 15.6519C22.0282 15.6344 22.0309 15.6167 22.0334 15.5992C22.0339 15.596 22.0343 15.5929 22.0347 15.5899C22.037 15.5741 22.0389 15.5583 22.0408 15.5427C22.0413 15.5391 22.0417 15.5357 22.0421 15.5321C22.0442 15.5148 22.0459 15.4977 22.0476 15.4804C22.048 15.476 22.0484 15.4716 22.0489 15.4669C22.0503 15.4492 22.0518 15.4315 22.0531 15.4138C22.0531 15.4131 22.0531 15.4125 22.0533 15.4119C22.0543 15.3948 22.0554 15.3775 22.0562 15.3604C22.0564 15.356 22.0567 15.3513 22.0569 15.3469C22.0575 15.33 22.0581 15.3132 22.0583 15.2965C22.0586 15.2919 22.0586 15.2874 22.0586 15.2828C22.0588 15.2682 22.059 15.2537 22.0588 15.2391C22.0588 15.2355 22.0588 15.2317 22.0588 15.2282C22.0586 15.2115 22.0583 15.1946 22.0579 15.178C22.0577 15.1729 22.0577 15.1678 22.0575 15.163C22.0569 15.1467 22.0562 15.1303 22.0554 15.114C22.0552 15.1109 22.055 15.1079 22.0548 15.1048C22.0539 15.09 22.0529 15.0754 22.0518 15.0607C22.0514 15.055 22.051 15.0495 22.0505 15.0438C22.0493 15.0278 22.0478 15.0115 22.0461 14.9955C22.0457 14.9911 22.0451 14.9866 22.0446 14.982C22.0432 14.9685 22.0417 14.955 22.04 14.9417C22.0394 14.9371 22.0389 14.9322 22.0383 14.9276C22.0362 14.9117 22.0339 14.8959 22.0316 14.8801C22.0307 14.8746 22.0299 14.8691 22.029 14.8634C22.0267 14.8487 22.0242 14.8337 22.0216 14.8189C22.0208 14.8143 22.02 14.8097 22.0191 14.805C22.0166 14.7917 22.014 14.7784 22.0115 14.7654C22.0102 14.7595 22.0092 14.7538 22.0079 14.7478C22.0048 14.7329 22.0016 14.7177 21.9982 14.7027C21.997 14.697 21.9957 14.6915 21.9942 14.686C21.9915 14.6742 21.9885 14.6622 21.9856 14.6504C21.9843 14.6451 21.983 14.6401 21.9816 14.6348C21.9778 14.62 21.9738 14.6053 21.9697 14.5907C21.9681 14.5844 21.9662 14.578 21.9645 14.5719C21.9609 14.5593 21.9571 14.5466 21.9533 14.534C21.9514 14.5274 21.9493 14.5209 21.9472 14.5146C21.9436 14.5027 21.9398 14.4911 21.936 14.4795C21.9341 14.4736 21.932 14.4675 21.9301 14.4616C21.9252 14.4475 21.9204 14.4333 21.9153 14.4192C21.9132 14.4131 21.9109 14.4072 21.9088 14.4011C21.905 14.3907 21.9012 14.3804 21.8972 14.3701C21.8949 14.3642 21.8928 14.3585 21.8904 14.3526C21.8852 14.3391 21.8797 14.3256 21.8742 14.3121C21.8715 14.3053 21.8687 14.2988 21.866 14.2922C21.8615 14.2815 21.8569 14.2709 21.8523 14.2602C21.8487 14.2519 21.8449 14.2435 21.8413 14.2353C21.8369 14.2256 21.8324 14.2161 21.828 14.2064C21.8248 14.1998 21.8219 14.1931 21.8187 14.1865C21.8126 14.1737 21.8063 14.1608 21.7999 14.1482C21.7968 14.1418 21.7936 14.1355 21.7905 14.1292C21.7858 14.1199 21.781 14.1106 21.7761 14.1013C21.7727 14.095 21.7696 14.0889 21.7662 14.0828C21.7597 14.0705 21.7529 14.0585 21.7464 14.0465C21.7426 14.0399 21.739 14.0332 21.7352 14.0267C21.7295 14.0167 21.7238 14.007 21.7181 13.9971C21.7132 13.9891 21.7086 13.9809 21.7038 13.9729C21.6985 13.9642 21.6932 13.9556 21.6879 13.9471C21.6839 13.9406 21.6799 13.9343 21.6759 13.9279C21.6683 13.9161 21.6607 13.9043 21.6531 13.8925C21.6489 13.8862 21.6447 13.8798 21.6405 13.8737C21.6352 13.8657 21.6297 13.8577 21.6242 13.8497C21.619 13.8421 21.6137 13.8343 21.6082 13.8267C21.6012 13.817 21.5943 13.8071 21.5873 13.7976C21.5829 13.7915 21.5785 13.7856 21.574 13.7794C21.5666 13.7695 21.5593 13.7596 21.5519 13.7499C21.2815 13.3962 20.9129 13.112 20.4691 12.9441L20.4706 12.9422L19.8642 12.4031L20.0492 11.8445C20.0409 11.8445 20.0327 11.8443 20.0245 11.8443C20.5788 11.85 21.1081 11.6083 21.4673 11.1917C21.507 11.1722 21.5462 11.1516 21.585 11.1301C21.6 11.1364 21.6154 11.1423 21.6312 11.1476C21.9484 11.2526 22.291 11.0807 22.3961 10.7632C22.437 10.6396 22.4357 10.5124 22.4003 10.3966C22.5378 10.2017 22.6494 9.98383 22.7283 9.74568C22.7732 9.61005 22.8057 9.47315 22.8264 9.33646C22.8266 9.33498 22.8268 9.33372 22.827 9.33224C22.8295 9.31537 22.8318 9.2987 22.834 9.28183C22.8344 9.27887 22.8348 9.27571 22.8352 9.27276C22.8373 9.25651 22.839 9.24006 22.8409 9.22382C22.8411 9.22087 22.8416 9.2177 22.842 9.21454C22.8437 9.19872 22.8449 9.18269 22.8464 9.16687C22.8466 9.16307 22.847 9.15906 22.8472 9.15526C22.8485 9.13965 22.8496 9.12383 22.8504 9.10822C22.8506 9.10464 22.8508 9.10105 22.851 9.09747C22.8519 9.08144 22.8525 9.06562 22.8532 9.04958C22.8532 9.04642 22.8534 9.04326 22.8534 9.04009C22.8538 9.02385 22.8542 9.00761 22.8544 8.99158C22.8544 8.98841 22.8544 8.98525 22.8544 8.98229C22.8546 8.96605 22.8544 8.9496 22.8542 8.93336C22.8542 8.93083 22.854 8.9283 22.854 8.92576C22.8538 8.90889 22.8534 8.89201 22.8527 8.87514C22.8527 8.87408 22.8527 8.87282 22.8525 8.87176C22.8475 8.74035 22.8321 8.61041 22.8065 8.4828C22.8065 8.48237 22.8063 8.48174 22.8063 8.48132C22.8032 8.46508 22.7996 8.44883 22.796 8.4328C22.7954 8.43006 22.7947 8.42732 22.7943 8.42479C22.7909 8.41002 22.7876 8.39547 22.784 8.3807C22.7829 8.37648 22.7819 8.37226 22.781 8.36805C22.7776 8.35434 22.7741 8.34062 22.7703 8.32691C22.769 8.32206 22.7677 8.317 22.7662 8.31194C22.7627 8.29865 22.7589 8.28557 22.7551 8.27249C22.7536 8.26722 22.7519 8.26194 22.7504 8.25667C22.7466 8.2438 22.7426 8.23094 22.7386 8.21828C22.7369 8.2128 22.735 8.20731 22.7333 8.20183C22.7291 8.18917 22.7251 8.17651 22.7207 8.16407C22.7188 8.1588 22.7169 8.15331 22.7152 8.14804C22.7108 8.13538 22.7063 8.12273 22.7017 8.11007C22.6998 8.1048 22.6977 8.09952 22.6958 8.09425C22.6912 8.0818 22.6863 8.06936 22.6815 8.05691C22.6793 8.05143 22.677 8.04594 22.6749 8.04046C22.6701 8.02844 22.6652 8.0162 22.6601 8.00418C22.6578 7.99869 22.6555 7.99342 22.6532 7.98794C22.6479 7.9757 22.6426 7.96347 22.6372 7.95123C22.6353 7.94701 22.6334 7.9428 22.6315 7.93858C22.6256 7.9255 22.6194 7.91242 22.6133 7.89934C22.6116 7.89576 22.6097 7.89217 22.608 7.88858C22.6015 7.87508 22.595 7.86158 22.5882 7.84808C22.588 7.84766 22.5878 7.84745 22.5876 7.84703C22.5642 7.80062 22.5393 7.75506 22.5129 7.71013C22.511 7.70676 22.5091 7.70338 22.5072 7.70022C22.5009 7.68946 22.4943 7.67891 22.4878 7.66837C22.4842 7.66246 22.4806 7.65655 22.4771 7.65065C22.4707 7.64052 22.4644 7.63082 22.4581 7.62069C22.4541 7.61458 22.4503 7.60846 22.4463 7.60234C22.4399 7.59285 22.4336 7.58336 22.4273 7.57408C22.4228 7.56733 22.4184 7.56079 22.4138 7.55425C22.4077 7.54518 22.4013 7.53632 22.395 7.52746C22.3901 7.52071 22.3853 7.51396 22.3804 7.50721C22.3743 7.49856 22.368 7.49012 22.3617 7.48169C22.3564 7.47473 22.3511 7.46755 22.3456 7.46059C22.3393 7.45237 22.333 7.44414 22.3267 7.43591C22.3212 7.42895 22.3157 7.42178 22.31 7.41482C22.3035 7.4068 22.2969 7.39858 22.2904 7.39056C22.2849 7.38381 22.2792 7.37706 22.2735 7.37031C22.2667 7.3623 22.2598 7.35407 22.253 7.34605C22.2473 7.3393 22.2414 7.33276 22.2357 7.32623C22.229 7.31842 22.2222 7.31083 22.2153 7.30323C22.2089 7.29627 22.2026 7.28931 22.1963 7.28235C22.1895 7.27497 22.1828 7.26759 22.1758 7.26041C22.1695 7.25366 22.163 7.24691 22.1564 7.24016C22.1495 7.23299 22.1427 7.22603 22.1358 7.21886C22.1288 7.21169 22.1216 7.20494 22.1147 7.19776C22.1079 7.19101 22.101 7.18426 22.0942 7.17772C22.0872 7.17097 22.0801 7.16423 22.0729 7.15769C22.0659 7.15115 22.059 7.1444 22.0518 7.13786C22.0432 7.12984 22.0345 7.12225 22.0256 7.11444C22.02 7.10938 22.0143 7.10411 22.0086 7.09926C21.994 7.08639 21.979 7.07373 21.9641 7.06129C21.9613 7.05897 21.9586 7.05686 21.9558 7.05454C21.9434 7.0442 21.9309 7.03408 21.9183 7.02395C21.913 7.01973 21.9075 7.01552 21.902 7.0113C21.8921 7.00349 21.8822 6.99569 21.8721 6.98809C21.8655 6.98303 21.8588 6.97818 21.852 6.97333C21.8428 6.96658 21.8335 6.95962 21.8242 6.95287C21.8175 6.94802 21.8107 6.94316 21.804 6.93852C21.7947 6.93198 21.7852 6.92523 21.7759 6.9189C21.7689 6.91405 21.7618 6.90941 21.7546 6.90477C21.7451 6.89844 21.7356 6.89191 21.7259 6.88579C21.7187 6.88115 21.7116 6.87672 21.7044 6.87208C21.6949 6.86596 21.6854 6.86005 21.6759 6.85415C21.6683 6.84951 21.6607 6.84508 21.6531 6.84044C21.6434 6.83453 21.6335 6.82862 21.6236 6.82293C21.6162 6.81871 21.6088 6.81449 21.6015 6.81027C21.5915 6.80458 21.5816 6.79909 21.5715 6.79361C21.5639 6.78939 21.5563 6.78517 21.5485 6.78095C21.5384 6.77547 21.528 6.77019 21.5177 6.76492C21.5101 6.76091 21.5025 6.75712 21.4947 6.75311C21.4844 6.74783 21.4738 6.74277 21.4633 6.7375C21.4557 6.7337 21.4479 6.73012 21.4403 6.72632C21.4293 6.72105 21.4181 6.71598 21.407 6.71092C21.3996 6.70755 21.3924 6.70417 21.3852 6.70101C21.3734 6.69573 21.3616 6.69067 21.3496 6.68561C21.3426 6.68265 21.3357 6.6797 21.3287 6.67675C21.3156 6.67126 21.3026 6.6662 21.2895 6.66093C21.2836 6.65861 21.2779 6.65629 21.272 6.65397C21.2559 6.64785 21.2399 6.64173 21.2239 6.63604C21.2207 6.63498 21.2173 6.63372 21.2142 6.63245C21.1943 6.62528 21.1745 6.61853 21.1545 6.61178C21.1355 6.60545 21.1167 6.59955 21.0977 6.59385C21.0929 6.59237 21.088 6.5909 21.083 6.58942C21.0688 6.5852 21.0547 6.58098 21.0406 6.57719C21.0347 6.5755 21.0285 6.57381 21.0226 6.57234C21.0093 6.56875 20.9958 6.56516 20.9826 6.56179C20.9767 6.56031 20.971 6.55884 20.9651 6.55736C20.948 6.55314 20.9309 6.54913 20.9138 6.54534C20.9121 6.54491 20.9106 6.54449 20.9089 6.54428C20.8895 6.54006 20.8703 6.53605 20.8509 6.53226C20.8469 6.53141 20.8429 6.53078 20.8387 6.52994C20.8239 6.52698 20.8092 6.52445 20.7944 6.52192C20.7883 6.52087 20.782 6.51981 20.7758 6.51876C20.7628 6.51665 20.7499 6.51454 20.737 6.51264C20.7305 6.51158 20.7242 6.51074 20.7176 6.5099C20.7039 6.508 20.69 6.5061 20.6763 6.50441C20.6712 6.50378 20.6659 6.50315 20.6609 6.50251C20.6421 6.50041 20.6233 6.4983 20.6046 6.49661C20.601 6.49619 20.5974 6.49598 20.5938 6.49577C20.5786 6.4945 20.5632 6.49323 20.548 6.49218C20.5417 6.49176 20.5356 6.49133 20.5293 6.49091C20.5166 6.49007 20.5039 6.48944 20.4911 6.4888C20.4843 6.48859 20.4776 6.48817 20.471 6.48796C20.4582 6.48754 20.4455 6.48712 20.4326 6.48669C20.4265 6.48648 20.4202 6.48627 20.4141 6.48627C20.3955 6.48585 20.3772 6.48564 20.3588 6.48585C20.3573 6.48585 20.3557 6.48585 20.3542 6.48585C20.3373 6.48606 20.3204 6.48627 20.3036 6.48691C20.2966 6.48712 20.2898 6.48754 20.2829 6.48775C20.2713 6.48817 20.2597 6.48859 20.2481 6.48922C20.2405 6.48965 20.2329 6.49007 20.2253 6.49049C20.2135 6.49112 20.2019 6.49197 20.1901 6.49281C20.1835 6.49323 20.1768 6.49387 20.1702 6.49429C20.1559 6.49555 20.1416 6.49682 20.1272 6.49829C20.1232 6.49872 20.119 6.49893 20.115 6.49935C20.0973 6.50125 20.0795 6.50336 20.0618 6.50568C20.0551 6.50652 20.0481 6.50758 20.0414 6.50842C20.03 6.51011 20.0184 6.51159 20.007 6.51327C19.9994 6.51433 19.992 6.51559 19.9844 6.51686C19.9736 6.51855 19.9629 6.52044 19.9523 6.52213C19.9447 6.5234 19.9369 6.52487 19.9294 6.52614C19.9182 6.52825 19.907 6.53036 19.8958 6.53268C19.8889 6.53415 19.8821 6.53542 19.8751 6.53669C19.8581 6.54027 19.8412 6.54386 19.8243 6.54787C19.818 6.54934 19.8116 6.55082 19.8051 6.55251C19.7937 6.55525 19.7825 6.55799 19.7711 6.56073C19.7636 6.56263 19.756 6.56474 19.7484 6.56664C19.738 6.56938 19.7279 6.57212 19.7176 6.57487C19.71 6.57698 19.7026 6.57909 19.695 6.58119C19.6844 6.58415 19.6739 6.58731 19.6634 6.59048C19.6562 6.59258 19.649 6.59469 19.6418 6.59701C19.6279 6.60144 19.614 6.60587 19.6001 6.6103C19.2103 6.73876 18.855 6.96299 18.5703 7.26442C18.5688 7.26611 18.5671 7.2678 18.5656 7.26927C18.5557 7.28003 18.5458 7.29058 18.5359 7.30155C18.5338 7.30387 18.5317 7.30619 18.5298 7.3083C18.5201 7.31905 18.5106 7.32981 18.5011 7.34078C18.5 7.34183 18.4992 7.34289 18.4984 7.34394C18.4697 7.37706 18.442 7.41102 18.415 7.44583C18.4108 7.45131 18.4064 7.45701 18.4022 7.46249C18.3956 7.47114 18.3893 7.47979 18.3828 7.48844C18.3779 7.49476 18.3733 7.5013 18.3686 7.50784C18.3627 7.51607 18.3568 7.52429 18.3509 7.53252C18.3458 7.53969 18.3408 7.54708 18.3357 7.55425C18.3302 7.56226 18.3247 7.57028 18.3193 7.5783C18.3131 7.58715 18.3072 7.59622 18.3013 7.6053C18.2954 7.61437 18.2895 7.62344 18.2838 7.63251C18.276 7.64474 18.2682 7.65719 18.2606 7.66963C18.2562 7.6768 18.252 7.68419 18.2475 7.69136C18.2421 7.70064 18.2364 7.70992 18.2309 7.71941C18.2269 7.72637 18.2229 7.73333 18.2189 7.74029C18.2134 7.75 18.2079 7.75991 18.2024 7.76962C18.1984 7.77679 18.1946 7.78396 18.1906 7.79134C18.1853 7.80126 18.18 7.81138 18.1748 7.82151C18.1712 7.82847 18.1676 7.83543 18.164 7.84239C18.1566 7.85694 18.1495 7.8715 18.1425 7.88605C18.1414 7.88837 18.1402 7.89091 18.1389 7.89323C18.1307 7.91052 18.1227 7.92782 18.1149 7.94533C18.1123 7.95102 18.1098 7.95693 18.1073 7.96283C18.102 7.97486 18.0967 7.98709 18.0915 7.99912C18.0887 8.00587 18.086 8.01241 18.0832 8.01916C18.0784 8.03097 18.0735 8.04257 18.0689 8.05438C18.0663 8.06113 18.0636 8.06788 18.0611 8.07463C18.0562 8.08729 18.0514 8.09994 18.0467 8.11281C18.0446 8.11851 18.0425 8.1242 18.0404 8.1299C18.0339 8.14846 18.0273 8.16723 18.021 8.18622C18.0155 8.20288 18.0102 8.21976 18.005 8.23663C18.0024 8.24507 17.9999 8.25351 17.9974 8.26194C17.9961 8.26637 17.9948 8.27059 17.9936 8.27502C17.9328 8.48427 17.9008 8.69542 17.8955 8.90425C17.798 8.97597 17.721 9.07743 17.6801 9.20104C17.5751 9.51829 17.747 9.86085 18.0645 9.9659C18.0803 9.97117 18.0961 9.9756 18.1119 9.9794C18.1301 10.0197 18.1492 10.0598 18.1695 10.099C18.1809 10.2566 18.2119 10.411 18.2613 10.5586C18.2707 10.5871 18.2811 10.6156 18.2918 10.6436C18.3463 10.7839 18.4173 10.9172 18.5034 11.0408C18.5291 11.078 18.5564 11.114 18.5848 11.1493C18.6038 11.1727 18.6234 11.1959 18.6437 11.2182C18.6941 11.2746 18.7481 11.3281 18.8055 11.3783C18.8399 11.4085 18.8755 11.4376 18.9122 11.4652C18.9223 11.4728 18.9327 11.4804 18.943 11.4878C18.9346 11.4817 18.9261 11.4756 18.9177 11.4692L18.8051 11.8093L18.7327 12.0278L17.9242 12.0983V12.1008C17.4675 11.9706 17.0015 11.9787 16.5729 12.1014C16.5615 12.1046 16.5503 12.108 16.539 12.1113C16.532 12.1135 16.525 12.1156 16.5181 12.1177C16.506 12.1215 16.4942 12.1253 16.4822 12.1293C16.474 12.132 16.4658 12.1348 16.4573 12.1375C16.4476 12.1409 16.4379 12.1442 16.4282 12.1476C16.4217 12.1499 16.4149 12.1523 16.4084 12.1548C16.3949 12.1596 16.3814 12.1647 16.3679 12.17C16.3611 12.1725 16.3546 12.1753 16.3478 12.1778C16.3381 12.1816 16.3284 12.1856 16.3189 12.1894C16.3105 12.193 16.3021 12.1964 16.2936 12.1999C16.2829 12.2046 16.2721 12.2092 16.2614 12.2139C16.2548 12.2166 16.2485 12.2196 16.2422 12.2223C16.2287 12.2284 16.2154 12.2345 16.2019 12.2406C16.1964 12.2432 16.1909 12.2459 16.1854 12.2485C16.1755 12.2533 16.1656 12.2579 16.1557 12.263C16.1496 12.266 16.1437 12.2689 16.1375 12.2721C16.1247 12.2786 16.112 12.2852 16.0991 12.2919C16.0928 12.2953 16.0867 12.2987 16.0806 12.3018C16.0709 12.3071 16.0612 12.3124 16.0515 12.3179C16.0445 12.3219 16.0376 12.3257 16.0306 12.3297C16.0194 12.336 16.0084 12.3425 15.9975 12.3489C15.992 12.352 15.9863 12.3554 15.9808 12.3588C15.9679 12.3666 15.9551 12.3744 15.9424 12.3822C15.9374 12.3854 15.9325 12.3885 15.9274 12.3917C15.918 12.3976 15.9085 12.4037 15.8992 12.41C15.8937 12.4136 15.8884 12.4172 15.8829 12.4208C15.8703 12.4292 15.8578 12.4377 15.8454 12.4463C15.8405 12.4497 15.8357 12.4531 15.831 12.4564C15.8203 12.464 15.8097 12.4716 15.799 12.4794C15.7948 12.4824 15.7905 12.4855 15.7865 12.4885C15.7747 12.4971 15.7631 12.506 15.7515 12.5149C15.7467 12.5185 15.742 12.5222 15.7372 12.5258C15.7249 12.5353 15.7127 12.545 15.7005 12.5549C15.7003 12.5552 15.6998 12.5554 15.6996 12.5556V12.0109C15.6996 11.9915 15.6994 11.9723 15.6988 11.9531C15.6988 11.9498 15.6986 11.9462 15.6986 11.9428C15.6982 11.924 15.6973 11.9053 15.6965 11.8867C15.6963 11.884 15.696 11.8812 15.696 11.8785C15.6952 11.8614 15.6941 11.8445 15.6929 11.8276C15.6927 11.8247 15.6925 11.8215 15.6922 11.8186C15.6908 11.8004 15.6893 11.7823 15.6874 11.7641C15.687 11.7603 15.6866 11.7565 15.6863 11.7527C15.6844 11.7346 15.6823 11.7165 15.6802 11.6983C15.68 11.6971 15.6798 11.696 15.6798 11.6947C15.6777 11.6774 15.6752 11.6604 15.6726 11.6431C15.672 11.6388 15.6714 11.6344 15.6707 11.6302C15.668 11.6127 15.665 11.5952 15.6621 11.5777C15.6614 11.5745 15.661 11.5716 15.6604 11.5686C15.6574 11.5524 15.6543 11.5361 15.6511 11.5201C15.6505 11.5173 15.6501 11.5146 15.6494 11.5121C15.6458 11.4948 15.642 11.4775 15.6382 11.4602C15.6374 11.456 15.6363 11.4517 15.6353 11.4475C15.6313 11.43 15.6271 11.4127 15.6226 11.3956C15.6224 11.395 15.6222 11.3944 15.622 11.3937C15.6178 11.3773 15.6131 11.3608 15.6087 11.3444C15.6075 11.3399 15.6062 11.3355 15.6049 11.3311C15.6003 11.3148 15.5954 11.2988 15.5906 11.2826C15.5893 11.2784 15.588 11.2743 15.5866 11.2701C15.5821 11.256 15.5775 11.2419 15.5729 11.2279C15.5718 11.2246 15.5705 11.2212 15.5695 11.2178C15.564 11.2018 15.5583 11.1857 15.5526 11.1699C15.5509 11.1655 15.5494 11.1613 15.5478 11.1569C15.5418 11.1406 15.5357 11.1246 15.5294 11.1085C15.5288 11.1071 15.5283 11.1058 15.5277 11.1043C15.5218 11.0894 15.5157 11.0746 15.5096 11.06C15.5077 11.0556 15.5058 11.051 15.5039 11.0463C15.4976 11.0313 15.491 11.0164 15.4843 11.0014C15.4824 10.997 15.4803 10.9925 15.4781 10.9883C15.4727 10.9761 15.467 10.9641 15.4611 10.9518C15.4592 10.9476 15.4571 10.9434 15.4552 10.9392C15.4482 10.9248 15.441 10.9105 15.4339 10.8961C15.4313 10.8911 15.4288 10.8862 15.4263 10.8814C15.4191 10.8674 15.4117 10.8535 15.4043 10.8398C15.4026 10.8364 15.4007 10.8333 15.3988 10.8299C15.3923 10.8179 15.3855 10.8059 15.3788 10.794C15.3756 10.7888 15.3727 10.7833 15.3695 10.778C15.3619 10.7647 15.3541 10.7516 15.3461 10.7386C15.3431 10.7337 15.3402 10.7289 15.3372 10.724C15.3305 10.7132 15.324 10.7025 15.317 10.6917C15.3145 10.6877 15.3121 10.6839 15.3096 10.6799C15.301 10.6666 15.2923 10.6533 15.2834 10.6403C15.2803 10.6354 15.2769 10.6308 15.2737 10.6259C15.2655 10.6137 15.2571 10.6015 15.2484 10.5894C15.2455 10.5854 15.2427 10.5812 15.2398 10.5772C15.2322 10.5666 15.2246 10.5561 15.217 10.5458C15.2132 10.5407 15.2094 10.5356 15.2056 10.5306C15.1965 10.5186 15.1873 10.5065 15.178 10.4947C15.1744 10.4901 15.1706 10.4854 15.167 10.4808C15.1598 10.4717 15.1527 10.4629 15.1453 10.4538C15.1415 10.4492 15.1377 10.4445 15.1339 10.4397C15.1244 10.4281 15.1147 10.4167 15.1048 10.4053C15.1006 10.4004 15.0963 10.3956 15.0921 10.3907C15.0835 10.3808 15.0748 10.3711 15.0662 10.3614C15.0611 10.3557 15.0558 10.3502 15.0508 10.3445C15.0432 10.3363 15.0354 10.3279 15.0278 10.3196C15.0232 10.3148 15.0185 10.3099 15.0139 10.3051C15.0037 10.2945 14.9936 10.2842 14.9833 10.2739C14.9782 10.2688 14.9732 10.2637 14.9679 10.2587C14.9607 10.2517 14.9535 10.2448 14.9464 10.2378C14.9407 10.2323 14.935 10.2268 14.9293 10.2213C14.9196 10.2121 14.9097 10.203 14.8998 10.1939C14.8945 10.1891 14.8892 10.1842 14.8839 10.1796C14.8753 10.1718 14.8664 10.164 14.8576 10.1562C14.8506 10.1503 14.8439 10.1441 14.8369 10.1382C14.8289 10.1315 14.8209 10.1247 14.8129 10.118C14.8074 10.1133 14.8019 10.1087 14.7964 10.1043C14.7854 10.0952 14.7742 10.0863 14.7631 10.0775C14.7572 10.0728 14.7513 10.0682 14.7453 10.0636C14.7378 10.0577 14.7302 10.052 14.7226 10.0461C14.7158 10.0408 14.7091 10.0357 14.7021 10.0307C14.6918 10.0231 14.6814 10.0155 14.6709 10.0079C14.665 10.0037 14.6591 9.99944 14.653 9.99501C14.6428 9.98805 14.6327 9.98087 14.6226 9.97391C14.2547 9.7229 13.8153 9.56912 13.3413 9.5493L13.3422 9.54698L12.597 9.22593V8.63741C12.5898 8.63973 12.5826 8.64205 12.5754 8.64437C13.1026 8.4752 13.5282 8.07948 13.7379 7.57176C13.7696 7.54075 13.8003 7.5089 13.8303 7.4762C13.8465 7.47747 13.863 7.47831 13.8797 7.47831C14.214 7.47831 14.4848 7.20726 14.4848 6.87313C14.4848 6.74298 14.4437 6.62254 14.3737 6.52382C14.4429 6.29558 14.4802 6.05364 14.4802 5.80283C14.4802 5.66003 14.468 5.51997 14.4448 5.3837C14.4446 5.38223 14.4443 5.38075 14.4441 5.37927C14.4412 5.36219 14.438 5.3451 14.4346 5.32823C14.4342 5.32569 14.4338 5.32337 14.4332 5.32084C14.43 5.30439 14.4266 5.28815 14.423 5.27191C14.4224 5.26895 14.4218 5.266 14.4211 5.26305C14.4176 5.24744 14.414 5.23183 14.4102 5.21622C14.4093 5.21263 14.4085 5.20883 14.4074 5.20525C14.4036 5.18985 14.3996 5.17424 14.3954 5.15884C14.3946 5.15568 14.3937 5.15251 14.3929 5.14956C14.3887 5.13416 14.3844 5.11876 14.3798 5.10358C14.3787 5.1002 14.3777 5.09662 14.3766 5.09324C14.372 5.07805 14.3673 5.06265 14.3625 5.04768C14.3617 5.04472 14.3606 5.04198 14.3598 5.03903C14.3547 5.02321 14.3494 5.00739 14.3439 4.99178C14.3433 4.99009 14.3429 4.98841 14.3422 4.98672C14.3366 4.97005 14.3306 4.9536 14.3243 4.93715C14.3241 4.93652 14.3237 4.93567 14.3235 4.93504C14.2777 4.81227 14.2222 4.69415 14.1585 4.58151C14.1579 4.58024 14.1573 4.57898 14.1564 4.57792C14.1484 4.564 14.1404 4.55008 14.1322 4.53637C14.1305 4.53362 14.129 4.53088 14.1273 4.52814C14.1195 4.51527 14.1117 4.50241 14.1037 4.48975C14.1014 4.48616 14.0992 4.48258 14.0969 4.4792C14.0891 4.46697 14.0813 4.45494 14.0735 4.44292C14.0708 4.43891 14.0682 4.43491 14.0655 4.4309C14.0579 4.4193 14.0501 4.40791 14.0421 4.39651C14.0391 4.39208 14.036 4.38766 14.033 4.38323C14.0254 4.37226 14.0176 4.3615 14.0098 4.35053C14.0062 4.34568 14.0026 4.34083 13.9993 4.33597C13.9915 4.32543 13.9837 4.31509 13.9758 4.30455C13.9723 4.29991 13.9687 4.29505 13.9651 4.29041C13.9571 4.28008 13.9491 4.26953 13.9408 4.2594C13.9372 4.25498 13.9337 4.25055 13.9301 4.24612C13.9216 4.23578 13.9132 4.22544 13.9046 4.21511C13.901 4.21068 13.8972 4.20646 13.8936 4.20203C13.8849 4.19191 13.8763 4.18178 13.8676 4.17187C13.8638 4.16765 13.8603 4.16343 13.8565 4.15921C13.8476 4.14908 13.8387 4.13917 13.8297 4.12926C13.8261 4.12525 13.8223 4.12145 13.8187 4.11744C13.8094 4.10732 13.7999 4.09741 13.7904 4.08749C13.7875 4.08433 13.7843 4.08116 13.7814 4.07821C13.771 4.06766 13.7609 4.05712 13.7504 4.04678C13.7501 4.04657 13.7499 4.04636 13.7497 4.04615C13.7128 4.00944 13.6748 3.9738 13.6356 3.93962C13.6327 3.93709 13.6299 3.93435 13.627 3.93182C13.6168 3.92317 13.6067 3.91452 13.5966 3.90587C13.5922 3.90208 13.5877 3.89828 13.5833 3.89469C13.5738 3.88689 13.5643 3.87909 13.5548 3.87149C13.5493 3.86706 13.5436 3.86242 13.5382 3.85799C13.5293 3.85082 13.5202 3.84386 13.5112 3.8369C13.505 3.83205 13.4987 3.82741 13.4926 3.82255C13.4839 3.81601 13.4751 3.80969 13.4664 3.80315C13.4595 3.79809 13.4525 3.79281 13.4453 3.78775C13.4371 3.78184 13.4289 3.77594 13.4204 3.77003C13.4129 3.76476 13.4053 3.75948 13.3975 3.75421C13.3892 3.74873 13.381 3.74303 13.3728 3.73755C13.3652 3.73248 13.3574 3.72742 13.3498 3.72236C13.3411 3.71687 13.3325 3.71118 13.3238 3.70569C13.316 3.70084 13.3082 3.69599 13.3004 3.69114C13.292 3.68587 13.2836 3.6808 13.2751 3.67553C13.2669 3.67068 13.2585 3.66562 13.2502 3.66076C13.2418 3.65591 13.2336 3.65106 13.2251 3.64621C13.2167 3.64136 13.208 3.63672 13.1996 3.63187C13.1912 3.62723 13.1829 3.62258 13.1745 3.61794C13.1658 3.6133 13.157 3.60866 13.1483 3.60423C13.1399 3.5998 13.1315 3.59537 13.123 3.59094C13.1137 3.5863 13.1043 3.58166 13.0948 3.57702C13.087 3.57301 13.0789 3.56922 13.0711 3.56542C13.061 3.56057 13.0509 3.55593 13.0408 3.55129C13.0332 3.5477 13.0256 3.54412 13.018 3.54074C13.0062 3.53547 12.9944 3.53041 12.9825 3.52513C12.9766 3.5226 12.9707 3.51986 12.9646 3.51733C12.9467 3.50973 12.9285 3.50235 12.9104 3.49518C12.9066 3.4937 12.9026 3.49223 12.8988 3.49075C12.8845 3.48526 12.8701 3.47957 12.8558 3.4743C12.8484 3.47155 12.8412 3.46902 12.8338 3.46649C12.8227 3.46248 12.8113 3.45848 12.8001 3.45447C12.7925 3.45194 12.7849 3.44962 12.7773 3.44708C12.7661 3.44329 12.7547 3.4397 12.7433 3.43612C12.7357 3.43359 12.7282 3.43148 12.7206 3.42916C12.7092 3.42578 12.698 3.42219 12.6866 3.41903C12.6788 3.41671 12.6708 3.4146 12.6628 3.41249C12.6516 3.40933 12.6402 3.40616 12.629 3.40342C12.621 3.40131 12.613 3.39941 12.6052 3.3973C12.5938 3.39435 12.5822 3.39161 12.5708 3.38887C12.563 3.38697 12.555 3.38528 12.547 3.38338C12.5354 3.38085 12.5238 3.37832 12.5122 3.37579C12.5039 3.3741 12.4959 3.37241 12.4877 3.37073C12.4763 3.36841 12.4647 3.3663 12.4533 3.36398C12.4451 3.3625 12.4366 3.36102 12.4284 3.35955C12.4168 3.35744 12.4052 3.35554 12.3934 3.35385C12.3852 3.35258 12.3767 3.35111 12.3685 3.34984C12.3569 3.34816 12.3453 3.34647 12.3337 3.34499C12.3251 3.34394 12.3166 3.34267 12.308 3.34162C12.2962 3.34014 12.2843 3.33887 12.2725 3.33761C12.2643 3.33676 12.2561 3.33571 12.2478 3.33487C12.2348 3.3336 12.2215 3.33234 12.2082 3.33128C12.2012 3.33065 12.1943 3.33001 12.1873 3.32959C12.173 3.32854 12.1584 3.32769 12.1441 3.32685C12.138 3.32643 12.1318 3.32601 12.1255 3.3258C12.1088 3.32495 12.092 3.32432 12.0751 3.3239C12.0713 3.3239 12.0675 3.32348 12.0637 3.32348C12.0428 3.32305 12.0217 3.32263 12.0006 3.32263C11.9806 3.32263 11.9606 3.32284 11.9407 3.32348C11.9359 3.32348 11.931 3.3239 11.9262 3.3239C11.9112 3.32432 11.8962 3.32495 11.8812 3.32558C11.8753 3.3258 11.8694 3.32622 11.8637 3.32643C11.8492 3.32727 11.8348 3.32812 11.8205 3.32917C11.8152 3.32959 11.8099 3.3298 11.8045 3.33044C11.7876 3.3317 11.7707 3.33318 11.754 3.33487C11.7513 3.33508 11.7486 3.33529 11.7458 3.3355C11.7266 3.3374 11.7074 3.33972 11.6884 3.34204C11.6834 3.34267 11.6781 3.34351 11.673 3.34415C11.6591 3.34605 11.645 3.34794 11.6311 3.35005C11.6247 3.3509 11.6184 3.35195 11.6121 3.35301C11.599 3.35512 11.5859 3.35723 11.5728 3.35955C11.5667 3.3606 11.5604 3.36165 11.5543 3.36271C11.5399 3.36524 11.5254 3.36819 11.511 3.37094C11.5068 3.37178 11.5026 3.37262 11.4984 3.37347C11.4796 3.37748 11.4611 3.38148 11.4423 3.3857C11.4389 3.38633 11.4357 3.38718 11.4324 3.38802C11.4174 3.39161 11.4026 3.39519 11.3876 3.39899C11.3813 3.40047 11.375 3.40237 11.3687 3.40384C11.3564 3.40701 11.3444 3.41038 11.3322 3.41376C11.3256 3.41566 11.3191 3.41755 11.3126 3.41924C11.3001 3.42283 11.2877 3.42641 11.2754 3.43021C11.2697 3.4319 11.2642 3.43359 11.2586 3.43527C11.2408 3.44076 11.2233 3.44645 11.2056 3.45236C11.2037 3.45299 11.2018 3.45362 11.2001 3.45426C11.1845 3.45953 11.1689 3.46501 11.1535 3.47071C11.1472 3.47303 11.1408 3.47535 11.1345 3.47788C11.1233 3.4821 11.112 3.48632 11.1008 3.49075C11.0944 3.49328 11.0879 3.49581 11.0816 3.49834C11.07 3.50298 11.0588 3.50762 11.0472 3.51226C11.0411 3.5148 11.0352 3.51733 11.0293 3.51986C11.0164 3.52534 11.0037 3.53104 10.9909 3.53673C10.9867 3.53863 10.9824 3.54053 10.978 3.54243C10.9618 3.54981 10.9455 3.5574 10.9293 3.56521C10.9234 3.56795 10.9177 3.5709 10.912 3.57365C10.9014 3.57871 10.8909 3.58398 10.8803 3.58947C10.8734 3.59305 10.8664 3.59664 10.8595 3.60023C10.8498 3.60529 10.8403 3.61035 10.8308 3.61541C10.824 3.619 10.8173 3.62258 10.8105 3.62638C10.8002 3.63208 10.7898 3.63777 10.7795 3.64368C10.774 3.64684 10.7683 3.65001 10.7628 3.65317C10.7477 3.66203 10.7325 3.67089 10.7173 3.68017C10.712 3.68334 10.7067 3.68671 10.7015 3.68987C10.6913 3.6962 10.6812 3.70253 10.6711 3.70886C10.6646 3.71308 10.658 3.7173 10.6515 3.72173C10.6424 3.72763 10.6335 3.73333 10.6247 3.73944C10.6184 3.74366 10.612 3.74788 10.6059 3.7521C10.5966 3.75843 10.5871 3.76497 10.5781 3.77151C10.5722 3.77552 10.5665 3.77952 10.5606 3.78374C10.5481 3.7926 10.5357 3.80167 10.5234 3.81074C10.207 4.04573 9.94863 4.35454 9.77355 4.71144C9.77334 4.71187 9.77313 4.7125 9.77271 4.71292C9.76617 4.726 9.76005 4.73929 9.75372 4.75258C9.75225 4.75574 9.75077 4.75869 9.74929 4.76186C9.7436 4.7743 9.7379 4.78675 9.73221 4.79941C9.73052 4.8032 9.72883 4.80679 9.72736 4.81058C9.72187 4.82324 9.71639 4.83569 9.71111 4.84855C9.71027 4.85066 9.70943 4.85298 9.70837 4.85509C9.69656 4.88357 9.68538 4.91205 9.67462 4.94094C9.67441 4.94158 9.6742 4.94242 9.67378 4.94305C9.66977 4.95402 9.66576 4.9652 9.66176 4.97638C9.65965 4.9825 9.65733 4.98862 9.65522 4.99494C9.65163 5.00549 9.64804 5.01625 9.64446 5.02701C9.64214 5.03418 9.63982 5.04135 9.6375 5.04852C9.63433 5.05823 9.63138 5.06814 9.62822 5.07805C9.62547 5.0867 9.62294 5.09535 9.62041 5.104C9.61767 5.11307 9.61514 5.12214 9.6124 5.13142C9.60944 5.14155 9.60691 5.15188 9.60417 5.16201C9.60122 5.17319 9.59826 5.18416 9.59552 5.19555C9.59193 5.20947 9.58856 5.22339 9.58518 5.23752C9.5835 5.2449 9.58181 5.2525 9.58012 5.25988C9.57759 5.27106 9.57527 5.28224 9.57274 5.29342C9.57105 5.30144 9.56958 5.30945 9.56789 5.31747C9.56578 5.32822 9.56367 5.33919 9.56156 5.35016C9.56008 5.35797 9.55861 5.36598 9.55734 5.374C9.55523 5.3856 9.55333 5.39741 9.55143 5.40902C9.55017 5.4164 9.54911 5.42357 9.54806 5.43095C9.54574 5.44698 9.54342 5.4628 9.54131 5.47884C9.54089 5.48179 9.54047 5.48474 9.54004 5.48748C9.53772 5.50626 9.53561 5.52524 9.5335 5.54423C9.53287 5.55076 9.53224 5.55709 9.53161 5.56363C9.53034 5.57692 9.52907 5.59021 9.52802 5.6035C9.52739 5.61025 9.52697 5.617 9.52654 5.62375C9.5257 5.63704 9.52486 5.65012 9.52401 5.66341C9.52359 5.67016 9.52317 5.6769 9.52296 5.68365C9.52233 5.69758 9.5219 5.7115 9.52148 5.72563C9.52127 5.73154 9.52106 5.73723 9.52085 5.74314C9.52043 5.76297 9.52 5.7828 9.52 5.80262C9.52 5.82013 9.52022 5.83764 9.52064 5.85515C9.52085 5.8638 9.52106 5.87244 9.52127 5.88109C9.52148 5.88616 9.52169 5.89122 9.5219 5.89649C9.52992 6.11397 9.56599 6.32406 9.62653 6.52361C9.5565 6.62233 9.51536 6.74277 9.51536 6.87292C9.51536 7.20705 9.78642 7.4781 10.1205 7.4781C10.1372 7.4781 10.1537 7.47747 10.1699 7.47599C10.1999 7.50869 10.2307 7.54033 10.2621 7.57155C10.4734 8.08328 10.9042 8.48132 11.4372 8.64817C11.4258 8.64458 11.4144 8.641 11.403 8.6372V8.99537V9.22572L11.0303 9.38624L10.6576 9.54676L10.6584 9.54908C10.1845 9.56912 9.74529 9.72269 9.37741 9.9737C9.36708 9.98087 9.35674 9.98783 9.3464 9.99522C9.3405 9.99944 9.33459 10.0034 9.3289 10.0077C9.31793 10.0155 9.30696 10.0235 9.2962 10.0315C9.29008 10.0359 9.28418 10.0406 9.27806 10.045C9.26983 10.0513 9.26161 10.0577 9.25338 10.064C9.24789 10.0682 9.24262 10.0724 9.23714 10.0766C9.22575 10.0857 9.21457 10.0948 9.20339 10.1038C9.1979 10.1083 9.19242 10.1129 9.18693 10.1176C9.1785 10.1247 9.16985 10.1319 9.16141 10.1391C9.15572 10.1439 9.15002 10.1488 9.14432 10.1538C9.13441 10.1625 9.12471 10.1711 9.115 10.1798C9.10994 10.1842 9.10509 10.1889 9.10003 10.1933C9.08906 10.2034 9.07809 10.2135 9.06733 10.2239C9.06311 10.2279 9.0589 10.2319 9.05468 10.2359C9.04666 10.2437 9.03864 10.2515 9.03063 10.2595C9.0262 10.264 9.02156 10.2684 9.01713 10.273C9.00679 10.2836 8.99646 10.2941 8.98612 10.3047C8.98127 10.3097 8.97642 10.3148 8.97157 10.3199C8.96376 10.3281 8.95596 10.3365 8.94815 10.345C8.94351 10.35 8.93887 10.3551 8.93444 10.3601C8.92537 10.3703 8.91651 10.3804 8.90744 10.3905C8.90322 10.3954 8.89879 10.4004 8.89458 10.4053C8.88487 10.4167 8.87496 10.4281 8.86547 10.4397C8.86188 10.4441 8.85829 10.4483 8.85471 10.4527C8.84711 10.462 8.83952 10.4715 8.83193 10.481C8.82834 10.4854 8.82497 10.4897 8.82159 10.4941C8.8121 10.5061 8.80282 10.5183 8.79375 10.5306C8.78995 10.5354 8.78636 10.5405 8.78257 10.5456C8.77497 10.5559 8.76738 10.566 8.76 10.5766C8.75683 10.581 8.75367 10.5852 8.75051 10.5896C8.74207 10.6015 8.73384 10.6135 8.7254 10.6257C8.72224 10.6306 8.71886 10.6352 8.7157 10.6401C8.70684 10.6531 8.69819 10.6662 8.68975 10.6795C8.68722 10.6833 8.6849 10.6873 8.68237 10.6911C8.6752 10.7025 8.66803 10.7139 8.66107 10.7253C8.65854 10.7293 8.65622 10.7333 8.65368 10.7373C8.64525 10.751 8.63723 10.7649 8.629 10.7789C8.62647 10.7833 8.62394 10.7877 8.62141 10.7921C8.61424 10.805 8.60707 10.8177 8.59989 10.8305C8.59821 10.8335 8.59673 10.8362 8.59504 10.8392C8.58745 10.8531 8.58007 10.8672 8.57268 10.8816C8.57036 10.8862 8.56783 10.8909 8.56551 10.8955C8.55813 10.9101 8.55075 10.9248 8.54357 10.9396C8.54189 10.943 8.5402 10.9465 8.53872 10.9499C8.5324 10.9632 8.52607 10.9765 8.51995 10.99C8.51847 10.9934 8.51679 10.997 8.51531 11.0003C8.50856 11.0155 8.50181 11.0307 8.49527 11.0459C8.49337 11.0505 8.49147 11.0552 8.48958 11.0598C8.48346 11.0742 8.47755 11.0887 8.47186 11.1033C8.47101 11.1054 8.47017 11.1073 8.46933 11.1094C8.463 11.1252 8.45709 11.1412 8.45118 11.1573C8.44971 11.1613 8.44823 11.1655 8.44654 11.1697C8.44064 11.1857 8.43494 11.202 8.42946 11.2182C8.4284 11.2214 8.42735 11.2246 8.42629 11.2277C8.42144 11.2421 8.4168 11.2564 8.41237 11.271C8.41111 11.275 8.40984 11.2788 8.40879 11.2826C8.40372 11.2988 8.39887 11.3153 8.39423 11.3317C8.39297 11.3357 8.39191 11.3397 8.39086 11.344C8.38622 11.3608 8.38157 11.3777 8.37714 11.3948C8.37714 11.3952 8.37693 11.3954 8.37693 11.3958C8.3725 11.4131 8.36829 11.4306 8.36428 11.4482C8.36322 11.4524 8.36238 11.4564 8.36133 11.4606C8.35732 11.4779 8.35352 11.4952 8.34993 11.5125C8.3493 11.5152 8.34888 11.5178 8.34846 11.5205C8.34508 11.5367 8.34213 11.5532 8.33918 11.5694C8.33854 11.5724 8.33812 11.5753 8.33749 11.5781C8.33433 11.5956 8.33158 11.6131 8.32884 11.6306C8.32821 11.6348 8.32757 11.6391 8.32694 11.6433C8.32441 11.6606 8.32188 11.6779 8.31956 11.6954C8.31935 11.6964 8.31935 11.6973 8.31914 11.6983C8.31682 11.7165 8.31471 11.7348 8.31281 11.753C8.31239 11.7568 8.31197 11.7606 8.31154 11.7644C8.30965 11.7825 8.30817 11.8006 8.30669 11.8188C8.30648 11.8217 8.30627 11.8249 8.30606 11.8278C8.30479 11.8447 8.30374 11.8616 8.3029 11.8787C8.30268 11.8814 8.30247 11.8842 8.30247 11.8869C8.30163 11.9055 8.30079 11.9242 8.30036 11.943C8.30036 11.9464 8.30015 11.95 8.30015 11.9533C8.29973 11.9725 8.29952 11.9917 8.29952 12.0111V12.5558C8.29931 12.5556 8.29889 12.5554 8.29868 12.5552C8.28644 12.5455 8.27421 12.5357 8.26197 12.526C8.25733 12.5225 8.25248 12.5187 8.24763 12.5151C8.23603 12.5062 8.22443 12.4974 8.21261 12.4887C8.20839 12.4858 8.20418 12.4826 8.20017 12.4796C8.18962 12.472 8.17886 12.4642 8.16811 12.4566C8.16325 12.4533 8.15861 12.4499 8.15376 12.4465C8.14132 12.4379 8.12887 12.4294 8.11622 12.421C8.11094 12.4174 8.10546 12.4138 8.09997 12.4102C8.09048 12.4041 8.0812 12.398 8.07171 12.3919C8.06665 12.3887 8.06179 12.3856 8.05673 12.3824C8.04407 12.3746 8.03142 12.3668 8.01876 12.3592C8.01307 12.3556 8.00716 12.3522 8.00125 12.3489C7.9905 12.3425 7.97953 12.3362 7.96877 12.3301C7.96181 12.3261 7.95464 12.3221 7.94768 12.3183C7.93797 12.313 7.92827 12.3075 7.91857 12.3022C7.91245 12.2989 7.90612 12.2955 7.90001 12.2923C7.88735 12.2856 7.87448 12.279 7.86161 12.2725C7.85571 12.2695 7.84959 12.2664 7.84347 12.2634C7.83356 12.2586 7.82365 12.2537 7.81373 12.2489C7.80825 12.2463 7.80276 12.2436 7.79728 12.2411C7.78399 12.2347 7.77049 12.2286 7.75699 12.2227C7.75045 12.2198 7.74412 12.217 7.73758 12.2141C7.72725 12.2096 7.71691 12.2052 7.70636 12.2008C7.69729 12.197 7.68843 12.1932 7.67936 12.1896C7.67008 12.1858 7.66059 12.182 7.6511 12.1782C7.64435 12.1757 7.63781 12.1729 7.63106 12.1704C7.61756 12.1653 7.60406 12.1603 7.59056 12.1552C7.58402 12.1529 7.57727 12.1506 7.57073 12.148C7.56103 12.1447 7.55132 12.1413 7.54162 12.1379C7.53339 12.1352 7.52517 12.1322 7.51694 12.1297C7.50492 12.1257 7.49311 12.1219 7.48108 12.1181C7.47412 12.116 7.46716 12.1139 7.4602 12.1118C7.44881 12.1084 7.43763 12.105 7.42624 12.1018C6.99783 11.9789 6.53186 11.9709 6.07497 12.1012V12.0987L5.26645 12.0282L5.1941 11.8097L5.08146 11.4697C5.07302 11.476 5.06458 11.4821 5.05615 11.4882C5.06648 11.4809 5.07682 11.4733 5.08694 11.4657C5.12364 11.4378 5.15929 11.4089 5.19368 11.3788C5.25105 11.3286 5.30505 11.275 5.35547 11.2187C5.37572 11.1961 5.39512 11.1731 5.41432 11.1497C5.44279 11.1145 5.47 11.0784 5.49574 11.0413C5.5818 10.9179 5.65289 10.7843 5.70731 10.6441C5.71828 10.616 5.7284 10.5877 5.7379 10.5591C5.78726 10.4114 5.81826 10.257 5.82965 10.0994C5.8499 10.06 5.8691 10.0201 5.88724 9.97982C5.90306 9.97602 5.91888 9.97138 5.9347 9.96632C6.25195 9.86127 6.42408 9.51871 6.31903 9.20146C6.27811 9.07785 6.20111 8.9766 6.10366 8.90467C6.09839 8.69584 6.06633 8.48448 6.00558 8.27544C6.00431 8.27101 6.00304 8.2668 6.00178 8.26237C5.99925 8.25393 5.99672 8.24549 5.99418 8.23705C5.98912 8.22018 5.98385 8.20351 5.97815 8.18664C5.97183 8.16766 5.96529 8.14909 5.95875 8.13032C5.95664 8.12462 5.95453 8.11893 5.95242 8.11323C5.94778 8.10058 5.94293 8.08771 5.93808 8.07505C5.93554 8.0683 5.9328 8.06155 5.93027 8.0548C5.92563 8.04299 5.92078 8.03118 5.91593 8.01958C5.91318 8.01283 5.91044 8.00629 5.9077 7.99954C5.90264 7.9873 5.89736 7.97528 5.89188 7.96326C5.88935 7.95735 5.88682 7.95166 5.88429 7.94575C5.87648 7.92824 5.86847 7.91094 5.86024 7.89365C5.85897 7.89133 5.85792 7.8888 5.85665 7.88647C5.84948 7.87171 5.84231 7.85715 5.83514 7.84281C5.83155 7.83585 5.82797 7.82889 5.82438 7.82193C5.81911 7.8118 5.81383 7.80168 5.80856 7.79176C5.80455 7.78459 5.80076 7.77721 5.79675 7.77004C5.79126 7.76012 5.78599 7.75042 5.78029 7.74072C5.77629 7.73376 5.77228 7.72679 5.76827 7.71983C5.76279 7.71034 5.7573 7.70106 5.75161 7.69178C5.74718 7.6844 5.74296 7.67722 5.73853 7.67005C5.73093 7.65761 5.72313 7.64516 5.71533 7.63293C5.70963 7.62386 5.70372 7.61479 5.69782 7.60572C5.69191 7.59665 5.686 7.58758 5.67989 7.57872C5.6744 7.5707 5.66892 7.56269 5.66343 7.55467C5.65837 7.54729 5.65331 7.54012 5.64825 7.53294C5.64234 7.52472 5.63643 7.51628 5.63053 7.50826C5.62589 7.50172 5.62104 7.4954 5.6164 7.48886C5.61007 7.48021 5.60353 7.47156 5.59699 7.46291C5.59277 7.45743 5.58834 7.45173 5.58412 7.44625C5.55712 7.41144 5.52949 7.37748 5.5008 7.34437C5.49996 7.34331 5.4989 7.34226 5.49806 7.3412C5.48857 7.33023 5.47886 7.31948 5.46937 7.30872C5.46726 7.3064 5.46515 7.30408 5.46325 7.30197C5.45334 7.29121 5.44343 7.28045 5.43351 7.26969C5.43204 7.26801 5.43035 7.26632 5.42887 7.26484C5.14411 6.96341 4.78889 6.7394 4.39908 6.61073C4.38515 6.6063 4.37123 6.60165 4.35731 6.59744C4.35014 6.59533 4.34297 6.59322 4.33579 6.5909C4.32525 6.58773 4.3147 6.58457 4.30415 6.58162C4.29656 6.57951 4.28918 6.5774 4.28158 6.57529C4.27125 6.57234 4.26112 6.5698 4.25079 6.56706C4.24319 6.56516 4.2356 6.56305 4.228 6.56116C4.21682 6.55841 4.20543 6.55567 4.19404 6.55293C4.18772 6.55145 4.18139 6.54977 4.17485 6.54829C4.15797 6.54449 4.14089 6.54069 4.1238 6.53711C4.11705 6.53563 4.11009 6.53437 4.10313 6.5331C4.09195 6.53099 4.08077 6.52867 4.06959 6.52656C4.062 6.52508 4.05419 6.52382 4.0466 6.52255C4.03584 6.52066 4.02508 6.51897 4.01454 6.51728C4.00694 6.51601 3.99956 6.51496 3.99197 6.51369C3.98058 6.51201 3.96897 6.51032 3.95758 6.50884C3.95083 6.508 3.94387 6.50694 3.93712 6.5061C3.9194 6.50378 3.90168 6.50167 3.88397 6.49977C3.87996 6.49935 3.87574 6.49914 3.87173 6.49872C3.85739 6.49724 3.84304 6.49597 3.8287 6.49471C3.82216 6.49408 3.81541 6.49366 3.80866 6.49323C3.79685 6.49239 3.78525 6.49155 3.77343 6.49091C3.76584 6.49049 3.75825 6.49007 3.75065 6.48965C3.73905 6.48902 3.72745 6.48859 3.71585 6.48817C3.70889 6.48796 3.70214 6.48754 3.69518 6.48733C3.6783 6.48691 3.66143 6.48648 3.64455 6.48627C3.64307 6.48627 3.64139 6.48627 3.63991 6.48627C3.62156 6.48606 3.603 6.48627 3.58465 6.48669C3.57853 6.48669 3.5722 6.48691 3.56608 6.48712C3.55321 6.48733 3.54056 6.48775 3.52769 6.48838C3.52094 6.48859 3.5144 6.48901 3.50765 6.48922C3.495 6.48986 3.48234 6.49049 3.46947 6.49133C3.46314 6.49176 3.45703 6.49218 3.4507 6.4926C3.43551 6.49366 3.42011 6.49492 3.40493 6.49619C3.40134 6.49661 3.39776 6.49682 3.39417 6.49703C3.3754 6.49872 3.35662 6.50083 3.33785 6.50294C3.33279 6.50357 3.32751 6.5042 3.32245 6.50484C3.30853 6.50652 3.29482 6.50842 3.28111 6.51032C3.27478 6.51116 3.26824 6.51222 3.26191 6.51306C3.24883 6.51496 3.23597 6.51707 3.22289 6.51918C3.21677 6.52023 3.21044 6.52129 3.20433 6.52234C3.18956 6.52487 3.17479 6.52762 3.16003 6.53036C3.15602 6.5312 3.1518 6.53183 3.14779 6.53268C3.12839 6.53648 3.10919 6.54048 3.08979 6.5447C3.0881 6.54512 3.08662 6.54555 3.08493 6.54576C3.06785 6.54955 3.05076 6.55356 3.03368 6.55778C3.02798 6.55926 3.02208 6.56073 3.01617 6.56221C3.00288 6.56558 2.98938 6.56917 2.97609 6.57276C2.97018 6.57444 2.96407 6.57613 2.95816 6.57761C2.94403 6.58162 2.92989 6.58562 2.91576 6.58984C2.91091 6.59132 2.90606 6.5928 2.901 6.59427C2.88201 6.59997 2.86303 6.60608 2.84425 6.6122C2.82422 6.61895 2.80439 6.6257 2.78456 6.63287C2.78118 6.63414 2.77802 6.63541 2.77486 6.63646C2.75882 6.64237 2.74258 6.64827 2.72676 6.65439C2.72086 6.65671 2.71495 6.65924 2.70925 6.66135C2.69618 6.66662 2.6831 6.67169 2.67002 6.67717C2.66306 6.68012 2.6561 6.68308 2.64914 6.68603C2.63732 6.69109 2.6253 6.69616 2.61349 6.70143C2.60611 6.70459 2.59893 6.70797 2.59176 6.71134C2.58058 6.7164 2.56961 6.72147 2.55843 6.72674C2.55063 6.73033 2.54303 6.73412 2.53544 6.73792C2.52489 6.74298 2.51435 6.74826 2.50401 6.75353C2.49642 6.75754 2.48861 6.76134 2.48102 6.76534C2.47068 6.77062 2.46056 6.7761 2.45022 6.78137C2.44242 6.78559 2.43482 6.7896 2.42723 6.79403C2.41732 6.79951 2.40719 6.805 2.39728 6.81069C2.38989 6.81491 2.38251 6.81913 2.37513 6.82335C2.36522 6.82904 2.35551 6.83495 2.3456 6.84086C2.338 6.8455 2.33041 6.84993 2.32282 6.85457C2.31332 6.86048 2.30383 6.86638 2.29434 6.8725C2.28717 6.87693 2.28 6.88157 2.27282 6.88621C2.26312 6.89254 2.25363 6.89887 2.24414 6.90519C2.23697 6.90983 2.23 6.91469 2.22283 6.91933C2.21334 6.92587 2.20406 6.93241 2.19478 6.93894C2.18803 6.9438 2.18128 6.94844 2.17453 6.95329C2.16504 6.96004 2.15597 6.967 2.14668 6.97375C2.13993 6.9786 2.1334 6.98345 2.12665 6.98851C2.11652 6.99611 2.10661 7.00391 2.09669 7.01172C2.09121 7.01594 2.08593 7.02015 2.08045 7.02437C2.06779 7.0345 2.05535 7.04462 2.0429 7.05496C2.04016 7.05728 2.03742 7.05939 2.03468 7.06171C2.0197 7.07416 2.00493 7.08681 1.99038 7.09968C1.98468 7.10474 1.97899 7.1098 1.97329 7.11487C1.96465 7.12267 1.95579 7.13048 1.94714 7.13828C1.93997 7.14482 1.933 7.15157 1.92604 7.15811C1.91887 7.16486 1.9117 7.1714 1.90474 7.17815C1.89778 7.18469 1.89103 7.19165 1.88428 7.19819C1.87711 7.20515 1.87014 7.21211 1.86318 7.21928C1.85622 7.22624 1.84926 7.23341 1.84251 7.24058C1.83597 7.24733 1.82943 7.25409 1.82311 7.26084C1.81614 7.26801 1.80939 7.27539 1.80264 7.28277C1.79632 7.28973 1.78978 7.29669 1.78366 7.30365C1.7767 7.31125 1.76995 7.31905 1.7632 7.32665C1.75729 7.33319 1.7516 7.33994 1.7459 7.34648C1.73894 7.35449 1.73219 7.36251 1.72544 7.37073C1.71975 7.37748 1.71426 7.38423 1.70857 7.39098C1.70203 7.399 1.69549 7.40701 1.68895 7.41524C1.68325 7.4222 1.67777 7.42937 1.67229 7.43634C1.66596 7.44456 1.65963 7.45258 1.6533 7.46101C1.64803 7.46798 1.64275 7.47515 1.63748 7.48211C1.63115 7.49055 1.62482 7.49919 1.6185 7.50763C1.61364 7.51438 1.60879 7.52113 1.60394 7.52788C1.59761 7.53674 1.59129 7.5456 1.58517 7.55467C1.58053 7.56121 1.5761 7.56796 1.57167 7.5745C1.56534 7.58399 1.5588 7.59348 1.55268 7.60276C1.54868 7.60888 1.54467 7.615 1.54087 7.62112C1.53454 7.63103 1.528 7.64094 1.52189 7.65107C1.5183 7.65698 1.51472 7.66288 1.51113 7.66879C1.50459 7.67933 1.49805 7.68988 1.49172 7.70064C1.48982 7.70401 1.48793 7.70739 1.48603 7.71055C1.45966 7.75548 1.43477 7.80105 1.41136 7.84745C1.41115 7.84787 1.41093 7.84808 1.41072 7.84851C1.40397 7.8618 1.39743 7.87551 1.3909 7.88901C1.38921 7.89259 1.38731 7.89618 1.38562 7.89976C1.3795 7.91284 1.37339 7.92571 1.36748 7.939C1.36558 7.94322 1.36368 7.94744 1.36179 7.95166C1.3563 7.96389 1.35103 7.97612 1.34575 7.98836C1.34343 7.99384 1.34111 7.99912 1.33879 8.0046C1.33373 8.01662 1.32888 8.02865 1.32403 8.04088C1.32192 8.04637 1.3196 8.05185 1.31749 8.05734C1.31264 8.06978 1.30779 8.08222 1.30315 8.09467C1.30125 8.09994 1.29914 8.10522 1.29724 8.11049C1.2926 8.12315 1.28817 8.1358 1.28374 8.14846C1.28184 8.15373 1.27994 8.15922 1.27804 8.16449C1.27382 8.17715 1.26961 8.18959 1.26539 8.20225C1.2637 8.20773 1.2618 8.21322 1.26011 8.2187C1.25611 8.23157 1.2521 8.24423 1.2483 8.25709C1.24682 8.26237 1.24514 8.26764 1.24366 8.27291C1.23986 8.28599 1.23607 8.29907 1.23248 8.31236C1.23122 8.31721 1.22974 8.32227 1.22847 8.32733C1.22489 8.34105 1.2213 8.35476 1.21793 8.36847C1.21687 8.37269 1.21582 8.3769 1.21476 8.38112C1.21118 8.39568 1.2078 8.41044 1.20443 8.42521C1.20379 8.42795 1.20316 8.43069 1.20274 8.43323C1.19915 8.44926 1.19578 8.4655 1.1924 8.48174C1.19219 8.48216 1.19219 8.4828 1.19219 8.48322C1.16667 8.61062 1.15127 8.74077 1.14621 8.87219C1.14621 8.87324 1.146 8.87451 1.146 8.87556C1.14536 8.89244 1.14494 8.90931 1.14473 8.92619C1.14473 8.92872 1.14452 8.93125 1.14452 8.93378C1.14431 8.95002 1.14431 8.96647 1.14431 8.98272V8.992C1.14452 9.00803 1.14494 9.02427 1.14536 9.04051C1.14536 9.04368 1.14557 9.04684 1.14557 9.05001C1.14621 9.06604 1.14684 9.08186 1.14768 9.09789C1.1479 9.10148 1.14811 9.10506 1.14832 9.10865C1.14916 9.12426 1.15022 9.13987 1.15148 9.15569C1.1519 9.15948 1.15211 9.16349 1.15232 9.16729C1.15359 9.18311 1.15507 9.19914 1.15675 9.21496C1.15718 9.21812 1.15739 9.22108 1.15781 9.22424C1.1595 9.24069 1.16139 9.25694 1.1635 9.27318C1.16393 9.27613 1.16435 9.2793 1.16477 9.28225C1.16688 9.29912 1.1692 9.31579 1.17173 9.33266C1.17194 9.33414 1.17215 9.3354 1.17236 9.33688C1.19325 9.47357 1.22552 9.61047 1.27045 9.7461C1.34934 9.98425 1.46093 10.2021 1.59846 10.3971C1.56302 10.5129 1.56175 10.6401 1.60268 10.7637C1.70772 11.0809 2.05007 11.253 2.36754 11.148C2.38336 11.1427 2.39875 11.1368 2.41373 11.1305C2.45233 11.152 2.49157 11.1727 2.53143 11.1921C2.89045 11.6087 3.4199 11.8504 3.97425 11.8447C3.96602 11.8447 3.95779 11.8449 3.94957 11.8449L4.13456 12.4035L3.52811 12.9426L3.52959 12.9445C3.08599 13.1125 2.71748 13.3964 2.44706 13.7501C2.43946 13.7602 2.43187 13.7704 2.42428 13.7805C2.42006 13.7862 2.41584 13.7919 2.41162 13.7976C2.40382 13.8081 2.39622 13.8189 2.38863 13.8296C2.38399 13.8362 2.37956 13.8427 2.37513 13.8493C2.36922 13.8579 2.36332 13.8666 2.35741 13.8752C2.35361 13.8809 2.34982 13.8866 2.34602 13.8925C2.338 13.9047 2.32999 13.9172 2.32218 13.9294C2.3186 13.9351 2.31522 13.9406 2.31164 13.9463C2.30573 13.9558 2.29982 13.9653 2.29413 13.975C2.28991 13.9821 2.28548 13.9891 2.28126 13.9963C2.27515 14.0066 2.26924 14.0167 2.26333 14.0271C2.25954 14.0336 2.25595 14.0402 2.25236 14.0467C2.24519 14.0596 2.23823 14.0722 2.23127 14.0851C2.22853 14.0901 2.226 14.095 2.22347 14.1001C2.21798 14.1104 2.21271 14.1209 2.20722 14.1313C2.20448 14.1368 2.20174 14.142 2.199 14.1475C2.19246 14.1608 2.18592 14.1741 2.17959 14.1874C2.17664 14.1937 2.17368 14.1998 2.17073 14.2062C2.16609 14.2163 2.16145 14.2264 2.15681 14.2365C2.15343 14.2441 2.15006 14.2517 2.14668 14.2593C2.14183 14.2705 2.13698 14.2817 2.13213 14.2931C2.12939 14.2994 2.12686 14.3059 2.12411 14.3123C2.11863 14.3258 2.11293 14.3395 2.10766 14.3532C2.10534 14.3589 2.10323 14.3648 2.10112 14.3705C2.09711 14.381 2.09311 14.3916 2.08931 14.4021C2.0872 14.4078 2.08509 14.4137 2.08298 14.4194C2.07792 14.4336 2.07307 14.4479 2.06822 14.462C2.06611 14.4679 2.06421 14.4738 2.06231 14.48C2.05851 14.4918 2.0545 14.5038 2.05092 14.5156C2.04902 14.5215 2.04733 14.5272 2.04543 14.5331C2.04121 14.5466 2.03742 14.5601 2.03341 14.5736C2.03193 14.5791 2.03025 14.5846 2.02877 14.5903C2.02455 14.6055 2.02054 14.6204 2.01654 14.6356C2.01527 14.6407 2.014 14.6458 2.01274 14.6506C2.00979 14.6626 2.00683 14.6747 2.00409 14.6867C2.00282 14.6922 2.00156 14.6976 2.00029 14.7033C1.99692 14.7185 1.99354 14.7335 1.99038 14.7487C1.98911 14.7544 1.98806 14.7601 1.98679 14.7658C1.98405 14.7791 1.98152 14.7924 1.9792 14.8059C1.97836 14.8105 1.97751 14.8149 1.97667 14.8196C1.97414 14.8343 1.97161 14.8493 1.96929 14.8643C1.96844 14.8698 1.9676 14.875 1.96675 14.8805C1.96443 14.8964 1.96211 14.9122 1.96 14.9282C1.95937 14.9328 1.95874 14.9375 1.95832 14.9421C1.95663 14.9556 1.95494 14.9691 1.95347 14.9826C1.95304 14.9871 1.95241 14.9915 1.95199 14.9961C1.9503 15.0122 1.94882 15.0284 1.94756 15.0444C1.94714 15.0499 1.94671 15.0556 1.94629 15.0611C1.94524 15.0759 1.94418 15.0906 1.94334 15.1054C1.94313 15.1083 1.94292 15.1113 1.94271 15.1142C1.94186 15.1307 1.94123 15.1469 1.9406 15.1634C1.94039 15.1685 1.94018 15.1733 1.94018 15.1784C1.93975 15.195 1.93933 15.2119 1.93933 15.2288V15.2395C1.93933 15.2545 1.93933 15.2697 1.93954 15.2847C1.93954 15.2885 1.93954 15.2925 1.93975 15.2963C1.94018 15.3134 1.9406 15.3305 1.94123 15.3475C1.94144 15.352 1.94165 15.3566 1.94186 15.361C1.94271 15.3781 1.94355 15.3952 1.94482 15.4123V15.4144C1.94608 15.4321 1.94756 15.4498 1.94904 15.4676C1.94946 15.472 1.94988 15.4766 1.9503 15.4811C1.95199 15.4982 1.95368 15.5155 1.95579 15.5325C1.95621 15.5361 1.95663 15.5397 1.95705 15.5433C1.95895 15.5589 1.96106 15.5745 1.96317 15.5901C1.96359 15.5933 1.96401 15.5967 1.96465 15.5998C1.96718 15.6173 1.96992 15.6346 1.97287 15.6521C1.9735 15.6566 1.97435 15.6608 1.97519 15.6652C1.97836 15.684 1.98173 15.7026 1.98553 15.7213C1.05403 15.7846 0.310472 16.5322 0.253308 17.4654C0.253308 17.466 0.253308 17.4666 0.253097 17.4673C0.252464 17.4778 0.251833 17.4883 0.251411 17.4989C0.2512 17.505 0.250989 17.5111 0.250778 17.5172C0.250567 17.5242 0.250355 17.5312 0.250144 17.5383C0.249722 17.5525 0.249512 17.5668 0.249512 17.5812V17.5814C0.249512 17.6136 0.250356 17.6455 0.251832 17.6773C0.25352 17.7092 0.255839 17.7406 0.259004 17.7721C0.260691 17.7877 0.262379 17.8033 0.264277 17.8189C0.380926 18.7365 1.16435 19.4458 2.11357 19.4458H2.28949C2.98284 21.8957 4.25437 24.1434 5.99735 25.9995L9.17217 29.3808L10.0938 33.6818C10.117 33.7902 10.2129 33.8679 10.3237 33.8679H13.6721C13.7831 33.8679 13.8788 33.7904 13.902 33.6818L14.8236 29.3808L17.9986 25.9993C19.7414 24.143 21.0129 21.8955 21.7063 19.4456H21.8822C22.8314 19.4456 23.6151 18.7363 23.7315 17.8187C23.7334 17.8031 23.7353 17.7875 23.7368 17.7718C23.7399 17.7404 23.7425 17.709 23.7439 17.6771C23.7456 17.6453 23.7465 17.6134 23.7465 17.5812V17.581C23.7488 17.5664 23.7486 17.5523 23.7482 17.5379V17.5379ZM8.30479 15.7165L9.10235 15.4524C9.33227 15.3762 9.47655 15.1604 9.47233 14.9303C9.47212 14.9206 9.4717 14.9109 9.47086 14.9012C9.46917 14.8767 9.46558 14.8525 9.46031 14.828C9.4563 14.8088 9.45103 14.7894 9.4447 14.7704L9.08906 13.6965C9.08737 13.6917 9.0859 13.687 9.08421 13.6822H14.9152C14.9135 13.687 14.9118 13.6917 14.9103 13.6965L14.5547 14.7704C14.5483 14.7898 14.5431 14.8094 14.5391 14.8288C14.534 14.8529 14.5304 14.8772 14.5287 14.9012C14.5281 14.9109 14.5275 14.9206 14.5272 14.9303C14.5249 15.063 14.572 15.191 14.6561 15.2902C14.6673 15.3035 14.6793 15.3161 14.6918 15.3281C14.7483 15.3828 14.8175 15.4258 14.8972 15.4522L15.6948 15.7163H8.30479V15.7165Z" fill="#382B73"/>
<path d="M15.1595 12.2059H8.84085C8.54279 12.2059 8.30127 11.9644 8.30127 11.6663V10.535C8.30127 9.17428 9.40426 8.07129 10.765 8.07129H13.2355C14.5963 8.07129 15.6993 9.17428 15.6993 10.535V11.6663C15.6991 11.9644 15.4575 12.2059 15.1595 12.2059V12.2059Z" fill="#1CAEE4"/>
<path d="M14.6152 8.4939V12.206H15.1595C15.4575 12.206 15.699 11.9645 15.699 11.6664V10.5351C15.6992 9.6859 15.2693 8.93687 14.6152 8.4939Z" fill="#009ADD"/>
<path d="M13.3414 8.0715L12.5962 7.75024V8.0715L12 9.00047L11.4039 8.0715V7.75024L10.6587 8.0715L12 11.7112L13.3414 8.0715Z" fill="#D1D3D4"/>
<path d="M10.6587 8.0715L11.2219 9.59827C11.2447 9.65986 11.3236 9.67716 11.37 9.63075L12 9.00047L11.4039 8.07129V7.75024L10.6587 8.0715Z" fill="white"/>
<path d="M13.3414 8.0715L12.7781 9.59827C12.7554 9.65986 12.6765 9.67716 12.6301 9.63075L12 9.00047L12.5961 8.07129V7.75024L13.3414 8.0715Z" fill="white"/>
<path d="M11.9999 7.25872C11.7915 7.25872 11.5911 7.22476 11.4038 7.16211V7.81602V8.07167L11.9999 9.00064L12.596 8.07146V7.97274V7.16211C12.4087 7.22476 12.2083 7.25872 11.9999 7.25872V7.25872Z" fill="#E6E7E8"/>
<path d="M12.4991 9.49933L12.1272 9.87121C12.057 9.94145 11.9431 9.94145 11.8729 9.87121L11.501 9.49933L12.0001 9.00024L12.4991 9.49933Z" fill="#1CAEE4"/>
<path d="M12.1271 9.8713C12.0569 9.94155 11.9429 9.94155 11.8727 9.8713L11.7453 9.7439L11.6348 10.7203L11.9999 11.7115L12.365 10.7203L12.2545 9.7439L12.1271 9.8713Z" fill="#009ADD"/>
<path d="M10.2403 9.66996L10.5576 9.39026C10.6162 9.33858 10.5854 9.24176 10.5076 9.23332L10.1351 9.19345C10.0771 9.18734 10.0402 9.12827 10.0602 9.07343L10.4141 8.09658C10.4951 8.08498 10.577 8.07675 10.6597 8.07422L11.9998 11.7114L10.2336 9.79842C10.1994 9.76151 10.2024 9.7035 10.2403 9.66996V9.66996Z" fill="#27C1E6"/>
<path d="M13.7594 9.66996L13.4422 9.39026C13.3835 9.33858 13.4143 9.24176 13.4922 9.23332L13.8647 9.19345C13.9227 9.18734 13.9596 9.12827 13.9398 9.07343L13.5858 8.09658C13.5048 8.08498 13.423 8.07675 13.3403 8.07422L12 11.7114L13.7662 9.79842C13.8004 9.76151 13.7974 9.7035 13.7594 9.66996V9.66996Z" fill="#27C1E6"/>
<path d="M14.1894 11.4582H12.9752C12.9054 11.4582 12.8486 11.5147 12.8486 11.5848C12.8486 11.6546 12.9054 11.7113 12.9752 11.7113H14.1894C14.2592 11.7113 14.3159 11.6548 14.3159 11.5848C14.3159 11.5149 14.2592 11.4582 14.1894 11.4582Z" fill="#27C1E6"/>
<path d="M9.38479 12.206V8.4939C8.73067 8.93687 8.30078 9.6859 8.30078 10.5353V11.6666C8.30078 11.9647 8.54231 12.2062 8.84036 12.2062H9.38479V12.206Z" fill="#009ADD"/>
<path d="M13.7489 6.08197C14.7171 5.11379 14.7171 3.54405 13.7489 2.57586C12.7807 1.60768 11.211 1.60768 10.2428 2.57586C9.27461 3.54405 9.27461 5.11379 10.2428 6.08197C11.211 7.05016 12.7807 7.05016 13.7489 6.08197Z" fill="#009ADD"/>
<path d="M11.9999 7.25868C10.9623 7.25868 10.1211 6.41746 10.1211 5.37986V4.40427C10.1211 3.36667 10.9623 2.52545 11.9999 2.52545C13.0375 2.52545 13.8787 3.36667 13.8787 4.40427V5.37986C13.8787 6.41746 13.0375 7.25868 11.9999 7.25868Z" fill="white"/>
<path d="M11.9999 7.25872C11.7915 7.25872 11.5911 7.22476 11.4038 7.16211V7.52028C11.5913 7.58314 11.7913 7.61837 11.9999 7.61837C12.2085 7.61837 12.4085 7.58293 12.596 7.52028V7.16211C12.4087 7.22476 12.2083 7.25872 11.9999 7.25872Z" fill="#D1D3D4"/>
<path d="M10.1213 5.37946V4.79242C9.78696 4.79242 9.51611 5.06347 9.51611 5.3976C9.51611 5.73194 9.78717 6.00278 10.1213 6.00278C10.1563 6.00278 10.1907 5.99982 10.224 5.99413C10.1574 5.80154 10.1213 5.59483 10.1213 5.37946Z" fill="white"/>
<path d="M13.8788 4.79242V5.37946C13.8788 5.59462 13.8425 5.80133 13.7759 5.99392C13.8092 5.99962 13.8436 6.00257 13.8788 6.00257C14.2131 6.00257 14.484 5.73151 14.484 5.39739C14.484 5.06326 14.2131 4.79242 13.8788 4.79242Z" fill="white"/>
<path d="M11.9999 6.98868C10.9623 6.98868 10.1211 6.14746 10.1211 5.10986V5.37965C10.1211 6.41726 10.9623 7.25847 11.9999 7.25847C13.0375 7.25847 13.8787 6.41726 13.8787 5.37965V5.10986C13.8787 6.14768 13.0375 6.98868 11.9999 6.98868Z" fill="#E6E7E8"/>
<path d="M10.1211 4.40423V4.77421C10.8556 4.34601 11.3502 3.55246 11.3538 2.64185C10.6349 2.90573 10.1211 3.59423 10.1211 4.40423Z" fill="#E6E7E8"/>
<path d="M12.9847 4.84103C13.3003 4.84103 13.6013 4.78028 13.8789 4.6727V4.40397C13.8789 3.36637 13.0376 2.52515 12 2.52515C11.4569 2.52515 10.969 2.75697 10.626 3.12569C10.9481 4.12089 11.8819 4.84103 12.9847 4.84103Z" fill="#E6E7E8"/>
<path d="M10.5176 2.33975C10.642 3.59271 11.699 4.57125 12.9847 4.57125C13.5405 4.57125 14.0537 4.38837 14.4672 4.07935C14.3427 2.82638 13.2857 1.84784 12 1.84784C11.4442 1.84784 10.931 2.03072 10.5176 2.33975V2.33975Z" fill="#1CAEE4"/>
<path d="M9.52051 4.32724C9.52051 4.44009 9.52873 4.55105 9.54329 4.65989C10.5876 4.36795 11.3542 3.40987 11.3542 2.27229C11.3542 2.15943 11.346 2.04848 11.3314 1.93964C10.2868 2.23157 9.52051 3.18944 9.52051 4.32724Z" fill="#009ADD"/>
<path d="M11.4279 5.1333C11.4279 5.25902 11.326 5.3609 11.2003 5.3609C11.0745 5.3609 10.9727 5.25902 10.9727 5.1333C10.9727 5.00758 11.0745 4.9057 11.2003 4.9057C11.326 4.9057 11.4279 5.00758 11.4279 5.1333Z" fill="#1CAEE4"/>
<path d="M13.194 5.1333C13.194 5.25902 13.0921 5.3609 12.9664 5.3609C12.8407 5.3609 12.7388 5.25902 12.7388 5.1333C12.7388 5.00758 12.8407 4.9057 12.9664 4.9057C13.0921 4.9057 13.194 5.00758 13.194 5.1333Z" fill="#1CAEE4"/>
<path d="M10.1213 5.37926V5.04956C9.92911 5.04956 9.77344 5.20523 9.77344 5.3974C9.77344 5.58956 9.92911 5.74523 10.1213 5.74523C10.1335 5.74523 10.1451 5.74291 10.1569 5.74165C10.1339 5.62436 10.1213 5.50329 10.1213 5.37926Z" fill="#E6E7E8"/>
<path d="M13.8809 5.37926V5.04956C14.073 5.04956 14.2287 5.20523 14.2287 5.3974C14.2287 5.58956 14.073 5.74523 13.8809 5.74523C13.8686 5.74523 13.857 5.74291 13.8452 5.74165C13.868 5.62436 13.8809 5.50329 13.8809 5.37926Z" fill="#E6E7E8"/>
<path d="M20.8956 15.9625L14.8974 13.9759C14.6145 13.8823 14.4612 13.5768 14.5548 13.294L14.9105 12.2201C15.3383 10.9285 16.7321 10.2282 18.0239 10.656L20.3691 11.4327C21.6609 11.8604 22.3612 13.2543 21.9332 14.5461L21.5776 15.62C21.4837 15.9029 21.1785 16.0562 20.8956 15.9625V15.9625Z" fill="#1CAEE4"/>
<path d="M21.546 12.2676L20.3789 15.7916L20.8957 15.9626C21.1786 16.0563 21.484 15.9029 21.5777 15.6201L21.9333 14.5462C22.2004 13.74 22.0276 12.8937 21.546 12.2676V12.2676Z" fill="#009ADD"/>
<path d="M20.4702 11.4661L19.8638 10.927L19.7627 11.2318L18.9046 11.9264L18.6308 10.857L18.7319 10.5519L17.9233 10.6226L18.0524 14.4996L20.4702 11.4661Z" fill="#D1D3D4"/>
<path d="M17.9233 10.6225L17.978 12.2491C17.9803 12.3147 18.0497 12.3558 18.1083 12.3265L18.9046 11.9263L18.6308 10.8569L18.7319 10.5521L17.9233 10.6225Z" fill="white"/>
<path d="M20.4699 11.4663L19.4551 12.7386C19.4141 12.7899 19.3338 12.7817 19.3044 12.723L18.9043 11.9267L19.7624 11.2321L19.8634 10.9273L20.4699 11.4663Z" fill="white"/>
<path d="M19.4525 10.2726C19.2546 10.207 19.0751 10.1119 18.9169 9.99353L18.7112 10.6141L18.6309 10.8569L18.9047 11.9263L19.7628 11.2317L19.7938 11.1381L20.0488 10.3682C19.8513 10.3688 19.6503 10.338 19.4525 10.2726V10.2726Z" fill="#E6E7E8"/>
<path d="M19.2215 12.5573L18.7515 12.7934C18.6627 12.8381 18.5545 12.8022 18.51 12.7134L18.2739 12.2435L18.9046 11.9266L19.2215 12.5573Z" fill="#1CAEE4"/>
<path d="M18.7516 12.7933C18.6628 12.8378 18.5548 12.8021 18.5101 12.7133L18.4291 12.5522L18.0171 13.4444L18.0521 14.5002L18.7104 13.6742L18.9125 12.7125L18.7516 12.7933Z" fill="#009ADD"/>
<path d="M17.0234 12.0089L17.4126 11.8431C17.4845 11.8123 17.4858 11.7108 17.4145 11.6783L17.0734 11.5235C17.0203 11.4992 17.0038 11.4317 17.0399 11.386L17.683 10.5701C17.7636 10.5844 17.8438 10.6023 17.9233 10.626L18.052 14.5L16.9768 12.1289C16.9559 12.0827 16.977 12.0287 17.0234 12.0089V12.0089Z" fill="#27C1E6"/>
<path d="M20.3641 13.1155L20.1509 12.7501C20.1114 12.6826 20.1711 12.6004 20.2475 12.6168L20.6137 12.6961C20.6708 12.7086 20.7242 12.6641 20.7227 12.6059L20.6938 11.5672C20.6206 11.5307 20.5455 11.4972 20.4679 11.4687L18.0522 14.5001L20.3302 13.2395C20.374 13.215 20.3894 13.1591 20.3641 13.1155Z" fill="#27C1E6"/>
<path d="M20.2105 14.9477L19.0579 14.5659C18.9917 14.544 18.9202 14.5798 18.898 14.6463C18.8761 14.7125 18.912 14.7842 18.9784 14.8062L20.131 15.1879C20.1972 15.2099 20.2689 15.174 20.2909 15.1076C20.3126 15.0411 20.2767 14.9696 20.2105 14.9477Z" fill="#27C1E6"/>
<path d="M15.4142 14.147L16.5813 10.6231C15.8211 10.8381 15.1775 11.4137 14.9105 12.2201L14.5548 13.294C14.4612 13.5769 14.6145 13.8823 14.8974 13.976L15.4142 14.147Z" fill="#009ADD"/>
<path d="M20.3736 9.96939C21.743 9.96939 22.8532 8.85925 22.8532 7.48982C22.8532 6.12039 21.743 5.01025 20.3736 5.01025C19.0042 5.01025 17.894 6.12039 17.894 7.48982C17.894 8.85925 19.0042 9.96939 20.3736 9.96939Z" fill="#009ADD"/>
<path d="M19.4522 10.2731C18.4672 9.94676 17.9331 8.88385 18.2594 7.89877L18.5661 6.97275C18.8924 5.98768 19.9553 5.45358 20.9404 5.7799C21.9255 6.10622 22.4596 7.16914 22.1332 8.15422L21.8265 9.08023C21.5002 10.0651 20.4373 10.5992 19.4522 10.2731Z" fill="white"/>
<path d="M19.4519 10.2726C19.2541 10.207 19.0746 10.1119 18.9164 9.99353L18.8037 10.3336C18.9619 10.4521 19.1408 10.5487 19.3389 10.6141C19.5369 10.6797 19.738 10.709 19.9356 10.7084L20.0482 10.3684C19.8508 10.3688 19.6498 10.338 19.4519 10.2726V10.2726Z" fill="#D1D3D4"/>
<path d="M18.2596 7.8982L18.4441 7.3409C18.1269 7.23586 17.7843 7.40777 17.6793 7.72523C17.5742 8.04248 17.7461 8.38505 18.0636 8.49009C18.0969 8.50106 18.1305 8.50908 18.164 8.51414C18.1613 8.31017 18.1919 8.10239 18.2596 7.8982V7.8982Z" fill="white"/>
<path d="M22.0111 8.5224L21.8265 9.0797C21.7588 9.2841 21.6595 9.46888 21.5356 9.63067C21.5656 9.6467 21.5972 9.6602 21.6306 9.67138C21.9478 9.77643 22.2904 9.60451 22.3954 9.28705C22.5005 8.97001 22.3283 8.62745 22.0111 8.5224V8.5224Z" fill="white"/>
<path d="M19.537 10.0168C18.552 9.69051 18.0179 8.6276 18.3442 7.64252L18.2594 7.89859C17.9331 8.88367 18.4672 9.94659 19.4522 10.2729C20.4373 10.5992 21.5002 10.0651 21.8266 9.08006L21.9114 8.82398C21.585 9.80906 20.5221 10.3432 19.537 10.0168Z" fill="#E6E7E8"/>
<path d="M18.5661 6.97192L18.4497 7.32313C19.2814 7.14763 20.0005 6.54962 20.2901 5.68646C19.5251 5.71093 18.821 6.20284 18.5661 6.97192Z" fill="#E6E7E8"/>
<path d="M21.1471 8.28746C21.4466 8.3866 21.7514 8.42372 22.0488 8.40896L22.1334 8.15394C22.4597 7.16886 21.9256 6.10594 20.9406 5.77962C20.4248 5.60876 19.8888 5.67563 19.4473 5.91758C19.4404 6.96362 20.1004 7.94068 21.1471 8.28746V8.28746Z" fill="#E6E7E8"/>
<path d="M19.5913 5.13677C19.3154 6.36527 20.0113 7.62667 21.2318 8.03083C21.7596 8.2057 22.3042 8.19325 22.7938 8.02999C23.0697 6.80149 22.3738 5.54008 21.1533 5.13593C20.6256 4.96127 20.0809 4.97351 19.5913 5.13677Z" fill="#1CAEE4"/>
<path d="M18.0199 6.71031C17.9845 6.81747 17.9575 6.92526 17.937 7.03326C19.0202 7.08452 20.0489 6.41605 20.4067 5.33605C20.4421 5.2289 20.4691 5.12111 20.4896 5.01311C19.4064 4.96206 18.3777 5.63052 18.0199 6.71031Z" fill="#009ADD"/>
<path d="M19.5777 8.07526C19.5382 8.19466 19.4093 8.2592 19.2899 8.21976C19.1706 8.18031 19.1058 8.05143 19.1455 7.93203C19.1849 7.81264 19.3138 7.74788 19.4332 7.78754C19.5526 7.8272 19.6171 7.95587 19.5777 8.07526Z" fill="#1CAEE4"/>
<path d="M21.2538 8.6306C21.2144 8.74999 21.0855 8.81454 20.9661 8.77509C20.8467 8.73565 20.7822 8.60676 20.8216 8.48737C20.8611 8.36798 20.99 8.30344 21.1094 8.34288C21.2287 8.38254 21.2935 8.51121 21.2538 8.6306Z" fill="#1CAEE4"/>
<path d="M18.2593 7.89825L18.3631 7.58522C18.1808 7.52489 17.984 7.62361 17.9235 7.80607C17.8631 7.98832 17.9619 8.18513 18.1443 8.24546C18.1559 8.24925 18.1675 8.25073 18.1793 8.25326C18.1943 8.13471 18.2203 8.01595 18.2593 7.89825V7.89825Z" fill="#E6E7E8"/>
<path d="M21.8283 9.08006L21.9319 8.76703C22.1141 8.82736 22.2131 9.02416 22.1528 9.20662C22.0924 9.38887 21.8956 9.4878 21.7134 9.42747C21.7018 9.42367 21.6914 9.41777 21.6807 9.41292C21.7391 9.3085 21.7893 9.19776 21.8283 9.08006Z" fill="#E6E7E8"/>
<path d="M3.10412 15.9625L9.10234 13.9759C9.3852 13.8823 9.53877 13.5768 9.4449 13.294L9.08926 12.2201C8.66148 10.9285 7.2676 10.2282 5.97582 10.656L3.63062 11.4327C2.33904 11.8604 1.63873 13.2543 2.06651 14.5461L2.42215 15.62C2.51581 15.9029 2.82125 16.0562 3.10412 15.9625V15.9625Z" fill="#1CAEE4"/>
<path d="M2.45375 12.2676L3.62087 15.7916L3.10407 15.9626C2.8212 16.0563 2.51577 15.9029 2.42211 15.6201L2.06647 14.5462C1.79942 13.74 1.97218 12.8937 2.45375 12.2676V12.2676Z" fill="#009ADD"/>
<path d="M3.53027 11.4661L4.13672 10.927L4.23776 11.2318L5.09564 11.9264L5.36965 10.857L5.26861 10.5519L6.07713 10.6226L5.94804 14.4996L3.53027 11.4661Z" fill="#D1D3D4"/>
<path d="M6.07698 10.6225L6.02235 12.2491C6.02024 12.3147 5.95063 12.3558 5.89199 12.3265L5.0957 11.9263L5.3695 10.8569L5.26846 10.5521L6.07698 10.6225Z" fill="white"/>
<path d="M3.53027 11.4663L4.54509 12.7386C4.58601 12.7899 4.66638 12.7817 4.6957 12.723L5.09585 11.9267L4.23776 11.2321L4.13672 10.9273L3.53027 11.4663Z" fill="white"/>
<path d="M4.5477 10.2726C4.74556 10.207 4.92507 10.1119 5.08327 9.99353L5.28872 10.6141L5.36909 10.8569L5.0953 11.9263L4.2372 11.2317L4.2062 11.1381L3.95117 10.3682C4.14882 10.3688 4.34984 10.338 4.5477 10.2726V10.2726Z" fill="#E6E7E8"/>
<path d="M4.77832 12.5573L5.24829 12.7934C5.33709 12.8379 5.44509 12.8022 5.48981 12.7134L5.72585 12.2435L5.09515 11.9266L4.77832 12.5573Z" fill="#1CAEE4"/>
<path d="M5.24883 12.7933C5.33764 12.8378 5.44564 12.8021 5.49036 12.7133L5.57136 12.5522L5.98332 13.4444L5.9483 14.5002L5.28997 13.6742L5.08789 12.7125L5.24883 12.7933Z" fill="#009ADD"/>
<path d="M6.976 12.0089L6.58682 11.8431C6.5149 11.8123 6.51363 11.7108 6.58493 11.6783L6.92601 11.5235C6.97917 11.4992 6.99562 11.4317 6.95934 11.386L6.31619 10.5701C6.23562 10.5844 6.15546 10.6023 6.07594 10.626L5.94727 14.5L7.02241 12.1289C7.0435 12.0827 7.02241 12.0287 6.976 12.0089Z" fill="#27C1E6"/>
<path d="M3.63597 13.1155L3.84922 12.7501C3.88867 12.6826 3.82897 12.6004 3.75262 12.6168L3.38643 12.6961C3.32926 12.7086 3.2759 12.6641 3.27737 12.6059L3.30627 11.5672C3.37947 11.5307 3.45456 11.4972 3.5324 11.4687L5.94805 14.5001L3.67014 13.2395C3.62605 13.215 3.61065 13.1591 3.63597 13.1155V13.1155Z" fill="#27C1E6"/>
<path d="M3.78984 14.9477L4.94239 14.5659C5.00863 14.544 5.08014 14.5798 5.10229 14.6463C5.12422 14.7125 5.08836 14.7842 5.02192 14.8062L3.86936 15.1879C3.80313 15.2099 3.73141 15.174 3.70947 15.1076C3.68774 15.0411 3.7236 14.9696 3.78984 14.9477Z" fill="#27C1E6"/>
<path d="M8.58557 14.147L7.41846 10.6231C8.17868 10.8381 8.82225 11.4137 9.08929 12.2201L9.44493 13.294C9.53859 13.5769 9.38524 13.8823 9.10237 13.976L8.58557 14.147Z" fill="#009ADD"/>
<path d="M3.62606 9.96939C4.99548 9.96939 6.10563 8.85925 6.10563 7.48982C6.10563 6.12039 4.99548 5.01025 3.62606 5.01025C2.25663 5.01025 1.14648 6.12039 1.14648 7.48982C1.14648 8.85925 2.25663 9.96939 3.62606 9.96939Z" fill="#009ADD"/>
<path d="M4.54783 10.2731C5.53291 9.94676 6.06701 8.88385 5.74069 7.89877L5.43398 6.97275C5.10766 5.98768 4.04475 5.45358 3.05967 5.7799C2.07459 6.10622 1.5405 7.16914 1.86682 8.15422L2.17352 9.08023C2.49984 10.0651 3.56275 10.5992 4.54783 10.2731Z" fill="white"/>
<path d="M4.54798 10.2726C4.74584 10.207 4.92535 10.1119 5.08355 9.99353L5.19619 10.3336C5.03799 10.4521 4.85911 10.5487 4.66104 10.6141C4.46297 10.6797 4.26195 10.709 4.0643 10.7084L3.95166 10.3684C4.1491 10.3688 4.35012 10.338 4.54798 10.2726V10.2726Z" fill="#D1D3D4"/>
<path d="M5.74072 7.8982L5.55615 7.3409C5.8734 7.23586 6.21597 7.40777 6.32102 7.72523C6.42606 8.04248 6.25415 8.38505 5.93668 8.49009C5.90336 8.50106 5.86982 8.50908 5.83628 8.51414C5.83902 8.31017 5.80843 8.10239 5.74072 7.8982V7.8982Z" fill="white"/>
<path d="M1.98888 8.5224L2.17345 9.0797C2.24116 9.2841 2.34051 9.46888 2.46433 9.63067C2.43438 9.6467 2.40274 9.6602 2.36941 9.67138C2.05216 9.77643 1.7096 9.60451 1.60456 9.28705C1.49951 8.97001 1.67163 8.62745 1.98888 8.5224V8.5224Z" fill="white"/>
<path d="M4.46318 10.0162C5.44825 9.68984 5.98235 8.62693 5.65603 7.64185L5.74082 7.89792C6.06714 8.883 5.53305 9.94592 4.54797 10.2722C3.5629 10.5986 2.49998 10.0645 2.17366 9.07939L2.08887 8.82331C2.41519 9.80839 3.4781 10.3425 4.46318 10.0162Z" fill="#E6E7E8"/>
<path d="M5.43416 6.9721L5.5506 7.32331C4.71888 7.14781 3.99979 6.5498 3.70996 5.68665C4.47524 5.71111 5.17935 6.20302 5.43416 6.9721V6.9721Z" fill="#E6E7E8"/>
<path d="M2.85344 8.28746C2.55391 8.3866 2.2491 8.42372 1.95168 8.40896L1.8673 8.15394C1.54098 7.16886 2.07508 6.10594 3.06016 5.77962C3.5759 5.60876 4.11189 5.67563 4.55339 5.91758C4.56014 6.96362 3.90011 7.94068 2.85344 8.28746V8.28746Z" fill="#E6E7E8"/>
<path d="M4.40855 5.13677C4.68445 6.36527 3.98857 7.62667 2.76809 8.03083C2.24032 8.2057 1.69568 8.19325 1.20609 8.02999C0.930187 6.80149 1.62607 5.54008 2.84655 5.13593C3.37432 4.96127 3.91896 4.97351 4.40855 5.13677Z" fill="#1CAEE4"/>
<path d="M5.97991 6.71031C6.01535 6.81747 6.04235 6.92526 6.06281 7.03326C4.97964 7.08452 3.9509 6.41605 3.59315 5.33605C3.55772 5.2289 3.53071 5.12111 3.51025 5.01311C4.59342 4.96206 5.62216 5.63052 5.97991 6.71031Z" fill="#009ADD"/>
<path d="M4.42271 8.07526C4.46216 8.19466 4.59104 8.2592 4.71044 8.21976C4.82983 8.18031 4.89459 8.05143 4.85493 7.93203C4.81548 7.81264 4.6866 7.74788 4.56721 7.78754C4.44782 7.8272 4.38327 7.95587 4.42271 8.07526Z" fill="#1CAEE4"/>
<path d="M2.74604 8.6306C2.78548 8.74999 2.91437 8.81454 3.03376 8.77509C3.15315 8.73565 3.2177 8.60676 3.17825 8.48737C3.13881 8.36798 3.00992 8.30344 2.89053 8.34288C2.77114 8.38254 2.70638 8.51121 2.74604 8.6306Z" fill="#1CAEE4"/>
<path d="M5.74078 7.89825L5.63721 7.58522C5.81946 7.52489 6.01626 7.62361 6.07659 7.80607C6.13692 7.98832 6.0382 8.18513 5.85574 8.24546C5.84414 8.24925 5.83254 8.25073 5.82072 8.25326C5.80575 8.13471 5.7798 8.01595 5.74078 7.89825Z" fill="#E6E7E8"/>
<path d="M2.1717 9.08006L2.06813 8.76703C1.88588 8.82736 1.78696 9.02416 1.84728 9.20662C1.90761 9.38887 2.10442 9.4878 2.28666 9.42747C2.29827 9.42367 2.3086 9.41777 2.31936 9.41292C2.26072 9.3085 2.21073 9.19776 2.1717 9.08006Z" fill="#E6E7E8"/>
<path d="M21.8841 17.969H2.11524C1.08566 17.969 0.250977 17.1343 0.250977 16.1047C0.250977 15.0751 1.08566 14.2404 2.11524 14.2404H21.8841C22.9137 14.2404 23.7484 15.0751 23.7484 16.1047C23.7486 17.1343 22.9139 17.969 21.8841 17.969Z" fill="#EF5A9D"/>
<path d="M21.8841 16.7931H2.11524C1.29132 16.7931 0.593539 16.258 0.347164 15.517C0.285571 15.702 0.250977 15.8994 0.250977 16.1051C0.250977 17.1346 1.08566 17.9693 2.11524 17.9693H21.8841C22.9137 17.9693 23.7484 17.1346 23.7484 16.1051C23.7484 15.8994 23.7138 15.7022 23.6522 15.517C23.406 16.258 22.7082 16.7931 21.8841 16.7931V16.7931Z" fill="#E43D91"/>
<path d="M21.7087 17.9691H2.2915C2.98486 20.4189 4.25639 22.6667 5.99936 24.5227L9.17418 27.9041L10.0958 32.2051C10.119 32.3135 10.2149 32.3911 10.3257 32.3911H13.6741C13.7851 32.3911 13.8808 32.3137 13.904 32.2051L14.8256 27.9041L18.0007 24.5225C19.7436 22.6667 21.0154 20.4189 21.7087 17.9691Z" fill="#E43D91"/>
<path d="M19.0563 17.9691H4.94336C5.44729 20.4189 6.37162 22.6667 7.6383 24.5227L9.94595 27.9041L10.6448 32.3911H13.3549L14.0538 27.9041L16.3614 24.5225C17.6281 22.6667 18.5524 20.4189 19.0563 17.9691V17.9691Z" fill="#EF5A9D"/>
<path d="M9.83545 30.9897L10.096 32.2053C10.1192 32.3137 10.2151 32.3914 10.3259 32.3914H13.6743C13.7853 32.3914 13.881 32.3139 13.9042 32.2053L14.1647 30.9897H9.83545Z" fill="#E43D91"/>
</svg>
