<svg width="27" height="27" viewBox="0 0 27 27" fill="none" xmlns="http://www.w3.org/2000/svg">
<path d="M7.95476 24.1058C6.53106 25.53 0 26.9044 0 26.9044C0 26.9044 1.38387 20.3709 2.80756 18.9467C4.23125 17.5225 7.20806 16.8552 8.63176 18.2794C10.0554 19.6937 9.37845 22.6816 7.95476 24.1058Z" fill="#ED572F"/>
<path d="M7.80568 23.07C6.71053 24.1656 1.67285 25.2312 1.67285 25.2312C1.67285 25.2312 2.73813 20.1917 3.83328 19.0961C4.92843 18.0006 7.22824 17.4827 8.32338 18.5782C9.41853 19.6738 8.90083 21.9744 7.80568 23.07Z" fill="#EA902F"/>
<path d="M7.88527 22.1142C7.02906 22.9707 3.10645 23.7974 3.10645 23.7974C3.10645 23.7974 3.93278 19.8733 4.78899 19.0168C5.6452 18.1602 7.43726 17.7619 8.28351 18.6184C9.14967 19.4649 8.74148 21.2577 7.88527 22.1142Z" fill="#F4BD31"/>
<path d="M7.80584 21.1281C7.24831 21.6859 4.67969 22.2237 4.67969 22.2237C4.67969 22.2237 5.21731 19.6641 5.77484 19.0964C6.33237 18.5386 7.49721 18.2697 8.06469 18.8374C8.62222 19.3952 8.36337 20.5704 7.80584 21.1281Z" fill="#FFE269"/>
<path d="M10.5831 8.9873C2.23012 8.9873 2.90712 11.6764 0.766602 18.8074L5.37618 17.0446L10.5831 8.9873Z" fill="#EA3453"/>
<path d="M17.9103 16.3174C17.9103 24.6735 15.2222 23.9962 8.09375 26.1375L9.85594 21.5262L17.9103 16.3174Z" fill="#EA3453"/>
<path d="M8.09375 26.1376C10.3239 25.4703 12.1259 25.072 13.5396 24.5939C12.4544 23.7175 11.4688 21.9048 14.4356 18.5684L9.85594 21.5264L8.09375 26.1376Z" fill="#AA2B46"/>
<path d="M0.766602 18.8074L5.37618 17.0445L10.5035 9.1167C7.16824 13.23 4.47019 16.6959 1.91153 14.6741C1.58298 15.8394 1.24448 17.2138 0.766602 18.8074Z" fill="#AA2B46"/>
<path d="M23.0477 11.9452C27.259 7.43355 26.8907 0.0136619 26.8907 0.0136619C26.8907 0.0136619 19.4735 -0.364802 14.9635 3.8481C10.4435 8.07096 5.37598 17.0445 5.37598 17.0445L9.86608 21.5363C9.86608 21.5363 18.8363 16.4569 23.0477 11.9452Z" fill="white"/>
<path d="M22.5798 0.362305C20.1704 0.800526 17.2036 1.75665 14.9635 3.85812C10.4435 8.07102 5.37598 17.0446 5.37598 17.0446L9.86608 21.5364C9.86608 21.5364 10.3838 21.2475 11.23 20.7396C5.94346 17.1342 7.9446 9.63467 22.5798 0.362305Z" fill="#DAD5E2"/>
<path d="M26.045 6.43754C27.0406 3.06125 26.8913 0.0136193 26.8913 0.0136193C26.8913 0.0136193 23.8448 -0.145734 20.4697 0.860183L26.045 6.43754Z" fill="#EA3453"/>
<path d="M20.459 0.860324L26.0343 6.43769C26.0642 6.34805 26.0841 6.25841 26.1139 6.16878C23.7544 4.20674 20.7477 0.820485 26.8805 0.00380027C26.8905 0.0137598 23.844 -0.145593 20.459 0.860324Z" fill="#AA2B46"/>
<path d="M21.0704 10.3259C22.3806 9.0152 22.3806 6.89008 21.0704 5.57934C19.7601 4.26861 17.6358 4.26861 16.3255 5.57934C15.0153 6.89008 15.0153 9.0152 16.3255 10.3259C17.6358 11.6367 19.7601 11.6367 21.0704 10.3259Z" fill="#E0DEDC"/>
<path d="M18.6974 11.0788C20.424 11.0788 21.8236 9.67869 21.8236 7.95153C21.8236 6.22436 20.424 4.82422 18.6974 4.82422C16.9709 4.82422 15.5713 6.22436 15.5713 7.95153C15.5713 9.67869 16.9709 11.0788 18.6974 11.0788Z" fill="#AA2B46"/>
<path d="M20.7677 10.0231C21.9108 8.87962 21.9108 7.02565 20.7677 5.88217C19.6246 4.73868 17.7714 4.73868 16.6283 5.88216C15.4852 7.02565 15.4852 8.87962 16.6283 10.0231C17.7714 11.1666 19.6246 11.1666 20.7677 10.0231Z" fill="#EA3453"/>
<path d="M20.4511 9.7062C21.4192 8.73773 21.4192 7.16754 20.4511 6.19907C19.483 5.23061 17.9134 5.23061 16.9453 6.19907C15.9772 7.16754 15.9772 8.73773 16.9453 9.7062C17.9134 10.6747 19.483 10.6747 20.4511 9.7062Z" fill="#384460"/>
<path d="M20.3378 9.59352C21.2437 8.68728 21.2437 7.21799 20.3378 6.31175C19.4319 5.40552 17.9632 5.40552 17.0573 6.31175C16.1514 7.21799 16.1514 8.68728 17.0573 9.59352C17.9632 10.4998 19.4319 10.4998 20.3378 9.59352Z" fill="#89BBE8"/>
<path d="M16.377 7.95144C16.377 8.70837 16.7453 9.38562 17.3029 9.80392L20.5485 6.5571C20.1204 5.99936 19.4533 5.63086 18.6967 5.63086C18.6668 5.63086 18.6369 5.63086 18.617 5.63086L16.3869 7.8618C16.377 7.89168 16.377 7.92156 16.377 7.95144Z" fill="#BBE2FF"/>
<path d="M20.8469 7.0752L17.8203 10.1029C18.0095 10.1826 18.2086 10.2324 18.4177 10.2523L21.0062 7.66281C20.9763 7.45366 20.9166 7.25447 20.8469 7.0752Z" fill="#BBE2FF"/>
<path d="M20.3892 1.45768C20.4607 1.45768 20.5186 1.39971 20.5186 1.32821C20.5186 1.2567 20.4607 1.19873 20.3892 1.19873C20.3177 1.19873 20.2598 1.2567 20.2598 1.32821C20.2598 1.39971 20.3177 1.45768 20.3892 1.45768Z" fill="#B3B0B5"/>
<path d="M21.1952 2.13478C21.1455 2.18458 21.0559 2.18458 21.0061 2.13478C20.9563 2.08499 20.9563 1.99535 21.0061 1.94555C21.0559 1.89575 21.1455 1.89575 21.1952 1.94555C21.245 2.00531 21.245 2.08499 21.1952 2.13478Z" fill="#B3B0B5"/>
<path d="M21.813 2.89176C21.8845 2.89176 21.9424 2.83379 21.9424 2.76229C21.9424 2.69078 21.8845 2.63281 21.813 2.63281C21.7415 2.63281 21.6836 2.69078 21.6836 2.76229C21.6836 2.83379 21.7415 2.89176 21.813 2.89176Z" fill="#B3B0B5"/>
<path d="M22.6288 3.56887C22.5791 3.61866 22.4895 3.61866 22.4397 3.56887C22.3899 3.51907 22.3899 3.42943 22.4397 3.37963C22.4895 3.32984 22.5791 3.32984 22.6288 3.37963C22.6786 3.42943 22.6786 3.51907 22.6288 3.56887Z" fill="#B3B0B5"/>
<path d="M23.3456 4.28615C23.2959 4.33595 23.2063 4.33595 23.1565 4.28615C23.1067 4.23635 23.1067 4.14672 23.1565 4.09692C23.2063 4.04712 23.2959 4.04712 23.3456 4.09692C23.3954 4.14672 23.3954 4.23635 23.3456 4.28615Z" fill="#B3B0B5"/>
<path d="M23.9634 5.03336C24.0349 5.03336 24.0928 4.9754 24.0928 4.90389C24.0928 4.83238 24.0349 4.77441 23.9634 4.77441C23.8919 4.77441 23.834 4.83238 23.834 4.90389C23.834 4.9754 23.8919 5.03336 23.9634 5.03336Z" fill="#B3B0B5"/>
<path d="M24.7695 5.72023C24.7197 5.77003 24.6301 5.77003 24.5803 5.72023C24.5305 5.67044 24.5305 5.5808 24.5803 5.531C24.6301 5.4812 24.7197 5.4812 24.7695 5.531C24.8292 5.5808 24.8292 5.67044 24.7695 5.72023Z" fill="#B3B0B5"/>
<path d="M25.397 6.46745C25.4685 6.46745 25.5264 6.40948 25.5264 6.33797C25.5264 6.26646 25.4685 6.2085 25.397 6.2085C25.3255 6.2085 25.2676 6.26646 25.2676 6.33797C25.2676 6.40948 25.3255 6.46745 25.397 6.46745Z" fill="#B3B0B5"/>
<path d="M6.03317 17.1441C5.97344 17.2039 5.88383 17.2039 5.8241 17.1441C5.76436 17.0843 5.76436 16.9947 5.8241 16.935C5.88383 16.8752 5.97344 16.8752 6.03317 16.935C6.09291 16.9947 6.09291 17.0843 6.03317 17.1441Z" fill="#B3B0B5"/>
<path d="M6.8193 17.9307C6.75957 17.9905 6.66997 17.9905 6.61023 17.9307C6.5505 17.871 6.5505 17.7813 6.61023 17.7216C6.66997 17.6618 6.75957 17.6618 6.8193 17.7216C6.87904 17.7813 6.87904 17.871 6.8193 17.9307Z" fill="#B3B0B5"/>
<path d="M7.61618 18.7178C7.55644 18.7776 7.46684 18.7776 7.40711 18.7178C7.34737 18.6581 7.34737 18.5684 7.40711 18.5087C7.46684 18.4489 7.55644 18.4489 7.61618 18.5087C7.66596 18.5684 7.66596 18.668 7.61618 18.7178Z" fill="#B3B0B5"/>
<path d="M8.40231 19.5147C8.34258 19.5745 8.25297 19.5745 8.19324 19.5147C8.1335 19.455 8.1335 19.3653 8.19324 19.3056C8.25297 19.2458 8.34258 19.2458 8.40231 19.3056C8.46205 19.3653 8.46205 19.455 8.40231 19.5147Z" fill="#B3B0B5"/>
<path d="M9.18942 20.3013C9.12969 20.3611 9.04008 20.3611 8.98035 20.3013C8.92061 20.2416 8.92061 20.1519 8.98035 20.0922C9.04008 20.0324 9.12969 20.0324 9.18942 20.0922C9.24916 20.1519 9.24916 20.2416 9.18942 20.3013Z" fill="#B3B0B5"/>
<path d="M9.98532 21.0982C9.92558 21.158 9.83598 21.158 9.77625 21.0982C9.71651 21.0385 9.71651 20.9488 9.77625 20.8891C9.83598 20.8293 9.92558 20.8293 9.98532 20.8891C10.0351 20.9389 10.0351 21.0385 9.98532 21.0982Z" fill="#B3B0B5"/>
<path d="M14.5158 12.3934L4.44043 22.4725C4.44043 22.4725 6.79002 19.1062 10.3343 15.5506C13.8786 12.005 14.5158 12.3934 14.5158 12.3934Z" fill="#EA3453"/>
<path d="M14.5158 12.3945L4.44043 22.4736C4.44043 22.4736 7.80552 20.1232 11.3598 16.5776C14.914 13.0319 14.5158 12.3945 14.5158 12.3945Z" fill="#AA2B46"/>
<path d="M26.6126 0.432129C26.6126 0.432129 26.742 2.35433 25.9854 5.74058C25.9854 5.75054 26.1646 3.49968 26.6126 0.432129Z" fill="white"/>
</svg>
