<svg width="26" height="23" viewBox="0 0 26 23" fill="none" xmlns="http://www.w3.org/2000/svg">
<path d="M17.8904 19.6549L22.1891 22.7739C22.499 22.9988 22.9263 22.9654 23.1973 22.695L25.7728 20.1256C26.012 19.8849 26.069 19.5175 25.9137 19.2157C23.9383 15.3243 19.1271 12.5778 13.4999 12.5778C7.87277 12.5778 3.06156 15.3243 1.08613 19.2157C0.92982 19.5177 0.986432 19.8861 1.22621 20.1273L3.80164 22.695C4.07271 22.9654 4.50002 22.9988 4.80983 22.7739L9.10854 19.6549C9.26191 19.5436 9.36923 19.38 9.41027 19.195L9.92751 16.8571C10.005 16.5168 10.2665 16.2486 10.6047 16.1627C12.5025 15.6788 14.4913 15.6788 16.3891 16.1627C16.7273 16.2485 16.9888 16.5168 17.0659 16.8571L17.5831 19.195C17.6256 19.3809 17.735 19.5446 17.8904 19.6549V19.6549Z" fill="white"/>
<path d="M22.0161 0.137309L15.9816 0.807567C15.8168 0.82552 15.677 0.936334 15.6218 1.09261C15.5667 1.24888 15.606 1.42294 15.723 1.54033L17.4902 3.30757L13.445 7.35283L6.6359 1.29808C6.1731 0.872865 5.47524 0.831275 4.96521 1.19852C4.65502 1.43174 4.46598 1.79196 4.45028 2.17973C4.43458 2.56751 4.59386 2.94183 4.88418 3.19938L12.6428 10.0959C13.1545 10.5507 13.932 10.5278 14.4161 10.0438L19.3212 5.13645L21.0885 6.90369C21.2059 7.02067 21.3799 7.05999 21.5362 7.00484C21.6925 6.94968 21.8033 6.80981 21.8212 6.64507L22.4915 0.610585C22.505 0.480999 22.4592 0.352244 22.3669 0.260324C22.2746 0.168404 22.1456 0.123184 22.0161 0.137309V0.137309Z" fill="white"/>
</svg>
