<svg width="50" height="50" viewBox="0 0 50 50" fill="none" xmlns="http://www.w3.org/2000/svg">
<path fill-rule="evenodd" clip-rule="evenodd" d="M25 50C38.8071 50 50 38.8071 50 25C50 11.1929 38.8071 0 25 0C11.1929 0 0 11.1929 0 25C0 38.8071 11.1929 50 25 50Z" fill="#4984C9"/>
<g clip-path="url(#clip0)">
<path d="M32.113 25.6768H30.5663C30.7239 26.1084 30.8101 26.5742 30.8101 27.0597V32.9054C30.8101 33.1079 30.7748 33.3022 30.7107 33.4829H33.2678C34.223 33.4829 35.0001 32.7058 35.0001 31.7506V28.5638C35.0001 26.9719 33.705 25.6768 32.113 25.6768Z" fill="white"/>
<path d="M19.19 27.0597C19.19 26.5742 19.2762 26.1084 19.4338 25.6768H17.8871C16.2952 25.6768 15 26.9719 15 28.5639V31.7506C15 32.7058 15.7771 33.4829 16.7323 33.4829H19.2894C19.2253 33.3021 19.19 33.1079 19.19 32.9054V27.0597V27.0597Z" fill="white"/>
<path d="M26.768 24.1724H23.232C21.64 24.1724 20.3448 25.4675 20.3448 27.0595V32.9052C20.3448 33.2241 20.6034 33.4826 20.9223 33.4826H29.0777C29.3966 33.4826 29.6551 33.2241 29.6551 32.9052V27.0595C29.6551 25.4675 28.3599 24.1724 26.768 24.1724Z" fill="white"/>
<path d="M24.9999 16.5171C23.0854 16.5171 21.5278 18.0747 21.5278 19.9892C21.5278 21.2879 22.2446 22.4221 23.3031 23.0175C23.8052 23.3 24.384 23.4614 24.9999 23.4614C25.6159 23.4614 26.1947 23.3 26.6968 23.0175C27.7553 22.4221 28.472 21.2878 28.472 19.9892C28.472 18.0747 26.9145 16.5171 24.9999 16.5171Z" fill="white"/>
<path d="M18.903 19.7534C17.4711 19.7534 16.3063 20.9183 16.3063 22.3501C16.3063 23.7819 17.4711 24.9468 18.903 24.9468C19.2662 24.9468 19.612 24.8716 19.9262 24.7363C20.4694 24.5025 20.9173 24.0885 21.1944 23.5699C21.389 23.206 21.4996 22.7908 21.4996 22.3501C21.4996 20.9183 20.3348 19.7534 18.903 19.7534Z" fill="white"/>
<path d="M31.0971 19.7534C29.6652 19.7534 28.5004 20.9183 28.5004 22.3501C28.5004 22.7908 28.611 23.206 28.8056 23.5699C29.0827 24.0885 29.5306 24.5025 30.0738 24.7363C30.388 24.8716 30.7338 24.9468 31.0971 24.9468C32.5289 24.9468 33.6937 23.7819 33.6937 22.3501C33.6937 20.9183 32.5289 19.7534 31.0971 19.7534Z" fill="white"/>
</g>
<defs>
<clipPath id="clip0">
<rect width="20" height="20" fill="white" transform="translate(15 15)"/>
</clipPath>
</defs>
</svg>
