<svg width="37" height="32" viewBox="0 0 37 32" fill="none" xmlns="http://www.w3.org/2000/svg">
<path d="M18.977 29.9224L12.9574 31.954L8.72217 19.8475L14.7419 17.8158L18.977 29.9224Z" fill="#AE4E32"/>
<path d="M31.4251 23.607C31.4251 23.607 17.2641 19.7053 7.70915 23.0478L5.15723 15.753C14.7121 12.4105 23.3528 0.532104 23.3528 0.532104L31.4251 23.607Z" fill="white"/>
<path d="M6.70508 20.1771L7.70929 23.0477C17.2643 19.7051 31.4253 23.6069 31.4253 23.6069L27.345 11.9431L6.70508 20.1771Z" fill="#E0E0E0"/>
<path d="M23.3527 0.532104C23.3527 0.532104 22.2714 2.01799 20.4524 4.08566L26.9419 22.6363C29.6532 23.1192 31.425 23.607 31.425 23.607L23.3527 0.532104Z" fill="#FF6838"/>
<path d="M23.7085 13.3939L26.9418 22.6365C29.6531 23.1194 31.4249 23.6072 31.4249 23.6072L27.3446 11.9434L23.7085 13.3939Z" fill="#AE4E32"/>
<path d="M2.79067 24.6649L7.70904 23.048L5.15712 15.7532L0.270996 17.4624L2.79067 24.6649Z" fill="#FF6838"/>
<path d="M1.89258 22.0973L2.79085 24.6649L7.70922 23.048L6.70501 20.1774L1.89258 22.0973Z" fill="#AE4E32"/>
<path d="M29.3614 10.4774L30.1089 12.2395L36.4251 9.5603L35.6777 7.79821L29.3614 10.4774Z" fill="#FFDC00"/>
<path d="M36.4262 9.56051L36.0063 8.57056L29.6709 11.2055L30.1098 12.2402L36.4262 9.56051Z" fill="#FFC000"/>
<path d="M26.667 7.18827L28.4216 7.95312L30.6364 2.87245L28.8817 2.10759L26.667 7.18827Z" fill="#FFDC00"/>
<path d="M30.4398 16.9565L35.8267 18.2578L36.2761 16.3974L30.8892 15.0962L30.4398 16.9565Z" fill="#FFC000"/>
</svg>
