<svg width="14" height="14" viewBox="0 0 14 14" fill="none" xmlns="http://www.w3.org/2000/svg">
<g clip-path="url(#clip0)">
<path d="M12.3185 7.64557C12.3455 7.42041 12.3594 7.19675 12.3594 7C12.3594 4.06322 9.93678 1.64062 7 1.64062C5.63014 1.64062 4.34766 2.19295 3.4043 3.05428L3.87737 3.53557C3.98396 3.64217 4.02498 3.798 3.98396 3.94572C3.93472 4.08511 3.8199 4.19182 3.67229 4.22461C3.58972 4.24117 0.877351 5.1152 1.05007 5.08049C0.830354 5.15366 0.505433 4.91931 0.565995 4.59653C0.582658 4.51385 1.18315 1.50081 1.14844 1.67342C1.18123 1.5258 1.28793 1.40276 1.43555 1.36174C1.57494 1.32072 1.73088 1.36174 1.83748 1.46834L2.23941 1.86205C3.4781 0.70549 5.17897 0 7 0C10.8472 0 14 3.15276 14 7V7.01634C14 7.24759 13.9894 7.42628 13.9771 7.563C13.9608 7.74416 13.8273 7.89252 13.6489 7.9283L12.8063 8.09674C12.532 8.15164 12.2854 7.92168 12.3185 7.64557Z" fill="#CC303E"/>
<path d="M0.349076 6.07077L1.19417 5.89859C1.46878 5.84262 1.71712 6.0728 1.68337 6.35019C1.6541 6.58955 1.64107 6.82229 1.64107 6.99971C1.64107 9.93639 4.06366 12.3591 7.00044 12.3591C8.3703 12.3591 9.65279 11.8068 10.5961 10.9372L10.1231 10.4641C10.0165 10.3575 9.97547 10.2017 10.0165 10.054C10.0657 9.91449 10.1805 9.80789 10.3282 9.7751C10.4107 9.75844 13.1231 8.88451 12.9504 8.91922C13.0899 8.89465 13.2294 8.93567 13.3195 9.03404C13.418 9.1243 13.459 9.27191 13.4345 9.40318C13.4178 9.48575 12.8172 12.4715 12.8519 12.2989C12.8192 12.4466 12.7125 12.5696 12.5649 12.6105C12.3937 12.6535 12.2508 12.6016 12.163 12.5039L11.7692 12.1102C10.5306 13.2669 8.8297 13.9997 7.00044 13.9997C3.1532 13.9997 0.000443459 10.847 0.000443459 6.99971V6.97503C0.000443459 6.79324 0.00706577 6.61476 0.022233 6.43734C0.0378275 6.25608 0.170808 6.10719 0.349076 6.07077Z" fill="#CC303E"/>
</g>
<defs>
<clipPath id="clip0">
<rect width="14" height="14" fill="white" transform="matrix(-1 0 0 1 14 0)"/>
</clipPath>
</defs>
</svg>
