<svg width="32" height="32" viewBox="0 0 32 32" fill="none" xmlns="http://www.w3.org/2000/svg">
<path d="M31.4157 27.6832V10.7624H0.583984V27.6832C0.583984 29.6832 2.19785 31.297 4.19785 31.297H27.8018C29.8018 31.297 31.4157 29.6832 31.4157 27.6832Z" fill="#FFD05B"/>
<path d="M31.4157 10.7624V27.6832C31.4157 28.7129 30.98 29.6436 30.2969 30.297C29.6434 30.9208 28.7721 31.297 27.8018 31.297H4.19785C3.22755 31.297 2.34636 30.9208 1.7028 30.297C1.00973 29.6337 0.583984 28.7129 0.583984 27.6832V10.7624H31.4157Z" fill="#FFD05B"/>
<path d="M13.9305 1.44509L0.583984 10.7619L15.9998 21.5243L31.4058 10.7619L18.0691 1.44509C16.8216 0.573804 15.1681 0.573804 13.9305 1.44509Z" fill="#FF7058"/>
<path d="M31.4058 10.7622L27.4355 13.5344L15.9998 21.5245L4.54438 13.5344L0.583984 10.7622L4.54438 7.9899L10.1285 4.08891L13.9305 1.43545C15.1681 0.564161 16.8216 0.564161 18.0691 1.43545L21.8711 4.08891L27.4553 7.9899L31.4058 10.7622Z" fill="#FF7058"/>
<path d="M27.4454 5.65327V13.5345L15.9999 21.5245L4.54443 13.5345V5.66317C4.54443 4.80179 5.2474 4.09882 6.10879 4.09882H25.8811C26.7425 4.09882 27.4454 4.79188 27.4454 5.65327Z" fill="white"/>
<path d="M30.2972 30.2967C29.6437 30.9204 28.7724 31.2967 27.8021 31.2967H4.19817C3.22788 31.2967 2.34669 30.9204 1.70312 30.2967L13.5843 19.6432C14.9606 18.4155 17.0299 18.4155 18.4061 19.6432L30.2972 30.2967Z" fill="#F9B54C"/>
<path d="M10.2573 9.38597C10.1583 9.46517 10.1088 9.57408 10.1088 9.7127C10.1088 9.85131 10.1682 9.96022 10.2969 10.0394C10.4157 10.1186 10.7028 10.2177 11.1484 10.3266C11.5939 10.4355 11.9306 10.6038 12.1781 10.8216C12.4256 11.0394 12.5444 11.3563 12.5444 11.7721C12.5444 12.1879 12.386 12.5345 12.0692 12.7919C11.7523 13.0493 11.3464 13.178 10.8315 13.178C10.089 13.178 9.4256 12.9008 8.83154 12.3563L9.4553 11.5939C9.96025 12.0295 10.4256 12.2573 10.8513 12.2573C11.0395 12.2573 11.188 12.2177 11.3068 12.1384C11.4157 12.0592 11.4751 11.9404 11.4751 11.8018C11.4751 11.6632 11.4157 11.5543 11.2969 11.4652C11.1781 11.386 10.9504 11.2969 10.6137 11.2177C10.0692 11.0889 9.67313 10.9206 9.4256 10.7127C9.17808 10.5048 9.04936 10.178 9.04936 9.7424C9.04936 9.29686 9.20778 8.96022 9.52461 8.7127C9.84144 8.47507 10.2375 8.35626 10.7127 8.35626C11.0197 8.35626 11.3365 8.40577 11.6434 8.51468C11.9504 8.62359 12.2276 8.7721 12.4553 8.97012L11.9306 9.7325C11.5246 9.42557 11.1088 9.26715 10.6731 9.26715C10.4949 9.25725 10.3563 9.30676 10.2573 9.38597Z" fill="#4CDBC4"/>
<path d="M17.604 10.1883L16.3466 12.7428H15.7228L14.4654 10.1883V13.1289H13.4258V8.46558H14.8317L16.0297 11.0299L17.2377 8.46558H18.6436V13.1289H17.604V10.1883Z" fill="#4CDBC4"/>
<path d="M20.8808 9.38597C20.7818 9.46517 20.7323 9.57408 20.7323 9.7127C20.7323 9.85131 20.7917 9.96022 20.9204 10.0394C21.0392 10.1186 21.3264 10.2177 21.7719 10.3266C22.2175 10.4355 22.5541 10.6038 22.8016 10.8216C23.0491 11.0394 23.1679 11.3563 23.1679 11.7721C23.1679 12.1879 23.0095 12.5345 22.6927 12.7919C22.3759 13.0493 21.9699 13.178 21.4551 13.178C20.7125 13.178 20.0491 12.9008 19.4551 12.3563L20.0788 11.5939C20.5838 12.0295 21.0491 12.2573 21.4749 12.2573C21.663 12.2573 21.8115 12.2177 21.9303 12.1384C22.0392 12.0592 22.0986 11.9404 22.0986 11.8018C22.0986 11.6632 22.0392 11.5543 21.9204 11.4652C21.8016 11.386 21.5739 11.2969 21.2373 11.2177C20.6927 11.0889 20.2967 10.9206 20.0491 10.7127C19.8016 10.5048 19.6729 10.178 19.6729 9.7424C19.6729 9.29686 19.8313 8.96022 20.1481 8.7127C20.465 8.47507 20.861 8.35626 21.3363 8.35626C21.6432 8.35626 21.96 8.40577 22.267 8.51468C22.5739 8.62359 22.8511 8.7721 23.0788 8.97012L22.5541 9.7325C22.1481 9.42557 21.7323 9.26715 21.2967 9.26715C21.1184 9.25725 20.9798 9.30676 20.8808 9.38597Z" fill="#4CDBC4"/>
</svg>
