<svg width="17" height="17" viewBox="0 0 17 17" fill="none" xmlns="http://www.w3.org/2000/svg">
<path d="M8.50512 13.7997C8.50512 14.0991 8.33208 14.3712 8.06129 14.4982C7.95659 14.5477 7.8444 14.5717 7.73294 14.5717C7.55643 14.5717 7.38156 14.511 7.24032 14.3939L3.01983 10.8966H0.771996C0.345708 10.8969 0 10.5511 0 10.1248V7.04903C0 6.62255 0.345708 6.27685 0.771996 6.27685H3.02001L7.2405 2.77957C7.4711 2.58844 7.79086 2.54769 8.06147 2.6756C8.33208 2.80259 8.5053 3.07484 8.5053 3.37414L8.50512 13.7997ZM11.472 12.5933C11.4531 12.5946 11.435 12.5953 11.4164 12.5953C11.2125 12.5953 11.0159 12.5148 10.8706 12.3693L10.7674 12.2657C10.4966 11.9955 10.4648 11.5674 10.6928 11.26C11.271 10.4805 11.5761 9.55651 11.5761 8.58717C11.5761 7.54456 11.2297 6.56664 10.5741 5.75901C10.3245 5.45204 10.3475 5.0062 10.6272 4.72664L10.7303 4.6234C10.8845 4.46919 11.0912 4.38513 11.3148 4.39847C11.5326 4.40944 11.736 4.51194 11.8741 4.68078C12.7835 5.79355 13.2639 7.14459 13.2639 8.58735C13.2639 9.93108 12.8391 11.2101 12.0351 12.2856C11.9008 12.4649 11.6954 12.5774 11.472 12.5933ZM14.6637 14.9791C14.5241 15.1441 14.3222 15.2432 14.1061 15.2523C14.0955 15.2527 14.0847 15.253 14.0737 15.253C13.8693 15.253 13.673 15.1723 13.5278 15.027L13.4263 14.9256C13.1429 14.6424 13.1238 14.1894 13.3814 13.8828C14.6265 12.402 15.3124 10.5215 15.3124 8.58717C15.3124 6.57523 14.578 4.63839 13.2451 3.1335C12.9748 2.82799 12.9885 2.36552 13.2761 2.07682L13.3774 1.97541C13.5276 1.82448 13.7227 1.74134 13.9465 1.74847C14.1591 1.7545 14.36 1.84842 14.5013 2.00739C16.1125 3.82144 17 6.15844 17 8.58717C17.0004 10.924 16.1706 13.1941 14.6637 14.9791Z" fill="#5F758F"/>
</svg>
