<svg width="15" height="14" viewBox="0 0 15 14" fill="none" xmlns="http://www.w3.org/2000/svg">
<path d="M13.5073 1.93777V1.39341C13.5073 0.625078 12.8376 0 12.0144 0H7.86227C7.46346 0 7.08857 0.144949 6.80659 0.40816L0.934385 5.88891C0.652373 6.1521 0.49707 6.50202 0.49707 6.87422C0.49707 7.24642 0.652373 7.59634 0.934385 7.85952L1.53107 8.41643C1.50579 8.51881 1.4924 8.62449 1.4924 8.73212C1.4924 9.10432 1.6477 9.45424 1.92972 9.71742L6.08176 13.5926C6.37279 13.8642 6.75512 14 7.13741 14C7.51971 14 7.90203 13.8642 8.19307 13.5925L14.0653 8.11174C14.3473 7.84853 14.5026 7.49864 14.5026 7.12644V3.25128C14.5026 2.64578 14.0865 2.1295 13.5073 1.93777ZM1.63815 7.20264C1.54417 7.11493 1.49237 6.99828 1.49237 6.87419C1.49237 6.75011 1.54417 6.63351 1.63815 6.54574L7.51039 1.06498C7.6044 0.977293 7.72935 0.928949 7.8623 0.928949H12.0144C12.2888 0.928949 12.512 1.13731 12.512 1.39341V1.85787H8.85758C8.45876 1.85787 8.08388 2.00282 7.80189 2.26603L2.07547 7.61075L1.63815 7.20264ZM13.3616 7.45489L7.4893 12.9357C7.2952 13.1168 6.97953 13.1167 6.78553 12.9357L2.63346 9.06052C2.53947 8.9728 2.48768 8.85615 2.48768 8.73206C2.48768 8.60798 2.53947 8.49138 2.63346 8.40361L8.50569 2.92283C8.59971 2.83514 8.72466 2.78679 8.85761 2.78679H13.0097C13.2841 2.78679 13.5073 2.99515 13.5073 3.25125V7.12641H13.5073C13.5073 7.2505 13.4555 7.36714 13.3616 7.45489Z" fill="#CC303E"/>
<path d="M11.0193 3.71631C10.1961 3.71631 9.52637 4.34139 9.52637 5.10972C9.52637 5.87805 10.1961 6.50313 11.0193 6.50313C11.8425 6.50313 12.5122 5.87805 12.5122 5.10972C12.5122 4.34139 11.8425 3.71631 11.0193 3.71631ZM11.0193 5.57421C10.7449 5.57421 10.5217 5.36585 10.5217 5.10975C10.5217 4.85364 10.7449 4.64529 11.0193 4.64529C11.2937 4.64529 11.5169 4.85364 11.5169 5.10975C11.5169 5.36585 11.2937 5.57421 11.0193 5.57421Z" fill="#CC303E"/>
</svg>
