<svg width="11" height="11" viewBox="0 0 11 11" fill="none" xmlns="http://www.w3.org/2000/svg">
<g clip-path="url(#clip0)">
<path d="M4.74377 1.07867H6.41507V1.35989H7.01863V1.03931C7.01871 0.72818 6.76572 0.475037 6.45474 0.475037H4.7041C4.39313 0.475037 4.14014 0.72818 4.14014 1.03931V1.35989H4.74377V1.07867Z" fill="#FE5F6C"/>
<path d="M8.41203 3.7514H2.74583C2.59057 3.7514 2.46835 3.88385 2.48086 4.03865L2.95457 9.89619C2.98097 10.2232 3.25372 10.475 3.5814 10.475H7.57638C7.90407 10.475 8.17682 10.2232 8.20322 9.89612L8.67692 4.03865C8.68951 3.88385 8.56729 3.7514 8.41203 3.7514Z" fill="#FE5F6C"/>
<path d="M9.45601 2.81998L9.2578 2.2258C9.20554 2.06917 9.0589 1.9635 8.89373 1.9635H2.26462C2.09952 1.9635 1.95281 2.06917 1.90062 2.2258L1.70241 2.81998C1.66419 2.93457 1.71393 3.05145 1.80678 3.10974C1.84462 3.13347 1.88941 3.14774 1.93862 3.14774H9.21981C9.26902 3.14774 9.31388 3.13347 9.35164 3.10967C9.44449 3.05138 9.49424 2.93449 9.45601 2.81998Z" fill="#FE5F6C"/>
</g>
<defs>
<clipPath id="clip0">
<rect width="10" height="10" fill="white" transform="translate(0.576172 0.475037)"/>
</clipPath>
</defs>
</svg>
