<svg width="15" height="16" viewBox="0 0 15 16" fill="none" xmlns="http://www.w3.org/2000/svg">
<path d="M3.43658 9.8691C3.70705 10.1396 4.14565 10.1396 4.41616 9.8691L6.90601 7.37916L6.90606 14.7683C6.90606 15.1508 7.21619 15.4609 7.59874 15.4609C7.98128 15.4609 8.29141 15.1508 8.29141 14.7683L8.29136 7.37902L10.7814 9.86901C11.0519 10.1395 11.4905 10.1395 11.761 9.86901C12.0315 9.59849 12.0315 9.15994 11.761 8.88942L8.0885 5.21704C7.9586 5.08709 7.78243 5.01413 7.59873 5.01413C7.41504 5.01413 7.23882 5.08714 7.10892 5.21704L3.43653 8.88952C3.16607 9.16003 3.16607 9.59859 3.43658 9.8691Z" fill="#6086B4"/>
<path d="M0.921269 2.10596L14.2761 2.10596C14.6586 2.10596 14.9687 1.79582 14.9687 1.41328C14.9687 1.03074 14.6586 0.720604 14.2761 0.720604L0.921269 0.720605C0.538727 0.720605 0.228592 1.03074 0.228592 1.41328C0.228592 1.79587 0.538727 2.10596 0.921269 2.10596Z" fill="#6086B4"/>
</svg>
