<svg width="25" height="25" viewBox="0 0 25 25" fill="none" xmlns="http://www.w3.org/2000/svg">
<path d="M12.5 24.5C12.0221 24.5 11.551 24.4721 11.0881 24.4179L11.0299 24.9145C10.3715 24.8373 9.72867 24.709 9.1056 24.5336L9.24109 24.0523C8.32351 23.794 7.45041 23.4293 6.63592 22.9722L6.39121 23.4082C5.81843 23.0867 5.27354 22.7215 4.76108 22.3169L5.07089 21.9245C4.33027 21.3398 3.66018 20.6697 3.07553 19.9291L2.68307 20.2389C2.27854 19.7265 1.91327 19.1816 1.59181 18.6088L2.02784 18.3641C1.57073 17.5496 1.20598 16.6765 0.947675 15.7589L0.466382 15.8944C0.290985 15.2713 0.162676 14.6285 0.0855378 13.9701L0.582141 13.9119C0.527908 13.449 0.5 12.9779 0.5 12.5C0.5 12.0221 0.527908 11.551 0.582142 11.0881L0.0855381 11.0299C0.162676 10.3715 0.290986 9.72867 0.466382 9.1056L0.947675 9.24109C1.20598 8.32351 1.57073 7.45041 2.02784 6.63592L1.59181 6.39121C1.91327 5.81843 2.27854 5.27354 2.68307 4.76108L3.07553 5.07089C3.66018 4.33027 4.33027 3.66018 5.07089 3.07553L4.76108 2.68307C5.27354 2.27854 5.81843 1.91327 6.39121 1.59181L6.63592 2.02784C7.45041 1.57073 8.32351 1.20598 9.24109 0.947675L9.1056 0.466382C9.72867 0.290985 10.3715 0.162676 11.0299 0.0855378L11.0881 0.582141C11.551 0.527908 12.0221 0.5 12.5 0.5C12.9779 0.5 13.449 0.527908 13.9119 0.582142L13.9701 0.0855381C14.6285 0.162676 15.2713 0.290986 15.8944 0.466382L15.7589 0.947675C16.6765 1.20598 17.5496 1.57073 18.3641 2.02784L18.6088 1.59181C19.1816 1.91327 19.7265 2.27854 20.2389 2.68307L19.9291 3.07553C20.6697 3.66018 21.3398 4.33027 21.9245 5.07089L22.3169 4.76108C22.7215 5.27354 23.0867 5.81843 23.4082 6.39121L22.9722 6.63592C23.4293 7.45041 23.794 8.32351 24.0523 9.24109L24.5336 9.1056C24.709 9.72867 24.8373 10.3715 24.9145 11.0299L24.4179 11.0881C24.4721 11.551 24.5 12.0221 24.5 12.5C24.5 12.9779 24.4721 13.449 24.4179 13.9119L24.9145 13.9701C24.8373 14.6285 24.709 15.2713 24.5336 15.8944L24.0523 15.7589C23.794 16.6765 23.4293 17.5496 22.9722 18.3641L23.4082 18.6088C23.0867 19.1816 22.7215 19.7265 22.3169 20.2389L21.9245 19.9291C21.3398 20.6697 20.6697 21.3398 19.9291 21.9245L20.2389 22.3169C19.7265 22.7215 19.1816 23.0867 18.6088 23.4082L18.3641 22.9722C17.5496 23.4293 16.6765 23.794 15.7589 24.0523L15.8944 24.5336C15.2713 24.709 14.6285 24.8373 13.9701 24.9145L13.9119 24.4179C13.449 24.4721 12.9779 24.5 12.5 24.5Z" fill="white" stroke="#B9CEE8" stroke-dasharray="3 2"/>
<path d="M14.9361 14.4102C15.2906 14.2197 15.6963 14.1113 16.1285 14.1113H16.1299C16.1739 14.1113 16.1944 14.0586 16.1621 14.0293C15.7128 13.626 15.1994 13.3003 14.6431 13.0654C14.6372 13.0625 14.6314 13.061 14.6255 13.0581C15.5352 12.3975 16.127 11.3237 16.127 10.1123C16.127 8.10547 14.5039 6.47949 12.5015 6.47949C10.4991 6.47949 8.87748 8.10547 8.87748 10.1123C8.87748 11.3237 9.46927 12.3975 10.3804 13.0581C10.3745 13.061 10.3687 13.0625 10.3628 13.0654C9.70804 13.3423 9.12064 13.7393 8.61527 14.2461C8.11282 14.7476 7.7128 15.3422 7.43754 15.9966C7.16671 16.6374 7.02054 17.324 7.00687 18.0195C7.00648 18.0352 7.00922 18.0507 7.01494 18.0653C7.02065 18.0798 7.02922 18.0931 7.04014 18.1043C7.05106 18.1155 7.06411 18.1244 7.07853 18.1305C7.09294 18.1365 7.10842 18.1397 7.12406 18.1396H8.0015C8.06449 18.1396 8.11722 18.0884 8.11869 18.0254C8.14799 16.8945 8.60062 15.8354 9.40189 15.0327C10.2295 14.2021 11.3311 13.7451 12.503 13.7451C13.3335 13.7451 14.1304 13.9751 14.8174 14.4058C14.8351 14.4169 14.8553 14.4231 14.8762 14.4239C14.897 14.4246 14.9177 14.4199 14.9361 14.4102ZM12.503 12.6318C11.8321 12.6318 11.2007 12.3696 10.7246 11.8936C10.4904 11.6599 10.3047 11.3823 10.1783 11.0766C10.0518 10.7708 9.98708 10.4431 9.98783 10.1123C9.98783 9.43994 10.25 8.80713 10.7246 8.33105C11.1993 7.85498 11.8306 7.59277 12.503 7.59277C13.1753 7.59277 13.8052 7.85498 14.2813 8.33105C14.5155 8.56468 14.7012 8.84235 14.8277 9.14806C14.9541 9.45377 15.0188 9.78147 15.0181 10.1123C15.0181 10.7847 14.7559 11.4175 14.2813 11.8936C13.8052 12.3696 13.1739 12.6318 12.503 12.6318ZM17.8907 16.1182H16.6602V14.8877C16.6602 14.8232 16.6075 14.7705 16.543 14.7705H15.7227C15.6582 14.7705 15.6055 14.8232 15.6055 14.8877V16.1182H14.375C14.3106 16.1182 14.2578 16.1709 14.2578 16.2354V17.0557C14.2578 17.1201 14.3106 17.1729 14.375 17.1729H15.6055V18.4033C15.6055 18.4678 15.6582 18.5205 15.7227 18.5205H16.543C16.6075 18.5205 16.6602 18.4678 16.6602 18.4033V17.1729H17.8907C17.9551 17.1729 18.0078 17.1201 18.0078 17.0557V16.2354C18.0078 16.1709 17.9551 16.1182 17.8907 16.1182Z" fill="#B9CEE8"/>
</svg>
