<svg width="13" height="13" viewBox="0 0 13 13" fill="none" xmlns="http://www.w3.org/2000/svg">
<mask id="path-1-outside-1" maskUnits="userSpaceOnUse" x="6.02979" y="0.991333" width="7" height="12" fill="black">
<rect fill="white" x="6.02979" y="0.991333" width="7" height="12"/>
<path d="M11.8648 6.17359L7.81779 2.12659C7.63743 1.94625 7.34539 1.94625 7.16504 2.12659C6.9847 2.30678 6.9847 2.59915 7.16504 2.77934L10.8857 6.49997L7.16506 10.2206C6.98472 10.4008 6.98472 10.6932 7.16506 10.8734C7.25524 10.9635 7.37326 11.0086 7.49143 11.0086C7.60961 11.0086 7.7278 10.9635 7.81781 10.8734L11.8648 6.82635C12.0452 6.64616 12.0452 6.35378 11.8648 6.17359Z"/>
</mask>
<path d="M11.8648 6.17359L7.81779 2.12659C7.63743 1.94625 7.34539 1.94625 7.16504 2.12659C6.9847 2.30678 6.9847 2.59915 7.16504 2.77934L10.8857 6.49997L7.16506 10.2206C6.98472 10.4008 6.98472 10.6932 7.16506 10.8734C7.25524 10.9635 7.37326 11.0086 7.49143 11.0086C7.60961 11.0086 7.7278 10.9635 7.81781 10.8734L11.8648 6.82635C12.0452 6.64616 12.0452 6.35378 11.8648 6.17359Z" fill="#E4BD5B"/>
<path d="M11.8648 6.17359L11.1577 6.8807L11.158 6.88103L11.8648 6.17359ZM7.81779 2.12659L8.5249 1.41948L8.52486 1.41944L7.81779 2.12659ZM7.16504 2.12659L7.87186 2.83398L7.8721 2.83373L7.16504 2.12659ZM7.16504 2.77934L7.87214 2.07223L7.87186 2.07195L7.16504 2.77934ZM10.8857 6.49997L11.5928 7.20708L12.2999 6.49997L11.5928 5.79286L10.8857 6.49997ZM7.16506 10.2206L7.87188 10.928L7.87216 10.9277L7.16506 10.2206ZM7.16506 10.8734L7.87217 10.1662L7.87188 10.166L7.16506 10.8734ZM7.81781 10.8734L7.11071 10.1662L7.11005 10.1669L7.81781 10.8734ZM11.8648 6.82635L11.158 6.11895L11.1577 6.11924L11.8648 6.82635ZM12.5719 5.46649L8.5249 1.41948L7.11068 2.83369L11.1577 6.8807L12.5719 5.46649ZM8.52486 1.41944C7.95399 0.848631 7.02884 0.848631 6.45797 1.41944L7.8721 2.83373C7.66195 3.04387 7.32088 3.04387 7.11073 2.83373L8.52486 1.41944ZM6.45822 1.41919C5.88697 1.98997 5.88697 2.91595 6.45822 3.48673L7.87186 2.07195C8.08243 2.28235 8.08243 2.62358 7.87186 2.83398L6.45822 1.41919ZM6.45793 3.48645L10.1786 7.20708L11.5928 5.79286L7.87214 2.07223L6.45793 3.48645ZM10.1786 5.79286L6.45795 9.51349L7.87216 10.9277L11.5928 7.20708L10.1786 5.79286ZM6.45824 9.51321C5.887 10.084 5.887 11.01 6.45824 11.5807L7.87188 10.166C8.08245 10.3764 8.08245 10.7176 7.87188 10.928L6.45824 9.51321ZM6.45795 11.5805C6.74292 11.8654 7.11848 12.0086 7.49143 12.0086V10.0086C7.62804 10.0086 7.76755 10.0616 7.87216 10.1662L6.45795 11.5805ZM7.49143 12.0086C7.86383 12.0086 8.24013 11.8658 8.52557 11.5798L7.11005 10.1669C7.21547 10.0613 7.35538 10.0086 7.49143 10.0086V12.0086ZM8.52492 11.5805L12.5719 7.53345L11.1577 6.11924L7.11071 10.1662L8.52492 11.5805ZM12.5716 7.53374C13.1429 6.96295 13.1429 6.03694 12.5716 5.46616L11.158 6.88103C10.9474 6.67062 10.9474 6.32936 11.158 6.11895L12.5716 7.53374Z" fill="#E4BD5B" mask="url(#path-1-outside-1)"/>
<mask id="path-3-outside-2" maskUnits="userSpaceOnUse" x="0.351562" y="0.991333" width="7" height="12" fill="black">
<rect fill="white" x="0.351562" y="0.991333" width="7" height="12"/>
<path d="M6.18658 6.17359L2.13957 2.12659C1.95938 1.94625 1.66701 1.94625 1.48681 2.12659C1.30648 2.30678 1.30648 2.59915 1.48681 2.77934L5.2073 6.49997L1.48684 10.2206C1.3065 10.4008 1.3065 10.6932 1.48684 10.8734C1.57685 10.9635 1.69504 11.0086 1.81321 11.0086C1.93138 11.0086 2.04958 10.9635 2.13959 10.8734L6.1866 6.82635C6.36691 6.64616 6.36691 6.35378 6.18658 6.17359Z"/>
</mask>
<path d="M6.18658 6.17359L2.13957 2.12659C1.95938 1.94625 1.66701 1.94625 1.48681 2.12659C1.30648 2.30678 1.30648 2.59915 1.48681 2.77934L5.2073 6.49997L1.48684 10.2206C1.3065 10.4008 1.3065 10.6932 1.48684 10.8734C1.57685 10.9635 1.69504 11.0086 1.81321 11.0086C1.93138 11.0086 2.04958 10.9635 2.13959 10.8734L6.1866 6.82635C6.36691 6.64616 6.36691 6.35378 6.18658 6.17359Z" fill="#E4BD5B"/>
<path d="M6.18658 6.17359L5.47947 6.8807L5.47976 6.88098L6.18658 6.17359ZM2.13957 2.12659L1.43218 2.83341L1.43246 2.83369L2.13957 2.12659ZM1.48681 2.12659L2.19364 2.83398L2.19421 2.83341L1.48681 2.12659ZM1.48681 2.77934L2.19394 2.07225L2.19364 2.07195L1.48681 2.77934ZM5.2073 6.49997L5.91442 7.20706L6.62148 6.49997L5.91442 5.79288L5.2073 6.49997ZM1.48684 10.2206L2.19366 10.928L2.19396 10.9277L1.48684 10.2206ZM1.48684 10.8734L2.1946 10.1669L2.19366 10.166L1.48684 10.8734ZM2.13959 10.8734L1.43248 10.1662L1.43183 10.1669L2.13959 10.8734ZM6.1866 6.82635L5.47973 6.11899L5.47949 6.11924L6.1866 6.82635ZM6.89368 5.46649L2.84668 1.41948L1.43246 2.83369L5.47947 6.8807L6.89368 5.46649ZM2.84696 1.41976C2.27618 0.848523 1.3502 0.848523 0.779422 1.41976L2.19421 2.83341C1.98381 3.04398 1.64258 3.04398 1.43218 2.83341L2.84696 1.41976ZM0.779993 1.41919C0.208752 1.98997 0.208752 2.91595 0.779993 3.48673L2.19364 2.07195C2.4042 2.28235 2.4042 2.62358 2.19364 2.83398L0.779993 1.41919ZM0.779694 3.48643L4.50018 7.20706L5.91442 5.79288L2.19394 2.07225L0.779694 3.48643ZM4.50018 5.79288L0.779713 9.51351L2.19396 10.9277L5.91442 7.20706L4.50018 5.79288ZM0.780014 9.51321C0.208773 10.084 0.208773 11.01 0.780014 11.5807L2.19366 10.166C2.40423 10.3764 2.40423 10.7176 2.19366 10.928L0.780014 9.51321ZM0.779076 11.5798C1.06452 11.8658 1.44081 12.0086 1.81321 12.0086V10.0086C1.94927 10.0086 2.08918 10.0613 2.19459 10.1669L0.779076 11.5798ZM1.81321 12.0086C2.18561 12.0086 2.56191 11.8658 2.84735 11.5798L1.43183 10.1669C1.53725 10.0613 1.67716 10.0086 1.81321 10.0086V12.0086ZM2.8467 11.5805L6.8937 7.53345L5.47949 6.11924L1.43248 10.1662L2.8467 11.5805ZM6.89346 7.5337C7.46463 6.96292 7.46463 6.03697 6.8934 5.4662L5.47976 6.88098C5.26919 6.67059 5.26919 6.32939 5.47973 6.11899L6.89346 7.5337Z" fill="#E4BD5B" mask="url(#path-3-outside-2)"/>
</svg>
