<svg xmlns="http://www.w3.org/2000/svg" viewBox="0 0 411.32 250"><defs><style>.cls-1{fill:#f5f5f5;}.cls-2{fill:#fafbfb;}.cls-3{fill:#ebebeb;}.cls-4{fill:#ffcb13;}.cls-5{fill:#ee3542;}.cls-6{fill:#fff;}.cls-7{fill:#263238;}.cls-8{fill:#ffcd24;}.cls-9{fill:#eb2b37;}.cls-10{opacity:0.3;}.cls-11{opacity:0.2;}</style></defs><g id="Layer_2" data-name="Layer 2"><g id="Layer_1-2" data-name="Layer 1"><rect class="cls-1" x="0.32" y="85.69" width="53.79" height="164.14"/><rect class="cls-2" x="53.94" y="85.69" width="42.51" height="164.14"/><rect class="cls-3" x="3.21" y="111.96" width="45.63" height="12.8"/><rect class="cls-1" x="4.48" y="113.56" width="2.56" height="9.79"/><path class="cls-2" d="M10,115.62a.81.81,0,1,1-.81-.8A.81.81,0,0,1,10,115.62Z"/><circle class="cls-2" cx="9.23" cy="119.08" r="0.81"/><rect class="cls-1" x="13.29" y="114.82" width="2.51" height="7.52"/><rect class="cls-1" x="16.92" y="114.82" width="2.51" height="7.52"/><rect class="cls-1" x="20.54" y="114.82" width="2.51" height="7.52"/><rect class="cls-1" x="24.17" y="114.82" width="2.51" height="7.52"/><rect class="cls-1" x="27.8" y="114.82" width="2.51" height="7.52"/><rect class="cls-1" x="31.42" y="114.82" width="2.51" height="7.52"/><rect class="cls-1" x="35.05" y="114.82" width="2.51" height="7.52"/><rect class="cls-1" x="38.68" y="114.82" width="2.51" height="7.52"/><rect class="cls-1" x="42.31" y="114.82" width="2.51" height="7.52"/><rect class="cls-1" x="45.93" y="114.82" width="2.51" height="7.52"/><rect class="cls-3" x="3.21" y="132.45" width="45.63" height="12.8"/><rect class="cls-1" x="4.48" y="134.06" width="2.56" height="9.79"/><path class="cls-2" d="M10,136.12a.81.81,0,1,1-.81-.81A.81.81,0,0,1,10,136.12Z"/><path class="cls-2" d="M10,139.58a.81.81,0,1,1-.81-.81A.81.81,0,0,1,10,139.58Z"/><rect class="cls-1" x="13.29" y="135.31" width="2.51" height="7.52"/><rect class="cls-1" x="16.92" y="135.31" width="2.51" height="7.52"/><rect class="cls-1" x="20.54" y="135.31" width="2.51" height="7.52"/><rect class="cls-1" x="24.17" y="135.31" width="2.51" height="7.52"/><rect class="cls-1" x="27.8" y="135.31" width="2.51" height="7.52"/><rect class="cls-1" x="31.42" y="135.31" width="2.51" height="7.52"/><rect class="cls-1" x="35.05" y="135.31" width="2.51" height="7.52"/><rect class="cls-1" x="38.68" y="135.31" width="2.51" height="7.52"/><rect class="cls-1" x="42.31" y="135.31" width="2.51" height="7.52"/><rect class="cls-1" x="45.93" y="135.31" width="2.51" height="7.52"/><rect class="cls-3" x="3.21" y="152.95" width="45.63" height="12.8"/><rect class="cls-1" x="4.48" y="154.56" width="2.56" height="9.79"/><path class="cls-2" d="M10,156.62a.81.81,0,1,1-.81-.81A.81.81,0,0,1,10,156.62Z"/><circle class="cls-2" cx="9.23" cy="160.08" r="0.81"/><rect class="cls-1" x="13.29" y="155.81" width="2.51" height="7.52"/><rect class="cls-1" x="16.92" y="155.81" width="2.51" height="7.52"/><rect class="cls-1" x="20.54" y="155.81" width="2.51" height="7.52"/><rect class="cls-1" x="24.17" y="155.81" width="2.51" height="7.52"/><rect class="cls-1" x="27.8" y="155.81" width="2.51" height="7.52"/><rect class="cls-1" x="31.42" y="155.81" width="2.51" height="7.52"/><rect class="cls-1" x="35.05" y="155.81" width="2.51" height="7.52"/><rect class="cls-1" x="38.68" y="155.81" width="2.51" height="7.52"/><rect class="cls-1" x="42.31" y="155.81" width="2.51" height="7.52"/><rect class="cls-1" x="45.93" y="155.81" width="2.51" height="7.52"/><rect class="cls-3" x="3.21" y="173.44" width="45.63" height="12.8"/><rect class="cls-1" x="4.48" y="175.05" width="2.56" height="9.79"/><path class="cls-2" d="M10,177.11a.81.81,0,1,1-.81-.81A.81.81,0,0,1,10,177.11Z"/><circle class="cls-2" cx="9.23" cy="180.57" r="0.81"/><rect class="cls-1" x="13.29" y="176.3" width="2.51" height="7.52"/><rect class="cls-1" x="16.92" y="176.3" width="2.51" height="7.52"/><rect class="cls-1" x="20.54" y="176.3" width="2.51" height="7.52"/><rect class="cls-1" x="24.17" y="176.3" width="2.51" height="7.52"/><rect class="cls-1" x="27.8" y="176.3" width="2.51" height="7.52"/><rect class="cls-1" x="31.42" y="176.3" width="2.51" height="7.52"/><rect class="cls-1" x="35.05" y="176.3" width="2.51" height="7.52"/><rect class="cls-1" x="38.68" y="176.3" width="2.51" height="7.52"/><rect class="cls-1" x="42.31" y="176.3" width="2.51" height="7.52"/><rect class="cls-1" x="45.93" y="176.3" width="2.51" height="7.52"/><rect class="cls-3" x="3.21" y="193.94" width="45.63" height="12.8"/><rect class="cls-1" x="4.48" y="195.55" width="2.56" height="9.79"/><path class="cls-2" d="M10,197.61a.81.81,0,1,1-.81-.81A.81.81,0,0,1,10,197.61Z"/><circle class="cls-2" cx="9.23" cy="201.07" r="0.81"/><rect class="cls-1" x="13.29" y="196.8" width="2.51" height="7.52"/><rect class="cls-1" x="16.92" y="196.8" width="2.51" height="7.52"/><rect class="cls-1" x="20.54" y="196.8" width="2.51" height="7.52"/><rect class="cls-1" x="24.17" y="196.8" width="2.51" height="7.52"/><rect class="cls-1" x="27.8" y="196.8" width="2.51" height="7.52"/><rect class="cls-1" x="31.42" y="196.8" width="2.51" height="7.52"/><rect class="cls-1" x="35.05" y="196.8" width="2.51" height="7.52"/><rect class="cls-1" x="38.68" y="196.8" width="2.51" height="7.52"/><rect class="cls-1" x="42.31" y="196.8" width="2.51" height="7.52"/><rect class="cls-1" x="45.93" y="196.8" width="2.51" height="7.52"/><rect class="cls-3" x="3.21" y="214.44" width="45.63" height="12.8"/><rect class="cls-1" x="4.48" y="216.05" width="2.56" height="9.79"/><path class="cls-2" d="M10,218.11a.81.81,0,1,1-.81-.81A.8.8,0,0,1,10,218.11Z"/><circle class="cls-2" cx="9.23" cy="221.57" r="0.81"/><rect class="cls-1" x="13.29" y="217.3" width="2.51" height="7.52"/><rect class="cls-1" x="16.92" y="217.3" width="2.51" height="7.52"/><rect class="cls-1" x="20.54" y="217.3" width="2.51" height="7.52"/><rect class="cls-1" x="24.17" y="217.3" width="2.51" height="7.52"/><rect class="cls-1" x="27.8" y="217.3" width="2.51" height="7.52"/><rect class="cls-1" x="31.42" y="217.3" width="2.51" height="7.52"/><rect class="cls-1" x="35.05" y="217.3" width="2.51" height="7.52"/><rect class="cls-1" x="38.68" y="217.3" width="2.51" height="7.52"/><rect class="cls-1" x="42.31" y="217.3" width="2.51" height="7.52"/><rect class="cls-1" x="45.93" y="217.3" width="2.51" height="7.52"/><rect class="cls-3" x="3.21" y="234.93" width="45.63" height="12.8"/><rect class="cls-1" x="4.48" y="236.54" width="2.56" height="9.79"/><path class="cls-2" d="M10,238.6a.81.81,0,1,1-.81-.81A.81.81,0,0,1,10,238.6Z"/><path class="cls-2" d="M10,242.06a.81.81,0,1,1-.81-.81A.81.81,0,0,1,10,242.06Z"/><rect class="cls-1" x="13.29" y="237.79" width="2.51" height="7.52"/><rect class="cls-1" x="16.92" y="237.79" width="2.51" height="7.52"/><rect class="cls-1" x="20.54" y="237.79" width="2.51" height="7.52"/><rect class="cls-1" x="24.17" y="237.79" width="2.51" height="7.52"/><rect class="cls-1" x="27.8" y="237.79" width="2.51" height="7.52"/><rect class="cls-1" x="31.42" y="237.79" width="2.51" height="7.52"/><rect class="cls-1" x="35.05" y="237.79" width="2.51" height="7.52"/><rect class="cls-1" x="38.68" y="237.79" width="2.51" height="7.52"/><rect class="cls-1" x="42.31" y="237.79" width="2.51" height="7.52"/><rect class="cls-1" x="45.93" y="237.79" width="2.51" height="7.52"/><path class="cls-3" d="M31.42,112a1.87,1.87,0,0,1-.05-.4c0-.26,0-.64,0-1.14s0-1.09-.06-1.79A10.82,10.82,0,0,0,31,106.3a8.19,8.19,0,0,0-1.22-2.56,5.58,5.58,0,0,0-2.49-2A12,12,0,0,0,23.7,101l-3.93-.34c-5.39-.46-10.27-.76-13.81-.83-1.77,0-3.2,0-4.19,0H.63c-.27,0-.4,0-.4,0l.39,0,1.14-.07c1,0,2.43-.09,4.2-.08,3.55,0,8.45.27,13.84.73l3.93.35a12.28,12.28,0,0,1,3.63.76,5.91,5.91,0,0,1,2.6,2.12,8.39,8.39,0,0,1,1.22,2.65,10.65,10.65,0,0,1,.27,2.38c0,.71,0,1.31,0,1.8s0,.84,0,1.14A1.25,1.25,0,0,1,31.42,112Z"/><path class="cls-3" d="M17.58,112a1.88,1.88,0,0,1,0-.38c0-.28,0-.63,0-1.07s0-1-.06-1.68a5.19,5.19,0,0,0-.56-2.1,4.09,4.09,0,0,0-2.06-1.58,5.77,5.77,0,0,0-3-.3,5,5,0,0,0-1.54.53,2.84,2.84,0,0,0-1.2,1.13,1.59,1.59,0,0,0,0,1.58,2.09,2.09,0,0,0,1.35,1,1.71,1.71,0,0,0,1.58-.46,2.25,2.25,0,0,0,.24-3.05,3.27,3.27,0,0,0-1.2-1,4.49,4.49,0,0,0-1.5-.39c-.52-.08-1-.14-1.5-.2-1-.11-1.88-.17-2.71-.2-1.66-.07-3-.05-3.94-.05H.37l-.37,0a2.24,2.24,0,0,1,.37,0l1.08-.06c.93,0,2.28-.09,4-.06.83,0,1.75.07,2.73.17l1.51.18.79.13a3,3,0,0,1,.81.28,3.61,3.61,0,0,1,1.32,1.14,2.63,2.63,0,0,1,.54,1.75,2.7,2.7,0,0,1-.81,1.72,2.05,2.05,0,0,1-1.88.54,2.48,2.48,0,0,1-1.57-1.18,2,2,0,0,1,0-1.9,3.28,3.28,0,0,1,1.34-1.25,5.67,5.67,0,0,1,1.64-.55,6,6,0,0,1,3.15.35,4.22,4.22,0,0,1,2.16,1.71,5.22,5.22,0,0,1,.54,2.21,15.75,15.75,0,0,1,0,1.69l0,1.07A1.42,1.42,0,0,1,17.58,112Z"/><path class="cls-3" d="M35.15,112a3.39,3.39,0,0,1-.1-.43c0-.28-.13-.69-.24-1.21A23.65,23.65,0,0,0,33.46,106a12.57,12.57,0,0,0-4-5.3,7.48,7.48,0,0,0-3.63-1.38,36.86,36.86,0,0,0-4.28-.23C15.69,99,10.34,99,6.47,98.84,4.54,98.77,3,98.68,1.9,98.6L.66,98.49a1.57,1.57,0,0,1-.43-.06,2.35,2.35,0,0,1,.43,0l1.25,0c1.08,0,2.64.1,4.57.14,3.86.09,9.21,0,15.11.14a38.16,38.16,0,0,1,4.32.24,7.85,7.85,0,0,1,3.77,1.45,11.78,11.78,0,0,1,2.51,2.65,15.69,15.69,0,0,1,1.49,2.81,22.19,22.19,0,0,1,1.26,4.39q.14.81.18,1.23A2.4,2.4,0,0,1,35.15,112Z"/><rect class="cls-3" x="3.83" y="87.73" width="44.38" height="6.42"/><rect class="cls-1" x="13.59" y="90.94" width="24.16" height="3.21"/><rect class="cls-1" x="65.34" y="45.78" width="66.67" height="204.23"/><rect class="cls-2" x="131.8" y="45.78" width="52.69" height="204.23"/><rect class="cls-3" x="68.92" y="78.46" width="56.55" height="15.92"/><rect class="cls-1" x="70.5" y="80.46" width="3.17" height="12.19"/><path class="cls-2" d="M77.39,83a1,1,0,1,1-1-1A1,1,0,0,1,77.39,83Z"/><circle class="cls-2" cx="76.39" cy="87.33" r="1.01"/><rect class="cls-1" x="81.42" y="82.02" width="3.11" height="9.36"/><rect class="cls-1" x="85.91" y="82.02" width="3.11" height="9.36"/><rect class="cls-1" x="90.41" y="82.02" width="3.11" height="9.36"/><rect class="cls-1" x="94.9" y="82.02" width="3.11" height="9.36"/><rect class="cls-1" x="99.4" y="82.02" width="3.11" height="9.36"/><rect class="cls-1" x="103.89" y="82.02" width="3.11" height="9.36"/><rect class="cls-1" x="108.39" y="82.02" width="3.11" height="9.36"/><rect class="cls-1" x="112.88" y="82.02" width="3.11" height="9.36"/><rect class="cls-1" x="117.38" y="82.02" width="3.11" height="9.36"/><rect class="cls-1" x="121.87" y="82.02" width="3.11" height="9.36"/><rect class="cls-3" x="68.92" y="103.96" width="56.55" height="15.92"/><rect class="cls-1" x="70.5" y="105.97" width="3.17" height="12.19"/><path class="cls-2" d="M77.39,108.53a1,1,0,1,1-1-1A1,1,0,0,1,77.39,108.53Z"/><path class="cls-2" d="M77.39,112.83a1,1,0,1,1-1-1A1,1,0,0,1,77.39,112.83Z"/><rect class="cls-1" x="81.42" y="107.52" width="3.11" height="9.36"/><rect class="cls-1" x="85.91" y="107.52" width="3.11" height="9.36"/><rect class="cls-1" x="90.41" y="107.52" width="3.11" height="9.36"/><rect class="cls-1" x="94.9" y="107.52" width="3.11" height="9.36"/><rect class="cls-1" x="99.4" y="107.52" width="3.11" height="9.36"/><rect class="cls-1" x="103.89" y="107.52" width="3.11" height="9.36"/><rect class="cls-1" x="108.39" y="107.52" width="3.11" height="9.36"/><rect class="cls-1" x="112.88" y="107.52" width="3.11" height="9.36"/><rect class="cls-1" x="117.38" y="107.52" width="3.11" height="9.36"/><rect class="cls-1" x="121.87" y="107.52" width="3.11" height="9.36"/><rect class="cls-3" x="68.92" y="129.47" width="56.55" height="15.92"/><rect class="cls-1" x="70.5" y="131.47" width="3.17" height="12.19"/><path class="cls-2" d="M77.39,134a1,1,0,1,1-1-1A1,1,0,0,1,77.39,134Z"/><circle class="cls-2" cx="76.39" cy="138.34" r="1.01"/><rect class="cls-1" x="81.42" y="133.02" width="3.11" height="9.36"/><rect class="cls-1" x="85.91" y="133.02" width="3.11" height="9.36"/><rect class="cls-1" x="90.41" y="133.02" width="3.11" height="9.36"/><rect class="cls-1" x="94.9" y="133.02" width="3.11" height="9.36"/><rect class="cls-1" x="99.4" y="133.02" width="3.11" height="9.36"/><rect class="cls-1" x="103.89" y="133.02" width="3.11" height="9.36"/><rect class="cls-1" x="108.39" y="133.02" width="3.11" height="9.36"/><rect class="cls-1" x="112.88" y="133.02" width="3.11" height="9.36"/><rect class="cls-1" x="117.38" y="133.02" width="3.11" height="9.36"/><rect class="cls-1" x="121.87" y="133.02" width="3.11" height="9.36"/><rect class="cls-3" x="68.92" y="154.97" width="56.55" height="15.92"/><rect class="cls-1" x="70.5" y="156.97" width="3.17" height="12.19"/><path class="cls-2" d="M77.39,159.53a1,1,0,1,1-1-1A1,1,0,0,1,77.39,159.53Z"/><path class="cls-2" d="M77.39,163.84a1,1,0,1,1-1-1A1,1,0,0,1,77.39,163.84Z"/><rect class="cls-1" x="81.42" y="158.53" width="3.11" height="9.36"/><rect class="cls-1" x="85.91" y="158.53" width="3.11" height="9.36"/><rect class="cls-1" x="90.41" y="158.53" width="3.11" height="9.36"/><rect class="cls-1" x="94.9" y="158.53" width="3.11" height="9.36"/><rect class="cls-1" x="99.4" y="158.53" width="3.11" height="9.36"/><rect class="cls-1" x="103.89" y="158.53" width="3.11" height="9.36"/><rect class="cls-1" x="108.39" y="158.53" width="3.11" height="9.36"/><rect class="cls-1" x="112.88" y="158.53" width="3.11" height="9.36"/><rect class="cls-1" x="117.38" y="158.53" width="3.11" height="9.36"/><rect class="cls-1" x="121.87" y="158.53" width="3.11" height="9.36"/><rect class="cls-3" x="68.92" y="180.47" width="56.55" height="15.92"/><rect class="cls-1" x="70.5" y="182.47" width="3.17" height="12.19"/><path class="cls-2" d="M77.39,185a1,1,0,1,1-1-1A1,1,0,0,1,77.39,185Z"/><circle class="cls-2" cx="76.39" cy="189.34" r="1.01"/><rect class="cls-1" x="81.42" y="184.03" width="3.11" height="9.36"/><rect class="cls-1" x="85.91" y="184.03" width="3.11" height="9.36"/><rect class="cls-1" x="90.41" y="184.03" width="3.11" height="9.36"/><rect class="cls-1" x="94.9" y="184.03" width="3.11" height="9.36"/><rect class="cls-1" x="99.4" y="184.03" width="3.11" height="9.36"/><rect class="cls-1" x="103.89" y="184.03" width="3.11" height="9.36"/><rect class="cls-1" x="108.39" y="184.03" width="3.11" height="9.36"/><rect class="cls-1" x="112.88" y="184.03" width="3.11" height="9.36"/><rect class="cls-1" x="117.38" y="184.03" width="3.11" height="9.36"/><rect class="cls-1" x="121.87" y="184.03" width="3.11" height="9.36"/><rect class="cls-3" x="68.92" y="205.97" width="56.55" height="15.92"/><rect class="cls-1" x="70.5" y="207.97" width="3.17" height="12.19"/><path class="cls-2" d="M77.39,210.54a1,1,0,1,1-1-1A1,1,0,0,1,77.39,210.54Z"/><path class="cls-2" d="M77.39,214.84a1,1,0,1,1-1-1A1,1,0,0,1,77.39,214.84Z"/><rect class="cls-1" x="81.42" y="209.53" width="3.11" height="9.36"/><rect class="cls-1" x="85.91" y="209.53" width="3.11" height="9.36"/><rect class="cls-1" x="90.41" y="209.53" width="3.11" height="9.36"/><rect class="cls-1" x="94.9" y="209.53" width="3.11" height="9.36"/><rect class="cls-1" x="99.4" y="209.53" width="3.11" height="9.36"/><rect class="cls-1" x="103.89" y="209.53" width="3.11" height="9.36"/><rect class="cls-1" x="108.39" y="209.53" width="3.11" height="9.36"/><rect class="cls-1" x="112.88" y="209.53" width="3.11" height="9.36"/><rect class="cls-1" x="117.38" y="209.53" width="3.11" height="9.36"/><rect class="cls-1" x="121.87" y="209.53" width="3.11" height="9.36"/><rect class="cls-3" x="68.92" y="231.48" width="56.55" height="15.92"/><rect class="cls-1" x="70.5" y="233.48" width="3.17" height="12.19"/><path class="cls-2" d="M77.39,236a1,1,0,1,1-1-1A1,1,0,0,1,77.39,236Z"/><circle class="cls-2" cx="76.39" cy="240.35" r="1.01"/><rect class="cls-1" x="81.42" y="235.03" width="3.11" height="9.36"/><rect class="cls-1" x="85.91" y="235.03" width="3.11" height="9.36"/><rect class="cls-1" x="90.41" y="235.03" width="3.11" height="9.36"/><rect class="cls-1" x="94.9" y="235.03" width="3.11" height="9.36"/><rect class="cls-1" x="99.4" y="235.03" width="3.11" height="9.36"/><rect class="cls-1" x="103.89" y="235.03" width="3.11" height="9.36"/><rect class="cls-1" x="108.39" y="235.03" width="3.11" height="9.36"/><rect class="cls-1" x="112.88" y="235.03" width="3.11" height="9.36"/><rect class="cls-1" x="117.38" y="235.03" width="3.11" height="9.36"/><rect class="cls-1" x="121.87" y="235.03" width="3.11" height="9.36"/><path class="cls-3" d="M103.89,78.46a2.16,2.16,0,0,1-.06-.49c0-.32,0-.8-.06-1.41s0-1.37-.07-2.24a14.7,14.7,0,0,0-.39-2.9,10.34,10.34,0,0,0-1.51-3.18,7.06,7.06,0,0,0-3.1-2.48,14.82,14.82,0,0,0-4.38-.89l-4.87-.42c-6.68-.58-12.73-1-17.12-1-2.19,0-4,0-5.2,0H65.72a2.66,2.66,0,0,1-.49,0,1.54,1.54,0,0,1,.49-.06l1.41-.09c1.23,0,3-.11,5.2-.1,4.4,0,10.47.34,17.15.92l4.87.43a15.27,15.27,0,0,1,4.5.94,7.37,7.37,0,0,1,3.22,2.64,10.37,10.37,0,0,1,1.52,3.3,14.53,14.53,0,0,1,.34,3c0,.88,0,1.63,0,2.24s0,1,0,1.42A1.86,1.86,0,0,1,103.89,78.46Z"/><path class="cls-3" d="M86.74,78.46a1.52,1.52,0,0,1,0-.46c0-.35,0-.79,0-1.33s0-1.29-.07-2.1a6.5,6.5,0,0,0-.7-2.61,5,5,0,0,0-2.55-2,7.06,7.06,0,0,0-3.71-.38,6.81,6.81,0,0,0-1.92.65,3.66,3.66,0,0,0-1.48,1.41,2,2,0,0,0,0,2,2.67,2.67,0,0,0,1.68,1.27,2.17,2.17,0,0,0,2-.57,2.93,2.93,0,0,0,.88-1.87,2.83,2.83,0,0,0-.59-1.92,4.18,4.18,0,0,0-1.49-1.32,5.55,5.55,0,0,0-1.86-.48c-.64-.09-1.26-.18-1.86-.24-1.2-.14-2.33-.22-3.35-.26-2.06-.08-3.73-.05-4.89-.06H65.41a2.84,2.84,0,0,1-.47,0,1.74,1.74,0,0,1,.47,0L66.74,68c1.15,0,2.82-.12,4.9-.07,1,0,2.17.09,3.38.21.61.06,1.23.14,1.87.23l1,.15a4.1,4.1,0,0,1,1,.35,4.52,4.52,0,0,1,1.63,1.42,3.21,3.21,0,0,1,.67,2.18,3.35,3.35,0,0,1-1,2.14,2.57,2.57,0,0,1-2.34.67,3.06,3.06,0,0,1-1.94-1.47,2.39,2.39,0,0,1,0-2.36,4.11,4.11,0,0,1,1.65-1.56,6.78,6.78,0,0,1,2-.68,7.34,7.34,0,0,1,3.9.43,5.28,5.28,0,0,1,2.67,2.13,6.49,6.49,0,0,1,.68,2.75c0,.82,0,1.53,0,2.11s0,1-.06,1.33A3.39,3.39,0,0,1,86.74,78.46Z"/><path class="cls-3" d="M108.51,78.46a2,2,0,0,1-.12-.52c-.06-.35-.16-.86-.3-1.52A29.31,29.31,0,0,0,106.41,71a15.69,15.69,0,0,0-4.91-6.6A9.22,9.22,0,0,0,97,62.73a47.47,47.47,0,0,0-5.3-.29c-7.3-.13-13.93-.11-18.72-.3-2.4-.08-4.33-.2-5.67-.3l-1.54-.13a2.61,2.61,0,0,1-.53-.07,2,2,0,0,1,.54,0l1.54,0c1.34,0,3.27.12,5.67.17,4.79.12,11.4,0,18.72.18a49,49,0,0,1,5.35.3,9.56,9.56,0,0,1,4.67,1.81,14.22,14.22,0,0,1,3.12,3.3,19.3,19.3,0,0,1,1.84,3.48,27.22,27.22,0,0,1,1.56,5.47c.12.67.19,1.18.23,1.53A3.11,3.11,0,0,1,108.51,78.46Z"/><rect class="cls-3" x="69.69" y="48.32" width="55" height="7.98"/><rect class="cls-1" x="81.79" y="52.31" width="29.94" height="3.99"/><path class="cls-4" d="M240.58,36.79l36.36-5.56A36.79,36.79,0,1,1,235,.42a37.17,37.17,0,0,1,9.6-.2Z"/><path class="cls-5" d="M252.38.34,248,28.53l27.67-5.2S271.56,7.53,252.38.34Z"/><path class="cls-1" d="M333.86,218.83A19.82,19.82,0,1,1,354,238.42,19.89,19.89,0,0,1,333.86,218.83Zm29.3-.48a9.48,9.48,0,1,0-9.33,9.68A9.51,9.51,0,0,0,363.16,218.35Z"/><path class="cls-3" d="M333.86,218.83a19.89,19.89,0,0,1,19.5-20.23l.17,10.39a9.52,9.52,0,0,0,.3,19l.17,10.39A19.89,19.89,0,0,1,333.86,218.83Z"/><path class="cls-3" d="M351.58,197a22.64,22.64,0,0,1,23.19,22.56l-12.1.19c-.1-6.14-4.77-10-10.88-9.9Z"/><rect class="cls-6" x="316.97" y="23.07" width="82.47" height="94.12"/><path class="cls-7" d="M399.44,117.19v-1.76c0-1.15,0-2.86,0-5.08,0-4.44,0-10.94,0-19.2,0-16.5,0-40-.07-68.08l.13.13-82.46,0h0l.15-.15c0,34.7,0,67.06,0,94.12l-.13-.13,59.82.06,16.72,0h4.41l1.52,0H398l-4.38,0-16.7,0-59.9.07h-.13v-.13c0-27.06,0-59.42,0-94.12v-.16H317l82.46,0h.14v.14c0,28.1-.05,51.64-.07,68.17,0,8.24,0,14.73,0,19.17,0,2.21,0,3.9,0,5,0,.57,0,1,0,1.3S399.44,117.19,399.44,117.19Z"/><path class="cls-5" d="M392.35,71.13c0,.05-.91-.46-2.65-1a17,17,0,0,0-7.6-.57,16.57,16.57,0,0,0-5,1.62,23.52,23.52,0,0,0-4.93,3.54c-1.62,1.43-3.22,3.05-5.08,4.55a17.4,17.4,0,0,1-6.47,3.5,9.71,9.71,0,0,1-3.79.23,12.5,12.5,0,0,1-3.5-1.08,61.07,61.07,0,0,1-5.87-3.49,18.6,18.6,0,0,0-5.52-2.48,16.58,16.58,0,0,0-5.25-.4,16.83,16.83,0,0,0-7.25,2.36c-1.56.95-2.29,1.67-2.33,1.62a3.72,3.72,0,0,1,.53-.52,12.19,12.19,0,0,1,1.68-1.28,16.62,16.62,0,0,1,7.33-2.58,16.85,16.85,0,0,1,5.4.35A18.28,18.28,0,0,1,347.71,78a65.27,65.27,0,0,0,5.83,3.43,10,10,0,0,0,6.92.81,17.26,17.26,0,0,0,6.27-3.39c1.82-1.47,3.43-3.08,5.07-4.51a24,24,0,0,1,5.07-3.57,16.79,16.79,0,0,1,12.9-.84,13.39,13.39,0,0,1,2,.84A3.27,3.27,0,0,1,392.35,71.13Z"/><rect class="cls-5" x="339.67" y="83.77" width="7.01" height="18.96"/><rect class="cls-5" x="369.42" y="83.77" width="7.01" height="18.96"/><rect class="cls-5" x="379.34" y="72.63" width="7.01" height="30.1"/><rect class="cls-5" x="330.6" y="96.76" width="7.01" height="6.38"/><rect class="cls-5" x="349.59" y="92.33" width="7.01" height="10.4"/><rect class="cls-5" x="359.51" y="89.94" width="7.01" height="12.79"/><path class="cls-7" d="M347,105a24.91,24.91,0,0,1-7.58,0,25.79,25.79,0,0,1,7.58,0Z"/><path class="cls-7" d="M338.24,105a24.91,24.91,0,0,1-7.58,0,25.79,25.79,0,0,1,7.58,0Z"/><path class="cls-7" d="M387.73,105a31.73,31.73,0,0,1-8.56,0,32.85,32.85,0,0,1,8.56,0Z"/><path class="cls-7" d="M377.32,105a31.8,31.8,0,0,1-8.57,0,32.93,32.93,0,0,1,8.57,0Z"/><path class="cls-7" d="M366.52,105a24.91,24.91,0,0,1-7.58,0,25.79,25.79,0,0,1,7.58,0Z"/><path class="cls-7" d="M356.27,105a24.91,24.91,0,0,1-7.58,0,25.79,25.79,0,0,1,7.58,0Z"/><rect class="cls-3" x="330.43" y="36.79" width="57.3" height="23.8"/><path class="cls-7" d="M342.34,44.31a2.68,2.68,0,1,1-2.67-2.67A2.68,2.68,0,0,1,342.34,44.31Z"/><rect class="cls-7" x="345.01" y="42.46" width="18.61" height="1.03"/><rect class="cls-6" x="345.01" y="44.81" width="36.21" height="1.03"/><path class="cls-5" d="M342.34,52.52a2.68,2.68,0,1,1-2.67-2.67A2.67,2.67,0,0,1,342.34,52.52Z"/><rect class="cls-5" x="345.01" y="50.68" width="9.5" height="1.03"/><rect class="cls-6" x="345.01" y="53.02" width="36.21" height="1.03"/><rect class="cls-6" x="351.46" y="151.19" width="69.31" height="49.5" transform="translate(206.86 560.53) rotate(-89.51)"/><path class="cls-7" d="M361.07,210.38s0-.1,0-.32v-1c0-.86,0-2.12,0-3.75,0-3.3,0-8.12.08-14.21.09-12.22.21-29.56.36-50.07v-.14h.14l49.5.41h.16v.16c-.24,25.95-.45,50-.63,69.31v.13h-.13l-36.06-.38-9.95-.12-2.6,0c-.59,0-.88,0-.88,0h3.53l10,.05,36,.24-.13.13c.15-19.35.35-43.36.56-69.31l.16.16h0l-49.49-.44.15-.14c-.21,20.46-.38,37.77-.5,50-.07,6.1-.13,10.93-.16,14.24,0,1.65,0,2.91,0,3.78,0,.43,0,.75,0,1S361.07,210.38,361.07,210.38Z"/><path class="cls-7" d="M368,158c0-.16,8.2-.22,18.3-.13s18.31.29,18.31.45-8.2.21-18.31.13S368,158.12,368,158Z"/><path class="cls-7" d="M367.94,162.86c0-.16,8.19-.22,18.3-.14s18.3.29,18.3.45-8.19.22-18.3.13S367.93,163,367.94,162.86Z"/><path class="cls-7" d="M367.89,167.75c0-.16,8.2-.22,18.31-.13s18.3.28,18.3.44-8.19.22-18.31.14S367.89,167.91,367.89,167.75Z"/><path class="cls-7" d="M367.85,172.64c0-.16,8.2-.21,18.31-.13s18.3.29,18.3.45-8.2.22-18.31.13S367.85,172.8,367.85,172.64Z"/><path class="cls-7" d="M367.81,177.54c0-.16,8.2-.22,18.3-.13s18.31.28,18.31.44-8.2.22-18.31.13S367.81,177.7,367.81,177.54Z"/><rect class="cls-8" x="375.03" y="183.22" width="5.89" height="18.4"/><rect class="cls-8" x="383.82" y="187.42" width="5.89" height="14.2"/><rect class="cls-8" x="391.96" y="193.19" width="5.89" height="8.43"/><path class="cls-7" d="M317.59,129.23h.21l.62,0,2.4,0,8.83,0,29.11-.05,26,0h.16v.12c0,3.71-.05,6.74-.07,8.87,0,1,0,1.85,0,2.43,0,.26,0,.47,0,.63s0,.22,0,.22,0-.07,0-.22,0-.37,0-.63c0-.58,0-1.39,0-2.43,0-2.13,0-5.16-.07-8.87l.15.12-26,0-29.11,0-8.83-.05-2.4,0h-.62A.85.85,0,0,1,317.59,129.23Z"/><path class="cls-7" d="M316.82,38.91a1.88,1.88,0,0,1-.38,0l-1.1,0-4.09.05-13.77,0,.15-.16c0,1,0,2.11,0,3.21,0,6.23.06,11.87,0,16,0,2,0,3.69-.08,4.83,0,.57-.05,1-.07,1.32a2.4,2.4,0,0,1-.06.45s0-2.52,0-6.6-.08-9.73-.13-16c0-1.1,0-2.18,0-3.21v-.16h.16l13.77.05,4.09,0,1.1,0Z"/><path class="cls-7" d="M318.38,38.91a1.56,1.56,0,1,1-1.56-1.56A1.56,1.56,0,0,1,318.38,38.91Z"/><path class="cls-7" d="M386.38,141.38a1.57,1.57,0,1,1-1.57-1.56A1.56,1.56,0,0,1,386.38,141.38Z"/><path class="cls-7" d="M314.85,63.17H103.43a6.6,6.6,0,0,0-6.6,6.6V219.1a6.59,6.59,0,0,0,6.6,6.6h81.14s5.16,16-10.84,24.22H249.6s-18.06-6.19-13.42-24.22h78.67a6.6,6.6,0,0,0,6.6-6.6V69.77A6.61,6.61,0,0,0,314.85,63.17Z"/><path class="cls-7" d="M212,210c2.88,4.11-1.62,8.61-5.74,5.73a1.66,1.66,0,0,1-.35-.35c-2.87-4.11,1.63-8.61,5.74-5.74A1.5,1.5,0,0,1,212,210Z"/><path class="cls-6" d="M110.17,65.91H308.11a9.7,9.7,0,0,1,9.7,9.7V198.38a0,0,0,0,1,0,0H100.47a0,0,0,0,1,0,0V75.6A9.7,9.7,0,0,1,110.17,65.91Z"/><path class="cls-3" d="M109.62,65.91H310.29a7.52,7.52,0,0,1,7.52,7.52v3.49a0,0,0,0,1,0,0H100.47a0,0,0,0,1,0,0V75.06a9.15,9.15,0,0,1,9.15-9.15Z"/><path class="cls-3" d="M108.92,71.64a1.53,1.53,0,1,1-1.53-1.53A1.54,1.54,0,0,1,108.92,71.64Z"/><path class="cls-3" d="M113.47,71.64a1.53,1.53,0,1,1-1.53-1.53A1.53,1.53,0,0,1,113.47,71.64Z"/><path class="cls-3" d="M117.8,71.64a1.53,1.53,0,1,1-1.53-1.53A1.54,1.54,0,0,1,117.8,71.64Z"/><path class="cls-7" d="M277.05,225.72c0,.07-30.09.13-67.19.13s-67.19-.06-67.19-.13,30.07-.13,67.19-.13S277.05,225.65,277.05,225.72Z"/><polygon class="cls-1" points="170.49 151.95 109.88 152.13 110 193.74 160.25 193.6 167.06 193.58 170.61 193.57 170.49 151.95"/><path class="cls-7" d="M114.55,189.28c-.08,0-.16-7.06-.18-15.77s0-15.76.08-15.76.16,7.05.18,15.76S114.62,189.28,114.55,189.28Z"/><path class="cls-3" d="M167.13,184.78c0,.08-11.82.17-26.4.21s-26.4,0-26.4-.05,11.82-.17,26.4-.21S167.13,184.71,167.13,184.78Z"/><path class="cls-3" d="M167.12,180.16c0,.07-11.82.16-26.4.21s-26.4,0-26.4-.06,11.81-.17,26.4-.21S167.12,180.08,167.12,180.16Z"/><path class="cls-3" d="M167.1,175.53c0,.07-11.82.17-26.39.21s-26.41,0-26.41-.06,11.82-.16,26.4-.2S167.1,175.46,167.1,175.53Z"/><path class="cls-3" d="M167.09,170.91c0,.07-11.82.16-26.4.2s-26.4,0-26.4-.05,11.82-.17,26.4-.21S167.09,170.83,167.09,170.91Z"/><path class="cls-3" d="M167.08,166.28c0,.07-11.82.17-26.4.21s-26.4,0-26.4-.06,11.81-.17,26.4-.21S167.08,166.21,167.08,166.28Z"/><path class="cls-3" d="M167.06,161.65c0,.08-11.82.17-26.39.21s-26.41,0-26.41-.05,11.82-.17,26.4-.21S167.06,161.58,167.06,161.65Z"/><path class="cls-3" d="M167.05,157c0,.07-11.82.16-26.4.21s-26.4,0-26.4-.06,11.82-.17,26.4-.21S167.05,157,167.05,157Z"/><rect class="cls-5" x="117.9" y="182.05" width="3.79" height="7.21" transform="translate(-0.53 0.35) rotate(-0.16)"/><rect class="cls-5" x="145.4" y="181.97" width="3.79" height="7.21" transform="translate(-0.53 0.42) rotate(-0.16)"/><rect class="cls-5" x="125.32" y="176.73" width="3.79" height="12.51" transform="translate(-0.53 0.37) rotate(-0.17)"/><rect class="cls-5" x="139.19" y="173.44" width="3.79" height="15.77" transform="translate(-0.52 0.41) rotate(-0.16)"/><rect class="cls-5" x="132.33" y="163.88" width="3.79" height="25.34" transform="translate(-0.51 0.39) rotate(-0.17)"/><rect class="cls-5" x="152.72" y="168.51" width="3.79" height="20.66" transform="translate(-0.51 0.45) rotate(-0.16)"/><path class="cls-7" d="M161.05,189.14c0,.08-10.39.17-23.21.2s-23.2,0-23.2-.06,10.38-.17,23.2-.2S161.05,189.07,161.05,189.14Z"/><polygon class="cls-1" points="109.33 86.78 109.33 147.89 207.43 147.89 216.04 147.89 241.52 147.89 241.52 86.78 109.33 86.78"/><path class="cls-7" d="M118.63,129v1.93h-.2v-1.75H118V129Z"/><path class="cls-7" d="M119.09,130c0-.62.32-1,.77-1s.77.37.77,1-.32,1-.77,1S119.09,130.57,119.09,130Zm1.34,0c0-.52-.23-.8-.57-.8s-.57.28-.57.8.23.79.57.79S120.43,130.47,120.43,130Z"/><path class="cls-7" d="M119.41,118.75v.17h-1.35v-.14l.8-.78c.22-.22.26-.35.26-.48s-.16-.36-.45-.36a.68.68,0,0,0-.53.21l-.14-.12a.89.89,0,0,1,.68-.27c.4,0,.64.2.64.52a.77.77,0,0,1-.31.6l-.66.65Z"/><path class="cls-7" d="M119.65,118c0-.62.32-1,.77-1s.77.36.77,1-.32,1-.77,1S119.65,118.57,119.65,118Zm1.34,0c0-.52-.23-.8-.57-.8s-.57.28-.57.8.24.8.57.8S121,118.47,121,118Z"/><path class="cls-7" d="M119.37,106.37c0,.33-.23.57-.7.57a1,1,0,0,1-.69-.24l.09-.16a.86.86,0,0,0,.6.22c.32,0,.5-.15.5-.39s-.17-.38-.52-.38h-.14v-.15l.53-.67h-1V105h1.24v.14l-.55.68C119.16,105.85,119.37,106.06,119.37,106.37Z"/><path class="cls-7" d="M119.65,106c0-.61.32-1,.77-1s.77.37.77,1-.32,1-.77,1S119.65,106.58,119.65,106Zm1.34,0c0-.51-.23-.8-.57-.8s-.57.29-.57.8.24.8.57.8S121,106.48,121,106Z"/><path class="cls-7" d="M127.15,136.29c0-.62.32-1,.77-1s.77.37.77,1-.33,1-.77,1S127.15,136.9,127.15,136.29Zm1.33,0c0-.52-.23-.8-.56-.8s-.57.28-.57.8.23.79.57.79S128.48,136.8,128.48,136.29Z"/><path class="cls-7" d="M141.43,135.32v1.93h-.2V135.5h-.46v-.18Z"/><path class="cls-7" d="M156.48,137.07v.18h-1.35v-.14l.8-.79c.22-.21.26-.34.26-.47s-.16-.36-.45-.36a.68.68,0,0,0-.53.21l-.14-.12a.86.86,0,0,1,.68-.28c.39,0,.64.2.64.53a.81.81,0,0,1-.31.6l-.66.64Z"/><path class="cls-7" d="M170.71,136.7c0,.32-.24.57-.7.57a1,1,0,0,1-.7-.25l.1-.16a.86.86,0,0,0,.6.22c.32,0,.5-.14.5-.38s-.17-.39-.53-.39h-.13v-.14l.53-.67h-1v-.18h1.25v.14l-.55.69C170.5,136.17,170.71,136.39,170.71,136.7Z"/><path class="cls-7" d="M185.34,136.74H185v.51h-.2v-.51h-1.09v-.14l1-1.28h.22l-1,1.25h.83v-.45h.2v.45h.38Z"/><path class="cls-7" d="M199.28,136.68c0,.33-.23.59-.7.59a1,1,0,0,1-.69-.25l.1-.16a.82.82,0,0,0,.59.22c.33,0,.5-.16.5-.39s-.15-.4-.64-.4H198l.1-1h1.05v.18h-.88l-.07.61h.25C199.06,136.11,199.28,136.34,199.28,136.68Z"/><path class="cls-7" d="M213.69,136.67a.6.6,0,0,1-.66.6c-.51,0-.79-.36-.79-1s.36-1,.89-1a.81.81,0,0,1,.45.11l-.08.16a.64.64,0,0,0-.37-.09c-.42,0-.69.27-.69.79,0,0,0,.1,0,.16a.61.61,0,0,1,.59-.33A.58.58,0,0,1,213.69,136.67Zm-.19,0a.43.43,0,0,0-.49-.42.45.45,0,0,0-.49.43c0,.21.17.41.51.41A.42.42,0,0,0,213.5,136.68Z"/><path class="cls-7" d="M227.87,135.32v.14l-.8,1.79h-.22l.8-1.75h-1v.36h-.19v-.54Z"/><path class="cls-7" d="M228,130.05c0,.1-22.33.19-49.88.19s-49.88-.09-49.88-.19,22.33-.19,49.88-.19S228,130,228,130.05Z"/><path class="cls-7" d="M228,118c0,.1-22.33.19-49.88.19s-49.88-.09-49.88-.19,22.33-.19,49.88-.19S228,117.89,228,118Z"/><path class="cls-7" d="M228,105.93c0,.1-22.33.19-49.88.19s-49.88-.09-49.88-.19,22.33-.19,49.88-.19S228,105.83,228,105.93Z"/><path class="cls-5" d="M128.22,129.87a.64.64,0,1,1-1.28,0,.64.64,0,0,1,.64-.64A.64.64,0,0,1,128.22,129.87Z"/><path class="cls-5" d="M142.57,129.87a.65.65,0,0,1-1.29,0,.65.65,0,0,1,1.29,0Z"/><path class="cls-5" d="M156.91,129.87a.64.64,0,1,1-.64-.64A.64.64,0,0,1,156.91,129.87Z"/><path class="cls-5" d="M171.25,129.87a.64.64,0,0,1-1.28,0,.64.64,0,0,1,1.28,0Z"/><path class="cls-5" d="M185.59,129.87a.64.64,0,0,1-1.28,0,.64.64,0,0,1,.64-.64A.64.64,0,0,1,185.59,129.87Z"/><path class="cls-5" d="M214.28,129.87a.64.64,0,1,1-.64-.64A.64.64,0,0,1,214.28,129.87Z"/><path class="cls-5" d="M199.93,129.87a.64.64,0,0,1-1.28,0,.64.64,0,0,1,.64-.64A.64.64,0,0,1,199.93,129.87Z"/><path class="cls-5" d="M228.62,129.87a.64.64,0,1,1-.64-.64A.64.64,0,0,1,228.62,129.87Z"/><path class="cls-3" d="M134.76,130.05a.42.42,0,1,1-.42-.42A.42.42,0,0,1,134.76,130.05Z"/><path class="cls-3" d="M149.16,130.05a.43.43,0,1,1-.43-.42A.42.42,0,0,1,149.16,130.05Z"/><path class="cls-3" d="M163.55,130.05a.42.42,0,1,1-.42-.42A.42.42,0,0,1,163.55,130.05Z"/><path class="cls-3" d="M178,130.05a.42.42,0,0,1-.42.42.42.42,0,0,1,0-.84A.42.42,0,0,1,178,130.05Z"/><path class="cls-3" d="M192.34,130.05a.42.42,0,0,1-.42.42.42.42,0,0,1,0-.84A.42.42,0,0,1,192.34,130.05Z"/><path class="cls-3" d="M206.74,130.05a.42.42,0,1,1-.42-.42A.42.42,0,0,1,206.74,130.05Z"/><path class="cls-3" d="M221.14,130.05a.43.43,0,1,1-.42-.42A.42.42,0,0,1,221.14,130.05Z"/><path class="cls-5" d="M143.5,124.72a1.58,1.58,0,1,1-1.57-1.57A1.57,1.57,0,0,1,143.5,124.72Z"/><path class="cls-5" d="M156,117.33a1.57,1.57,0,1,1-1.57-1.57A1.57,1.57,0,0,1,156,117.33Z"/><path class="cls-5" d="M171.54,118a1.57,1.57,0,1,1-1.57-1.57A1.57,1.57,0,0,1,171.54,118Z"/><path class="cls-5" d="M186.7,104.57a1.57,1.57,0,1,1-1.57-1.57A1.57,1.57,0,0,1,186.7,104.57Z"/><path class="cls-5" d="M200.86,113.1a1.57,1.57,0,1,1-1.57-1.57A1.57,1.57,0,0,1,200.86,113.1Z"/><path class="cls-5" d="M215.21,115.38a1.58,1.58,0,1,1-1.57-1.57A1.58,1.58,0,0,1,215.21,115.38Z"/><path class="cls-5" d="M228.62,124.72a3.49,3.49,0,0,1-.37,0,7.8,7.8,0,0,1-1.07-.15,8,8,0,0,1-3.73-1.77,7.64,7.64,0,0,1-1.83-2.38,17.53,17.53,0,0,0-1.92-3,6.39,6.39,0,0,0-3.25-2.27,4.22,4.22,0,0,0-2.14.08,5.66,5.66,0,0,0-2,1.13,38.38,38.38,0,0,0-3.31,3.79,6.49,6.49,0,0,1-2.15,1.67,4.29,4.29,0,0,1-2.83.23,3.54,3.54,0,0,1-2.16-2,14.36,14.36,0,0,1-.93-2.87,16.68,16.68,0,0,0-.85-2.9,2.23,2.23,0,0,0-.92-1.1,3,3,0,0,0-1.45-.29,25.75,25.75,0,0,0-3.15.56,9.29,9.29,0,0,1-1.67.19,3.84,3.84,0,0,1-1.69-.33,3.46,3.46,0,0,1-1.34-1.12,7.79,7.79,0,0,1-.82-1.53c-.46-1.06-.76-2.17-1.17-3.24a8,8,0,0,0-.76-1.52,2.8,2.8,0,0,0-1.25-1c-.13,0-.26-.09-.39-.12l-.41,0a1.55,1.55,0,0,0-.77.16,3.24,3.24,0,0,0-1.15,1.2,14.52,14.52,0,0,0-1.33,3.3c-.34,1.15-.63,2.34-.91,3.53-.46,2-.86,4-1.37,5.88-.26,1-.54,1.92-.89,2.85a7.18,7.18,0,0,1-1.49,2.59,2,2,0,0,1-1.41.63,2.93,2.93,0,0,1-1.45-.44,6.9,6.9,0,0,1-2-2.06,24.93,24.93,0,0,1-2.46-5,11.66,11.66,0,0,0-2.75-4.42,5.14,5.14,0,0,0-4.61-1.12,7.67,7.67,0,0,0-2.19,1,14.6,14.6,0,0,0-1.92,1.38,25.49,25.49,0,0,0-3.19,3.22h0a34.39,34.39,0,0,1-4.74,3.93,22.9,22.9,0,0,1-4.85,2.63,10.57,10.57,0,0,1-4.75.79,16.78,16.78,0,0,1-4-1,38.73,38.73,0,0,1-5.14-2.35c-.56-.32-1-.56-1.28-.74s-.42-.27-.42-.27l.45.23,1.3.7a40.75,40.75,0,0,0,5.15,2.27,16.6,16.6,0,0,0,3.92.91,10.46,10.46,0,0,0,4.64-.81,23,23,0,0,0,4.79-2.63,34.68,34.68,0,0,0,4.67-3.92h0a25.53,25.53,0,0,1,3.23-3.27,15.45,15.45,0,0,1,2-1.42,8.35,8.35,0,0,1,2.28-1,5.46,5.46,0,0,1,4.92,1.19,11.92,11.92,0,0,1,2.85,4.54,24.73,24.73,0,0,0,2.43,4.92,6.38,6.38,0,0,0,1.92,2,2.55,2.55,0,0,0,1.27.39,1.72,1.72,0,0,0,1.16-.52,7.27,7.27,0,0,0,1.4-2.46c.34-.91.61-1.85.87-2.81.5-1.92.91-3.89,1.37-5.87.28-1.2.57-2.39.91-3.56a15.26,15.26,0,0,1,1.37-3.38,3.56,3.56,0,0,1,1.3-1.34,1.87,1.87,0,0,1,1-.2l.47,0c.15,0,.3.09.46.13a3.13,3.13,0,0,1,1.41,1.18,7.9,7.9,0,0,1,.8,1.59c.42,1.1.72,2.21,1.16,3.24a4.34,4.34,0,0,0,2,2.47,5.17,5.17,0,0,0,3.14.11,24.45,24.45,0,0,1,3.21-.55,3.28,3.28,0,0,1,1.62.33,2.57,2.57,0,0,1,1.06,1.25,16.77,16.77,0,0,1,.87,3,14,14,0,0,0,.9,2.79,3.22,3.22,0,0,0,2,1.83,4.15,4.15,0,0,0,2.63-.21,6.44,6.44,0,0,0,2.06-1.6,38.83,38.83,0,0,1,3.35-3.8,6,6,0,0,1,2.09-1.16,4.38,4.38,0,0,1,2.27-.07,6.63,6.63,0,0,1,3.35,2.36,17.38,17.38,0,0,1,1.91,3,7.68,7.68,0,0,0,1.77,2.35,8.25,8.25,0,0,0,3.65,1.81,8.94,8.94,0,0,0,1.06.18C228.49,124.71,228.62,124.71,228.62,124.72Z"/><path class="cls-7" d="M143.65,97.67c0,.1-5.57.19-12.44.19s-12.43-.09-12.43-.19,5.56-.19,12.43-.19S143.65,97.56,143.65,97.67Z"/><polygon class="cls-1" points="246.8 87.17 246.8 146.92 254.03 146.92 263.98 146.92 310.38 146.92 310.38 87.17 246.8 87.17"/><path class="cls-8" d="M278.31,93.94a19.62,19.62,0,1,0,19.61,19.62A19.61,19.61,0,0,0,278.31,93.94Zm.29,31.37a12.05,12.05,0,1,1,12-12A12.05,12.05,0,0,1,278.6,125.31Z"/><path class="cls-5" d="M278.61,94c0,2.09,0,4.9,0,7.26a12.05,12.05,0,0,1,12,12.05,12.29,12.29,0,0,1-.56,3.66l7.11,1.93A19.63,19.63,0,0,0,278.61,94Z"/><path class="cls-9" d="M266.55,113.26a12.06,12.06,0,0,1,7.14-11l-3-6.78a19.62,19.62,0,0,0-12,18.08c0,.28,0,.55,0,.82h7.89C266.57,114,266.55,113.64,266.55,113.26Z"/><path class="cls-5" d="M278.6,125.31a11.93,11.93,0,0,1-2.55-.27c-.3,1.75-.87,5.14-1.32,7.8a19.15,19.15,0,0,0,3.58.34,19.63,19.63,0,0,0,18.89-14.33l-7.11-1.93A12.06,12.06,0,0,1,278.6,125.31Z"/><g class="cls-10"><path d="M278.6,125.31a11.93,11.93,0,0,1-2.55-.27c-.3,1.75-.87,5.14-1.32,7.8a19.15,19.15,0,0,0,3.58.34,19.63,19.63,0,0,0,18.89-14.33l-7.11-1.93A12.06,12.06,0,0,1,278.6,125.31Z"/></g><path class="cls-7" d="M276,114.24h-.73v.94h-1v-.94h-2.4v-.7l2.1-2.82h1.08l-1.95,2.68h1.2v-.84h1v.84H276Z"/><path class="cls-7" d="M276.3,113c0-1.48.82-2.31,1.91-2.31s1.91.83,1.91,2.31-.8,2.3-1.91,2.3S276.3,114.42,276.3,113Zm2.79,0c0-1-.36-1.44-.88-1.44s-.86.42-.86,1.44.35,1.43.86,1.43S279.09,114,279.09,113Z"/><path class="cls-7" d="M280.55,111.9a1.11,1.11,0,1,1,1.11,1.22A1.11,1.11,0,0,1,280.55,111.9Zm1.57,0c0-.48-.18-.71-.46-.71s-.47.23-.47.71.19.7.47.7S282.12,112.37,282.12,111.9Zm2.19-1.18h.76l-3,4.46h-.76Zm-.73,3.28a1.11,1.11,0,1,1,1.1,1.23A1.11,1.11,0,0,1,283.58,114Zm1.57,0c0-.47-.19-.71-.47-.71s-.46.23-.46.71.19.7.46.7S285.15,114.47,285.15,114Z"/><path class="cls-7" d="M294.54,138.13c0,.1-7.27.18-16.23.18s-16.24-.08-16.24-.18,7.27-.19,16.24-.19S294.54,138,294.54,138.13Z"/><path class="cls-7" d="M287.31,141.11c0,.1-4,.18-9,.18s-9-.08-9-.18,4-.19,9-.19S287.31,141,287.31,141.11Z"/><rect class="cls-2" x="175.43" y="150.9" width="127.61" height="41.92"/><path class="cls-3" d="M292.27,160.81c0,.08-21.68.14-48.43.14s-48.44-.06-48.44-.14,21.69-.13,48.44-.13S292.27,160.74,292.27,160.81Z"/><path class="cls-3" d="M292.27,165.77c0,.08-21.68.14-48.43.14s-48.44-.06-48.44-.14,21.69-.13,48.44-.13S292.27,165.7,292.27,165.77Z"/><path class="cls-3" d="M292.27,170.73c0,.08-21.68.14-48.43.14s-48.44-.06-48.44-.14,21.69-.13,48.44-.13S292.27,170.66,292.27,170.73Z"/><path class="cls-3" d="M292.27,175.69c0,.08-21.68.14-48.43.14s-48.44-.06-48.44-.14,21.69-.13,48.44-.13S292.27,175.62,292.27,175.69Z"/><path class="cls-3" d="M292.27,180.65c0,.08-21.68.14-48.43.14s-48.44-.06-48.44-.14,21.69-.13,48.44-.13S292.27,180.58,292.27,180.65Z"/><path class="cls-9" d="M283.84,174.88l-.21.22a2.83,2.83,0,0,1-.82.44,4.32,4.32,0,0,1-3.53-.56,5.77,5.77,0,0,1-1.67-1.82c-.46-.75-.83-1.62-1.27-2.53a7.85,7.85,0,0,0-1.89-2.64,4.49,4.49,0,0,0-1.65-.87,5.05,5.05,0,0,0-2-.09,8.19,8.19,0,0,0-3.87,1.77c-1.15.9-2.17,2-3.41,3a8.26,8.26,0,0,1-4.68,2,4.77,4.77,0,0,1-2.67-.62,5.93,5.93,0,0,1-1.87-1.86c-1-1.45-1.45-3.12-2.7-4.44a4.42,4.42,0,0,0-2.35-1.4,3.61,3.61,0,0,0-2.75.57,5.59,5.59,0,0,0-1.81,2.09,11.58,11.58,0,0,0-.86,2.61,14.39,14.39,0,0,1-.85,2.71,6.2,6.2,0,0,1-.78,1.27,6.86,6.86,0,0,1-1.15,1.06,7.65,7.65,0,0,1-2.95,1.27,8.14,8.14,0,0,1-3.26,0,7.78,7.78,0,0,1-2.88-1.24c-.85-.54-1.62-1.15-2.43-1.7A7.65,7.65,0,0,0,226.9,173a4.36,4.36,0,0,0-2.81.32A6.31,6.31,0,0,0,222,175a15.49,15.49,0,0,0-1.41,2.14,16,16,0,0,1-1.4,2.13,6.37,6.37,0,0,1-2,1.66,4.66,4.66,0,0,1-2.62.53,4,4,0,0,1-2.28-1.1,5.53,5.53,0,0,1-1.26-1.9,12.85,12.85,0,0,1-.57-2,8.64,8.64,0,0,0-1.35-3.65,4.7,4.7,0,0,0-3.11-2,4,4,0,0,0-1.79.19,5.08,5.08,0,0,0-1.44.83c-1.64,1.35-2.42,3-3.64,3.94a5.23,5.23,0,0,1-3.25,1.42,2.92,2.92,0,0,1-1-.15l-.3-.11a4.19,4.19,0,0,0,1.25.21,5.25,5.25,0,0,0,3.17-1.44c1.18-.94,1.94-2.58,3.6-4a5,5,0,0,1,1.49-.87,4.23,4.23,0,0,1,1.89-.21,4.94,4.94,0,0,1,3.27,2.08,5.75,5.75,0,0,1,.9,1.76c.21.63.35,1.29.5,1.95a12.22,12.22,0,0,0,.57,2,5.24,5.24,0,0,0,1.21,1.81,3.67,3.67,0,0,0,2.12,1,4.28,4.28,0,0,0,2.45-.51,6,6,0,0,0,1.92-1.59,15.17,15.17,0,0,0,1.37-2.1,16.32,16.32,0,0,1,1.43-2.18A6.75,6.75,0,0,1,224,173a4.65,4.65,0,0,1,3-.34A7.88,7.88,0,0,1,229.7,174c.82.55,1.59,1.16,2.42,1.7a7.52,7.52,0,0,0,2.77,1.18,7.63,7.63,0,0,0,3.12,0,7.21,7.21,0,0,0,2.82-1.22,5.54,5.54,0,0,0,1.09-1,5.66,5.66,0,0,0,.75-1.21,14.53,14.53,0,0,0,.84-2.67,11.69,11.69,0,0,1,.88-2.66,5.69,5.69,0,0,1,1.9-2.19,4,4,0,0,1,3-.62,4.82,4.82,0,0,1,2.51,1.5c1.3,1.38,1.78,3.07,2.72,4.47A5.6,5.6,0,0,0,256.3,173a4.46,4.46,0,0,0,2.51.58,8.07,8.07,0,0,0,4.52-1.92c1.22-1,2.24-2.1,3.42-3a8.4,8.4,0,0,1,4-1.81,5.24,5.24,0,0,1,2.13.11,4.59,4.59,0,0,1,1.72.92,8.17,8.17,0,0,1,1.92,2.7,27.26,27.26,0,0,0,1.23,2.53,5.77,5.77,0,0,0,1.61,1.8,4.25,4.25,0,0,0,3.44.59A2.75,2.75,0,0,0,283.84,174.88Z"/><path class="cls-5" d="M290,173.72l-.33,0a4.09,4.09,0,0,1-.41-.05,3.66,3.66,0,0,1-.54-.17,9.07,9.07,0,0,1-2.89-2.1c-.27-.27-.54-.57-.82-.88a11.41,11.41,0,0,0-.9-1,5.09,5.09,0,0,0-2.85-1.12,4.51,4.51,0,0,0-1.74.19,4.43,4.43,0,0,0-1.55.91,31.8,31.8,0,0,0-2.55,2.86,7.09,7.09,0,0,1-1.63,1.37,5.54,5.54,0,0,1-2.24.73,11.48,11.48,0,0,1-4.91-.8c-1.61-.58-3.15-1.38-4.88-1.89a10.39,10.39,0,0,0-2.68-.47,6.66,6.66,0,0,0-2.72.52c-1.73.72-3.08,2-4.71,3.1a10.39,10.39,0,0,1-2.73,1.29,11.68,11.68,0,0,1-3.13.47,12.84,12.84,0,0,1-6.2-1.49,14.15,14.15,0,0,1-4.71-4.06A36.05,36.05,0,0,1,232,166a10.53,10.53,0,0,0-1.66-2.37,7.27,7.27,0,0,0-2.46-1.64,4.82,4.82,0,0,0-5.41,1.13,7.06,7.06,0,0,0-1.47,2.21,15.73,15.73,0,0,0-.76,2.45c-.21.82-.39,1.64-.65,2.43a9.76,9.76,0,0,1-1.05,2.27A10.86,10.86,0,0,1,215,176a11.37,11.37,0,0,1-4.64,1.63,11.17,11.17,0,0,1-4.58-.46,8.54,8.54,0,0,1-5.53-4.7c-.38-1-.58-1.9-.85-2.73a6,6,0,0,0-1.1-2.12,4.21,4.21,0,0,0-3.2-1.43,2.73,2.73,0,0,0-1.22.39,2.1,2.1,0,0,1,1.21-.44,4.24,4.24,0,0,1,3.3,1.41,5.88,5.88,0,0,1,1.15,2.16c.29.83.49,1.76.87,2.7a8.4,8.4,0,0,0,5.44,4.58,10.75,10.75,0,0,0,9-1.17,10.87,10.87,0,0,0,3.47-3.41,14.12,14.12,0,0,0,1.65-4.64,15.51,15.51,0,0,1,.77-2.49,7.21,7.21,0,0,1,1.52-2.29,5.19,5.19,0,0,1,5.77-1.2,7.43,7.43,0,0,1,2.56,1.71,10.89,10.89,0,0,1,1.72,2.42A34.35,34.35,0,0,0,235.1,171a14,14,0,0,0,4.61,4,12.57,12.57,0,0,0,6,1.46,10.89,10.89,0,0,0,3-.46,9.78,9.78,0,0,0,2.65-1.25c1.6-1,3-2.37,4.77-3.12a6.9,6.9,0,0,1,2.84-.53,10.44,10.44,0,0,1,2.77.49c1.76.52,3.31,1.33,4.89,1.9a11.16,11.16,0,0,0,4.78.8,5.39,5.39,0,0,0,2.14-.68,7.39,7.39,0,0,0,1.59-1.33,32.93,32.93,0,0,1,2.58-2.87,4.8,4.8,0,0,1,1.63-.93,4.55,4.55,0,0,1,1.82-.19,5.29,5.29,0,0,1,2.94,1.18,11.12,11.12,0,0,1,.89,1c.28.31.55.61.81.88a9.17,9.17,0,0,0,2.82,2.12A2.83,2.83,0,0,0,290,173.72Z"/><path class="cls-3" d="M188.75,161.06a3.29,3.29,0,0,1-1.28.13,3.33,3.33,0,0,1-1.28-.13,3,3,0,0,1,1.28-.14A3,3,0,0,1,188.75,161.06Z"/><path class="cls-3" d="M188.75,165.77a3,3,0,0,1-1.28.14,3,3,0,0,1-1.28-.14,3.33,3.33,0,0,1,1.28-.13A3.29,3.29,0,0,1,188.75,165.77Z"/><path class="cls-3" d="M188.75,170.49a3.29,3.29,0,0,1-1.28.13,3.33,3.33,0,0,1-1.28-.13,3,3,0,0,1,1.28-.14A3,3,0,0,1,188.75,170.49Z"/><path class="cls-3" d="M188.75,175.2a3,3,0,0,1-1.28.14,3,3,0,0,1-1.28-.14,3.33,3.33,0,0,1,1.28-.13A3.29,3.29,0,0,1,188.75,175.2Z"/><path class="cls-3" d="M188.75,179.92a3.29,3.29,0,0,1-1.28.13,3.33,3.33,0,0,1-1.28-.13,3,3,0,0,1,1.28-.14A3,3,0,0,1,188.75,179.92Z"/><path class="cls-3" d="M200.53,186a23.57,23.57,0,0,1-5.13,0,25.37,25.37,0,0,1,5.13,0Z"/><path class="cls-3" d="M223.11,186a23.48,23.48,0,0,1-5.12,0,25.27,25.27,0,0,1,5.12,0Z"/><path class="cls-3" d="M245.7,186a23.48,23.48,0,0,1-5.12,0,25.27,25.27,0,0,1,5.12,0Z"/><path class="cls-3" d="M268.29,186a23.57,23.57,0,0,1-5.13,0,25.37,25.37,0,0,1,5.13,0Z"/><path class="cls-3" d="M290.87,186a23.48,23.48,0,0,1-5.12,0,25.27,25.27,0,0,1,5.12,0Z"/><path class="cls-5" d="M320.51,124s16.11.72,17.87,14.8-11.87,13.58-15.8,13.62c-1.78,0-5.34,0-8.7,0-7.12,0-12.8-2.7-14.2-9.69a13.75,13.75,0,0,1-.26-2.49C299.38,132.67,305.06,122.76,320.51,124Z"/><path class="cls-7" d="M305.53,140.46l20.63,1.47a3.93,3.93,0,0,0,4.19-3.64h0a3.91,3.91,0,0,0-3.63-4.19l-20.63-1.47a3.94,3.94,0,0,0-4.2,3.64h0A3.93,3.93,0,0,0,305.53,140.46Z"/><path class="cls-6" d="M321.62,138.26a1.26,1.26,0,1,0,1.07-1.42A1.25,1.25,0,0,0,321.62,138.26Z"/><path class="cls-6" d="M307.21,137.23a1.26,1.26,0,1,0,1.07-1.42A1.26,1.26,0,0,0,307.21,137.23Z"/><path class="cls-6" d="M315.43,132.28a12.32,12.32,0,0,0,.47-1.51,14.08,14.08,0,0,1,1.51-3.46,7,7,0,0,1,2.63-2.62,14,14,0,0,1,1.45-.59,1.26,1.26,0,0,0-.43.05,5.15,5.15,0,0,0-1.1.38,6.82,6.82,0,0,0-2.77,2.65,12.42,12.42,0,0,0-1.46,3.54c-.12.48-.2.87-.25,1.14A1.22,1.22,0,0,0,315.43,132.28Z"/><path class="cls-6" d="M317.72,152.44s-.48-.41-1.15-1.16a8.85,8.85,0,0,1-1.88-3.38,14.69,14.69,0,0,1-.5-3.88,12.58,12.58,0,0,0,0-1.64,1.21,1.21,0,0,0-.08.43q0,.44-.09,1.2a13,13,0,0,0,.44,4,8.29,8.29,0,0,0,2,3.44,7.51,7.51,0,0,0,.9.8A1.76,1.76,0,0,0,317.72,152.44Z"/><g class="cls-10"><path d="M303.34,149.24c1.67-1.16,3-1.12,5.08-1.52a39.2,39.2,0,0,1,6.48-.56c5-.11,10.16.09,14.46,1.84a6.29,6.29,0,0,1,2.91,2,15.48,15.48,0,0,1-6.33,1.29c-4.07.17-12.58.07-12.58.07a20,20,0,0,1-7.09-1.37C303.58,149.88,303.34,149.24,303.34,149.24Z"/></g><path class="cls-6" d="M300.62,136.05a3.29,3.29,0,0,0-.08.74,4.65,4.65,0,0,0,.49,2.09,4.88,4.88,0,0,0,2.49,2.28,13.74,13.74,0,0,0,4.42.84l11.68.9,3.38.26c1.15.07,2.32.21,3.54.2a5.44,5.44,0,0,0,3.5-1.11,5.23,5.23,0,0,0,1.78-3.32,5.11,5.11,0,0,0-.95-3.65,5.56,5.56,0,0,0-3-2.08,9.43,9.43,0,0,0-1.79-.26l-1.74-.16-3.37-.31-6.24-.57c-1.95-.14-3.76-.44-5.43-.54a17.26,17.26,0,0,0-2.39,0,9.11,9.11,0,0,0-2.1.37,6.72,6.72,0,0,0-2.92,1.72,4.71,4.71,0,0,0-1.09,1.85,3.14,3.14,0,0,0-.13.55l0,.19s.05-.26.21-.72a4.8,4.8,0,0,1,1.11-1.8,6.76,6.76,0,0,1,2.89-1.66,8.78,8.78,0,0,1,2.07-.34,17.08,17.08,0,0,1,2.37,0c1.66.11,3.46.41,5.42.57l6.23.59,3.38.32,1.74.16a10,10,0,0,1,1.74.25,5.41,5.41,0,0,1,2.89,2,4.89,4.89,0,0,1,.9,3.47,5,5,0,0,1-1.69,3.16,5.25,5.25,0,0,1-3.35,1.06c-1.18,0-2.36-.13-3.51-.2l-3.38-.25L308,141.82a13.49,13.49,0,0,1-4.39-.79,4.82,4.82,0,0,1-2.45-2.19,4.74,4.74,0,0,1-.53-2.05C300.58,136.3,300.64,136.05,300.62,136.05Z"/><path class="cls-6" d="M338.48,141.17a3.08,3.08,0,0,0-.86-.56,13.7,13.7,0,0,0-2.27-1,14.65,14.65,0,0,0-2.42-.56,3.08,3.08,0,0,0-1-.05c0,.07,1.54.25,3.36.85S338.44,141.24,338.48,141.17Z"/><path class="cls-6" d="M319.76,126.12a.22.22,0,0,0-.29.19.2.2,0,1,0,.31-.18"/><path class="cls-6" d="M317.77,130.11a.2.2,0,0,0-.28.19.2.2,0,1,0,.3-.18"/><path class="cls-6" d="M334.26,138.19a.22.22,0,0,0-.29.2.2.2,0,1,0,.31-.19"/><path class="cls-6" d="M337.6,139.43a.2.2,0,0,0-.28.19.21.21,0,0,0,.3.16.21.21,0,0,0,0-.34"/><g class="cls-10"><path class="cls-6" d="M316.3,124.83c0,.18,1.46.39,3.79.79a29.66,29.66,0,0,1,8.67,2.7,16.15,16.15,0,0,1,3.95,2.92,14,14,0,0,1,2.39,3.23c1.08,2,1.19,3.54,1.4,3.52s.14-.39.1-1.07a8.83,8.83,0,0,0-.7-2.83,12.77,12.77,0,0,0-2.35-3.64,15.84,15.84,0,0,0-4.2-3.24,21,21,0,0,0-4.94-1.81,27.18,27.18,0,0,0-4.21-.65C317.8,124.56,316.31,124.67,316.3,124.83Z"/></g><g class="cls-10"><path class="cls-6" d="M334.63,145.3c.24.24,1.09-.26,1.63-1.29s.45-2,.12-2.07-.78.64-1.23,1.49S334.37,145.06,334.63,145.3Z"/></g><path class="cls-6" d="M312.74,137.51a1.66,1.66,0,0,0,.16,1.05,2.45,2.45,0,0,0,.72.94A2.51,2.51,0,0,0,315,140a2.46,2.46,0,0,0,1.42-.3,2.52,2.52,0,0,0,.87-.8,1.66,1.66,0,0,0,.34-1,5.88,5.88,0,0,1-.49.91,2.56,2.56,0,0,1-.83.7,2.34,2.34,0,0,1-1.28.25,2.45,2.45,0,0,1-1.23-.47,2.63,2.63,0,0,1-.7-.83A5.85,5.85,0,0,1,312.74,137.51Z"/><path class="cls-5" d="M300.37,157.44c-.94.34.13,14.21.86,21.28.39,3.78,1,7.72,3.13,10.85,2.43,3.48,6.72,5,10.94,5.48a13,13,0,0,0,13.15-6.83,40.11,40.11,0,0,0,5-14.58,86.33,86.33,0,0,0,1.08-14.74S317.43,151.23,300.37,157.44Z"/><path class="cls-6" d="M323.89,185.45a.21.21,0,0,0-.3.17.2.2,0,1,0,.32-.16"/><path class="cls-6" d="M317.72,185.66a.2.2,0,0,0-.29.17.2.2,0,1,0,.31-.16"/><path class="cls-6" d="M310.54,179.8a.2.2,0,1,0,0,.35.21.21,0,0,0,0-.34"/><path class="cls-6" d="M312.48,163.9a.2.2,0,0,0-.29.17.21.21,0,0,0,.29.18.21.21,0,0,0,0-.34"/><path class="cls-6" d="M306.37,166.93a.2.2,0,0,0-.29.17.2.2,0,1,0,.31-.16"/><path class="cls-6" d="M330.73,183.13a.2.2,0,1,0,0,.35.2.2,0,0,0,0-.34"/><path class="cls-6" d="M331.36,177.83a.2.2,0,1,0,0,.36.22.22,0,0,0,0-.35"/><path class="cls-6" d="M331.46,173.08a.21.21,0,0,0-.3.17.22.22,0,0,0,.3.18.21.21,0,0,0,0-.34"/><path class="cls-6" d="M331.54,168a.2.2,0,1,0,0,.36.22.22,0,0,0,0-.36"/><path class="cls-6" d="M302.55,166a.22.22,0,0,0-.3.18.21.21,0,0,0,.29.18.22.22,0,0,0,0-.35"/><path class="cls-6" d="M310,185.75a.21.21,0,0,0-.3.17.2.2,0,1,0,.31-.16"/><path class="cls-6" d="M309.63,190.75a.2.2,0,1,0,0,.36.22.22,0,0,0,0-.35"/><path class="cls-6" d="M324.92,191.62a1.59,1.59,0,0,0,.24-.22c.16-.15.38-.39.66-.7a9.7,9.7,0,0,0,1.81-3,14.58,14.58,0,0,0,.63-2.35c.19-.85.37-1.76.56-2.72.36-1.93.7-4.06,1-6.3a100.62,100.62,0,0,0,.75-11.56c0-1.48,0-2.68-.05-3.51,0-.39,0-.71,0-.95a1.68,1.68,0,0,0,0-.33,1.64,1.64,0,0,0,0,.33c0,.25,0,.56,0,1,0,.82,0,2,0,3.5a112.85,112.85,0,0,1-.82,11.53c-.28,2.24-.61,4.36-1,6.28-.18,1-.35,1.88-.53,2.73a14.93,14.93,0,0,1-.59,2.33,10.38,10.38,0,0,1-1.73,3c-.26.32-.47.56-.61.72A1.54,1.54,0,0,0,324.92,191.62Z"/><path class="cls-6" d="M312.65,177.18c-.07,0-.31,3.84-.53,8.6s-.35,8.61-.28,8.62.31-3.85.53-8.61S312.72,177.18,312.65,177.18Z"/><path class="cls-6" d="M318.29,155.14s-.13.12-.32.37l-.79,1.06c-.66.9-1.56,2.15-2.53,3.54l-.37.52,0,.06a.16.16,0,0,0-.05.08l0,.11V161a1.72,1.72,0,0,0,0,.32c0,.4,0,.79,0,1.16,0,.74.05,1.4.08,2s.06,1,.09,1.32a1.58,1.58,0,0,0,.06.48,11.87,11.87,0,0,0,0-1.81c0-.58,0-1.23,0-1.95,0-.37,0-.76,0-1.15,0-.1,0-.2,0-.3v-.07s0,0,0,0,.06-.06.08-.11l.36-.51c1-1.39,1.85-2.66,2.47-3.59.32-.46.56-.84.73-1.1A2.05,2.05,0,0,0,318.29,155.14Z"/><path class="cls-6" d="M312.75,184.44a3.17,3.17,0,0,0,.61.08c.39,0,1,.07,1.67.11,1.41.07,3.36.12,5.52.07s4.1-.18,5.51-.32c.7-.06,1.27-.13,1.66-.18a2.22,2.22,0,0,0,.6-.11,4.05,4.05,0,0,0-.61,0l-1.67.11c-1.4.09-3.35.19-5.5.24s-4.1,0-5.51,0l-1.67,0A2.93,2.93,0,0,0,312.75,184.44Z"/><path class="cls-6" d="M300.28,166.74s.12.09.35.22a10.78,10.78,0,0,0,1,.45,20.65,20.65,0,0,0,3.48,1.06,27.36,27.36,0,0,0,3.59.53,8.38,8.38,0,0,0,1.51,0,10.1,10.1,0,0,0-1.49-.21c-.92-.12-2.18-.3-3.56-.6a27.39,27.39,0,0,1-3.47-1C300.82,166.94,300.3,166.71,300.28,166.74Z"/><path class="cls-7" d="M308.23,172a5.63,5.63,0,1,0,5.21-6A5.65,5.65,0,0,0,308.23,172Z"/><path class="cls-6" d="M309.76,171.9a4.1,4.1,0,1,0,3.79-4.39A4.09,4.09,0,0,0,309.76,171.9Z"/><path class="cls-5" d="M311.74,172.65s0-.26,0-.68,0-1,0-1.77l0,.08,2.11-1.23h-.12l2.13,1.2a1.17,1.17,0,0,1-.06-.11h0v1.24c0,.41,0,.8,0,1.19l.06-.11-2.09,1.28h.09l-1.56-.83a4.28,4.28,0,0,0-.61-.28,2.92,2.92,0,0,0,.53.35l1.55.92.05,0,.05,0,2.11-1.23.06,0v-.07c0-.38,0-.77,0-1.18,0-.21,0-.41,0-.62v-.62h0L316,170l-2.14-1.18-.06,0-.05,0-2.09,1.27,0,0v0c0,.77.05,1.39.07,1.81A2.59,2.59,0,0,0,311.74,172.65Z"/><g class="cls-11"><path d="M334.52,158.9s-17.11-7.78-34.15-1.46C300.37,157.44,308.34,164,334.52,158.9Z"/></g><path class="cls-5" d="M300.37,157.44s-10.28-8.28-12.09-7.66-2.5,1.58-1.67,3.81,13.76,14.61,13.76,14.61Z"/><path class="cls-7" d="M300.77,173.25a2.52,2.52,0,0,1-.11-.61c-.05-.4-.1-1-.16-1.7-.11-1.43-.22-3.41-.27-5.59s-.07-4.17-.05-5.61c0-.71,0-1.29.05-1.69a2.18,2.18,0,0,1,.06-.63,2.75,2.75,0,0,1,.06.63c0,.47,0,1,.06,1.69,0,1.52.08,3.45.13,5.6s.14,4.08.19,5.59c0,.66,0,1.23.06,1.7A2.31,2.31,0,0,1,300.77,173.25Z"/><g class="cls-11"><path d="M328.35,161.73A64.6,64.6,0,0,0,332.6,178c.35-1.54.64-3,.84-4.37a22.57,22.57,0,0,0-1.86-5l-3.06-6.88"/></g><path class="cls-5" d="M334.52,158.9s9.4,19.21,5.78,21.27c-5.15,2.93-12.27-20-12.27-20l3.33-.66Z"/><path class="cls-7" d="M335.4,177.18a3.75,3.75,0,0,1-.44-.58c-.26-.39-.62-1-1-1.68a51.09,51.09,0,0,1-2.84-5.87c-1-2.35-1.73-4.54-2.22-6.13-.25-.8-.43-1.45-.54-1.9a3,3,0,0,1-.15-.71,2.81,2.81,0,0,1,.27.67l.63,1.87c.54,1.57,1.33,3.73,2.3,6.08s2,4.41,2.75,5.88c.39.73.72,1.32.95,1.72A2.74,2.74,0,0,1,335.4,177.18Z"/><path class="cls-7" d="M97.19,118.85l-.29,0h-.85l-3.27,0-12,.06-39.92.1.13-.16v1.8c0,19.33,0,36.82,0,49.49,0,6.33,0,11.45,0,15,0,1.76,0,3.13,0,4.08,0,.46,0,.81,0,1.06s0,.36,0,.36,0-.12,0-.36v-1.06c0-.95,0-2.32,0-4.08,0-3.55,0-8.67,0-15,0-12.67,0-30.16,0-49.49v-2H80.74l12,0,3.27,0h.85Z"/><path class="cls-7" d="M99.08,119.47a2.25,2.25,0,1,1-2.25-2.25A2.25,2.25,0,0,1,99.08,119.47Z"/><path class="cls-5" d="M60.19,138.81l11.67-28.17a1.54,1.54,0,0,0-1.49-2.33H68A1.5,1.5,0,0,1,66.35,107l-.08-1a1.5,1.5,0,0,0-1.67-1.35H53.43a3.88,3.88,0,0,0-2.58,1.14l-.91.88a3.88,3.88,0,0,1-2.58,1.14H33.14a4,4,0,0,0-3.39,2.33L18.17,138.81Z"/><g class="cls-10"><path d="M60.19,138.81l11.67-28.17a1.54,1.54,0,0,0-1.49-2.33H68A1.5,1.5,0,0,1,66.35,107l-.08-1a1.5,1.5,0,0,0-1.67-1.35H53.43a3.88,3.88,0,0,0-2.58,1.14l-.91.88a3.88,3.88,0,0,1-2.58,1.14H33.14a4,4,0,0,0-3.39,2.33L18.17,138.81Z"/></g><path class="cls-3" d="M62.12,129.24l4.4-17A1.71,1.71,0,0,0,65.06,110H30.54a1.58,1.58,0,0,0-1.47,1.27l-6.41,25.62c-.28,1.13.17,1.8,1.19,1.79H58.58A1.58,1.58,0,0,0,60,137.4Z"/><path class="cls-3" d="M59.73,138l1.88-26.82A1.64,1.64,0,0,0,60,109.47H24.21V138Z"/><path class="cls-2" d="M60.13,138.65,55.88,111a2,2,0,0,0-2-1.54H17.76a2,2,0,0,0-1.83,2.72l7.81,25.3Z"/><path class="cls-5" d="M60.19,138.79l-8.78-25.88a2.59,2.59,0,0,0-2.44-1.8H11.68A1.83,1.83,0,0,0,10,113.53l8.16,25.28Z"/><path class="cls-7" d="M406.67,249.84c0,.09-90.51.16-202.14.16s-202.15-.07-202.15-.16,90.49-.15,202.15-.15S406.67,249.76,406.67,249.84Z"/><rect class="cls-7" x="14.81" y="198.11" width="66.58" height="46.35"/><rect class="cls-4" x="5.66" y="211.86" width="68.49" height="16.99"/><rect class="cls-7" x="8.7" y="215.36" width="13.49" height="2.07"/><rect class="cls-7" x="8.7" y="218.93" width="13.49" height="2.07"/><rect class="cls-7" x="8.7" y="222.62" width="13.49" height="2.07"/><path class="cls-7" d="M27.52,216.61a.77.77,0,1,1-.77-.77A.77.77,0,0,1,27.52,216.61Z"/><path class="cls-7" d="M30.94,216.61a.78.78,0,1,1-.78-.77A.78.78,0,0,1,30.94,216.61Z"/><path class="cls-7" d="M34.35,216.61a.77.77,0,0,1-.77.78.78.78,0,1,1,0-1.55A.77.77,0,0,1,34.35,216.61Z"/><path class="cls-7" d="M37.77,216.61a.78.78,0,1,1-.78-.77A.78.78,0,0,1,37.77,216.61Z"/><path class="cls-7" d="M64.22,216.61a.78.78,0,1,1-.77-.77A.78.78,0,0,1,64.22,216.61Z"/><path class="cls-7" d="M67.7,216.61a.77.77,0,1,1-.77-.77A.77.77,0,0,1,67.7,216.61Z"/><path class="cls-7" d="M41.18,216.61a.78.78,0,1,1-.77-.77A.78.78,0,0,1,41.18,216.61Z"/><path class="cls-7" d="M58,216.61a.78.78,0,1,1-.78-.77A.78.78,0,0,1,58,216.61Z"/><path class="cls-1" d="M44.59,216.61a.77.77,0,1,1-.77-.77A.77.77,0,0,1,44.59,216.61Z"/><path class="cls-1" d="M48,216.61a.78.78,0,1,1-.78-.77A.78.78,0,0,1,48,216.61Z"/><path class="cls-1" d="M54.93,216.61a.77.77,0,1,1-.77-.77A.77.77,0,0,1,54.93,216.61Z"/><path class="cls-1" d="M70.54,216.61a.78.78,0,0,1-.78.78.78.78,0,1,1,.78-.78Z"/><path class="cls-4" d="M51.42,216.61a.77.77,0,0,1-.77.78.78.78,0,1,1,0-1.55A.77.77,0,0,1,51.42,216.61Z"/><path class="cls-4" d="M61.2,216.61a.78.78,0,1,1-.78-.77A.78.78,0,0,1,61.2,216.61Z"/><path class="cls-7" d="M69,220.34a.77.77,0,0,1,.77-.77.78.78,0,1,1-.77.77Z"/><path class="cls-7" d="M65.57,220.34a.78.78,0,1,1,.78.78A.78.78,0,0,1,65.57,220.34Z"/><path class="cls-7" d="M62.16,220.34a.78.78,0,1,1,.77.78A.78.78,0,0,1,62.16,220.34Z"/><path class="cls-7" d="M58.75,220.34a.77.77,0,1,1,.77.78A.77.77,0,0,1,58.75,220.34Z"/><path class="cls-7" d="M32.29,220.34a.78.78,0,1,1,.77.78A.78.78,0,0,1,32.29,220.34Z"/><path class="cls-7" d="M28.81,220.34a.78.78,0,1,1,.77.78A.78.78,0,0,1,28.81,220.34Z"/><path class="cls-7" d="M55.33,220.34a.78.78,0,1,1,.78.78A.78.78,0,0,1,55.33,220.34Z"/><path class="cls-7" d="M38.57,220.34a.77.77,0,1,1,.77.78A.77.77,0,0,1,38.57,220.34Z"/><path class="cls-1" d="M51.92,220.34a.77.77,0,0,1,.77-.77.78.78,0,1,1-.77.77Z"/><path class="cls-1" d="M48.5,220.34a.78.78,0,1,1,.78.78A.78.78,0,0,1,48.5,220.34Z"/><path class="cls-1" d="M41.58,220.34a.77.77,0,1,1,.77.78A.77.77,0,0,1,41.58,220.34Z"/><path class="cls-1" d="M26,220.34a.77.77,0,1,1,.77.78A.77.77,0,0,1,26,220.34Z"/><path class="cls-4" d="M45.09,220.34a.78.78,0,1,1,.77.78A.78.78,0,0,1,45.09,220.34Z"/><path class="cls-4" d="M35.32,220.34a.77.77,0,1,1,.77.78A.77.77,0,0,1,35.32,220.34Z"/><path class="cls-7" d="M27.52,223.66a.77.77,0,1,1-.77-.77A.76.76,0,0,1,27.52,223.66Z"/><circle class="cls-7" cx="30.16" cy="223.66" r="0.77"/><circle class="cls-7" cx="33.58" cy="223.66" r="0.77"/><circle class="cls-7" cx="36.99" cy="223.66" r="0.77"/><circle class="cls-7" cx="63.45" cy="223.66" r="0.77"/><circle class="cls-7" cx="66.93" cy="223.66" r="0.77"/><path class="cls-7" d="M41.18,223.66a.78.78,0,1,1-.77-.77A.77.77,0,0,1,41.18,223.66Z"/><path class="cls-7" d="M58,223.66a.78.78,0,1,1-.78-.77A.77.77,0,0,1,58,223.66Z"/><circle class="cls-1" cx="43.82" cy="223.66" r="0.77"/><path class="cls-1" d="M48,223.66a.78.78,0,1,1-.78-.77A.77.77,0,0,1,48,223.66Z"/><path class="cls-1" d="M54.93,223.66a.77.77,0,1,1-.77-.77A.76.76,0,0,1,54.93,223.66Z"/><path class="cls-1" d="M70.54,223.66a.77.77,0,0,1-.78.77.77.77,0,0,1,0-1.54A.77.77,0,0,1,70.54,223.66Z"/><path class="cls-4" d="M51.42,223.66a.76.76,0,0,1-.77.77.77.77,0,1,1,0-1.54A.76.76,0,0,1,51.42,223.66Z"/><circle class="cls-4" cx="60.42" cy="223.66" r="0.77"/><rect class="cls-4" x="5.66" y="232.83" width="68.49" height="16.99"/><path class="cls-7" d="M27.35,237.42a.77.77,0,1,1-.77-.78A.77.77,0,0,1,27.35,237.42Z"/><path class="cls-7" d="M30.77,237.42a.78.78,0,1,1-.78-.78A.78.78,0,0,1,30.77,237.42Z"/><path class="cls-7" d="M34.18,237.42a.77.77,0,1,1-.77-.78A.77.77,0,0,1,34.18,237.42Z"/><path class="cls-7" d="M37.6,237.42a.78.78,0,1,1-.78-.78A.78.78,0,0,1,37.6,237.42Z"/><path class="cls-7" d="M64.05,237.42a.77.77,0,0,1-.77.77.78.78,0,1,1,.77-.77Z"/><path class="cls-7" d="M67.53,237.42a.77.77,0,1,1-.77-.78A.77.77,0,0,1,67.53,237.42Z"/><path class="cls-7" d="M41,237.42a.78.78,0,1,1-.77-.78A.78.78,0,0,1,41,237.42Z"/><path class="cls-7" d="M57.78,237.42a.78.78,0,1,1-.78-.78A.78.78,0,0,1,57.78,237.42Z"/><path class="cls-1" d="M44.42,237.42a.77.77,0,1,1-.77-.78A.77.77,0,0,1,44.42,237.42Z"/><path class="cls-1" d="M47.84,237.42a.78.78,0,1,1-.78-.78A.78.78,0,0,1,47.84,237.42Z"/><path class="cls-1" d="M54.76,237.42a.77.77,0,1,1-.77-.78A.77.77,0,0,1,54.76,237.42Z"/><path class="cls-1" d="M70.37,237.42a.78.78,0,0,1-.78.77.78.78,0,0,1,0-1.55A.78.78,0,0,1,70.37,237.42Z"/><path class="cls-4" d="M51.25,237.42a.77.77,0,0,1-.77.77.78.78,0,1,1,.77-.77Z"/><path class="cls-4" d="M61,237.42a.78.78,0,1,1-.78-.78A.78.78,0,0,1,61,237.42Z"/><path class="cls-7" d="M68.82,241.14a.77.77,0,0,1,.77-.77.78.78,0,1,1-.77.77Z"/><circle class="cls-7" cx="66.18" cy="241.14" r="0.77"/><path class="cls-7" d="M62,241.14a.78.78,0,1,1,.77.78A.78.78,0,0,1,62,241.14Z"/><path class="cls-7" d="M58.58,241.14a.77.77,0,1,1,.77.78A.77.77,0,0,1,58.58,241.14Z"/><path class="cls-7" d="M32.12,241.14a.78.78,0,1,1,.77.78A.78.78,0,0,1,32.12,241.14Z"/><path class="cls-7" d="M28.64,241.14a.78.78,0,1,1,.77.78A.78.78,0,0,1,28.64,241.14Z"/><circle class="cls-7" cx="55.94" cy="241.14" r="0.77"/><circle class="cls-7" cx="39.17" cy="241.14" r="0.77"/><path class="cls-1" d="M51.75,241.14a.77.77,0,0,1,.77-.77.78.78,0,1,1-.77.77Z"/><path class="cls-1" d="M48.33,241.14a.78.78,0,0,1,.78-.77.78.78,0,0,1,0,1.55A.78.78,0,0,1,48.33,241.14Z"/><circle class="cls-1" cx="42.18" cy="241.14" r="0.77"/><path class="cls-1" d="M25.81,241.14a.77.77,0,1,1,.77.78A.77.77,0,0,1,25.81,241.14Z"/><path class="cls-4" d="M44.92,241.14a.78.78,0,1,1,.77.78A.78.78,0,0,1,44.92,241.14Z"/><path class="cls-4" d="M35.15,241.14a.77.77,0,1,1,.77.78A.77.77,0,0,1,35.15,241.14Z"/><path class="cls-7" d="M27.35,244.46a.77.77,0,1,1-.77-.77A.76.76,0,0,1,27.35,244.46Z"/><path class="cls-7" d="M30.77,244.46a.78.78,0,1,1-.78-.77A.77.77,0,0,1,30.77,244.46Z"/><path class="cls-7" d="M34.18,244.46a.77.77,0,1,1-.77-.77A.76.76,0,0,1,34.18,244.46Z"/><path class="cls-7" d="M37.6,244.46a.78.78,0,1,1-.78-.77A.77.77,0,0,1,37.6,244.46Z"/><path class="cls-7" d="M64.05,244.46a.76.76,0,0,1-.77.77.77.77,0,1,1,0-1.54A.76.76,0,0,1,64.05,244.46Z"/><path class="cls-7" d="M67.53,244.46a.77.77,0,1,1-.77-.77A.76.76,0,0,1,67.53,244.46Z"/><path class="cls-7" d="M41,244.46a.78.78,0,1,1-.77-.77A.77.77,0,0,1,41,244.46Z"/><path class="cls-7" d="M57.78,244.46a.78.78,0,1,1-.78-.77A.77.77,0,0,1,57.78,244.46Z"/><path class="cls-1" d="M44.42,244.46a.77.77,0,1,1-.77-.77A.76.76,0,0,1,44.42,244.46Z"/><path class="cls-1" d="M47.84,244.46a.78.78,0,1,1-.78-.77A.77.77,0,0,1,47.84,244.46Z"/><path class="cls-1" d="M54.76,244.46a.77.77,0,1,1-.77-.77A.76.76,0,0,1,54.76,244.46Z"/><path class="cls-1" d="M70.37,244.46a.77.77,0,0,1-.78.77.77.77,0,1,1,0-1.54A.77.77,0,0,1,70.37,244.46Z"/><path class="cls-4" d="M51.25,244.46a.76.76,0,0,1-.77.77.77.77,0,1,1,0-1.54A.76.76,0,0,1,51.25,244.46Z"/><path class="cls-4" d="M61,244.46a.78.78,0,1,1-.78-.77A.77.77,0,0,1,61,244.46Z"/><rect class="cls-7" x="8.7" y="236.33" width="13.49" height="2.07"/><rect class="cls-7" x="8.7" y="239.9" width="13.49" height="2.07"/><rect class="cls-7" x="8.7" y="243.59" width="13.49" height="2.07"/><polygon class="cls-7" points="88.64 228.83 74.16 228.85 74.16 211.86 88.64 211.83 88.64 228.83"/><polygon class="cls-7" points="88.64 249.66 74.16 249.69 74.16 232.7 88.64 232.67 88.64 249.66"/><rect class="cls-7" x="9.2" y="201.8" width="13.49" height="2.07"/><polygon class="cls-7" points="88.64 208.16 74.16 208.19 74.16 191.07 88.64 191.04 88.64 208.16"/><rect class="cls-4" x="6.16" y="191.04" width="68.49" height="16.99"/><rect class="cls-7" x="9.2" y="194.54" width="13.49" height="2.07"/><rect class="cls-7" x="9.2" y="198.11" width="13.49" height="2.07"/><path class="cls-7" d="M28,195.79a.78.78,0,1,1-.77-.77A.78.78,0,0,1,28,195.79Z"/><path class="cls-7" d="M31.43,195.79a.77.77,0,1,1-.77-.77A.77.77,0,0,1,31.43,195.79Z"/><path class="cls-7" d="M34.85,195.79a.78.78,0,1,1-.78-.77A.78.78,0,0,1,34.85,195.79Z"/><path class="cls-7" d="M38.26,195.79a.77.77,0,0,1-.77.78.78.78,0,1,1,0-1.55A.77.77,0,0,1,38.26,195.79Z"/><path class="cls-7" d="M64.72,195.79a.78.78,0,1,1-.78-.77A.78.78,0,0,1,64.72,195.79Z"/><path class="cls-7" d="M68.2,195.79a.78.78,0,1,1-.78-.77A.78.78,0,0,1,68.2,195.79Z"/><path class="cls-7" d="M41.68,195.79a.78.78,0,0,1-.78.78.78.78,0,1,1,.78-.78Z"/><path class="cls-7" d="M58.44,195.79a.77.77,0,0,1-.77.78.78.78,0,1,1,0-1.55A.77.77,0,0,1,58.44,195.79Z"/><path class="cls-1" d="M45.09,195.79a.78.78,0,1,1-.77-.77A.78.78,0,0,1,45.09,195.79Z"/><path class="cls-1" d="M48.5,195.79a.77.77,0,1,1-.77-.77A.77.77,0,0,1,48.5,195.79Z"/><path class="cls-1" d="M55.43,195.79a.78.78,0,1,1-.77-.77A.78.78,0,0,1,55.43,195.79Z"/><path class="cls-1" d="M71,195.79a.78.78,0,1,1-.77-.77A.78.78,0,0,1,71,195.79Z"/><path class="cls-4" d="M51.92,195.79a.78.78,0,1,1-.78-.77A.78.78,0,0,1,51.92,195.79Z"/><path class="cls-4" d="M61.69,195.79a.77.77,0,1,1-.77-.77A.77.77,0,0,1,61.69,195.79Z"/><path class="cls-7" d="M69.48,199.52a.78.78,0,1,1,.78.78A.78.78,0,0,1,69.48,199.52Z"/><circle class="cls-7" cx="66.84" cy="199.52" r="0.77"/><path class="cls-7" d="M62.66,199.52a.77.77,0,1,1,.77.78A.77.77,0,0,1,62.66,199.52Z"/><path class="cls-7" d="M59.24,199.52a.78.78,0,1,1,.78.78A.78.78,0,0,1,59.24,199.52Z"/><path class="cls-7" d="M32.79,199.52a.77.77,0,1,1,.77.78A.77.77,0,0,1,32.79,199.52Z"/><path class="cls-7" d="M29.31,199.52a.77.77,0,1,1,.77.78A.77.77,0,0,1,29.31,199.52Z"/><path class="cls-7" d="M55.83,199.52a.77.77,0,0,1,.77-.77.78.78,0,1,1-.77.77Z"/><circle class="cls-7" cx="39.84" cy="199.52" r="0.77"/><path class="cls-1" d="M52.41,199.52a.78.78,0,1,1,.78.78A.78.78,0,0,1,52.41,199.52Z"/><circle class="cls-1" cx="49.77" cy="199.52" r="0.77"/><path class="cls-1" d="M42.07,199.52a.78.78,0,1,1,.78.78A.78.78,0,0,1,42.07,199.52Z"/><circle class="cls-1" cx="27.25" cy="199.52" r="0.77"/><path class="cls-4" d="M45.59,199.52a.77.77,0,1,1,.77.78A.77.77,0,0,1,45.59,199.52Z"/><path class="cls-4" d="M35.81,199.52a.78.78,0,1,1,.77.78A.78.78,0,0,1,35.81,199.52Z"/><path class="cls-7" d="M28,202.84a.78.78,0,1,1-.77-.77A.77.77,0,0,1,28,202.84Z"/><path class="cls-7" d="M31.43,202.84a.77.77,0,1,1-.77-.77A.76.76,0,0,1,31.43,202.84Z"/><path class="cls-7" d="M34.85,202.84a.78.78,0,1,1-.78-.77A.77.77,0,0,1,34.85,202.84Z"/><path class="cls-7" d="M38.26,202.84a.76.76,0,0,1-.77.77.77.77,0,1,1,0-1.54A.76.76,0,0,1,38.26,202.84Z"/><path class="cls-7" d="M64.72,202.84a.78.78,0,1,1-.78-.77A.77.77,0,0,1,64.72,202.84Z"/><path class="cls-7" d="M68.2,202.84a.78.78,0,1,1-.78-.77A.77.77,0,0,1,68.2,202.84Z"/><path class="cls-7" d="M41.68,202.84a.77.77,0,0,1-.78.77.77.77,0,0,1,0-1.54A.77.77,0,0,1,41.68,202.84Z"/><path class="cls-7" d="M58.44,202.84a.76.76,0,0,1-.77.77.77.77,0,1,1,0-1.54A.76.76,0,0,1,58.44,202.84Z"/><path class="cls-1" d="M45.09,202.84a.78.78,0,1,1-.77-.77A.77.77,0,0,1,45.09,202.84Z"/><path class="cls-1" d="M48.5,202.84a.77.77,0,1,1-.77-.77A.76.76,0,0,1,48.5,202.84Z"/><path class="cls-1" d="M55.43,202.84a.78.78,0,1,1-.77-.77A.77.77,0,0,1,55.43,202.84Z"/><path class="cls-1" d="M71,202.84a.78.78,0,1,1-.77-.77A.77.77,0,0,1,71,202.84Z"/><path class="cls-4" d="M51.92,202.84a.78.78,0,1,1-.78-.77A.77.77,0,0,1,51.92,202.84Z"/><path class="cls-4" d="M61.69,202.84a.77.77,0,1,1-.77-.77A.76.76,0,0,1,61.69,202.84Z"/></g></g></svg>