<svg width="27" height="26" viewBox="0 0 27 26" fill="none" xmlns="http://www.w3.org/2000/svg">
<path d="M6.814 20.4457L9.12313 18.135C10.2624 19.0218 11.6655 19.5023 13.1093 19.5C14.553 19.5023 15.9561 19.0218 17.0954 18.135L19.4045 20.4457C17.6461 21.9367 15.4147 22.7535 13.1093 22.75C10.7091 22.75 8.5105 21.8822 6.814 20.4457ZM5.6635 19.2952C4.17252 17.5369 3.35573 15.3054 3.35925 13C3.35925 10.5999 4.227 8.40125 5.6635 6.70475L7.97425 9.01388C7.1195 10.1156 6.60925 11.4985 6.60925 13C6.60925 14.5015 7.1195 15.8844 7.97425 16.9861L5.6635 19.2952ZM6.814 5.55425C8.57238 4.06326 10.8038 3.24648 13.1093 3.25C15.5094 3.25 17.708 4.11775 19.4045 5.55425L17.0954 7.865C15.9561 6.97815 14.553 6.49768 13.1093 6.5C11.6078 6.5 10.2249 7.01025 9.12313 7.865L6.814 5.55425ZM20.555 6.70475C22.046 8.46312 22.8628 10.6946 22.8593 13C22.8593 15.4001 21.9915 17.5987 20.555 19.2952L18.2443 16.9861C19.1311 15.8468 19.6116 14.4438 19.6093 13C19.6093 11.4985 19.099 10.1156 18.2443 9.01388L20.555 6.70475ZM9.96 16.7212C9.75402 16.5465 9.56271 16.3552 9.388 16.1493C8.66813 15.2994 8.23425 14.1993 8.23425 13C8.23293 12.2914 8.38674 11.591 8.68487 10.9482C8.983 10.3053 9.41823 9.73551 9.96 9.27875C10.8395 8.53243 11.9558 8.12345 13.1093 8.125C13.8179 8.12368 14.5182 8.27749 15.1611 8.57562C15.8039 8.87375 16.3737 9.30898 16.8305 9.85075C17.5504 10.7006 17.9843 11.8007 17.9843 13C17.9856 13.7086 17.8318 14.409 17.5336 15.0518C17.2355 15.6947 16.8003 16.2645 16.2585 16.7212C15.4086 17.4411 14.3085 17.875 13.1093 17.875C11.9084 17.875 10.8099 17.4411 9.96 16.7212ZM13.1093 24.375C16.1261 24.375 19.0194 23.1766 21.1526 21.0433C23.2858 18.9101 24.4843 16.0168 24.4843 13C24.4843 9.98316 23.2858 7.08989 21.1526 4.95666C19.0194 2.82343 16.1261 1.625 13.1093 1.625C10.0924 1.625 7.19914 2.82343 5.06591 4.95666C2.93269 7.08989 1.73425 9.98316 1.73425 13C1.73425 16.0168 2.93269 18.9101 5.06591 21.0433C7.19914 23.1766 10.0924 24.375 13.1093 24.375Z" fill="#FFB561"/>
</svg>
