<svg xmlns="http://www.w3.org/2000/svg" viewBox="0 0 476.51 287.19"><defs><style>.cls-1{fill:#fff;}.cls-2{fill:#ffcd24;}.cls-3{fill:#263238;}.cls-4{fill:#ee3542;}.cls-5{opacity:0.1;}.cls-6{opacity:0.2;}.cls-14,.cls-7{opacity:0.3;}.cls-8{fill:#eb2b37;}.cls-9{fill:#ebebeb;}.cls-10{fill:#fbbf9e;}.cls-11{fill:#f7996e;}.cls-12{fill:#cc6760;}.cls-13{fill:#9d4a42;}</style></defs><g id="Layer_2" data-name="Layer 2"><g id="Layer_1-2" data-name="Layer 1"><path class="cls-1" d="M187.61,62.85h0A27.33,27.33,0,0,1,150.5,52.08h0A27.33,27.33,0,0,1,161.27,15h0a27.33,27.33,0,0,1,37.12,10.78h0A27.32,27.32,0,0,1,187.61,62.85Z"/><path class="cls-2" d="M187.61,62.85l.37-.25,1.1-.7.81-.51c.28-.2.58-.45.91-.7l1.07-.83a13,13,0,0,0,1.13-1,25.85,25.85,0,0,0,4.89-6.14,27.26,27.26,0,0,0,3.43-9.78c.06-.48.13-1,.2-1.46s0-1,.07-1.49.07-1,0-1.54l-.09-1.56c0-.26,0-.53-.05-.79l-.12-.8c-.08-.53-.16-1.06-.25-1.6s-.26-1.07-.39-1.61a15,15,0,0,0-.47-1.62,25.15,25.15,0,0,0-1.31-3.21c-.26-.52-.5-1.06-.79-1.58l-1-1.53c-.16-.26-.31-.52-.49-.77l-.56-.73c-.38-.48-.74-1-1.14-1.45a25.9,25.9,0,0,0-2.68-2.66,26.82,26.82,0,0,0-3.07-2.36c-.55-.35-1.13-.66-1.7-1a9.17,9.17,0,0,0-.87-.48l-.91-.41A29.93,29.93,0,0,0,182,12.83a30.41,30.41,0,0,0-4-.81l-1-.15-1,0-1,0a6.25,6.25,0,0,0-1.06,0l-2.12.12-2.12.32a26.92,26.92,0,0,0-15,8.25l-1.41,1.62-1.23,1.73-.31.43-.26.46-.52.91-.52.91-.43.95a29.08,29.08,0,0,0-1.48,3.85,30.91,30.91,0,0,0-.81,4l-.14,1c0,.33,0,.66-.06,1,0,.66-.07,1.32-.07,2a28.69,28.69,0,0,0,.34,3.85,27.82,27.82,0,0,0,.82,3.69c.18.59.41,1.17.62,1.74l.31.87c.11.28.26.54.39.82l.78,1.62c.28.52.62,1,.92,1.52a25.06,25.06,0,0,0,2,2.82,13.43,13.43,0,0,0,1.12,1.26c.39.4.75.82,1.15,1.2L157,59.7l.61.53.64.46,1.27.91c.42.31.88.53,1.31.79s.87.52,1.31.75l1.33.61a27.38,27.38,0,0,0,10.1,2.34,26.25,26.25,0,0,0,7.81-.84c.52-.15,1-.23,1.47-.41l1.27-.45c.39-.15.76-.26,1.08-.4l.87-.41L187.2,63c.27-.13.41-.18.41-.18l-.39.21-1.16.59-.86.42c-.32.14-.69.27-1.08.42l-1.27.47a13.08,13.08,0,0,1-1.48.42,25.92,25.92,0,0,1-7.85.91A27.18,27.18,0,0,1,163.33,64L162,63.37c-.44-.23-.87-.49-1.32-.74s-.91-.49-1.33-.8-.85-.61-1.29-.91l-.65-.47-.61-.53-1.24-1.08c-.41-.38-.77-.81-1.17-1.21a15.27,15.27,0,0,1-1.13-1.27,27.11,27.11,0,0,1-2-2.85c-.3-.51-.64-1-.92-1.53s-.53-1.09-.8-1.64c-.13-.28-.28-.54-.39-.83l-.32-.87c-.21-.59-.45-1.17-.64-1.77a30.4,30.4,0,0,1-.83-3.72,28.13,28.13,0,0,1-.35-3.91c0-.66.05-1.32.07-2,0-.33,0-.67.06-1l.14-1a31.3,31.3,0,0,1,.81-4,31.88,31.88,0,0,1,1.49-3.9l.44-1,.53-.92.53-.93.26-.46.31-.44,1.25-1.75c.47-.55.95-1.09,1.43-1.64a29,29,0,0,1,6.92-5.43,29.31,29.31,0,0,1,8.29-2.93l2.14-.33,2.15-.12a7.64,7.64,0,0,1,1.07,0l1.07.05,1.06,0,1,.14a30.86,30.86,0,0,1,4.09.83A31.89,31.89,0,0,1,185.93,14l.92.42c.31.14.59.33.88.49.57.34,1.16.65,1.72,1a28,28,0,0,1,3.1,2.39A27.55,27.55,0,0,1,195.26,21c.41.48.77,1,1.15,1.48l.56.74c.18.25.33.52.5.78.32.52.64,1,.95,1.55s.53,1.07.8,1.6a24.69,24.69,0,0,1,1.31,3.24A12.19,12.19,0,0,1,201,32c.13.55.3,1.09.4,1.63l.24,1.63.12.8.05.8c0,.53.06,1.06.08,1.58s0,1,0,1.55,0,1-.07,1.51l-.21,1.46a27.13,27.13,0,0,1-3.51,9.85,25.82,25.82,0,0,1-5,6.15,13.16,13.16,0,0,1-1.15,1l-1.07.82c-.34.25-.64.49-.93.69l-.82.49-1.12.67Z"/><path class="cls-2" d="M176.38,37.52a6.72,6.72,0,0,0,.52-7.37,6.31,6.31,0,1,0-11.06,6,6.69,6.69,0,0,0,6.53,3.56c-7.78,6-2.32,15-2.32,15l20.12-10.94S185.5,34.16,176.38,37.52Z"/><path class="cls-1" d="M20.88,21.24h0a11.31,11.31,0,0,1-4-15.5h0a11.33,11.33,0,0,1,15.5-4h0a11.32,11.32,0,0,1,4,15.5h0A11.32,11.32,0,0,1,20.88,21.24Z"/><path class="cls-2" d="M20.88,21.24a19.56,19.56,0,0,0,2.58,1,10.82,10.82,0,0,0,3.21.42A11.24,11.24,0,0,0,35,18.84a11.38,11.38,0,0,0,2.55-5.3,10.67,10.67,0,0,0,.12-3.2,11.36,11.36,0,0,0-.29-1.63,11.63,11.63,0,0,0-.55-1.6A11.09,11.09,0,0,0,25.52.42,13.22,13.22,0,0,0,23.85.7a13.83,13.83,0,0,0-1.57.54A10.39,10.39,0,0,0,19.54,2.9a11.22,11.22,0,0,0-2.74,14,10.84,10.84,0,0,0,1.93,2.61,17.62,17.62,0,0,0,2.15,1.76l-.17-.09-.46-.28a4.65,4.65,0,0,1-.71-.51,6.68,6.68,0,0,1-.91-.78,10.78,10.78,0,0,1-2-2.61A11.39,11.39,0,0,1,19.33,2.64,10.87,10.87,0,0,1,22.15.92,12.24,12.24,0,0,1,23.76.36,12.35,12.35,0,0,1,25.48.07,11.41,11.41,0,0,1,37.18,7a12.89,12.89,0,0,1,.57,1.65A12.18,12.18,0,0,1,38,10.31a10.61,10.61,0,0,1-.14,3.29,11.4,11.4,0,0,1-11.23,9.3,10.77,10.77,0,0,1-3.25-.5A8,8,0,0,1,22.29,22a5.28,5.28,0,0,1-.79-.39L21,21.34C20.92,21.28,20.87,21.24,20.88,21.24Z"/><path class="cls-2" d="M27.53,11.89a2.8,2.8,0,0,0,2.74-1.37,2.61,2.61,0,1,0-4.48-2.67,2.78,2.78,0,0,0,.11,3.08c-3.76-1.52-5.82,2.32-5.82,2.32l8.15,4.86S30.65,14.43,27.53,11.89Z"/><circle class="cls-1" cx="463.12" cy="22.34" r="13.37" transform="translate(341.78 469.84) rotate(-77.59)"/><path class="cls-2" d="M476.5,22.34s0-.07,0-.22,0-.37-.05-.63a6.29,6.29,0,0,0-.12-1,9.79,9.79,0,0,0-.29-1.38,12.62,12.62,0,0,0-1.49-3.53,13.3,13.3,0,0,0-3.38-3.75,13.15,13.15,0,0,0-5.57-2.46,13.33,13.33,0,0,0-6.94.58,12.44,12.44,0,0,0-3.34,1.8,13.91,13.91,0,0,0-1.5,1.28,14.69,14.69,0,0,0-1.29,1.53,13.12,13.12,0,0,0,0,15.6,13.55,13.55,0,0,0,1.29,1.53,15,15,0,0,0,1.5,1.27,11.9,11.9,0,0,0,3.34,1.8,13.17,13.17,0,0,0,12.51-1.87,13.43,13.43,0,0,0,3.38-3.75A12.62,12.62,0,0,0,476,25.59a10.09,10.09,0,0,0,.29-1.38,6.29,6.29,0,0,0,.12-1c0-.26,0-.47.05-.63s0-.22,0-.22a.72.72,0,0,1,0,.22c0,.16,0,.37,0,.63a6.16,6.16,0,0,1-.09,1,8.4,8.4,0,0,1-.25,1.39,12.83,12.83,0,0,1-1.45,3.6,13.4,13.4,0,0,1-3.41,3.85,13.2,13.2,0,0,1-5.67,2.55,13.46,13.46,0,0,1-7.11-.56,12.82,12.82,0,0,1-3.43-1.84,17.09,17.09,0,0,1-1.54-1.3,15.32,15.32,0,0,1-1.33-1.57,13.47,13.47,0,0,1,0-16,15.52,15.52,0,0,1,1.33-1.57,14.33,14.33,0,0,1,1.54-1.3,12.54,12.54,0,0,1,3.43-1.84,13.56,13.56,0,0,1,7.11-.57,13.57,13.57,0,0,1,9.08,6.41,12.71,12.71,0,0,1,1.45,3.6,8.22,8.22,0,0,1,.25,1.39,6.05,6.05,0,0,1,.09,1c0,.27,0,.48,0,.64A.72.72,0,0,1,476.5,22.34Z"/><path class="cls-2" d="M457.36,21.62a3.51,3.51,0,0,1,.79-2,3.43,3.43,0,0,1,1.72-1.21A2.8,2.8,0,0,1,463,19.64a2.68,2.68,0,0,1,.77-.94,2.83,2.83,0,0,1,2.14-.57,3.49,3.49,0,0,1,1.86,1,3.62,3.62,0,0,1,1,1.89,4.36,4.36,0,0,1-.37,2.71,6.24,6.24,0,0,1-2,2.12c-1.33.92-3.09,2.08-3.09,2.08s-1.62-1.05-3.06-1.8a6.21,6.21,0,0,1-2.24-1.85A4.37,4.37,0,0,1,457.36,21.62Z"/><path class="cls-2" d="M466.46,221.13a49,49,0,0,0-34.9,1.33C445.53,231.66,466.46,221.13,466.46,221.13Z"/><path class="cls-2" d="M416.07,206c-1.58,12,5.41,21.41,5.41,21.41C425.29,218.05,416.07,206,416.07,206Z"/><path class="cls-2" d="M424,231.84c12.83,6.91,26.31,3.14,26.31,3.14C441.41,226.73,424,231.84,424,231.84Z"/><path class="cls-2" d="M438.67,213.22c-.2-.18-7.48,7.44-16.26,17s-15.74,17.5-15.54,17.68,7.48-7.43,16.26-17S438.87,213.41,438.67,213.22Z"/><path class="cls-2" d="M463.12,191.61s-22.05,4.68-27.32,24.13A40.6,40.6,0,0,0,463.12,191.61Z"/><path class="cls-2" d="M434.86,188.39s-12.79,14.49-6.48,30.57A34.82,34.82,0,0,0,434.86,188.39Z"/><path class="cls-2" d="M45.77,168.43C41.15,189.65,52,206.29,52,206.29,60.11,189.81,45.77,168.43,45.77,168.43Z"/><path class="cls-2" d="M36.18,225.44c13.33.07,22.6-8.83,22.6-8.83C48.05,213.74,36.18,225.44,36.18,225.44Z"/><path class="cls-2" d="M63.26,213.27c5.77-14.93-.19-29.12-.19-29.12C55.3,195,63.26,213.27,63.26,213.27Z"/><path class="cls-2" d="M41,199.81c-.17.24,9.14,7.14,20.79,15.4S83,230,83.15,229.72,74,222.59,62.36,214.33,41.12,199.57,41,199.81Z"/><path class="cls-2" d="M14,176.11s8.13,23.4,30,26.49A44.61,44.61,0,0,0,14,176.11Z"/><path class="cls-2" d="M14.4,207.37S32,219.32,48.61,210.25A38.23,38.23,0,0,0,14.4,207.37Z"/><polygon class="cls-2" points="470.02 58.8 432.6 68.16 442.65 77.47 416.62 91.91 461 83.02 450.63 73.42 470.02 58.8"/><polygon class="cls-2" points="297.78 1.62 290.01 21.57 297.45 20.01 295.65 36.43 305.86 13.47 298.18 15.09 297.78 1.62"/><polygon class="cls-2" points="453.16 166.04 432.25 161.41 434.94 168.53 418.43 169.25 442.68 175.83 439.91 168.49 453.16 166.04"/><path class="cls-3" d="M458.13,287c0,.1-99.75.18-222.77.18S12.58,287.11,12.58,287s99.72-.18,222.78-.18S458.13,286.91,458.13,287Z"/><path class="cls-4" d="M455.06,253.88a26.83,26.83,0,1,1-32.28-19.94A26.83,26.83,0,0,1,455.06,253.88Z"/><g class="cls-5"><path class="cls-1" d="M422.78,233.94a26.83,26.83,0,0,0-19.94,32.28s18.54-3.51,21.21-11.94S422.78,233.94,422.78,233.94Z"/></g><path class="cls-4" d="M448.29,255a20.4,20.4,0,1,1-24.54-15.15A20.4,20.4,0,0,1,448.29,255Z"/><g class="cls-6"><path d="M448.29,255a20.4,20.4,0,1,1-24.54-15.15A20.4,20.4,0,0,1,448.29,255Z"/></g><path class="cls-4" d="M449,255.74a20.12,20.12,0,1,1-24.2-15A20.12,20.12,0,0,1,449,255.74Z"/><g class="cls-6"><path class="cls-1" d="M449,255.74a20.12,20.12,0,1,1-24.2-15A20.12,20.12,0,0,1,449,255.74Z"/></g><path class="cls-4" d="M429.84,258.49l-1.18-5h0a10.39,10.39,0,0,1,2.83.06,8.32,8.32,0,0,1,1.43.5l0-.17.35-2,.08-.46-1.12-.72-.38.29a9.7,9.7,0,0,0-3.88-.19l-.65-2.75-1-.49.16.69-1.17.28.66,2.8c-3.78,1.29-5.1,3.93-4.5,6.46.81,3.45,4,3.65,6.89,3.67l1.18,5a9.77,9.77,0,0,1-5.41-.71l-.53,2.77a11.16,11.16,0,0,0,6.57.62l.49,2.08-1,.25,1.12.43,2-.48-.66-2.78c3.8-1.32,5.15-3.94,4.55-6.48C436,258.66,432.76,258.5,429.84,258.49Zm-2.16,0c-1.54-.09-2.73-.38-3-1.57s.27-2.16,2-2.85Zm1-5Zm2.93,12.41-1-4.39c1.59.07,2.82.38,3.11,1.6S433.34,265.18,431.59,265.88Z"/><g class="cls-7"><path d="M429.84,258.49l-1.18-5h0a10.39,10.39,0,0,1,2.83.06,8.32,8.32,0,0,1,1.43.5l0-.17.35-2,.08-.46-1.12-.72-.38.29a9.7,9.7,0,0,0-3.88-.19l-.65-2.75-1-.49.16.69-1.17.28.66,2.8c-3.78,1.29-5.1,3.93-4.5,6.46.81,3.45,4,3.65,6.89,3.67l1.18,5a9.77,9.77,0,0,1-5.41-.71l-.53,2.77a11.16,11.16,0,0,0,6.57.62l.49,2.08-1,.25,1.12.43,2-.48-.66-2.78c3.8-1.32,5.15-3.94,4.55-6.48C436,258.66,432.76,258.5,429.84,258.49Zm-2.16,0c-1.54-.09-2.73-.38-3-1.57s.27-2.16,2-2.85Zm1-5Zm2.93,12.41-1-4.39c1.59.07,2.82.38,3.11,1.6S433.34,265.18,431.59,265.88Z"/></g><path class="cls-4" d="M431.23,268.11l.65,2.78-2,.48-.65-2.76a11.15,11.15,0,0,1-6.57-.62l.52-2.77a9.87,9.87,0,0,0,5.41.71l-1.17-5c-2.91,0-6.08-.22-6.89-3.67-.6-2.53.71-5.18,4.5-6.46l-.67-2.81,2-.48.65,2.76a10.91,10.91,0,0,1,5.4.32l-.43,2.75a10.56,10.56,0,0,0-4.34-.39l1.19,5c2.91,0,6.12.18,6.94,3.63C436.38,264.16,435,266.79,431.23,268.11ZM426.68,258l-1-4.42c-1.7.69-2.24,1.76-2,2.86S425.14,257.88,426.68,258Zm6,4.65c-.28-1.22-1.51-1.53-3.1-1.6l1,4.39C432.34,264.7,432.91,263.67,432.65,262.61Z"/><path class="cls-3" d="M433.78,280.23s.05,0,.15-.06l.47-.14.75-.23a7.3,7.3,0,0,0,1-.35l1.25-.51a7.33,7.33,0,0,0,.69-.34l.74-.39a7.68,7.68,0,0,0,.78-.44l.79-.52c.27-.19.56-.35.83-.57l.82-.67a20.92,20.92,0,0,0,3.28-3.4l.73-1.07c.12-.18.25-.36.37-.55l.33-.59c.21-.4.46-.79.66-1.21s.37-.86.56-1.3l.15-.33c0-.11.07-.22.11-.34l.23-.69c.07-.24.15-.47.22-.7a6.47,6.47,0,0,0,.18-.73c.1-.49.23-1,.32-1.48l.18-1.54a21.74,21.74,0,0,0-.46-6.39,22.12,22.12,0,0,0-2.45-5.93c-.29-.43-.57-.86-.85-1.29s-.64-.79-.95-1.18a6.57,6.57,0,0,0-.48-.57l-.52-.53-.51-.52-.26-.25-.27-.23-1.09-.91c-.37-.28-.76-.53-1.13-.79l-.56-.38a6.55,6.55,0,0,0-.58-.32l-1.13-.63a21.5,21.5,0,0,0-4.45-1.58l-1-.23c-.33-.07-.67-.09-1-.13l-.95-.12c-.3,0-.6,0-.89,0l-.83,0a6.54,6.54,0,0,0-.77,0l-1.34.1a8.9,8.9,0,0,0-1.07.15l-.78.13-.48.08-.17,0,.16,0,.48-.1.78-.15a7.16,7.16,0,0,1,1.07-.16l1.35-.12a4.86,4.86,0,0,1,.77,0h.84c.29,0,.59,0,.89,0l.95.11c.33,0,.67.06,1,.13l1,.22a21.36,21.36,0,0,1,4.49,1.57l1.15.63.58.32.57.38c.37.27.77.51,1.14.8l1.1.91.28.23.26.26.51.52.53.53a7.12,7.12,0,0,1,.49.58c.31.39.65.77.95,1.19l.87,1.3a20.37,20.37,0,0,1,2.94,12.44c-.07.52-.13,1-.19,1.55s-.22,1-.32,1.5c-.07.24-.1.49-.18.73l-.24.7c-.07.24-.15.47-.23.7a3.58,3.58,0,0,1-.11.35l-.15.33-.57,1.31c-.21.42-.45.82-.67,1.22l-.33.59c-.12.19-.25.37-.38.56l-.74,1.07a21.17,21.17,0,0,1-3.32,3.41l-.83.67c-.27.21-.57.38-.84.57l-.8.52a8.67,8.67,0,0,1-.79.43l-.74.38a4.88,4.88,0,0,1-.7.33l-1.26.5a7.09,7.09,0,0,1-1,.33l-.76.21-.47.13Z"/><path class="cls-1" d="M409.61,277.56l-.17-.18-.45-.52c-.2-.23-.44-.51-.69-.86s-.56-.72-.85-1.18l-.47-.71c-.16-.24-.3-.51-.46-.79-.33-.54-.63-1.15-.95-1.79a28.08,28.08,0,0,1-1.63-4.34,29.39,29.39,0,0,1-.85-4.56c-.06-.71-.12-1.39-.12-2,0-.31,0-.62,0-.91s0-.58,0-.85c0-.54.07-1,.11-1.45s.1-.79.15-1.09l.12-.68a.81.81,0,0,1,.06-.24,2,2,0,0,1,0,.24c0,.18-.05.41-.08.69s-.09.66-.12,1.09-.08.91-.08,1.45l0,.84c0,.29,0,.59,0,.91,0,.63.07,1.3.13,2a30.35,30.35,0,0,0,.86,4.53,29.17,29.17,0,0,0,1.61,4.31c.31.64.6,1.25.92,1.79.16.27.3.55.45.79s.31.49.46.71c.28.46.57.85.82,1.2s.47.64.66.87l.42.55C409.57,277.48,409.62,277.55,409.61,277.56Z"/><path class="cls-1" d="M422.68,259a1.69,1.69,0,0,1-.71-.44,3.21,3.21,0,0,1-1-1.75,3.17,3.17,0,0,1,.26-2,1.71,1.71,0,0,1,.49-.68s-.18.27-.36.73a3.44,3.44,0,0,0-.2,1.9,3.39,3.39,0,0,0,.91,1.69C422.42,258.79,422.7,259,422.68,259Z"/><path class="cls-1" d="M425.32,250.33a2,2,0,0,1-.29-.8,1.85,1.85,0,0,1-.1-.83c.06,0,.19.34.29.79A1.9,1.9,0,0,1,425.32,250.33Z"/><path class="cls-1" d="M425.42,239a3.39,3.39,0,0,1-.64.13c-.21,0-.46.07-.75.14s-.63.12-1,.22-.77.19-1.19.33-.86.29-1.33.46a22.94,22.94,0,0,0-2.91,1.38,23.4,23.4,0,0,0-2.67,1.82c-.38.32-.75.61-1.07.92s-.62.58-.89.85-.49.52-.69.74-.37.42-.5.58a3.74,3.74,0,0,1-.43.49,4.87,4.87,0,0,1,.37-.54q.18-.25.48-.6a10.15,10.15,0,0,1,.67-.77c.26-.28.54-.58.87-.88s.69-.61,1.07-.94a21.74,21.74,0,0,1,2.69-1.84,20.76,20.76,0,0,1,2.94-1.38c.48-.17.92-.33,1.35-.45s.83-.23,1.2-.31.71-.14,1-.19a7,7,0,0,1,.76-.11Z"/><path class="cls-1" d="M438,284.06a2.73,2.73,0,0,1-.43.23,12.32,12.32,0,0,1-1.24.53A19.61,19.61,0,0,1,432,285.9a19.34,19.34,0,0,1-4.46.07,12.58,12.58,0,0,1-1.33-.2,3,3,0,0,1-.49-.11,2.09,2.09,0,0,1,.5,0c.31.05.77.09,1.33.14a22.89,22.89,0,0,0,4.42-.13,22.08,22.08,0,0,0,4.3-1c.53-.18,1-.35,1.26-.47Z"/><path class="cls-3" d="M455.06,253.88l-.12-.42c-.08-.27-.17-.69-.35-1.22a27,27,0,0,0-1.86-4.54,26.25,26.25,0,0,0-1.85-3,26.82,26.82,0,0,0-2.68-3.24,27.17,27.17,0,0,0-8.37-5.83,26.71,26.71,0,0,0-18.92-1.05,25.77,25.77,0,0,0-3.37,1.31,27.21,27.21,0,0,0-3.24,1.81,26.79,26.79,0,0,0-9.95,11.94,26,26,0,0,0-1.32,3.91,24.86,24.86,0,0,0-.7,4.14,26.7,26.7,0,0,0,3.88,16.42c.36.61.77,1.18,1.17,1.76s.85,1.11,1.31,1.63a26.06,26.06,0,0,0,2.93,2.92,26.78,26.78,0,0,0,14.24,6.21,27.4,27.4,0,0,0,3.72.17,26.83,26.83,0,0,0,10.22-2.29,26.5,26.5,0,0,0,9.82-7.45,27,27,0,0,0,4.87-9,25.19,25.19,0,0,0,.95-4.1,26,26,0,0,0,.3-3.53,27.58,27.58,0,0,0-.36-4.89c-.08-.55-.19-1-.24-1.25s-.08-.43-.08-.43.15.57.36,1.68a26.68,26.68,0,0,1,.4,4.89,27.59,27.59,0,0,1-.28,3.54,26.41,26.41,0,0,1-.94,4.12,27.19,27.19,0,0,1-4.87,9,26.94,26.94,0,0,1-9.86,7.52,27,27,0,0,1-6.66,2,25.51,25.51,0,0,1-3.63.34,29.49,29.49,0,0,1-3.74-.16,26.88,26.88,0,0,1-17.3-9.19c-.46-.52-.89-1.08-1.32-1.64s-.81-1.16-1.18-1.77a26.86,26.86,0,0,1-3.91-16.55,25.41,25.41,0,0,1,.71-4.17,26.45,26.45,0,0,1,1.33-3.94,27,27,0,0,1,23.53-16.37,26,26,0,0,1,6.48.49,26.4,26.4,0,0,1,5.7,1.82,27.18,27.18,0,0,1,8.4,5.88,26.24,26.24,0,0,1,2.68,3.27,25.41,25.41,0,0,1,1.84,3,26.73,26.73,0,0,1,1.83,4.55C454.94,253.3,455.06,253.88,455.06,253.88Z"/><circle class="cls-4" cx="46.54" cy="252.25" r="32.29" transform="translate(-184.93 141.7) rotate(-54.02)"/><g class="cls-5"><path class="cls-1" d="M25.69,227.58a32.3,32.3,0,0,0-3.82,45.51s18-13.87,16.26-24.38S25.69,227.58,25.69,227.58Z"/></g><path class="cls-4" d="M64.57,236.34A24.55,24.55,0,1,1,30,233.43,24.55,24.55,0,0,1,64.57,236.34Z"/><g class="cls-6"><path d="M64.57,236.34A24.55,24.55,0,1,1,30,233.43,24.55,24.55,0,0,1,64.57,236.34Z"/></g><path class="cls-4" d="M65.76,236.68a24.22,24.22,0,1,1-34.13-2.87A24.22,24.22,0,0,1,65.76,236.68Z"/><g class="cls-6"><path class="cls-1" d="M65.76,236.68a24.22,24.22,0,1,1-34.13-2.87A24.22,24.22,0,0,1,65.76,236.68Z"/></g><path class="cls-4" d="M46.64,250.08l-4-4.73,0,0a12.64,12.64,0,0,1,3.07-1.47,10.21,10.21,0,0,1,1.81-.25l-.06-.2-.71-2.32-.17-.54L45,240.38l-.25.52a11.66,11.66,0,0,0-4.26,1.91l-2.2-2.6-1.37,0,.56.65-1.12.94,2.24,2.65c-3.36,3.44-3.33,7-1.31,9.39,2.75,3.26,6.26,1.75,9.4.18l4,4.69a11.8,11.8,0,0,1-6.2,2.18l.95,3.26c2.11,0,5-1.11,7.39-2.91l1.66,2-.9.79,1.44-.15,1.92-1.63-2.22-2.62c3.37-3.49,3.38-7,1.36-9.43C53.31,246.94,49.78,248.51,46.64,250.08Zm-2.34,1.13c-1.7.75-3.14,1.09-4.09,0s-.88-2.47.56-4.13Zm-1.66-5.87Zm9.9,11.73L49,252.92c1.74-.79,3.23-1.12,4.2,0S54,255.36,52.54,257.07Z"/><g class="cls-7"><path d="M46.64,250.08l-4-4.73,0,0a12.64,12.64,0,0,1,3.07-1.47,10.21,10.21,0,0,1,1.81-.25l-.06-.2-.71-2.32-.17-.54L45,240.38l-.25.52a11.66,11.66,0,0,0-4.26,1.91l-2.2-2.6-1.37,0,.56.65-1.12.94,2.24,2.65c-3.36,3.44-3.33,7-1.31,9.39,2.75,3.26,6.26,1.75,9.4.18l4,4.69a11.8,11.8,0,0,1-6.2,2.18l.95,3.26c2.11,0,5-1.11,7.39-2.91l1.66,2-.9.79,1.44-.15,1.92-1.63-2.22-2.62c3.37-3.49,3.38-7,1.36-9.43C53.31,246.94,49.78,248.51,46.64,250.08Zm-2.34,1.13c-1.7.75-3.14,1.09-4.09,0s-.88-2.47.56-4.13Zm-1.66-5.87Zm9.9,11.73L49,252.92c1.74-.79,3.23-1.12,4.2,0S54,255.36,52.54,257.07Z"/></g><path class="cls-4" d="M53.36,259.65l2.22,2.63-1.92,1.63-2.2-2.61c-2.42,1.8-5.28,2.94-7.39,2.91l-1-3.26a11.77,11.77,0,0,0,6.2-2.18l-4-4.69c-3.14,1.57-6.65,3.08-9.4-.18-2-2.39-2.05-6,1.31-9.39L35,241.86,37,240.23l2.2,2.61a13.09,13.09,0,0,1,6-2.6l1,3.19a12.62,12.62,0,0,0-4.87,1.94l4,4.74c3.14-1.57,6.67-3.15,9.42.11C56.74,252.62,56.73,256.17,53.36,259.65ZM43,251.24l-3.53-4.17c-1.45,1.66-1.44,3.1-.56,4.13S41.26,252,43,251.24ZM51.9,253c-1-1.15-2.46-.81-4.2,0l3.5,4.15C52.7,255.39,52.75,254,51.9,253Z"/><path class="cls-3" d="M62.7,271.28l.14-.15.42-.41.68-.65a10.15,10.15,0,0,0,.91-.93l1.06-1.23a8.94,8.94,0,0,0,.56-.74l.58-.82c.19-.29.42-.56.6-.89s.37-.65.56-1,.41-.68.58-1.06l.52-1.16A25.76,25.76,0,0,0,71,256.8c.06-.5.13-1,.2-1.54,0-.27.08-.53.1-.8l0-.81c0-.54.06-1.1,0-1.66s-.06-1.12-.1-1.7l0-.43-.06-.43-.14-.87c0-.29-.09-.58-.14-.88a6.82,6.82,0,0,0-.2-.87c-.16-.58-.29-1.18-.47-1.76s-.42-1.16-.64-1.75a24.17,24.17,0,0,0-9.83-11.64l-1.62-.92c-.55-.28-1.11-.51-1.66-.76-.28-.11-.54-.26-.83-.35l-.84-.28-.83-.28-.42-.13-.42-.1-1.66-.38c-.55-.11-1.1-.16-1.64-.24l-.81-.1-.8,0L46.66,228a26,26,0,0,0-5.63.73l-1.24.32c-.4.11-.77.27-1.14.4l-1.08.39a8.63,8.63,0,0,0-1,.44l-.91.43a7.88,7.88,0,0,0-.82.43l-1.39.84a9.37,9.37,0,0,0-1.07.74l-.76.56-.47.35-.17.11.15-.13.46-.36.75-.59a9.5,9.5,0,0,1,1.06-.76l1.38-.86a5.9,5.9,0,0,1,.83-.44l.9-.44a9.8,9.8,0,0,1,1-.46l1.08-.4c.37-.13.74-.29,1.15-.41L41,228.6a25.64,25.64,0,0,1,5.67-.77l1.58,0,.8,0,.81.1c.55.08,1.11.13,1.66.23l1.68.39.42.09.42.14.84.28.85.28a8.76,8.76,0,0,1,.84.35c.55.25,1.12.48,1.68.76l1.63.93a26.39,26.39,0,0,1,5.92,5.07,26,26,0,0,1,4,6.68c.22.59.43,1.18.64,1.77s.32,1.19.47,1.78a8.67,8.67,0,0,1,.21.88l.13.89c0,.29.09.58.14.87s0,.29.06.44l0,.43c0,.58.06,1.16.09,1.72s0,1.12,0,1.67l0,.82c0,.27-.07.53-.1.8-.08.53-.15,1-.22,1.56a26,26,0,0,1-1.7,5.47c-.18.39-.36.78-.53,1.17s-.41.71-.6,1.06l-.57,1c-.18.33-.42.61-.61.9l-.59.81A6.28,6.28,0,0,1,66,268c-.4.44-.76.85-1.08,1.22a8.86,8.86,0,0,1-.93.92l-.7.64-.44.39A1.12,1.12,0,0,1,62.7,271.28Z"/><path class="cls-1" d="M35.31,281.57a1.27,1.27,0,0,1-.28-.1l-.78-.31c-.33-.13-.74-.31-1.2-.54s-1-.47-1.55-.81l-.89-.5c-.31-.18-.61-.39-.93-.6-.65-.4-1.3-.9-2-1.41a33.63,33.63,0,0,1-4.12-3.77,35.06,35.06,0,0,1-3.4-4.44c-.44-.73-.88-1.42-1.22-2.11-.18-.33-.36-.65-.51-1l-.43-.92c-.28-.59-.47-1.14-.66-1.62s-.33-.9-.44-1.25l-.24-.8a1.45,1.45,0,0,1-.07-.28s0,.09.12.27.17.46.28.78.27.76.47,1.23.41,1,.7,1.6c.14.29.28.59.44.91s.34.63.51,1c.35.68.79,1.36,1.24,2.08a36.39,36.39,0,0,0,3.39,4.4,37.58,37.58,0,0,0,4.07,3.76c.69.51,1.33,1,2,1.41.32.21.61.43.92.61l.87.51c.55.35,1.08.6,1.53.84s.85.43,1.18.58l.76.35A1.21,1.21,0,0,1,35.31,281.57Z"/><path class="cls-1" d="M39.22,254.51a2.21,2.21,0,0,1-1-.08,3.93,3.93,0,0,1-2-1.33,3.87,3.87,0,0,1-.81-2.29,2,2,0,0,1,.16-1s0,.38,0,1a4.14,4.14,0,0,0,.83,2.15,4,4,0,0,0,1.89,1.31C38.84,254.45,39.22,254.46,39.22,254.51Z"/><path class="cls-1" d="M37.34,243.79c-.05,0-.38-.27-.74-.7s-.61-.8-.56-.85.38.27.74.7S37.39,243.74,37.34,243.79Z"/><path class="cls-1" d="M31.26,231.52a7.28,7.28,0,0,1-.62.48c-.21.15-.46.33-.74.56s-.61.47-.94.78-.71.62-1.09,1-.77.78-1.18,1.22a27.45,27.45,0,0,0-2.37,3.07,26.64,26.64,0,0,0-1.88,3.4c-.24.55-.47,1.07-.65,1.57s-.35,1-.48,1.4-.25.82-.34,1.17-.17.65-.22.9c-.12.49-.19.76-.2.76a4.44,4.44,0,0,1,.1-.78c0-.25.1-.56.19-.91s.16-.76.3-1.19.27-.92.46-1.42.4-1,.64-1.59a25.08,25.08,0,0,1,1.87-3.44,25.94,25.94,0,0,1,2.42-3.09c.41-.44.8-.86,1.2-1.21s.77-.7,1.12-1,.68-.54,1-.75.55-.4.76-.53A4,4,0,0,1,31.26,231.52Z"/><path class="cls-1" d="M69.3,273.1a2.63,2.63,0,0,1-.34.49,15.28,15.28,0,0,1-1,1.25,24.09,24.09,0,0,1-4.05,3.51,23.67,23.67,0,0,1-4.75,2.49c-.64.24-1.17.42-1.54.52a2.38,2.38,0,0,1-.58.13,4,4,0,0,1,.55-.22c.36-.13.88-.33,1.51-.59a26,26,0,0,0,8.73-6c.48-.49.85-.9,1.1-1.19A2.72,2.72,0,0,1,69.3,273.1Z"/><path class="cls-3" d="M71.2,231.41l-.35-.39c-.24-.25-.57-.65-1-1.12A32.86,32.86,0,0,0,65.34,226a31.84,31.84,0,0,0-3.63-2.23,30.93,30.93,0,0,0-4.65-2,32.51,32.51,0,0,0-12.16-1.71,32.29,32.29,0,0,0-14.24,4.16,32.42,32.42,0,0,0-9.54,8.26,34.36,34.36,0,0,0-2.5,3.71,32.28,32.28,0,0,0-4.18,18.23,31.73,31.73,0,0,0,.72,4.92,30,30,0,0,0,1.5,4.83,32.23,32.23,0,0,0,13.11,15.52c.72.45,1.47.84,2.21,1.24s1.52.73,2.3,1a32.11,32.11,0,0,0,23.4.45,34.2,34.2,0,0,0,4.08-1.83,32.91,32.91,0,0,0,3.69-2.33,32.22,32.22,0,0,0,6-5.7A32.22,32.22,0,0,0,78,259.23,32.36,32.36,0,0,0,78.32,247,30.53,30.53,0,0,0,77.11,242a32.68,32.68,0,0,0-1.6-3.95,33.72,33.72,0,0,0-3.05-5c-.39-.55-.73-.94-.94-1.22l-.32-.41s.48.53,1.3,1.6a31.33,31.33,0,0,1,3.09,5,32.07,32.07,0,0,1,1.63,4,31.67,31.67,0,0,1,1.24,4.93,32.83,32.83,0,0,1-.32,12.34,32,32,0,0,1-2.33,6.82,32.24,32.24,0,0,1-10.24,12.36,31.1,31.1,0,0,1-3.71,2.35,34.59,34.59,0,0,1-4.1,1.85A32.43,32.43,0,0,1,39,283.75a31.8,31.8,0,0,1-4.76-1.54c-.79-.31-1.55-.68-2.32-1s-1.5-.79-2.23-1.25a32.36,32.36,0,0,1-13.2-15.64,29.05,29.05,0,0,1-1.51-4.86,31.12,31.12,0,0,1-.73-5,32.44,32.44,0,0,1,4.23-18.36A34.78,34.78,0,0,1,21,232.37a31.6,31.6,0,0,1,2.93-3.27,32.34,32.34,0,0,1,6.68-5,32.34,32.34,0,0,1,14.33-4.16,32.78,32.78,0,0,1,12.22,1.75,32,32,0,0,1,4.65,2A32.33,32.33,0,0,1,65.39,226a31.84,31.84,0,0,1,4.45,3.89C70.76,230.85,71.2,231.41,71.2,231.41Z"/><rect class="cls-4" x="353.32" y="210.79" width="59.39" height="10.79" transform="translate(766.03 432.36) rotate(180)"/><path class="cls-3" d="M406.89,221.65a29.75,29.75,0,0,0,.25-5.35,29.65,29.65,0,0,0-.25-5.35,28.6,28.6,0,0,0-.25,5.35A28.68,28.68,0,0,0,406.89,221.65Z"/><path class="cls-3" d="M410.14,221.65a30.36,30.36,0,0,0,.24-5.35,30.27,30.27,0,0,0-.24-5.35,28.6,28.6,0,0,0-.25,5.35A28.68,28.68,0,0,0,410.14,221.65Z"/><path class="cls-3" d="M399.75,221.65a28.68,28.68,0,0,0,.25-5.35,28.6,28.6,0,0,0-.25-5.35,30.27,30.27,0,0,0-.24,5.35A30.36,30.36,0,0,0,399.75,221.65Z"/><path class="cls-3" d="M403,221.65a28.68,28.68,0,0,0,.25-5.35A28.6,28.6,0,0,0,403,211a28.6,28.6,0,0,0-.25,5.35A28.68,28.68,0,0,0,403,221.65Z"/><path class="cls-3" d="M392.62,221.65a30.36,30.36,0,0,0,.24-5.35,30.27,30.27,0,0,0-.24-5.35,28.6,28.6,0,0,0-.25,5.35A28.68,28.68,0,0,0,392.62,221.65Z"/><path class="cls-3" d="M395.86,221.65a28.68,28.68,0,0,0,.25-5.35,28.6,28.6,0,0,0-.25-5.35,30.27,30.27,0,0,0-.24,5.35A30.36,30.36,0,0,0,395.86,221.65Z"/><path class="cls-3" d="M385.48,221.65a28.68,28.68,0,0,0,.25-5.35,28.6,28.6,0,0,0-.25-5.35,28.6,28.6,0,0,0-.25,5.35A28.68,28.68,0,0,0,385.48,221.65Z"/><path class="cls-3" d="M388.73,221.65a28.68,28.68,0,0,0,.25-5.35,28.6,28.6,0,0,0-.25-5.35,28.6,28.6,0,0,0-.25,5.35A28.68,28.68,0,0,0,388.73,221.65Z"/><path class="cls-3" d="M378.34,221.65a28.68,28.68,0,0,0,.25-5.35,28.6,28.6,0,0,0-.25-5.35,30.27,30.27,0,0,0-.24,5.35A30.36,30.36,0,0,0,378.34,221.65Z"/><path class="cls-3" d="M381.59,221.65a28.68,28.68,0,0,0,.25-5.35,28.6,28.6,0,0,0-.25-5.35,30.27,30.27,0,0,0-.24,5.35A30.36,30.36,0,0,0,381.59,221.65Z"/><path class="cls-3" d="M371.21,221.65a29.75,29.75,0,0,0,.25-5.35,29.65,29.65,0,0,0-.25-5.35,28.6,28.6,0,0,0-.25,5.35A28.68,28.68,0,0,0,371.21,221.65Z"/><path class="cls-3" d="M374.46,221.65a30.36,30.36,0,0,0,.24-5.35,30.27,30.27,0,0,0-.24-5.35,28.6,28.6,0,0,0-.25,5.35A28.68,28.68,0,0,0,374.46,221.65Z"/><path class="cls-3" d="M364.07,221.65a28.68,28.68,0,0,0,.25-5.35,28.6,28.6,0,0,0-.25-5.35,29.65,29.65,0,0,0-.25,5.35A29.75,29.75,0,0,0,364.07,221.65Z"/><path class="cls-3" d="M367.32,221.65a28.68,28.68,0,0,0,.25-5.35,28.6,28.6,0,0,0-.25-5.35,28.6,28.6,0,0,0-.25,5.35A28.68,28.68,0,0,0,367.32,221.65Z"/><path class="cls-3" d="M356.94,221.65a30.36,30.36,0,0,0,.24-5.35,30.27,30.27,0,0,0-.24-5.35,28.6,28.6,0,0,0-.25,5.35A28.68,28.68,0,0,0,356.94,221.65Z"/><path class="cls-3" d="M360.18,221.65a28.68,28.68,0,0,0,.25-5.35,28.6,28.6,0,0,0-.25-5.35,30.27,30.27,0,0,0-.24,5.35A30.36,30.36,0,0,0,360.18,221.65Z"/><path class="cls-3" d="M353.32,210.79c0,.13,13.36.24,29.83.24s29.83-.11,29.83-.24-13.35-.25-29.83-.25S353.32,210.65,353.32,210.79Z"/><rect class="cls-4" x="357.21" y="221.74" width="59.39" height="10.79" transform="translate(773.8 454.27) rotate(180)"/><path class="cls-3" d="M410.78,232.6a30.27,30.27,0,0,0,.24-5.35,30.36,30.36,0,0,0-.24-5.35,28.68,28.68,0,0,0-.25,5.35A28.6,28.6,0,0,0,410.78,232.6Z"/><path class="cls-3" d="M414,232.6a28.6,28.6,0,0,0,.25-5.35,28.68,28.68,0,0,0-.25-5.35,30.36,30.36,0,0,0-.24,5.35A30.27,30.27,0,0,0,414,232.6Z"/><path class="cls-3" d="M403.64,232.6a28.6,28.6,0,0,0,.25-5.35,28.68,28.68,0,0,0-.25-5.35,28.68,28.68,0,0,0-.25,5.35A28.6,28.6,0,0,0,403.64,232.6Z"/><path class="cls-3" d="M406.89,232.6a29.65,29.65,0,0,0,.25-5.35,29.75,29.75,0,0,0-.25-5.35,28.68,28.68,0,0,0-.25,5.35A28.6,28.6,0,0,0,406.89,232.6Z"/><path class="cls-3" d="M396.5,232.6a28.6,28.6,0,0,0,.25-5.35,28.68,28.68,0,0,0-.25-5.35,30.36,30.36,0,0,0-.24,5.35A30.27,30.27,0,0,0,396.5,232.6Z"/><path class="cls-3" d="M399.75,232.6a28.6,28.6,0,0,0,.25-5.35,28.68,28.68,0,0,0-.25-5.35,30.36,30.36,0,0,0-.24,5.35A30.27,30.27,0,0,0,399.75,232.6Z"/><path class="cls-3" d="M389.37,232.6a29.65,29.65,0,0,0,.25-5.35,29.75,29.75,0,0,0-.25-5.35,28.68,28.68,0,0,0-.25,5.35A28.6,28.6,0,0,0,389.37,232.6Z"/><path class="cls-3" d="M392.62,232.6a30.27,30.27,0,0,0,.24-5.35,30.36,30.36,0,0,0-.24-5.35,28.68,28.68,0,0,0-.25,5.35A28.6,28.6,0,0,0,392.62,232.6Z"/><path class="cls-3" d="M382.23,232.6a28.6,28.6,0,0,0,.25-5.35,28.68,28.68,0,0,0-.25-5.35,29.75,29.75,0,0,0-.25,5.35A29.65,29.65,0,0,0,382.23,232.6Z"/><path class="cls-3" d="M385.48,232.6a28.6,28.6,0,0,0,.25-5.35,28.68,28.68,0,0,0-.25-5.35,28.68,28.68,0,0,0-.25,5.35A28.6,28.6,0,0,0,385.48,232.6Z"/><path class="cls-3" d="M375.1,232.6a30.27,30.27,0,0,0,.24-5.35,30.36,30.36,0,0,0-.24-5.35,28.68,28.68,0,0,0-.25,5.35A28.6,28.6,0,0,0,375.1,232.6Z"/><path class="cls-3" d="M378.34,232.6a28.6,28.6,0,0,0,.25-5.35,28.68,28.68,0,0,0-.25-5.35,30.36,30.36,0,0,0-.24,5.35A30.27,30.27,0,0,0,378.34,232.6Z"/><path class="cls-3" d="M368,232.6a28.6,28.6,0,0,0,.25-5.35,28.68,28.68,0,0,0-.25-5.35,28.68,28.68,0,0,0-.25,5.35A28.6,28.6,0,0,0,368,232.6Z"/><path class="cls-3" d="M371.21,232.6a29.65,29.65,0,0,0,.25-5.35,29.75,29.75,0,0,0-.25-5.35,28.68,28.68,0,0,0-.25,5.35A28.6,28.6,0,0,0,371.21,232.6Z"/><path class="cls-3" d="M360.82,232.6a28.6,28.6,0,0,0,.25-5.35,28.68,28.68,0,0,0-.25-5.35,30.36,30.36,0,0,0-.24,5.35A30.27,30.27,0,0,0,360.82,232.6Z"/><path class="cls-3" d="M364.07,232.6a28.6,28.6,0,0,0,.25-5.35,28.68,28.68,0,0,0-.25-5.35,29.75,29.75,0,0,0-.25,5.35A29.65,29.65,0,0,0,364.07,232.6Z"/><path class="cls-3" d="M357.21,221.74c0,.14,13.35.25,29.83.25s29.83-.11,29.83-.25-13.35-.25-29.83-.25S357.21,221.61,357.21,221.74Z"/><rect class="cls-4" x="352.35" y="232.6" width="59.39" height="10.79" transform="translate(764.09 475.99) rotate(180)"/><path class="cls-3" d="M405.92,243.46a28.6,28.6,0,0,0,.25-5.35,28.68,28.68,0,0,0-.25-5.35,30.36,30.36,0,0,0-.24,5.35A30.27,30.27,0,0,0,405.92,243.46Z"/><path class="cls-3" d="M409.17,243.46a28.6,28.6,0,0,0,.25-5.35,28.68,28.68,0,0,0-.25-5.35,28.68,28.68,0,0,0-.25,5.35A28.6,28.6,0,0,0,409.17,243.46Z"/><path class="cls-3" d="M398.79,243.46a30.27,30.27,0,0,0,.24-5.35,30.36,30.36,0,0,0-.24-5.35,28.68,28.68,0,0,0-.25,5.35A28.6,28.6,0,0,0,398.79,243.46Z"/><path class="cls-3" d="M402,243.46a30.27,30.27,0,0,0,.24-5.35,30.36,30.36,0,0,0-.24-5.35,28.68,28.68,0,0,0-.25,5.35A28.6,28.6,0,0,0,402,243.46Z"/><path class="cls-3" d="M391.65,243.46a28.6,28.6,0,0,0,.25-5.35,28.68,28.68,0,0,0-.25-5.35,28.68,28.68,0,0,0-.25,5.35A28.6,28.6,0,0,0,391.65,243.46Z"/><path class="cls-3" d="M394.9,243.46a28.6,28.6,0,0,0,.25-5.35,28.68,28.68,0,0,0-.25-5.35,28.68,28.68,0,0,0-.25,5.35A28.6,28.6,0,0,0,394.9,243.46Z"/><path class="cls-3" d="M384.51,243.46a28.6,28.6,0,0,0,.25-5.35,28.68,28.68,0,0,0-.25-5.35,30.36,30.36,0,0,0-.24,5.35A30.27,30.27,0,0,0,384.51,243.46Z"/><path class="cls-3" d="M387.76,243.46a28.6,28.6,0,0,0,.25-5.35,28.68,28.68,0,0,0-.25-5.35,30.36,30.36,0,0,0-.24,5.35A30.27,30.27,0,0,0,387.76,243.46Z"/><path class="cls-3" d="M377.38,243.46a28.6,28.6,0,0,0,.25-5.35,28.68,28.68,0,0,0-.25-5.35,28.68,28.68,0,0,0-.25,5.35A28.6,28.6,0,0,0,377.38,243.46Z"/><path class="cls-3" d="M380.63,243.46a30.27,30.27,0,0,0,.24-5.35,30.36,30.36,0,0,0-.24-5.35,28.68,28.68,0,0,0-.25,5.35A28.6,28.6,0,0,0,380.63,243.46Z"/><path class="cls-3" d="M370.24,243.46a28.6,28.6,0,0,0,.25-5.35,28.68,28.68,0,0,0-.25-5.35,30.36,30.36,0,0,0-.24,5.35A30.27,30.27,0,0,0,370.24,243.46Z"/><path class="cls-3" d="M373.49,243.46a28.6,28.6,0,0,0,.25-5.35,28.68,28.68,0,0,0-.25-5.35,28.68,28.68,0,0,0-.25,5.35A28.6,28.6,0,0,0,373.49,243.46Z"/><path class="cls-3" d="M363.11,243.46a30.27,30.27,0,0,0,.24-5.35,30.36,30.36,0,0,0-.24-5.35,28.68,28.68,0,0,0-.25,5.35A28.6,28.6,0,0,0,363.11,243.46Z"/><path class="cls-3" d="M366.35,243.46a28.6,28.6,0,0,0,.25-5.35,28.68,28.68,0,0,0-.25-5.35,30.36,30.36,0,0,0-.24,5.35A30.27,30.27,0,0,0,366.35,243.46Z"/><path class="cls-3" d="M356,243.46a28.6,28.6,0,0,0,.25-5.35,28.68,28.68,0,0,0-.25-5.35,28.68,28.68,0,0,0-.25,5.35A28.6,28.6,0,0,0,356,243.46Z"/><path class="cls-3" d="M359.22,243.46a28.6,28.6,0,0,0,.25-5.35,28.68,28.68,0,0,0-.25-5.35,28.68,28.68,0,0,0-.25,5.35A28.6,28.6,0,0,0,359.22,243.46Z"/><path class="cls-3" d="M352.35,232.6c0,.14,13.39.25,29.91.25s29.9-.11,29.9-.25-13.39-.25-29.9-.25S352.35,232.46,352.35,232.6Z"/><rect class="cls-4" x="357.01" y="243.3" width="59.39" height="10.79" transform="translate(773.41 497.39) rotate(180)"/><path class="cls-3" d="M410.58,254.16a29.75,29.75,0,0,0,.25-5.35,29.75,29.75,0,0,0-.25-5.35,28.68,28.68,0,0,0-.25,5.35A28.68,28.68,0,0,0,410.58,254.16Z"/><path class="cls-3" d="M413.83,254.16a30.36,30.36,0,0,0,.24-5.35,30.36,30.36,0,0,0-.24-5.35,28.68,28.68,0,0,0-.25,5.35A28.68,28.68,0,0,0,413.83,254.16Z"/><path class="cls-3" d="M403.44,254.16a28.68,28.68,0,0,0,.25-5.35,28.68,28.68,0,0,0-.25-5.35,29.75,29.75,0,0,0-.25,5.35A29.75,29.75,0,0,0,403.44,254.16Z"/><path class="cls-3" d="M406.69,254.16a28.68,28.68,0,0,0,.25-5.35,28.68,28.68,0,0,0-.25-5.35,28.68,28.68,0,0,0-.25,5.35A28.68,28.68,0,0,0,406.69,254.16Z"/><path class="cls-3" d="M396.31,254.16a30.36,30.36,0,0,0,.24-5.35,30.36,30.36,0,0,0-.24-5.35,28.68,28.68,0,0,0-.25,5.35A28.68,28.68,0,0,0,396.31,254.16Z"/><path class="cls-3" d="M399.55,254.16a28.68,28.68,0,0,0,.25-5.35,28.68,28.68,0,0,0-.25-5.35,30.36,30.36,0,0,0-.24,5.35A30.36,30.36,0,0,0,399.55,254.16Z"/><path class="cls-3" d="M389.17,254.16a28.68,28.68,0,0,0,.25-5.35,28.68,28.68,0,0,0-.25-5.35,28.68,28.68,0,0,0-.25,5.35A28.68,28.68,0,0,0,389.17,254.16Z"/><path class="cls-3" d="M392.42,254.16a28.68,28.68,0,0,0,.25-5.35,28.68,28.68,0,0,0-.25-5.35,28.68,28.68,0,0,0-.25,5.35A28.68,28.68,0,0,0,392.42,254.16Z"/><path class="cls-3" d="M382,254.16a28.68,28.68,0,0,0,.25-5.35,28.68,28.68,0,0,0-.25-5.35,30.36,30.36,0,0,0-.24,5.35A30.36,30.36,0,0,0,382,254.16Z"/><path class="cls-3" d="M385.28,254.16a28.68,28.68,0,0,0,.25-5.35,28.68,28.68,0,0,0-.25-5.35,30.36,30.36,0,0,0-.24,5.35A30.36,30.36,0,0,0,385.28,254.16Z"/><path class="cls-3" d="M374.9,254.16a29.75,29.75,0,0,0,.25-5.35,29.75,29.75,0,0,0-.25-5.35,28.68,28.68,0,0,0-.25,5.35A28.68,28.68,0,0,0,374.9,254.16Z"/><path class="cls-3" d="M378.15,254.16a30.36,30.36,0,0,0,.24-5.35,30.36,30.36,0,0,0-.24-5.35,28.68,28.68,0,0,0-.25,5.35A28.68,28.68,0,0,0,378.15,254.16Z"/><path class="cls-3" d="M367.76,254.16a28.68,28.68,0,0,0,.25-5.35,28.68,28.68,0,0,0-.25-5.35,29.75,29.75,0,0,0-.25,5.35A29.75,29.75,0,0,0,367.76,254.16Z"/><path class="cls-3" d="M371,254.16a28.68,28.68,0,0,0,.25-5.35,28.68,28.68,0,0,0-.25-5.35,28.68,28.68,0,0,0-.25,5.35A28.68,28.68,0,0,0,371,254.16Z"/><path class="cls-3" d="M360.63,254.16a30.36,30.36,0,0,0,.24-5.35,30.36,30.36,0,0,0-.24-5.35,28.68,28.68,0,0,0-.25,5.35A28.68,28.68,0,0,0,360.63,254.16Z"/><path class="cls-3" d="M363.87,254.16a28.68,28.68,0,0,0,.25-5.35,28.68,28.68,0,0,0-.25-5.35,30.36,30.36,0,0,0-.24,5.35A30.36,30.36,0,0,0,363.87,254.16Z"/><path class="cls-3" d="M357,243.3c0,.14,13.36.25,29.83.25s29.83-.11,29.83-.25-13.35-.25-29.83-.25S357,243.16,357,243.3Z"/><rect class="cls-4" x="351.06" y="254.24" width="59.39" height="10.79" transform="translate(761.5 519.27) rotate(180)"/><path class="cls-3" d="M404.63,265.1a30.36,30.36,0,0,0,.24-5.35,30.36,30.36,0,0,0-.24-5.35,28.68,28.68,0,0,0-.25,5.35A28.68,28.68,0,0,0,404.63,265.1Z"/><path class="cls-3" d="M407.87,265.1a28.68,28.68,0,0,0,.25-5.35,28.68,28.68,0,0,0-.25-5.35,30.36,30.36,0,0,0-.24,5.35A30.36,30.36,0,0,0,407.87,265.1Z"/><path class="cls-3" d="M397.49,265.1a28.68,28.68,0,0,0,.25-5.35,28.68,28.68,0,0,0-.25-5.35,28.68,28.68,0,0,0-.25,5.35A28.68,28.68,0,0,0,397.49,265.1Z"/><path class="cls-3" d="M400.74,265.1a28.68,28.68,0,0,0,.25-5.35,28.68,28.68,0,0,0-.25-5.35,28.68,28.68,0,0,0-.25,5.35A28.68,28.68,0,0,0,400.74,265.1Z"/><path class="cls-3" d="M390.35,265.1a28.68,28.68,0,0,0,.25-5.35,28.68,28.68,0,0,0-.25-5.35,30.36,30.36,0,0,0-.24,5.35A30.36,30.36,0,0,0,390.35,265.1Z"/><path class="cls-3" d="M393.6,265.1a28.68,28.68,0,0,0,.25-5.35,28.68,28.68,0,0,0-.25-5.35,30.36,30.36,0,0,0-.24,5.35A30.36,30.36,0,0,0,393.6,265.1Z"/><path class="cls-3" d="M383.22,265.1a57.37,57.37,0,0,0,0-10.7,28.68,28.68,0,0,0-.25,5.35A28.68,28.68,0,0,0,383.22,265.1Z"/><path class="cls-3" d="M386.47,265.1a30.36,30.36,0,0,0,.24-5.35,30.36,30.36,0,0,0-.24-5.35,28.68,28.68,0,0,0-.25,5.35A28.68,28.68,0,0,0,386.47,265.1Z"/><path class="cls-3" d="M376.08,265.1a28.68,28.68,0,0,0,.25-5.35,28.68,28.68,0,0,0-.25-5.35,57.37,57.37,0,0,0,0,10.7Z"/><path class="cls-3" d="M379.33,265.1a28.68,28.68,0,0,0,.25-5.35,28.68,28.68,0,0,0-.25-5.35,28.68,28.68,0,0,0-.25,5.35A28.68,28.68,0,0,0,379.33,265.1Z"/><path class="cls-3" d="M369,265.1a30.36,30.36,0,0,0,.24-5.35,30.36,30.36,0,0,0-.24-5.35,28.68,28.68,0,0,0-.25,5.35A28.68,28.68,0,0,0,369,265.1Z"/><path class="cls-3" d="M372.19,265.1a28.68,28.68,0,0,0,.25-5.35,28.68,28.68,0,0,0-.25-5.35,30.36,30.36,0,0,0-.24,5.35A30.36,30.36,0,0,0,372.19,265.1Z"/><path class="cls-3" d="M361.81,265.1a28.68,28.68,0,0,0,.25-5.35,28.68,28.68,0,0,0-.25-5.35,28.68,28.68,0,0,0-.25,5.35A28.68,28.68,0,0,0,361.81,265.1Z"/><path class="cls-3" d="M365.06,265.1a57.37,57.37,0,0,0,0-10.7,28.68,28.68,0,0,0-.25,5.35A28.68,28.68,0,0,0,365.06,265.1Z"/><path class="cls-3" d="M354.67,265.1a28.68,28.68,0,0,0,.25-5.35,28.68,28.68,0,0,0-.25-5.35,30.36,30.36,0,0,0-.24,5.35A30.36,30.36,0,0,0,354.67,265.1Z"/><path class="cls-3" d="M357.92,265.1a28.68,28.68,0,0,0,.25-5.35,28.68,28.68,0,0,0-.25-5.35,30.36,30.36,0,0,0-.24,5.35A30.36,30.36,0,0,0,357.92,265.1Z"/><path class="cls-3" d="M351.06,254.24c0,.14,13.35.25,29.83.25s29.83-.11,29.83-.25-13.35-.25-29.83-.25S351.06,254.1,351.06,254.24Z"/><rect class="cls-4" x="354.78" y="265.15" width="59.39" height="10.79" transform="translate(768.95 541.08) rotate(180)"/><path class="cls-3" d="M408.35,276a57.37,57.37,0,0,0,0-10.7,57.37,57.37,0,0,0,0,10.7Z"/><path class="cls-3" d="M411.6,276a57.37,57.37,0,0,0,0-10.7,57.37,57.37,0,0,0,0,10.7Z"/><path class="cls-3" d="M401.21,276a57.37,57.37,0,0,0,0-10.7,59.75,59.75,0,0,0,0,10.7Z"/><path class="cls-3" d="M404.46,276a57.37,57.37,0,0,0,0-10.7,59.75,59.75,0,0,0,0,10.7Z"/><path class="cls-3" d="M394.08,276a57.37,57.37,0,0,0,0-10.7,57.37,57.37,0,0,0,0,10.7Z"/><path class="cls-3" d="M397.33,276a59.75,59.75,0,0,0,0-10.7,57.37,57.37,0,0,0,0,10.7Z"/><path class="cls-3" d="M386.94,276a57.37,57.37,0,0,0,0-10.7,57.37,57.37,0,0,0,0,10.7Z"/><path class="cls-3" d="M390.19,276a57.37,57.37,0,0,0,0-10.7,57.37,57.37,0,0,0,0,10.7Z"/><path class="cls-3" d="M379.81,276a59.75,59.75,0,0,0,0-10.7,57.37,57.37,0,0,0,0,10.7Z"/><path class="cls-3" d="M383.05,276a57.37,57.37,0,0,0,0-10.7,59.75,59.75,0,0,0,0,10.7Z"/><path class="cls-3" d="M372.67,276a57.37,57.37,0,0,0,0-10.7,57.37,57.37,0,0,0,0,10.7Z"/><path class="cls-3" d="M375.92,276a57.37,57.37,0,0,0,0-10.7,57.37,57.37,0,0,0,0,10.7Z"/><path class="cls-3" d="M365.53,276a57.37,57.37,0,0,0,0-10.7,59.75,59.75,0,0,0,0,10.7Z"/><path class="cls-3" d="M368.78,276a57.37,57.37,0,0,0,0-10.7,59.75,59.75,0,0,0,0,10.7Z"/><path class="cls-3" d="M358.4,276a57.37,57.37,0,0,0,0-10.7,57.37,57.37,0,0,0,0,10.7Z"/><path class="cls-3" d="M361.65,276a59.75,59.75,0,0,0,0-10.7,57.37,57.37,0,0,0,0,10.7Z"/><path class="cls-3" d="M354.78,265.15c0,.14,13.39.25,29.9.25s29.91-.11,29.91-.25-13.39-.25-29.91-.25S354.78,265,354.78,265.15Z"/><rect class="cls-4" x="359.44" y="275.85" width="59.39" height="10.79" transform="translate(778.26 562.48) rotate(180)"/><path class="cls-3" d="M413,286.71a59.75,59.75,0,0,0,0-10.7,57.37,57.37,0,0,0,0,10.7Z"/><path class="cls-3" d="M416.25,286.71a57.37,57.37,0,0,0,0-10.7,59.75,59.75,0,0,0,0,10.7Z"/><path class="cls-3" d="M405.87,286.71a57.37,57.37,0,0,0,0-10.7,57.37,57.37,0,0,0,0,10.7Z"/><path class="cls-3" d="M409.12,286.71a57.37,57.37,0,0,0,0-10.7,57.37,57.37,0,0,0,0,10.7Z"/><path class="cls-3" d="M398.73,286.71a57.37,57.37,0,0,0,0-10.7,59.75,59.75,0,0,0,0,10.7Z"/><path class="cls-3" d="M402,286.71a57.37,57.37,0,0,0,0-10.7,57.37,57.37,0,0,0,0,10.7Z"/><path class="cls-3" d="M391.6,286.71a59.75,59.75,0,0,0,0-10.7,57.37,57.37,0,0,0,0,10.7Z"/><path class="cls-3" d="M394.85,286.71a59.75,59.75,0,0,0,0-10.7,57.37,57.37,0,0,0,0,10.7Z"/><path class="cls-3" d="M384.46,286.71a57.37,57.37,0,0,0,0-10.7,57.37,57.37,0,0,0,0,10.7Z"/><path class="cls-3" d="M387.71,286.71a57.37,57.37,0,0,0,0-10.7,57.37,57.37,0,0,0,0,10.7Z"/><path class="cls-3" d="M377.33,286.71a59.75,59.75,0,0,0,0-10.7,57.37,57.37,0,0,0,0,10.7Z"/><path class="cls-3" d="M380.57,286.71a57.37,57.37,0,0,0,0-10.7,59.75,59.75,0,0,0,0,10.7Z"/><path class="cls-3" d="M370.19,286.71a57.37,57.37,0,0,0,0-10.7,57.37,57.37,0,0,0,0,10.7Z"/><path class="cls-3" d="M373.44,286.71a57.37,57.37,0,0,0,0-10.7,57.37,57.37,0,0,0,0,10.7Z"/><path class="cls-3" d="M363.05,286.71a57.37,57.37,0,0,0,0-10.7,59.75,59.75,0,0,0,0,10.7Z"/><path class="cls-3" d="M366.3,286.71a57.37,57.37,0,0,0,0-10.7,57.37,57.37,0,0,0,0,10.7Z"/><path class="cls-3" d="M359.44,275.85c0,.13,13.35.25,29.83.25s29.83-.12,29.83-.25-13.35-.25-29.83-.25S359.44,275.71,359.44,275.85Z"/><g class="cls-7"><path d="M411.74,232.6a90.89,90.89,0,0,1-27.43,2c-9.12-.61-18.32-1.95-27.45-1.84Z"/></g><g class="cls-7"><path d="M411.21,221.87a90.61,90.61,0,0,1-27.44,2c-9.11-.6-18.31-2-27.45-1.83Z"/></g><g class="cls-7"><path d="M408.33,243.41a90.57,90.57,0,0,1-27.43,2c-9.12-.6-18.32-1.94-27.45-1.83Z"/></g><g class="cls-7"><path d="M410.66,254.18a90.57,90.57,0,0,1-27.43,2c-9.12-.6-18.32-2-27.45-1.83Z"/></g><g class="cls-7"><path d="M410,264.9a90.57,90.57,0,0,1-27.43,2c-9.11-.6-18.32-1.94-27.45-1.83Z"/></g><g class="cls-7"><path d="M412.86,275.83a90.63,90.63,0,0,1-27.44,2c-9.11-.6-18.32-1.94-27.45-1.83Z"/></g><path class="cls-1" d="M411.62,218.16a17.53,17.53,0,0,0,0-5.9,17.53,17.53,0,0,0,0,5.9Z"/><path class="cls-1" d="M415.36,229.69a20.22,20.22,0,0,0,0-6.34,21.06,21.06,0,0,0,0,6.34Z"/><path class="cls-1" d="M410,240.78a15.92,15.92,0,0,0,0-5.62,16.57,16.57,0,0,0,0,5.62Z"/><path class="cls-1" d="M415.51,251a12.88,12.88,0,0,0,0-5,12.88,12.88,0,0,0,0,5Z"/><path class="cls-1" d="M393.76,222.63a95.35,95.35,0,0,0,9.79.25,95.63,95.63,0,0,0,9.8-.25,95.63,95.63,0,0,0-9.8-.25A95.35,95.35,0,0,0,393.76,222.63Z"/><path class="cls-1" d="M387.42,212.26c0,.13,4.42.24,9.87.24s9.86-.11,9.86-.24a96.69,96.69,0,0,0-9.86-.25A97,97,0,0,0,387.42,212.26Z"/><path class="cls-1" d="M377.91,212.4a21.12,21.12,0,0,0,6.48,0,21.12,21.12,0,0,0-6.48,0Z"/><path class="cls-1" d="M409.6,264.64a47.36,47.36,0,0,0,0-8.25,47.36,47.36,0,0,0,0,8.25Z"/><path class="cls-1" d="M364.47,253c0,.1,10.8.18,24.12.18s24.12-.08,24.12-.18-10.79-.19-24.12-.19S364.47,252.87,364.47,253Z"/><path class="cls-1" d="M374.12,274.75c0,.1,8.54.18,19.06.18s19.07-.08,19.07-.18-8.54-.18-19.07-.18S374.12,274.65,374.12,274.75Z"/><path class="cls-1" d="M418,284.56a7.21,7.21,0,0,0,.19-2.34,7.12,7.12,0,0,0-.19-2.33,7.66,7.66,0,0,0-.18,2.33A7.75,7.75,0,0,0,418,284.56Z"/><path class="cls-1" d="M376,285.49c0,.1,8.85.18,19.76.18s19.76-.08,19.76-.18-8.84-.18-19.76-.18S376,285.39,376,285.49Z"/><path class="cls-3" d="M418.83,286.63s0-.06,0-.19l0-.57c0-.54,0-1.26,0-2.18,0-1.93,0-4.64.06-7.94v-.14h-.15l-4.23,0,.16.16c0-3.25,0-6.9,0-10.77v-.19h-4.11l.18.19c0-3.91,0-7.61,0-10.94l-.16.16,5.74,0h.14v-.14c0-3.28-.05-6-.06-7.88,0-.9,0-1.62,0-2.15,0-.23,0-.42,0-.57a.76.76,0,0,0,0-.19s0,.07,0,.19,0,.34,0,.57c0,.52,0,1.25,0,2.15,0,1.91,0,4.6-.06,7.88l.14-.15-5.74,0h-.16v.17c0,3.33,0,7,0,10.94v.18h4.11l-.18-.18c0,3.87,0,7.52,0,10.77V276h.16l4.24-.07-.15-.14c0,3.3.05,6,.07,7.94,0,.92,0,1.64,0,2.18,0,.23,0,.42,0,.57S418.82,286.63,418.83,286.63Z"/><path class="cls-3" d="M89.48,91.45H334.19a23,23,0,0,1,23,23V253.54a30.86,30.86,0,0,1-30.86,30.86H96.3a30.86,30.86,0,0,1-30.86-30.86V115.49A24,24,0,0,1,89.48,91.45Z"/><path class="cls-3" d="M53.24,270.13H369.36a0,0,0,0,1,0,0v3.16A13.72,13.72,0,0,1,355.64,287H67a13.72,13.72,0,0,1-13.72-13.72v-3.16a0,0,0,0,1,0,0Z"/><rect class="cls-1" x="73.27" y="99.11" width="275.3" height="162.95" rx="15.37"/><polygon class="cls-8" points="182.57 270.13 186.49 276.37 241.69 276.37 245.33 270.13 182.57 270.13"/><rect class="cls-8" x="65.49" y="270.07" width="291.78" height="0.93"/><rect class="cls-9" x="96.55" y="210.9" width="24.92" height="51.16"/><rect class="cls-9" x="135.82" y="185.23" width="24.92" height="76.83"/><rect class="cls-9" x="176.47" y="185.23" width="24.92" height="76.83"/><rect class="cls-9" x="259.81" y="147.87" width="24.92" height="114.19"/><rect class="cls-9" x="297.94" y="123.26" width="24.92" height="138.8"/><path class="cls-10" d="M148.39,206l29.08-41.87,54.65-42.61,29.46,78.13s-33.4,21.38-42.09,23.53-15,1.92-24.64,16Z"/><path class="cls-10" d="M273,108.73c.82,0,10.82,7.17,5.19,13-6,6.25-27.35,24.49-27.35,24.49s-10.83-1-8.5-7.25S273,108.73,273,108.73Z"/><path class="cls-4" d="M281.51,215.57A63.22,63.22,0,0,1,266,214.45a62.69,62.69,0,0,1-23.76-112.94L297.45,63l17,24.36-55.23,38.5a33,33,0,0,0,37.43,54.37l54.83-41.68,18,23.63-55.37,42.1-.27.18A62.27,62.27,0,0,1,281.51,215.57Z"/><polygon class="cls-2" points="341.41 172.21 346.9 179.31 369.43 162.18 364.64 155.9 341.41 172.21"/><polygon class="cls-2" points="286.63 97.27 291.2 103.55 314.43 87.36 309.86 80.96 286.63 97.27"/><g class="cls-7"><path d="M281.56,215.64A63.26,63.26,0,0,1,266,214.52a62.7,62.7,0,0,1-23.76-112.94L297.5,63.07l17,24.36-55.23,38.51a33,33,0,0,0,37.42,54.36l54.83-41.68,18,23.64-55.37,42.09-.27.19A62.26,62.26,0,0,1,281.56,215.64Z"/></g><path class="cls-4" d="M276.89,209.24a63.14,63.14,0,0,1-15.52-1.12A62.69,62.69,0,0,1,237.61,95.18l55.23-38.51,17,24.36-55.23,38.51A33,33,0,0,0,292,173.9l54.82-41.68,18,23.91L309.44,198l-.27.18A62.15,62.15,0,0,1,276.89,209.24Z"/><path class="cls-10" d="M250.76,157.52l1.78-1.36c4-4.41,3.3-8.64-.81-11.38a5.47,5.47,0,0,0-2.58-1c-4.48-.34-15.88,1.41-20.65,3.59s-7.05,7.67-3.86,11.54,7.29,3.08,13.89,2.35A37.73,37.73,0,0,0,250.76,157.52Z"/><path class="cls-10" d="M235.66,165.77s-6.64,4.78-3.93,10.15,5.93,4.94,11.76,4,14.81-9.68,14.81-9.68,3.63-5.45.7-9.27c-4-5.17-7.25-3-10.66-1.82S235.66,165.77,235.66,165.77Z"/><path class="cls-10" d="M249.92,178.73s-4.77,8.69,1.44,11.7c5.52,2.67,10.42-2.59,13.39-6.78s5.59-7.77,1.38-11c-4-3.06-6.15-3.38-8.74-1.54A40.62,40.62,0,0,0,249.92,178.73Z"/><path class="cls-10" d="M165,182.92s12.13-33.13,16.1-41.46,28-27.52,28-27.52l25.12-11.48s9.38,11-2,19.06a211.51,211.51,0,0,1-21.79,13.42L208,150.83s7.37,37.91-22.56,60.8Z"/><path class="cls-11" d="M211.11,134.9s0,.07-.05.18l-.18.52c-.18.45-.4,1.13-.68,2a44.24,44.24,0,0,0-1.59,7.6,82.8,82.8,0,0,0-.45,11.51c.08,4.35.38,9.12.36,14.15a56.11,56.11,0,0,1-1.6,14.07,32.39,32.39,0,0,1-4.86,10.48,22.84,22.84,0,0,1-5.52,5.49l-1,.67c-.3.18-.57.31-.78.43l-.49.26c-.12,0-.17.08-.18.07l.16-.11.47-.28c.21-.13.47-.27.77-.46l1-.69a23.84,23.84,0,0,0,5.4-5.53,32.43,32.43,0,0,0,4.73-10.41,56.38,56.38,0,0,0,1.57-14c0-5-.27-9.79-.33-14.14a78.2,78.2,0,0,1,.53-11.56,41.69,41.69,0,0,1,1.7-7.61c.3-.87.55-1.54.75-2l.22-.51Z"/><polygon class="cls-2" points="269.09 73.31 286.63 97.27 309.86 80.96 292.96 56.45 269.09 73.31"/><polygon class="cls-2" points="323.49 149.86 342.18 173.16 364.83 156.13 346.95 132.16 323.49 149.86"/><path class="cls-11" d="M246.36,143.8a5.3,5.3,0,0,1,.85-.07l.45,0,.55,0,.63,0,.71.14a7.54,7.54,0,0,1,3.23,1.5,7.65,7.65,0,0,1,2.52,3.72h0v0a7.6,7.6,0,0,1-.57,3.48,10.61,10.61,0,0,1-3.62,4.45,17.44,17.44,0,0,1-4.16,2.15c-1.25.47-2.28.76-3,1a5.19,5.19,0,0,1-1.12.26,7.74,7.74,0,0,1,1.08-.39c.7-.24,1.72-.57,3-1.06a18.33,18.33,0,0,0,4-2.19,10.42,10.42,0,0,0,3.48-4.31,7.24,7.24,0,0,0,.56-3.32v0a7.3,7.3,0,0,0-2.36-3.57,7.58,7.58,0,0,0-3.09-1.52l-.69-.16-.61-.07-.54-.06h-.45A4.5,4.5,0,0,1,246.36,143.8Z"/><path class="cls-11" d="M259.38,168.38s-.09.21-.33.55-.58.82-1,1.39a33.91,33.91,0,0,1-3.93,4.19,24.55,24.55,0,0,1-4.69,3.33,14.5,14.5,0,0,1-1.58.73c-.39.15-.6.22-.61.19s.81-.41,2.06-1.15a29.11,29.11,0,0,0,4.57-3.37,45.47,45.47,0,0,0,4-4.08C258.77,169.06,259.34,168.35,259.38,168.38Z"/><polygon class="cls-4" points="86.01 262.06 147.63 199.08 202.91 243.84 188.68 262.15 86.01 262.06"/><path class="cls-2" d="M117.3,113.62a21.76,21.76,0,0,1,5.25-2.28l1.08-5.2,8.79-.15,1.26,5.15a21.51,21.51,0,0,1,5.33,2.1l4.44-2.91,6.32,6.1L147,121a21,21,0,0,1,2.28,5.25l5.2,1.09.16,8.78-5.16,1.26a21,21,0,0,1-2.1,5.33l2.91,4.44-6.1,6.32-4.54-2.75a21.41,21.41,0,0,1-5.25,2.29l-1.08,5.19-8.79.16-1.26-5.16a21.13,21.13,0,0,1-5.33-2.1L113.52,154l-6.32-6.1,2.75-4.54a21.38,21.38,0,0,1-2.28-5.25l-5.2-1.08-.16-8.79,5.16-1.26a21.13,21.13,0,0,1,2.1-5.33l-2.91-4.44,6.1-6.32,4.54,2.75Zm4.68,11.7a9.43,9.43,0,1,0,13.33-.23A9.43,9.43,0,0,0,122,125.32Z"/><path class="cls-9" d="M100.67,165.21a15.92,15.92,0,0,1,3.82-1.66l.79-3.78,6.4-.12.92,3.76a15.81,15.81,0,0,1,3.87,1.52l3.24-2.11,4.6,4.44-2,3.3a15.85,15.85,0,0,1,1.67,3.83l3.78.78.11,6.4-3.75.92a15.67,15.67,0,0,1-1.53,3.88l2.12,3.23-4.44,4.6-3.31-2a15.58,15.58,0,0,1-3.82,1.66l-.79,3.78-6.39.11L105,194a15.52,15.52,0,0,1-3.88-1.53l-3.23,2.12-4.6-4.44,2-3.3A15.82,15.82,0,0,1,93.66,183l-3.79-.79-.11-6.39,3.76-.92A16,16,0,0,1,95,171l-2.12-3.23,4.45-4.6,3.3,2Zm3.41,8.52a6.86,6.86,0,1,0,9.7-.17A6.86,6.86,0,0,0,104.08,173.73Z"/><path class="cls-9" d="M165.79,112.42a10,10,0,0,1,2.58-1.12l.53-2.56,4.32-.07.62,2.53a10.81,10.81,0,0,1,2.62,1l2.18-1.43,3.1,3L180.39,116a10.35,10.35,0,0,1,1.12,2.58l2.56.53.07,4.32-2.53.62a11.24,11.24,0,0,1-1,2.62l1.43,2.18-3,3.1-2.23-1.35a10.68,10.68,0,0,1-2.58,1.12l-.53,2.56-4.32.07-.62-2.53a11.07,11.07,0,0,1-2.62-1l-2.18,1.43-3.1-3,1.35-2.23a10.3,10.3,0,0,1-1.12-2.58l-2.56-.53-.07-4.32L161,119a10.66,10.66,0,0,1,1-2.62l-1.43-2.18,3-3.1,2.23,1.35Zm2.3,5.75a4.63,4.63,0,1,0,6.55-.12A4.62,4.62,0,0,0,168.09,118.17Z"/><rect class="cls-9" x="217.42" y="227.25" width="24.92" height="34.81"/><path class="cls-1" d="M108.34,161.67a8.8,8.8,0,0,0-9.45-.25,10.37,10.37,0,0,0-16.61-5.19,10.53,10.53,0,0,0-17.79,6.61c-4.15.22-8.43,2.95-9.3,7.62H111.8A8.77,8.77,0,0,0,108.34,161.67Z"/><path class="cls-3" d="M108.34,161.67l.53.38a8.18,8.18,0,0,1,1.35,1.39,9.16,9.16,0,0,1,1.44,2.79,8.7,8.7,0,0,1,.23,4.25l0,.07h-.07l-56.61.09H55l.06-.22.06-.27a9,9,0,0,1,3.51-5.37,10.89,10.89,0,0,1,5.9-2.12l-.17.16a10.68,10.68,0,0,1,18.06-6.7h-.2a10.64,10.64,0,0,1,5.6-2.32,10.27,10.27,0,0,1,5.42.85A10.74,10.74,0,0,1,99,161.4l-.15-.06a8.7,8.7,0,0,1,4.08-1.23,9.06,9.06,0,0,1,3.11.39,9.29,9.29,0,0,1,1.76.79c.37.24.55.38.55.38a.51.51,0,0,1-.15-.08l-.42-.25a9.59,9.59,0,0,0-1.77-.74,9,9,0,0,0-3.08-.35,8.59,8.59,0,0,0-4,1.25l-.1.07,0-.12a10.52,10.52,0,0,0-5.7-6.58,10,10,0,0,0-5.29-.8,10.29,10.29,0,0,0-5.43,2.27l-.11.09-.1-.09a10.36,10.36,0,0,0-17.5,6.51V163H64.5a10.65,10.65,0,0,0-5.69,2.05,8.71,8.71,0,0,0-3.38,5.17l-.06.26-.18-.21,56.61.08-.1.08a8.56,8.56,0,0,0-.18-4.17,8.93,8.93,0,0,0-1.38-2.77,9.08,9.08,0,0,0-1.3-1.41l-.38-.31C108.37,161.71,108.33,161.67,108.34,161.67Z"/><path class="cls-1" d="M201.36,237.76a8.57,8.57,0,0,0-9.23-.24,10.15,10.15,0,0,0-16.25-5.08,10.29,10.29,0,0,0-17.39,6.46c-4.06.22-8.25,2.89-9.1,7.45h55.36A8.59,8.59,0,0,0,201.36,237.76Z"/><path class="cls-3" d="M201.36,237.76s.19.12.53.37a8.64,8.64,0,0,1,1.32,1.36,8.77,8.77,0,0,1,1.4,2.73,8.43,8.43,0,0,1,.23,4.15l0,.08h-.07l-55.36.08h-.23l.05-.21.06-.27a8.85,8.85,0,0,1,3.44-5.25,10.66,10.66,0,0,1,5.77-2.07l-.17.16A10.46,10.46,0,0,1,176,232.33h-.2a10.43,10.43,0,0,1,5.48-2.27,9.94,9.94,0,0,1,5.3.84,10.46,10.46,0,0,1,5.66,6.61l-.14-.06a8.53,8.53,0,0,1,4-1.21,8.88,8.88,0,0,1,3,.39,8.44,8.44,0,0,1,1.73.77c.36.24.53.37.53.37l-.14-.08-.42-.24a8.41,8.41,0,0,0-4.73-1.06,8.28,8.28,0,0,0-3.89,1.22l-.11.07,0-.12a10.31,10.31,0,0,0-5.58-6.43,9.77,9.77,0,0,0-5.17-.79,10.05,10.05,0,0,0-5.31,2.23l-.11.08-.1-.09a10.13,10.13,0,0,0-17.11,6.37v.15h-.15a10.43,10.43,0,0,0-5.58,2,8.53,8.53,0,0,0-3.29,5l-.06.26-.18-.22,55.36.09-.1.07a8.17,8.17,0,0,0-.18-4.07,8.88,8.88,0,0,0-1.34-2.71,9.7,9.7,0,0,0-1.27-1.38l-.38-.3Z"/><path class="cls-1" d="M324.74,235.79a8.57,8.57,0,0,0-9.23-.23,10.15,10.15,0,0,0-16.25-5.09,10.29,10.29,0,0,0-17.39,6.47c-4.06.21-8.25,2.89-9.1,7.45h55.36A8.59,8.59,0,0,0,324.74,235.79Z"/><path class="cls-3" d="M324.74,235.79s.19.12.53.38a7.83,7.83,0,0,1,1.32,1.36,8.82,8.82,0,0,1,1.4,2.72,8.35,8.35,0,0,1,.23,4.16l0,.07h-.07l-55.36.09h-.23l0-.22.07-.26a8.89,8.89,0,0,1,3.43-5.26,10.69,10.69,0,0,1,5.77-2.07l-.17.16a10.46,10.46,0,0,1,17.68-6.56h-.21a10.35,10.35,0,0,1,5.48-2.27,10.09,10.09,0,0,1,5.31.83,10.49,10.49,0,0,1,5.65,6.61l-.14-.05a8.31,8.31,0,0,1,4-1.21,9,9,0,0,1,3.05.38,8,8,0,0,1,1.72.78c.36.23.53.36.53.36s-.05,0-.14-.07l-.41-.25a8.73,8.73,0,0,0-4.74-1.06,8.3,8.3,0,0,0-3.89,1.23l-.11.06,0-.12a10.33,10.33,0,0,0-5.58-6.43,9.87,9.87,0,0,0-5.17-.79,10.13,10.13,0,0,0-5.31,2.23l-.11.09-.1-.1A10.13,10.13,0,0,0,282,237v.16h-.15a10.33,10.33,0,0,0-5.57,2,8.45,8.45,0,0,0-3.3,5l-.06.26-.18-.21,55.36.08-.1.08a8.21,8.21,0,0,0-.18-4.08,8.81,8.81,0,0,0-1.34-2.7,8.69,8.69,0,0,0-1.27-1.38l-.38-.31C324.78,235.83,324.74,235.8,324.74,235.79Z"/><path class="cls-1" d="M164.08,141.16a5.6,5.6,0,0,0-6-.16,6.62,6.62,0,0,0-10.6-3.32,6.72,6.72,0,0,0-11.36,4.22,6.24,6.24,0,0,0-5.94,4.87h36.14A5.59,5.59,0,0,0,164.08,141.16Z"/><path class="cls-3" d="M164.08,141.16a4.05,4.05,0,0,1,1.22,1.12,5.77,5.77,0,0,1,.93,1.78,5.55,5.55,0,0,1,.15,2.73v.07h-.08c-7.35,0-20.79.09-36.14.09h-.22l0-.22,0-.17a5.85,5.85,0,0,1,2.26-3.47,7,7,0,0,1,3.8-1.36l-.16.16a6.88,6.88,0,0,1,11.63-4.32h-.2a6.75,6.75,0,0,1,10.8,3.41l-.14-.06a5.57,5.57,0,0,1,2.61-.79,5.7,5.7,0,0,1,2,.27,4,4,0,0,1,1.47.76,6.25,6.25,0,0,0-1.5-.67,5.62,5.62,0,0,0-2-.21,5.51,5.51,0,0,0-2.53.8l-.1.07,0-.12a6.68,6.68,0,0,0-3.62-4.17,6.6,6.6,0,0,0-6.8.94l-.1.09-.1-.1a6.56,6.56,0,0,0-11.07,4.13l0,.15h-.15a6.64,6.64,0,0,0-3.6,1.3,5.51,5.51,0,0,0-2.13,3.25l0,.17-.18-.21c15.35,0,28.79,0,36.14.08l-.09.08a5.52,5.52,0,0,0-.11-2.65,5.77,5.77,0,0,0-.87-1.76A5.92,5.92,0,0,0,164.08,141.16Z"/><path class="cls-1" d="M456.58,138.06h0a13.28,13.28,0,0,1-6.48-17.62h0A13.27,13.27,0,0,1,467.72,114h0a13.27,13.27,0,0,1,6.48,17.61h0A13.27,13.27,0,0,1,456.58,138.06Z"/><path class="cls-3" d="M456.58,138.06l.21.06.59.22a5.79,5.79,0,0,0,1,.32,9.53,9.53,0,0,0,1.36.31,12.49,12.49,0,0,0,3.8.13,13.27,13.27,0,0,0,4.79-1.48,13.16,13.16,0,0,0,6.9-10.49,12.6,12.6,0,0,0-.23-3.76,14.25,14.25,0,0,0-.53-1.88,14.63,14.63,0,0,0-.84-1.8,13,13,0,0,0-14.05-6.5,14,14,0,0,0-1.92.53,15.81,15.81,0,0,0-1.77.82,12.53,12.53,0,0,0-3,2.25,13.22,13.22,0,0,0-3.42,6,13.26,13.26,0,0,0,1.87,10.66,12.77,12.77,0,0,0,2.56,2.81,9.7,9.7,0,0,0,1.12.83,6.15,6.15,0,0,0,.87.54l.55.3.18.12-.2-.08-.57-.28a6.26,6.26,0,0,1-.89-.51,8.49,8.49,0,0,1-1.15-.81,12.7,12.7,0,0,1-2.64-2.81,13.41,13.41,0,0,1-2-10.84,13.5,13.5,0,0,1,3.47-6.17,12.8,12.8,0,0,1,3.09-2.33,14.19,14.19,0,0,1,1.81-.84,16.4,16.4,0,0,1,2-.55,13.36,13.36,0,0,1,14.43,6.68,14.74,14.74,0,0,1,.86,1.85,15,15,0,0,1,.53,1.93,12.26,12.26,0,0,1,.23,3.85,13.52,13.52,0,0,1-2.45,6.64,13.29,13.29,0,0,1-4.66,4.05,13.15,13.15,0,0,1-4.89,1.46,12.3,12.3,0,0,1-3.85-.19,9.22,9.22,0,0,1-1.36-.35,5.6,5.6,0,0,1-1-.35l-.58-.25Z"/><path class="cls-4" d="M463.25,126.37a3.25,3.25,0,0,0,3-1.92,3.06,3.06,0,1,0-5.54-2.59,3.28,3.28,0,0,0,.49,3.58c-4.56-1.33-6.52,3.4-6.52,3.4l10.08,4.72S467.19,129,463.25,126.37Z"/><path class="cls-1" d="M332.47,129.82h0a16.08,16.08,0,0,1-22.68-1.8h0a16.1,16.1,0,0,1,1.8-22.69h0a16.11,16.11,0,0,1,22.69,1.81h0A16.08,16.08,0,0,1,332.47,129.82Z"/><path class="cls-3" d="M332.47,129.82l.18-.19.55-.54.4-.39c.14-.15.28-.33.44-.51a11.63,11.63,0,0,0,1-1.34,15.47,15.47,0,0,0,2.08-4.12,16.19,16.19,0,0,0,.8-6,15.9,15.9,0,0,0-8.07-13,15.39,15.39,0,0,0-2-1,16.29,16.29,0,0,0-2.22-.67,20,20,0,0,0-2.34-.38,19.39,19.39,0,0,0-2.41,0,15.72,15.72,0,0,0-4.82,1.12,15.78,15.78,0,0,0-7.64,6.51,15.5,15.5,0,0,0-1.86,4.58,17.88,17.88,0,0,0-.39,2.38,17.52,17.52,0,0,0,.31,4.67,16.16,16.16,0,0,0,5.55,9,15.77,15.77,0,0,0,6.61,3.18,16,16,0,0,0,6.09.17,15.72,15.72,0,0,0,4.4-1.4,12.27,12.27,0,0,0,1.48-.82l.58-.35.45-.34.62-.45.21-.15s-.06.07-.19.18l-.6.48-.44.35-.57.37a10.38,10.38,0,0,1-1.48.85,15.19,15.19,0,0,1-4.43,1.48,16.24,16.24,0,0,1-12.92-3.32,16.54,16.54,0,0,1-5.69-9.15,16.62,16.62,0,0,1-.33-2.35,17.77,17.77,0,0,1,0-2.42,18.49,18.49,0,0,1,.39-2.44,16.06,16.06,0,0,1,1.9-4.68,16.12,16.12,0,0,1,7.82-6.67,15.77,15.77,0,0,1,4.92-1.13,18.52,18.52,0,0,1,2.47,0,18.9,18.9,0,0,1,2.39.39,17,17,0,0,1,2.27.69,16.7,16.7,0,0,1,2.08,1,16.28,16.28,0,0,1,6.06,6.05,16.23,16.23,0,0,1,1.23,13.28,14.87,14.87,0,0,1-2.16,4.14,10.65,10.65,0,0,1-1.07,1.33c-.16.18-.31.36-.46.5l-.41.39-.57.51C332.55,129.77,332.48,129.83,332.47,129.82Z"/><path class="cls-4" d="M323,116.55a4,4,0,0,0-.58-4.31,3.72,3.72,0,1,0-5.67,4.78,4,4,0,0,0,4.2,1.28c-3.79,4.35.43,8.9.43,8.9l10.31-8.7S327.84,113.53,323,116.55Z"/><circle class="cls-1" cx="390.6" cy="175.35" r="9.88" transform="translate(-9.58 327.55) rotate(-45)"/><path class="cls-3" d="M400.48,175.35a16,16,0,0,0-.37-2.4,9.85,9.85,0,0,0-3.61-5.36,9.75,9.75,0,0,0-9.21-1.37,9.14,9.14,0,0,0-2.45,1.33,8.72,8.72,0,0,0-2,2.06,9.65,9.65,0,0,0,0,11.47,9,9,0,0,0,2,2.07,9.11,9.11,0,0,0,2.45,1.32,9.81,9.81,0,0,0,12.82-6.73,16,16,0,0,0,.37-2.39s0,.05,0,.16V176a4.5,4.5,0,0,1-.06.76,7,7,0,0,1-.19,1,9.23,9.23,0,0,1-1.07,2.66,9.7,9.7,0,0,1-2.51,2.86,9.88,9.88,0,0,1-4.21,1.9,10,10,0,0,1-5.27-.42,9.25,9.25,0,0,1-2.55-1.36,9.36,9.36,0,0,1-2.13-2.13,10,10,0,0,1,0-11.89,10,10,0,0,1,4.68-3.49,9.94,9.94,0,0,1,9.48,1.48,9.82,9.82,0,0,1,2.51,2.86,9.17,9.17,0,0,1,1.07,2.67,6.71,6.71,0,0,1,.19,1,4.58,4.58,0,0,1,.06.76v.48C400.49,175.29,400.49,175.35,400.48,175.35Z"/><path class="cls-4" d="M386.34,174.82a2.61,2.61,0,0,1,.59-1.48,2.51,2.51,0,0,1,1.27-.9,2,2,0,0,1,2.32.91,2,2,0,0,1,.57-.69,2.09,2.09,0,0,1,1.58-.42,2.58,2.58,0,0,1,1.38.73,2.71,2.71,0,0,1,.77,1.39,3.31,3.31,0,0,1-.28,2,4.57,4.57,0,0,1-1.47,1.56c-1,.69-2.29,1.54-2.29,1.54s-1.19-.78-2.26-1.33a4.6,4.6,0,0,1-1.66-1.37A3.28,3.28,0,0,1,386.34,174.82Z"/><circle class="cls-1" cx="18.67" cy="143.77" r="18.49" transform="translate(-60.44 22.28) rotate(-25.67)"/><path class="cls-3" d="M37.15,143.77l0-.3-.06-.88,0-.64c0-.24-.08-.49-.12-.77a14.42,14.42,0,0,0-.39-1.91,17.7,17.7,0,0,0-2.06-4.89,18.35,18.35,0,0,0-22-7.82,17.42,17.42,0,0,0-4.64,2.5,20.19,20.19,0,0,0-2.07,1.77A19.36,19.36,0,0,0,3.92,133a17.49,17.49,0,0,0-2.61,5,19.6,19.6,0,0,0-.95,5.78,20,20,0,0,0,.94,5.78,17.76,17.76,0,0,0,2.62,5,19.36,19.36,0,0,0,1.8,2.12A20,20,0,0,0,10,159.93a19.47,19.47,0,0,0,2.39,1,18.42,18.42,0,0,0,9.62.8,18.41,18.41,0,0,0,12.4-8.62,17.7,17.7,0,0,0,2.06-4.89,14.42,14.42,0,0,0,.39-1.91c0-.28.09-.53.12-.77l0-.64.06-.88,0-.3a1.36,1.36,0,0,1,0,.3l0,.88,0,.65c0,.24-.07.5-.11.78a12.67,12.67,0,0,1-.36,1.92,17.43,17.43,0,0,1-2,5,18.6,18.6,0,0,1-12.52,8.82,18.78,18.78,0,0,1-9.8-.79,20,20,0,0,1-2.43-1.07,18.45,18.45,0,0,1-2.29-1.46A20,20,0,0,1,5.47,157a20.06,20.06,0,0,1-1.83-2.16A18,18,0,0,1,1,149.66a18.55,18.55,0,0,1,0-11.78,17.85,17.85,0,0,1,2.68-5.14,20.06,20.06,0,0,1,1.83-2.16,20,20,0,0,1,2.12-1.8,18.45,18.45,0,0,1,2.29-1.46,20,20,0,0,1,2.43-1.07,18.78,18.78,0,0,1,9.8-.79,18.6,18.6,0,0,1,12.52,8.82,17.43,17.43,0,0,1,2,5,12.67,12.67,0,0,1,.36,1.92c0,.28.09.54.11.78l0,.65,0,.88A1.36,1.36,0,0,1,37.15,143.77Z"/><path class="cls-4" d="M10.69,142.78a5.06,5.06,0,0,1,1.1-2.77,4.84,4.84,0,0,1,2.38-1.68A3.84,3.84,0,0,1,18.52,140a3.82,3.82,0,0,1,1.06-1.3,3.9,3.9,0,0,1,3-.78,4.7,4.7,0,0,1,2.57,1.37,5,5,0,0,1,1.44,2.6,6,6,0,0,1-.51,3.75,8.6,8.6,0,0,1-2.76,2.93c-1.85,1.28-4.28,2.88-4.28,2.88S16.77,150,14.78,149a8.63,8.63,0,0,1-3.11-2.57A6.1,6.1,0,0,1,10.69,142.78Z"/><path class="cls-1" d="M237.61,62.19h0a10.24,10.24,0,0,1-3.62-14h0a10.24,10.24,0,0,1,14-3.62h0a10.24,10.24,0,0,1,3.62,14h0A10.24,10.24,0,0,1,237.61,62.19Z"/><path class="cls-3" d="M237.61,62.19a16.63,16.63,0,0,0,2.33.92,10.11,10.11,0,0,0,6.68-.39A10,10,0,0,0,250.4,60a10.18,10.18,0,0,0,2.3-4.79,9.3,9.3,0,0,0,.11-2.89,9.55,9.55,0,0,0-.76-2.92,10,10,0,0,0-10.24-6,9.94,9.94,0,0,0-5.4,2.24,10.06,10.06,0,0,0-3.08,4.33,9.89,9.89,0,0,0-.55,4.61,10.21,10.21,0,0,0,2.88,6,17.43,17.43,0,0,0,2,1.6.51.51,0,0,1-.15-.08l-.42-.25a4.71,4.71,0,0,1-.65-.46,6.16,6.16,0,0,1-.82-.71,9.51,9.51,0,0,1-1.82-2.36,10.16,10.16,0,0,1-1.23-3.75,10.36,10.36,0,0,1,3.67-9.23,9.92,9.92,0,0,1,2.56-1.56,9.59,9.59,0,0,1,3-.77,10.33,10.33,0,0,1,10.6,6.25,9.68,9.68,0,0,1,.78,3,9.87,9.87,0,0,1-.12,3A10.33,10.33,0,0,1,246.72,63a10.21,10.21,0,0,1-3.88.74,9.67,9.67,0,0,1-2.94-.45,6.89,6.89,0,0,1-1-.38,4.27,4.27,0,0,1-.71-.35l-.43-.24Z"/><path class="cls-4" d="M243.63,53.73a2.5,2.5,0,0,0,2.47-1.24,2.36,2.36,0,1,0-4-2.42,2.52,2.52,0,0,0,.1,2.79c-3.4-1.38-5.27,2.11-5.27,2.11l7.38,4.39S246.45,56,243.63,53.73Z"/><circle class="cls-1" cx="406.42" cy="33.58" r="24.74" transform="translate(28.56 186.96) rotate(-26.82)"/><path class="cls-3" d="M416.59,25.71a6.65,6.65,0,0,0-2.17-4.66,8.45,8.45,0,0,0-5.34-2,18.19,18.19,0,0,0-5.7.92,8.68,8.68,0,0,0-2.94,1.36,12.31,12.31,0,0,0-3.9,5.32,22,22,0,0,0-.46,7.14,3.61,3.61,0,0,0,1.18,1.7,13.4,13.4,0,0,0,1.94,4.39c.6-1,1.21-1.92,1.82-2.88Z"/><path class="cls-3" d="M416.15,23.58l-2.94-1.28c.74,4.39-1,13.63-1,18.08,1.52-1.37,5.32-5.75,5.65-7.77S419.87,24.1,416.15,23.58Z"/><path class="cls-10" d="M400,26.8a5.38,5.38,0,0,1,5.08-3.9l7.49-.14c3.13.39,4.28,4.63,3.76,7.74A49.59,49.59,0,0,1,414.08,40c-2,4.92-6.07,4.65-6.07,4.65s-.57,2.43-.93,3.93l-2.9,6.33-8.33-6.44L400,26.85C400,26.77,400,26.91,400,26.8Z"/><path class="cls-3" d="M413.72,34.31a.67.67,0,0,1-.79.51.64.64,0,0,1-.54-.75.68.68,0,0,1,.79-.51A.66.66,0,0,1,413.72,34.31Z"/><path class="cls-3" d="M415.13,32.32c-.1.07-.51-.42-1.22-.58s-1.3.07-1.36,0,.09-.19.36-.3a1.88,1.88,0,0,1,1.11-.08,1.8,1.8,0,0,1,.94.57C415.14,32.12,415.18,32.29,415.13,32.32Z"/><path class="cls-3" d="M407.41,32.63a.67.67,0,0,1-.78.52.64.64,0,0,1-.54-.75.68.68,0,0,1,.79-.52A.64.64,0,0,1,407.41,32.63Z"/><path class="cls-3" d="M408.44,30.74c-.11.07-.52-.42-1.22-.58s-1.31.07-1.36,0,.09-.18.35-.3a1.82,1.82,0,0,1,1.11-.07,1.77,1.77,0,0,1,.95.56C408.45,30.54,408.48,30.71,408.44,30.74Z"/><path class="cls-3" d="M409.34,36.8a4.5,4.5,0,0,1,1.19.06c.18,0,.36,0,.42-.09a1,1,0,0,0,0-.56c-.07-.48-.14-1-.22-1.5a25.61,25.61,0,0,1-.36-3.86,23.07,23.07,0,0,1,.67,3.82c.07.53.13,1,.19,1.5a1.11,1.11,0,0,1-.07.73.49.49,0,0,1-.36.2,2.51,2.51,0,0,1-.31,0A4.64,4.64,0,0,1,409.34,36.8Z"/><path class="cls-11" d="M401.66,41.27s.84,3.9,6.07,4.62l.28-1.21A13.22,13.22,0,0,1,401.66,41.27Z"/><path class="cls-3" d="M408.82,28.14c-.12.18-.8-.08-1.65-.17s-1.58,0-1.65-.22.13-.25.45-.37a2.86,2.86,0,0,1,2.5.3C408.75,27.87,408.87,28.06,408.82,28.14Z"/><path class="cls-3" d="M415.41,30.11c-.16.13-.61-.15-1.19-.29s-1.11-.15-1.18-.34.08-.24.34-.34a1.67,1.67,0,0,1,1,0,1.61,1.61,0,0,1,.87.54C415.45,29.86,415.48,30,415.41,30.11Z"/><path class="cls-3" d="M416.08,25.51a2.28,2.28,0,0,0-1.68-1.74,4.42,4.42,0,0,0-2.52.13c-3.46,1-6,4.92-9.46,6-.84.27-1.71-.36-2.48.08a2.23,2.23,0,0,0-1.23,2.17,7.23,7.23,0,0,1-.63-2,2.47,2.47,0,0,1,.55-2c.37-.39.91-.63,1.15-1.1a7,7,0,0,0,.28-1.38,3,3,0,0,1,.78-1.19,13.55,13.55,0,0,1,6.09-4,9,9,0,0,1,4.76-.1,6.78,6.78,0,0,1,3.86,2.7c.53.78,1.08,1.6.53,2.37"/><path class="cls-10" d="M399.87,30.66a1.83,1.83,0,0,0-3.16,1.08A2.12,2.12,0,0,0,399,34.51C399,34.44,399.87,30.66,399.87,30.66Z"/><path class="cls-11" d="M398.36,33.27s-.05,0-.14,0a.53.53,0,0,1-.36-.09,1.18,1.18,0,0,1-.29-1.19,1.5,1.5,0,0,1,.3-.65.58.58,0,0,1,.45-.28.24.24,0,0,1,.25.2c0,.08,0,.13,0,.14s.07,0,.08-.15a.37.37,0,0,0-.07-.2.34.34,0,0,0-.24-.13.69.69,0,0,0-.61.3,1.66,1.66,0,0,0-.35.73,1.28,1.28,0,0,0,.4,1.35.55.55,0,0,0,.46,0C398.34,33.33,398.37,33.27,398.36,33.27Z"/><path class="cls-1" d="M399.11,29l.18,0,.54-.19a9.93,9.93,0,0,0,1.8-1A27.41,27.41,0,0,0,404,25.82a22.18,22.18,0,0,1,2.94-2.29,9.15,9.15,0,0,1,1.74-.82,7.41,7.41,0,0,1,1.75-.34,8,8,0,0,1,3,.33,7.52,7.52,0,0,1,1.86.84c.21.12.36.24.47.31s.16.11.16.1l-.15-.12a5.4,5.4,0,0,0-.45-.33,7.35,7.35,0,0,0-1.86-.89,7.94,7.94,0,0,0-3-.36,7.65,7.65,0,0,0-1.78.34,10.06,10.06,0,0,0-1.77.82,22.11,22.11,0,0,0-2.95,2.32c-.86.76-1.64,1.44-2.34,1.94a10.39,10.39,0,0,1-1.77,1l-.52.21Z"/><path class="cls-3" d="M399.62,29.93a4.37,4.37,0,0,0-.26,2.28,1.5,1.5,0,0,0,1.7,1.19c.61-.18.93-.83,1.16-1.41.68-1.69,1.21-3.44,1.9-5.12Z"/><path class="cls-8" d="M415.71,24s-.23-.1-.67-.22a4.78,4.78,0,0,0-1.9-.1,6.14,6.14,0,0,0-1.28.32,12.57,12.57,0,0,0-1.38.62,14.34,14.34,0,0,0-2.89,1.94c-.47.41-.9.84-1.34,1.23a7.4,7.4,0,0,1-1.4,1,12.43,12.43,0,0,1-2.69,1c-.79.2-1.44.33-1.89.41l-.52.09c-.12,0-.18,0-.18,0s.06,0,.18-.05l.51-.12c.44-.1,1.09-.24,1.87-.46a12.67,12.67,0,0,0,2.65-1,6.8,6.8,0,0,0,1.36-1c.44-.38.87-.81,1.34-1.23a14.08,14.08,0,0,1,2.93-1.95,12,12,0,0,1,1.41-.61,5.75,5.75,0,0,1,1.31-.31,4.61,4.61,0,0,1,1.93.15,3,3,0,0,1,.49.19C415.66,24,415.71,24,415.71,24Z"/><path class="cls-1" d="M399.94,28.21a1.23,1.23,0,0,1-.28.11l-.8.24-.26.08a.72.72,0,0,1-.33,0,.33.33,0,0,1-.17-.08.27.27,0,0,1-.06-.21.67.67,0,0,1,.21-.32l1.11-1.1.09.12a2.72,2.72,0,0,1-1,.24,2.83,2.83,0,0,1-1-.12.72.72,0,0,1-.24-.1.34.34,0,0,1-.17-.24.29.29,0,0,1,.11-.26,1.86,1.86,0,0,1,.2-.14,5.68,5.68,0,0,0,1.21-1,9.77,9.77,0,0,0,.9-1.13,1.24,1.24,0,0,1-.18.35,5,5,0,0,1-.63.86,6,6,0,0,1-1.23,1c-.12.07-.25.16-.23.25s.16.18.3.21a2.78,2.78,0,0,0,1,.11,2.94,2.94,0,0,0,.94-.22l.38-.16-.3.29-1.13,1.09a.63.63,0,0,0-.18.24.14.14,0,0,0,.14.15,1.42,1.42,0,0,0,.54-.08l.8-.2A1.11,1.11,0,0,1,399.94,28.21Z"/><path class="cls-11" d="M406.35,37.47a.94.94,0,0,1,1.11-.48,1,1,0,0,1,.62.7,1.22,1.22,0,0,1-.18.93l0,.06a1.08,1.08,0,0,1-1.24,0A1,1,0,0,1,406.35,37.47Z"/><path class="cls-3" d="M408.38,38.82c0-.11-.69-.24-1.09-1s-.18-1.47-.28-1.49-.17.14-.24.47a1.83,1.83,0,0,0,.19,1.23,1.57,1.57,0,0,0,.93.75C408.18,38.92,408.38,38.87,408.38,38.82Z"/><path class="cls-8" d="M415.16,52.51a14.74,14.74,0,0,0-3.08-2.76l-4.73-2.37a5.54,5.54,0,0,1-6.2,1.77,7.19,7.19,0,0,1-4.6-4.85S389.84,43.43,385,46a24.84,24.84,0,0,0,32.39,9.8A29.57,29.57,0,0,0,415.16,52.51Z"/><path class="cls-3" d="M382.62,39.84l.14.38c.08.27.2.64.36,1.13l.26.83c.12.3.27.61.41,1a17.82,17.82,0,0,0,1.14,2.36,23.25,23.25,0,0,0,4.29,5.72,24.81,24.81,0,0,0,19,7.18,24.26,24.26,0,0,0,3.12-.41c.52-.12,1.05-.2,1.57-.34l1.57-.48c.26-.09.53-.16.79-.26l.76-.32c.51-.23,1-.43,1.55-.67a28,28,0,0,0,3-1.75A26.83,26.83,0,0,0,423.36,52c.44-.4.84-.85,1.27-1.27a14.13,14.13,0,0,0,1.19-1.36,29.45,29.45,0,0,0,2.13-3A27.68,27.68,0,0,0,429.6,43a24,24,0,0,0,1.75-7.46,26.18,26.18,0,0,0-.68-7.86,26.37,26.37,0,0,0-3.14-7.25c-.37-.54-.74-1.07-1.1-1.61s-.83-1-1.24-1.48a6.19,6.19,0,0,0-.65-.7l-.69-.68-.68-.66-.73-.6a27.83,27.83,0,0,0-3.05-2.18,28,28,0,0,0-3.3-1.62,13.44,13.44,0,0,0-1.7-.64c-.58-.17-1.14-.36-1.72-.51a27.23,27.23,0,0,0-6.9-.71c-.57,0-1.12.1-1.68.14l-.83.08c-.27,0-.54.11-.81.15l-1.61.32c-.53.13-1,.31-1.55.46a22.56,22.56,0,0,0-2.94,1.12A24.78,24.78,0,0,0,383,26.69,23.77,23.77,0,0,0,382,33.76a18.86,18.86,0,0,0,.13,2.62c0,.37.06.73.1,1s.12.6.16.86c.1.5.17.89.22,1.16l.06.4s0-.13-.1-.39-.14-.66-.25-1.16c0-.26-.11-.54-.18-.85s-.07-.67-.12-1a18.55,18.55,0,0,1-.16-2.63,23.83,23.83,0,0,1,1-7.12A25,25,0,0,1,396.23,11a23.41,23.41,0,0,1,3-1.14c.52-.15,1-.33,1.57-.46l1.62-.33c.28,0,.55-.12.83-.15l.84-.09c.56,0,1.12-.12,1.7-.15a27,27,0,0,1,3.47.13,25.32,25.32,0,0,1,3.52.58c.59.15,1.16.35,1.75.52a12.31,12.31,0,0,1,1.72.64,26.58,26.58,0,0,1,3.35,1.64,27.26,27.26,0,0,1,3.09,2.21l.75.6.69.68.69.68a6.46,6.46,0,0,1,.67.71l1.26,1.51,1.11,1.63A26.68,26.68,0,0,1,431,27.6a26.65,26.65,0,0,1,.69,8,24.5,24.5,0,0,1-1.79,7.57,27.6,27.6,0,0,1-1.67,3.41,29.15,29.15,0,0,1-2.16,3A13.3,13.3,0,0,1,424.88,51c-.44.43-.85.88-1.29,1.29a27.71,27.71,0,0,1-2.82,2.19,26.71,26.71,0,0,1-3,1.76c-.51.25-1,.45-1.57.67l-.77.33c-.26.11-.54.17-.8.26L413,58c-.53.14-1.07.23-1.6.34a22.84,22.84,0,0,1-3.15.41,24.94,24.94,0,0,1-19.22-7.34,23.51,23.51,0,0,1-4.27-5.79,18.68,18.68,0,0,1-1.11-2.38c-.14-.36-.28-.68-.39-1l-.25-.84-.33-1.14C382.65,40,382.62,39.84,382.62,39.84Z"/><circle class="cls-1" cx="404.22" cy="115.39" r="36.02" transform="translate(36.8 319.62) rotate(-45)"/><path class="cls-3" d="M421.24,113c-.2-3.41.1-6.84-.27-10.24s-1.52-6.88-4.07-9.15-6.74-2.92-9.38-.75l-.37,2.94q3,19.59,6.08,39.19a13.23,13.23,0,0,0,1.44,5,4.59,4.59,0,0,0,4.28,2.43c2.25-.3,3.57-2.7,4.12-4.9C425.07,129.47,421.72,121.2,421.24,113Z"/><path class="cls-4" d="M411.8,95.89a9.88,9.88,0,0,0-1.9-2.22,3.26,3.26,0,0,0-2.75-.71,1.36,1.36,0,0,0-1,.85c-.12.45.24,1,.7.94l.1.07q1.62,1.25,3.3,2.43a2.47,2.47,0,0,0,.91.47.91.91,0,0,0,.94-.27C412.44,97,412.12,96.36,411.8,95.89Z"/><path class="cls-3" d="M414,99.1a17.24,17.24,0,0,0-13.79-5.68c-3,.16-4.23.88-6.37,1.62a9.55,9.55,0,0,0-5.19,4,16,16,0,0,0-2.61,7.53,44.68,44.68,0,0,0,.18,8.26,15.24,15.24,0,0,0,3.12,7.56l7.07.72a43.74,43.74,0,0,0,11.48-1.44c3.7-1.15,7.21-3.43,9-6.86C419.31,110,417.65,103,414,99.1Z"/><path class="cls-12" d="M397.22,135.5C397.09,133,397,130,397,130s-5.74-.23-7.83-7.42c-1-3.57-1.61-9.58-1.92-14.5-.28-4.44,3.07-10.74,8.54-11.15l2.42-.46,9.57,3a2.6,2.6,0,0,1,2.64,2.32L413,133.9l-5.26,10.39-11.26-7.52Z"/><path class="cls-13" d="M400,120.08a1.56,1.56,0,0,0-.61-.92,1.58,1.58,0,0,0-1.93,0,2.12,2.12,0,0,0-.67,2h0a2,2,0,0,0,1.44.71h.26a1.81,1.81,0,0,0,1.14-.55A1.54,1.54,0,0,0,400,120.08Z"/><path class="cls-3" d="M390.55,113.54a1,1,0,0,0,1,.83.9.9,0,0,0,.86-1,.93.93,0,0,0-1-.83A.9.9,0,0,0,390.55,113.54Z"/><path class="cls-3" d="M389.05,110.4c.14.11.78-.51,1.8-.63s1.81.28,1.91.15-.1-.27-.45-.47a2.67,2.67,0,0,0-1.56-.27,2.42,2.42,0,0,0-1.4.66C389.07,110.12,389,110.35,389.05,110.4Z"/><path class="cls-3" d="M396.15,117.91a6.52,6.52,0,0,0-1.68-.09c-.26,0-.52,0-.58-.19a1.3,1.3,0,0,1,.07-.78c.17-.66.34-1.35.52-2.07a34.08,34.08,0,0,0,1.07-5.36,33.93,33.93,0,0,0-1.5,5.26l-.48,2.07a1.54,1.54,0,0,0,0,1,.66.66,0,0,0,.48.32,2.21,2.21,0,0,0,.44,0A6.8,6.8,0,0,0,396.15,117.91Z"/><path class="cls-13" d="M397,130a18.84,18.84,0,0,0,9.49-3.86s-2,5.41-9.4,5.65Z"/><path class="cls-3" d="M399.22,118.23c-.17,0,0,1.11-.87,2s-2,.93-2,1.08.29.18.78.13a2.71,2.71,0,0,0,1.69-.84,2.36,2.36,0,0,0,.66-1.67C399.45,118.47,399.29,118.22,399.22,118.23Z"/><path class="cls-3" d="M389.15,106.82c.2.22,1,0,1.87-.08s1.7.1,1.87-.14-.06-.35-.4-.56a2.73,2.73,0,0,0-1.54-.33,2.64,2.64,0,0,0-1.47.51C389.16,106.46,389.06,106.71,389.15,106.82Z"/><path class="cls-3" d="M402.1,112.47a1,1,0,0,1-.83,1,.92.92,0,0,1-1-.77.94.94,0,0,1,.83-1A.9.9,0,0,1,402.1,112.47Z"/><path class="cls-3" d="M402.78,109c-.11.14-.87-.33-1.88-.24s-1.72.67-1.84.55,0-.28.34-.54a2.63,2.63,0,0,1,1.46-.6,2.51,2.51,0,0,1,1.51.35C402.71,108.76,402.83,109,402.78,109Z"/><path class="cls-3" d="M401.94,105.82c-.18.25-1,.08-1.93.15s-1.73.31-1.93.08,0-.35.34-.6a3.13,3.13,0,0,1,3.11-.19C401.89,105.47,402,105.7,401.94,105.82Z"/><path class="cls-12" d="M410,114.29c-.07-.55.4-1.92.93-2.07,1.41-.4,4-.62,4.51,3,.66,5-4.49,4.63-4.52,4.49S410.22,116.18,410,114.29Z"/><path class="cls-13" d="M412.05,117.74s.09.05.25.1a.86.86,0,0,0,.65-.07,2.19,2.19,0,0,0,.74-2.07,2.85,2.85,0,0,0-.41-1.21,1,1,0,0,0-.74-.58.44.44,0,0,0-.48.3c-.05.15,0,.25,0,.26s-.12-.07-.11-.28a.56.56,0,0,1,.16-.34.59.59,0,0,1,.46-.19,1.21,1.21,0,0,1,1,.65,3,3,0,0,1,.49,1.35,2.28,2.28,0,0,1-1,2.33.94.94,0,0,1-.82,0C412.07,117.86,412,117.75,412.05,117.74Z"/><path class="cls-3" d="M411.13,112.22l-1.19,1.41c-5.88-4.88-17.57-17.31-16.91-16.57a16,16,0,0,1,7.8-1.41c4.15.41,12.06,1.91,12.28,6.75A25.34,25.34,0,0,1,411.13,112.22Z"/><path class="cls-8" d="M418.34,110.6a.91.91,0,0,0-.1-.29,5.54,5.54,0,0,0-.39-.76,7.36,7.36,0,0,0-2.27-2.22,13.75,13.75,0,0,0-4.37-1.73c-1.71-.43-3.64-.72-5.55-1.38a25.14,25.14,0,0,1-5.16-2.43A26.08,26.08,0,0,1,396.79,99a28.56,28.56,0,0,1-2.2-2.26l-.55-.66-.2-.22s.05.09.16.25.28.4.52.69a22.48,22.48,0,0,0,2.14,2.33,25,25,0,0,0,3.72,2.88,23.86,23.86,0,0,0,5.2,2.47,55.63,55.63,0,0,0,5.58,1.37,13.92,13.92,0,0,1,4.32,1.66,7.41,7.41,0,0,1,2.28,2.11A11.41,11.41,0,0,1,418.34,110.6Z"/><path class="cls-8" d="M416.94,111.49a2.63,2.63,0,0,0-.28-1.08,5.08,5.08,0,0,0-2.05-2.23,11.34,11.34,0,0,0-4.3-1.35,24.79,24.79,0,0,1-5.33-1.28,22.3,22.3,0,0,1-4.84-2.54,22.59,22.59,0,0,1-3.4-2.9,25.32,25.32,0,0,1-1.95-2.31l-.47-.67a1.11,1.11,0,0,0-.18-.23,1.15,1.15,0,0,0,.14.25l.43.71a21.26,21.26,0,0,0,1.9,2.38,21.71,21.71,0,0,0,8.28,5.55,24.44,24.44,0,0,0,5.38,1.28,11.59,11.59,0,0,1,4.25,1.26,5.23,5.23,0,0,1,2.05,2.12A6.82,6.82,0,0,1,416.94,111.49Z"/><path class="cls-8" d="M411.56,120.73s.42-.12,1.15-.36a7.33,7.33,0,0,0,2.7-1.77,10.2,10.2,0,0,0,2.32-4.18,17.52,17.52,0,0,0,.68-5.87,14.86,14.86,0,0,0-.45-3,15.31,15.31,0,0,0-1-2.66A14.24,14.24,0,0,0,414,99a23.44,23.44,0,0,0-3.57-2.7,1.23,1.23,0,0,1,.29.12c.18.1.46.23.79.43a15.77,15.77,0,0,1,2.66,2,14.37,14.37,0,0,1,3,3.89,14.67,14.67,0,0,1,1.07,2.72,15.44,15.44,0,0,1,.48,3.1,17.87,17.87,0,0,1-.72,6,10.12,10.12,0,0,1-2.46,4.25,7,7,0,0,1-2.82,1.73,6.58,6.58,0,0,1-.88.2A1,1,0,0,1,411.56,120.73Z"/><path class="cls-4" d="M427.24,135.27c-2.41-1.38-6.35-1.42-6.35-1.42l-7.69-.53s-3.78,6.11-9.52,6.09-6.63-3.81-6.63-3.81-9.58,2.26-14.69,8.51a36.16,36.16,0,0,0,49-5A13.27,13.27,0,0,0,427.24,135.27Z"/><path class="cls-3" d="M440.14,112.85s0-.2-.09-.58l-.22-1.7c-.05-.38-.1-.79-.16-1.25s-.22-.95-.33-1.49-.26-1.11-.4-1.73a5.88,5.88,0,0,0-.28-.94c-.1-.32-.22-.65-.33-1a34.17,34.17,0,0,0-4.65-9.25,35.81,35.81,0,0,0-9.82-9.52l-1.63-1.05c-.57-.31-1.16-.6-1.75-.91a19.08,19.08,0,0,0-1.82-.88l-1.92-.77-1-.38-1-.29-2.07-.59c-.7-.18-1.43-.27-2.15-.42a17.67,17.67,0,0,0-2.2-.33,32.72,32.72,0,0,0-4.56-.21c-.77,0-1.55,0-2.34.08l-2.35.29c-.4,0-.8.08-1.19.16l-1.18.27c-.79.18-1.59.33-2.38.56a37.59,37.59,0,0,0-4.67,1.73l-1.16.52c-.19.09-.38.17-.57.27l-.56.31L385.14,85c-.73.46-1.42,1-2.13,1.49-.35.26-.73.48-1.06.77l-1,.87a39.49,39.49,0,0,0-3.82,3.73L375.47,94l-.42.53-.38.58-.74,1.15-.74,1.16-.64,1.23-.63,1.23-.32.62c-.1.21-.18.43-.26.65-.35.86-.69,1.73-1,2.6l-.78,2.72a35.49,35.49,0,0,0,1.59,22.56l1.16,2.58,1.39,2.44.35.6.4.57.81,1.13.8,1.13.9,1,.89,1,.45.51.5.47,2,1.88a40.92,40.92,0,0,0,4.3,3.16l1.1.71c.37.24.78.41,1.16.62.78.39,1.54.82,2.32,1.17l2.39.95.59.24c.2.07.41.12.61.18l1.22.35a36.54,36.54,0,0,0,4.87,1.06c.81.11,1.63.15,2.43.22l1.21.1c.4,0,.8,0,1.2,0l2.37-.05c.79,0,1.56-.17,2.33-.26a33,33,0,0,0,4.49-.84,19.36,19.36,0,0,0,2.13-.64c.69-.25,1.4-.44,2.06-.72l2-.87,1-.44.92-.51,1.79-1c.6-.33,1.12-.77,1.67-1.14s1.09-.75,1.61-1.15l1.47-1.26a35.86,35.86,0,0,0,8.38-10.81,34.22,34.22,0,0,0,3.3-9.82l.19-1a6.67,6.67,0,0,0,.14-1q.08-.94.15-1.77c0-.55.1-1,.12-1.52s0-.88,0-1.26c0-.74,0-1.31,0-1.71s0-.58,0-.58,0,.19,0,.58,0,1,.05,1.71l0,1.27c0,.46-.07,1-.1,1.52s-.09,1.14-.14,1.77a5.61,5.61,0,0,1-.13,1c-.06.33-.12.67-.18,1a34.19,34.19,0,0,1-3.26,9.88,35.86,35.86,0,0,1-8.39,10.91l-1.47,1.28c-.53.4-1.08.77-1.62,1.16s-1.08.82-1.69,1.15l-1.8,1-.92.52-1,.44-2,.89c-.67.28-1.38.48-2.08.73a19.09,19.09,0,0,1-2.15.65,33.12,33.12,0,0,1-4.52.86c-.78.09-1.56.22-2.35.26l-2.39.05c-.4,0-.81,0-1.21,0l-1.22-.09c-.81-.08-1.64-.11-2.46-.22a38.82,38.82,0,0,1-4.91-1.07l-1.23-.35-.62-.18-.6-.24-2.41-1c-.79-.36-1.56-.78-2.34-1.18-.39-.21-.8-.38-1.17-.62l-1.12-.72a39.94,39.94,0,0,1-4.34-3.19l-2-1.89-.5-.47-.46-.52-.9-1.05-.91-1.05-.81-1.14-.81-1.14-.41-.58-.35-.61q-.71-1.22-1.41-2.46l-1.17-2.6a35.84,35.84,0,0,1-1.61-22.79c.26-.92.53-1.83.79-2.74L371,101c.09-.21.17-.43.26-.65l.32-.62.65-1.25.64-1.24.75-1.17.75-1.16.38-.58.42-.54,1.7-2.15a40.23,40.23,0,0,1,3.85-3.77l1-.87c.33-.29.71-.52,1.06-.78.73-.5,1.43-1,2.16-1.5l2.25-1.28.56-.32c.19-.1.39-.18.59-.27l1.16-.52a37.4,37.4,0,0,1,4.72-1.75c.8-.22,1.61-.37,2.4-.56l1.19-.27c.4-.08.8-.1,1.2-.16l2.38-.29c.79-.06,1.58,0,2.36-.07a35,35,0,0,1,4.6.22,18.13,18.13,0,0,1,2.21.34c.73.15,1.46.25,2.17.43l2.08.6,1,.3c.34.12.66.26,1,.38l1.93.78c.65.24,1.22.6,1.83.89s1.19.61,1.76.93L424,85.19a35.9,35.9,0,0,1,9.85,9.61,34,34,0,0,1,4.61,9.33q.18.51.33,1a7.17,7.17,0,0,1,.27.95c.13.62.26,1.2.38,1.74s.24,1,.32,1.49.1.88.14,1.26c.08.74.15,1.31.19,1.7S440.14,112.85,440.14,112.85Z"/><circle class="cls-1" cx="343.17" cy="50.57" r="23.18" transform="translate(280.6 391.76) rotate(-87.99)"/><path class="cls-10" d="M338.31,62.46c0-1.45,0-2.65,0-2.8,0,0-4.89-.46-5.24-5.3-.17-2.33-.13-7.17,0-11.55A9,9,0,0,1,341.52,34l.47,0c5.05,0,7.88,4.28,7.75,9.33l-.18,19-8.17,6.56-.59,0Z"/><path class="cls-11" d="M338.31,59.66a11.63,11.63,0,0,0,6.18-2.24s-1.32,3.63-6.17,3.48Z"/><path class="cls-3" d="M341.27,44.89c.09.1.65-.34,1.46-.35s1.41.39,1.5.29-.06-.23-.32-.42a2.06,2.06,0,0,0-1.2-.35,2,2,0,0,0-1.16.4C341.3,44.66,341.22,44.85,341.27,44.89Z"/><path class="cls-3" d="M341.86,47.1a.66.66,0,0,0,.67.63.64.64,0,0,0,.64-.63.66.66,0,0,0-.67-.63A.64.64,0,0,0,341.86,47.1Z"/><path class="cls-3" d="M339.17,50.5a4.39,4.39,0,0,0-1.22-.15c-.2,0-.38,0-.42-.16a1,1,0,0,1,.1-.57c.15-.47.3-1,.47-1.48a23.74,23.74,0,0,0,1-3.86A26.14,26.14,0,0,0,337.79,48c-.15.52-.31,1-.45,1.49a1.06,1.06,0,0,0,0,.75.45.45,0,0,0,.33.26,1.27,1.27,0,0,0,.32,0A5.47,5.47,0,0,0,339.17,50.5Z"/><path class="cls-3" d="M341.67,42.3c.08.18.72.05,1.5.1s1.41.23,1.5.06-.07-.25-.34-.42a2.55,2.55,0,0,0-2.28-.12C341.77,42.06,341.64,42.21,341.67,42.3Z"/><path class="cls-3" d="M334.08,42.76c.08.14.71,0,1.48,0s1.4.1,1.48,0-.09-.21-.35-.33a2.69,2.69,0,0,0-1.13-.2,2.77,2.77,0,0,0-1.13.26C334.17,42.55,334,42.69,334.08,42.76Z"/><path class="cls-10" d="M349.56,46.89c.08,0,3.27-1.18,3.36,2.13s-3.25,2.73-3.26,2.63S349.56,46.89,349.56,46.89Z"/><path class="cls-11" d="M350.63,50.37s.06,0,.16.08a.58.58,0,0,0,.43,0,1.41,1.41,0,0,0,.63-1.3,1.83,1.83,0,0,0-.19-.82.64.64,0,0,0-.44-.43.29.29,0,0,0-.34.17.56.56,0,0,0,0,.16s-.08,0-.05-.19a.35.35,0,0,1,.12-.21.42.42,0,0,1,.32-.09.81.81,0,0,1,.61.49,2,2,0,0,1,.23.92,1.51,1.51,0,0,1-.8,1.46.59.59,0,0,1-.53-.08C350.64,50.45,350.62,50.37,350.63,50.37Z"/><path class="cls-3" d="M340.19,53.31c0-.08.62-.27,1.08-.87a3.39,3.39,0,0,0,.47-.86c.1-.24.18-.39.21-.38s0,.18,0,.44a2.36,2.36,0,0,1-.44,1,2,2,0,0,1-.85.64C340.37,53.34,340.2,53.34,340.19,53.31Z"/><path class="cls-3" d="M354,41.58a15.87,15.87,0,0,1-1.18-3.88,4.37,4.37,0,0,0-2.35-3.14h0a3.49,3.49,0,0,0-3.51.29,4.54,4.54,0,0,0-3.38-3.57,11.15,11.15,0,0,0-6,.39,12.23,12.23,0,0,0-4,3,17.47,17.47,0,0,0-1.72,2l-1.52,4.5,1.23,2.38a5.24,5.24,0,0,0,.23.48h0l1.06,5c.09-1.36.05-6.1.14-7.45a7.63,7.63,0,0,0,5.44-2.43,8.93,8.93,0,0,1,2.35-2.32c1.29-.61,2.81-.13,4.15.35l0-.05a5.94,5.94,0,0,1,1.85,1.38,18.81,18.81,0,0,0,.71,8c.12.38.46,1.18.84,1.33.74.3.95-.45,1.4-.85a2,2,0,0,1,1.36-.32,31.34,31.34,0,0,0,.95-3.42,3.12,3.12,0,0,0,1.39.11c-.14-.35-.28-.69-.41-1a1.61,1.61,0,0,0,.59.28.55.55,0,0,0,.56-.24C354.34,42.12,354.18,41.83,354,41.58Z"/><path class="cls-8" d="M345.45,35.39a4,4,0,0,1,.48.45,3.56,3.56,0,0,1,.72,1.61,6.7,6.7,0,0,1,.11,1.23c0,.45-.05.92-.09,1.43a13.48,13.48,0,0,0-.06,1.58,8,8,0,0,0,.1.84,1.83,1.83,0,0,0,.33.81.71.71,0,0,0,.68.24,1.06,1.06,0,0,0,.62-.34,2.55,2.55,0,0,0,.48-1.22h-.1a4.2,4.2,0,0,0,.57,1,1.44,1.44,0,0,0,.94.52.86.86,0,0,0,.5-.08.77.77,0,0,0,.34-.33.91.91,0,0,0,.11-.42.62.62,0,0,0-.15-.38l-.06,0a3.19,3.19,0,0,0,1,.8l.32.13.12,0-.11,0-.31-.15a3,3,0,0,1-1-.8l0,0a.61.61,0,0,1,0,.71.81.81,0,0,1-.31.3.87.87,0,0,1-.45.06,1.36,1.36,0,0,1-.87-.49,4.36,4.36,0,0,1-.55-1l-.07-.16,0,.17a2.64,2.64,0,0,1-.46,1.17,1,1,0,0,1-.56.3.59.59,0,0,1-.57-.2,1.7,1.7,0,0,1-.31-.76,8,8,0,0,1-.1-.82c0-.55,0-1.07,0-1.58s.08-1,.08-1.43a6.69,6.69,0,0,0-.12-1.24,3.44,3.44,0,0,0-.77-1.63A2.06,2.06,0,0,0,345.45,35.39Z"/><path class="cls-8" d="M330.44,39.9l0,0,.12.09.2.14.29.15a4.33,4.33,0,0,0,2.07.4,5.5,5.5,0,0,0,2.93-1,9.55,9.55,0,0,0,2.54-2.85c.36-.58.65-1.18,1-1.73a6.26,6.26,0,0,1,1.09-1.45,3.22,3.22,0,0,1,1.41-.83,2.31,2.31,0,0,1,.73-.08,2.74,2.74,0,0,1,.67.14,2.8,2.8,0,0,1,1,.62,2.7,2.7,0,0,1,.54.72,3.9,3.9,0,0,1,.24.72v0l0-.15a2.26,2.26,0,0,0-.17-.54,2.7,2.7,0,0,0-.53-.74,2.8,2.8,0,0,0-1-.65,2.49,2.49,0,0,0-.69-.15,2.26,2.26,0,0,0-.77.07,3.36,3.36,0,0,0-1.45.84A6.47,6.47,0,0,0,339.51,35c-.33.55-.62,1.14-1,1.72a9.61,9.61,0,0,1-2.5,2.83,5.49,5.49,0,0,1-2.88,1,4.31,4.31,0,0,1-2-.36A5.23,5.23,0,0,1,330.44,39.9Z"/><path class="cls-3" d="M333.89,45.1c.09.1.65-.34,1.46-.35s1.41.39,1.5.29-.06-.23-.32-.42a2.09,2.09,0,0,0-1.2-.35,2,2,0,0,0-1.16.4C333.92,44.87,333.84,45.06,333.89,45.1Z"/><path class="cls-3" d="M335.12,47.2a.65.65,0,0,0,.67.62.62.62,0,0,0,.64-.63.66.66,0,0,0-.67-.62A.63.63,0,0,0,335.12,47.2Z"/><path class="cls-3" d="M332.35,36.14a2.09,2.09,0,0,1-1.73,1,4.9,4.9,0,0,1-.72-.21c-.23.14-.18,1,0,1.17a4.48,4.48,0,0,0,.51.53,2.69,2.69,0,0,1-2.36-.1,4.14,4.14,0,0,0,2.46,3.33,1.45,1.45,0,0,0,1.34,0,1.64,1.64,0,0,0,.58-1,18,18,0,0,0,.6-4.44Z"/><path class="cls-8" d="M359.07,64.26a11.05,11.05,0,0,0-4.26-1.58l-5.27-1.09s-3.19,3.87-7.15,3.31-4.23-3.26-4.23-3.26-7.49,1.24-11.62,5.08a23.91,23.91,0,0,0,15.13,7c5.85.72,13.73-2.2,19-7.88C360.63,65.82,360.75,65.55,359.07,64.26Z"/><path class="cls-3" d="M366.31,52.07s0-.13,0-.37V49.78c0-.3-.05-.62-.08-1a17.54,17.54,0,0,0-.33-2.42,21.88,21.88,0,0,0-2.17-6.3,23.16,23.16,0,0,0-14.83-11.82,20.9,20.9,0,0,0-2.88-.53c-.49,0-1-.13-1.49-.15l-1.53,0c-.26,0-.51,0-.77,0l-.77.07c-.52.05-1,.07-1.57.15a25,25,0,0,0-3.12.7,24.25,24.25,0,0,0-3.08,1.12c-.5.23-1,.51-1.48.76a10.7,10.7,0,0,0-1.45.87,26.4,26.4,0,0,0-2.75,2,25.12,25.12,0,0,0-2.42,2.52,22,22,0,0,0-3.69,6.11,24.6,24.6,0,0,0-1.66,7.16,24.5,24.5,0,0,0,.71,7.32,22.33,22.33,0,0,0,2.87,6.54,26.15,26.15,0,0,0,2.08,2.81,25.06,25.06,0,0,0,2.46,2.38,11.92,11.92,0,0,0,1.32,1c.46.31.91.65,1.38,1A24.35,24.35,0,0,0,334,71.63a25.73,25.73,0,0,0,3,1.1c.51.14,1,.23,1.53.35l.76.17c.25,0,.51.06.76.1l1.52.17c.5,0,1,0,1.5,0a23.66,23.66,0,0,0,2.93-.15,23.13,23.13,0,0,0,16.23-9.81,22.11,22.11,0,0,0,3-6,18,18,0,0,0,.64-2.35c.07-.35.16-.66.21-1s.07-.56.1-.8c.06-.47.11-.84.14-1.1s.07-.37.07-.37l0,.38-.11,1.1c0,.24-.05.51-.08.81s-.13.61-.2,1a15.09,15.09,0,0,1-.61,2.37,22.05,22.05,0,0,1-2.93,6,23.36,23.36,0,0,1-16.37,10,22.23,22.23,0,0,1-3,.15c-.51,0-1,0-1.53,0L340,73.66c-.26,0-.52,0-.78-.1l-.77-.17c-.51-.11-1-.21-1.55-.35a23.79,23.79,0,0,1-3.05-1.11,24.31,24.31,0,0,1-2.95-1.53c-.48-.29-.93-.63-1.4-1a12.48,12.48,0,0,1-1.34-1.06A26,26,0,0,1,325.61,66a28.77,28.77,0,0,1-2.11-2.85,22.79,22.79,0,0,1-2.92-6.64,24.9,24.9,0,0,1-.72-7.43,25.09,25.09,0,0,1,1.68-7.28,22.4,22.4,0,0,1,3.76-6.2A25.83,25.83,0,0,1,327.76,33,24.84,24.84,0,0,1,330.55,31a11.66,11.66,0,0,1,1.47-.88c.51-.26,1-.54,1.51-.77a26.09,26.09,0,0,1,6.3-1.84c.53-.07,1.06-.09,1.58-.14l.79-.07c.26,0,.52,0,.78,0l1.54,0c.51,0,1,.1,1.52.16A19.81,19.81,0,0,1,349,28a23.24,23.24,0,0,1,14.93,12A21.85,21.85,0,0,1,366,46.36a17.53,17.53,0,0,1,.3,2.44c0,.35.06.68.06,1s0,.57,0,.81c0,.48,0,.84,0,1.11S366.31,52.07,366.31,52.07Z"/><circle class="cls-4" cx="69.8" cy="75.09" r="50.11"/><circle class="cls-14" cx="69.8" cy="75.09" r="50.11"/><circle class="cls-4" cx="68.45" cy="71.89" r="50.11"/><circle class="cls-1" cx="68.45" cy="71.89" r="38.98"/><circle class="cls-4" cx="68.45" cy="71.89" r="27.43" transform="translate(-30.78 69.46) rotate(-45)"/><circle class="cls-1" cx="68.45" cy="71.89" r="14.47" transform="translate(-30.78 69.46) rotate(-45)"/><polygon class="cls-8" points="107.22 31.3 105.86 20.61 116.74 8.96 117.52 20.5 107.22 31.3"/><polygon class="cls-8" points="130.57 22.79 119.53 21.9 108.47 32.54 119.54 33.72 130.57 22.79"/><path class="cls-14" d="M68.45,72.73l41.14-29.46a56.66,56.66,0,0,0-5.22-6.46L69.13,70.88Z"/><path class="cls-3" d="M119.15,18.27,114,23.5l-12.4,12.57L86.66,51.2l-13,13.14c-2.1,2.13-4.3,4.2-6.32,6.4l-.09.09c-1.22,1.24.69,3.15,1.91,1.91l5.16-5.23q6.2-6.29,12.4-12.56l14.93-15.13q6.48-6.59,13-13.15c2.1-2.13,4.3-4.19,6.32-6.4l.09-.09a1.35,1.35,0,0,0-1.91-1.91Z"/></g></g></svg>