<svg width="302" height="37" viewBox="0 0 302 37" fill="none" xmlns="http://www.w3.org/2000/svg">
<g clip-path="url(#clip0_1_382)">
<path d="M62.2883 18.0781H67.5363V27.774C66.1907 28.7469 64.6432 29.4927 62.8602 30.0115C61.0773 30.5304 59.3279 30.7898 57.5113 30.7898C54.9546 30.7898 52.6334 30.271 50.5812 29.2008C48.5291 28.1307 46.9144 26.6715 45.7706 24.7907C44.5931 22.9099 44.0212 20.8021 44.0212 18.4348C44.0212 16.0676 44.5931 13.9598 45.7706 12.079C46.948 10.1982 48.5628 8.73897 50.6485 7.66885C52.7343 6.59874 55.0555 6.0799 57.6459 6.0799C59.7989 6.0799 61.7837 6.4366 63.5667 7.15001C65.3497 7.86342 66.8299 8.86868 68.0073 10.2306L64.3404 13.5058C62.5575 11.7223 60.4381 10.8143 57.9486 10.8143C56.3675 10.8143 54.9546 11.1386 53.7435 11.7547C52.5324 12.4033 51.5568 13.2788 50.884 14.4462C50.2112 15.6136 49.8748 16.9432 49.8748 18.4348C49.8748 19.9265 50.2112 21.2236 50.884 22.391C51.5568 23.5584 52.5324 24.4664 53.7435 25.115C54.9546 25.7635 56.3339 26.0878 57.915 26.0878C59.5634 26.0878 61.0436 25.7311 62.3556 25.0501V18.0781H62.2883Z" fill="white"/>
<path d="M91.9933 25.9581V30.4007H72.8179V6.53387H91.5223V10.9765H78.5032V16.1649H90.0085V20.4454H78.5032V25.9581H91.9933Z" fill="white"/>
<path d="M101.682 11.0413H93.7764V6.53387H115.34V11.0413H107.435V30.4007H101.716V11.0413H101.682Z" fill="white"/>
<path d="M118.402 6.53387H124.121V25.8932H136.534V30.4007H118.402V6.53387Z" fill="#E41E26"/>
<path d="M158.939 25.9581V30.4007H139.764V6.53387H158.468V10.9765H145.449V16.1649H156.954V20.4454H145.449V25.9581H158.939Z" fill="#E41E26"/>
<path d="M179.797 25.2771H168.291L166.105 30.4007H160.218L171.252 6.53387H176.903L188.005 30.4007H181.983L179.797 25.2771ZM177.98 21.0939L174.044 11.9493L170.108 21.0939H177.98Z" fill="#E41E26"/>
<path d="M190.562 6.53387H201.798C204.489 6.53387 206.844 7.02029 208.93 8.02555C210.982 9.03081 212.597 10.3928 213.74 12.2087C214.884 13.9922 215.456 16.1 215.456 18.4673C215.456 20.8345 214.884 22.9423 213.74 24.7258C212.597 26.5093 210.982 27.9037 208.93 28.909C206.878 29.9142 204.489 30.4007 201.798 30.4007H190.562V6.53387ZM201.529 25.8608C204.018 25.8608 205.969 25.2122 207.45 23.8827C208.93 22.5532 209.67 20.7372 209.67 18.4673C209.67 16.1973 208.93 14.3814 207.45 13.0518C205.969 11.7223 204.018 11.0738 201.529 11.0738H196.314V25.8608H201.529Z" fill="#E41E26"/>
<path d="M23.5001 36.4809C13.1386 38.5562 3.01267 32.168 0.859646 22.1803C-1.29338 12.225 5.33391 2.46422 15.6954 0.388846C22.3226 -0.940689 28.8826 1.19954 33.2896 5.57728L19.5304 18.5159L12.9368 11.998L10.5483 12.2574L10.2455 14.5922L19.4295 23.6719L35.6445 8.43091C36.8892 10.2793 37.7975 12.3871 38.3021 14.657C40.4552 24.6448 33.8279 34.4055 23.5001 36.4809Z" fill="#E41E26"/>
</g>
<path d="M262.711 27.1548C261.098 27.1548 259.712 26.8321 258.553 26.1868C257.409 25.5268 256.529 24.6028 255.913 23.4148C255.297 22.2121 254.989 20.7968 254.989 19.1688C254.989 17.5408 255.297 16.1328 255.913 14.9448C256.529 13.7568 257.409 12.8401 258.553 12.1948C259.712 11.5348 261.098 11.2048 262.711 11.2048C263.797 11.2048 264.772 11.3588 265.637 11.6668C266.517 11.9748 267.273 12.4295 267.903 13.0308L266.979 15.2748C266.29 14.7175 265.623 14.3215 264.977 14.0868C264.347 13.8375 263.621 13.7128 262.799 13.7128C261.23 13.7128 260.027 14.1895 259.191 15.1428C258.37 16.0815 257.959 17.4235 257.959 19.1688C257.959 20.9141 258.37 22.2635 259.191 23.2168C260.027 24.1701 261.23 24.6468 262.799 24.6468C263.621 24.6468 264.347 24.5295 264.977 24.2948C265.623 24.0455 266.29 23.6348 266.979 23.0628L267.903 25.3068C267.273 25.8935 266.517 26.3481 265.637 26.6708C264.772 26.9935 263.797 27.1548 262.711 27.1548ZM269.556 26.9348V11.4248H276.332C278.033 11.4248 279.346 11.8281 280.27 12.6348C281.209 13.4415 281.678 14.5635 281.678 16.0008C281.678 16.9541 281.465 17.7681 281.04 18.4428C280.629 19.1175 280.035 19.6381 279.258 20.0048C278.481 20.3568 277.564 20.5328 276.508 20.5328L276.816 20.1148H277.564C278.18 20.1148 278.73 20.2761 279.214 20.5988C279.698 20.9215 280.094 21.4128 280.402 22.0728L282.668 26.9348H279.544L277.256 21.8968C277.051 21.3835 276.735 21.0461 276.31 20.8848C275.899 20.7235 275.401 20.6428 274.814 20.6428H272.394V26.9348H269.556ZM272.394 18.5528H275.87C276.867 18.5528 277.623 18.3475 278.136 17.9368C278.664 17.5115 278.928 16.8955 278.928 16.0888C278.928 15.2821 278.664 14.6735 278.136 14.2628C277.623 13.8521 276.867 13.6468 275.87 13.6468H272.394V18.5528ZM284.025 26.9348V11.4248H286.511L292.209 24.2508H291.527L297.225 11.4248H299.689V26.9348H297.115V15.4288H297.907L292.693 26.9348H290.999L285.785 15.4288H286.599V26.9348H284.025Z" fill="white"/>
<path d="M236.269 6.93481H235.269V30.9348H236.269V6.93481Z" fill="white"/>
<defs>
<clipPath id="clip0_1_382">
<rect width="215" height="37" fill="white" transform="translate(0.456055)"/>
</clipPath>
</defs>
</svg>
