<svg xmlns="http://www.w3.org/2000/svg" viewBox="0 0 258.13 30.18"><defs><style>.cls-1{fill:#fff;}.cls-2{fill:#ee3448;}</style></defs><g id="Layer_2" data-name="Layer 2"><g id="Layer_1-2" data-name="Layer 1"><path class="cls-1" d="M52.89,14.75h4.5V23.4a12.54,12.54,0,0,1-4,2,15.47,15.47,0,0,1-4.6.7,12.53,12.53,0,0,1-6-1.41,10.61,10.61,0,0,1-4.15-3.93,10.8,10.8,0,0,1-1.51-5.68,10.77,10.77,0,0,1,1.51-5.68,10.42,10.42,0,0,1,4.18-3.93,12.78,12.78,0,0,1,6-1.41A13.17,13.17,0,0,1,54,5a10.12,10.12,0,0,1,3.84,2.74l-3.17,2.92a7.33,7.33,0,0,0-5.51-2.4,7.47,7.47,0,0,0-3.62.85A6.1,6.1,0,0,0,43,11.53a7,7,0,0,0-.88,3.56A7,7,0,0,0,43,18.62,6.2,6.2,0,0,0,45.47,21a7.27,7.27,0,0,0,3.58.87A8,8,0,0,0,52.89,21Z"/><path class="cls-1" d="M78.47,21.79v4H62V4.43H78.07v4H66.86V13h9.9v3.84h-9.9v4.93Z"/><path class="cls-1" d="M86.81,8.45H80v-4H98.57v4H91.74v17.3H86.81Z"/><path class="cls-2" d="M101.22,4.43h4.93v17.3h10.69v4H101.22Z"/><path class="cls-2" d="M136.12,21.79v4H119.61V4.43h16.11v4H124.51V13h9.9v3.84h-9.9v4.93Z"/><path class="cls-2" d="M154.09,21.18h-9.9l-1.89,4.57h-5.06l9.51-21.32h4.87l9.53,21.32H156Zm-1.56-3.75-3.38-8.16-3.38,8.16Z"/><path class="cls-2" d="M163.37,4.43h9.69a13.69,13.69,0,0,1,6.14,1.32,10,10,0,0,1,4.14,3.74,10.51,10.51,0,0,1,1.47,5.6,10.51,10.51,0,0,1-1.47,5.6,9.92,9.92,0,0,1-4.14,3.73,13.56,13.56,0,0,1-6.14,1.33h-9.69Zm9.44,17.27a7.21,7.21,0,0,0,5.11-1.78,6.33,6.33,0,0,0,1.9-4.83,6.33,6.33,0,0,0-1.9-4.83,7.16,7.16,0,0,0-5.11-1.78h-4.5V21.7Z"/><path class="cls-2" d="M18.16,29.86A15.09,15.09,0,1,1,25.89,4.55L15,15.14,9.84,9.81,8,10l-.22,1.91L15,19.38,27.77,6.92A14.91,14.91,0,0,1,29.86,12a15.09,15.09,0,0,1-11.7,17.85"/><path class="cls-1" d="M221.15,23.57a8.36,8.36,0,0,1-4.16-1,6.72,6.72,0,0,1-2.64-2.77,9.14,9.14,0,0,1-.92-4.24,9,9,0,0,1,.92-4.23A6.61,6.61,0,0,1,217,8.61a8.26,8.26,0,0,1,4.16-1,8.86,8.86,0,0,1,2.92.46,6.28,6.28,0,0,1,2.27,1.37l-.92,2.24a7.4,7.4,0,0,0-2-1.19,6.05,6.05,0,0,0-2.17-.37,4.55,4.55,0,0,0-3.61,1.43,5.94,5.94,0,0,0-1.23,4,6,6,0,0,0,1.23,4,4.52,4.52,0,0,0,3.61,1.43,6.06,6.06,0,0,0,2.17-.35,7.36,7.36,0,0,0,2-1.23l.92,2.24a6.57,6.57,0,0,1-2.27,1.37A8.36,8.36,0,0,1,221.15,23.57Zm6.84-.22V7.84h6.78a5.86,5.86,0,0,1,3.94,1.21,4.2,4.2,0,0,1,1.4,3.37,4.52,4.52,0,0,1-.63,2.44,4,4,0,0,1-1.79,1.56,6.61,6.61,0,0,1-2.75.53l.31-.42H236a2.84,2.84,0,0,1,1.65.49,3.5,3.5,0,0,1,1.19,1.47l2.26,4.86H238l-2.29-5a1.66,1.66,0,0,0-.94-1,4.14,4.14,0,0,0-1.5-.24h-2.42v6.29ZM230.83,15h3.48a3.5,3.5,0,0,0,2.26-.62,2.21,2.21,0,0,0,.79-1.84,2.17,2.17,0,0,0-.79-1.83,3.56,3.56,0,0,0-2.26-.62h-3.48Zm11.63,8.38V7.84H245l5.7,12.83H250l5.7-12.83h2.47V23.35h-2.58V11.85h.79l-5.21,11.5h-1.69l-5.22-11.5H245v11.5Z"/><path class="cls-1" d="M200.71,3.35h-1v24h1Z"/></g></g></svg>