<svg width="323" height="217" viewBox="0 0 323 217" fill="none" xmlns="http://www.w3.org/2000/svg">
<g clip-path="url(#clip0_1_505)">
<path d="M280.372 0.540405L214.476 45.9464L240.652 49.9679L268.825 54.2685L280.372 0.540405Z" fill="#FF4848"/>
<path d="M280.372 0.540405L234.56 49.0113L247.984 63.5533L243.458 50.3024L280.372 0.540405Z" fill="url(#paint0_linear_1_505)"/>
<path d="M253.926 51.9855L243.458 50.3024L247.984 63.5533L253.926 51.9855Z" fill="#CF2B2B"/>
<path d="M247.509 69.8178C247.474 69.0449 247.407 68.5988 247.407 68.5988L246.806 68.6732C246.806 68.6732 246.855 69.0736 246.89 69.8465L247.509 69.8178Z" fill="#3A3A3A"/>
<path d="M205.279 153.765C205.645 153.624 206.011 153.483 206.331 153.36L206.12 152.812C205.388 153.094 204.611 153.393 203.879 153.675L204.09 154.223C204.456 154.082 204.868 153.923 205.279 153.765ZM208.582 152.388C209.296 152.061 210.038 151.67 210.752 151.342L210.495 150.812C209.799 151.185 209.039 151.53 208.325 151.858L208.582 152.388ZM201.769 155.012L201.604 154.447C200.854 154.683 200.105 154.919 199.293 155.127L199.458 155.692C200.207 155.456 201.02 155.248 201.769 155.012ZM197.094 156.236L196.975 155.653C196.208 155.843 195.424 155.988 194.639 156.133L194.759 156.716C195.543 156.571 196.328 156.426 197.094 156.236ZM212.87 150.16C213.549 149.741 214.291 149.35 214.952 148.886L214.649 148.373C213.971 148.792 213.292 149.211 212.613 149.63L212.87 150.16ZM192.343 157.122L192.269 156.521C191.467 156.621 190.682 156.765 189.863 156.819L189.937 157.42C190.756 157.366 191.558 157.267 192.343 157.122ZM216.971 147.584C217.632 147.12 218.293 146.655 218.937 146.145L218.589 145.65C217.945 146.16 217.284 146.625 216.668 147.072L216.971 147.584ZM187.513 157.671L187.485 157.053C186.666 157.107 185.892 157.143 185.072 157.196L185.1 157.814C185.938 157.806 186.711 157.771 187.513 157.671ZM220.823 144.633C221.42 144.14 222.047 143.585 222.673 143.029L222.279 142.552C221.698 143.09 221.055 143.6 220.474 144.138L220.823 144.633ZM182.67 157.912L182.642 157.293C181.851 157.284 181.031 157.337 180.24 157.327L180.222 157.963C181.059 157.955 181.896 157.947 182.67 157.912ZM224.46 141.397C225.04 140.859 225.603 140.275 226.166 139.692L225.743 139.277C225.181 139.861 224.618 140.445 224.038 140.983L224.46 141.397ZM177.83 157.888L177.865 157.298C177.074 157.288 176.265 157.233 175.456 157.177L175.421 157.768C176.23 157.823 177.021 157.833 177.83 157.888ZM227.773 137.867C228.318 137.237 228.818 136.625 229.317 136.014L228.849 135.617C228.35 136.229 227.85 136.841 227.305 137.47L227.773 137.867ZM173.04 157.584L173.075 156.994C172.266 156.938 171.503 156.865 170.676 156.764L170.595 157.372C171.404 157.427 172.231 157.528 173.04 157.584ZM230.844 134.115C231.326 133.458 231.808 132.8 232.244 132.16L231.748 131.827C231.312 132.467 230.83 133.124 230.348 133.782L230.844 134.115ZM168.225 157.079L168.306 156.471C167.525 156.353 166.698 156.251 165.917 156.133L165.836 156.741C166.617 156.859 167.398 156.978 168.225 157.079ZM233.626 130.16C234.045 129.475 234.509 128.771 234.928 128.086L234.386 127.77C233.968 128.456 233.549 129.141 233.13 129.827L233.626 130.16ZM163.431 156.357L163.512 155.749C162.731 155.63 161.932 155.466 161.152 155.347L161.071 155.955C161.806 156.091 162.65 156.238 163.431 156.357ZM49.2086 199.667L49.4794 199.143C48.8112 198.771 48.0796 198.372 47.3938 197.954L47.0772 198.496C47.7912 198.85 48.477 199.267 49.2086 199.667ZM236.12 126.001C236.521 125.27 236.894 124.602 237.249 123.889L236.725 123.619C236.37 124.332 235.969 125.064 235.596 125.731L236.12 126.001ZM158.63 155.479L158.774 154.9C157.976 154.735 157.177 154.571 156.424 154.389L156.28 154.969C157.096 155.179 157.895 155.343 158.63 155.479ZM45.076 197.117L45.4101 196.621C44.77 196.186 44.1123 195.706 43.4546 195.225L43.1204 195.721C43.7324 196.219 44.3901 196.699 45.076 197.117ZM153.931 154.458L154.075 153.878C153.277 153.714 152.524 153.532 151.708 153.322L151.564 153.902C152.38 154.112 153.132 154.294 153.931 154.458ZM238.343 121.685C238.699 120.972 239.036 120.212 239.328 119.471L238.759 119.218C238.467 119.96 238.111 120.673 237.756 121.387L238.343 121.685ZM149.242 153.328L149.387 152.748C148.634 152.566 147.818 152.356 147.048 152.129L146.903 152.708C147.674 152.936 148.426 153.118 149.242 153.328ZM41.1755 194.215L41.573 193.748C40.961 193.249 40.349 192.751 39.7195 192.207L39.322 192.675C39.8882 193.191 40.5178 193.735 41.1755 194.215ZM240.268 117.274C240.56 116.533 240.852 115.791 241.126 115.004L240.574 114.797C240.282 115.539 239.99 116.28 239.698 117.022L240.268 117.274ZM144.564 152.089L144.709 151.509C143.938 151.282 143.168 151.054 142.415 150.872L142.271 151.452C143.024 151.634 143.794 151.861 144.564 152.089ZM241.984 112.733C242.259 111.946 242.505 111.222 242.734 110.453L242.136 110.263C241.907 111.033 241.661 111.757 241.386 112.544L241.984 112.733ZM37.5248 191.008L37.9399 190.586C37.356 190.024 36.8179 189.445 36.2341 188.884L35.819 189.306C36.3571 189.885 36.9409 190.446 37.5248 191.008ZM139.96 150.769L140.15 150.172C139.38 149.944 138.61 149.716 137.84 149.489L137.65 150.086C138.402 150.268 139.19 150.541 139.96 150.769ZM243.448 108.08C243.676 107.311 243.888 106.496 244.07 105.744L243.49 105.6C243.307 106.352 243.079 107.122 242.867 107.937L243.448 108.08ZM135.321 149.358L135.511 148.76C134.741 148.533 133.971 148.305 133.229 148.014L133.039 148.612C133.763 148.857 134.533 149.084 135.321 149.358ZM34.1871 187.522L34.6655 187.129C34.1098 186.504 33.6174 185.907 33.1708 185.293L32.6924 185.687C33.1215 186.255 33.6772 186.88 34.1871 187.522ZM130.71 147.883L130.9 147.286C130.13 147.058 129.342 146.785 128.617 146.54L128.428 147.137C129.198 147.365 129.922 147.61 130.71 147.883ZM244.647 103.424C244.813 102.627 245.041 101.857 245.161 101.077L244.581 100.934C244.415 101.731 244.232 102.483 244.067 103.281L244.647 103.424ZM31.1906 183.696L31.6866 183.348C31.2224 182.688 30.8038 182.01 30.3853 181.332L29.8718 181.635C30.2903 182.313 30.7264 183.036 31.1906 183.696ZM126.127 146.345L126.317 145.748C125.547 145.52 124.805 145.23 124.017 144.956L123.827 145.554C124.615 145.827 125.339 146.072 126.127 146.345ZM245.657 98.684C245.823 97.8863 245.942 97.1063 246.108 96.3086L245.499 96.2284C245.379 97.0085 245.214 97.8061 245.094 98.5862L245.657 98.684ZM121.544 144.808L121.752 144.256L119.452 143.464L119.244 144.016L121.544 144.808ZM28.6444 179.539L29.158 179.236C28.7852 178.541 28.3948 177.8 28.0677 177.087L27.5366 177.344C27.8813 178.103 28.2716 178.844 28.6444 179.539ZM246.449 93.9228C246.551 93.0971 246.671 92.3171 246.79 91.537L246.182 91.4568C246.062 92.2369 246.006 93.045 245.84 93.8426L246.449 93.9228ZM116.99 143.207L117.197 142.655L114.897 141.863L114.689 142.415L116.99 143.207ZM27.178 174.913C26.967 174.366 26.756 173.818 26.6083 173.298C26.5204 173.07 26.45 172.887 26.4078 172.641L25.8416 172.807C25.9295 173.035 25.9541 173.235 26.042 173.464C26.2073 174.029 26.4183 174.577 26.6293 175.125L27.178 174.913ZM112.435 141.605L112.642 141.054L110.342 140.262L110.135 140.814L112.435 141.605ZM247.068 89.1232C247.17 88.2975 247.227 87.4894 247.301 86.727L246.71 86.6924C246.636 87.4549 246.579 88.263 246.477 89.0887L247.068 89.1232ZM107.88 140.004L108.088 139.453L105.787 138.661L105.58 139.213L107.88 140.004ZM25.701 170.397C25.5112 169.631 25.3037 168.82 25.1138 168.054L24.5299 168.174C24.7198 168.94 24.8815 169.769 25.1172 170.517L25.701 170.397ZM247.469 84.3027C247.526 83.4946 247.582 82.6865 247.593 81.8961L247.002 81.8615C246.991 82.652 246.935 83.4601 246.879 84.2682L247.469 84.3027ZM103.297 138.467L103.487 137.869C102.699 137.596 101.975 137.351 101.187 137.077L100.997 137.675C101.785 137.948 102.555 138.176 103.297 138.467ZM24.6813 165.704C24.5372 164.921 24.4387 164.12 24.3403 163.319L23.7388 163.394C23.8373 164.194 23.9357 164.995 24.0799 165.779L24.6813 165.704ZM98.7143 136.929L98.9043 136.331C98.1165 136.058 97.3919 135.813 96.6217 135.585L96.4317 136.183C97.202 136.41 97.9898 136.684 98.7143 136.929ZM247.698 79.4437C247.737 78.59 247.748 77.7995 247.713 77.0266L247.094 77.0554C247.065 77.8002 247.072 78.6363 247.079 79.4724L247.698 79.4437ZM94.149 135.437L94.339 134.839C93.5688 134.612 92.7809 134.338 92.0106 134.111L91.8207 134.708C92.5909 134.936 93.3788 135.209 94.149 135.437ZM24.1716 160.973C24.1189 160.154 24.1295 159.364 24.1401 158.573L23.5492 158.539C23.5386 159.329 23.5456 160.165 23.5807 160.938L24.1716 160.973ZM247.727 74.6095C247.702 73.7278 247.695 72.8916 247.632 72.182L247.013 72.2107C247.031 72.9379 247.066 73.7108 247.09 74.5926L247.727 74.6095ZM89.5556 134.008L89.7456 133.41C88.9753 133.183 88.205 132.955 87.4348 132.728L87.2905 133.307C88.0151 133.553 88.7853 133.78 89.5556 134.008ZM24.3267 156.194C24.383 155.386 24.5026 154.606 24.6856 153.854L24.0771 153.774C23.9117 154.572 23.7921 155.352 23.7358 156.16L24.3267 156.194ZM84.9058 132.705L85.0501 132.126C84.2798 131.898 83.4638 131.688 82.7112 131.506L82.5669 132.086C83.3196 132.268 84.1356 132.478 84.9058 132.705ZM80.228 131.466L80.3722 130.887C79.5738 130.722 78.8036 130.495 78.0051 130.33L77.8609 130.91C78.6769 131.12 79.4296 131.302 80.228 131.466ZM25.1992 151.507C25.4279 150.737 25.6566 149.968 25.9486 149.226L25.3964 149.019C25.1044 149.761 24.83 150.548 24.6646 151.346L25.1992 151.507ZM75.529 130.445L75.6732 129.865C74.8748 129.701 74.0764 129.537 73.2956 129.418L73.2147 130.026C73.9498 130.162 74.7306 130.281 75.529 130.445ZM26.8597 147.093C27.215 146.379 27.5878 145.711 28.0064 145.026L27.5105 144.693C27.0919 145.378 26.6909 146.109 26.3356 146.823L26.8597 147.093ZM70.8089 129.642L70.8898 129.034C70.0633 128.933 69.2824 128.814 68.4559 128.713L68.375 129.321C69.2015 129.422 69.9823 129.541 70.8089 129.642ZM66.0395 129.119L66.0747 128.529C65.2657 128.474 64.4111 128.436 63.6654 128.409L63.6302 128.999C64.4216 129.009 65.2305 129.064 66.0395 129.119ZM29.3888 143.026C29.8707 142.368 30.3702 141.756 30.8873 141.19L30.4195 140.794C29.8567 141.377 29.3748 142.035 28.8753 142.647L29.3888 143.026ZM61.2561 128.97L61.2279 128.351C60.3908 128.359 59.5713 128.413 58.7975 128.449L58.8256 129.067C59.5994 129.031 60.4189 128.977 61.2561 128.97ZM32.5475 139.502C33.1279 138.964 33.7259 138.472 34.3696 137.962L33.9757 137.484C33.332 137.994 32.7059 138.55 32.1255 139.088L32.5475 139.502ZM56.4655 129.347L56.4057 129.055L56.3002 128.781C55.4983 128.88 54.7139 129.025 53.9753 129.152L54.0949 129.735C54.8335 129.608 55.6178 129.463 56.4198 129.364L56.4655 129.347ZM36.2901 136.54C36.9514 136.076 37.6302 135.657 38.3267 135.284L38.0242 134.772C37.2996 135.208 36.6207 135.627 35.9595 136.091L36.2901 136.54ZM51.7418 130.17L51.6222 129.587C50.8555 129.777 50.0254 129.94 49.2762 130.176L49.4415 130.741C50.1625 130.568 50.9293 130.378 51.7418 130.17ZM40.4441 134.102C41.1405 133.729 41.8546 133.401 42.6319 133.102L42.3752 132.572C41.6154 132.917 40.9014 133.244 40.1874 133.571L40.4441 134.102ZM47.0849 131.439L46.9196 130.874C46.1247 131.127 45.3755 131.364 44.5981 131.663L44.8091 132.211C45.5407 131.929 46.3357 131.675 47.0849 131.439Z" fill="#3A3A3A"/>
<path d="M52.49 201.234L52.7433 200.665C52.381 200.542 52.0469 200.356 51.667 200.188L51.4137 200.757C51.7936 200.926 52.1734 201.094 52.49 201.234Z" fill="#3A3A3A"/>
</g>
<defs>
<linearGradient id="paint0_linear_1_505" x1="266.733" y1="-4.83475" x2="226.817" y2="123.497" gradientUnits="userSpaceOnUse">
<stop offset="0.00133384" stop-color="#CF2B2B"/>
<stop offset="1" stop-color="#CB0224"/>
</linearGradient>
<clipPath id="clip0_1_505">
<rect width="299.583" height="115.997" fill="white" transform="matrix(-0.93318 0.359408 0.359408 0.93318 280.372 0.540405)"/>
</clipPath>
</defs>
</svg>
