<svg width="275" height="35" viewBox="0 0 275 35" fill="none" xmlns="http://www.w3.org/2000/svg">
<g clip-path="url(#clip0_45_2)">
<path d="M56.3529 16.9089H61.1194V25.7152C59.8972 26.5988 58.4917 27.2762 56.8723 27.7474C55.2529 28.2187 53.6641 28.4543 52.0142 28.4543C49.692 28.4543 47.5838 27.9831 45.7199 27.0111C43.8561 26.0392 42.3895 24.7138 41.3507 23.0056C40.2813 21.2974 39.7618 19.3829 39.7618 17.2329C39.7618 15.0829 40.2813 13.1685 41.3507 11.4602C42.4201 9.752 43.8867 8.42664 45.7811 7.45471C47.6754 6.48277 49.7837 6.01154 52.1364 6.01154C54.0919 6.01154 55.8946 6.33551 57.514 6.98347C59.1334 7.63142 60.4778 8.54445 61.5472 9.78145L58.2167 12.7561C56.5973 11.1363 54.6724 10.3116 52.4114 10.3116C50.9753 10.3116 49.692 10.6061 48.5921 11.1657C47.4921 11.7548 46.606 12.55 45.9949 13.6103C45.3838 14.6706 45.0783 15.8781 45.0783 17.2329C45.0783 18.5877 45.3838 19.7658 45.9949 20.8261C46.606 21.8864 47.4921 22.7111 48.5921 23.3001C49.692 23.8892 50.9448 24.1837 52.3808 24.1837C53.878 24.1837 55.2224 23.8597 56.414 23.2412V16.9089H56.3529Z" fill="#14151F"/>
<path d="M83.3325 24.0659V28.1009H65.9165V6.42386H82.9048V10.4588H71.0802V15.1712H81.5298V19.059H71.0802V24.0659H83.3325Z" fill="#14151F"/>
<path d="M92.1322 10.5177H84.9519V6.42386H104.537V10.5177H97.357V28.1009H92.1628V10.5177H92.1322Z" fill="#14151F"/>
<path d="M107.318 6.42386H112.512V24.007H123.787V28.1009H107.318V6.42386Z" fill="#E41E26"/>
<path d="M144.136 24.0659V28.1009H126.72V6.42386H143.708V10.4588H131.884V15.1712H142.333V19.059H131.884V24.0659H144.136Z" fill="#E41E26"/>
<path d="M163.08 23.4474H152.63L150.644 28.1009H145.297L155.319 6.42386H160.452L170.535 28.1009H165.066L163.08 23.4474ZM161.43 19.648L157.855 11.3424L154.28 19.648H161.43Z" fill="#E41E26"/>
<path d="M172.857 6.42386H183.062C185.507 6.42386 187.645 6.86565 189.54 7.77867C191.404 8.6917 192.87 9.9287 193.909 11.578C194.948 13.1979 195.467 15.1123 195.467 17.2624C195.467 19.4124 194.948 21.3268 193.909 22.9467C192.87 24.5666 191.404 25.833 189.54 26.746C187.676 27.6591 185.507 28.1009 183.062 28.1009H172.857V6.42386ZM182.818 23.9775C185.079 23.9775 186.851 23.3885 188.195 22.1809C189.54 20.9734 190.212 19.324 190.212 17.2624C190.212 15.2007 189.54 13.5514 188.195 12.3438C186.851 11.1363 185.079 10.5472 182.818 10.5472H178.082V23.9775H182.818Z" fill="#E41E26"/>
<path d="M21.1233 33.6232C11.7125 35.5081 2.51564 29.706 0.560154 20.6347C-1.39533 11.5927 4.6239 2.72756 14.0347 0.842606C20.0539 -0.364944 26.012 1.57892 30.0147 5.555L17.5179 17.3065L11.5292 11.3866L9.35985 11.6222L9.08486 13.7428L17.4262 21.9895L32.1535 8.14681C33.284 9.8256 34.109 11.74 34.5673 13.8017C36.5228 22.873 30.5036 31.7382 21.1233 33.6232Z" fill="#E41E26"/>
</g>
<path d="M238.387 25.1713C236.922 25.1713 235.663 24.8782 234.61 24.2921C233.571 23.6927 232.772 22.8535 232.213 21.7745C231.653 20.6821 231.373 19.3967 231.373 17.918C231.373 16.4394 231.653 15.1606 232.213 14.0816C232.772 13.0026 233.571 12.17 234.61 11.5839C235.663 10.9844 236.922 10.6847 238.387 10.6847C239.373 10.6847 240.259 10.8246 241.045 11.1043C241.844 11.3841 242.53 11.797 243.103 12.3432L242.263 14.3813C241.637 13.8751 241.031 13.5154 240.445 13.3023C239.872 13.0758 239.213 12.9626 238.467 12.9626C237.042 12.9626 235.949 13.3956 235.19 14.2614C234.444 15.114 234.071 16.3328 234.071 17.918C234.071 19.5032 234.444 20.7288 235.19 21.5946C235.949 22.4605 237.042 22.8934 238.467 22.8934C239.213 22.8934 239.872 22.7869 240.445 22.5737C241.031 22.3473 241.637 21.9743 242.263 21.4548L243.103 23.4929C242.53 24.0257 241.844 24.4387 241.045 24.7317C240.259 25.0248 239.373 25.1713 238.387 25.1713ZM244.604 24.9715V10.8845H250.758C252.303 10.8845 253.495 11.2509 254.335 11.9835C255.187 12.7162 255.613 13.7352 255.613 15.0407C255.613 15.9066 255.42 16.6459 255.034 17.2586C254.661 17.8714 254.121 18.3443 253.415 18.6773C252.709 18.997 251.877 19.1569 250.918 19.1569L251.197 18.7772H251.877C252.436 18.7772 252.936 18.9238 253.375 19.2168C253.815 19.5099 254.175 19.9561 254.454 20.5556L256.512 24.9715H253.675L251.597 20.3957C251.411 19.9295 251.124 19.6231 250.738 19.4766C250.365 19.3301 249.912 19.2568 249.379 19.2568H247.181V24.9715H244.604ZM247.181 17.3585H250.338C251.244 17.3585 251.93 17.1721 252.396 16.7991C252.876 16.4128 253.116 15.8533 253.116 15.1206C253.116 14.388 252.876 13.8351 252.396 13.4622C251.93 13.0892 251.244 12.9027 250.338 12.9027H247.181V17.3585ZM257.745 24.9715V10.8845H260.003L265.178 22.5338H264.559L269.734 10.8845H271.972V24.9715H269.634V14.5212H270.354L265.618 24.9715H264.079L259.344 14.5212H260.083V24.9715H257.745Z" fill="#14151F"/>
<path d="M214.371 6.78799H213.462V28.586H214.371V6.78799Z" fill="#14151F"/>
<defs>
<clipPath id="clip0_45_2">
<rect width="195.274" height="33.6052" fill="white" transform="translate(0.193726 0.489441)"/>
</clipPath>
</defs>
</svg>
