<svg width="397" height="201" viewBox="0 0 397 201" fill="none" xmlns="http://www.w3.org/2000/svg">
<path d="M75.3339 200.66C42.7559 200.66 -6.05494 156.148 55.9713 78.9831C91.2273 35.1212 130.579 -50.3802 222.743 39.5699C258.187 74.1666 229.215 15.325 267.881 32.0083C331.401 59.4208 380.055 103.241 390.011 146.075C399.451 186.686 383.044 200.813 344.786 200.813C306.527 200.813 131.892 200.66 75.3339 200.66Z" fill="#2B2D42"/>
<path d="M314.777 141.306L321.353 150.842" stroke="#6689DE" stroke-width="2" stroke-linecap="round" stroke-linejoin="round"/>
<path d="M317.826 147.162L307.174 136.638C305.456 134.94 305.629 132.123 307.53 130.79C309.432 129.456 312.116 130.286 313.093 132.499L319.161 146.224C319.252 146.402 319.277 146.607 319.229 146.801C319.181 146.996 319.065 147.166 318.902 147.281C318.738 147.395 318.539 147.446 318.341 147.425C318.144 147.403 317.96 147.309 317.826 147.162Z" fill="#7FD1D9"/>
<path d="M307.53 130.795L321.353 150.842" stroke="#6689DE" stroke-miterlimit="10"/>
<path d="M311.756 136.923L313.166 132.265" stroke="#6689DE" stroke-miterlimit="10"/>
<path d="M314.777 141.306L311.639 141.381" stroke="#6689DE" stroke-miterlimit="10"/>
<path d="M340.375 150.829L318.548 161.466" stroke="#6689DE" stroke-width="2" stroke-miterlimit="10"/>
<path d="M323.418 160L337.836 156.095C340.159 155.465 341.384 152.927 340.375 150.831C339.366 148.735 336.624 148.128 334.694 149.573L322.709 158.53C322.548 158.643 322.431 158.809 322.381 159C322.332 159.191 322.351 159.394 322.437 159.571C322.522 159.749 322.669 159.89 322.849 159.968C323.029 160.047 323.231 160.058 323.418 160Z" fill="#7FD1D9"/>
<path d="M340.375 150.829L318.548 161.466" stroke="#6689DE" stroke-miterlimit="10"/>
<path d="M333.704 154.082L334.736 149.38" stroke="#6689DE" stroke-miterlimit="10"/>
<path d="M328.933 156.404L331.461 157.919" stroke="#6689DE" stroke-miterlimit="10"/>
<path d="M327.746 126.271L314.445 177.266" stroke="#6689DE" stroke-width="2" stroke-linecap="round" stroke-linejoin="round"/>
<path d="M333.114 105.733C330.97 105.167 328.365 106.381 328.551 109.565C328.737 112.75 329.172 117.761 329.172 117.761C329.172 118.029 329.445 118.566 329.734 118.67C330.04 118.725 330.533 118.385 330.672 118.159C330.672 118.159 333.498 114.008 335.214 111.325C336.93 108.643 335.246 106.299 333.114 105.733Z" fill="#FF9D45"/>
<path d="M325.753 133.912C327.895 134.478 330.501 133.265 330.316 130.08C330.13 126.896 329.693 121.883 329.693 121.883C329.693 121.617 329.421 121.079 329.13 120.975C328.825 120.921 328.331 121.258 328.193 121.487C328.193 121.487 325.367 125.637 323.651 128.32C321.935 131.003 323.611 133.346 325.753 133.912Z" fill="#FF9D45"/>
<path d="M315.424 116.125C314.861 118.279 316.067 120.902 319.232 120.715C322.398 120.528 327.379 120.089 327.379 120.089C327.645 120.089 328.18 119.815 328.283 119.523C328.337 119.215 327.999 118.719 327.774 118.579C327.774 118.579 323.649 115.736 320.982 114.01C318.315 112.284 315.986 113.97 315.424 116.125Z" fill="#FF9D45"/>
<path d="M343.428 123.52C343.99 121.364 342.785 118.744 339.619 118.93C336.453 119.117 331.471 119.555 331.471 119.555C331.206 119.555 330.672 119.83 330.569 120.121C330.514 120.428 330.85 120.924 331.077 121.064C331.077 121.064 335.203 123.907 337.869 125.633C340.536 127.36 342.865 125.675 343.428 123.52Z" fill="#FF9D45"/>
<path d="M316.926 127.171C318.051 129.094 320.74 130.09 322.846 127.707C324.952 125.324 328.166 121.468 328.166 121.468C328.354 121.279 328.541 120.713 328.406 120.425C328.219 120.168 327.641 120.047 327.384 120.119C327.384 120.119 322.467 121.043 319.369 121.719C316.271 122.394 315.81 125.247 316.926 127.171Z" fill="#FF9D45"/>
<path d="M341.927 112.474C340.802 110.55 338.115 109.556 336.009 111.939C333.903 114.321 330.687 118.176 330.687 118.176C330.499 118.364 330.312 118.94 330.449 119.221C330.636 119.477 331.214 119.589 331.471 119.527C331.471 119.527 336.388 118.602 339.486 117.925C342.584 117.247 343.053 114.399 341.927 112.474Z" fill="#FF9D45"/>
<path d="M336.733 132.399C338.644 131.267 339.634 128.563 337.265 126.445C334.897 124.326 331.064 121.091 331.064 121.091C330.876 120.902 330.314 120.713 330.027 120.851C329.772 121.03 329.652 121.621 329.723 121.879C329.723 121.879 330.642 126.826 331.313 129.943C331.985 133.059 334.82 133.523 336.733 132.399Z" fill="#FF9D45"/>
<path d="M322.124 107.245C320.211 108.377 319.223 111.082 321.592 113.201C323.96 115.319 327.791 118.553 327.791 118.553C327.979 118.742 328.551 118.93 328.83 118.795C329.085 118.606 329.196 118.025 329.134 117.766C329.134 117.766 328.215 112.82 327.542 109.703C326.869 106.586 324.037 106.122 322.124 107.245Z" fill="#FF9D45"/>
<path d="M331.201 122.843C332.877 121.858 333.441 119.692 332.462 118.007C331.483 116.321 329.33 115.753 327.655 116.738C325.979 117.723 325.414 119.888 326.393 121.574C327.373 123.26 329.525 123.828 331.201 122.843Z" fill="white"/>
<path d="M128.353 75.5684C124.482 76.2872 123.29 82.4224 126.054 84.9222C118.348 87.5106 119.725 98.1285 122.922 102.736C125.409 106.32 145.867 105.894 147.344 102.339C148.822 98.7851 150.857 85.6184 142.992 83.9544C145.992 80.7113 143.843 75.8042 140.981 74.81L138.864 70.2142L128.353 75.5684Z" fill="#B31812"/>
<path d="M135.753 89.1671C117.624 89.1671 89.772 115.789 75.3339 136.804L91.9005 157.304C105.75 147.181 118.577 134.74 118.577 134.74L121.656 151.405H150.536C156.256 132.527 155.708 89.1671 135.753 89.1671Z" fill="#FFE0C7"/>
<path d="M355.507 200.732L333.28 200.794L328.495 200.806L326.634 200.811L326.85 179.738L328.266 179.713L341.091 179.496L354.425 160.779L355.507 200.732Z" fill="#FFE0C7"/>
<g style="mix-blend-mode:multiply" opacity="0.4">
<path d="M333.28 200.794L328.495 200.806L328.266 179.713L333.28 200.794Z" fill="#FF9D45"/>
</g>
<path d="M167.208 166.213L328.105 164.769L328.493 200.811L135.247 200.66L167.208 166.213Z" fill="#1271B3"/>
<path d="M135.753 89.1671C150.337 89.1671 174.718 95.9476 190.259 108.222L178.18 128.379L147.425 123.245L135.753 89.1671Z" fill="#FFE0C7"/>
<path d="M328.307 183.513H151.157" stroke="#0E5587" stroke-width="2" stroke-miterlimit="10"/>
<path d="M289.201 12.712H219.585C212.694 12.712 207.107 18.3324 207.107 25.2656V188.26C207.107 195.193 212.694 200.813 219.585 200.813H289.201C296.093 200.813 301.679 195.193 301.679 188.26V25.2656C301.679 18.3324 296.093 12.712 289.201 12.712Z" fill="#54B5C2"/>
<path d="M284.455 12.712H214.839C207.947 12.712 202.361 18.3324 202.361 25.2656V188.26C202.361 195.193 207.947 200.813 214.839 200.813H284.455C291.346 200.813 296.933 195.193 296.933 188.26V25.2656C296.933 18.3324 291.346 12.712 284.455 12.712Z" fill="#7FD1D9"/>
<path d="M292.335 188.258V25.2655C292.335 20.8862 288.806 17.3361 284.453 17.3361L214.837 17.3361C210.484 17.3361 206.955 20.8862 206.955 25.2655V188.258C206.955 192.637 210.484 196.187 214.837 196.187H284.453C288.806 196.187 292.335 192.637 292.335 188.258Z" fill="white"/>
<path d="M220.954 27.3163H278.339C279.175 27.3163 279.976 27.6502 280.567 28.2446C281.158 28.839 281.49 29.6452 281.49 30.4858V111.727C281.49 112.568 281.158 113.374 280.567 113.968C279.976 114.563 279.175 114.897 278.339 114.897H220.954C220.119 114.897 219.317 114.563 218.727 113.968C218.136 113.374 217.804 112.568 217.804 111.727V30.4858C217.804 29.6454 218.136 28.8395 218.727 28.2452C219.318 27.6509 220.119 27.3168 220.954 27.3163Z" fill="#FFE0C7"/>
<path d="M232.506 65.0373H223.287V74.3119H232.506V65.0373Z" fill="white"/>
<path d="M246.378 65.0373H237.159V74.3119H246.378V65.0373Z" fill="white"/>
<path d="M260.248 65.0373H251.029V74.3119H260.248V65.0373Z" fill="white"/>
<path d="M274.12 65.0373H264.901V74.3119H274.12V65.0373Z" fill="white"/>
<path d="M75.334 136.804C56.4907 150.424 26.8307 193.497 26.8307 193.497C26.8307 193.497 18.915 193.848 8.59695 198.606C4.47124 200.509 9.17267 200.811 13.2121 200.811H28.4022C31.7496 200.811 35.5059 198.636 41.8126 195.216C48.5375 191.571 74.19 175.217 91.8968 157.295L75.334 136.804Z" fill="#FFC692"/>
<path d="M285.18 174.067L255.659 200.811L243.141 186.126L240.403 182.913L238.074 180.179L253.765 166.213L256.117 168.888L262.373 175.999L285.18 174.067Z" fill="#FFE0C7"/>
<g style="mix-blend-mode:multiply" opacity="0.4">
<path d="M256.117 168.888L255.952 169.111L243.141 186.126L240.403 182.913L256.117 168.888Z" fill="#FF9D45"/>
</g>
<path d="M320.082 200.806L319.767 164.951" stroke="#0E5587" stroke-width="2" stroke-miterlimit="10"/>
<path d="M131.892 91.1801C132.025 88.7483 132.653 77.6493 132.653 77.6493L137.743 80.8867C137.743 80.8867 139.117 88.2936 139.554 90.6971C140.044 93.3686 137.975 94.593 135.963 94.7213C133.951 94.8496 131.74 93.8931 131.892 91.1801Z" fill="#FFC692"/>
<g style="mix-blend-mode:multiply" opacity="0.65">
<path d="M135.67 83.1922L138.763 86.4221L138.08 82.7432C137.57 83.0035 136.559 83.2299 135.67 83.1922Z" fill="#FFAF99"/>
</g>
<path d="M139.359 74.2232C139.59 77.7682 140.649 84.0336 135.67 83.1884L132.454 81.1169L129.09 76.938L132.775 72.663L137.838 71.78L139.359 74.2232Z" fill="#FFC692"/>
<path d="M137.518 72.9252C136.364 75.4401 133.891 76.5777 132.859 76.5513C131.284 75.0986 129.197 78.4379 132.541 79.717L132.376 82.6356C132.376 82.6356 129.458 81.6923 128.362 75.5684C126.675 66.1353 142.512 65.2524 140.991 74.8137C140.981 74.81 139.914 76.9965 137.518 72.9252Z" fill="#B31812"/>
<path d="M121.66 151.405C114.826 163.007 106.404 179.719 116.381 192.037C118.809 195.025 121.96 197.334 125.533 198.742C131.243 200.977 137.76 201.228 143.723 199.657C150.099 197.976 154.876 194.329 159.086 189.361C163.813 183.787 167.452 177.408 171.493 171.341C175.59 165.19 179.61 158.986 183.553 152.729C186.741 147.667 189.89 142.587 192.977 137.464L235.409 187.379L261.533 164.064C261.533 164.064 215.636 110.359 207.655 101.545C199.101 92.1121 184.316 92.7819 175.936 101.824C167.416 111.018 148.862 131.742 135.254 151.405H121.66Z" fill="#57A4D9"/>
<path d="M230.571 181.696L256.447 158.125" stroke="#0E5587" stroke-width="2" stroke-miterlimit="10"/>
<path d="M153.869 124.471C153.715 118.768 153.494 116.121 152.835 112.574" stroke="#B31812" stroke-width="2" stroke-miterlimit="10"/>
<path d="M130.51 158.357C131.946 156.068 133.902 153.167 135.247 151.224" stroke="#0E5587" stroke-miterlimit="10"/>
<path d="M132.117 151.05C125.998 159.804 118.239 173.761 122.213 180.198C126.283 186.801 135.753 188.069 148.728 170.167C161.895 152.003 182.484 124.188 186.66 118.662C191.418 112.367 195.495 113.301 200.279 118.891C204.557 123.886 248.261 175.895 248.261 175.895" stroke="#0E5587" stroke-width="2" stroke-miterlimit="10"/>
<path d="M118.474 135.125C119.755 134.069 124.049 129.622 124.049 129.622" stroke="#B31812" stroke-width="2" stroke-miterlimit="10"/>
</svg>
