<svg width="17" height="17" viewBox="0 0 17 17" fill="none" xmlns="http://www.w3.org/2000/svg">
<rect x="0.574219" y="0.735077" width="16" height="16" rx="3.90646" fill="#E43958"/>
<g clip-path="url(#clip0_259_582)">
<path d="M7.15274 5.39379C7.05432 5.49224 6.99902 5.62576 6.99902 5.76498C6.99902 5.9042 7.05432 6.03772 7.15274 6.13618L9.75163 8.73507L7.15274 11.334C7.05711 11.433 7.00419 11.5656 7.00538 11.7033C7.00658 11.8409 7.0618 11.9726 7.15914 12.0699C7.25648 12.1673 7.38817 12.2225 7.52583 12.2237C7.66349 12.2249 7.79611 12.172 7.89513 12.0763L10.8652 9.10626C10.9636 9.0078 11.0189 8.87428 11.0189 8.73507C11.0189 8.59585 10.9636 8.46233 10.8652 8.36387L7.89513 5.39379C7.79668 5.29536 7.66316 5.24007 7.52394 5.24007C7.38472 5.24007 7.2512 5.29536 7.15274 5.39379Z" fill="white"/>
</g>
<defs>
<clipPath id="clip0_259_582">
<rect width="8.40045" height="8.40045" fill="white" transform="translate(4.37402 4.53486)"/>
</clipPath>
</defs>
</svg>
