<svg width="380" height="322" viewBox="0 0 380 322" fill="none" xmlns="http://www.w3.org/2000/svg">
<g clip-path="url(#clip0_35_3)">
<path d="M66.5496 321.825C-4.36649 321.825 -9.96135 245.94 21.9784 178.223C46.8108 125.571 120.887 60.5559 207.703 127.569C253.249 162.724 301.231 164.864 342.823 203.248C385.584 242.712 399.514 321.825 336.27 321.825H66.5496Z" fill="#2B2D42"/>
<path d="M242.013 229.742H234.566V238.388H242.013V229.742Z" fill="#7CA2E8"/>
<path d="M252.874 229.742H245.426V238.388H252.874V229.742Z" fill="#7D71B5"/>
<path d="M116.856 234.066H109.408V242.712H116.856V234.066Z" fill="#FF8F71"/>
<path d="M126.179 240.033H118.731V248.679H126.179V240.033Z" fill="#7CA2E8"/>
<path d="M201.19 140.961H193.456V149.941H201.19V140.961Z" fill="#FFE9B2"/>
<path d="M190.055 140.961H182.32V149.941H190.055V140.961Z" fill="#FF8F71"/>
<path d="M172.068 135.516H101.534V226.811H172.068V135.516Z" fill="white"/>
<path d="M118.03 142.233H115.938V144.329H118.03V142.233Z" fill="#7CA2E8"/>
<path d="M162.521 142.555H121.104V144.008H162.521V142.555Z" fill="#B17F88"/>
<path d="M118.03 146.128H115.938V148.224H118.03V146.128Z" fill="#7CA2E8"/>
<path d="M155.368 146.449H121.104V147.902H155.368V146.449Z" fill="#FF8F71"/>
<path d="M118.03 150.023H115.938V152.118H118.03V150.023Z" fill="#7CA2E8"/>
<path d="M159.036 150.344H121.104V151.797H159.036V150.344Z" fill="#AACFFD"/>
<path d="M118.03 153.917H115.938V156.013H118.03V153.917Z" fill="#7CA2E8"/>
<path d="M141.419 154.239H121.104V155.692H141.419V154.239Z" fill="#7D71B5"/>
<path d="M162.392 204.326H123.696" stroke="#7CA2E8" stroke-width="4" stroke-miterlimit="10"/>
<path d="M162.392 207.919H123.696" stroke="#7CA2E8" stroke-width="4" stroke-miterlimit="10"/>
<path d="M162.392 211.51H142.032" stroke="#7CA2E8" stroke-width="4" stroke-miterlimit="10"/>
<path d="M145.431 186.281C146.516 184.338 146.944 182.093 146.648 179.886C146.352 177.678 145.35 175.626 143.79 174.038L136.46 181.256L145.431 186.281Z" fill="#AACFFD"/>
<path d="M143.791 174.038C141.944 172.154 139.446 171.054 136.812 170.963C134.178 170.873 131.61 171.801 129.64 173.554L136.46 181.256L143.791 174.038Z" fill="#FF8F71"/>
<path d="M145.431 186.281L136.46 181.249L142.23 189.775C143.552 188.873 144.647 187.678 145.431 186.281Z" fill="#7D71B5"/>
<path d="M126.181 181.216C126.181 181.228 126.181 181.239 126.181 181.251C126.181 183.122 126.69 184.958 127.653 186.561C128.616 188.164 129.997 189.474 131.647 190.35C133.297 191.227 135.154 191.636 137.019 191.535C138.884 191.434 140.686 190.826 142.232 189.777L136.462 181.251L126.181 181.216Z" fill="#7CA2E8"/>
<path d="M129.64 173.549C128.555 174.509 127.687 175.689 127.09 177.011C126.494 178.332 126.184 179.765 126.181 181.216L136.453 181.251L129.64 173.549Z" fill="#FFE9B2"/>
<path d="M140.411 174.516L146.955 167.386H163.024" stroke="#703C3C" stroke-miterlimit="10"/>
<path d="M129.638 177.399L123.308 173.027H115" stroke="#703C3C" stroke-miterlimit="10"/>
<path d="M131.8 187.569L129.638 192.784H115" stroke="#703C3C" stroke-miterlimit="10"/>
<path d="M143.211 187.569L147.685 193.698H163.025" stroke="#703C3C" stroke-miterlimit="10"/>
<path d="M143.211 179.338L150.06 181.716H163.025" stroke="#703C3C" stroke-miterlimit="10"/>
<path d="M123.4 170.951H115V171.471H123.4V170.951Z" fill="#5677BB"/>
<path d="M157.685 165.624H149.285V166.144H157.685V165.624Z" fill="#5677BB"/>
<path d="M160.118 179.897H151.718V180.417H160.118V179.897Z" fill="#5677BB"/>
<path d="M159.21 191.81H149.127V192.33H159.21V191.81Z" fill="#5677BB"/>
<path d="M123.4 190.375H115V190.894H123.4V190.375Z" fill="#5677BB"/>
<path d="M183.079 235.806H132.61V294.64H183.079V235.806Z" fill="white"/>
<path d="M167.241 254.318H164.733V265.555H167.241V254.318Z" fill="#FF8F71"/>
<path d="M172.253 249.437H169.746V265.557H172.253V249.437Z" fill="#7D71B5"/>
<path d="M177.266 251.988H174.758V265.56H177.266V251.988Z" fill="#7CA2E8"/>
<path d="M137.694 276.673H160.929" stroke="#B17F88" stroke-width="4" stroke-miterlimit="10"/>
<path d="M137.694 279.336H160.929" stroke="#B17F88" stroke-width="4" stroke-miterlimit="10"/>
<path d="M137.694 281.999H149.918" stroke="#B17F88" stroke-width="4" stroke-miterlimit="10"/>
<path d="M154.382 264.075C153.08 265.17 151.532 265.932 149.872 266.297C148.212 266.662 146.488 266.619 144.848 266.172C143.208 265.724 141.701 264.885 140.455 263.727C139.209 262.569 138.262 261.125 137.694 259.52L143.303 257.499C143.545 258.2 143.954 258.831 144.494 259.338C145.033 259.845 145.688 260.213 146.401 260.41C147.114 260.607 147.865 260.628 148.588 260.47C149.311 260.312 149.984 259.98 150.551 259.503L154.382 264.075Z" fill="#7D71B5"/>
<path d="M149.038 245.553L148.234 251.468C148.03 251.441 147.824 251.427 147.618 251.426C146.889 251.425 146.171 251.599 145.524 251.934C144.876 252.268 144.318 252.753 143.896 253.347C143.474 253.942 143.199 254.629 143.096 255.351C142.993 256.074 143.064 256.81 143.303 257.499L137.694 259.52C137.133 257.93 136.96 256.228 137.191 254.557C137.422 252.886 138.05 251.295 139.021 249.918C139.993 248.54 141.28 247.416 142.775 246.64C144.27 245.864 145.929 245.458 147.612 245.457C148.089 245.457 148.566 245.489 149.038 245.553Z" fill="#FFE9B2"/>
<path d="M158.124 255.404L152.175 255.741C152.115 254.682 151.688 253.676 150.97 252.897C150.251 252.117 149.284 251.612 148.234 251.468L149.038 245.553C151.459 245.884 153.689 247.047 155.346 248.845C157.004 250.642 157.986 252.961 158.124 255.404Z" fill="#FF8F71"/>
<path d="M158.14 256C158.142 257.54 157.806 259.061 157.157 260.456C156.507 261.852 155.56 263.087 154.382 264.075L150.551 259.503C151.062 259.074 151.473 258.538 151.755 257.933C152.037 257.328 152.183 256.668 152.182 256C152.182 255.913 152.182 255.823 152.182 255.741L158.131 255.404C158.137 255.601 158.14 255.8 158.14 256Z" fill="#7CA2E8"/>
<path d="M299.519 136.234H232.194V218.563H299.519V136.234Z" fill="white"/>
<path d="M287.061 150.42H273.735V165.889H287.061V150.42Z" fill="#7D71B5"/>
<path d="M288.283 148.885H274.957V164.354H288.283V148.885Z" fill="#FFE9B2"/>
<path d="M276.004 154.702H278.593L280.55 157.569L284.526 151.685H287.236L280.518 161.556L276.004 154.702Z" fill="#FF8F71"/>
<path d="M239.815 197.972L251.983 192.229L262.747 202.896L274.681 196.097L284.275 203.599L290.945 204.198" stroke="#7CA2E8" stroke-width="3" stroke-miterlimit="10"/>
<path d="M239.815 200.786L250.345 203.247L260.525 197.738L272.108 201.372L285.796 198.911L290.945 193.753" stroke="#FF8F71" stroke-width="3" stroke-miterlimit="10"/>
<path d="M239.815 208.874H290.945" stroke="#B17F88" stroke-width="3" stroke-miterlimit="10"/>
<path d="M260.232 148.834H240.04V152.053H260.232V148.834Z" fill="#7CA2E8"/>
<path d="M262.2 148.834H260.234V152.053H262.2V148.834Z" fill="#FF8F71"/>
<path d="M258.266 155.779H240.04V158.997H258.266V155.779Z" fill="#7CA2E8"/>
<path d="M260.234 155.779H256.042V158.997H260.234V155.779Z" fill="#FF8F71"/>
<path d="M256.299 162.723H240.04V165.942H256.299V162.723Z" fill="#7CA2E8"/>
<path d="M258.268 162.723H253.249V165.942H258.268V162.723Z" fill="#FF8F71"/>
<path d="M256.299 169.668H240.04V172.887H256.299V169.668Z" fill="#7CA2E8"/>
<path d="M258.268 169.668H253.936V172.887H258.268V169.668Z" fill="#FF8F71"/>
<path d="M255.346 176.613H240.04V179.832H255.346V176.613Z" fill="#7CA2E8"/>
<path d="M258.267 176.613H250.371V179.832H258.267V176.613Z" fill="#FF8F71"/>
<path d="M206.972 183.29L205.722 183.409L200.837 183.868C200.894 180.6 201.262 176.485 203.14 175.504C205.361 174.336 206.933 183.224 206.972 183.29Z" fill="#293258"/>
<path d="M208.21 186.484C207.909 185.211 206.526 179.404 206.526 179.404L204.132 181.601C204.132 181.601 204.102 185.646 204.096 186.955C204.096 188.414 205.302 188.863 206.383 188.74C207.463 188.618 208.545 187.903 208.21 186.484Z" fill="#FCC8B6"/>
<g style="mix-blend-mode:multiply" opacity="0.4">
<path d="M205.446 182.619L204.11 184.622L204.125 182.615C204.559 182.717 205.011 182.718 205.446 182.619Z" fill="#FDA18A"/>
</g>
<path d="M202.64 178.233C202.853 180.13 202.883 183.545 205.446 182.619L206.955 181.221L207.628 178.11L205.984 176.783L202.506 177.041L202.64 178.233Z" fill="#FCC8B6"/>
<path d="M211.857 182.812L206.048 183.373C206.315 182.383 206.467 181.366 206.499 180.341C207.135 179.863 207.095 179.202 206.802 178.937C206.742 178.891 206.673 178.858 206.6 178.841C206.526 178.824 206.45 178.823 206.376 178.837C206.302 178.852 206.232 178.882 206.17 178.926C206.109 178.97 206.057 179.026 206.019 179.092C204.891 179.081 203.118 178.684 202.536 177.821C202.536 177.821 201.694 176.421 202.984 175.589C205.318 174.083 207.366 175.057 208.903 176.549C209.829 177.442 211.184 179.615 211.857 182.812Z" fill="#293258"/>
<path d="M213.486 219.041C210.872 213.086 200.713 202.119 194.105 194.401C191.137 191.088 189.433 189.204 188.369 188.098C187.805 187.514 187.483 187.608 187.798 188.343C188.046 188.897 188.323 189.438 188.629 189.963L185.795 186.829C185.166 186.136 184.842 186.248 185.244 187.087C185.56 187.743 186.307 189.312 186.307 189.312C186.307 189.312 185.202 188.015 184.407 187.032C183.743 186.214 183.333 186.377 183.732 187.259C184.068 188.004 184.998 190.098 184.998 190.098C184.998 190.098 184.141 188.845 183.696 188.212C183.215 187.527 182.894 187.679 183.19 188.614C187.878 203.446 195.446 218.924 202.015 226.273C204.804 229.394 209.7 229.435 212.439 226.94C214.605 224.962 214.643 221.661 213.486 219.041Z" fill="#F5BEA2"/>
<path d="M229.848 312.207L220.474 321.823H216.784L218.764 320.431L220.183 313.893L216.499 306.178L215.693 304.489L223.872 299.29L225.082 301.907L225.859 303.588L229.848 312.207Z" fill="#FF8F71"/>
<path d="M187.269 321.823L195.919 316.615L195.303 308.868L195.154 306.993L204.79 307.234L204.883 308.868L204.982 310.669L205.607 321.823H187.269Z" fill="#FF8F71"/>
<path d="M214.79 218.817C220.174 228.72 216.007 247.826 212.727 265.15L227.535 300.687L213.789 307.527L199.824 278.832L203.111 249.87L214.79 218.817Z" fill="#995F6A"/>
<path d="M220.796 304.04L203.572 263.575" stroke="#492B48" stroke-miterlimit="10"/>
<g style="mix-blend-mode:multiply" opacity="0.4">
<path d="M225.859 303.588L216.499 306.178L225.082 301.907L225.859 303.588Z" fill="#E8795B"/>
</g>
<path d="M198.174 219.225C198.174 219.225 190.117 254.591 189.354 258.529C188.59 262.466 188.303 266.525 188.573 272.322C188.842 278.119 191.909 308.873 191.909 308.873H207.392C207.392 308.873 205.858 272.947 205.713 270.532C205.568 268.117 205.649 265.564 206.731 261.969C209.195 253.784 221.938 234.181 215.004 216.97L198.174 219.225Z" fill="#B17F88"/>
<path d="M199.1 308.868C198.694 302.278 197.486 273.651 197.405 270.557C197.323 267.462 196.988 266.533 197.936 262.217C198.372 260.223 201.832 247.37 205.02 236.348C207.13 229.059 208.102 221.89 207.562 218.29" stroke="#633E45" stroke-miterlimit="10"/>
<g style="mix-blend-mode:multiply" opacity="0.4">
<path d="M204.982 310.669L195.303 308.868H204.883L204.982 310.669Z" fill="#E8795B"/>
</g>
<path d="M188.503 305.793H209.013" stroke="#633E45" stroke-miterlimit="10"/>
<path d="M212.179 304.922L227.535 297.266" stroke="#492B48" stroke-miterlimit="10"/>
<path d="M216.875 216.846C214.857 212.437 215.775 201.507 215.488 196.618C215.201 191.73 210.403 185.563 205.598 186.407C198.661 187.628 196.539 202.846 193.716 216.704L195.916 222.265H199.458L203.618 230.219C205.274 228.83 207.305 225.815 209.186 222.265H213.038C215.297 222.263 218.64 220.703 216.875 216.846Z" fill="#ED9F7D"/>
<path d="M196.539 213.586C198.243 208.719 200.977 201.986 203.112 198.199" stroke="#703C3C" stroke-miterlimit="10"/>
<path d="M170.851 186.523L179.584 198.435C179.648 198.523 179.739 198.587 179.843 198.619C179.946 198.651 180.057 198.649 180.16 198.613L191.447 194.621C191.521 194.594 191.589 194.551 191.644 194.494C191.698 194.436 191.739 194.367 191.762 194.291C191.785 194.215 191.79 194.135 191.777 194.057C191.763 193.979 191.731 193.905 191.684 193.842L183.344 182.654C183.283 182.575 183.2 182.516 183.105 182.484C183.011 182.453 182.909 182.45 182.813 182.477L171.124 185.745C171.047 185.768 170.976 185.809 170.918 185.864C170.859 185.92 170.815 185.988 170.788 186.064C170.762 186.14 170.754 186.221 170.764 186.301C170.775 186.381 170.805 186.457 170.851 186.523Z" fill="#5677BB"/>
<path d="M172.147 186.531L182.73 183.57L190.414 193.879L180.186 197.497L172.147 186.531Z" fill="#AACFFD"/>
<path d="M204.1 222.263C201.061 216.514 190.133 206.315 182.985 199.099C179.783 196.01 177.948 194.255 176.805 193.23C176.202 192.697 175.892 192.805 176.256 193.515C176.543 194.05 176.858 194.57 177.2 195.071C176.795 194.684 175.18 192.419 174.898 191.572C174.824 191.352 173.669 189.526 173.596 191.75C173.465 195.815 174.732 200.698 176.155 203.854C180.011 212.394 187.427 224.743 193.186 230.315C196.197 233.227 201.08 232.909 203.636 230.223C205.642 228.095 205.44 224.795 204.1 222.263Z" fill="#FCC8B6"/>
<path d="M173.13 189.633L176.331 193.975L173.957 189.118L173.13 189.633Z" fill="#5677BB"/>
<path d="M209.264 222.401C211.154 218.615 214.995 209.449 215.587 205.048" stroke="#703C3C" stroke-miterlimit="10"/>
<path d="M212.757 156.943L190.916 156.898C189.815 156.897 188.759 157.333 187.979 158.111C187.2 158.889 186.76 159.946 186.757 161.048V164.796C186.755 165.796 187.114 166.764 187.766 167.521C188.419 168.279 189.322 168.775 190.31 168.919L191.004 173.833L195.168 168.971L212.739 169.006C213.284 169.008 213.824 168.902 214.328 168.694C214.832 168.486 215.29 168.181 215.677 167.795C216.063 167.41 216.369 166.953 216.579 166.448C216.788 165.944 216.897 165.404 216.898 164.858V161.109C216.899 160.563 216.793 160.022 216.585 159.517C216.378 159.012 216.073 158.553 215.689 158.167C215.304 157.78 214.847 157.472 214.344 157.262C213.841 157.052 213.302 156.944 212.757 156.943Z" fill="#7CA2E8"/>
<path d="M190.641 160.074L212.624 160.119" stroke="white" stroke-width="2" stroke-miterlimit="10"/>
<path d="M190.636 162.965L212.617 163.009" stroke="white" stroke-width="2" stroke-miterlimit="10"/>
<path d="M190.629 165.857L206.698 165.889" stroke="white" stroke-width="2" stroke-miterlimit="10"/>
<path d="M75.4919 184.031C75.5982 182.644 76.1012 176.311 76.1012 176.311L78.9792 178.228C78.9792 178.228 79.6717 182.475 79.8931 183.849C80.1393 185.382 78.9367 186.054 77.7819 186.102C76.6272 186.15 75.3715 185.572 75.4919 184.031Z" fill="#FCC8B6"/>
<g style="mix-blend-mode:multiply" opacity="0.4">
<path d="M77.7627 179.514L79.4966 181.4L79.153 179.292C78.7124 179.471 78.2369 179.547 77.7627 179.514Z" fill="#FDA18A"/>
</g>
<path d="M79.9926 174.441C80.0811 176.469 80.701 180.094 77.7627 179.514L75.9474 178.297L74.7324 175.138L76.2414 173.472L79.9926 174.441Z" fill="#FCC8B6"/>
<path d="M77.6829 176.011C77.9327 175.884 77.814 175.204 77.7803 175.014C77.7148 174.649 77.8104 174.361 78.17 174.5C78.889 174.78 79.1706 174.745 79.764 174.654C80.8514 174.487 81.466 173.623 81.597 172.539C81.6732 171.906 81.8291 170.82 80.4264 171.334C79.7498 171.583 78.6553 171.533 77.4669 171.274C76.2785 171.015 75.6143 171.096 75.1007 171.753C74.8457 172.078 74.9519 172.347 74.789 172.575C74.6916 172.709 74.4702 172.795 74.1974 173.107C73.8149 173.549 73.7263 174.608 74.6402 176.606C75.0174 177.429 75.6869 178.142 75.949 178.293C76.0868 178.334 76.2318 178.346 76.3743 178.326C76.5167 178.306 76.6532 178.255 76.7744 178.178C76.9515 178.043 77.0028 177.534 77.0028 177.5C77.0028 177.353 76.8257 177.246 76.7212 177.145C76.158 176.586 76.367 175.987 76.5707 175.811C76.8434 175.575 77.2632 175.752 77.497 175.955C77.5191 175.981 77.5484 176.001 77.5815 176.011C77.6145 176.021 77.6498 176.021 77.6829 176.011Z" fill="#293258"/>
<path d="M68.0322 220.579L63.8648 254.469C63.8648 254.469 56.3643 241.028 54.7048 237.127C53.0453 233.225 52.3917 229.437 52.3173 227.05C52.1636 221.743 52.6266 216.437 53.697 211.237L66.1619 214.016L66.8899 216.574L68.0322 220.579Z" fill="#FCC8B6"/>
<path d="M137.142 187.82C139.234 188.959 138.222 191.138 137.539 192.232C136.855 193.327 135.001 193.893 133.407 193.391C131.131 197.037 118.556 212.971 113.142 217.188C108.22 221.028 103.738 220.301 94.937 214.454C94.3408 214.058 93.7232 213.638 93.0845 213.194L103.376 198.038C104.898 199.61 106.27 201.118 107.469 202.44C116.114 195.149 132.397 187.429 138.309 185.729C142.79 184.441 140.029 186.043 137.142 187.82Z" fill="#FCC8B6"/>
<path d="M77.998 183.664C63.7708 183.664 55.615 200.923 53.7075 211.235L66.1707 214.016L68.0356 220.581H88.0011L89.7722 210.822C90.9364 211.675 92.0392 212.464 93.0806 213.191L103.372 198.034C96.9752 191.427 87.9479 183.664 77.998 183.664Z" fill="#FFE9B2"/>
<g style="mix-blend-mode:multiply" opacity="0.4">
<path d="M103.376 198.038L94.937 214.454C94.3408 214.058 93.7232 213.638 93.0845 213.194L103.376 198.038Z" fill="#FDA18A"/>
</g>
<g style="mix-blend-mode:multiply" opacity="0.4">
<path d="M66.8917 216.573L53.7007 211.235L66.1656 214.016L66.8917 216.573Z" fill="#FDA18A"/>
</g>
<path d="M75.4955 321.823H56.1641L57.5898 313.123L57.8926 311.271L58.0644 310.227L67.4353 309.851L67.2387 311.271L66.5834 316.026L75.4955 321.823Z" fill="#293258"/>
<path d="M117.975 321.823H98.6438L96.5539 312.993L96.1466 311.271L95.8101 309.851H106.557L106.948 311.271L108.195 315.806L117.975 321.823Z" fill="#293258"/>
<g style="mix-blend-mode:multiply" opacity="0.77">
<path d="M67.2387 311.271L57.5898 313.123L57.8927 311.271H67.2387Z" fill="#495CA5"/>
</g>
<g style="mix-blend-mode:multiply" opacity="0.77">
<path d="M106.948 311.271L96.5538 312.993L96.1465 311.271H106.948Z" fill="#495CA5"/>
</g>
<path d="M88.0015 220.579C93.5486 233.78 109.224 311.272 109.224 311.272H93.1341L77.9311 246.864L70.0905 311.272H53.7026C53.7026 311.272 62.4695 235.304 68.0325 220.579H88.0015Z" fill="#495CA5"/>
<path d="M76.0271 238.874L65.4448 311.272" stroke="#2E3C6E" stroke-miterlimit="10"/>
<path d="M84.3633 234.57L101.909 311.272" stroke="#2E3C6E" stroke-miterlimit="10"/>
<path d="M77.9558 247.238L75.7969 238.173" stroke="#2E3C6E" stroke-miterlimit="10"/>
<path d="M53.2915 308.714H70.7367" stroke="#2E3C6E" stroke-miterlimit="10"/>
<path d="M91.7168 308.714H109.475" stroke="#2E3C6E" stroke-miterlimit="10"/>
<path d="M66.1214 214.147L63.9961 206.379" stroke="#ED9F7D" stroke-miterlimit="10"/>
<path d="M89.8059 210.959C87.8241 209.456 83.9702 204.688 83.9702 204.688" stroke="#ED9F7D" stroke-miterlimit="10"/>
<path d="M107.412 202.378C106.761 202.998 106.164 203.671 105.627 204.392" stroke="#E3906D" stroke-miterlimit="10"/>
<path d="M335.433 321.823H333.295L317.364 282.754H320.735L335.433 321.823Z" fill="#B17F88"/>
<path d="M309.734 282.754L293.805 321.823H291.666L306.364 282.754H309.734Z" fill="#B17F88"/>
<path d="M330.495 280.117L342.824 238.523L330.495 280.117Z" fill="white"/>
<path d="M330.63 280.182L342.958 238.59L341.92 238.456L329.592 280.049L330.63 280.182Z" fill="#B17F88"/>
<path d="M319.397 251.399H340.165C340.42 251.399 340.667 251.316 340.869 251.161C341.071 251.007 341.217 250.79 341.285 250.544L345.181 236.33C345.228 236.157 345.235 235.976 345.201 235.8C345.167 235.624 345.093 235.458 344.985 235.316C344.877 235.173 344.737 235.058 344.577 234.978C344.417 234.899 344.24 234.857 344.062 234.857H319.397V251.399Z" fill="#151549"/>
<path d="M327.721 282.755H299.384C298.569 282.755 297.787 282.431 297.211 281.854C296.635 281.276 296.311 280.493 296.311 279.677H330.796C330.796 280.081 330.716 280.482 330.562 280.855C330.407 281.229 330.181 281.568 329.895 281.854C329.61 282.14 329.271 282.367 328.898 282.521C328.525 282.676 328.125 282.756 327.721 282.755Z" fill="#151549"/>
<path d="M269.492 321.823L278.048 316.869L276.781 311.123L276.401 309.397L285.664 306.959L286.195 309.537L286.623 311.624L288.726 321.823H269.492Z" fill="#7D71B5"/>
<g style="mix-blend-mode:multiply" opacity="0.37">
<path d="M286.623 311.624L276.781 311.123L286.195 309.537L286.623 311.624Z" fill="#495CA5"/>
</g>
<path d="M324.602 257.508C330.491 265.826 328.973 279.668 318.296 279.668H285.507L290.289 308.847L273.018 311.757C273.018 311.757 267.577 276.943 266.737 270.78C266.029 265.59 270.035 261.105 282.518 261.105C295 261.105 324.602 257.508 324.602 257.508Z" fill="#7CA2E8"/>
<path d="M281.781 310.282L275.772 271.646C275.772 271.646 303.344 271.332 309.656 271.016C315.969 270.7 321.363 270.168 320.283 264.302C319.203 258.436 318.631 256.231 318.631 256.231" stroke="#495CA5" stroke-miterlimit="10"/>
<path d="M260.936 298.229L258.987 301.838L257.886 303.873L253.104 312.702L235.924 304.031L246.866 303.625L250.486 297.299L251.935 294.764L260.936 298.229Z" fill="#7D71B5"/>
<g style="mix-blend-mode:multiply" opacity="0.37">
<path d="M258.982 301.836L257.882 303.873L250.491 297.299L258.982 301.836Z" fill="#495CA5"/>
</g>
<path d="M313.225 226.136C326.471 224.406 348.606 248.289 347.503 261.978L291.891 255.031C291.414 248.184 300.742 227.769 313.225 226.136Z" fill="#FF8F71"/>
<path d="M328.447 250.72L323.589 245.863" stroke="#C44E1A" stroke-miterlimit="10"/>
<path d="M347.503 261.971C346.211 271.02 330.59 267.178 309.656 254.55C301.277 249.497 302.319 250.409 310.474 250.131C318.296 249.864 349.394 248.709 347.503 261.971Z" fill="#FCC8B6"/>
<path d="M284.094 265.04L262.976 303.971L246.491 295.161C246.491 295.161 261.485 268.339 265.293 261.263C269.1 254.187 274.281 253.871 284.488 256.545L303.406 261.107L284.094 265.04Z" fill="#AACFFD"/>
<path d="M280.875 239.421L310.894 240.155L315.722 265.223L281.778 257.753L280.875 239.421Z" fill="#495CA5"/>
<path d="M320.068 260.329L315.722 265.223L314.174 257.185L312.802 250.056L310.896 240.157L311.831 240.189L313.76 250.031L315.155 257.159L315.281 257.803L316.284 262.924L319.259 259.92L320.068 260.329Z" fill="white"/>
<path d="M319.258 259.916L316.282 262.92L315.28 257.799C316.635 258.55 317.961 259.256 319.258 259.916Z" fill="#151549"/>
<path d="M297.331 250.297C297.232 251.124 296.164 251.674 294.946 251.527C293.727 251.38 292.82 250.592 292.918 249.767C293.015 248.942 294.085 248.39 295.303 248.535C296.522 248.681 297.436 249.471 297.331 250.297Z" fill="white"/>
<path d="M254.147 299.253C254.147 299.253 269.178 271.724 272.162 266.219C275.147 260.713 277.986 260.871 283.937 262.365C289.888 263.859 291.866 264.332 291.866 264.332" stroke="#5677BB" stroke-miterlimit="10"/>
<path d="M247.845 292.734L264.357 301.425" stroke="#5677BB" stroke-miterlimit="10"/>
<path d="M315.512 226.913C315 225.712 312.659 220.242 312.659 220.242L310.677 222.808C310.677 222.808 311.334 226.787 311.548 228.074C311.789 229.508 313.057 229.744 314.098 229.438C315.14 229.133 316.08 228.244 315.512 226.913Z" fill="#FCC8B6"/>
<g style="mix-blend-mode:multiply" opacity="0.4">
<path d="M312.136 223.578L311.16 225.773L310.834 223.798C311.279 223.824 311.724 223.749 312.136 223.578Z" fill="#FDA18A"/>
</g>
<path d="M308.644 219.743C309.175 221.571 309.781 224.923 312.143 223.578L313.383 221.947L313.518 218.778L311.679 217.751L308.962 218.237L308.644 219.743Z" fill="#FCC8B6"/>
<path d="M309.102 218.929C309.961 219.77 311.394 220.136 312.054 220.049C312.784 218.995 313.767 220.169 312.897 221.15C313.195 221.986 313.441 222.066 313.441 222.066C314.755 220.469 314.504 216.825 312.088 216.136C309.973 215.535 306.835 217.458 308.702 219.953C308.879 219.63 309.014 219.286 309.102 218.929Z" fill="#293258"/>
<path d="M311.989 216.411C309.989 215.043 310.09 213.145 311.164 212.33C312.237 211.516 314.233 211.913 314.672 213.301C315.111 214.688 314.314 216.12 311.989 216.411Z" fill="#293258"/>
<path d="M272.635 309.26L289.896 306.416" stroke="#495CA5" stroke-miterlimit="10"/>
<path d="M44.1542 150.156L65.549 150.113C67.7929 150.113 69.6225 151.873 69.6225 154.056V157.615C69.6122 158.579 69.2541 159.506 68.6144 160.226C67.9747 160.946 67.0966 161.409 66.1423 161.531L65.4622 166.198L61.3887 161.584L44.1702 161.618C41.9244 161.618 40.0967 159.858 40.0967 157.677V154.116C40.0967 151.932 41.9085 150.159 44.1542 150.156Z" fill="#FF8F71"/>
<path d="M43.9082 154.643L65.4411 154.686" stroke="white" stroke-width="2" stroke-miterlimit="10"/>
<path d="M43.9014 157.39L59.6871 157.431" stroke="white" stroke-width="2" stroke-miterlimit="10"/>
</g>
<g clip-path="url(#clip1_35_3)">
<path d="M280.398 0.105957L214.503 45.5119L240.678 49.5335L268.851 53.8341L280.398 0.105957Z" fill="#FF4848"/>
<path d="M280.398 0.105957L234.587 48.5768L248.011 63.1188L243.485 49.868L280.398 0.105957Z" fill="url(#paint0_linear_35_3)"/>
<path d="M253.953 51.5511L243.485 49.868L248.011 63.1188L253.953 51.5511Z" fill="#CF2B2B"/>
<path d="M247.536 69.3833C247.501 68.6104 247.434 68.1643 247.434 68.1643L246.833 68.2387C246.833 68.2387 246.882 68.6392 246.917 69.412L247.536 69.3833Z" fill="#3A3A3A"/>
<path d="M205.306 153.33C205.672 153.19 206.038 153.049 206.358 152.925L206.147 152.378C205.415 152.659 204.638 152.959 203.906 153.24L204.117 153.788C204.483 153.647 204.895 153.489 205.306 153.33ZM208.609 151.954C209.323 151.626 210.065 151.235 210.779 150.908L210.523 150.378C209.826 150.751 209.066 151.096 208.352 151.423L208.609 151.954ZM201.796 154.578L201.631 154.012C200.882 154.248 200.132 154.484 199.32 154.692L199.485 155.258C200.234 155.022 201.047 154.814 201.796 154.578ZM197.121 155.801L197.002 155.218C196.235 155.409 195.451 155.553 194.666 155.698L194.786 156.281C195.57 156.137 196.355 155.992 197.121 155.801ZM212.897 149.725C213.576 149.307 214.318 148.916 214.979 148.452L214.677 147.939C213.998 148.358 213.319 148.777 212.64 149.195L212.897 149.725ZM192.37 156.688L192.296 156.087C191.494 156.186 190.709 156.331 189.89 156.384L189.964 156.985C190.783 156.932 191.585 156.833 192.37 156.688ZM216.998 147.15C217.659 146.685 218.321 146.221 218.964 145.711L218.616 145.216C217.972 145.726 217.311 146.19 216.696 146.637L216.998 147.15ZM187.54 157.237L187.512 156.619C186.693 156.672 185.919 156.708 185.099 156.762L185.128 157.38C185.965 157.372 186.738 157.336 187.54 157.237ZM220.85 144.198C221.448 143.706 222.074 143.15 222.7 142.595L222.306 142.117C221.726 142.655 221.082 143.165 220.501 143.703L220.85 144.198ZM182.697 157.477L182.669 156.859C181.878 156.849 181.058 156.903 180.267 156.893L180.249 157.529C181.086 157.521 181.923 157.513 182.697 157.477ZM224.487 140.963C225.067 140.425 225.63 139.841 226.193 139.257L225.771 138.843C225.208 139.427 224.645 140.011 224.065 140.549L224.487 140.963ZM177.857 157.454L177.893 156.864C177.101 156.854 176.292 156.798 175.483 156.743L175.448 157.333C176.257 157.389 177.048 157.398 177.857 157.454ZM227.8 137.432C228.345 136.803 228.845 136.191 229.344 135.579L228.877 135.183C228.377 135.795 227.878 136.406 227.332 137.036L227.8 137.432ZM173.067 157.149L173.102 156.559C172.293 156.504 171.53 156.431 170.703 156.33L170.622 156.937C171.431 156.993 172.258 157.094 173.067 157.149ZM230.871 133.681C231.353 133.023 231.835 132.366 232.271 131.726L231.775 131.393C231.339 132.032 230.857 132.69 230.375 133.347L230.871 133.681ZM168.252 156.645L168.333 156.037C167.552 155.918 166.725 155.817 165.945 155.698L165.864 156.306C166.644 156.425 167.425 156.544 168.252 156.645ZM233.653 129.726C234.072 129.04 234.536 128.337 234.955 127.651L234.413 127.336C233.995 128.021 233.576 128.707 233.157 129.392L233.653 129.726ZM163.458 155.922L163.539 155.314C162.758 155.196 161.959 155.031 161.179 154.913L161.098 155.52C161.833 155.657 162.677 155.803 163.458 155.922ZM49.2357 199.232L49.5065 198.709C48.8383 198.337 48.1067 197.937 47.4209 197.52L47.1043 198.061C47.8183 198.415 48.5041 198.833 49.2357 199.232ZM236.147 125.567C236.548 124.836 236.921 124.168 237.276 123.454L236.752 123.184C236.397 123.898 235.996 124.629 235.623 125.297L236.147 125.567ZM158.657 155.045L158.801 154.465C158.003 154.301 157.204 154.136 156.452 153.955L156.307 154.534C157.123 154.744 157.922 154.909 158.657 155.045ZM45.1031 196.682L45.4372 196.187C44.7971 195.752 44.1394 195.271 43.4817 194.79L43.1475 195.286C43.7595 195.784 44.4172 196.265 45.1031 196.682ZM153.958 154.024L154.102 153.444C153.304 153.28 152.551 153.098 151.735 152.888L151.591 153.467C152.407 153.677 153.159 153.859 153.958 154.024ZM238.371 121.251C238.726 120.537 239.063 119.778 239.355 119.036L238.786 118.784C238.494 119.526 238.138 120.239 237.783 120.953L238.371 121.251ZM149.269 152.894L149.414 152.314C148.661 152.132 147.845 151.922 147.075 151.694L146.93 152.274C147.701 152.502 148.453 152.684 149.269 152.894ZM41.2026 193.781L41.6001 193.313C40.9881 192.815 40.3761 192.317 39.7466 191.773L39.3491 192.24C39.9153 192.756 40.5449 193.3 41.2026 193.781ZM240.295 116.84C240.587 116.098 240.879 115.357 241.153 114.569L240.601 114.363C240.309 115.104 240.017 115.846 239.725 116.587L240.295 116.84ZM144.591 151.655L144.736 151.075C143.965 150.847 143.195 150.619 142.443 150.438L142.298 151.017C143.051 151.199 143.821 151.427 144.591 151.655ZM242.011 112.299C242.286 111.512 242.532 110.788 242.761 110.018L242.163 109.829C241.934 110.599 241.688 111.323 241.413 112.11L242.011 112.299ZM37.5519 190.573L37.967 190.151C37.3831 189.59 36.845 189.011 36.2612 188.449L35.8461 188.871C36.3842 189.45 36.968 190.012 37.5519 190.573ZM139.987 150.335L140.177 149.737C139.407 149.51 138.637 149.282 137.867 149.054L137.677 149.652C138.429 149.834 139.217 150.107 139.987 150.335ZM243.475 107.646C243.704 106.876 243.915 106.061 244.098 105.309L243.517 105.166C243.334 105.918 243.106 106.687 242.895 107.503L243.475 107.646ZM135.348 148.923L135.538 148.326C134.768 148.098 133.998 147.871 133.256 147.58L133.066 148.177C133.79 148.422 134.56 148.65 135.348 148.923ZM34.2142 187.088L34.6926 186.694C34.1369 186.069 33.6445 185.473 33.1979 184.858L32.7195 185.252C33.1486 185.821 33.7043 186.446 34.2142 187.088ZM130.737 147.449L130.927 146.851C130.157 146.624 129.369 146.35 128.645 146.105L128.455 146.703C129.225 146.93 129.949 147.176 130.737 147.449ZM244.675 102.99C244.84 102.192 245.069 101.423 245.188 100.643L244.608 100.499C244.443 101.297 244.26 102.049 244.094 102.846L244.675 102.99ZM31.2177 183.262L31.7137 182.913C31.2495 182.253 30.8309 181.576 30.4124 180.898L29.8989 181.201C30.3174 181.878 30.7535 182.602 31.2177 183.262ZM126.154 145.911L126.344 145.314C125.574 145.086 124.832 144.795 124.044 144.522L123.854 145.119C124.642 145.392 125.367 145.638 126.154 145.911ZM245.684 98.2496C245.85 97.4519 245.969 96.6719 246.135 95.8742L245.526 95.794C245.407 96.574 245.241 97.3717 245.122 98.1517L245.684 98.2496ZM121.571 144.373L121.779 143.821L119.479 143.03L119.271 143.581L121.571 144.373ZM28.6715 179.104L29.1851 178.802C28.8123 178.107 28.4219 177.366 28.0948 176.653L27.5637 176.91C27.9084 177.668 28.2987 178.409 28.6715 179.104ZM246.476 93.4884C246.578 92.6627 246.698 91.8826 246.817 91.1026L246.209 91.0224C246.089 91.8024 246.033 92.6105 245.868 93.4082L246.476 93.4884ZM117.017 142.772L117.224 142.22L114.924 141.429L114.716 141.98L117.017 142.772ZM27.2051 174.479C26.9941 173.931 26.7831 173.383 26.6354 172.864C26.5475 172.635 26.4771 172.453 26.4349 172.207L25.8687 172.372C25.9566 172.601 25.9812 172.801 26.0691 173.029C26.2344 173.595 26.4454 174.142 26.6564 174.69L27.2051 174.479ZM112.462 141.171L112.67 140.619L110.369 139.828L110.162 140.379L112.462 141.171ZM247.095 88.6888C247.197 87.8631 247.254 87.055 247.328 86.2925L246.737 86.258C246.663 87.0204 246.606 87.8285 246.504 88.6542L247.095 88.6888ZM107.907 139.57L108.115 139.018L105.815 138.226L105.607 138.778L107.907 139.57ZM25.7281 169.962C25.5383 169.197 25.3308 168.385 25.1409 167.62L24.557 167.74C24.7469 168.505 24.9086 169.334 25.1443 170.083L25.7281 169.962ZM247.497 83.8683C247.553 83.0602 247.609 82.2521 247.62 81.4616L247.029 81.4271C247.018 82.2175 246.962 83.0256 246.906 83.8337L247.497 83.8683ZM103.324 138.032L103.514 137.435C102.726 137.162 102.002 136.916 101.214 136.643L101.024 137.24C101.812 137.514 102.582 137.741 103.324 138.032ZM24.7084 165.27C24.5643 164.487 24.4658 163.686 24.3674 162.885L23.7659 162.959C23.8644 163.76 23.9628 164.561 24.107 165.344L24.7084 165.27ZM98.7414 136.494L98.9314 135.897C98.1436 135.624 97.419 135.378 96.6488 135.151L96.4588 135.748C97.2291 135.976 98.0169 136.249 98.7414 136.494ZM247.726 79.0093C247.764 78.1555 247.775 77.3651 247.74 76.5922L247.121 76.6209C247.093 77.3657 247.099 78.2019 247.106 79.038L247.726 79.0093ZM94.1761 135.002L94.3661 134.405C93.5959 134.177 92.808 133.904 92.0377 133.676L91.8478 134.274C92.618 134.501 93.4059 134.775 94.1761 135.002ZM24.1987 160.538C24.146 159.72 24.1566 158.929 24.1672 158.139L23.5763 158.104C23.5657 158.895 23.5727 159.731 23.6078 160.504L24.1987 160.538ZM247.754 74.1751C247.729 73.2933 247.722 72.4572 247.659 71.7476L247.04 71.7763C247.058 72.5035 247.093 73.2764 247.117 74.1582L247.754 74.1751ZM89.5827 133.573L89.7727 132.976C89.0024 132.748 88.2321 132.521 87.4619 132.293L87.3176 132.873C88.0422 133.118 88.8124 133.346 89.5827 133.573ZM24.3538 155.76C24.4101 154.952 24.5297 154.172 24.7127 153.42L24.1042 153.34C23.9388 154.137 23.8192 154.917 23.7629 155.725L24.3538 155.76ZM84.9329 132.271L85.0772 131.691C84.3069 131.464 83.4909 131.254 82.7383 131.072L82.594 131.651C83.3467 131.833 84.1627 132.043 84.9329 132.271ZM80.2551 131.032L80.3993 130.452C79.6009 130.288 78.8307 130.06 78.0322 129.896L77.888 130.476C78.704 130.686 79.4567 130.868 80.2551 131.032ZM25.2263 151.073C25.455 150.303 25.6837 149.533 25.9757 148.792L25.4235 148.585C25.1315 149.327 24.8571 150.114 24.6917 150.911L25.2263 151.073ZM75.5561 130.011L75.7003 129.431C74.9019 129.267 74.1035 129.102 73.3227 128.984L73.2418 129.591C73.9769 129.728 74.7577 129.846 75.5561 130.011ZM26.8868 146.658C27.2421 145.945 27.6149 145.277 28.0335 144.591L27.5376 144.258C27.119 144.944 26.718 145.675 26.3627 146.388L26.8868 146.658ZM70.836 129.207L70.9169 128.599C70.0904 128.498 69.3095 128.38 68.483 128.279L68.4021 128.886C69.2286 128.988 70.0094 129.106 70.836 129.207ZM66.0666 128.685L66.1018 128.095C65.2928 128.039 64.4382 128.002 63.6925 127.974L63.6573 128.564C64.4487 128.574 65.2576 128.63 66.0666 128.685ZM29.4159 142.591C29.8978 141.934 30.3973 141.322 30.9144 140.756L30.4466 140.359C29.8838 140.943 29.4019 141.6 28.9024 142.212L29.4159 142.591ZM61.2831 128.535L61.255 127.917C60.4179 127.925 59.5984 127.978 58.8246 128.014L58.8527 128.632C59.6265 128.596 60.446 128.543 61.2831 128.535ZM32.5746 139.068C33.155 138.53 33.753 138.037 34.3967 137.527L34.0028 137.05C33.3591 137.56 32.733 138.116 32.1526 138.654L32.5746 139.068ZM56.4926 128.912L56.4328 128.621L56.3273 128.347C55.5254 128.446 54.741 128.591 54.0024 128.718L54.122 129.301C54.8606 129.174 55.6449 129.029 56.4469 128.93L56.4926 128.912ZM36.3172 136.106C36.9785 135.642 37.6573 135.223 38.3538 134.85L38.0513 134.337C37.3267 134.773 36.6478 135.192 35.9866 135.657L36.3172 136.106ZM51.7689 129.735L51.6493 129.152C50.8826 129.343 50.0525 129.505 49.3033 129.741L49.4686 130.307C50.1896 130.134 50.9564 129.944 51.7689 129.735ZM40.4712 133.667C41.1676 133.294 41.8817 132.967 42.659 132.667L42.4023 132.137C41.6425 132.482 40.9285 132.81 40.2145 133.137L40.4712 133.667ZM47.112 131.005L46.9467 130.439C46.1518 130.693 45.4026 130.929 44.6252 131.229L44.8362 131.776C45.5678 131.495 46.3628 131.241 47.112 131.005Z" fill="#3A3A3A"/>
<path d="M52.5173 200.8L52.7706 200.23C52.4083 200.108 52.0742 199.922 51.6943 199.754L51.4411 200.323C51.8209 200.491 52.2008 200.659 52.5173 200.8Z" fill="#3A3A3A"/>
</g>
<defs>
<linearGradient id="paint0_linear_35_3" x1="266.76" y1="-5.2692" x2="226.844" y2="123.063" gradientUnits="userSpaceOnUse">
<stop offset="0.00133384" stop-color="#CF2B2B"/>
<stop offset="1" stop-color="#CB0224"/>
</linearGradient>
<clipPath id="clip0_35_3">
<rect width="376" height="223" fill="white" transform="translate(3.34668 99)"/>
</clipPath>
<clipPath id="clip1_35_3">
<rect width="299.583" height="115.997" fill="white" transform="matrix(-0.93318 0.359408 0.359408 0.93318 280.398 0.105957)"/>
</clipPath>
</defs>
</svg>
