<svg xmlns="http://www.w3.org/2000/svg" xmlns:xlink="http://www.w3.org/1999/xlink" viewBox="0 0 457.9 285.24"><defs><style>.cls-1{fill:none;}.cls-2,.cls-3{fill:#c6d0d6;}.cls-2{opacity:0.25;}.cls-4{fill:#ffcf33;}.cls-5{fill:#160c13;}.cls-6{fill:#ec2836;}.cls-7{fill:#f9a77d;}.cls-8{fill:#fff;}.cls-9{fill:#a44f29;}.cls-10{clip-path:url(#clip-path);}.cls-11{clip-path:url(#clip-path-2);}</style><clipPath id="clip-path"><path id="SVGID" class="cls-1" d="M286,123h0l-.06,0c-3.19-8-8.62-13.32-17-14.68-6.27-1-11.82.82-16.64,4.82-7.45-3.3-13.44-9.5-20.06-17.57a108.05,108.05,0,0,0-8.12,7.33c2.23,2.61,8.38,13.11,20.43,19.39-4.61,7.31-8.25,17-10.92,28l55.48,9C290.42,145,289.71,132.21,286,123Z"/></clipPath><clipPath id="clip-path-2"><path id="SVGID-2" data-name="SVGID" class="cls-1" d="M284.9,123.07h0c-3.2-8-27.67-14-32.49-10-7.45-3.3-13.44-9.5-20.06-17.57a108.05,108.05,0,0,0-8.12,7.33c2.23,2.61,8.38,13.11,20.43,19.39C240.05,129.54,288.58,132.29,284.9,123.07Z"/></clipPath></defs><g id="Layer_2" data-name="Layer 2"><g id="Layer_1-2" data-name="Layer 1"><path class="cls-2" d="M40.53,201c58.82,75,184.27,58.89,264.71,43.2,40.58-7.92,83.77-19.52,115.19-48.55,36.28-33.51,32.41-69.23-15.89-85.66C358.44,94.25,313.36,88.34,268.88,66,227.74,45.4,189.25,11.74,143.49,2.43,33.1-20-24.32,118.27,40.53,201Z"/><polygon class="cls-3" points="27.92 273.45 7.84 273.45 5.08 243.84 30.68 243.84 27.92 273.45"/><path class="cls-4" d="M7.59,123c-1.18,1.17-.1,3.87,2.22,6.22s5,3.45,6.2,2.28.1-3.87-2.23-6.21S8.76,121.86,7.59,123Z"/><path class="cls-4" d="M19.69,131.54c1.16,1.17,3.87.1,6.22-2.22s3.44-5,2.28-6.2-3.87-.1-6.22,2.23S18.53,130.37,19.69,131.54Z"/><path class="cls-4" d="M7.59,137.37c-1.18,1.16-.1,3.87,2.22,6.22s5,3.44,6.2,2.28.1-3.87-2.23-6.22S8.76,136.21,7.59,137.37Z"/><path class="cls-4" d="M22,139.69c-2.35,2.33-3.44,5-2.28,6.2s3.87.1,6.22-2.22,3.44-5,2.28-6.2S24.32,137.37,22,139.69Z"/><path class="cls-4" d="M7.59,151.72c-1.18,1.16-.1,3.87,2.22,6.22s5,3.44,6.2,2.28.1-3.87-2.23-6.22S8.76,150.56,7.59,151.72Z"/><path class="cls-4" d="M22,154c-2.35,2.33-3.44,5-2.28,6.2s3.87.1,6.22-2.23,3.44-5,2.28-6.19S24.32,151.72,22,154Z"/><path class="cls-4" d="M18,111.06c-1.66,0-2.81,2.67-2.83,6s1.12,6,2.77,6,2.81-2.66,2.82-6S19.6,111.07,18,111.06Z"/><rect class="cls-5" x="17.47" y="124.41" width="0.83" height="134.18"/><path class="cls-5" d="M32.3,247.4H3.46l-.7-7.46H33Zm-28.09-.83H31.55l.54-5.8H3.67Z"/><polygon class="cls-3" points="440.48 90.94 420.4 90.94 417.64 70.44 443.24 70.44 440.48 90.94"/><path class="cls-6" d="M420.15,37.06c-1.18,1.17-.11,3.87,2.22,6.22s5,3.44,6.19,2.28.11-3.87-2.22-6.21S421.32,35.9,420.15,37.06Z"/><path class="cls-6" d="M432.25,45.58c1.16,1.17,3.87.1,6.22-2.22s3.44-5,2.28-6.2-3.87-.1-6.22,2.22S431.09,44.41,432.25,45.58Z"/><path class="cls-6" d="M420.15,51.41c-1.18,1.16-.11,3.87,2.22,6.22s5,3.44,6.19,2.28.11-3.87-2.22-6.22S421.32,50.25,420.15,51.41Z"/><path class="cls-6" d="M434.53,53.73c-2.35,2.33-3.44,5-2.28,6.2s3.87.1,6.22-2.23,3.44-5,2.28-6.19S436.88,51.41,434.53,53.73Z"/><path class="cls-6" d="M430.5,25.1c-1.65,0-2.8,2.66-2.82,6s1.12,6,2.77,6,2.81-2.66,2.82-6S432.15,25.11,430.5,25.1Z"/><rect class="cls-5" x="430.03" y="38.45" width="0.83" height="46.74"/><path class="cls-5" d="M444.86,74.83H416l-.7-7.46h30.24ZM416.77,74h27.34l.54-5.8H416.23Z"/><rect class="cls-3" x="406.2" y="88.43" width="48.49" height="3.05"/><rect class="cls-3" x="441.87" y="93.37" width="9.25" height="0.83" transform="translate(118.64 411.07) rotate(-55.92)"/><rect class="cls-3" x="443.29" y="90.24" width="0.83" height="12.36"/><rect class="cls-3" x="413.97" y="89.16" width="0.83" height="9.25" transform="translate(18.52 248.07) rotate(-34.05)"/><rect class="cls-3" x="416.77" y="90.24" width="0.83" height="12.36"/><path class="cls-7" d="M323.38,156.87a.91.91,0,0,1,.65-1.18s-2.61.75-2.9-.27c-.24-.81.72-1.31.72-1.31s-2.24.65-2.54-.37,1.95-1.67,1.95-1.67a1.06,1.06,0,0,1-1.31-.72c-.41-1.43,4.78-2.49,4.78-2.49s-2.43-.54-2.26-1.78,9.82-.4,9.82-.4c.52.09,2.95,7,2.85,7.57l-6.36,2.06-.51.14S323.84,158,323.38,156.87Z"/><line class="cls-8" x1="320.85" y1="152.19" x2="325.75" y2="150.78"/><rect class="cls-5" x="320.75" y="151.07" width="5.09" height="0.83" transform="translate(-29.37 95.87) rotate(-16.14)"/><line class="cls-8" x1="321.44" y1="154.23" x2="326.34" y2="152.82"/><rect class="cls-5" x="321.34" y="153.11" width="5.09" height="0.83" transform="matrix(0.96, -0.28, 0.28, 0.96, -29.83, 95.58)"/><line class="cls-8" x1="323.66" y1="155.8" x2="326.92" y2="154.85"/><rect class="cls-5" x="323.6" y="154.91" width="3.4" height="0.83" transform="translate(-30.36 96.54) rotate(-16.14)"/><path class="cls-6" d="M366.4,114.85c-5,19.85-16.8,25.35-35,30.23a107.78,107.78,0,0,0,3.33,10.42c5.95-1.72,40.2-4.76,43.57-48.33C378.31,107.17,367,112.55,366.4,114.85Z"/><path class="cls-7" d="M389,105.84h0a3.56,3.56,0,0,1-3.65-3.48l-.18-2.11L385,89.46l7.13-.16.31,12.89A3.57,3.57,0,0,1,389,105.84Z"/><path class="cls-7" d="M384.51,98.67c-6.11-.07-8.86-6.27-8.38-12.83.58-7.94,5.05-14.65,13.15-13.09C404.06,75.6,399.58,98.84,384.51,98.67Z"/><path class="cls-5" d="M388.46,85.72a.74.74,0,0,1-.82.62.73.73,0,1,1,.82-.62Z"/><path class="cls-5" d="M380.81,85.39a.73.73,0,1,1-1.44-.2.73.73,0,0,1,1.44.2Z"/><path class="cls-5" d="M389.65,84.73a2.65,2.65,0,0,0-1.81-1.48,2.07,2.07,0,0,0-1.8.67l-.58-.59a2.85,2.85,0,0,1,2.52-.89,3.4,3.4,0,0,1,2.41,1.92Z"/><path class="cls-5" d="M384.08,89l-2.86-.17.2-4.88a1.63,1.63,0,0,0-1.23-1,2.15,2.15,0,0,0-1.81.95l-.65-.52a3,3,0,0,1,2.56-1.26,2.5,2.5,0,0,1,1.92,1.56l.05.09L382.08,88l2,.12Z"/><path class="cls-5" d="M387.48,70.74c-12.49.54-12.77,7.23-6.33,9.2,2.28.69,12-1.69,12.93,2.09.63,2.55-.17,7.11-3.07,6.6-5.43-.94-14.2-.69-15.21,2-1.54,4.12,2.09,8.8,7.53,9.75s12.88-1.91,14.8-10.68C399.39,84,400.41,70.17,387.48,70.74Z"/><path class="cls-7" d="M397.13,83.83l-.44,6h.1a3,3,0,0,0,.34-6Z"/><path class="cls-7" d="M383.78,91.76a3.85,3.85,0,0,1-2.32-.79l.49-.66a3,3,0,0,0,2.42.56,3.64,3.64,0,0,0,2.38-1.65l.7.44a4.49,4.49,0,0,1-2.92,2A4,4,0,0,1,383.78,91.76Z"/><polygon class="cls-7" points="436.4 264.94 443.36 258.63 431.14 227.91 416.94 232.11 436.4 264.94"/><polygon class="cls-7" points="428.36 273.9 446.97 266 443.36 258.63 427.37 273.19 428.36 273.9"/><polygon class="cls-6" points="435.92 265.41 445.03 261.1 447.42 266.23 428.36 273.9 427.37 273.19 435.92 265.41"/><polygon class="cls-5" points="427.01 273.34 430.95 269.56 431.85 271.51 447.06 264.85 447.84 266.46 427.56 274.37 427.01 273.34"/><path class="cls-6" d="M435.36,267.77l2.18-1.51s-1.15-4.17-2.19-3.79C434.13,262.9,435.36,267.77,435.36,267.77Z"/><path class="cls-3" d="M427.9,257.38l14.53-6-15.85-41.51-3.26-57s-10.12-15.29-28.9-14.58h0l3.64,32.41,7.08,39.19Z"/><polygon class="cls-7" points="386.22 269.19 395.69 265.02 396.94 233.44 384.68 240.5 386.22 269.19"/><polygon class="cls-7" points="376.17 273.79 396.37 273.19 395.69 265.02 375.5 272.77 376.17 273.79"/><polygon class="cls-6" points="386.29 268.63 396.34 267.92 396.71 273.56 376.17 273.79 375.5 272.77 386.29 268.63"/><polygon class="cls-5" points="375.11 272.78 380.16 270.69 380.28 272.83 396.87 272.15 397.01 273.94 375.25 273.94 375.11 272.78"/><path class="cls-6" d="M384.91,270.62l2.58-.61s.45-4.3-.66-4.33C385.54,265.64,384.91,270.62,384.91,270.62Z"/><path class="cls-3" d="M397.89,263l-14.32-.17-9.66-111.45s9.85-13.12,20.33-13.12l3.82,2.35Z"/><polygon class="cls-5" points="398.31 262.95 397.48 262.95 397.64 170.93 391.95 168.44 392.28 167.68 398.47 170.39 398.47 170.66 398.31 262.95"/><path class="cls-5" d="M420,168.82a11.34,11.34,0,0,1-9.53-5.33l.71-.43a10.45,10.45,0,0,0,9.93,4.87l.1.82A9.82,9.82,0,0,1,420,168.82Z"/><polygon class="cls-7" points="396.11 109.38 383.1 110.01 382.69 102.58 394.92 101.66 396.11 109.38"/><path class="cls-6" d="M414.75,115a18.4,18.4,0,0,0-20-13.81l-.72.08A5.39,5.39,0,0,1,389.2,106c-.16,0-.32,0-.48,0h0a6.15,6.15,0,0,1-5.68-3.6l-1.75.16a16.21,16.21,0,0,0-15,17.54q2.13,22.14,4.25,44.28l54-5.75Z"/><path class="cls-5" d="M370.12,164.44l-4.24-44.28a16.56,16.56,0,0,1,15.37-18l.08.82a15.76,15.76,0,0,0-14.62,17.1L371,164.36Z"/><path class="cls-5" d="M388.62,110.82a9,9,0,0,1-7.73-4.22l.71-.44a8.2,8.2,0,0,0,8.87,3.64l.17.81A10,10,0,0,1,388.62,110.82Z"/><circle class="cls-4" cx="332.95" cy="213.26" r="61.84" transform="translate(-53.28 297.89) rotate(-45)"/><circle class="cls-3" cx="332.95" cy="213.26" r="55.36" transform="translate(46.51 485.81) rotate(-76.22)"/><path class="cls-8" d="M358.28,164.08l-74.51,74.51a55.64,55.64,0,0,0,23.62,23.84l74.74-74.73A55.71,55.71,0,0,0,358.28,164.08Z"/><polygon class="cls-5" points="332.6 213.19 332.6 175.71 333.43 175.71 333.43 211.92 352.28 203.51 352.61 204.27 332.6 213.19"/><path class="cls-5" d="M333,263.49a50.24,50.24,0,1,1,50.23-50.23A50.29,50.29,0,0,1,333,263.49Zm0-99.64a49.41,49.41,0,1,0,49.4,49.41A49.47,49.47,0,0,0,333,163.85Z"/><path class="cls-7" d="M369.19,167.81a.92.92,0,0,1,.28-1.32s-2.27,1.49-2.85.6c-.47-.71.3-1.46.3-1.46s-1.95,1.28-2.53.39,1.37-2.17,1.37-2.17a1.06,1.06,0,0,1-1.47-.3c-.82-1.25,3.84-3.79,3.84-3.79s-2.49.2-2.69-1,9.27-3.29,9.27-3.29c.52-.06,4.89,5.87,5,6.4l-5.47,3.84-.44.29S370,168.71,369.19,167.81Z"/><line class="cls-8" x1="365.4" y1="164.08" x2="369.66" y2="161.29"/><rect class="cls-5" x="364.99" y="162.27" width="5.09" height="0.83" transform="translate(-29.01 228.25) rotate(-33.26)"/><line class="cls-8" x1="366.57" y1="165.86" x2="370.82" y2="163.07"/><rect class="cls-5" x="366.15" y="164.05" width="5.09" height="0.83" transform="translate(-29.79 229.19) rotate(-33.27)"/><line class="cls-8" x1="369.15" y1="166.7" x2="371.99" y2="164.84"/><rect class="cls-5" x="368.87" y="165.36" width="3.4" height="0.83" transform="translate(-30.2 230.44) rotate(-33.27)"/><path class="cls-6" d="M397.73,112.48c2,22.24-7.76,31.27-24.34,41.69a106.05,106.05,0,0,0,6.26,9c2.87-1.75,37.1-15,29.64-55.35"/><path class="cls-5" d="M379.64,163.6c-.31,0-.77-.63-3-3.76-1.21-1.72-2.79-4-3.4-5-.26-.42-.48-.78-.1-1,17.87-11.23,26.05-20.27,24.14-41.31l.83-.07c2.1,23.22-9.18,32.41-24.21,41.89.84,1.38,4.85,7.13,5.79,8.3l1-.49c28.92-14.39,31.29-37.45,28.18-54.27l.82-.15c3.16,17.1.75,40.54-28.63,55.16l-1.21.62A.39.39,0,0,1,379.64,163.6Z"/><rect class="cls-4" x="292.61" y="25.1" width="80.35" height="44.43" rx="22.21" transform="translate(665.57 94.63) rotate(-180)"/><polygon class="cls-4" points="358.78 82.29 355 61.02 338.45 68.11 358.78 82.29"/><rect class="cls-5" x="343.94" y="37.08" width="12.94" height="0.83"/><rect class="cls-5" x="308.35" y="43.55" width="48.53" height="0.83"/><rect class="cls-5" x="308.35" y="50.02" width="11.32" height="0.83"/><rect class="cls-5" x="324.53" y="50.02" width="32.35" height="0.83"/><rect class="cls-5" x="324.53" y="56.49" width="32.35" height="0.83"/><path class="cls-5" d="M173.1,151.14a12.58,12.58,0,0,0-11.58-11.44L112.85,136,111,159.71l62.1,3.08Z"/><polygon class="cls-5" points="48.06 161.34 64.01 274.78 216 274.78 203.47 185.62 200.06 161.34 48.06 161.34"/><polygon class="cls-6" points="196.4 185.62 44.41 185.62 47.82 161.34 199.81 161.34 196.4 185.62"/><polygon class="cls-8" points="183.87 274.78 31.87 274.78 44.39 185.74 196.38 185.74 183.87 274.78"/><path class="cls-5" d="M184.23,275.19H31.4L44,185.33H196.86l-.07.47Zm-151.88-.82H183.51l12.39-88.21H44.75Z"/><polygon class="cls-4" points="164.18 230.29 144.13 230.29 146.88 210.71 166.93 210.71 164.18 230.29"/><polygon class="cls-4" points="121.39 249.67 101.33 249.67 104.08 230.09 124.14 230.09 121.39 249.67"/><polygon class="cls-6" points="81.42 249.67 61.37 249.67 64.12 230.09 84.17 230.09 81.42 249.67"/><path class="cls-5" d="M67.21,211.19H46.32l2.87-20.41H70.08Zm-19.94-.83H66.49l2.63-18.75H49.91Z"/><path class="cls-5" d="M87.22,211.19H66.33l2.87-20.41H90.09Zm-19.93-.83H86.5l2.64-18.75H69.92Z"/><path class="cls-5" d="M107.24,211.19H86.35l2.87-20.41H110.1Zm-19.94-.83h19.22l2.63-18.75H89.94Z"/><path class="cls-5" d="M127.25,211.19H106.36l2.87-20.41h20.89Zm-19.93-.83h19.21l2.64-18.75H110Z"/><path class="cls-5" d="M147.27,211.19H126.38l2.87-20.41h20.88Zm-19.94-.83h19.22l2.63-18.75H130Z"/><path class="cls-5" d="M167.28,211.19H146.39l2.87-20.41h20.89Zm-19.93-.83h19.21l2.64-18.75H150Z"/><path class="cls-5" d="M187.3,211.19H166.41l2.87-20.41h20.88Zm-19.94-.83h19.22l2.63-18.75H170Z"/><path class="cls-5" d="M64.46,230.71H43.58l2.86-20.41H67.33Zm-19.93-.83H63.74l2.64-18.75H47.16Z"/><path class="cls-5" d="M84.48,230.71H63.59l2.87-20.41H87.35Zm-19.94-.83H83.76l2.63-18.75H67.18Z"/><path class="cls-5" d="M104.49,230.71H83.61l2.86-20.41h20.89Zm-19.93-.83h19.21l2.64-18.75H87.19Z"/><path class="cls-5" d="M124.51,230.71H103.62l2.87-20.41h20.89Zm-19.94-.83h19.22l2.63-18.75H107.21Z"/><path class="cls-5" d="M144.52,230.71H123.64l2.86-20.41h20.89Zm-19.93-.83H143.8l2.64-18.75H127.22Z"/><path class="cls-5" d="M184.55,230.71H163.66l2.87-20.41h20.89Zm-19.93-.83h19.21l2.64-18.75H167.25Z"/><path class="cls-5" d="M61.72,250.22H40.83l2.87-20.4H64.59Zm-19.93-.82H61l2.64-18.75H44.42Z"/><path class="cls-5" d="M81.74,250.22H60.85l2.87-20.4H84.6ZM61.8,249.4H81l2.63-18.75H64.44Z"/><path class="cls-5" d="M101.75,250.22H80.86l2.87-20.4h20.89Zm-19.93-.82H101l2.64-18.75H84.45Z"/><path class="cls-5" d="M121.77,250.22H100.88l2.87-20.4h20.88Zm-19.94-.82H121l2.64-18.75H104.47Z"/><path class="cls-5" d="M141.78,250.22H120.89l2.87-20.4h20.89Zm-19.93-.82h19.21l2.63-18.75H124.48Z"/><path class="cls-5" d="M161.8,250.22H140.91l2.86-20.4h20.89Zm-19.94-.82h19.21l2.64-18.75H144.5Z"/><path class="cls-5" d="M181.81,250.22H160.92l2.87-20.4h20.89Zm-19.93-.82h19.21l2.63-18.75H164.51Z"/><path class="cls-5" d="M59,269.74H38.09L41,249.34H61.85ZM39,268.91H58.26l2.63-18.75H41.68Z"/><path class="cls-5" d="M79,269.74H58.1L61,249.34H81.86Zm-19.93-.83H78.27l2.64-18.75H61.69Z"/><path class="cls-5" d="M99,269.74H78.12L81,249.34h20.89Zm-19.94-.83H98.29l2.63-18.75H81.71Z"/><path class="cls-5" d="M119,269.74H98.13l2.87-20.4h20.89Zm-19.93-.83H118.3l2.64-18.75H101.72Z"/><path class="cls-5" d="M139,269.74H118.15l2.87-20.4h20.89Zm-19.94-.83h19.22L141,250.16H121.74Z"/><path class="cls-5" d="M159.05,269.74H138.16l2.87-20.4h20.89Zm-19.93-.83h19.21L161,250.16H141.75Z"/><path class="cls-5" d="M179.07,269.74H158.18l2.87-20.4h20.88Zm-19.94-.83h19.22L181,250.16H161.77Z"/><path class="cls-5" d="M129.23,85.26,115,88.64c5.3,14.84,19.46,28,39.51,30.39a55.37,55.37,0,0,0,9.91-15.3C147.08,105.28,134.3,95.94,129.23,85.26Z"/><path class="cls-8" d="M132.15,161.84H95.74c-11.13,0-13.15-7.8-13-13S85,128.4,85,128.4l47.18,3Z"/><path class="cls-5" d="M132.56,162.25H95.74c-4.4,0-7.79-1.2-10.1-3.56-3-3.13-3.38-7.52-3.32-9.86.15-5.1,2.22-20.33,2.24-20.48l0-.38,48,3ZM85.33,128.84c-.33,2.4-2,15.4-2.18,20-.06,2.21.26,6.35,3.09,9.26,2.14,2.2,5.34,3.31,9.5,3.31h36V131.77Z"/><polygon class="cls-7" points="127.29 206.11 119.4 200.93 129.53 169.44 140.8 170.66 127.29 206.11"/><polygon class="cls-7" points="135.04 212.94 115.78 207.2 119.92 199.84 136.13 212.17 135.04 212.94"/><polygon class="cls-6" points="127.46 205.58 118.05 202.35 115.29 207.45 135.04 212.94 136.13 212.17 127.46 205.58"/><polygon class="cls-5" points="136.5 212.28 132.51 209.06 131.47 211 115.73 206.11 114.83 207.72 135.87 213.31 136.5 212.28"/><path class="cls-6" d="M128,207.77l-2.24-1.23s1.4-4.08,2.49-3.82C129.46,203,128,207.77,128,207.77Z"/><path class="cls-8" d="M95.74,161.84l30.84.74-10.07,31,21.39,6,13.73-44c2.42-8.08-3.68-13.48-9.74-13.95L104.66,138"/><path class="cls-5" d="M138.18,200.17,116,193.89,126,163l-30.28-.73,0-.83,31.39.76L117,193.33l20.6,5.82,13.6-43.61a9.87,9.87,0,0,0-1.12-8.79,11.17,11.17,0,0,0-8.25-4.62l-37.24-3.69.08-.83,37.23,3.69a12,12,0,0,1,8.87,5,10.77,10.77,0,0,1,1.23,9.5Z"/><path class="cls-5" d="M125.62,196.15l-.79-.24,12.91-41.06-37.52-.77c-5.44,0-8.9-1-10.86-3-2.34-2.48-2.15-6.23-1.94-10.2v-.22c.26-5.08,2.11-20.31,2.12-20.46l.83.1c0,.15-1.86,15.35-2.12,20.41v.21c-.21,3.95-.39,7.37,1.71,9.59,1.77,1.86,5.13,2.76,10.27,2.76l38.64.79Z"/><rect class="cls-7" x="100.36" y="76.93" width="14.94" height="7.67"/><path class="cls-4" d="M132.46,92.57A16.2,16.2,0,0,0,115.7,76.71l-1.47,0a6.13,6.13,0,0,1-5.56,5.67h0a3.85,3.85,0,0,1-.48,0,5.39,5.39,0,0,1-5.44-5.26v-.44h-.58A18.42,18.42,0,0,0,83.73,92.57c-1.71,14.82-3.56,44.52-3.56,44.52l52.76,0Q132.7,114.81,132.46,92.57Z"/><path class="cls-5" d="M132.52,122.56c-.08-7.41-.16-11.26-.24-15s-.15-7.58-.23-15a14.92,14.92,0,0,0-.63-4.15,15.1,15.1,0,0,0-1.63-3.7,15.42,15.42,0,0,0-2.48-3.1,15.89,15.89,0,0,0-3.2-2.39,16.7,16.7,0,0,0-3.76-1.54,16.21,16.21,0,0,0-4.14-.57h-1.6a6.53,6.53,0,0,1-5.91,5.68,5.83,5.83,0,0,1-6.36-5.65v-.46l.83,0c0,.13,0,.29,0,.41A5,5,0,0,0,108.64,82a5.76,5.76,0,0,0,5.18-5.29l0-.38,1,0h1.34a17.22,17.22,0,0,1,8.31,2.22A16.82,16.82,0,0,1,127.88,81a16.5,16.5,0,0,1,2.62,3.27,16.19,16.19,0,0,1,1.72,3.9,16.53,16.53,0,0,1,.66,4.37c.08,7.41.16,11.27.23,15s.16,7.58.24,15Z"/><rect class="cls-5" x="106.2" y="111.01" width="0.83" height="43.26" transform="translate(-31.79 231.67) rotate(-86.79)"/><path class="cls-7" d="M127.46,114.78a21.26,21.26,0,0,0-7.49-1.62v8.7l13.09.29C132.85,118.86,130.34,116.12,127.46,114.78Z"/><path class="cls-4" d="M81.08,111.74c-5.21-10.43.2-26.59,12.82-33.19,0,0,5.28,6.66,8.29,9.27-17.79,19.81-6.45,24.92,18.93,21.37l1.12,13.56s-16.21,1.48-20.68.83C93.64,122.43,85,119.61,81.08,111.74Z"/><path class="cls-5" d="M108.73,124.47c-9.92,0-22.54-2.23-28-12.53-4.28-8-2.28-21.87,8.47-31.12l.54.63c-10.43,9-12.4,22.35-8.28,30.1,8.79,16.52,36.86,11.56,40.35,10.87-.16-1.9-.88-10.64-1.06-12.74-14.58,2.59-24.61,1.18-27.55-3.89-2.11-3.62-.49-8.67,4.83-15l.64.53c-5,6-6.64,10.84-4.76,14.08,2.75,4.72,12.9,6,27.14,3.4l.45-.08,0,.45c1.12,13.59,1.12,13.59,1.12,13.61v.33l-.32.07A71.12,71.12,0,0,1,108.73,124.47Z"/><polygon class="cls-3" points="137.07 93.47 130.41 121.61 112.2 122.69 111.8 125.62 170.3 125.62 177.65 93.47 137.07 93.47"/><path class="cls-5" d="M154,112.9a3.31,3.31,0,0,1-2.57-1.16,3.93,3.93,0,0,1-.79-3.2,5,5,0,0,1,4.63-4.23,3.31,3.31,0,0,1,2.57,1.16,3.93,3.93,0,0,1,.79,3.2A5,5,0,0,1,154,112.9Zm1.27-7.76a4.14,4.14,0,0,0-3.81,3.53,3.08,3.08,0,0,0,.61,2.53,2.48,2.48,0,0,0,1.93.87,4.16,4.16,0,0,0,3.82-3.53,3.15,3.15,0,0,0-.61-2.53A2.51,2.51,0,0,0,155.31,105.14Z"/><polygon class="cls-5" points="112.23 123.1 112.18 122.27 130.07 121.22 136.67 93.38 137.48 93.57 130.74 122.01 112.23 123.1"/><path class="cls-7" d="M168.86,122.49a.92.92,0,0,1,1-.87s-2.7-.24-2.61-1.3c.08-.84,1.15-1,1.15-1s-2.32-.21-2.22-1.26,2.42-.85,2.42-.85a1.06,1.06,0,0,1-1-1.15c.14-1.48,4.83-.84,6.16.12,2,1.44.42,6.72-1.48,7.8C171.51,124.49,168.9,123.67,168.86,122.49Z"/><line class="cls-8" x1="168.2" y1="117.21" x2="173.27" y2="117.67"/><rect class="cls-5" x="170.32" y="114.89" width="0.83" height="5.09" transform="translate(38.44 276.94) rotate(-84.85)"/><line class="cls-8" x1="168.01" y1="119.32" x2="173.08" y2="119.78"/><rect class="cls-5" x="170.13" y="117.01" width="0.83" height="5.09" transform="translate(36.16 278.67) rotate(-84.85)"/><line class="cls-8" x1="169.51" y1="121.59" x2="172.89" y2="121.9"/><rect class="cls-5" x="170.79" y="120.05" width="0.83" height="3.4" transform="translate(34.57 281.32) rotate(-84.85)"/><path class="cls-7" d="M108.23,81.31h0a3.78,3.78,0,0,0,3.83-3.57l0-2.07,0-10.79-7.24-.07-.14,12.89A3.6,3.6,0,0,0,108.23,81.31Z"/><polygon class="cls-5" points="112.06 76.53 102.73 69.94 112.64 63.99 112.06 76.53"/><path class="cls-7" d="M112.52,74.08c6.11-.15,8.78-6.39,8.21-12.94-.68-7.93-5.23-14.58-13.32-12.91C92.68,51.27,97.46,74.44,112.52,74.08Z"/><path class="cls-5" d="M108.41,61.18a.72.72,0,1,0,.61-.82A.72.72,0,0,0,108.41,61.18Z"/><path class="cls-5" d="M116.05,60.75a.72.72,0,1,0,1.43-.22.72.72,0,0,0-1.43.22Z"/><path class="cls-5" d="M107.2,60.21l-.74-.36a3.4,3.4,0,0,1,2.38-2,2.92,2.92,0,0,1,2.54.86l-.58.6a2,2,0,0,0-1.81-.64A2.63,2.63,0,0,0,107.2,60.21Z"/><path class="cls-5" d="M113.12,67.16a4.14,4.14,0,0,1-.7-.06,4.5,4.5,0,0,1-3-2l.7-.45a3.63,3.63,0,0,0,2.4,1.62,3,3,0,0,0,2.41-.6l.5.66A3.82,3.82,0,0,1,113.12,67.16Z"/><path class="cls-5" d="M114.38,64.81l-.13-.81,1.18-.18-.86-4.69.05-.12a2.48,2.48,0,0,1,1.91-1.55,2.93,2.93,0,0,1,2.57,1.23l-.64.52a2.19,2.19,0,0,0-1.83-.93,1.6,1.6,0,0,0-1.2,1l1,5.26Z"/><path class="cls-5" d="M99.57,63.9l5.63-8s14.32,1.68,17-2c2-2.82,0-7.67-7.67-7.67C85.1,46.25,99.57,63.9,99.57,63.9Z"/><path class="cls-7" d="M102.66,62.94a3,3,0,1,1-2.74-3.3A3,3,0,0,1,102.66,62.94Z"/><path class="cls-5" d="M102.38,62.81c-1.7.24-4.44-5.25-4.44-5.25,0-1.23,7.5-4.45,7.67-3.23C105.61,54.33,104.12,62.55,102.38,62.81Z"/><path class="cls-5" d="M178.27,176.26a15.36,15.36,0,1,1,15.36-15.35h-.83a14.53,14.53,0,1,0-14.53,14.52Z"/><circle class="cls-5" cx="178.07" cy="176.05" r="2.62"/><path class="cls-5" d="M58.37,176.26a15.36,15.36,0,1,1,15.35-15.35h-.83a14.52,14.52,0,1,0-14.52,14.52Z"/><circle class="cls-5" cx="58.17" cy="176.05" r="2.62"/><path class="cls-5" d="M91.88,176.66a15.35,15.35,0,0,1-9.4-27.49l.51.66a14.52,14.52,0,0,0,8.89,26Z"/><circle class="cls-5" cx="91.68" cy="176.45" r="2.62"/><path class="cls-5" d="M142.32,71.5l1.49-8.37a13.18,13.18,0,0,1,3.71-25.83h20.65a13.19,13.19,0,1,1,0,26.37H153.55Zm5.2-33.37a12.35,12.35,0,0,0-3.13,24.3l.37.1-1.27,7.14,9.8-6.83h14.88a12.36,12.36,0,1,0,0-24.71Z"/><path class="cls-6" d="M225.31,76.94c.15-.59,2.82-2,6.21-3.79,1.94-1,4.09-2.17,6.36-3.45h-22.3c1.94,2.86,3.4,5.07,3.26,5.63C215.3,89.49,205.56,94,197.73,97.58c-5.72,2.63-10.66,4.9-12,10.11l-1.68,6.73,53.5,13.37,1.68-6.74c1.3-5.21-2-9.53-5.79-14.54C228.26,99.64,221.77,91.1,225.31,76.94Z"/><path class="cls-5" d="M237.8,128.14l-54.06-13.51,3.71-14.83c2.22-8.89,16.52-16.43,25.06-20.94,2.87-1.52,5.85-3.08,6.05-3.61s-1.82-3.32-3.65-6c-5.42-8-14.49-21.38-12.27-30.26l3.71-14.83,54.06,13.5L256.7,52.48c-2.22,8.88-16.52,16.42-25.06,20.93-2.88,1.52-5.85,3.09-6,3.61s1.82,3.33,3.64,6c5.42,8,14.5,21.38,12.28,30.26ZM184.75,114l52.45,13.1,3.5-14c2.13-8.52-6.81-21.72-12.15-29.6-2.83-4.16-4-5.88-3.76-6.69s2-1.78,6.46-4.13c8.42-4.44,22.52-11.88,24.65-20.4l3.5-14L207,25.14l-3.5,14c-2.13,8.53,6.81,21.72,12.15,29.6,2.82,4.17,4,5.89,3.76,6.69s-2,1.78-6.46,4.13C204.48,84,190.38,91.47,188.25,100Z"/><path class="cls-5" d="M217.37,67.8c-4.43-6.56-13.65-20.2-11.44-29l.8.21c-2.12,8.47,7,21.91,11.33,28.37Z"/><rect class="cls-4" x="203.82" y="27.59" width="58.91" height="7.47" transform="translate(14.55 -55.6) rotate(14.03)"/><rect class="cls-4" x="181.5" y="116.94" width="58.91" height="7.47" transform="translate(35.54 -47.53) rotate(14.03)"/><path class="cls-5" d="M250.73,125.06c-15.59,0-26.52-8.58-31.73-12.68-.83-.65-1.48-1.16-2-1.48-.32-.21-.24-.44.17-1.15l-5.06-3.19c-1.28-.78-4.24-2.76-3.61-4a1.17,1.17,0,0,1,.5-.51c-.66-.61-1.29-1.47-.81-2.19a1.3,1.3,0,0,1,.65-.51l0,0c-.86-.92-.74-1.56-.49-1.94s.8-.72,2-.27h0a1.5,1.5,0,0,1,.25-.78,1,1,0,0,1,.72-.44c1-.15,2.63.83,3.74,1.59a1.81,1.81,0,0,1,.55-2.07c.38-.24,1.38-.87,6.56,6.47.63-.93.69-.94.86-1a.45.45,0,0,1,.32.07c13.78,9.65,23.75,14.19,37,10.51a.42.42,0,0,1,.23.8c-13.49,3.74-23.59-.76-37.41-10.41-.13.17-.34.47-.67,1a.44.44,0,0,1-.34.19.46.46,0,0,1-.35-.18c-3.08-4.42-5.25-6.73-5.81-6.73h0c-.51.33,0,1.71.28,2.32a.41.41,0,0,1-.62.52c-1.18-.94-3.38-2.39-4.22-2.25-.12,0-.15.06-.16.09a.64.64,0,0,0,.17.89h0a.41.41,0,1,1-.46.69h0c-.65-.44-1.72-.88-1.95-.53s.23.71.41.9a5.21,5.21,0,0,0,.82.7.42.42,0,0,1,.14.54.42.42,0,0,1-.53.19s-.69-.27-1,.14.67,1.22,1.55,1.82h0a.41.41,0,0,1,.11.57.42.42,0,0,1-.57.12h0a.59.59,0,0,0-.48-.09.34.34,0,0,0-.24.19c-.17.32,1.28,1.7,3.31,2.94l.45.3,4.94,3.1a.4.4,0,0,1,.13.56c-.16.28-.27.47-.33.59.46.33,1,.78,1.72,1.32,6.29,4.94,21,16.51,42.19,11.09a.41.41,0,0,1,.51.29.43.43,0,0,1-.3.51A45,45,0,0,1,250.73,125.06Z"/><polygon class="cls-9" points="283.49 270.16 292 265.82 290.35 234.67 279.16 234.72 283.49 270.16"/><polygon class="cls-9" points="273.05 274.13 293.74 274.13 292 265.82 272.31 273.09 273.05 274.13"/><path class="cls-5" d="M279.76,270c3.53,5.88,13.26.06,13.26.06l.89,4.25H272.14l-.22-1.18Z"/><path class="cls-6" d="M272.24,249.57h26.39s1.13-113.67-40.11-112.1h0Z"/><path class="cls-5" d="M293.56,249.58h-.83c0-.82.52-81.53-23.82-105.2-4.66-4.52-10-6.71-15.86-6.48l0-.83c6.1-.24,11.64,2,16.46,6.72C294.08,167.69,293.57,248.76,293.56,249.58Z"/><path class="cls-5" d="M291.63,93.14c-.21,2.13-4,3.36-4.67,5.15-.77,2,1.11,5.3-.16,6.82s-5.2.61-7,1.66-2.51,4.74-4.63,5.17-4.42-2.63-6.63-2.84-5.13,2.3-7.05,1.49-2-4.58-3.54-6-5.52-1.14-6.53-3S253,97,252.6,94.91c-.34-1.89-3.78-3.84-3.57-6s4-3.4,4.68-5.21c.77-2-1.12-5.33.14-6.88s5.23-.7,7-1.79,2.46-4.81,4.58-5.27,4.48,2.56,6.71,2.78,5.18-2.26,7.12-1.42,1.91,4.63,3.47,6.07,5.52,1.24,6.52,3.12-1.57,4.67-1.2,6.77C288.4,89,291.84,91,291.63,93.14Z"/><polygon class="cls-9" points="252.52 270.16 261.03 265.82 259.38 234.67 248.19 234.72 252.52 270.16"/><polygon class="cls-9" points="242.07 274.13 262.77 274.13 261.03 265.82 241.34 273.09 242.07 274.13"/><path class="cls-5" d="M248.79,270c3.53,5.88,13.26.06,13.26.06l.89,4.25H241.17l-.22-1.18Z"/><path class="cls-6" d="M267.19,249.54h-26.4s-17.88-112.09,20.53-112.09h0Z"/><polygon class="cls-5" points="266.66 249.48 262.23 162.79 256.87 160.61 257.18 159.84 263.03 162.22 263.04 162.49 267.49 249.44 266.66 249.48"/><path class="cls-8" d="M233.74,150.18c6.32-26,18.09-44.73,35.31-41.92,18,2.93,22.42,24.34,20.17,51Z"/><g class="cls-10"><rect class="cls-4" x="219.56" y="102.16" width="1.66" height="5.31" transform="translate(-9.56 186.53) rotate(-45)"/><rect class="cls-4" x="236.05" y="102.16" width="1.66" height="5.31" transform="translate(-4.74 198.19) rotate(-45)"/><rect class="cls-4" x="227.93" y="95.11" width="5.31" height="1.66" transform="translate(-0.3 191.14) rotate(-45)"/><rect class="cls-4" x="219.56" y="119.91" width="1.66" height="5.31" transform="translate(-22.12 191.73) rotate(-45)"/><rect class="cls-4" x="236.05" y="119.91" width="1.66" height="5.3" transform="translate(-17.29 203.39) rotate(-45)"/><rect class="cls-4" x="252.55" y="119.91" width="1.66" height="5.3" transform="translate(-12.46 215.05) rotate(-45)"/><rect class="cls-4" x="269.05" y="119.91" width="1.66" height="5.31" transform="translate(-7.62 226.74) rotate(-45)"/><rect class="cls-4" x="285.54" y="119.91" width="1.66" height="5.31" transform="translate(-2.78 238.41) rotate(-45)"/><rect class="cls-4" x="277.42" y="112.86" width="5.3" height="1.66" transform="translate(1.64 231.34) rotate(-45)"/><rect class="cls-4" x="260.92" y="112.86" width="5.3" height="1.66" transform="translate(-3.19 219.67) rotate(-45)"/><rect class="cls-4" x="244.43" y="112.86" width="5.31" height="1.66" transform="translate(-8.02 208) rotate(-45)"/><rect class="cls-4" x="227.93" y="112.86" width="5.31" height="1.66" transform="translate(-12.86 196.34) rotate(-45)"/><rect class="cls-4" x="239.08" y="139.95" width="1.66" height="5.31" transform="translate(-30.56 211.42) rotate(-45)"/><rect class="cls-4" x="252.55" y="137.67" width="1.66" height="5.3" transform="translate(-25.01 220.25) rotate(-45)"/><rect class="cls-4" x="269.05" y="137.67" width="1.66" height="5.31" transform="translate(-20.17 231.94) rotate(-45)"/><rect class="cls-4" x="285.54" y="137.67" width="1.66" height="5.31" transform="translate(-15.34 243.61) rotate(-45)"/><rect class="cls-4" x="293.92" y="130.61" width="5.3" height="1.66" transform="translate(-6.08 248.2) rotate(-45)"/><rect class="cls-4" x="277.42" y="130.61" width="5.3" height="1.66" transform="translate(-10.91 236.54) rotate(-45)"/><rect class="cls-4" x="260.92" y="130.61" width="5.3" height="1.66" transform="translate(-15.74 224.87) rotate(-45)"/><rect class="cls-4" x="244.43" y="130.61" width="5.31" height="1.66" transform="translate(-20.58 213.2) rotate(-45)"/><rect class="cls-4" x="285.54" y="155.42" width="1.66" height="5.31" transform="translate(-27.9 248.8) rotate(-45)"/><rect class="cls-4" x="293.92" y="148.37" width="5.31" height="1.66" transform="translate(-18.63 253.41) rotate(-45)"/><rect class="cls-4" x="277.42" y="148.37" width="5.31" height="1.66" transform="translate(-23.46 241.75) rotate(-45)"/><rect class="cls-4" x="260.92" y="148.37" width="5.31" height="1.66" transform="translate(-28.3 230.08) rotate(-45)"/><rect class="cls-4" x="244.43" y="148.37" width="5.31" height="1.66" transform="translate(-33.13 218.41) rotate(-45)"/><rect class="cls-4" x="227.93" y="148.37" width="5.31" height="1.66" transform="translate(-37.96 206.74) rotate(-45)"/></g><path class="cls-5" d="M289.6,159.69l-56.37-9.18.11-.43c7.25-29.81,19.95-44.81,35.77-42.23,8.62,1.4,14.68,7.08,18,16.87,2.88,8.49,3.73,20.11,2.51,34.53Zm-55.35-9.85,54.6,8.89c1.15-14.09.3-25.45-2.52-33.74-3.22-9.48-9.06-15-17.35-16.32C248.48,105.33,238.45,132.82,234.25,149.84Z"/><path class="cls-9" d="M266.62,112.46h0a3.56,3.56,0,0,1-2.87-4.15l.26-2.1,2.06-10.59,7,1.28-2.31,12.69A3.58,3.58,0,0,1,266.62,112.46Z"/><polygon class="cls-5" points="262.48 107.64 274.12 102.33 265.52 94.61 262.48 107.64"/><path class="cls-9" d="M263.72,104.54c-6-1.31-7.4-7.94-5.6-14.27C260.29,82.62,266,77,273.65,80.13,287.54,85.91,278.44,107.76,263.72,104.54Z"/><path class="cls-5" d="M270.21,92.65a.73.73,0,0,1-.92.45.73.73,0,1,1,.48-1.37A.72.72,0,0,1,270.21,92.65Z"/><path class="cls-5" d="M262.79,90.78a.73.73,0,0,1-.93.44.72.72,0,1,1,.93-.44Z"/><path class="cls-5" d="M271.58,91.93a2.62,2.62,0,0,0-1.47-1.81,2,2,0,0,0-1.9.29l-.45-.7a2.91,2.91,0,0,1,2.65-.37,3.43,3.43,0,0,1,2,2.38Z"/><path class="cls-5" d="M265.21,97.7h-.06a3.79,3.79,0,0,1-2.86-1.32l.62-.55a3,3,0,0,0,2.25,1h0a3.65,3.65,0,0,0,2.61-1.14l.61.57A4.49,4.49,0,0,1,265.21,97.7Z"/><path class="cls-5" d="M263.66,95.09l-1.93-.69,1.95-5a1.62,1.62,0,0,0-1-1.18,2.18,2.18,0,0,0-2,.57l-.53-.64a3,3,0,0,1,2.77-.71,2.49,2.49,0,0,1,1.57,1.88l0,.13-1.73,4.44,1.12.4Z"/><path class="cls-5" d="M283.24,82.52c-2.13-5.25-15.82-7.33-20.52-5.39-5.65,2.33-4.12,13,5.51,5.82-.16,5.4,5.19,9,9.41,7.41-8.22,13.39,2.06,11.43,3.3,8.52S285.36,87.77,283.24,82.52Z"/><rect class="cls-5" x="256.18" y="135.06" width="0.83" height="29.57" transform="translate(68.61 379.98) rotate(-81.04)"/><path class="cls-9" d="M218.29,93.06a.92.92,0,0,1,1.35.1s-1.76-2.06-1-2.75c.65-.55,1.5.12,1.5.12s-1.51-1.78-.71-2.47,2.32,1.09,2.32,1.09a1.07,1.07,0,0,1,.12-1.5c1.13-1,4.24,3.34,4.24,3.34s-.51-2.44.69-2.79S231.26,97,231.26,97c.12.51-5.21,5.59-5.72,5.71l-4.5-5-.35-.4S217.5,93.93,218.29,93.06Z"/><line class="cls-8" x1="221.52" y1="88.83" x2="224.82" y2="92.7"/><rect class="cls-5" x="222.76" y="88.22" width="0.83" height="5.09" transform="translate(-5.52 166.55) rotate(-40.47)"/><line class="cls-8" x1="219.9" y1="90.2" x2="223.21" y2="94.08"/><rect class="cls-5" x="221.14" y="89.6" width="0.83" height="5.09" transform="matrix(0.76, -0.65, 0.65, 0.76, -6.81, 165.8)"/><line class="cls-8" x1="219.39" y1="92.87" x2="221.6" y2="95.46"/><rect class="cls-5" x="220.08" y="92.47" width="0.83" height="3.4" transform="translate(-8.38 165.6) rotate(-40.46)"/><path class="cls-8" d="M272.5,115.22c-18.93,2.8-28.57-5.59-40.15-19.71a108.05,108.05,0,0,0-8.12,7.33c4,4.71,19.64,34.73,60.67,20.64"/><g class="cls-11"><rect class="cls-4" x="219.56" y="102.16" width="1.66" height="5.31" transform="translate(-9.56 186.53) rotate(-45)"/><rect class="cls-4" x="236.05" y="102.16" width="1.66" height="5.31" transform="translate(-4.74 198.19) rotate(-45)"/><rect class="cls-4" x="227.93" y="95.11" width="5.31" height="1.66" transform="translate(-0.3 191.14) rotate(-45)"/><rect class="cls-4" x="219.56" y="119.91" width="1.66" height="5.31" transform="translate(-22.12 191.73) rotate(-45)"/><rect class="cls-4" x="236.05" y="119.91" width="1.66" height="5.3" transform="translate(-17.29 203.39) rotate(-45)"/><rect class="cls-4" x="252.55" y="119.91" width="1.66" height="5.3" transform="translate(-12.46 215.05) rotate(-45)"/><rect class="cls-4" x="269.05" y="119.91" width="1.66" height="5.31" transform="translate(-7.62 226.74) rotate(-45)"/><rect class="cls-4" x="285.54" y="119.91" width="1.66" height="5.31" transform="translate(-2.78 238.41) rotate(-45)"/><rect class="cls-4" x="277.42" y="112.86" width="5.3" height="1.66" transform="translate(1.64 231.34) rotate(-45)"/><rect class="cls-4" x="260.92" y="112.86" width="5.3" height="1.66" transform="translate(-3.19 219.67) rotate(-45)"/><rect class="cls-4" x="244.43" y="112.86" width="5.31" height="1.66" transform="translate(-8.02 208) rotate(-45)"/><rect class="cls-4" x="227.93" y="112.86" width="5.31" height="1.66" transform="translate(-12.86 196.34) rotate(-45)"/><rect class="cls-4" x="239.08" y="139.95" width="1.66" height="5.31" transform="translate(-30.56 211.42) rotate(-45)"/><rect class="cls-4" x="252.55" y="137.67" width="1.66" height="5.3" transform="translate(-25.01 220.25) rotate(-45)"/><rect class="cls-4" x="269.05" y="137.67" width="1.66" height="5.31" transform="translate(-20.17 231.94) rotate(-45)"/><rect class="cls-4" x="285.54" y="137.67" width="1.66" height="5.31" transform="translate(-15.34 243.61) rotate(-45)"/><rect class="cls-4" x="293.92" y="130.61" width="5.3" height="1.66" transform="translate(-6.08 248.2) rotate(-45)"/><rect class="cls-4" x="277.42" y="130.61" width="5.3" height="1.66" transform="translate(-10.91 236.54) rotate(-45)"/><rect class="cls-4" x="260.92" y="130.61" width="5.3" height="1.66" transform="translate(-15.74 224.87) rotate(-45)"/><rect class="cls-4" x="244.43" y="130.61" width="5.31" height="1.66" transform="translate(-20.58 213.2) rotate(-45)"/><rect class="cls-4" x="285.54" y="155.42" width="1.66" height="5.31" transform="translate(-27.9 248.8) rotate(-45)"/><rect class="cls-4" x="293.92" y="148.37" width="5.31" height="1.66" transform="translate(-18.63 253.41) rotate(-45)"/><rect class="cls-4" x="277.42" y="148.37" width="5.31" height="1.66" transform="translate(-23.46 241.75) rotate(-45)"/><rect class="cls-4" x="260.92" y="148.37" width="5.31" height="1.66" transform="translate(-28.3 230.08) rotate(-45)"/><rect class="cls-4" x="244.43" y="148.37" width="5.31" height="1.66" transform="translate(-33.13 218.41) rotate(-45)"/><rect class="cls-4" x="227.93" y="148.37" width="5.31" height="1.66" transform="translate(-37.96 206.74) rotate(-45)"/></g><path class="cls-5" d="M264.88,127.45c-23.09,0-34.94-16.18-39.48-22.38-.62-.85-1.11-1.52-1.48-2l-.16-.18.08-.24a87.13,87.13,0,0,1,8.43-7.59l.24,0,.16.18c12.34,15.06,21.88,22.22,39.77,19.57l.12.82c-18.17,2.69-27.87-4.47-40.29-19.57-1.27,1-6.44,5.68-7.5,6.78.35.44.78,1,1.3,1.74,5.68,7.76,23,31.38,59.86,18l.28.78A62.44,62.44,0,0,1,264.88,127.45Z"/><rect class="cls-5" y="274.05" width="457.9" height="0.83"/><rect class="cls-5" x="38.75" y="284.41" width="380.41" height="0.83"/></g></g></svg>