<svg width="276" height="276" viewBox="0 0 276 276" fill="none" xmlns="http://www.w3.org/2000/svg">
<rect x="0.239746" y="0.322266" width="275" height="275" rx="4" fill="url(#paint0_linear_28_983)"/>
<mask id="mask0_28_983" style="mask-type:alpha" maskUnits="userSpaceOnUse" x="0" y="0" width="276" height="276">
<rect x="0.239746" y="0.322266" width="275" height="275" rx="4" fill="url(#paint1_linear_28_983)"/>
</mask>
<g mask="url(#mask0_28_983)">
<path d="M157.071 268.618C156.892 268.618 156.892 268.618 157.071 268.618L152.421 267.196C152.242 267.196 152.242 267.018 152.063 266.84C152.063 266.663 152.063 266.485 152.242 266.485L155.819 263.285C155.998 263.108 156.177 263.108 156.177 263.108C156.356 263.108 156.356 263.285 156.535 263.463L157.429 268.085C157.429 268.262 157.429 268.44 157.25 268.44C157.25 268.618 157.071 268.618 157.071 268.618ZM153.494 266.663L156.535 267.729L155.819 264.707L153.494 266.663Z" fill="white" fill-opacity="0.5"/>
<path d="M247.219 13.9024C247.04 13.9024 246.861 13.9024 246.861 13.7247L243.82 8.92543C243.82 8.74768 243.642 8.56994 243.82 8.56994C243.82 8.39219 243.999 8.39218 244.178 8.39218L249.723 8.21442C249.902 8.21442 250.081 8.21443 250.081 8.39218C250.081 8.56993 250.26 8.74767 250.081 8.74767L247.398 13.7247C247.577 13.7247 247.398 13.9024 247.219 13.9024ZM245.073 9.10317L247.219 12.4804L249.186 8.92543L245.073 9.10317Z" fill="white" fill-opacity="0.5"/>
<path d="M195.169 88.2017C194.99 88.2017 194.99 88.2017 194.811 88.024C194.633 87.8462 194.633 87.6685 194.633 87.6685L196.421 80.203C196.421 80.0252 196.6 79.8475 196.779 79.8475C196.958 79.8475 197.137 79.8475 197.137 80.0252L202.681 85.3577C202.86 85.5355 202.86 85.7132 202.86 85.7132C202.86 85.891 202.681 86.0687 202.503 86.0687L195.169 88.2017C195.169 88.2017 195.348 88.2017 195.169 88.2017ZM197.316 81.0917L195.885 87.1352L201.966 85.3577L197.316 81.0917Z" fill="white" fill-opacity="0.5"/>
<path d="M11.1179 228.446C11.1179 228.446 10.9391 228.446 11.1179 228.446C10.7602 228.446 10.7602 228.269 10.7602 228.091L9.68701 222.936C9.68701 222.758 9.68701 222.581 9.86588 222.581C10.0447 222.403 10.2236 222.403 10.2236 222.403L15.2318 224.003C15.4107 224.003 15.4107 224.18 15.5895 224.358C15.5895 224.536 15.5895 224.714 15.4107 224.714L11.4757 228.269C11.2968 228.446 11.2968 228.446 11.1179 228.446ZM10.5813 223.647L11.4757 227.202L14.1586 224.714L10.5813 223.647Z" fill="white" fill-opacity="0.5"/>
<path d="M116.827 11.7693H116.648L98.5824 1.63756C98.4036 1.63756 98.4036 1.45981 98.4036 1.28206C98.4036 1.10431 98.4036 0.926568 98.5824 0.926568L116.469 -9.56067C116.648 -9.56067 116.827 -9.56067 117.005 -9.56067C117.184 -9.56067 117.184 -9.38292 117.184 -9.20517L117.542 11.4138C117.542 11.5915 117.542 11.7693 117.363 11.7693C117.005 11.7693 117.005 11.7693 116.827 11.7693ZM99.6556 1.28206L116.469 10.525L116.111 -8.49417L99.6556 1.28206Z" fill="white" fill-opacity="0.5"/>
<path d="M64.9559 57.6289L57.8013 56.7402C57.6225 56.7402 57.4436 56.5624 57.4436 56.3847C57.4436 56.2069 57.4436 56.0292 57.4436 56.0292L61.7364 50.3412C61.9152 50.1635 61.9152 50.1635 62.0941 50.1635C62.2729 50.1635 62.4518 50.3412 62.4518 50.5189L65.1348 57.0957C65.1348 57.2734 65.1348 57.4512 65.1348 57.4512C65.3136 57.629 65.1348 57.6289 64.9559 57.6289ZM58.6957 55.8514L64.2405 56.5625L62.0941 51.4077L58.6957 55.8514Z" fill="white" fill-opacity="0.5"/>
<path d="M48.3218 248.532C48.1429 248.532 48.1429 248.532 47.9641 248.354L34.5492 236.978C34.3704 236.801 34.3704 236.801 34.3704 236.623C34.3704 236.445 34.5492 236.267 34.7281 236.267L51.3625 230.402C51.5413 230.402 51.7202 230.402 51.7202 230.402C51.8991 230.579 51.8991 230.579 51.8991 230.757L48.6795 247.999C48.6795 248.354 48.6795 248.532 48.3218 248.532ZM35.6224 236.978L47.9641 247.288L50.8259 231.468L35.6224 236.978Z" fill="white" fill-opacity="0.5"/>
<path d="M132.567 92.6455C132.388 92.6455 132.388 92.6455 132.567 92.6455L116.111 87.1353C115.932 87.1353 115.932 86.9575 115.753 86.7798C115.753 86.602 115.753 86.4243 115.932 86.4243L128.811 75.0483C128.989 74.8706 129.168 74.8705 129.168 74.8705C129.347 74.8705 129.347 75.0483 129.526 75.2261L132.924 91.9345C132.924 92.1123 132.924 92.29 132.746 92.29C132.746 92.6455 132.567 92.6455 132.567 92.6455ZM117.005 86.602L131.851 91.579L128.632 76.2925L117.005 86.602Z" fill="white" fill-opacity="0.5"/>
<path d="M81.0539 243.377C80.875 243.377 80.6962 243.2 80.6962 243.2L75.1514 232.357C75.1514 232.179 75.1514 232.001 75.1514 231.824C75.1514 231.646 75.3302 231.646 75.5091 231.646L87.6719 232.179C87.8507 232.179 88.0296 232.357 88.0296 232.357C88.0296 232.535 88.0296 232.712 88.0296 232.89L81.4116 243.022C81.4116 243.2 81.2328 243.377 81.0539 243.377ZM76.2246 232.535L81.0539 241.955L86.7776 233.068L76.2246 232.535Z" fill="white" fill-opacity="0.5"/>
<path d="M182.291 193.963C182.112 193.963 182.112 193.963 181.933 193.785C181.754 193.607 181.754 193.43 181.754 193.43L186.226 175.477C186.226 175.299 186.405 175.121 186.584 175.121C186.763 175.121 186.941 175.121 186.941 175.299L200.356 188.097C200.535 188.275 200.535 188.453 200.535 188.453C200.535 188.63 200.356 188.808 200.177 188.808L182.291 193.963ZM186.941 176.366L182.828 192.896L199.283 188.097L186.941 176.366Z" fill="white" fill-opacity="0.5"/>
<path d="M218.422 175.121C218.243 175.121 218.243 175.121 218.064 174.944C217.885 174.766 217.885 174.766 217.885 174.588L218.6 169.789C218.6 169.611 218.779 169.433 218.958 169.433C219.137 169.433 219.316 169.433 219.316 169.433L223.251 172.455C223.43 172.633 223.43 172.633 223.43 172.811C223.43 172.988 223.251 173.166 223.072 173.166L218.422 175.121C218.422 175.121 218.6 175.121 218.422 175.121ZM219.495 170.678L219.137 173.877L222.178 172.633L219.495 170.678Z" fill="white" fill-opacity="0.5"/>
<path d="M219.316 46.2528C219.137 46.2528 218.958 46.2528 218.958 46.075C218.958 45.8973 218.958 45.7195 218.958 45.5418L230.763 24.0341C230.763 23.8563 230.942 23.8563 231.121 23.8563C231.3 23.8563 231.479 23.8563 231.479 24.0341L244.357 44.8308C244.357 45.0085 244.357 45.1863 244.357 45.3641C244.357 45.5418 244.178 45.5418 243.999 45.5418L219.316 46.2528ZM231.121 25.2783L220.031 45.3641L243.105 44.8308L231.121 25.2783Z" fill="white" fill-opacity="0.5"/>
<path d="M165.836 48.7413C165.657 48.7413 165.478 48.7413 165.478 48.5636L161.901 43.7643C161.722 43.5866 161.722 43.4088 161.901 43.4088C161.901 43.2311 162.079 43.2311 162.258 43.0533L168.161 42.3423C168.34 42.3423 168.518 42.3423 168.518 42.5201C168.697 42.6978 168.697 42.8756 168.518 42.8756L166.193 48.3858C166.193 48.5636 166.014 48.7413 165.836 48.7413ZM162.974 43.9421L165.657 47.4971L167.266 43.4088L162.974 43.9421Z" fill="white" fill-opacity="0.5"/>
<path d="M36.6955 35.41C36.5166 35.41 36.5166 35.41 36.6955 35.41C36.3377 35.41 36.3377 35.2323 36.3377 35.0545L31.6873 16.0353C31.6873 15.8576 31.6873 15.6798 31.8661 15.6798C32.045 15.5021 32.2239 15.5021 32.2239 15.5021L51.1835 21.0123C51.3623 21.0123 51.5412 21.1901 51.5412 21.3678C51.5412 21.5456 51.5412 21.7233 51.3623 21.7233L37.0532 35.2323C36.8743 35.2323 36.6955 35.41 36.6955 35.41ZM32.5816 16.5686L36.8743 34.1658L49.9314 21.7233L32.5816 16.5686Z" fill="white" fill-opacity="0.5"/>
<path d="M199.82 57.0956C199.641 57.0956 199.462 57.0956 199.462 56.9179L196.421 51.9409C196.421 51.7631 196.421 51.5854 196.421 51.4076C196.421 51.2299 196.6 51.2299 196.779 51.2299L202.682 51.0521C202.861 51.0521 203.039 51.0521 203.039 51.2299C203.039 51.4076 203.039 51.5854 203.039 51.7631L200.178 56.9179C200.178 57.0956 199.999 57.0956 199.82 57.0956ZM197.495 52.1186L199.82 55.8514L201.966 52.1186H197.495Z" fill="white" fill-opacity="0.5"/>
<path d="M166.372 239.111C166.193 239.111 166.014 239.111 166.014 238.934L163.689 235.201C163.689 235.023 163.689 234.845 163.689 234.668C163.689 234.49 163.868 234.49 164.047 234.49H168.519C168.697 234.49 168.876 234.49 168.876 234.668C168.876 234.845 168.876 235.023 168.876 235.201L166.73 239.111C166.73 239.111 166.551 239.111 166.372 239.111ZM164.941 235.379L166.372 237.867L167.803 235.379H164.941Z" fill="white" fill-opacity="0.5"/>
<path d="M65.4924 95.845C65.3135 95.845 65.1346 95.845 65.1346 95.6673L54.9394 80.203C54.9394 80.0253 54.7605 79.8476 54.9394 79.6698C54.9394 79.4921 55.1182 79.492 55.2971 79.492L73.899 78.4255C74.0779 78.4255 74.2567 78.4255 74.2567 78.6033C74.2567 78.781 74.4356 78.9588 74.2567 79.1366L65.8501 95.4895C65.8501 95.6673 65.6712 95.845 65.4924 95.845ZM56.0125 80.203L65.3135 94.423L73.0047 79.1366L56.0125 80.203Z" fill="white" fill-opacity="0.5"/>
<path d="M272.796 269.684L254.016 269.151C253.837 269.151 253.658 268.973 253.658 268.973C253.658 268.795 253.658 268.618 253.658 268.44L263.496 252.442C263.496 252.265 263.674 252.265 263.853 252.265C264.032 252.265 264.211 252.442 264.211 252.442L273.154 268.973C273.154 269.151 273.154 269.329 273.154 269.506C272.975 269.684 272.975 269.684 272.796 269.684ZM254.731 268.262L272.081 268.795L263.853 253.687L254.731 268.262Z" fill="white" fill-opacity="0.5"/>
<path d="M221.462 236.978H221.284C221.105 236.978 221.105 236.8 221.105 236.623V231.824C221.105 231.646 221.105 231.468 221.284 231.468C221.462 231.468 221.641 231.468 221.82 231.468L225.934 233.779C226.113 233.779 226.113 233.957 226.113 234.134C226.113 234.312 226.113 234.49 225.934 234.49L221.82 236.978C221.641 236.801 221.462 236.978 221.462 236.978ZM221.82 232.535V235.734L224.503 234.134L221.82 232.535Z" fill="white" fill-opacity="0.5"/>
<path d="M63.1673 142.949L40.4515 137.616C40.2726 137.616 40.0938 137.438 40.0938 137.261C40.0938 137.083 40.0938 136.905 40.2726 136.905L56.1915 120.019C56.3704 119.841 56.5493 119.841 56.5493 119.841C56.7281 119.841 56.907 120.019 56.907 120.197L63.7039 142.238C63.7039 142.415 63.7039 142.593 63.525 142.593C63.3461 142.949 63.3461 142.949 63.1673 142.949ZM41.3458 137.083L62.4518 142.06L56.1915 121.441L41.3458 137.083Z" fill="white" fill-opacity="0.5"/>
<path d="M127.916 155.036C127.559 155.036 127.201 154.858 126.664 154.858C126.306 154.68 125.591 154.502 125.412 154.68C125.233 154.858 125.054 154.858 124.697 154.858C124.518 154.68 124.518 154.502 124.518 154.147C125.054 153.436 125.949 153.791 126.664 153.969C127.022 154.147 127.737 154.325 127.916 154.147C128.095 153.969 127.737 153.436 127.559 153.08C127.201 152.369 126.664 151.658 127.201 150.947C127.737 150.236 128.632 150.592 129.347 150.77C129.705 150.947 130.42 151.125 130.599 150.947C130.778 150.77 130.42 150.236 130.241 149.881C129.884 149.17 129.347 148.459 129.884 147.748C130.42 147.037 131.315 147.392 132.03 147.57C132.388 147.748 133.103 147.926 133.282 147.748C133.461 147.57 133.103 147.037 132.924 146.681C132.567 145.97 132.03 145.259 132.567 144.548C132.746 144.371 132.924 144.371 133.282 144.371C133.461 144.548 133.461 144.726 133.461 145.082C133.282 145.259 133.64 145.793 133.819 146.148C134.176 146.859 134.713 147.57 134.176 148.281C133.64 148.992 132.746 148.637 132.03 148.459C131.672 148.281 130.957 148.103 130.778 148.281C130.599 148.459 130.957 148.992 131.136 149.348C131.494 150.059 132.03 150.77 131.494 151.481C130.957 152.192 130.063 151.836 129.347 151.658C128.989 151.481 128.274 151.303 128.095 151.481C127.916 151.658 128.274 152.192 128.453 152.547C128.811 153.258 129.347 153.969 128.811 154.68C128.632 154.858 128.274 155.036 127.916 155.036Z" fill="white" fill-opacity="0.5"/>
<path d="M189.446 39.1428C189.267 39.1428 189.088 39.1428 189.088 38.9651C187.836 36.8321 189.803 34.3436 191.592 32.0329C193.202 29.8999 194.99 27.5891 194.096 25.9893C193.202 24.3896 190.34 24.7451 187.657 25.2784C184.616 25.8116 181.576 26.1671 180.324 24.2119C179.071 22.0789 181.039 19.5904 182.828 17.2796C184.437 15.1466 186.226 12.8359 185.332 11.2361C184.437 9.63639 181.576 9.99188 178.893 10.5251C175.852 11.0584 172.811 11.4139 171.559 9.45864C170.307 7.32564 172.275 4.83713 174.063 2.52638C175.673 0.393387 177.462 -1.91735 176.567 -3.5171C175.673 -5.11685 172.811 -4.76135 170.128 -4.2281C167.088 -3.69485 164.047 -3.33936 162.795 -5.47236C162.616 -5.65011 162.795 -6.0056 162.974 -6.0056C163.153 -6.18335 163.51 -6.0056 163.51 -5.82785C164.405 -4.2281 167.266 -4.5836 169.949 -5.11685C172.99 -5.6501 176.031 -6.0056 177.283 -3.8726C178.535 -1.73961 176.567 0.748893 174.779 3.05964C173.169 5.19264 171.38 7.50337 172.275 9.10312C173.169 10.7029 176.031 10.3474 178.714 9.81414C181.754 9.28089 184.795 8.92537 186.047 10.8806C187.299 13.0136 185.332 15.5021 183.543 17.8129C181.933 19.9459 180.145 22.2566 181.039 23.8564C181.933 25.4561 184.795 25.1006 187.478 24.5674C190.519 24.0341 193.559 23.6786 194.812 25.6339C196.064 27.7669 194.096 30.2554 192.307 32.5661C190.698 34.6991 188.909 37.0098 189.803 38.6096C189.982 38.7873 189.803 39.1428 189.624 39.1428C189.446 39.1428 189.446 39.1428 189.446 39.1428Z" fill="white" fill-opacity="0.5"/>
<path d="M123.802 265.774C123.802 265.774 123.624 265.774 123.802 265.774C122.193 265.596 121.835 263.641 121.477 262.041C121.12 260.619 120.762 259.197 119.867 259.019C118.973 258.842 118.079 260.086 117.363 261.508C116.469 263.108 115.575 264.53 113.965 264.352C112.534 264.174 111.997 262.397 111.64 260.619C111.282 259.197 110.924 257.775 110.03 257.597C109.136 257.42 108.241 258.664 107.526 260.086C106.632 261.686 105.558 263.108 104.127 262.93C102.696 262.752 102.16 260.975 101.802 259.197C101.444 257.775 101.087 256.353 100.192 256.175C99.2981 255.998 98.4037 257.242 97.6883 258.664C96.794 260.264 95.7208 261.686 94.2899 261.508C94.111 261.508 93.9321 261.152 93.9321 260.975C93.9321 260.797 94.2899 260.619 94.4687 260.619C95.363 260.797 96.2574 259.553 96.9728 258.131C97.8671 256.531 98.9403 255.109 100.371 255.287C101.802 255.464 102.339 257.242 102.696 259.019C103.054 260.441 103.412 261.863 104.306 262.041C105.201 262.219 106.095 260.975 106.81 259.553C107.705 257.953 108.778 256.531 110.209 256.709C111.64 256.886 112.176 258.664 112.534 260.441C112.892 261.863 113.249 263.285 114.144 263.463C115.038 263.641 115.932 262.397 116.648 260.975C117.542 259.375 118.615 257.953 120.046 258.131C121.477 258.308 122.014 260.086 122.372 261.863C122.729 263.285 123.087 264.707 123.981 264.885C124.16 264.885 124.339 265.241 124.339 265.418C124.16 265.596 123.981 265.774 123.802 265.774Z" fill="white" fill-opacity="0.5"/>
<path d="M214.666 9.99191C214.487 9.99191 214.487 9.99192 214.308 9.81417C213.95 9.28092 214.308 8.74766 214.487 8.21441C214.666 8.03666 214.845 7.68117 214.845 7.50342C214.666 7.50342 214.308 7.68118 214.129 7.68118C213.592 7.85893 212.877 8.03667 212.519 7.50342C212.162 6.97017 212.519 6.43693 212.698 5.90368C212.877 5.72593 213.056 5.37042 213.056 5.19267C212.877 5.19267 212.519 5.37043 212.34 5.37043C211.804 5.54818 211.088 5.72592 210.731 5.19267C210.373 4.65942 210.731 4.12618 210.91 3.59293C211.088 3.41518 211.267 3.05968 211.267 2.88193C211.267 2.88193 210.731 3.05968 210.552 3.05968C210.015 3.23743 209.3 3.41518 208.942 2.88193C208.763 2.70418 208.763 2.34868 208.942 2.17093C209.121 1.99318 209.479 1.99318 209.657 2.17093C209.836 2.17093 210.194 1.99318 210.373 1.99318C210.91 1.81543 211.625 1.63768 211.983 2.17093C212.34 2.70418 211.983 3.23743 211.804 3.77068C211.625 3.94843 211.446 4.30393 211.446 4.48168C211.446 4.48168 211.983 4.30392 212.162 4.30392C212.698 4.12617 213.414 3.94843 213.771 4.48168C214.129 5.01493 213.771 5.54817 213.592 6.08142C213.414 6.25917 213.235 6.61468 213.235 6.79243C213.414 6.79243 213.771 6.61467 213.95 6.61467C214.487 6.43692 215.202 6.25918 215.56 6.79243C215.918 7.32568 215.56 7.85892 215.381 8.39217C215.202 8.56992 215.023 8.92541 215.023 9.10316C215.202 9.28091 215.202 9.63641 215.023 9.63641C214.845 9.81416 214.666 9.99191 214.666 9.99191Z" fill="white" fill-opacity="0.5"/>
<path d="M144.551 174.588C143.478 174.588 142.404 173.699 141.51 172.811C140.437 171.922 139.364 170.855 138.648 171.211C138.469 171.389 138.112 171.211 138.112 171.033C137.933 170.855 138.112 170.5 138.291 170.5C139.543 169.789 140.974 171.033 142.226 172.1C143.299 172.988 144.372 174.055 145.087 173.699C145.803 173.344 145.803 171.922 145.624 170.5C145.445 168.722 145.445 167.123 146.697 166.412C147.949 165.701 149.38 166.945 150.632 168.011C151.705 168.9 152.779 169.967 153.494 169.611C154.209 169.256 154.209 167.834 154.031 166.412C153.852 164.634 153.852 163.034 155.104 162.323C156.356 161.612 157.787 162.857 159.039 163.923C160.112 164.812 161.185 165.878 161.901 165.523C162.616 165.167 162.616 163.745 162.437 162.323C162.258 160.546 162.258 158.946 163.51 158.235C163.689 158.057 164.047 158.235 164.047 158.413C164.226 158.591 164.047 158.946 163.868 158.946C163.153 159.302 163.153 160.724 163.332 162.146C163.51 163.923 163.51 165.523 162.258 166.234C161.006 166.945 159.575 165.701 158.323 164.634C157.25 163.745 156.177 162.679 155.462 163.034C154.746 163.39 154.746 164.812 154.925 166.234C155.104 168.011 155.104 169.611 153.852 170.322C152.6 171.033 151.169 169.789 149.917 168.722C148.844 167.834 147.77 166.767 147.055 167.123C146.339 167.478 146.339 168.9 146.518 170.322C146.697 172.1 146.697 173.699 145.445 174.41C145.087 174.588 144.73 174.588 144.551 174.588Z" fill="white" fill-opacity="0.5"/>
<path d="M40.8095 182.054C40.8095 182.054 40.6306 182.054 40.8095 182.054C40.4517 182.054 40.2729 181.698 40.4517 181.52C40.4517 181.165 39.7363 180.632 39.1997 180.276C38.3054 179.743 37.4111 179.21 37.5899 178.143C37.7688 177.254 38.842 176.899 39.9152 176.721C40.6306 176.543 41.3461 176.366 41.5249 176.01C41.5249 175.655 40.8095 175.121 40.2729 174.766C39.3786 174.233 38.4842 173.699 38.6631 172.633C38.842 171.744 39.9152 171.389 40.9883 171.211C41.7038 171.033 42.4193 170.855 42.5981 170.5C42.5981 170.144 41.8827 169.611 41.3461 169.256C40.4517 168.722 39.5574 168.189 39.7363 167.123C39.9152 166.234 40.9883 165.878 42.0615 165.701C42.777 165.523 43.4924 165.345 43.6713 164.99C43.6713 164.812 44.029 164.634 44.2079 164.634C44.3868 164.634 44.5656 164.812 44.5656 165.167C44.3868 166.056 43.3136 166.412 42.2404 166.589C41.5249 166.767 40.8095 166.945 40.6306 167.3C40.6306 167.656 41.3461 168.189 41.8827 168.545C42.777 169.078 43.6713 169.611 43.4924 170.678C43.3136 171.566 42.2404 171.922 41.1672 172.1C40.4517 172.277 39.7363 172.455 39.5574 172.811C39.5574 173.166 40.2729 173.699 40.8095 174.055C41.7038 174.588 42.5981 175.121 42.4193 176.188C42.2404 177.077 41.1672 177.432 40.094 177.61C39.3786 177.788 38.4842 177.965 38.4842 178.321C38.4842 178.676 39.1997 179.21 39.7363 179.565C40.6306 180.098 41.5249 180.632 41.3461 181.698C41.1672 182.054 40.9883 182.054 40.8095 182.054Z" fill="white" fill-opacity="0.5"/>
<path d="M228.796 271.106C228.617 271.106 228.438 270.929 228.438 270.751C228.438 270.395 227.723 270.218 227.186 270.04C226.292 269.862 225.398 269.507 225.219 268.618C225.219 267.729 226.113 267.196 226.828 266.84C227.365 266.663 227.902 266.307 227.902 265.952C227.902 265.596 227.186 265.418 226.65 265.241C225.755 265.063 224.861 264.707 224.682 263.819C224.682 262.93 225.576 262.397 226.292 262.041C226.828 261.863 227.365 261.508 227.365 261.152C227.365 260.797 226.65 260.619 226.113 260.441C225.219 260.264 224.324 259.908 224.146 259.019C224.146 258.131 225.04 257.597 225.755 257.242C226.292 257.064 226.828 256.709 226.828 256.353C226.828 256.175 227.007 255.82 227.186 255.82C227.365 255.82 227.723 255.998 227.723 256.175C227.723 257.064 226.828 257.597 226.113 257.953C225.576 258.131 225.04 258.486 225.04 258.842C225.04 259.197 225.755 259.375 226.292 259.553C227.186 259.73 228.081 260.086 228.259 260.975C228.259 261.863 227.365 262.397 226.65 262.752C226.113 262.93 225.576 263.285 225.576 263.641C225.576 263.996 226.292 264.174 226.828 264.352C227.723 264.53 228.617 264.885 228.796 265.774C228.796 266.663 227.902 267.196 227.186 267.551C226.65 267.729 226.113 268.085 226.113 268.44C226.113 268.796 226.828 268.973 227.365 269.151C228.259 269.329 229.154 269.684 229.333 270.573C229.333 270.929 229.154 271.106 228.796 271.106C228.796 271.106 228.975 271.106 228.796 271.106Z" fill="white" fill-opacity="0.5"/>
<path d="M12.3699 84.1136C11.1179 84.1136 9.50809 83.5804 8.07717 83.2249C5.75194 82.5139 3.24783 81.8028 2.35351 83.0471C2.17465 83.2248 1.99578 83.2248 1.63805 83.0471C1.45919 82.8693 1.45919 82.6916 1.63805 82.3361C3.06897 80.5586 5.75194 81.4473 8.4349 82.1583C10.7601 82.8693 13.2642 83.5804 14.1586 82.3361C15.2318 81.0919 13.9797 78.7811 12.7277 76.6481C11.2967 74.3373 10.0447 71.8489 11.4756 70.0714C12.9065 68.2939 15.5895 69.1826 18.2724 69.8936C20.5977 70.6046 23.1018 71.3156 23.9961 70.0714C25.0693 68.8271 23.8172 66.5164 22.5652 64.3834C21.1343 62.0726 19.8822 59.5841 21.3131 57.8066C22.7441 56.0291 25.427 56.9179 28.11 57.6289C30.4352 58.3399 32.9393 59.0509 34.0125 57.8066C35.0857 56.5624 33.8337 54.2516 32.5816 52.1186C31.1507 49.8079 29.8986 47.3194 31.3296 45.5419C31.5084 45.3641 31.6873 45.3641 32.045 45.5419C32.2239 45.7196 32.2239 45.8974 32.045 46.2529C30.9718 47.4971 32.2239 49.8079 33.4759 51.9409C34.9068 54.2516 36.1589 56.7401 34.728 58.5176C33.2971 60.2951 30.6141 59.4064 27.9311 58.6954C25.6059 57.9844 23.1018 57.2734 22.0286 58.5176C20.9554 59.7619 22.2075 62.0726 23.4595 64.2056C24.8904 66.5164 26.1425 69.0049 24.7116 70.7824C23.2807 72.5599 20.5977 71.6711 17.9147 70.9601C15.5895 70.2491 13.0854 69.5381 12.1911 70.7824C11.1179 72.0266 12.3699 74.3374 13.622 76.4704C15.0529 78.7811 16.3049 81.2696 14.874 83.0471C14.1586 83.9358 13.2642 84.1136 12.3699 84.1136Z" fill="white" fill-opacity="0.5"/>
<path d="M283.528 210.316C283.349 210.316 283.349 210.316 283.528 210.316C282.276 209.96 282.276 208.716 282.276 207.472C282.276 206.583 282.276 205.694 281.74 205.517C281.382 205.339 280.666 206.05 280.13 206.583C279.414 207.472 278.52 208.361 277.447 208.005C276.374 207.65 276.374 206.405 276.374 205.161C276.374 204.272 276.374 203.384 275.837 203.206C275.301 203.028 274.764 203.739 274.227 204.272C273.512 205.161 272.618 206.05 271.544 205.694C270.471 205.339 270.471 204.095 270.471 202.85C270.471 201.962 270.471 201.073 269.935 200.895C269.577 200.717 268.861 201.428 268.325 201.962C267.609 202.85 266.715 203.739 265.642 203.384C265.463 203.384 265.284 203.028 265.463 202.85C265.463 202.673 265.821 202.495 266 202.673C266.357 202.85 267.073 202.139 267.609 201.606C268.325 200.717 269.219 199.829 270.292 200.184C271.366 200.54 271.366 201.784 271.366 203.028C271.366 203.917 271.366 204.806 271.902 204.983C272.26 205.161 272.975 204.45 273.512 203.917C274.227 203.028 275.122 202.139 276.195 202.495C277.268 202.85 277.268 204.095 277.268 205.339C277.268 206.228 277.268 207.116 277.805 207.294C278.162 207.472 278.878 206.761 279.414 206.228C280.13 205.339 281.024 204.45 282.097 204.806C283.171 205.161 283.171 206.405 283.171 207.65C283.171 208.538 283.171 209.427 283.707 209.605C283.886 209.605 284.065 209.96 283.886 210.138C283.886 210.316 283.707 210.316 283.528 210.316Z" fill="white" fill-opacity="0.5"/>
<path d="M112.355 123.929C111.282 123.929 110.566 122.863 109.851 121.619C109.314 120.73 108.599 119.663 107.883 119.841C107.704 119.841 107.347 119.663 107.347 119.486C107.347 119.308 107.526 118.952 107.704 118.952C108.956 118.775 109.672 120.019 110.566 121.263C111.103 122.152 111.818 123.218 112.534 123.041C113.249 122.863 113.428 121.796 113.607 120.73C113.965 119.308 114.144 117.886 115.396 117.708C116.648 117.53 117.363 118.775 118.257 120.019C118.794 120.908 119.509 121.974 120.225 121.796C120.94 121.619 121.119 120.552 121.298 119.486C121.656 118.064 121.835 116.642 123.087 116.464C124.339 116.286 125.054 117.53 125.949 118.775C126.485 119.663 127.201 120.73 127.916 120.552C128.632 120.374 128.81 119.308 128.989 118.241C129.347 116.819 129.526 115.397 130.778 115.22C130.957 115.22 131.315 115.397 131.315 115.575C131.315 115.753 131.136 116.108 130.957 116.108C130.241 116.286 130.062 117.353 129.884 118.419C129.526 119.841 129.347 121.263 128.095 121.441C126.843 121.619 126.127 120.374 125.233 119.13C124.697 118.241 123.981 117.175 123.266 117.353C122.55 117.53 122.371 118.597 122.192 119.663C121.835 121.085 121.656 122.507 120.404 122.685C119.152 122.863 118.436 121.619 117.542 120.374C117.005 119.486 116.29 118.419 115.574 118.597C114.859 118.775 114.68 119.841 114.501 120.908C114.144 122.33 113.965 123.752 112.713 123.929C112.534 123.929 112.355 123.929 112.355 123.929Z" fill="white" fill-opacity="0.5"/>
<path d="M271.723 121.263C271.544 121.263 271.544 121.263 271.365 121.085C270.292 119.841 271.187 118.064 271.902 116.286C272.617 114.864 273.333 113.265 272.617 112.554C271.902 111.843 270.292 112.376 268.682 112.909C266.894 113.62 264.926 114.331 263.853 113.087C262.78 111.842 263.674 110.065 264.39 108.288C265.105 106.866 265.821 105.266 265.105 104.555C264.39 103.844 262.78 104.377 261.17 104.91C259.381 105.621 257.414 106.332 256.341 105.088C255.268 103.844 256.162 102.066 256.877 100.289C257.593 98.8668 258.308 97.267 257.593 96.556C256.877 95.845 255.268 96.3783 253.658 96.9115C251.869 97.6225 249.902 98.3335 248.828 97.0893C248.65 96.9115 248.65 96.556 248.828 96.3783C249.007 96.2005 249.365 96.2005 249.544 96.3783C250.259 97.0893 251.869 96.556 253.479 96.0228C255.268 95.3118 257.235 94.6008 258.308 95.845C259.381 97.0893 258.487 98.8668 257.772 100.644C257.056 102.066 256.341 103.666 257.056 104.377C257.772 105.088 259.381 104.555 260.991 104.022C262.78 103.311 264.747 102.6 265.821 103.844C266.894 105.088 265.999 106.866 265.284 108.643C264.569 110.065 263.853 111.665 264.569 112.376C265.284 113.087 266.894 112.554 268.504 112.02C270.292 111.309 272.26 110.598 273.333 111.843C274.406 113.087 273.512 114.864 272.796 116.642C272.081 118.064 271.365 119.664 272.081 120.374C272.26 120.552 272.26 120.908 272.081 121.085C271.902 121.263 271.723 121.263 271.723 121.263Z" fill="white" fill-opacity="0.5"/>
<path d="M169.413 213.871C169.234 213.871 169.234 213.871 169.055 213.693C167.982 212.804 168.518 211.382 169.055 209.96C169.413 208.894 169.771 207.65 169.234 207.116C168.697 206.583 167.624 207.294 166.551 207.827C165.299 208.538 163.868 209.249 162.795 208.361C161.722 207.472 162.258 206.05 162.795 204.628C163.153 203.561 163.51 202.317 162.974 201.784C162.437 201.251 161.364 201.962 160.291 202.495C159.039 203.206 157.608 203.917 156.535 203.028C155.461 202.139 155.998 200.717 156.535 199.295C156.892 198.051 157.25 196.985 156.713 196.451C156.177 195.918 155.104 196.629 154.03 197.162C152.778 197.873 151.347 198.584 150.274 197.696C150.095 197.518 150.095 197.34 150.274 196.985C150.453 196.807 150.632 196.807 150.99 196.985C151.526 197.518 152.6 196.807 153.673 196.274C154.925 195.563 156.356 194.852 157.429 195.74C158.502 196.629 157.965 198.051 157.429 199.473C157.071 200.54 156.713 201.784 157.25 202.317C157.787 202.85 158.86 202.139 159.933 201.606C161.185 200.895 162.616 200.184 163.689 201.073C164.762 201.962 164.226 203.384 163.689 204.806C163.331 205.872 162.974 207.116 163.51 207.65C164.047 208.183 165.12 207.472 166.193 206.939C167.445 206.228 168.876 205.517 169.949 206.405C171.023 207.294 170.486 208.716 169.949 210.138C169.592 211.205 169.234 212.449 169.771 212.982C169.949 213.16 169.949 213.338 169.771 213.693C169.771 213.871 169.592 213.871 169.413 213.871Z" fill="white" fill-opacity="0.5"/>
<path d="M217.348 114.864C217.348 114.864 217.169 114.864 217.348 114.864C216.991 114.864 216.812 114.686 216.991 114.331C217.348 111.842 220.389 110.954 223.43 110.243C226.113 109.532 228.975 108.821 229.153 106.865C229.332 104.91 226.828 103.666 224.324 102.244C221.641 100.822 218.779 99.2222 219.137 96.7337C219.495 94.2452 222.535 93.3564 225.576 92.6454C228.259 91.9344 231.121 91.2234 231.3 89.2682C231.479 87.3129 228.975 86.0687 226.47 84.6467C223.787 83.2247 220.926 81.6249 221.283 79.1365C221.641 76.648 224.682 75.7592 227.722 75.0482C230.405 74.3372 233.267 73.6262 233.446 71.671C233.625 69.7157 231.121 68.4715 228.617 67.0495C225.934 65.6275 223.072 64.0277 223.43 61.5392C223.43 61.3615 223.787 61.1837 223.966 61.1837C224.145 61.1837 224.324 61.3615 224.324 61.717C224.145 63.6722 226.649 64.9165 229.153 66.3385C231.836 67.7605 234.698 69.3602 234.34 71.8487C233.983 74.3372 230.942 75.226 227.901 75.937C225.218 76.6479 222.357 77.3589 222.178 79.3142C221.999 81.2694 224.503 82.5137 227.007 83.9357C229.69 85.3577 232.552 86.9574 232.194 89.4459C231.836 91.9344 228.796 92.8232 225.755 93.5342C223.072 94.2452 220.21 94.9562 220.031 96.9114C219.852 98.8667 222.357 100.111 224.861 101.533C227.544 102.955 230.405 104.555 230.048 107.043C229.69 109.532 226.649 110.42 223.609 111.131C220.926 111.842 218.064 112.553 217.885 114.509C217.706 114.686 217.527 114.864 217.348 114.864Z" fill="white" fill-opacity="0.5"/>
<path d="M80.6961 117.353H80.5172C80.3384 117.175 80.3384 116.997 80.3384 116.82C81.0538 115.753 82.4848 116.109 83.7368 116.286C84.81 116.464 85.8832 116.642 86.2409 116.286C86.5986 115.753 85.8832 114.864 85.3466 113.976C84.6311 112.909 83.7368 111.665 84.4523 110.598C85.1677 109.532 86.5986 109.887 87.8507 110.065C88.9239 110.243 89.9971 110.421 90.3548 110.065C90.7125 109.532 89.9971 108.643 89.4605 107.754C88.745 106.688 87.8507 105.444 88.5661 104.377C89.2816 103.311 90.7125 103.666 91.9646 103.844C93.0378 104.022 94.1109 104.199 94.4687 103.844C94.8264 103.311 94.1109 102.422 93.5743 101.533C92.8589 100.467 91.9646 99.2223 92.68 98.1558C92.8589 97.9781 93.0378 97.9781 93.2166 97.9781C93.3955 98.1558 93.3955 98.3336 93.3955 98.5113C93.0378 99.0446 93.7532 99.9333 94.2898 100.822C95.0053 101.889 95.8996 103.133 95.1841 104.199C94.4687 105.266 93.0378 104.91 91.7857 104.733C90.7125 104.555 89.6393 104.377 89.2816 104.733C88.9239 105.266 89.6393 106.155 90.1759 107.043C90.8914 108.11 91.7857 109.354 91.0702 110.421C90.3548 111.487 88.9239 111.132 87.6718 110.954C86.5986 110.776 85.5254 110.598 85.1677 110.954C84.81 111.487 85.5254 112.376 86.062 113.265C86.7775 114.331 87.6718 115.575 86.9564 116.642C86.2409 117.708 84.81 117.353 83.5579 117.175C82.4848 116.997 81.4116 116.82 81.0538 117.175C81.0538 117.353 80.875 117.353 80.6961 117.353Z" fill="white" fill-opacity="0.5"/>
<path d="M241.317 217.781C240.959 217.604 240.78 217.426 240.959 217.248C241.317 216.004 239.707 214.582 238.097 213.338C236.308 211.916 234.341 210.316 234.877 208.538C235.414 206.583 237.918 206.405 240.243 206.228C242.211 206.05 244.357 205.872 244.894 204.628C245.252 203.384 243.642 201.962 242.032 200.717C240.243 199.295 238.276 197.696 238.812 195.918C239.349 193.963 241.853 193.785 244.178 193.607C246.146 193.43 248.292 193.252 248.829 192.008C249.187 190.763 247.577 189.341 245.967 188.097C244.178 186.675 242.211 185.075 242.747 183.298C243.284 181.343 245.788 181.165 248.113 180.987C250.081 180.809 252.227 180.632 252.764 179.387C252.764 179.21 253.122 179.032 253.301 179.032C253.479 179.032 253.658 179.387 253.658 179.565C253.122 181.52 250.618 181.698 248.292 181.876C246.325 182.054 244.178 182.231 243.642 183.476C243.284 184.72 244.894 186.142 246.504 187.386C248.292 188.808 250.26 190.408 249.723 192.185C249.187 194.141 246.683 194.318 244.357 194.496C242.39 194.674 240.243 194.852 239.707 196.096C239.349 197.34 240.959 198.762 242.569 200.006C244.357 201.428 246.325 203.028 245.788 204.806C245.252 206.761 242.748 206.939 240.422 207.116C238.455 207.294 236.308 207.472 235.772 208.716C235.414 209.96 237.024 211.382 238.634 212.627C240.422 214.049 242.39 215.648 241.853 217.426C241.674 217.604 241.495 217.781 241.317 217.781Z" fill="white" fill-opacity="0.5"/>
<path d="M86.0621 14.9689C84.6312 14.7911 84.2735 13.0136 83.9158 11.5916C83.7369 10.3474 83.3792 8.9254 82.6637 8.9254C81.9483 8.74765 81.2328 9.99189 80.5173 11.0584C79.623 12.4804 78.7287 13.7246 77.4766 13.5469C76.0457 13.3691 75.8669 11.5916 75.5091 10.1696C75.3303 8.92539 74.9725 7.50339 74.2571 7.50339C73.5416 7.32564 72.8262 8.56989 72.1107 9.63638C71.2164 11.0584 70.3221 12.3026 69.07 12.1249C67.6391 11.9471 67.4602 10.1696 67.1025 8.74764C66.9236 7.50339 66.5659 6.08139 65.8505 6.08139C65.135 5.90364 64.4195 7.14788 63.7041 8.21438C62.8098 9.63638 61.9154 10.8806 60.6634 10.7029C60.4845 10.7029 60.3057 10.3474 60.3057 10.1696C60.3057 9.99189 60.6634 9.81414 60.8423 9.81414C61.5577 9.99189 62.2732 8.74765 62.9886 7.68115C63.883 6.25915 64.7773 5.01489 66.0293 5.19264C67.4602 5.37039 67.6391 7.1479 67.9968 8.5699C68.1757 9.81415 68.5334 11.2361 69.2489 11.2361C69.9643 11.4139 70.6798 10.1696 71.3953 9.10313C72.2896 7.68113 73.1839 6.43689 74.4359 6.61464C75.8669 6.79239 76.0457 8.56988 76.4035 9.99188C76.5823 11.2361 76.94 12.6581 77.6555 12.6581C78.371 12.8359 79.0864 11.5916 79.8019 10.5251C80.6962 9.10313 81.5905 7.8589 82.8426 8.03665C84.2735 8.2144 84.4524 9.99188 84.8101 11.4139C84.9889 12.6581 85.3467 14.0801 86.0621 14.0801C86.241 14.0801 86.4199 14.4356 86.4199 14.6134C86.5987 14.7911 86.241 14.9689 86.0621 14.9689Z" fill="white" fill-opacity="0.5"/>
<path d="M111.64 228.98C111.461 228.98 111.282 228.802 111.282 228.624C111.103 228.269 110.388 228.269 109.672 228.091C108.778 228.091 107.705 227.913 107.347 227.024C106.989 226.136 107.883 225.425 108.599 224.891C109.136 224.536 109.672 224.003 109.672 223.647C109.493 223.292 108.778 223.292 108.062 223.114C107.168 223.114 106.095 222.936 105.737 222.047C105.379 221.159 106.274 220.448 106.989 219.914C107.526 219.559 108.062 219.026 108.062 218.67C107.883 218.315 107.168 218.315 106.453 218.137C105.558 218.137 104.485 217.959 104.127 217.07C103.77 216.182 104.664 215.471 105.379 214.937C105.916 214.582 106.453 214.049 106.453 213.693C106.453 213.515 106.453 213.16 106.81 213.16C106.989 213.16 107.347 213.16 107.347 213.515C107.705 214.404 106.81 215.115 106.095 215.648C105.558 216.004 105.022 216.537 105.022 216.893C105.201 217.248 105.916 217.248 106.631 217.426C107.526 217.426 108.599 217.604 108.957 218.492C109.314 219.381 108.42 220.092 107.705 220.625C107.168 220.981 106.631 221.514 106.631 221.87C106.81 222.225 107.526 222.225 108.241 222.403C109.136 222.403 110.209 222.581 110.566 223.469C110.924 224.358 110.03 225.069 109.314 225.602C108.778 225.958 108.241 226.491 108.241 226.847C108.42 227.202 109.136 227.202 109.851 227.38C110.745 227.38 111.819 227.558 112.176 228.446C112.176 228.624 111.997 228.98 111.64 228.98C111.819 228.98 111.819 228.98 111.64 228.98Z" fill="white" fill-opacity="0.5"/>
<path d="M96.2572 75.0482H96.0784C95.8995 74.8705 95.8995 74.6927 95.8995 74.515C96.7938 73.093 95.3629 71.1377 93.932 69.1825C92.3222 66.8717 90.7124 64.561 91.9645 62.7835C93.2165 61.006 95.8995 61.5393 98.5825 62.0725C100.908 62.6058 103.412 63.139 104.306 61.717C105.2 60.295 103.77 58.3398 102.339 56.3845C100.729 54.0738 99.1191 51.9408 100.371 49.9855C101.623 48.208 104.306 48.7413 106.989 49.2745C109.314 49.8078 111.818 50.341 112.713 48.919C113.607 47.497 112.176 45.5418 110.745 43.5865C109.135 41.2758 107.526 39.1428 108.778 37.1875C110.03 35.41 112.713 35.9433 115.396 36.4766C117.721 37.0098 120.225 37.5431 121.119 36.1211C121.298 35.9433 121.477 35.9433 121.656 35.9433C121.835 36.121 121.835 36.2988 121.835 36.4766C120.583 38.2541 117.9 37.7208 115.217 37.1875C112.892 36.6543 110.388 36.121 109.493 37.543C108.599 38.965 110.03 40.9203 111.461 42.8755C113.071 45.1863 114.68 47.3193 113.428 49.2745C112.176 51.052 109.493 50.5188 106.81 49.9855C104.485 49.4523 101.981 48.919 101.087 50.341C100.192 51.763 101.623 53.7183 103.054 55.6735C104.664 57.9843 106.274 60.1173 105.022 62.0725C103.77 63.85 101.087 63.3168 98.4036 62.7835C96.0784 62.2503 93.5743 61.717 92.68 63.139C91.7856 64.561 93.2165 66.5163 94.6475 68.4715C96.2572 70.7823 97.867 73.093 96.615 74.8705C96.615 75.0482 96.4361 75.0482 96.2572 75.0482Z" fill="white" fill-opacity="0.5"/>
<path d="M68.5333 174.944C68.3545 174.944 68.1756 174.944 68.1756 174.766C67.8179 174.055 68.3545 173.522 68.7122 172.988C68.891 172.811 69.2488 172.277 69.2488 172.1C69.2488 171.922 68.5333 172.1 68.1756 172.1C67.4601 172.1 66.7447 172.277 66.2081 171.566C65.8504 170.855 66.3869 170.322 66.7447 169.789C66.9235 169.611 67.2813 169.078 67.2813 168.9C67.2813 168.722 66.5658 168.9 66.2081 168.9C65.4926 168.9 64.5983 169.078 64.2406 168.367C63.8828 167.656 64.4194 167.123 64.7772 166.589C64.956 166.412 65.3138 165.878 65.3138 165.701C65.3138 165.523 64.5983 165.701 64.2406 165.701C63.5251 165.701 62.8097 165.878 62.2731 165.167C62.0942 164.99 62.2731 164.634 62.4519 164.634C62.6308 164.456 62.9885 164.634 62.9885 164.812C62.9885 164.99 63.704 164.812 64.0617 164.812C64.7772 164.812 65.4926 164.634 66.0292 165.345C66.3869 166.056 65.8504 166.589 65.4926 167.123C65.3138 167.3 64.956 167.834 64.956 168.011C64.956 168.189 65.6715 168.011 66.0292 168.011C66.7447 168.011 67.639 167.834 67.9967 168.545C68.3545 169.256 67.8179 169.789 67.4601 170.322C67.2813 170.5 66.9235 171.033 66.9235 171.211C66.9235 171.389 67.639 171.211 67.9967 171.211C68.7122 171.211 69.4276 171.033 69.9642 171.744C70.322 172.455 69.7854 172.988 69.4276 173.522C69.2488 173.699 68.891 174.233 68.891 174.41C69.0699 174.588 68.891 174.944 68.7122 174.944C68.5333 174.944 68.5333 174.944 68.5333 174.944Z" fill="white" fill-opacity="0.5"/>
<path d="M139.9 222.936C139.542 222.936 139.185 222.758 138.827 222.403C138.29 221.692 138.827 220.981 139.185 220.27C139.364 219.914 139.721 219.381 139.721 219.203C139.542 219.026 139.006 219.203 138.469 219.203C137.754 219.381 136.86 219.559 136.323 219.026C135.786 218.315 136.323 217.604 136.681 216.893C136.86 216.537 137.217 216.004 137.217 215.826C137.038 215.648 136.502 215.826 135.965 215.826C135.25 216.004 134.355 216.182 133.819 215.648C133.282 214.937 133.819 214.226 134.177 213.515C134.355 213.16 134.713 212.627 134.713 212.449C134.534 212.271 134.534 211.916 134.892 211.916C135.071 211.738 135.429 211.738 135.429 212.093C135.965 212.804 135.429 213.515 135.071 214.226C134.892 214.582 134.534 215.115 134.534 215.293C134.713 215.471 135.25 215.293 135.786 215.293C136.502 215.115 137.396 214.937 137.933 215.471C138.469 216.182 137.933 216.893 137.575 217.604C137.396 217.959 137.038 218.492 137.038 218.67C137.217 218.848 137.754 218.67 138.29 218.67C139.006 218.492 139.9 218.315 140.437 218.848C140.973 219.559 140.437 220.27 140.079 220.981C139.9 221.336 139.542 221.87 139.542 222.047C139.721 222.225 140.258 222.047 140.795 222.047C141.51 221.87 142.404 221.692 142.941 222.225C143.12 222.403 143.12 222.758 142.762 222.758C142.583 222.936 142.225 222.936 142.225 222.581C142.047 222.403 141.51 222.581 140.973 222.581C140.616 222.936 140.258 222.936 139.9 222.936Z" fill="white" fill-opacity="0.5"/>
<path d="M225.04 146.148H224.861C222.893 144.904 223.43 142.06 223.787 139.394C224.145 136.905 224.682 134.417 223.072 133.528C221.641 132.639 219.495 134.239 217.527 135.661C215.381 137.261 213.056 139.038 211.088 137.972C209.121 136.727 209.657 133.883 210.015 131.217C210.373 128.729 210.909 126.24 209.299 125.351C207.869 124.463 205.722 126.062 203.755 127.484C201.608 129.084 199.283 130.862 197.316 129.795C195.348 128.551 195.885 125.707 196.242 123.041C196.6 120.552 197.137 118.064 195.527 117.175C194.096 116.286 191.95 117.886 189.982 119.308C187.836 120.908 185.511 122.685 183.543 121.619C183.364 121.441 183.185 121.263 183.364 121.085C183.543 120.908 183.722 120.73 183.901 120.908C185.332 121.796 187.478 120.197 189.446 118.775C191.592 117.175 193.917 115.398 195.885 116.464C197.852 117.708 197.316 120.552 196.958 123.219C196.6 125.707 196.063 128.195 197.673 129.084C199.104 129.973 201.251 128.373 203.218 126.951C205.364 125.174 207.69 123.574 209.657 124.64C211.625 125.885 211.088 128.729 210.73 131.395C210.373 133.883 209.836 136.372 211.446 137.261C212.877 138.149 215.023 136.55 216.991 135.128C219.137 133.35 221.462 131.75 223.43 132.817C225.397 134.061 224.861 136.905 224.503 139.571C224.145 142.06 223.609 144.548 225.218 145.437C225.397 145.615 225.576 145.793 225.397 145.97C225.397 146.148 225.218 146.148 225.04 146.148Z" fill="white" fill-opacity="0.5"/>
<path d="M84.2732 37.1876C84.0943 37.1876 84.0943 37.1876 84.2732 37.1876C83.5578 37.1876 83.3789 36.2988 83.2 35.7656C83.2 35.5878 83.0212 35.0546 82.8423 35.0546C82.6634 35.0546 82.4846 35.5878 82.3057 35.7656C81.948 36.2988 81.5902 37.0098 80.8748 36.8321C80.1593 36.8321 79.9805 35.9433 79.8016 35.4101C79.8016 35.2323 79.6227 34.6991 79.4439 34.6991C79.265 34.6991 79.0861 35.2323 78.9073 35.4101C78.5496 35.9433 78.1918 36.6543 77.4764 36.4766C76.7609 36.4766 76.582 35.5878 76.4032 35.0546C76.4032 34.8768 76.2243 34.3436 76.0455 34.3436C75.8666 34.3436 75.6877 34.8768 75.5089 35.0546C75.1511 35.5878 74.7934 36.2988 74.0779 36.1211C73.8991 36.1211 73.7202 35.9433 73.7202 35.5878C73.7202 35.4101 73.8991 35.2323 74.2568 35.2323C74.4357 35.2323 74.6145 34.6991 74.7934 34.5213C75.1511 33.9881 75.5089 33.2771 76.2243 33.4548C76.9398 33.4548 77.1186 34.3436 77.2975 34.8768C77.2975 35.0546 77.4764 35.5878 77.6552 35.5878C77.8341 35.5878 78.013 35.0546 78.1918 34.8768C78.5496 34.3436 78.9073 33.6326 79.6227 33.8103C80.3382 33.8103 80.5171 34.6991 80.6959 35.2323C80.6959 35.4101 80.8748 35.9433 81.0537 35.9433C81.2325 35.9433 81.4114 35.4101 81.5902 35.2323C81.948 34.6991 82.3057 33.9881 83.0212 34.1658C83.7366 34.1658 83.9155 35.0546 84.0944 35.5878C84.0944 35.7656 84.2732 36.2988 84.4521 36.2988C84.6309 36.2988 84.8098 36.4766 84.8098 36.8321C84.6309 37.0098 84.4521 37.1876 84.2732 37.1876Z" fill="white" fill-opacity="0.5"/>
<path d="M43.6714 209.783C43.4925 209.783 43.3136 209.605 43.1348 209.427C43.1348 209.249 43.3136 208.894 43.4925 208.894C44.7445 208.894 45.46 206.939 46.1755 205.161C47.0698 203.028 47.7852 200.895 49.7528 200.895C51.7203 200.895 52.6146 203.028 53.5089 205.161C54.2244 206.939 55.1187 208.894 56.3707 208.894C57.6228 208.894 58.3382 206.939 59.0537 205.161C59.948 203.028 60.6635 200.895 62.631 200.895C64.5985 200.895 65.4928 203.028 66.3871 205.161C67.1026 206.939 67.9969 208.894 69.249 208.894C70.501 208.894 71.2165 206.939 71.9319 205.161C72.8263 203.028 73.5417 200.895 75.5092 200.895C77.4767 200.895 78.3711 203.028 79.2654 205.161C79.9808 206.939 80.8752 208.894 82.1272 208.894C82.3061 208.894 82.4849 209.072 82.6638 209.249C82.6638 209.427 82.4849 209.783 82.3061 209.783C80.3386 209.783 79.4442 207.65 78.7288 205.517C78.0133 203.739 77.119 201.784 75.867 201.784C74.6149 201.784 73.8994 203.739 73.184 205.517C72.2897 207.65 71.5742 209.783 69.6067 209.783C67.6392 209.783 66.7449 207.65 65.8505 205.517C65.1351 203.739 64.2408 201.784 62.9887 201.784C61.7367 201.784 61.0212 203.739 60.3058 205.517C59.4114 207.65 58.696 209.783 56.7285 209.783C54.761 209.783 53.8666 207.65 52.9723 205.517C52.2569 203.739 51.3625 201.784 50.1105 201.784C48.8584 201.784 48.143 203.739 47.4275 205.517C46.3543 207.472 45.46 209.783 43.6714 209.783Z" fill="white" fill-opacity="0.5"/>
<path d="M283.349 235.556H283.171C282.455 235.379 282.276 234.668 282.097 233.957C282.097 233.601 281.919 233.068 281.74 233.068C281.561 233.068 281.203 233.601 281.024 233.779C280.666 234.312 280.13 235.023 279.414 234.845C278.699 234.668 278.52 233.957 278.341 233.246C278.341 232.89 278.162 232.357 277.984 232.357C277.805 232.357 277.447 232.89 277.268 233.068C276.91 233.601 276.374 234.312 275.658 234.134C274.943 233.957 274.764 233.246 274.585 232.535C274.585 232.179 274.406 231.646 274.227 231.646C274.048 231.646 273.87 231.29 273.87 231.113C273.87 230.935 274.227 230.757 274.406 230.757C275.122 230.935 275.301 231.646 275.479 232.357C275.479 232.712 275.658 233.246 275.837 233.246C276.016 233.246 276.374 232.712 276.553 232.535C276.91 232.001 277.447 231.29 278.162 231.468C278.878 231.646 279.057 232.357 279.236 233.068C279.236 233.423 279.414 233.957 279.593 233.957C279.772 233.957 280.13 233.423 280.309 233.246C280.666 232.712 281.203 232.001 281.919 232.179C282.634 232.357 282.813 233.068 282.992 233.779C282.992 234.134 283.171 234.668 283.349 234.668C283.528 234.668 283.886 234.134 284.065 233.957C284.423 233.423 284.959 232.712 285.675 232.89C285.854 232.89 286.032 233.246 286.032 233.423C286.032 233.601 285.675 233.779 285.496 233.779C285.317 233.779 284.959 234.312 284.78 234.49C284.423 234.845 284.065 235.556 283.349 235.556Z" fill="white" fill-opacity="0.5"/>
<path d="M199.641 155.213C198.747 155.213 198.389 154.325 198.21 153.436C198.031 152.903 197.852 152.369 197.674 152.369C197.495 152.369 197.137 152.903 196.958 153.436C196.6 154.147 196.243 155.036 195.348 155.036C194.454 155.036 194.275 154.147 193.917 153.258C193.739 152.725 193.56 152.192 193.381 152.192C193.023 152.192 192.844 152.725 192.665 153.258C192.308 153.969 191.95 154.858 191.056 154.858C190.161 154.858 189.982 153.969 189.625 153.08C189.446 152.547 189.267 152.014 188.909 152.014C188.73 152.014 188.373 152.547 188.194 153.08C187.836 153.791 187.478 154.68 186.584 154.68C186.405 154.68 186.226 154.502 186.226 154.147C186.226 153.969 186.405 153.791 186.763 153.791C186.942 153.791 187.299 153.258 187.478 152.725C187.836 152.014 188.194 151.125 189.088 151.125C189.982 151.125 190.161 152.014 190.519 152.903C190.698 153.436 190.877 153.969 191.056 153.969C191.413 153.969 191.592 153.436 191.771 152.903C192.129 152.192 192.487 151.303 193.381 151.303C194.275 151.303 194.454 152.192 194.812 153.08C194.991 153.614 195.17 154.147 195.348 154.147C195.527 154.147 195.885 153.614 196.064 153.08C196.422 152.369 196.779 151.481 197.674 151.481C198.568 151.481 198.747 152.369 199.105 153.258C199.283 153.791 199.462 154.325 199.641 154.325C199.82 154.325 199.999 154.502 199.999 154.858C199.999 155.036 199.82 155.213 199.641 155.213Z" fill="white" fill-opacity="0.5"/>
<path d="M147.949 30.4331C147.591 30.4331 147.413 30.2553 147.591 29.8998C147.77 27.9446 145.087 26.7003 142.583 25.4561C139.721 24.2118 136.86 22.7898 137.038 20.3013C137.217 17.8128 140.258 16.7463 143.299 15.8576C145.982 14.9688 148.844 14.0801 148.844 12.1249C149.022 10.1696 146.339 8.92537 143.835 7.68112C140.973 6.43687 138.112 5.01486 138.291 2.52636C138.469 0.0378624 141.51 -1.02864 144.551 -1.91738C147.234 -2.80613 150.096 -3.69488 150.096 -5.65013C150.274 -7.60537 147.591 -8.84962 145.087 -10.0939C142.226 -11.3381 139.364 -12.7601 139.543 -15.2486C139.721 -17.7371 142.762 -18.8036 145.803 -19.6924C148.486 -20.5811 151.348 -21.4699 151.348 -23.4251C151.348 -23.6029 151.526 -23.9583 151.884 -23.7806C152.063 -23.7806 152.242 -23.6029 152.242 -23.2474C152.063 -20.7589 149.022 -19.6924 145.982 -18.8036C143.299 -17.9149 140.437 -17.0261 140.437 -15.0709C140.258 -13.1156 142.941 -11.8714 145.445 -10.6271C148.307 -9.38286 151.169 -7.96088 150.99 -5.47238C150.811 -2.98388 147.77 -1.91738 144.73 -1.02864C142.047 -0.139887 139.185 0.748872 139.185 2.70412C139.006 4.65937 141.689 5.90362 144.193 7.14786C147.055 8.39211 149.917 9.8141 149.738 12.3026C149.559 14.7911 146.518 15.8576 143.478 16.7463C140.795 17.6351 137.933 18.5238 137.933 20.4791C137.754 22.4343 140.437 23.6786 142.941 24.9228C145.803 26.1671 148.665 27.5891 148.486 30.0776C148.486 30.2553 148.307 30.4331 147.949 30.4331Z" fill="white" fill-opacity="0.5"/>
<path d="M11.2969 198.94C11.118 198.94 10.9391 198.762 10.9391 198.584C10.7603 197.696 11.8334 197.162 12.7278 196.629C13.2644 196.274 13.9798 195.918 13.9798 195.563C13.9798 195.207 13.0855 195.029 12.5489 194.852C11.6546 194.674 10.5814 194.318 10.4025 193.43C10.2237 192.541 11.2969 192.008 12.1912 191.474C12.7278 191.119 13.4432 190.763 13.4432 190.408C13.4432 190.052 12.5489 189.875 12.0123 189.697C11.118 189.519 10.0448 189.164 9.86594 188.275C9.68707 187.386 10.7603 186.853 11.6546 186.32C12.1912 185.964 12.9066 185.609 12.9066 185.253C12.9066 184.898 12.0123 184.72 11.4757 184.542C10.5814 184.364 9.50821 184.009 9.32935 183.12C9.32935 182.942 9.50821 182.587 9.68707 182.587C9.86594 182.587 10.2237 182.765 10.2237 182.942C10.2237 183.298 11.118 183.476 11.6546 183.653C12.5489 183.831 13.6221 184.187 13.801 185.075C13.9798 185.964 12.9066 186.497 12.0123 187.031C11.4757 187.386 10.7603 187.742 10.7603 188.097C10.7603 188.453 11.6546 188.63 12.1912 188.808C13.0855 188.986 14.1587 189.341 14.3375 190.23C14.5164 191.119 13.4432 191.652 12.5489 192.185C12.0123 192.541 11.2969 192.896 11.2969 193.252C11.2969 193.607 12.1912 193.785 12.7278 193.963C13.6221 194.141 14.6953 194.496 14.8741 195.385C15.053 196.274 13.9798 196.807 13.0855 197.34C12.5489 197.696 11.8334 198.051 11.8334 198.407C11.8334 198.584 11.6546 198.94 11.2969 198.94Z" fill="white" fill-opacity="0.5"/>
<path d="M261.707 163.034C261.528 163.034 261.349 162.857 261.349 162.679L260.097 141.704L250.438 152.547C250.259 152.725 250.081 152.725 249.902 152.725C249.723 152.725 249.544 152.547 249.544 152.369L248.113 128.195C248.113 128.018 248.292 127.662 248.471 127.662C248.65 127.662 249.007 127.84 249.007 128.018L250.438 151.125L260.097 140.282C260.276 140.105 260.455 140.105 260.634 140.105C260.812 140.105 260.991 140.282 260.991 140.46L262.243 162.501C262.243 162.857 262.064 163.034 261.707 163.034Z" fill="white" fill-opacity="0.5"/>
<path d="M37.0532 103.666C37.0532 103.666 36.8743 103.666 37.0532 103.666C36.6955 103.666 36.5166 103.311 36.6955 103.133L37.5898 99.9333L35.8012 101C35.6223 101 35.4434 101 35.2646 101C35.0857 100.822 35.0857 100.644 35.0857 100.467L36.5166 95.8451C36.5166 95.6673 36.8743 95.4896 37.0532 95.4896C37.2321 95.4896 37.4109 95.8451 37.4109 96.0228L36.3377 99.7555L38.1264 98.6891C38.3053 98.6891 38.4841 98.6891 38.663 98.6891C38.8418 98.8668 38.8418 99.0446 38.8418 99.2223L37.5898 103.488C37.4109 103.488 37.2321 103.666 37.0532 103.666Z" fill="white" fill-opacity="0.5"/>
<path d="M17.7357 119.841C17.5568 119.841 17.3779 119.841 17.3779 119.663L14.1584 114.331L13.2641 117.886C13.2641 118.064 13.0852 118.241 12.9063 118.241C12.7275 118.241 12.5486 118.241 12.3697 118.064L8.9713 112.376C8.79244 112.198 8.97131 111.842 9.15017 111.842C9.32903 111.665 9.68676 111.842 9.68676 112.02L12.5486 116.819L13.4429 113.264C13.4429 113.087 13.6218 112.909 13.8006 112.909C13.9795 112.909 14.1584 112.909 14.3372 113.087L18.0934 119.486C18.2723 119.663 18.0934 120.019 17.9145 120.019C17.9145 119.841 17.7357 119.841 17.7357 119.841Z" fill="white" fill-opacity="0.5"/>
<path d="M100.013 148.992C99.8344 148.992 99.8344 148.992 99.6555 148.814L96.0782 145.437V148.281C96.0782 148.459 95.8994 148.637 95.7205 148.637C95.5416 148.637 95.3628 148.637 95.1839 148.459L91.2489 144.548C91.07 144.371 91.07 144.015 91.2489 143.837C91.4278 143.66 91.7855 143.66 91.9643 143.837L95.005 146.859V144.015C95.005 143.837 95.1839 143.66 95.3628 143.66C95.5416 143.66 95.7205 143.66 95.8994 143.837L100.192 148.103C100.371 148.281 100.371 148.637 100.192 148.814C100.192 148.992 100.192 148.992 100.013 148.992Z" fill="white" fill-opacity="0.5"/>
<path d="M138.827 248.888C138.648 248.888 138.469 248.888 138.469 248.71L135.965 244.977L135.429 247.466C135.429 247.643 135.25 247.821 135.071 247.821C134.892 247.821 134.713 247.821 134.534 247.643L131.851 243.555C131.673 243.377 131.851 243.022 132.03 243.022C132.209 242.844 132.567 243.022 132.567 243.2L134.713 246.399L135.25 243.911C135.25 243.733 135.429 243.555 135.608 243.555C135.786 243.555 135.965 243.555 136.144 243.733L139.185 248.354C139.364 248.532 139.185 248.888 139.006 248.888C139.006 248.888 138.827 248.888 138.827 248.888Z" fill="white" fill-opacity="0.5"/>
<path d="M123.802 190.586C123.623 190.586 123.623 190.586 123.445 190.408L108.599 175.655V190.23C108.599 190.408 108.42 190.586 108.241 190.586C108.062 190.586 107.883 190.586 107.705 190.408L90.5336 173.166C90.3547 172.988 90.3547 172.633 90.5336 172.455C90.7124 172.277 91.0702 172.277 91.249 172.455L107.705 188.808V174.233C107.705 174.055 107.883 173.877 108.062 173.877C108.241 173.877 108.42 173.877 108.599 174.055L124.16 189.697C124.339 189.875 124.339 190.23 124.16 190.408C123.981 190.408 123.802 190.586 123.802 190.586Z" fill="white" fill-opacity="0.5"/>
<path d="M183.185 271.817C183.007 271.817 183.007 271.817 182.828 271.64C182.649 271.462 182.649 271.106 182.828 270.929L198.389 258.842L184.795 257.242C184.616 257.242 184.438 257.064 184.438 256.886C184.438 256.708 184.438 256.531 184.616 256.353L202.682 242.311C202.861 242.133 203.218 242.133 203.397 242.311C203.576 242.489 203.576 242.844 203.397 243.022L186.226 256.353L199.82 257.953C199.999 257.953 200.178 258.131 200.178 258.308C200.178 258.486 200.178 258.664 199.999 258.842L183.543 271.64C183.364 271.817 183.364 271.817 183.185 271.817Z" fill="white" fill-opacity="0.5"/>
<path d="M25.9636 268.084C25.7847 268.084 25.6058 268.084 25.6058 267.907L17.9147 257.597L16.8415 265.418C16.8415 265.596 16.6626 265.774 16.4837 265.774C16.3049 265.774 16.126 265.774 15.9471 265.596L8.25597 255.464C8.07711 255.286 8.07711 254.931 8.25597 254.753C8.43484 254.575 8.79257 254.575 8.97143 254.753L15.9471 263.996L17.0203 256.175C17.0203 255.997 17.1992 255.82 17.3781 255.82C17.5569 255.82 17.7358 255.82 17.9147 255.997L26.3213 267.196C26.5001 267.373 26.5001 267.729 26.3213 267.907C26.1424 268.084 26.1424 268.084 25.9636 268.084Z" fill="white" fill-opacity="0.5"/>
<path d="M61.7364 269.684C61.5575 269.684 61.5575 269.684 61.7364 269.684L56.0127 267.196C55.8339 267.018 55.655 266.84 55.8339 266.662C56.0127 266.485 56.1916 266.307 56.3704 266.485L60.8421 268.44L59.59 265.596C59.59 265.418 59.59 265.24 59.7689 265.063C59.9477 264.885 60.1266 264.885 60.3055 265.063L66.3869 267.729C66.5657 267.907 66.7446 268.084 66.5657 268.262C66.3869 268.44 66.208 268.618 66.0291 268.44L61.0209 266.307L62.273 269.151C62.273 269.329 62.273 269.506 62.0941 269.684C61.9152 269.506 61.7364 269.684 61.7364 269.684Z" fill="white" fill-opacity="0.5"/>
<path d="M146.161 64.2056C145.982 64.2056 145.803 64.0278 145.803 63.8501L143.835 57.4511L141.689 61.3616C141.689 61.5394 141.51 61.5393 141.331 61.5393C141.152 61.5393 140.973 61.3616 140.973 61.1838L138.648 53.0074C138.648 52.8296 138.648 52.4741 139.006 52.4741C139.185 52.4741 139.543 52.4741 139.543 52.8296L141.689 60.1174L143.835 56.2068C143.835 56.0291 144.014 56.0291 144.193 56.0291C144.372 56.0291 144.551 56.2069 144.551 56.3846L146.697 63.8501C146.697 64.0278 146.518 64.2056 146.161 64.2056Z" fill="white" fill-opacity="0.5"/>
<path d="M260.634 70.96H260.455L254.552 67.2273C254.373 67.0496 254.373 66.8718 254.373 66.6941C254.552 66.5163 254.731 66.5163 254.91 66.5163L259.918 69.7158L259.203 66.3386C259.203 66.1608 259.203 65.9831 259.382 65.8053C259.56 65.6276 259.739 65.6276 259.918 65.8053L265.284 69.1825C265.463 69.3603 265.463 69.538 265.463 69.7158C265.284 69.8935 265.105 69.8936 264.926 69.8936L260.455 67.0496L261.17 70.4268C261.17 70.6045 261.17 70.7823 260.991 70.96C260.812 70.7823 260.634 70.96 260.634 70.96Z" fill="white" fill-opacity="0.5"/>
<path d="M8.7927 34.6991C8.43497 34.6991 8.25611 34.3436 8.43498 34.1658L9.50816 30.6108L7.54065 31.6773C7.36179 31.6773 7.18292 31.6773 7.00406 31.6773C6.8252 31.4996 6.8252 31.3218 6.8252 31.1441L8.25611 26.1671C8.25611 25.9893 8.61384 25.8116 8.7927 25.8116C8.97157 25.8116 9.15043 26.1671 9.15043 26.3448L8.07725 30.2553L10.0448 29.1888C10.2236 29.1888 10.4025 29.1888 10.5813 29.1888C10.7602 29.3666 10.7602 29.5443 10.7602 29.7221L9.50816 34.3436C9.15043 34.5213 8.97157 34.6991 8.7927 34.6991Z" fill="white" fill-opacity="0.5"/>
<path d="M266.715 39.4983C266.357 39.4983 266.178 39.1428 266.357 38.965L269.756 27.7668L262.601 31.4995C262.422 31.4995 262.243 31.4995 262.064 31.4995C261.885 31.3218 261.885 31.144 261.885 30.9663L265.821 17.4573C265.821 17.2796 266.178 17.1018 266.357 17.1018C266.536 17.1018 266.715 17.4573 266.715 17.6351L262.959 30.0775L269.934 26.1671C270.113 26.1671 270.292 26.1671 270.471 26.1671C270.65 26.3448 270.65 26.5226 270.65 26.7003L267.073 38.965C267.073 39.3205 266.894 39.4983 266.715 39.4983Z" fill="white" fill-opacity="0.5"/>
<path d="M160.291 101.355C160.112 101.355 160.112 101.355 159.933 101.178C159.754 101 159.754 100.644 159.933 100.467L176.209 83.9359L160.112 84.1136C159.933 84.1136 159.754 83.9359 159.754 83.7581C159.754 83.5804 159.754 83.4026 159.933 83.2249L178.535 64.5612C178.714 64.3834 179.071 64.3834 179.25 64.5612C179.429 64.7389 179.429 65.0944 179.25 65.2722L161.185 83.4026L177.283 83.2249C177.461 83.2249 177.64 83.4026 177.64 83.5804C177.64 83.7581 177.64 83.9359 177.461 84.1136L160.469 101.355C160.469 101.355 160.469 101.355 160.291 101.355Z" fill="white" fill-opacity="0.5"/>
<path d="M245.073 241.244C244.894 241.244 244.715 241.067 244.715 240.889C244.536 240.711 244.715 240.356 244.894 240.356L249.008 238.578L246.682 237.689C246.504 237.689 246.325 237.512 246.325 237.334C246.325 237.156 246.504 236.978 246.682 236.978L251.333 235.023C251.512 234.845 251.87 235.023 251.87 235.201C252.048 235.379 251.87 235.734 251.691 235.734L248.113 237.334L250.439 238.223C250.617 238.223 250.796 238.4 250.796 238.578C250.796 238.756 250.617 238.934 250.439 238.934L245.073 241.244C245.252 241.244 245.252 241.244 245.073 241.244Z" fill="white" fill-opacity="0.5"/>
<path d="M167.982 145.615C167.803 145.615 167.624 145.437 167.624 145.259L165.478 125.351L156.713 136.194C156.535 136.372 156.356 136.372 156.177 136.372C155.998 136.372 155.819 136.194 155.819 136.016L153.315 112.909C153.315 112.731 153.494 112.376 153.673 112.376C153.852 112.376 154.209 112.553 154.209 112.731L156.713 134.772L165.478 123.929C165.657 123.752 165.835 123.752 166.014 123.752C166.193 123.752 166.372 123.929 166.372 124.107L168.697 145.082C168.518 145.437 168.34 145.615 167.982 145.615Z" fill="white" fill-opacity="0.5"/>
<path d="M16.8414 156.102C16.6626 156.102 16.4837 155.924 16.4837 155.747L13.6219 147.926L11.4755 152.369C11.4755 152.547 11.2966 152.547 11.1178 152.547C10.9389 152.547 10.76 152.369 10.76 152.192L7.89819 144.193C7.89819 144.015 7.89819 143.66 8.07706 143.66C8.25592 143.66 8.61365 143.66 8.61365 143.837L11.1178 150.77L13.2641 146.326C13.2641 146.148 13.443 146.148 13.6219 146.148C13.8007 146.148 13.9796 146.326 13.9796 146.504L17.1991 155.213C17.378 155.747 17.1991 155.924 16.8414 156.102C16.8414 156.102 17.0203 156.102 16.8414 156.102Z" fill="white" fill-opacity="0.5"/>
<path d="M194.633 220.625C194.454 220.625 194.275 220.448 194.275 220.27C194.096 220.092 194.275 219.737 194.454 219.737L204.47 215.648L198.389 213.16C198.21 213.16 198.031 212.982 198.031 212.804C198.031 212.627 198.21 212.449 198.389 212.449L208.405 208.361C208.584 208.183 208.942 208.361 208.942 208.538C209.121 208.716 208.942 209.072 208.763 209.072L199.82 212.627L205.901 215.115C206.08 215.115 206.259 215.293 206.259 215.471C206.259 215.648 206.08 215.826 205.901 215.826L194.633 220.625Z" fill="white" fill-opacity="0.5"/>
</g>
<rect x="52.719" y="114.083" width="172.562" height="50" rx="25" fill="white"/>
<path d="M91.211 144.71C90.4737 144.71 89.8087 144.582 89.216 144.325C88.628 144.068 88.1427 143.702 87.76 143.226C87.382 142.745 87.1417 142.176 87.039 141.518L88.789 141.252C88.9383 141.849 89.244 142.311 89.706 142.638C90.1727 142.965 90.7093 143.128 91.316 143.128C91.6753 143.128 92.0137 143.072 92.331 142.96C92.6483 142.848 92.905 142.685 93.101 142.47C93.3017 142.255 93.402 141.992 93.402 141.679C93.402 141.539 93.3787 141.411 93.332 141.294C93.2853 141.173 93.2153 141.065 93.122 140.972C93.0333 140.879 92.9167 140.795 92.772 140.72C92.632 140.641 92.4687 140.573 92.282 140.517L89.678 139.747C89.454 139.682 89.2113 139.595 88.95 139.488C88.6933 139.376 88.4483 139.224 88.215 139.033C87.9863 138.837 87.7973 138.59 87.648 138.291C87.5033 137.988 87.431 137.614 87.431 137.171C87.431 136.522 87.5943 135.979 87.921 135.54C88.2523 135.097 88.6957 134.765 89.251 134.546C89.811 134.327 90.4317 134.219 91.113 134.224C91.8037 134.229 92.4197 134.348 92.961 134.581C93.5023 134.81 93.955 135.143 94.319 135.582C94.683 136.021 94.9397 136.55 95.089 137.171L93.276 137.486C93.2013 137.131 93.0567 136.83 92.842 136.583C92.632 136.331 92.373 136.14 92.065 136.009C91.7617 135.878 91.4373 135.808 91.092 135.799C90.756 135.794 90.4433 135.846 90.154 135.953C89.8693 136.056 89.6383 136.205 89.461 136.401C89.2883 136.597 89.202 136.826 89.202 137.087C89.202 137.334 89.2767 137.537 89.426 137.696C89.5753 137.85 89.7597 137.974 89.979 138.067C90.203 138.156 90.4293 138.23 90.658 138.291L92.464 138.795C92.7113 138.86 92.989 138.949 93.297 139.061C93.605 139.173 93.9013 139.329 94.186 139.53C94.4707 139.731 94.704 139.994 94.886 140.321C95.0727 140.648 95.166 141.063 95.166 141.567C95.166 142.09 95.0563 142.549 94.837 142.946C94.6223 143.338 94.3307 143.665 93.962 143.926C93.5933 144.187 93.171 144.383 92.695 144.514C92.2237 144.645 91.729 144.71 91.211 144.71ZM100.944 144.71C99.9362 144.71 99.0728 144.491 98.3542 144.052C97.6355 143.609 97.0825 142.993 96.6952 142.204C96.3125 141.415 96.1212 140.501 96.1212 139.46C96.1212 138.419 96.3125 137.505 96.6952 136.716C97.0825 135.927 97.6355 135.314 98.3542 134.875C99.0728 134.432 99.9362 134.21 100.944 134.21C102.106 134.21 103.075 134.502 103.849 135.085C104.624 135.664 105.168 136.445 105.48 137.43L103.779 137.899C103.583 137.241 103.25 136.728 102.778 136.359C102.307 135.986 101.696 135.799 100.944 135.799C100.268 135.799 99.7028 135.951 99.2502 136.254C98.8022 136.557 98.4638 136.984 98.2352 137.535C98.0112 138.081 97.8968 138.723 97.8922 139.46C97.8922 140.197 98.0042 140.841 98.2282 141.392C98.4568 141.938 98.7975 142.363 99.2502 142.666C99.7028 142.969 100.268 143.121 100.944 143.121C101.696 143.121 102.307 142.934 102.778 142.561C103.25 142.188 103.583 141.674 103.779 141.021L105.48 141.49C105.168 142.475 104.624 143.259 103.849 143.842C103.075 144.421 102.106 144.71 100.944 144.71ZM107.017 144.5V134.42H111.182C111.28 134.42 111.406 134.425 111.56 134.434C111.714 134.439 111.856 134.453 111.987 134.476C112.57 134.565 113.051 134.758 113.429 135.057C113.812 135.356 114.094 135.734 114.276 136.191C114.463 136.644 114.556 137.148 114.556 137.703C114.556 138.524 114.348 139.231 113.933 139.824C113.518 140.412 112.881 140.776 112.022 140.916L111.301 140.979H108.704V144.5H107.017ZM112.806 144.5L110.818 140.398L112.533 140.02L114.717 144.5H112.806ZM108.704 139.404H111.112C111.205 139.404 111.31 139.399 111.427 139.39C111.544 139.381 111.651 139.362 111.749 139.334C112.029 139.264 112.248 139.14 112.407 138.963C112.57 138.786 112.685 138.585 112.75 138.361C112.82 138.137 112.855 137.918 112.855 137.703C112.855 137.488 112.82 137.269 112.75 137.045C112.685 136.816 112.57 136.613 112.407 136.436C112.248 136.259 112.029 136.135 111.749 136.065C111.651 136.037 111.544 136.021 111.427 136.016C111.31 136.007 111.205 136.002 111.112 136.002H108.704V139.404ZM115.559 144.5L118.737 134.42H121.208L124.386 144.5H122.65L119.766 135.456H120.144L117.295 144.5H115.559ZM117.33 142.316V140.741H122.622V142.316H117.33ZM127.24 144.5V136.002H123.978V134.42H132.189V136.002H128.927V144.5H127.24ZM137.571 144.71C136.563 144.71 135.7 144.491 134.981 144.052C134.262 143.609 133.709 142.993 133.322 142.204C132.939 141.415 132.748 140.501 132.748 139.46C132.748 138.419 132.939 137.505 133.322 136.716C133.709 135.927 134.262 135.314 134.981 134.875C135.7 134.432 136.563 134.21 137.571 134.21C138.733 134.21 139.701 134.502 140.476 135.085C141.251 135.664 141.794 136.445 142.107 137.43L140.406 137.899C140.21 137.241 139.876 136.728 139.405 136.359C138.934 135.986 138.322 135.799 137.571 135.799C136.894 135.799 136.33 135.951 135.877 136.254C135.429 136.557 135.091 136.984 134.862 137.535C134.638 138.081 134.524 138.723 134.519 139.46C134.519 140.197 134.631 140.841 134.855 141.392C135.084 141.938 135.424 142.363 135.877 142.666C136.33 142.969 136.894 143.121 137.571 143.121C138.322 143.121 138.934 142.934 139.405 142.561C139.876 142.188 140.21 141.674 140.406 141.021L142.107 141.49C141.794 142.475 141.251 143.259 140.476 143.842C139.701 144.421 138.733 144.71 137.571 144.71ZM143.644 144.5V134.42H145.331V138.662H150.105V134.42H151.785V144.5H150.105V140.244H145.331V144.5H143.644ZM156.55 144.5V134.42H158.237V138.662H163.011V134.42H164.691V144.5H163.011V140.244H158.237V144.5H156.55ZM166.654 144.5V134.42H173.164V136.002H168.341V138.487H172.324V140.069H168.341V142.918H173.164V144.5H166.654ZM174.843 144.5V134.42H179.008C179.106 134.42 179.232 134.425 179.386 134.434C179.54 134.439 179.683 134.453 179.813 134.476C180.397 134.565 180.877 134.758 181.255 135.057C181.638 135.356 181.92 135.734 182.102 136.191C182.289 136.644 182.382 137.148 182.382 137.703C182.382 138.524 182.175 139.231 181.759 139.824C181.344 140.412 180.707 140.776 179.848 140.916L179.127 140.979H176.53V144.5H174.843ZM180.632 144.5L178.644 140.398L180.359 140.02L182.543 144.5H180.632ZM176.53 139.404H178.938C179.032 139.404 179.137 139.399 179.253 139.39C179.37 139.381 179.477 139.362 179.575 139.334C179.855 139.264 180.075 139.14 180.233 138.963C180.397 138.786 180.511 138.585 180.576 138.361C180.646 138.137 180.681 137.918 180.681 137.703C180.681 137.488 180.646 137.269 180.576 137.045C180.511 136.816 180.397 136.613 180.233 136.436C180.075 136.259 179.855 136.135 179.575 136.065C179.477 136.037 179.37 136.021 179.253 136.016C179.137 136.007 179.032 136.002 178.938 136.002H176.53V139.404ZM184.085 144.5V134.42H190.595V136.002H185.772V138.487H189.755V140.069H185.772V142.918H190.595V144.5H184.085Z" fill="#353535"/>
<defs>
<linearGradient id="paint0_linear_28_983" x1="137.74" y1="0.322266" x2="137.74" y2="275.322" gradientUnits="userSpaceOnUse">
<stop stop-color="#FF5733"/>
<stop offset="1" stop-color="#FF3672"/>
</linearGradient>
<linearGradient id="paint1_linear_28_983" x1="137.74" y1="0.322266" x2="137.74" y2="275.322" gradientUnits="userSpaceOnUse">
<stop stop-color="#FF5733"/>
<stop offset="1" stop-color="#FF3672"/>
</linearGradient>
</defs>
</svg>
