<svg width="25" height="25" viewBox="0 0 25 25" fill="none" xmlns="http://www.w3.org/2000/svg">
<path d="M7.53332 2.16064C7.20419 2.1367 6.86695 2.17034 6.53625 2.26807L5.35266 2.61865C4.09143 2.99166 3.10599 3.99235 2.77258 5.25537C2.03229 8.06424 2.87915 11.389 5.08313 15.1313C7.284 18.8686 9.79183 21.2438 12.6241 22.019C13.8996 22.3682 15.2752 22.0347 16.2413 21.1372L17.1417 20.3022C18.1492 19.3668 18.2994 17.8088 17.4855 16.7017L16.1847 14.9351C15.4874 13.988 14.2583 13.5848 13.1281 13.9243L11.0929 14.5337C11.0075 14.5586 10.803 14.4423 10.6251 14.2886L10.6241 14.2876C10.3073 14.0121 9.86825 13.4552 9.39856 12.6587C8.89492 11.8033 8.68011 11.2429 8.59387 10.9126C8.50759 10.5821 8.52853 10.5419 8.54114 10.4302C8.54769 10.3744 8.57418 10.3228 8.61926 10.2817L8.62024 10.2808L10.1378 8.89307C11.0073 8.09824 11.2697 6.82806 10.7794 5.75928L9.8634 3.76318C9.4326 2.82413 8.52045 2.23246 7.53332 2.16064ZM7.42493 3.65674C7.88402 3.69104 8.30678 3.96642 8.50012 4.38818L9.41516 6.38428C9.63684 6.86749 9.52568 7.42044 9.12512 7.78662L7.60852 9.17334C7.29742 9.457 7.09846 9.84375 7.0509 10.2612C7.03851 10.371 7.00923 10.7803 7.1427 11.2915C7.27617 11.8028 7.55172 12.479 8.10559 13.4194C8.62238 14.2959 9.11179 14.9618 9.64075 15.4214C9.81253 15.5701 10.5335 16.2601 11.5128 15.9741L11.5157 15.9731L13.5597 15.3608C14.0904 15.2014 14.658 15.3918 14.9767 15.8247L16.2775 17.5913C16.6458 18.0931 16.5815 18.7753 16.1212 19.2026L15.2208 20.0386C14.645 20.5737 13.7899 20.7826 13.0197 20.5718C10.73 19.945 8.46422 17.9164 6.3761 14.3706C4.28507 10.82 3.63107 7.88331 4.22278 5.63818C4.41837 4.89721 5.01767 4.28212 5.77844 4.05713L6.96106 3.70654C7.11511 3.66102 7.27189 3.6453 7.42493 3.65674Z" fill="#54D4D8"/>
</svg>
