<svg width="17" height="21" viewBox="0 0 17 21" fill="none" xmlns="http://www.w3.org/2000/svg">
<path d="M5.78482 0.50683C5.45569 0.482886 5.11845 0.516526 4.78775 0.614252L3.60416 0.964838C2.34293 1.33784 1.35748 2.33853 1.02408 3.60156C0.283789 6.41043 1.13065 9.73514 3.33462 13.4775C5.5355 17.2148 8.04332 19.59 10.8756 20.3652C12.1511 20.7143 13.5267 20.3808 14.4928 19.4834L15.3932 18.6484C16.4007 17.713 16.5509 16.1549 15.737 15.0478L14.4362 13.2812C13.7389 12.3342 12.5098 11.931 11.3795 12.2705L9.34439 12.8799C9.25896 12.9048 9.05452 12.7885 8.87662 12.6348L8.87564 12.6338C8.55877 12.3583 8.11974 11.8013 7.65005 11.0049V11.0039C7.14642 10.1485 6.93161 9.58913 6.84537 9.25878C6.75908 8.92828 6.78002 8.88808 6.79263 8.77636C6.79919 8.72062 6.82567 8.66897 6.87076 8.62792L6.87173 8.62695L8.38931 7.23925C9.25876 6.44443 9.52123 5.17425 9.03091 4.10546L8.11587 2.10937V2.10839C7.68507 1.16934 6.77194 0.578642 5.78482 0.50683ZM5.67642 2.00292C6.13552 2.03723 6.55828 2.3126 6.75162 2.73437L7.66763 4.73046C7.88931 5.21367 7.77815 5.76663 7.37759 6.13281L5.86001 7.51953C5.54891 7.80319 5.34996 8.18993 5.3024 8.60742V8.60839C5.29001 8.71818 5.26073 9.12644 5.39419 9.63769C5.52766 10.1489 5.80322 10.8251 6.35709 11.7656H6.35806C6.87485 12.6421 7.36328 13.308 7.89224 13.7676H7.89322C8.065 13.9163 8.78495 14.6063 9.76431 14.3203L9.76724 14.3193L11.8112 13.707C12.3419 13.5476 12.9094 13.738 13.2282 14.1709L14.529 15.9375C14.8973 16.4393 14.833 17.1215 14.3727 17.5488L13.4723 18.3848C12.8965 18.9199 12.0414 19.1288 11.2711 18.918C8.98147 18.2912 6.71572 16.2626 4.62759 12.7168C2.53657 9.16619 1.88256 6.2295 2.47427 3.98437C2.66987 3.24339 3.26916 2.62831 4.02994 2.40331L5.21255 2.05273C5.36661 2.0072 5.52339 1.99149 5.67642 2.00292Z" fill="#9089EB"/>
</svg>
