<svg width="25" height="24" viewBox="0 0 25 24" fill="none" xmlns="http://www.w3.org/2000/svg">
<path d="M18.7536 1.99219C18.6043 1.99222 18.4585 2.03679 18.3347 2.12019C18.2109 2.20358 18.1148 2.32202 18.0587 2.46033C18.0026 2.59865 17.989 2.75056 18.0198 2.89662C18.0505 3.04269 18.1241 3.17627 18.2311 3.28027L19.9509 5H14.2614C14.162 4.99859 14.0634 5.01696 13.9711 5.05402C13.8789 5.09108 13.795 5.1461 13.7242 5.21588C13.6534 5.28566 13.5972 5.36882 13.5588 5.46051C13.5205 5.5522 13.5007 5.65061 13.5007 5.75C13.5007 5.84939 13.5205 5.9478 13.5588 6.03949C13.5972 6.13118 13.6534 6.21434 13.7242 6.28412C13.795 6.3539 13.8789 6.40892 13.9711 6.44598C14.0634 6.48304 14.162 6.50141 14.2614 6.5H19.9509L18.2311 8.21973C18.1592 8.28884 18.1017 8.37161 18.0621 8.46321C18.0225 8.5548 18.0016 8.65338 18.0006 8.75316C17.9996 8.85294 18.0185 8.95192 18.0562 9.0443C18.0939 9.13668 18.1497 9.22061 18.2202 9.29117C18.2908 9.36172 18.3747 9.41749 18.4671 9.45521C18.5595 9.49293 18.6585 9.51183 18.7583 9.51082C18.858 9.50981 18.9566 9.48889 19.0482 9.4493C19.1398 9.40972 19.2226 9.35225 19.2917 9.28027L22.2917 6.28027C22.4323 6.13962 22.5113 5.94888 22.5113 5.75C22.5113 5.55112 22.4323 5.36038 22.2917 5.21973L19.2917 2.21973C19.2218 2.14773 19.1381 2.0905 19.0457 2.05142C18.9533 2.01233 18.854 1.99219 18.7536 1.99219ZM7.53192 2.00684C7.20279 1.98289 6.86555 2.01653 6.53485 2.11426H6.53387L5.35126 2.46484C4.09003 2.83785 3.10458 3.83854 2.77118 5.10156C2.03089 7.91043 2.87775 11.2351 5.08172 14.9775C7.2826 18.7148 9.79042 21.09 12.6227 21.8652C13.8982 22.2143 15.2738 21.8809 16.2399 20.9834L17.1403 20.1484C18.1478 19.213 18.298 17.6549 17.4841 16.5479L16.1833 14.7812C15.486 13.8342 14.2569 13.431 13.1266 13.7705L11.0915 14.3799C11.0061 14.4048 10.8016 14.2885 10.6237 14.1348L10.6227 14.1338C10.3059 13.8583 9.86684 13.3014 9.39715 12.5049V12.5039C8.89352 11.6485 8.67871 11.0891 8.59247 10.7588C8.50619 10.4283 8.52712 10.3881 8.53973 10.2764C8.54629 10.2206 8.57277 10.169 8.61786 10.1279L8.61883 10.127L10.1364 8.73926C11.0059 7.94443 11.2683 6.67426 10.778 5.60547L9.862 3.60938V3.6084C9.4312 2.66935 8.51905 2.07865 7.53192 2.00684ZM7.42352 3.50293C7.88262 3.53723 8.30538 3.81261 8.49872 4.23438L9.41376 6.23047C9.63544 6.71368 9.52427 7.26664 9.12372 7.63281L7.60712 9.01953C7.29601 9.30319 7.09706 9.68994 7.0495 10.1074V10.1084C7.03711 10.2182 7.00783 10.6264 7.1413 11.1377C7.27476 11.6489 7.55032 12.3252 8.10419 13.2656H8.10516C8.62195 14.1421 9.11038 14.808 9.63934 15.2676H9.64032C9.8121 15.4163 10.5321 16.1063 11.5114 15.8203L11.5143 15.8193L13.5583 15.207C14.089 15.0476 14.6565 15.238 14.9753 15.6709L16.2761 17.4375C16.6444 17.9393 16.5801 18.6215 16.1198 19.0488L15.2194 19.8848C14.6436 20.4199 13.7885 20.6288 13.0182 20.418C10.7286 19.7912 8.46282 17.7626 6.37469 14.2168C4.28367 10.6662 3.62966 7.7295 4.22137 5.48438C4.41697 4.7434 5.01626 4.12832 5.77704 3.90332L6.95965 3.55273C7.11371 3.50721 7.27049 3.4915 7.42352 3.50293Z" fill="#90DB5B"/>
</svg>
