<svg width="25" height="25" viewBox="0 0 25 25" fill="none" xmlns="http://www.w3.org/2000/svg">
<path d="M17.2482 2.49348C17.0534 2.49915 16.8685 2.58041 16.7325 2.72004L13.7325 5.72004C13.5919 5.86069 13.513 6.05143 13.513 6.25031C13.513 6.44919 13.5919 6.63993 13.7325 6.78058L16.7325 9.78058C16.8017 9.85256 16.8844 9.91003 16.976 9.94962C17.0676 9.9892 17.1662 10.0101 17.266 10.0111C17.3658 10.0121 17.4647 9.99324 17.5571 9.95552C17.6495 9.91781 17.7334 9.86204 17.804 9.79148C17.8745 9.72092 17.9303 9.63699 17.968 9.54461C18.0057 9.45223 18.0246 9.35325 18.0236 9.25347C18.0226 9.15369 18.0017 9.05512 17.9621 8.96352C17.9225 8.87192 17.8651 8.78915 17.7931 8.72004L16.0734 7.00031H21.7628C21.8622 7.00172 21.9609 6.98336 22.0531 6.9463C22.1453 6.90924 22.2293 6.85421 22.3 6.78443C22.3708 6.71465 22.427 6.63149 22.4654 6.5398C22.5037 6.44811 22.5235 6.3497 22.5235 6.25031C22.5235 6.15092 22.5037 6.05251 22.4654 5.96082C22.427 5.86913 22.3708 5.78597 22.3 5.71619C22.2293 5.64641 22.1453 5.59139 22.0531 5.55433C21.9609 5.51727 21.8622 5.49891 21.7628 5.50031H16.0734L17.7931 3.78058C17.9013 3.67521 17.9752 3.53962 18.005 3.39157C18.0349 3.24351 18.0194 3.08989 17.9605 2.95081C17.9016 2.81172 17.8021 2.69366 17.675 2.61206C17.5479 2.53046 17.3991 2.48913 17.2482 2.49348ZM7.53332 2.50715C7.20419 2.4832 6.86695 2.51684 6.53625 2.61457H6.53528L5.35266 2.96515C4.09143 3.33816 3.10599 4.33885 2.77258 5.60187C2.03229 8.41074 2.87915 11.7355 5.08313 15.4778C7.284 19.2151 9.79183 21.5903 12.6241 22.3655C13.8996 22.7147 15.2752 22.3812 16.2413 21.4837L17.1417 20.6487C18.1492 19.7133 18.2994 18.1553 17.4855 17.0482L16.1847 15.2816C15.4874 14.3345 14.2583 13.9313 13.1281 14.2708L11.0929 14.8802C11.0075 14.9051 10.803 14.7888 10.6251 14.6351L10.6241 14.6341C10.3073 14.3586 9.86825 13.8017 9.39856 13.0052V13.0042C8.89492 12.1489 8.68011 11.5895 8.59387 11.2591C8.50759 10.9286 8.52853 10.8884 8.54114 10.7767C8.54769 10.7209 8.57418 10.6693 8.61926 10.6282L8.62024 10.6273L10.1378 9.23957C11.0073 8.44474 11.2697 7.17457 10.7794 6.10578L9.8634 4.10969V4.10871C9.4326 3.16966 8.52045 2.57896 7.53332 2.50715ZM7.42493 4.00324C7.88402 4.03754 8.30678 4.31292 8.50012 4.73469L9.41516 6.73078C9.63684 7.21399 9.52568 7.76695 9.12512 8.13312L7.60852 9.51984C7.29742 9.8035 7.09846 10.1902 7.0509 10.6077V10.6087C7.03851 10.7185 7.00923 11.1268 7.1427 11.638C7.27617 12.1493 7.55172 12.8255 8.10559 13.7659H8.10657C8.62336 14.6424 9.11179 15.3083 9.64075 15.7679H9.64172C9.8135 15.9166 10.5335 16.6066 11.5128 16.3206L11.5157 16.3196L13.5597 15.7073C14.0904 15.5479 14.658 15.7383 14.9767 16.1712L16.2775 17.9378C16.6458 18.4396 16.5815 19.1218 16.1212 19.5491L15.2208 20.3851C14.645 20.9202 13.7899 21.1291 13.0197 20.9183C10.73 20.2915 8.46422 18.2629 6.3761 14.7171C4.28507 11.1665 3.63107 8.22981 4.22278 5.98469C4.41837 5.24371 5.01767 4.62863 5.77844 4.40363L6.96106 4.05305C7.11511 4.00752 7.27189 3.99181 7.42493 4.00324Z" fill="#E69A5D"/>
</svg>
