<svg width="25" height="25" viewBox="0 0 25 25" fill="none" xmlns="http://www.w3.org/2000/svg">
<path d="M18.7648 3.9555C18.7321 3.95597 18.6995 3.95858 18.6671 3.96331H15.7628C15.6634 3.96191 15.5648 3.98027 15.4725 4.01733C15.3803 4.05439 15.2964 4.10941 15.2256 4.17919C15.1548 4.24897 15.0986 4.33213 15.0602 4.42382C15.0219 4.51551 15.0021 4.61392 15.0021 4.71331C15.0021 4.81271 15.0219 4.91111 15.0602 5.0028C15.0986 5.09449 15.1548 5.17765 15.2256 5.24743C15.2964 5.31721 15.3803 5.37224 15.4725 5.4093C15.5648 5.44636 15.6634 5.46472 15.7628 5.46331H16.8946L12.4962 9.67523L7.78039 5.17132C7.71022 5.0985 7.62605 5.04063 7.53294 5.00117C7.43983 4.96172 7.33971 4.9415 7.23858 4.94173C7.13746 4.94196 7.03743 4.96263 6.9445 5.00251C6.85157 5.04239 6.76767 5.10064 6.69783 5.17378C6.62799 5.24691 6.57366 5.33341 6.5381 5.42808C6.50255 5.52274 6.4865 5.62362 6.49093 5.72465C6.49536 5.82567 6.52017 5.92476 6.56387 6.01595C6.60757 6.10715 6.66926 6.18856 6.74523 6.2553L11.9796 11.2553C12.1192 11.3886 12.3047 11.463 12.4977 11.463C12.6906 11.463 12.8762 11.3886 13.0157 11.2553L18.0128 6.47015V7.71331C18.0114 7.8127 18.0298 7.91137 18.0668 8.00359C18.1039 8.09582 18.1589 8.17976 18.2287 8.25054C18.2985 8.32132 18.3816 8.37752 18.4733 8.41588C18.565 8.45424 18.6634 8.47399 18.7628 8.47399C18.8622 8.47399 18.9606 8.45424 19.0523 8.41588C19.144 8.37752 19.2271 8.32132 19.2969 8.25054C19.3667 8.17976 19.4217 8.09582 19.4588 8.00359C19.4959 7.91137 19.5142 7.8127 19.5128 7.71331V4.81487C19.5286 4.70778 19.521 4.59855 19.4906 4.49467C19.4601 4.39079 19.4076 4.29473 19.3365 4.21308C19.2654 4.13143 19.1775 4.06614 19.0788 4.02167C18.9802 3.97721 18.873 3.95464 18.7648 3.9555ZM12.5128 12.9633C7.83064 12.9633 5.1497 14.3096 3.73449 15.4916C2.72388 16.3356 2.29528 17.6879 2.6134 18.9584L2.83703 19.851C3.18367 21.2369 4.54071 22.1419 5.95324 21.9301L8.09777 21.6088C9.02176 21.4704 9.7683 20.7696 9.96398 19.8559V19.8549L10.3868 17.8823C10.4075 17.7859 10.4688 17.7214 10.548 17.6977C10.9064 17.5903 11.535 17.4633 12.5128 17.4633C13.4906 17.4633 14.1192 17.5903 14.4777 17.6977C14.557 17.7215 14.6185 17.7863 14.6388 17.8813V17.8823L15.0616 19.8559C15.2576 20.7692 16.0035 21.4704 16.9279 21.6088L19.0724 21.9301C20.485 22.1419 21.8425 21.2374 22.1886 19.851L22.4122 18.9584V18.9575C22.7299 17.6872 22.3015 16.3354 21.2911 15.4916C19.8759 14.3096 17.195 12.9633 12.5128 12.9633ZM12.5128 14.4633C16.912 14.4633 19.1933 15.6922 20.3302 16.642C20.8966 17.115 21.138 17.8708 20.9571 18.5932V18.5942L20.7335 19.4877C20.5716 20.1364 19.9565 20.5459 19.295 20.4467L17.1505 20.1254C16.8398 20.0789 16.5945 19.8492 16.5284 19.5414L16.1056 17.5688V17.5678C15.9746 16.9551 15.5217 16.4453 14.9083 16.2612C14.3988 16.1085 13.621 15.9633 12.5128 15.9633C11.4046 15.9633 10.6268 16.1085 10.1173 16.2612C9.50346 16.4454 9.05135 16.9562 8.92004 17.5678L8.49719 19.5414C8.43158 19.8483 8.18583 20.0789 7.87512 20.1254L5.73059 20.4467C5.06912 20.5459 4.45447 20.1369 4.29211 19.4877L4.06848 18.5942V18.5932C3.8876 17.8708 4.12905 17.115 4.69543 16.642C5.83237 15.6922 8.11358 14.4633 12.5128 14.4633Z" fill="#EE5C5C"/>
</svg>
