<svg width="24" height="24" viewBox="0 0 24 24" fill="none" xmlns="http://www.w3.org/2000/svg">
<path d="M8.43261 1.99904C8.10918 1.99529 7.78772 2.03252 7.47558 2.10841C6.85131 2.2602 6.2653 2.56768 5.78222 3.01661L4.88281 3.85157C3.8753 4.78702 3.72508 6.34507 4.53906 7.45216L5.83984 9.21876C6.53711 10.1658 7.76526 10.5691 8.8955 10.2295L10.9316 9.62013C11.0173 9.59512 11.2222 9.71194 11.4004 9.86622C11.7174 10.1419 12.1561 10.6991 12.626 11.4961C13.1296 12.3515 13.3444 12.9109 13.4307 13.2412C13.5169 13.5717 13.495 13.6119 13.4824 13.7236C13.4759 13.7794 13.4503 13.831 13.4053 13.8721L13.4043 13.8731L11.8867 15.2608C11.0173 16.0556 10.7548 17.3258 11.2451 18.3945L12.1601 20.3916C12.7346 21.6438 14.1657 22.2766 15.4883 21.8858L16.6719 21.5352C17.9331 21.1622 18.9185 20.1615 19.2519 18.8985C19.9922 16.0896 19.1454 12.7649 16.9414 9.02247C14.7401 5.28533 12.2332 2.91003 9.40038 2.13478C9.08145 2.04748 8.75604 2.00278 8.43261 1.99904ZM8.41699 3.50099C8.61455 3.50259 8.81231 3.52934 9.00488 3.58204C11.2951 4.20879 13.5598 6.23736 15.6484 9.78322C17.7395 13.3338 18.3935 16.2705 17.8018 18.5156C17.6062 19.2566 17.0078 19.8717 16.2471 20.0967L15.0625 20.4473C14.4463 20.6294 13.7812 20.328 13.5234 19.7656L12.6084 17.7695C12.3867 17.2863 12.4979 16.7334 12.8984 16.3672L14.415 14.9815C14.7267 14.6977 14.926 14.3105 14.9736 13.8926V13.8916C14.986 13.7818 15.0153 13.3736 14.8818 12.8623C14.7484 12.3511 14.4718 11.6749 13.918 10.7344C13.4012 9.85788 12.9127 9.19199 12.3838 8.73243H12.3828C12.211 8.58372 11.4911 7.89371 10.5117 8.1797L10.5088 8.18068L8.46484 8.79298H8.46386C7.93311 8.95243 7.36658 8.76204 7.04784 8.32911L5.74706 6.56349V6.56251C5.37871 6.06068 5.44307 5.37851 5.90331 4.95118L6.8037 4.11525C7.09162 3.84768 7.44907 3.66218 7.83105 3.56935C8.02204 3.52293 8.21942 3.49939 8.41699 3.50099Z" fill="#206658"/>
</svg>
