<svg width="24" height="25" viewBox="0 0 24 25" fill="none" xmlns="http://www.w3.org/2000/svg">
<path d="M18.2519 3.49218C18.2193 3.49265 18.1866 3.49526 18.1543 3.49999H15.25C15.1506 3.49859 15.0519 3.51695 14.9597 3.55401C14.8675 3.59107 14.7835 3.64609 14.7128 3.71587C14.642 3.78566 14.5858 3.86881 14.5474 3.9605C14.5091 4.0522 14.4893 4.1506 14.4893 4.24999C14.4893 4.34939 14.5091 4.44779 14.5474 4.53948C14.5858 4.63118 14.642 4.71433 14.7128 4.78411C14.7835 4.8539 14.8675 4.90892 14.9597 4.94598C15.0519 4.98304 15.1506 5.0014 15.25 4.99999H16.3818L11.9834 9.21191L7.26757 4.708C7.1974 4.63519 7.11323 4.57731 7.02012 4.53786C6.92702 4.4984 6.82689 4.47818 6.72577 4.47841C6.62464 4.47864 6.52461 4.49931 6.43168 4.53919C6.33875 4.57907 6.25485 4.63732 6.18501 4.71046C6.11517 4.78359 6.06084 4.87009 6.02529 4.96476C5.98973 5.05942 5.97369 5.1603 5.97811 5.26133C5.98254 5.36236 6.00735 5.46144 6.05105 5.55264C6.09476 5.64383 6.15645 5.72524 6.23242 5.79199L11.4668 10.792C11.6063 10.9253 11.7919 10.9996 11.9849 10.9996C12.1778 10.9996 12.3634 10.9253 12.5029 10.792L17.5 6.00683V7.24999C17.4986 7.34938 17.517 7.44805 17.554 7.54028C17.5911 7.6325 17.6461 7.71644 17.7159 7.78722C17.7857 7.858 17.8688 7.9142 17.9605 7.95256C18.0522 7.99092 18.1506 8.01067 18.25 8.01067C18.3494 8.01067 18.4478 7.99092 18.5395 7.95256C18.6312 7.9142 18.7143 7.858 18.7841 7.78722C18.8539 7.71644 18.9089 7.6325 18.946 7.54028C18.983 7.44805 19.0014 7.34938 19 7.24999V4.35156C19.0158 4.24447 19.0082 4.13523 18.9777 4.03135C18.9473 3.92747 18.8948 3.83141 18.8237 3.74976C18.7526 3.66812 18.6647 3.60282 18.566 3.55836C18.4673 3.51389 18.3602 3.49132 18.2519 3.49218ZM12 12.5C7.31783 12.5 4.63688 13.8462 3.22167 15.0283C2.21106 15.8723 1.78246 17.2245 2.10058 18.4951L2.32421 19.3877C2.67085 20.7735 4.02789 21.6786 5.44042 21.4668L7.58496 21.1455C8.50894 21.0071 9.25548 20.3062 9.45117 19.3926V19.3916L9.87402 17.4189C9.8947 17.3226 9.956 17.2581 10.0352 17.2344C10.3936 17.127 11.0222 17 12 17C12.9778 17 13.6064 17.127 13.9648 17.2344C14.0442 17.2582 14.1057 17.323 14.126 17.418V17.4189L14.5488 19.3926C14.7448 20.3058 15.4907 21.007 16.415 21.1455L18.5596 21.4668C19.9721 21.6786 21.3297 20.774 21.6758 19.3877L21.8994 18.4951V18.4941C22.2171 17.2238 21.7887 15.8721 20.7783 15.0283C19.3631 13.8462 16.6822 12.5 12 12.5ZM12 14C16.3992 14 18.6804 15.2289 19.8174 16.1787C20.3838 16.6517 20.6252 17.4075 20.4443 18.1299V18.1309L20.2207 19.0244C20.0588 19.6731 19.4437 20.0826 18.7822 19.9834L16.6377 19.6621C16.327 19.6156 16.0817 19.3858 16.0156 19.0781L15.5928 17.1055V17.1045C15.4618 16.4918 15.0089 15.9819 14.3955 15.7978C13.886 15.6452 13.1082 15.5 12 15.5C10.8918 15.5 10.114 15.6452 9.60449 15.7978C8.99064 15.9821 8.53854 16.4928 8.40722 17.1045L7.98437 19.0781C7.91877 19.385 7.67302 19.6156 7.3623 19.6621L5.21777 19.9834C4.5563 20.0826 3.94166 19.6735 3.77929 19.0244L3.55566 18.1309V18.1299C3.37478 17.4075 3.61623 16.6517 4.18261 16.1787C5.31955 15.2289 7.60076 14 12 14Z" fill="#EE5C5C"/>
</svg>
