<svg width="24" height="24" viewBox="0 0 24 24" fill="none" xmlns="http://www.w3.org/2000/svg">
<path d="M18.2422 1.99219C18.0929 1.99222 17.9471 2.03679 17.8233 2.12019C17.6995 2.20358 17.6034 2.32202 17.5473 2.46033C17.4912 2.59865 17.4776 2.75056 17.5083 2.89662C17.5391 3.04269 17.6127 3.17627 17.7197 3.28027L19.4395 5H13.75C13.6506 4.99859 13.5519 5.01696 13.4597 5.05402C13.3675 5.09108 13.2835 5.1461 13.2128 5.21588C13.142 5.28566 13.0858 5.36882 13.0474 5.46051C13.0091 5.5522 12.9893 5.65061 12.9893 5.75C12.9893 5.84939 13.0091 5.9478 13.0474 6.03949C13.0858 6.13118 13.142 6.21434 13.2128 6.28412C13.2835 6.3539 13.3675 6.40892 13.4597 6.44598C13.5519 6.48304 13.6506 6.50141 13.75 6.5H19.4395L17.7197 8.21973C17.6477 8.28884 17.5903 8.37161 17.5507 8.46321C17.5111 8.5548 17.4902 8.65338 17.4892 8.75316C17.4882 8.85294 17.5071 8.95192 17.5448 9.0443C17.5825 9.13668 17.6383 9.22061 17.7088 9.29117C17.7794 9.36172 17.8633 9.41749 17.9557 9.45521C18.0481 9.49293 18.1471 9.51183 18.2468 9.51082C18.3466 9.50981 18.4452 9.48889 18.5368 9.4493C18.6284 9.40972 18.7112 9.35225 18.7803 9.28027L21.7803 6.28027C21.9209 6.13962 21.9999 5.94888 21.9999 5.75C21.9999 5.55112 21.9209 5.36038 21.7803 5.21973L18.7803 2.21973C18.7104 2.14773 18.6267 2.0905 18.5343 2.05142C18.4419 2.01233 18.3425 1.99219 18.2422 1.99219ZM7.02051 2.00684C6.69138 1.98289 6.35413 2.01653 6.02344 2.11426H6.02246L4.83984 2.46484C3.57862 2.83785 2.59317 3.83854 2.25976 5.10156C1.51948 7.91043 2.36634 11.2351 4.57031 14.9775C6.77119 18.7148 9.27901 21.09 12.1113 21.8652C13.3868 22.2143 14.7624 21.8809 15.7285 20.9834L16.6289 20.1484C17.6364 19.213 17.7866 17.6549 16.9727 16.5479L15.6719 14.7812C14.9746 13.8342 13.7455 13.431 12.6152 13.7705L10.5801 14.3799C10.4946 14.4048 10.2902 14.2885 10.1123 14.1348L10.1113 14.1338C9.79446 13.8583 9.35543 13.3014 8.88574 12.5049V12.5039C8.38211 11.6485 8.1673 11.0891 8.08105 10.7588C7.99477 10.4283 8.01571 10.3881 8.02832 10.2764C8.03487 10.2206 8.06136 10.169 8.10644 10.1279L8.10742 10.127L9.625 8.73926C10.4944 7.94443 10.7569 6.67426 10.2666 5.60547L9.35058 3.60938V3.6084C8.91978 2.66935 8.00763 2.07865 7.02051 2.00684ZM6.91211 3.50293C7.37121 3.53723 7.79397 3.81261 7.9873 4.23438L8.90234 6.23047C9.12402 6.71368 9.01286 7.26664 8.6123 7.63281L7.0957 9.01953C6.7846 9.30319 6.58565 9.68994 6.53808 10.1074V10.1084C6.52569 10.2182 6.49641 10.6264 6.62988 11.1377C6.76335 11.6489 7.03891 12.3252 7.59277 13.2656H7.59375C8.11054 14.1421 8.59897 14.808 9.12793 15.2676H9.12891C9.30069 15.4163 10.0206 16.1063 11 15.8203L11.0029 15.8193L13.0469 15.207C13.5776 15.0476 14.1451 15.238 14.4639 15.6709L15.7646 17.4375C16.133 17.9393 16.0686 18.6215 15.6084 19.0488L14.708 19.8848C14.1322 20.4199 13.2771 20.6288 12.5068 20.418C10.2172 19.7912 7.9514 17.7626 5.86328 14.2168C3.77225 10.6662 3.11825 7.7295 3.70996 5.48438C3.90556 4.7434 4.50485 4.12832 5.26562 3.90332L6.44824 3.55273C6.60229 3.50721 6.75908 3.4915 6.91211 3.50293Z" fill="#077CDC"/>
</svg>
