<svg xmlns="http://www.w3.org/2000/svg" viewBox="0 0 198.47 154.13"><defs><style>.cls-1{fill:#fff;}</style></defs><g id="Layer_2" data-name="Layer 2"><g id="Layer_1-2" data-name="Layer 1"><path d="M198.47,63.91c-1.39,3.37-3.93,4.51-7.5,4.44-7.55-.16-15.1,0-22.64-.07-4.34,0-7.09-3.65-5.87-7.53a5.74,5.74,0,0,1,5.55-4q12.3-.09,24.58,0c3,0,4.79,1.87,5.88,4.5Z"/><path d="M106.83,11.71V113.28l-11.64-2.36c-4.23,13.7-13.43,21.15-28.07,22.16,0,2.63.08,5.33,0,8a13.6,13.6,0,0,1-27.18-.34c-.09-13,0-26,0-38.95V99.32c-3.84-.82-7.6-1.64-11.37-2.43s-5.27-2.73-5.3-6.49c0-2.38,0-4.77,0-7.48H21.12c-4.91,0-9.82,0-14.73,0-4,0-6.37-2.38-6.38-6.39Q0,61.68,0,46.86c0-3.9,2.36-6.23,6.3-6.25,5.54,0,11.09,0,16.92,0,0-2.12,0-4.09,0-6.06,0-3.66,1.57-5.62,5.19-6.38q36.63-7.72,73.28-15.41ZM83.54,108.45l-16.22-3.39v16.11C74.69,121.57,82,115.83,83.54,108.45Z"/><path d="M147.64,62.54q0,23.64,0,47.27c0,7.33-4.31,13-11.07,14.73a14.47,14.47,0,0,1-18-13.27c-.13-3.48,0-7,0-10.46q0-42.7,0-85.42c0-7,3.49-12.25,9.54-14.47,9.6-3.52,19.46,3.47,19.53,14,.09,13,0,26.08,0,39.12Z"/><path d="M190.84,116.28c-.43,2.48-1.38,4.21-3.36,5.3a5.08,5.08,0,0,1-5.85-.21c-4.36-3.41-8.68-6.91-12.82-10.58-2.23-2-2.12-5.5-.19-7.73a5.65,5.65,0,0,1,7.69-.92c4.21,3.3,8.35,6.7,12.34,10.26C189.7,113.33,190.13,115,190.84,116.28Z"/><path d="M190.45,9.52a11.91,11.91,0,0,1-2.13,3.4c-3.74,3.35-7.66,6.52-11.59,9.65a5.67,5.67,0,0,1-8.27-.82,5.73,5.73,0,0,1,.92-8.13Q175.14,8.74,181,4a5.47,5.47,0,0,1,6.34-.63C189.44,4.46,190.42,6.24,190.45,9.52Z"/><path class="cls-1" d="M82,67.65H73.08a3,3,0,0,0-3,3V79.9a3,3,0,0,1-3,3H59.18a3,3,0,0,1-3-3V70.67a3,3,0,0,0-3-3H44.25a3,3,0,0,1-3-3V57.54a3,3,0,0,1,3-3h8.88a3,3,0,0,0,3-3V42.18a3,3,0,0,1,3-3H67a3,3,0,0,1,3,3V51.5a3,3,0,0,0,3,3H82a3,3,0,0,1,3,3v7.09A3,3,0,0,1,82,67.65Z"/></g></g></svg>