<svg width="28" height="18" viewBox="0 0 28 18" fill="none" xmlns="http://www.w3.org/2000/svg">
<path d="M27.3793 6.18201H9.72412V17.9997H27.3793V6.18201Z" fill="#F5F0EB"/>
<path d="M27.3796 6.18201H18.5205V17.9997H27.3796V6.18201Z" fill="#EBE1DC"/>
<path d="M27.3791 17.9991L20.7892 11.8343C19.53 10.6565 17.5733 10.6565 16.3142 11.8343L9.72412 17.9991H27.3791Z" fill="white"/>
<path d="M20.7898 11.8348C20.1521 11.2382 19.3353 10.9443 18.521 10.9521V17.9997H27.3798L20.7898 11.8348Z" fill="#EBEBF0"/>
<path d="M9.72412 6.18201L16.101 12.1475C17.4801 13.4376 19.6232 13.4376 21.0022 12.1475L27.3791 6.18201H9.72412Z" fill="#EBE1DC"/>
<path d="M18.5205 6.18201V13.1144C19.4114 13.1221 20.3047 12.8002 21.0024 12.1475L27.3793 6.18201H18.5205Z" fill="#C8BEB9"/>
<path d="M18.5522 0.274536H0.896973V12.0923H18.5522V0.274536Z" fill="#FFDA00"/>
<path d="M18.5521 0.27356H9.72412V12.0913H18.5521V0.27356Z" fill="#FFB600"/>
<path d="M18.552 12.0907L11.962 5.92588C10.7029 4.74802 8.74616 4.74802 7.48702 5.92588L0.896973 12.0907H18.552Z" fill="#FFF04A"/>
<path d="M11.9617 5.92586C11.332 5.33675 10.5278 5.04234 9.72363 5.04248V12.0907H18.5517L11.9617 5.92586Z" fill="#FFDA00"/>
<path d="M0.896973 0.274536L7.27389 6.24005C8.65293 7.53012 10.796 7.53012 12.1751 6.24005L18.552 0.274536H0.896973V0.274536Z" fill="#FFB600"/>
<path d="M9.72412 0.27356V7.20663C10.6048 7.20677 11.4856 6.88425 12.1753 6.23907L18.5522 0.27356H9.72412V0.27356Z" fill="#FF9500"/>
</svg>
