<svg width="20" height="20" viewBox="0 0 20 20" fill="none" xmlns="http://www.w3.org/2000/svg">
<path d="M16.9999 2H15.9999V1C15.9999 0.4 15.5999 0 14.9999 0C14.3999 0 13.9999 0.4 13.9999 1V2H5.99994V1C5.99994 0.4 5.59994 0 4.99994 0C4.39994 0 3.99994 0.4 3.99994 1V2H2.99994C1.29994 2 -6.10352e-05 3.3 -6.10352e-05 5V6H19.9999V5C19.9999 3.3 18.6999 2 16.9999 2ZM-6.10352e-05 17C-6.10352e-05 18.7 1.29994 20 2.99994 20H16.9999C18.6999 20 19.9999 18.7 19.9999 17V8H-6.10352e-05V17ZM14.9999 10C15.5999 10 15.9999 10.4 15.9999 11C15.9999 11.6 15.5999 12 14.9999 12C14.3999 12 13.9999 11.6 13.9999 11C13.9999 10.4 14.3999 10 14.9999 10ZM14.9999 14C15.5999 14 15.9999 14.4 15.9999 15C15.9999 15.6 15.5999 16 14.9999 16C14.3999 16 13.9999 15.6 13.9999 15C13.9999 14.4 14.3999 14 14.9999 14ZM9.99994 10C10.5999 10 10.9999 10.4 10.9999 11C10.9999 11.6 10.5999 12 9.99994 12C9.39994 12 8.99994 11.6 8.99994 11C8.99994 10.4 9.39994 10 9.99994 10ZM9.99994 14C10.5999 14 10.9999 14.4 10.9999 15C10.9999 15.6 10.5999 16 9.99994 16C9.39994 16 8.99994 15.6 8.99994 15C8.99994 14.4 9.39994 14 9.99994 14ZM4.99994 10C5.59994 10 5.99994 10.4 5.99994 11C5.99994 11.6 5.59994 12 4.99994 12C4.39994 12 3.99994 11.6 3.99994 11C3.99994 10.4 4.39994 10 4.99994 10ZM4.99994 14C5.59994 14 5.99994 14.4 5.99994 15C5.99994 15.6 5.59994 16 4.99994 16C4.39994 16 3.99994 15.6 3.99994 15C3.99994 14.4 4.39994 14 4.99994 14Z" fill="#E58F40"/>
</svg>
