<svg xmlns="http://www.w3.org/2000/svg" viewBox="0 0 383.04 383.54"><g id="Layer_2" data-name="Layer 2"><g id="Layer_1-2" data-name="Layer 1"><path d="M203.39,383.54H179.44a28.7,28.7,0,0,0-3.25-.64C135.83,379.6,99.64,365.43,69,339.08,17.05,294.45-6,237.53,1.34,169.32c5.49-50.93,29.08-92.89,68.5-125.39C132-7.29,217.9-14.44,287.43,26.27c51.06,29.88,81.91,74.67,92.73,133,1.26,6.84,1.93,13.79,2.88,20.69v23.95a22.56,22.56,0,0,0-.62,2.89c-2.53,33-12.75,63.43-31.27,90.81-30.53,45.14-72.68,73-126.36,83C217.72,381.89,210.53,382.56,203.39,383.54Zm44.49-92.25c15.12-.4,27.7-5.92,33.92-21.68,2.38-6,5-11.94,7.35-18,3.4-8.7,1.19-14.79-7-19.51q-15-8.7-30.1-17.37c-9.61-5.54-15.94-4-22.16,5.28-8.17,12.24-22.09,14.5-33.68,5.44a218,218,0,0,1-38.45-38.57,27.49,27.49,0,0,1-4.47-8.52c-3.09-10.1.92-19.06,11.05-25.67,7.54-4.92,9.44-12.26,5-20Q160,116.31,150.51,100c-4-6.76-10.26-9.09-17.58-6.26-7.77,3-15.4,6.37-23.05,9.67A25.57,25.57,0,0,0,95,120.25,63.11,63.11,0,0,0,92.4,139.3c.42,13.56,5.25,26.12,11.66,37.88,23.19,42.52,56.14,75.64,97.95,99.87C215.91,285.1,230.8,290.73,247.88,291.29Zm2.68-158.53c0-8,.12-15.32,0-22.66a8.3,8.3,0,0,0-16.58-.21c-.17,2.23-.1,4.49-.1,6.73,0,5.31,0,10.62,0,16.13-7.43,0-14.27,0-21.12,0-5.81,0-9.43,3.19-9.49,8.22s3.43,8.34,9.23,8.5c1.36,0,2.74,0,4.11,0l16.72.41c.18,5.55.37,11.11.54,16.66.06,1.87-.05,3.75.09,5.61A8.22,8.22,0,0,0,244,180c3.92-.78,6.51-4.15,6.55-8.8.06-7.06,0-14.13,0-21.46,1.58-.08,2.8-.18,4-.19,5.61,0,11.22.06,16.82-.05a14,14,0,0,0,5.08-.88,8.12,8.12,0,0,0,4.65-8.92A8.23,8.23,0,0,0,273,132.8C265.66,132.68,258.34,132.76,250.56,132.76Z"/></g></g></svg>