<svg width="16" height="17" viewBox="0 0 16 17" fill="none" xmlns="http://www.w3.org/2000/svg">
<ellipse cx="8" cy="8.15331" rx="8" ry="8.15331" fill="#29CC97" fill-opacity="0.1"/>
<circle cx="8" cy="8" r="4" fill="#29CC97"/>
<path d="M9.83571 8.9371L9.83271 8.96258C9.09971 8.59024 9.02305 8.54064 8.92838 8.68536C8.86271 8.78558 8.67138 9.01286 8.61371 9.08012C8.55538 9.14637 8.49738 9.15146 8.39838 9.1056C8.29838 9.05464 7.97738 8.94763 7.59738 8.60111C7.30138 8.33104 7.10271 7.99981 7.04405 7.89789C6.94638 7.72599 7.15071 7.70153 7.33671 7.34279C7.37005 7.27144 7.35305 7.21539 7.32838 7.16477C7.30338 7.11381 7.10438 6.61442 7.02105 6.41535C6.94105 6.21695 6.85871 6.24209 6.79705 6.24209C6.60505 6.2251 6.46471 6.22782 6.34105 6.35895C5.80305 6.96162 5.93871 7.58331 6.39905 8.24441C7.30371 9.4511 7.78571 9.67327 8.66705 9.98174C8.90505 10.0589 9.12205 10.048 9.29371 10.0228C9.48505 9.99193 9.88271 9.77791 9.96571 9.5384C10.0507 9.2989 10.0507 9.10016 10.0257 9.0543C10.001 9.00844 9.93571 8.98296 9.83571 8.9371V8.9371Z" fill="white"/>
</svg>
