<svg width="28" height="28" viewBox="0 0 28 28" fill="none" xmlns="http://www.w3.org/2000/svg">
<circle cx="14.2337" cy="14.1329" r="13.7445" fill="#FF7A00" fill-opacity="0.19"/>
<path d="M19.487 17.5073H10.8575L11.2908 16.6013L18.49 16.588C18.7335 16.588 18.9421 16.4094 18.9856 16.1625L19.9826 10.434C20.0087 10.2837 19.9696 10.129 19.8739 10.0115C19.8267 9.95369 19.7677 9.90711 19.7011 9.875C19.6346 9.84289 19.562 9.82603 19.4885 9.82559L10.3301 9.79435L10.2518 9.41651C10.2025 9.17553 9.99097 9 9.75042 9H7.51154C7.37587 9 7.24576 9.05532 7.14983 9.1538C7.05389 9.25227 7 9.38584 7 9.5251C7 9.66437 7.05389 9.79793 7.14983 9.89641C7.24576 9.99488 7.37587 10.0502 7.51154 10.0502H9.33597L9.67796 11.7192L10.5199 15.9037L9.43596 17.72C9.37967 17.798 9.34577 17.8906 9.33808 17.9873C9.3304 18.084 9.34925 18.1811 9.39249 18.2674C9.47943 18.4444 9.65478 18.556 9.84896 18.556H10.759C10.565 18.8205 10.4602 19.1427 10.4605 19.4738C10.4605 20.3157 11.1271 21 11.9473 21C12.7675 21 13.4341 20.3157 13.4341 19.4738C13.4341 19.1421 13.3268 18.8193 13.1355 18.556H15.4701C15.2761 18.8205 15.1713 19.1427 15.1716 19.4738C15.1716 20.3157 15.8381 21 16.6583 21C17.4785 21 18.1451 20.3157 18.1451 19.4738C18.1451 19.1421 18.0379 18.8193 17.8466 18.556H19.4885C19.7696 18.556 20 18.3209 20 18.0309C19.9992 17.8917 19.9447 17.7586 19.8486 17.6605C19.7525 17.5624 19.6225 17.5073 19.487 17.5073V17.5073ZM10.5431 10.8297L18.8871 10.8579L18.0698 15.5556L11.5154 15.5675L10.5431 10.8297ZM11.9473 19.9438C11.6951 19.9438 11.4894 19.7326 11.4894 19.4738C11.4894 19.2149 11.6951 19.0037 11.9473 19.0037C12.1994 19.0037 12.4052 19.2149 12.4052 19.4738C12.4052 19.5985 12.3569 19.718 12.2711 19.8062C12.1852 19.8943 12.0687 19.9438 11.9473 19.9438V19.9438ZM16.6583 19.9438C16.4062 19.9438 16.2004 19.7326 16.2004 19.4738C16.2004 19.2149 16.4062 19.0037 16.6583 19.0037C16.9105 19.0037 17.1163 19.2149 17.1163 19.4738C17.1163 19.5985 17.068 19.718 16.9821 19.8062C16.8963 19.8943 16.7798 19.9438 16.6583 19.9438V19.9438Z" fill="#FB9341"/>
</svg>
