<svg width="135" height="136" viewBox="0 0 135 136" fill="none" xmlns="http://www.w3.org/2000/svg">
<path d="M67.5 135.1C104.779 135.1 135 104.879 135 67.6C135 30.3208 104.779 0.100006 67.5 0.100006C30.2208 0.100006 0 30.3208 0 67.6C0 104.879 30.2208 135.1 67.5 135.1Z" fill="#0692E3" fill-opacity="0.15"/>
<path d="M67.9002 92.7C66.2002 92.7 64.6002 92.6 62.9002 92.3C62.6002 92.3 62.5001 92.3 62.2001 92.5C58.9001 95.3 55.7001 98 52.3001 100.6C51.9001 100.9 51.5001 101.2 51.0001 101.5C50.9001 101.6 50.7001 101.7 50.5001 101.7C50.0001 101.8 49.6001 101.4 49.8001 100.8C50.0001 99.7 50.3001 98.6 50.5001 97.4C51.2001 94.6 51.8001 91.8 52.5001 89C52.6001 88.8 52.5001 88.6 52.3001 88.5C49.1001 86.6 46.3001 84 44.0001 80.7C41.7001 77.4 40.2001 73.7 39.7001 69.5C39.1001 64.7 39.8001 60.1 41.7001 55.8C43.6001 51.6 46.3001 48.3 49.7001 45.8C53.2001 43 57.1001 41.3 61.3001 40.4C64.4001 39.7 67.5001 39.6 70.6001 39.9C76.5001 40.5 81.9001 42.7 86.7001 46.9C89.9001 49.7 92.4001 53.2 94.0001 57.6C96.5001 64.6 96.0001 71.4 92.7001 77.9C90.6001 82.1 87.6001 85.2 84.1001 87.6C80.8001 89.9 77.2002 91.4 73.4002 92.1C71.5002 92.4 69.7002 92.6 67.9002 92.7Z" fill="#0692E3"/>
</svg>
