<svg width="32" height="32" viewBox="0 0 32 32" fill="none" xmlns="http://www.w3.org/2000/svg">
<path d="M1.00002 15.9988C0.995476 13.0368 1.86928 10.1399 3.51092 7.6746C5.15256 5.20926 7.4883 3.28618 10.2228 2.14856C12.9572 1.01095 15.9676 0.70989 18.8731 1.28347C21.7786 1.85704 24.4488 3.27949 26.5461 5.37091C28.6433 7.46234 30.0733 10.1288 30.6552 13.0331C31.2372 15.9374 30.9449 18.9491 29.8155 21.6872C28.686 24.4254 26.7701 26.7671 24.3099 28.4162C21.8497 30.0653 18.9559 30.9476 15.9943 30.9517C14.0277 30.956 12.0796 30.5724 10.2613 29.823C8.44306 29.0736 6.79036 27.973 5.39775 26.5842C4.00513 25.1954 2.89991 23.5457 2.14531 21.7294C1.3907 19.913 1.00152 17.9657 1.00002 15.9988ZM2.21775 15.9828C2.2173 18.7035 3.02345 21.3633 4.53428 23.6259C6.04511 25.8885 8.19277 27.6523 10.7058 28.6942C13.2187 29.7361 15.9842 30.0094 18.6524 29.4796C21.3207 28.9497 23.772 27.6405 25.6964 25.7175C27.6208 23.7944 28.9318 21.3438 29.4638 18.6756C29.9958 16.0073 29.7249 13.2412 28.6852 10.727C27.6455 8.21279 25.8838 6.06332 23.6229 4.55037C21.3619 3.03742 18.7031 2.22893 15.9828 2.22711C14.173 2.22104 12.38 2.57314 10.7069 3.26314C9.0338 3.95314 7.51374 4.9674 6.23427 6.24749C4.9548 7.52759 3.9412 9.04822 3.25186 10.7218C2.56253 12.3954 2.21107 14.1888 2.21775 15.9988V15.9828Z" fill="#B0B0B0" stroke="#B0B0B0" stroke-width="0.25"/>
<path d="M8 13.364C8.09173 13.2473 8.17281 13.1199 8.27707 13.0156C9.52621 11.7646 10.7774 10.5159 12.0308 9.26941C12.3304 8.97064 12.5592 8.97345 12.8598 9.26941C13.2354 9.63716 13.6133 10.0002 13.9906 10.3655C13.9971 10.3898 14.0037 10.4139 14.0106 10.4382C13.9596 10.4663 13.8988 10.4847 13.8594 10.5241C13.3599 11.0173 12.8626 11.5127 12.3673 12.0101C11.8617 12.5205 11.7628 13.2058 12.1338 13.7861C12.424 14.2397 12.8657 14.5079 13.3807 14.6356C14.2006 14.8388 14.9363 14.6596 15.5722 14.0942C15.8514 13.8445 16.0781 13.8195 16.3139 14.049C17.0815 14.7982 18.2934 14.9403 19.2442 14.3393C19.2727 14.363 19.3068 14.3868 19.334 14.4152C20.2405 15.3178 21.1465 16.2204 22.0521 17.1231C22.2731 17.3432 22.3695 17.596 22.265 17.901C22.0978 18.3881 21.4914 18.5254 21.1066 18.1589C20.7532 17.8218 20.4125 17.4721 20.066 17.1262C20.0294 17.0894 19.9933 17.0516 19.9552 17.0166C19.7476 16.8293 19.4671 16.8293 19.2833 17.0166C19.0995 17.2039 19.1014 17.4768 19.294 17.6738C19.6537 18.0418 20.0256 18.398 20.3825 18.7686C20.4847 18.8709 20.5643 18.9934 20.616 19.1283C20.7194 19.4255 20.5863 19.7479 20.3227 19.9131C20.1901 19.9988 20.0321 20.0364 19.875 20.0197C19.7179 20.003 19.5713 19.933 19.4599 19.8213C19.1039 19.4779 18.7583 19.1261 18.4083 18.7777C18.3713 18.7408 18.3356 18.7031 18.2971 18.6681C18.0936 18.4839 17.8207 18.4808 17.6363 18.6587C17.4484 18.842 17.4409 19.1254 17.6378 19.3271C17.9969 19.6955 18.3691 20.0517 18.7257 20.4226C18.8281 20.5247 18.9078 20.6471 18.9596 20.7819C19.062 21.0794 18.9283 21.4013 18.6644 21.5664C18.5386 21.6476 18.3896 21.6854 18.2403 21.6738C18.0909 21.6623 17.9495 21.602 17.8379 21.5024C17.6187 21.3039 17.4115 21.0907 17.2039 20.8781C16.8908 20.5578 16.5211 20.3586 16.0631 20.3374C16.0218 20.3355 15.9501 20.2749 15.9476 20.2381C15.8956 19.4829 15.4874 19.0065 14.7808 18.7443C15.0719 18.0512 15.0209 17.395 14.4768 16.8512C13.9327 16.3073 13.284 16.2502 12.5714 16.5462C12.3657 15.928 11.9472 15.5225 11.2994 15.4061C10.658 15.2918 10.1195 15.5106 9.67805 16.0198C9.62483 15.8656 9.57818 15.7388 9.53623 15.608C9.41324 15.2259 9.19964 14.8791 8.91353 14.5969C8.68531 14.3693 8.45614 14.1423 8.23605 13.9069C8.14589 13.8102 8.07952 13.6915 8.00157 13.5829L8 13.364Z" fill="#B0B0B0"/>
<path d="M22.48 16.2293L19.2867 13.045L19.1537 13.1676C18.6114 13.6671 17.9862 13.7455 17.3144 13.4992C17.0927 13.418 16.8902 13.2822 16.6845 13.162C16.4375 13.0141 16.1506 12.9464 15.8633 12.9681C15.5761 12.9899 15.3027 13.1001 15.0809 13.2835C14.8646 13.462 14.6552 13.6478 14.3725 13.7205C13.8446 13.8588 13.3841 13.739 12.99 13.3696C12.7918 13.1842 12.7943 12.9104 12.994 12.7031C13.2357 12.4534 13.4849 12.2092 13.7326 11.9642C14.1424 11.5583 14.5484 11.1484 14.9661 10.7507C15.2359 10.4975 15.5725 10.4004 15.9394 10.4004C16.4444 10.4004 16.9493 10.3957 17.454 10.4023C17.7912 10.407 18.0708 10.2987 18.3056 10.0539C18.5898 9.75795 18.885 9.47199 19.1771 9.18321C19.4238 8.9394 19.6781 8.93846 19.926 9.18321C21.2223 10.4736 22.5179 11.7655 23.8127 13.059C24.0632 13.3088 24.0607 13.5623 23.8065 13.817C23.4725 14.1521 23.1379 14.4863 22.8025 14.8197C22.5354 15.0867 22.4537 15.4079 22.5104 15.776C22.5329 15.9205 22.5276 16.0691 22.5348 16.2155L22.48 16.2293Z" fill="#B0B0B0"/>
<path d="M11.7445 20.3543C11.3688 20.3383 11.1497 20.2085 11.0292 19.9441C10.9086 19.6796 10.9352 19.4196 11.1309 19.2048C11.3867 18.9257 11.6609 18.6635 11.9292 18.3959C12.2338 18.0912 12.5353 17.7831 12.8481 17.4868C13.0544 17.2911 13.307 17.2474 13.5719 17.3504C13.8368 17.4534 13.9861 17.6548 14.0155 17.9379C14.0349 18.1271 13.9911 18.3066 13.8574 18.4418C13.277 19.0284 12.6956 19.6144 12.1002 20.186C11.9925 20.2881 11.8184 20.3202 11.7445 20.3543Z" fill="#B0B0B0"/>
<path d="M10.089 18.7017C9.71333 18.6871 9.49419 18.5585 9.37209 18.2959C9.25281 18.0399 9.26721 17.7767 9.46069 17.5694C9.81477 17.1908 10.1807 16.8224 10.5614 16.4699C10.8235 16.2274 11.2424 16.2639 11.4947 16.5158C11.747 16.7678 11.7799 17.1867 11.537 17.4471C11.1869 17.8217 10.8213 18.1845 10.4443 18.5329C10.3354 18.6324 10.1642 18.6674 10.089 18.7017Z" fill="#B0B0B0"/>
<path d="M13.3997 22.0058C13.0256 21.9909 12.8068 21.8607 12.6847 21.5956C12.566 21.3381 12.5839 21.0755 12.7786 20.8682C13.1342 20.4895 13.5018 20.1205 13.8831 19.7678C14.1379 19.5324 14.5587 19.5711 14.8063 19.8165C15.054 20.0619 15.0981 20.4817 14.8621 20.7365C14.5058 21.1214 14.1304 21.4901 13.7457 21.8466C13.6402 21.9443 13.4717 21.9743 13.3997 22.0058Z" fill="#B0B0B0"/>
<path d="M15.7173 22.9994C15.3516 22.982 15.1369 22.8555 15.0107 22.602C14.8845 22.3485 14.9061 22.0922 15.0855 21.8734C15.224 21.7054 15.3784 21.551 15.5464 21.4123C15.814 21.1909 16.2241 21.2268 16.4683 21.4747C16.7125 21.7226 16.7429 22.1281 16.5172 22.3944C16.3824 22.5583 16.2307 22.7075 16.0645 22.8396C15.9465 22.9292 15.7899 22.9676 15.7173 22.9994Z" fill="#B0B0B0"/>
</svg>
