<svg width="20" height="20" viewBox="0 0 20 20" fill="none" xmlns="http://www.w3.org/2000/svg">
<rect width="20" height="20" rx="10" fill="#FFC444"/>
<path d="M4 9.7123C4.08753 9.5298 4.23467 9.46861 4.43416 9.47636C4.71984 9.48705 5.00606 9.47904 5.30113 9.47904V13.9594H5.2034C4.94242 13.9594 4.68091 13.9511 4.4202 13.9621C4.22205 13.9704 4.08189 13.9038 4 13.7232V9.7123Z" fill="#474747"/>
<path d="M14.9976 13.7232C14.9141 13.9102 14.7675 13.9704 14.568 13.9623C14.2797 13.9509 13.9902 13.9594 13.6949 13.9594V9.47984H14.3393C14.4145 9.47984 14.4902 9.48571 14.5645 9.47984C14.7638 9.46113 14.9112 9.53167 14.9987 9.71417L14.9976 13.7232Z" fill="#474747"/>
<path d="M12.5167 14.007C12.3599 14.0925 12.2377 14.1857 12.0997 14.2301C11.1718 14.5281 10.2417 14.8196 9.30951 15.1046C8.92879 15.2214 8.59719 15.1153 8.31769 14.8404C8.04311 14.5705 7.77005 14.2988 7.49851 14.0254C7.47706 14.0024 7.45077 13.9845 7.42152 13.9729C7.39227 13.9612 7.3608 13.9562 7.32935 13.9581C6.89976 13.9605 6.47017 13.9581 6.04057 13.9581H5.96002V9.47984C6.12998 9.47984 6.29725 9.47529 6.46399 9.47984C6.64361 9.48598 6.76175 9.40849 6.8372 9.24925C6.91453 9.08519 6.9983 8.9246 7.08126 8.76321C7.27297 8.38914 7.58228 8.19996 8.00435 8.19916C8.80608 8.19738 9.60781 8.19738 10.4095 8.19916C10.6689 8.19916 10.8056 8.3357 10.7795 8.59354C10.7634 8.75386 10.7127 8.91151 10.678 9.07049C10.6625 9.1413 10.6219 9.16187 10.5481 9.16107C10.14 9.15706 9.73213 9.15947 9.32401 9.1592C8.74567 9.1592 8.32628 9.41277 8.06772 9.92819C7.71223 10.6366 7.35602 11.3447 6.9991 12.0524C6.87076 12.3084 6.93252 12.4743 7.19645 12.5895C7.53878 12.7388 7.88622 12.8676 8.27043 12.8479C8.95725 12.8129 9.47867 12.4938 9.85322 11.9295C9.87282 11.9001 9.88893 11.8681 9.90692 11.8373C9.99391 11.6874 10.144 11.6671 10.2672 11.7892C10.9832 12.5005 11.6992 13.2117 12.4152 13.9228C12.4362 13.942 12.4606 13.9597 12.5167 14.007Z" fill="#474747"/>
<path d="M13.0344 13.6329L12.4214 13.0237C11.8522 12.458 11.2806 11.8948 10.7146 11.3256C10.5454 11.1557 10.3516 11.0694 10.111 11.0782C9.9609 11.0838 9.81027 11.082 9.66018 11.0782C9.63422 11.0746 9.6078 11.08 9.58536 11.0934C9.56291 11.1069 9.54582 11.1277 9.53694 11.1522C9.46257 11.3056 9.38712 11.459 9.30013 11.6065C8.99351 12.1238 8.30454 12.3503 7.74553 12.1222C7.73074 12.1152 7.7164 12.1074 7.70258 12.0986C7.716 12.0687 7.72728 12.0401 7.74097 12.0129C8.04142 11.416 8.34536 10.8206 8.6407 10.2213C8.78408 9.93033 9.00747 9.797 9.33315 9.79834C10.5285 9.80288 11.7228 9.80021 12.9192 9.80021H13.0344V13.6329Z" fill="#474747"/>
<path d="M9.82099 5.79919C9.82099 5.95203 9.8226 6.10513 9.82099 6.25797C9.81831 6.45837 9.6854 6.59784 9.49879 6.59811C9.31219 6.59838 9.17821 6.45917 9.1766 6.25904C9.17445 5.95336 9.17445 5.6476 9.1766 5.34175C9.17794 5.14322 9.31487 5.00027 9.49879 5C9.68271 4.99973 9.81831 5.14242 9.82099 5.34068C9.8226 5.49351 9.82099 5.64635 9.82099 5.79919Z" fill="#474747"/>
<path d="M7.51812 7.56216C7.47623 7.53864 7.3887 7.50872 7.32775 7.45181C7.11484 7.25167 6.9089 7.04406 6.70404 6.83538C6.56684 6.69564 6.56496 6.50566 6.69169 6.3774C6.81842 6.24915 7.01093 6.2438 7.15216 6.37927C7.3683 6.58662 7.57987 6.79851 7.78984 7.012C7.89187 7.11567 7.91845 7.24045 7.85508 7.37459C7.79843 7.49482 7.69721 7.55307 7.51812 7.56216Z" fill="#474747"/>
<path d="M12.045 6.27587C12.2074 6.28976 12.3062 6.3448 12.3637 6.46023C12.4211 6.57566 12.4174 6.69777 12.3301 6.78942C12.1016 7.0299 11.8677 7.2645 11.6248 7.48975C11.5023 7.60331 11.312 7.57792 11.1984 7.45848C11.0848 7.33905 11.0717 7.16083 11.1847 7.04166C11.4081 6.80679 11.6411 6.57967 11.8755 6.35683C11.926 6.30927 12.0066 6.2935 12.045 6.27587Z" fill="#474747"/>
</svg>
