<svg width="40" height="40" viewBox="0 0 40 40" fill="none" xmlns="http://www.w3.org/2000/svg">
<circle cx="20" cy="20" r="20" fill="#29CC97"/>
<path d="M12.332 12.332H24.8164V28.668H12.332V12.332Z" fill="white"/>
<path d="M21.1254 26.0554L20.844 28.6679L22.9657 27.1179L21.1254 26.0554Z" fill="white"/>
<path d="M26.317 17.0629L28.1573 18.1254L22.9655 27.1176L21.1252 26.0551L26.317 17.0629Z" fill="white"/>
<path d="M28.1578 18.1254L26.3175 17.0629L26.6735 16.4462C26.9669 15.938 27.6167 15.7639 28.125 16.0573C28.6331 16.3507 28.8072 17.0005 28.5139 17.5087L28.1578 18.1254Z" fill="#EEFEF9"/>
<path d="M21.9277 17.3789H15.2207C15.0374 17.3789 14.8887 17.5276 14.8887 17.7109C14.8887 17.8943 15.0374 18.043 15.2207 18.043H21.9277C22.1111 18.043 22.2598 17.8943 22.2598 17.7109C22.2598 17.5276 22.1111 17.3789 21.9277 17.3789Z" fill="#29CC97"/>
<path d="M15.2207 19.9023H17.4343C17.6176 19.9023 17.7663 19.7537 17.7663 19.5703C17.7663 19.3869 17.6176 19.2383 17.4343 19.2383H15.2207C15.0374 19.2383 14.8887 19.3869 14.8887 19.5703C14.8887 19.7537 15.0374 19.9023 15.2207 19.9023Z" fill="#29CC97"/>
<path d="M21.9278 19.2383H19.4624C19.2791 19.2383 19.1304 19.3869 19.1304 19.5703C19.1304 19.7537 19.2791 19.9023 19.4624 19.9023H21.9278C22.1111 19.9023 22.2598 19.7537 22.2598 19.5703C22.2598 19.3869 22.1111 19.2383 21.9278 19.2383Z" fill="white"/>
<path d="M21.9277 15.5195H15.2207C15.0374 15.5195 14.8887 15.6682 14.8887 15.8516C14.8887 16.0349 15.0374 16.1836 15.2207 16.1836H21.9277C22.1111 16.1836 22.2598 16.0349 22.2598 15.8516C22.2598 15.6682 22.1111 15.5195 21.9277 15.5195Z" fill="#29CC97"/>
<path d="M22.2598 21.4297C22.2598 21.2463 22.1111 21.0977 21.9277 21.0977H15.2207C15.0374 21.0977 14.8887 21.2463 14.8887 21.4297C14.8887 21.6131 15.0374 21.7617 15.2207 21.7617H21.9277C22.1111 21.7617 22.2598 21.6131 22.2598 21.4297Z" fill="#29CC97"/>
<path d="M15.2207 23.6211H16.9307C17.114 23.6211 17.2627 23.4724 17.2627 23.2891C17.2627 23.1057 17.114 22.957 16.9307 22.957H15.2207C15.0374 22.957 14.8887 23.1057 14.8887 23.2891C14.8887 23.4724 15.0374 23.6211 15.2207 23.6211Z" fill="#29CC97"/>
<path d="M20.832 23.2891C20.832 23.1057 20.6833 22.957 20.5 22.957H18.4248C18.2415 22.957 18.0928 23.1057 18.0928 23.2891C18.0928 23.4724 18.2415 23.6211 18.4248 23.6211H20.5C20.6834 23.6211 20.832 23.4724 20.832 23.2891Z" fill="#29CC97"/>
<path d="M15.2207 25.4805H18.1426C18.3259 25.4805 18.4746 25.3318 18.4746 25.1484C18.4746 24.9651 18.3259 24.8164 18.1426 24.8164H15.2207C15.0374 24.8164 14.8887 24.9651 14.8887 25.1484C14.8887 25.3318 15.0374 25.4805 15.2207 25.4805Z" fill="#29CC97"/>
<path d="M28.2906 15.7699C27.6247 15.3854 26.7702 15.6144 26.3857 16.2803L25.1484 18.4233V16.6484C25.1484 16.4651 24.9998 16.3164 24.8164 16.3164C24.6331 16.3164 24.4844 16.4651 24.4844 16.6484V19.5703L24.4845 19.5732L20.8378 25.8895C20.8147 25.9295 20.8002 25.9739 20.7952 26.0199L20.5458 28.3359H12.6641V12.6641H24.4844V13.6602C24.4844 13.8435 24.6331 13.9922 24.8164 13.9922C24.9998 13.9922 25.1484 13.8435 25.1484 13.6602V12.332C25.1484 12.1487 24.9998 12 24.8164 12H12.332C12.1487 12 12 12.1487 12 12.332V28.668C12 28.8513 12.1487 29 12.332 29H24.8164C24.9998 29 25.1484 28.8513 25.1484 28.668V24.0014L28.8011 17.6749C29.1855 17.0089 28.9566 16.1544 28.2906 15.7699ZM22.8441 26.6644L21.5789 25.934L26.4387 17.5166L27.7039 18.247L22.8441 26.6644ZM21.4009 26.598L22.3581 27.1506L21.2545 27.9569L21.4009 26.598ZM27.9586 16.345C28.3074 16.5464 28.4274 16.994 28.226 17.3428L28.036 17.672L26.7708 16.9415L26.9608 16.6124C27.1622 16.2636 27.6099 16.1437 27.9586 16.345ZM24.4844 28.3359H21.8613L23.1615 27.3861C23.1989 27.3588 23.2301 27.324 23.2532 27.284L24.4844 25.1516V28.3359Z" fill="#29CC97"/>
<path d="M24.8164 14.8223C24.7287 14.8223 24.6434 14.8578 24.5817 14.9196C24.5199 14.9813 24.4844 15.067 24.4844 15.1543C24.4844 15.242 24.5199 15.3273 24.5817 15.389C24.6434 15.4508 24.7291 15.4863 24.8164 15.4863C24.9037 15.4863 24.9894 15.4508 25.0512 15.389C25.1129 15.3273 25.1484 15.2416 25.1484 15.1543C25.1484 15.067 25.1129 14.9813 25.0512 14.9196C24.9894 14.8578 24.9041 14.8223 24.8164 14.8223Z" fill="white"/>
</svg>
