<svg width="12" height="11" viewBox="0 0 12 11" fill="none" xmlns="http://www.w3.org/2000/svg">
<path d="M1.15652 1.69474C1.15652 2.30978 1.58705 2.86332 2.20209 2.86332L7.06093 3.17084L1.09502 9.13675C0.664488 9.56728 0.664487 10.3053 1.03351 10.6744C1.40254 11.0434 2.2636 11.0434 2.63262 10.6744L8.59853 4.70844L8.84455 9.50577C8.90605 10.0593 9.39809 10.5513 10.0131 10.5513C10.6282 10.4283 11.0587 9.9978 11.0587 9.38276L10.6897 2.12526C10.6897 1.87925 10.5667 1.63323 10.3822 1.44872C10.1976 1.26421 9.95162 1.1412 9.70561 1.1412L2.38661 0.710668C1.71006 0.649164 1.27953 1.07969 1.15652 1.69474Z" fill="white"/>
</svg>
