<svg width="208" height="36" viewBox="0 0 208 36" fill="none" xmlns="http://www.w3.org/2000/svg">
<path d="M24.344 11.96C23.736 10.84 22.856 9.992 21.704 9.416C20.584 8.808 19.256 8.504 17.72 8.504C15.064 8.504 12.936 9.384 11.336 11.144C9.736 12.872 8.936 15.192 8.936 18.104C8.936 21.208 9.768 23.64 11.432 25.4C13.128 27.128 15.448 27.992 18.392 27.992C20.408 27.992 22.104 27.48 23.48 26.456C24.888 25.432 25.912 23.96 26.552 22.04H16.136V15.992H33.992V23.624C33.384 25.672 32.344 27.576 30.872 29.336C29.432 31.096 27.592 32.52 25.352 33.608C23.112 34.696 20.584 35.24 17.768 35.24C14.44 35.24 11.464 34.52 8.84 33.08C6.248 31.608 4.216 29.576 2.744 26.984C1.304 24.392 0.584 21.432 0.584 18.104C0.584 14.776 1.304 11.816 2.744 9.224C4.216 6.6 6.248 4.568 8.84 3.128C11.432 1.656 14.392 0.919998 17.72 0.919998C21.752 0.919998 25.144 1.896 27.896 3.848C30.68 5.8 32.52 8.504 33.416 11.96H24.344ZM46.7465 7.88V14.696H57.7385V21.032H46.7465V28.424H59.1785V35H38.5385V1.304H59.1785V7.88H46.7465ZM88.7473 1.304V7.88H79.8193V35H71.6113V7.88H62.6833V1.304H88.7473Z" fill="#EA111E"/>
<path d="M101.075 28.664H111.827V35H92.8666V1.304H101.075V28.664ZM123.95 7.88V14.696H134.942V21.032H123.95V28.424H136.382V35H115.742V1.304H136.382V7.88H123.95ZM162.686 29.048H150.11L148.094 35H139.502L151.694 1.304H161.198L173.39 35H164.702L162.686 29.048ZM160.574 22.712L156.398 10.376L152.27 22.712H160.574ZM189.725 1.304C193.277 1.304 196.381 2.008 199.037 3.416C201.693 4.824 203.741 6.808 205.181 9.368C206.653 11.896 207.389 14.824 207.389 18.152C207.389 21.448 206.653 24.376 205.181 26.936C203.741 29.496 201.677 31.48 198.989 32.888C196.333 34.296 193.245 35 189.725 35H177.101V1.304H189.725ZM189.197 27.896C192.301 27.896 194.717 27.048 196.445 25.352C198.173 23.656 199.037 21.256 199.037 18.152C199.037 15.048 198.173 12.632 196.445 10.904C194.717 9.176 192.301 8.312 189.197 8.312H185.309V27.896H189.197Z" fill="#2F2F2F"/>
</svg>
