<?xml version="1.0" encoding="utf-8"?>
<!-- Generator: Adobe Illustrator 24.3.0, SVG Export Plug-In . SVG Version: 6.00 Build 0)  -->
<svg version="1.1" id="Layer_1" xmlns="http://www.w3.org/2000/svg" xmlns:xlink="http://www.w3.org/1999/xlink" x="0px" y="0px"
	 viewBox="0 0 208 36" style="enable-background:new 0 0 208 36;" xml:space="preserve">
<style type="text/css">
	.st0{fill:#EA111E;}
	.st1{fill:#FFFFFF;}
</style>
<path class="st0" d="M24.3,12c-0.6-1.1-1.5-2-2.6-2.5c-1.1-0.6-2.4-0.9-4-0.9c-2.7,0-4.8,0.9-6.4,2.6c-1.6,1.7-2.4,4-2.4,7
	c0,3.1,0.8,5.5,2.5,7.3c1.7,1.7,4,2.6,7,2.6c2,0,3.7-0.5,5.1-1.5c1.4-1,2.4-2.5,3.1-4.4H16.1v-6H34v7.6c-0.6,2-1.6,4-3.1,5.7
	c-1.4,1.8-3.3,3.2-5.5,4.3c-2.2,1.1-4.8,1.6-7.6,1.6c-3.3,0-6.3-0.7-8.9-2.2c-2.6-1.5-4.6-3.5-6.1-6.1c-1.4-2.6-2.2-5.6-2.2-8.9
	s0.7-6.3,2.2-8.9c1.5-2.6,3.5-4.7,6.1-6.1c2.6-1.5,5.6-2.2,8.9-2.2c4,0,7.4,1,10.2,2.9c2.8,2,4.6,4.7,5.5,8.1H24.3z M46.7,7.9v6.8
	h11V21h-11v7.4h12.4V35H38.5V1.3h20.6v6.6H46.7z M88.7,1.3v6.6h-8.9V35h-8.2V7.9h-8.9V1.3H88.7z"/>
<path class="st1" d="M101.1,28.7h10.8V35h-19V1.3h8.2V28.7z M123.9,7.9v6.8h11V21h-11v7.4h12.4V35h-20.6V1.3h20.6v6.6H123.9z
	 M162.7,29h-12.6l-2,6h-8.6l12.2-33.7h9.5L173.4,35h-8.7L162.7,29z M160.6,22.7l-4.2-12.3l-4.1,12.3H160.6z M189.7,1.3
	c3.6,0,6.7,0.7,9.3,2.1c2.7,1.4,4.7,3.4,6.1,6c1.5,2.5,2.2,5.5,2.2,8.8c0,3.3-0.7,6.2-2.2,8.8c-1.4,2.6-3.5,4.5-6.2,6
	c-2.7,1.4-5.7,2.1-9.3,2.1h-12.6V1.3H189.7z M189.2,27.9c3.1,0,5.5-0.8,7.2-2.5c1.7-1.7,2.6-4.1,2.6-7.2s-0.9-5.5-2.6-7.2
	c-1.7-1.7-4.1-2.6-7.2-2.6h-3.9v19.6H189.2z"/>
</svg>
