<svg xmlns="http://www.w3.org/2000/svg" viewBox="0 0 16.09 18.37"><defs><style>.cls-1{fill:#717171;}</style></defs><g id="Layer_2" data-name="Layer 2"><g id="Layer_1-2" data-name="Layer 1"><path class="cls-1" d="M2.59,0l.33.09a2.27,2.27,0,0,1-.28,4.42A2.29,2.29,0,0,1,.05,2.7,2.29,2.29,0,0,1,1.83,0L2,0Zm.87,2.27A1.18,1.18,0,0,0,2.29,1.08a1.19,1.19,0,1,0,0,2.37A1.17,1.17,0,0,0,3.46,2.27Z"/><path class="cls-1" d="M14.15,0l.35.11a2.28,2.28,0,0,1,1.58,2.34,2.28,2.28,0,0,1-4.51.21A2.28,2.28,0,0,1,13.4,0l.1,0ZM12.63,2.26a1.19,1.19,0,1,0,2.37,0,1.2,1.2,0,0,0-1.18-1.19A1.18,1.18,0,0,0,12.63,2.26Z"/><path class="cls-1" d="M8.05,6.92h6.26a1.69,1.69,0,1,1,.12,3.37.87.87,0,0,0-.68.29c-1.29,1.31-2.59,2.6-3.89,3.9a.38.38,0,0,0-.13.3c0,.61,0,1.22,0,1.83a.6.6,0,0,1-.37.59L7.18,18.3a.54.54,0,0,1-.82-.52c0-1,0-2,0-3a.41.41,0,0,0-.13-.32l-4-4a.57.57,0,0,0-.47-.19,1.63,1.63,0,0,1-1.5-.78A1.59,1.59,0,0,1,.21,7.83a1.56,1.56,0,0,1,1.42-.9c1.33,0,2.67,0,4,0ZM3.64,10.31l0,0a1,1,0,0,1,.16.12L7.2,13.91a.78.78,0,0,1,.24.58c0,.75,0,1.5,0,2.26V17c.38-.18.72-.36,1.07-.52a.24.24,0,0,0,.15-.25c0-.55,0-1.11,0-1.66a.75.75,0,0,1,.25-.62l3.44-3.44.14-.15ZM8.05,8H1.7a.61.61,0,0,0-.57.81.62.62,0,0,0,.64.41H14.43A.61.61,0,0,0,15,8.79.61.61,0,0,0,14.35,8Z"/><path class="cls-1" d="M5.78,3.41A2.27,2.27,0,1,1,8,5.7,2.27,2.27,0,0,1,5.78,3.41ZM8,4.6A1.17,1.17,0,0,0,9.23,3.43a1.19,1.19,0,0,0-2.37,0A1.17,1.17,0,0,0,8,4.6Z"/></g></g></svg>