<svg width="32" height="32" viewBox="0 0 32 32" fill="none" xmlns="http://www.w3.org/2000/svg">
<path d="M1.00002 15.9988C0.995476 13.0368 1.86928 10.1399 3.51092 7.6746C5.15256 5.20926 7.4883 3.28618 10.2228 2.14856C12.9572 1.01095 15.9676 0.70989 18.8731 1.28347C21.7786 1.85704 24.4488 3.27949 26.5461 5.37091C28.6433 7.46234 30.0733 10.1288 30.6552 13.0331C31.2372 15.9374 30.9449 18.9491 29.8155 21.6872C28.686 24.4254 26.7701 26.7671 24.3099 28.4162C21.8497 30.0653 18.9559 30.9476 15.9943 30.9517C14.0277 30.956 12.0796 30.5724 10.2613 29.823C8.44306 29.0736 6.79036 27.973 5.39775 26.5842C4.00513 25.1954 2.89991 23.5457 2.14531 21.7294C1.3907 19.913 1.00152 17.9657 1.00002 15.9988ZM2.21775 15.9828C2.2173 18.7035 3.02345 21.3633 4.53428 23.6259C6.04511 25.8885 8.19277 27.6523 10.7058 28.6942C13.2187 29.7361 15.9842 30.0094 18.6524 29.4796C21.3207 28.9497 23.772 27.6405 25.6964 25.7175C27.6208 23.7944 28.9318 21.3438 29.4638 18.6756C29.9958 16.0073 29.7249 13.2412 28.6852 10.727C27.6455 8.21279 25.8838 6.06332 23.6229 4.55037C21.3619 3.03742 18.7031 2.22893 15.9828 2.22711C14.173 2.22104 12.38 2.57314 10.7069 3.26314C9.0338 3.95314 7.51374 4.9674 6.23427 6.24749C4.9548 7.52759 3.9412 9.04822 3.25186 10.7218C2.56253 12.3954 2.21107 14.1888 2.21775 15.9988V15.9828Z" fill="#B0B0B0" stroke="#B0B0B0" stroke-width="0.25"/>
<path d="M15.5 9C14.6659 9 13.8659 9.33565 13.276 9.93311C12.6862 10.5306 12.3548 11.3409 12.3548 12.1858C12.3548 13.0308 12.6862 13.8411 13.276 14.4385C13.8659 15.036 14.6659 15.3716 15.5 15.3716C16.3341 15.3716 17.1341 15.036 17.724 14.4385C18.3138 13.8411 18.6452 13.0308 18.6452 12.1858C18.6452 11.3409 18.3138 10.5306 17.724 9.93311C17.1341 9.33565 16.3341 9 15.5 9ZM12.1452 17.0708C11.311 17.0708 10.511 17.4064 9.9212 18.0039C9.33136 18.6013 9 19.4116 9 20.2566V21.2658C9 21.9064 9.45794 22.4518 10.0819 22.5546C13.6699 23.1485 17.3301 23.1485 20.9181 22.5546C21.2201 22.5048 21.4947 22.3478 21.6929 22.1117C21.8912 21.8756 22 21.5758 22 21.2658V20.2566C22 19.4116 21.6686 18.6013 21.0788 18.0039C20.489 17.4064 19.689 17.0708 18.8548 17.0708H18.5697C18.4145 17.0708 18.2602 17.0962 18.1134 17.1438L17.3871 17.3842C16.1609 17.7897 14.8391 17.7897 13.6129 17.3842L12.8866 17.1438C12.7395 17.0953 12.5858 17.0707 12.4312 17.0708H12.1452Z" fill="#B0B0B0"/>
</svg>
