<svg width="16" height="16" viewBox="0 0 16 16" fill="none" xmlns="http://www.w3.org/2000/svg">
<circle cx="8" cy="8" r="8" fill="#0692E3" fill-opacity="0.1"/>
<g clip-path="url(#clip0_2829_150)">
<path fill-rule="evenodd" clip-rule="evenodd" d="M7.99594 8.25C7.50769 8.25 4.99219 6.22275 4.99219 6.22275V6C4.99219 5.724 5.21619 5.5 5.49269 5.5H10.4992C10.7759 5.5 10.9999 5.724 10.9999 6L10.9959 6.25C10.9959 6.25 8.50769 8.25 7.99594 8.25ZM7.99594 8.9375C8.53119 8.9375 10.9959 7 10.9959 7L10.9999 10C10.9999 10.276 10.7759 10.5 10.4992 10.5H5.49269C5.21644 10.5 4.99219 10.276 4.99219 10L4.99619 7C4.99594 7 7.50769 8.9375 7.99594 8.9375Z" fill="#0692E3"/>
</g>
<defs>
<clipPath id="clip0_2829_150">
<rect width="6" height="6" fill="white" transform="translate(5 5)"/>
</clipPath>
</defs>
</svg>
