<svg width="36" height="36" viewBox="0 0 36 36" fill="none" xmlns="http://www.w3.org/2000/svg">
<g clip-path="url(#clip0_130_2)">
<path d="M27.3601 24.28L24.9601 21.8667V15.92C24.992 13.7118 24.2239 11.5665 22.7976 9.88045C21.3712 8.19435 19.383 7.08125 17.2001 6.74667C15.9331 6.57982 14.6452 6.68509 13.4222 7.05544C12.1992 7.42578 11.0692 8.0527 10.1077 8.89435C9.14616 9.736 8.37519 10.773 7.8462 11.9363C7.31722 13.0995 7.04239 14.3621 7.04006 15.64V21.8667L4.64006 24.28C4.3386 24.5865 4.13417 24.975 4.05232 25.3971C3.97048 25.8191 4.01485 26.2559 4.17989 26.6529C4.34494 27.0498 4.62332 27.3893 4.98026 27.6289C5.33719 27.8685 5.75683 27.9976 6.18672 28H10.6667V28.4533C10.729 29.8069 11.3253 31.0806 12.325 31.9954C13.3247 32.9101 14.6463 33.3912 16.0001 33.3333C17.3539 33.3912 18.6754 32.9101 19.6751 31.9954C20.6748 31.0806 21.2711 29.8069 21.3334 28.4533V28H25.8134C26.2433 27.9976 26.6629 27.8685 27.0199 27.6289C27.3768 27.3893 27.6552 27.0498 27.8202 26.6529C27.9853 26.2559 28.0296 25.8191 27.9478 25.3971C27.8659 24.975 27.6615 24.5865 27.3601 24.28V24.28ZM18.6667 28.4533C18.5928 29.0947 18.2742 29.6827 17.7775 30.0951C17.2807 30.5074 16.644 30.7121 16.0001 30.6667C15.3561 30.7121 14.7194 30.5074 14.2226 30.0951C13.7259 29.6827 13.4073 29.0947 13.3334 28.4533V28H18.6667V28.4533Z" fill="#98A1B0"/>
</g>
<circle cx="32" cy="4" r="4" fill="#F01010"/>
<defs>
<clipPath id="clip0_130_2">
<rect width="32" height="32" fill="white" transform="translate(0 4)"/>
</clipPath>
</defs>
</svg>
