<svg width="78" height="109" viewBox="0 0 78 109" fill="none" xmlns="http://www.w3.org/2000/svg">
<g clip-path="url(#clip0_1615_1627)">
<path d="M78 23.3571V107.054C78 107.57 77.7946 108.065 77.4289 108.43C77.0632 108.795 76.5672 109 76.05 109H1.95C1.43283 109 0.936838 108.795 0.571142 108.43C0.205446 108.065 0 107.57 0 107.054V1.94643C0 1.4302 0.205446 0.935122 0.571142 0.570096C0.936838 0.20507 1.43283 0 1.95 0H54.6L78 23.3571Z" fill="#F0F0F0"/>
<path d="M40.95 33.0893H11.7C10.623 33.0893 9.75 33.9607 9.75 35.0357C9.75 36.1107 10.623 36.9822 11.7 36.9822H40.95C42.027 36.9822 42.9 36.1107 42.9 35.0357C42.9 33.9607 42.027 33.0893 40.95 33.0893Z" fill="#0A5078"/>
<path d="M40.95 40.875H11.7C10.623 40.875 9.75 41.7464 9.75 42.8214C9.75 43.8964 10.623 44.7679 11.7 44.7679H40.95C42.027 44.7679 42.9 43.8964 42.9 42.8214C42.9 41.7464 42.027 40.875 40.95 40.875Z" fill="#0A5078"/>
<path d="M40.95 25.3036H11.7C10.623 25.3036 9.75 26.175 9.75 27.25C9.75 28.325 10.623 29.1964 11.7 29.1964H40.95C42.027 29.1964 42.9 28.325 42.9 27.25C42.9 26.175 42.027 25.3036 40.95 25.3036Z" fill="#0A5078"/>
<path d="M78.0001 23.3571H56.5501C56.0329 23.3571 55.5369 23.1521 55.1712 22.787C54.8055 22.422 54.6001 21.9269 54.6001 21.4107V0L78.0001 23.3571Z" fill="#D2D2D2"/>
<g clip-path="url(#clip1_1615_1627)">
<path fill-rule="evenodd" clip-rule="evenodd" d="M21.106 73.0737C21.106 68.6639 22.8462 64.4347 25.9439 61.3165C29.0415 58.1983 33.2429 56.4466 37.6236 56.4466C42.0044 56.4466 46.2057 58.1983 49.3033 61.3165C52.401 64.4347 54.1413 68.6639 54.1413 73.0737C54.1413 77.4835 52.401 81.7126 49.3033 84.8308C46.2057 87.949 42.0044 89.7008 37.6236 89.7008C33.2429 89.7008 29.0415 87.949 25.9439 84.8308C22.8462 81.7126 21.106 77.4835 21.106 73.0737ZM36.681 80.1901L46.1908 68.223L44.4729 66.8396L36.3639 77.0398L30.6201 72.2224L29.2106 73.925L36.681 80.1923V80.1901Z" fill="#01C198"/>
</g>
</g>
<defs>
<clipPath id="clip0_1615_1627">
<rect width="78" height="109" fill="white"/>
</clipPath>
<clipPath id="clip1_1615_1627">
<rect width="33.0353" height="33.2542" fill="white" transform="translate(21.106 56.4466)"/>
</clipPath>
</defs>
</svg>
