<svg width="36" height="35" viewBox="0 0 36 35" fill="none" xmlns="http://www.w3.org/2000/svg">
<rect x="0.965576" y="0.234833" width="34.5303" height="34.5303" rx="6" fill="#F44F59"/>
<path d="M18.2307 8.86743C16.3991 8.86743 14.6425 9.59503 13.3474 10.8902C12.0522 12.1853 11.3246 13.9419 11.3246 15.7735C11.3246 20.4351 17.4106 25.701 17.6696 25.9254C17.826 26.0592 18.025 26.1327 18.2307 26.1327C18.4365 26.1327 18.6355 26.0592 18.7918 25.9254C19.094 25.701 25.1368 20.4351 25.1368 15.7735C25.1368 13.9419 24.4092 12.1853 23.114 10.8902C21.8189 9.59503 20.0623 8.86743 18.2307 8.86743ZM18.2307 24.1039C16.392 22.3774 13.0512 18.6568 13.0512 15.7735C13.0512 14.3998 13.5969 13.0824 14.5682 12.111C15.5396 11.1396 16.857 10.5939 18.2307 10.5939C19.6044 10.5939 20.9219 11.1396 21.8932 12.111C22.8646 13.0824 23.4103 14.3998 23.4103 15.7735C23.4103 18.6568 20.0695 22.3861 18.2307 24.1039ZM18.2307 12.3205C17.5478 12.3205 16.8802 12.523 16.3123 12.9024C15.7445 13.2818 15.3019 13.8211 15.0405 14.4521C14.7792 15.083 14.7108 15.7773 14.844 16.4472C14.9773 17.117 15.3061 17.7322 15.789 18.2152C16.272 18.6981 16.8872 19.0269 17.5571 19.1602C18.2269 19.2934 18.9212 19.225 19.5521 18.9637C20.1831 18.7023 20.7224 18.2597 21.1018 17.6919C21.4812 17.1241 21.6837 16.4564 21.6837 15.7735C21.6837 14.8577 21.3199 13.9794 20.6724 13.3318C20.0248 12.6843 19.1465 12.3205 18.2307 12.3205ZM18.2307 17.5C17.8892 17.5 17.5554 17.3988 17.2715 17.209C16.9876 17.0193 16.7663 16.7497 16.6356 16.4342C16.5049 16.1187 16.4708 15.7716 16.5374 15.4367C16.604 15.1018 16.7684 14.7941 17.0099 14.5527C17.2513 14.3112 17.559 14.1468 17.8939 14.0802C18.2288 14.0135 18.5759 14.0477 18.8914 14.1784C19.2069 14.3091 19.4765 14.5304 19.6663 14.8143C19.856 15.0982 19.9572 15.432 19.9572 15.7735C19.9572 16.2314 19.7753 16.6705 19.4515 16.9943C19.1278 17.3181 18.6886 17.5 18.2307 17.5Z" fill="white"/>
</svg>
