<svg xmlns="http://www.w3.org/2000/svg" viewBox="0 0 36.87 46.95"><defs><style>.cls-1{fill:#717171;}</style></defs><g id="Layer_2" data-name="Layer 2"><g id="Layer_1-2" data-name="Layer 1"><path class="cls-1" d="M4,47a10.53,10.53,0,0,1-1.37-.47A4.11,4.11,0,0,1,0,42.56V10.9A4.72,4.72,0,0,1,4.75,6.17H8.92c0-.57,0-1.1,0-1.63,0-.73.28-1.09,1-1.13,1-.05,2-.05,2.93,0a.68.68,0,0,0,.74-.48A5.21,5.21,0,0,1,19.16.07a5,5,0,0,1,4.1,3,.6.6,0,0,0,.45.25c.88,0,1.77,0,2.65,0a5,5,0,0,1,.78.07.93.93,0,0,1,.8,1c0,.55,0,1.1,0,1.72h4.12A4.73,4.73,0,0,1,36.86,11c0,10.51,0,21,0,31.52a4.45,4.45,0,0,1-3.67,4.38c-.1,0-.19.07-.29.1Zm5-38.52c-1.35,0-2.63.05-3.91,0A2.62,2.62,0,0,0,2.22,11.2c0,10.36,0,20.71,0,31.06,0,.13,0,.25,0,.37a1.9,1.9,0,0,0,1,1.71A3.32,3.32,0,0,0,5,44.7H31.85c.24,0,.49,0,.73,0a2.14,2.14,0,0,0,2-2.26q0-15.69,0-31.38A2.47,2.47,0,0,0,32,8.43h-4.1v2.44a1.26,1.26,0,0,1-1.45,1.45H10.32c-1,0-1.4-.44-1.4-1.4C8.91,10.12,8.92,9.31,8.92,8.43Zm2.28,1.62H25.65V5.62H22.74a1.23,1.23,0,0,1-1.37-1.07,3.17,3.17,0,0,0-3-2.43,3.21,3.21,0,0,0-3.07,2.36c-.27.92-.56,1.14-1.54,1.14H11.2Z"/><path class="cls-1" d="M9.77,15.34H13a1.1,1.1,0,0,1,1.22,1.17q0,3,0,6a1,1,0,0,1-1.1,1.09H6.46a1,1,0,0,1-1.11-1.13q0-3,0-5.95a1.11,1.11,0,0,1,1.22-1.18ZM12,17.62H7.64v3.73H12Z"/><path class="cls-1" d="M23.75,18.46c2.11,0,4.21,0,6.32,0a1.11,1.11,0,0,1,1.2,1.15,1.07,1.07,0,0,1-.81,1,3.07,3.07,0,0,1-.68.06H17.33a1.13,1.13,0,0,1-1.13-1.18,1.11,1.11,0,0,1,1.19-1.07C19.51,18.45,21.63,18.46,23.75,18.46Z"/><path class="cls-1" d="M23.75,36.33H30a1.11,1.11,0,0,1,1.24,1.2,1.1,1.1,0,0,1-1,1,3.37,3.37,0,0,1-.55,0H17.52c-.81,0-1.33-.46-1.32-1.14s.51-1.12,1.33-1.12Z"/><path class="cls-1" d="M23.75,29.63H17.34a1.1,1.1,0,0,1-1.1-.79,1.08,1.08,0,0,1,.45-1.24,1.57,1.57,0,0,1,.73-.2H30.06a1.12,1.12,0,1,1,0,2.23c-2.09,0-4.18,0-6.27,0Z"/><path class="cls-1" d="M9.07,28.27,12.45,25a1.13,1.13,0,0,1,1.6-.11,1.06,1.06,0,0,1,0,1.7C12.85,27.8,11.62,29,10.41,30.1c-.21.2-.42.41-.64.6a1.07,1.07,0,0,1-1.59,0c-.76-.75-1.5-1.52-2.24-2.29a1.18,1.18,0,0,1,0-1.65,1.12,1.12,0,0,1,1.63.12Z"/><path class="cls-1" d="M9.07,37.19,12.49,34a1.08,1.08,0,0,1,1.45-.17,1.05,1.05,0,0,1,.22,1.69Q12,37.6,9.71,39.68a1,1,0,0,1-1.51-.06c-.75-.74-1.48-1.49-2.21-2.25a1.19,1.19,0,0,1,0-1.72,1.19,1.19,0,0,1,1.67.18C8.08,36.28,8.56,36.72,9.07,37.19Z"/></g></g></svg>