<svg width="32" height="32" viewBox="0 0 32 32" fill="none" xmlns="http://www.w3.org/2000/svg">
<path d="M1.00002 15.9988C0.995476 13.0368 1.86928 10.1399 3.51092 7.6746C5.15256 5.20926 7.4883 3.28618 10.2228 2.14856C12.9572 1.01095 15.9676 0.70989 18.8731 1.28347C21.7786 1.85704 24.4488 3.27949 26.5461 5.37091C28.6433 7.46234 30.0733 10.1288 30.6552 13.0331C31.2372 15.9374 30.9449 18.9491 29.8155 21.6872C28.686 24.4254 26.7701 26.7671 24.3099 28.4162C21.8497 30.0653 18.9559 30.9476 15.9943 30.9517C14.0277 30.956 12.0796 30.5724 10.2613 29.823C8.44306 29.0736 6.79036 27.973 5.39775 26.5842C4.00513 25.1954 2.89991 23.5457 2.14531 21.7294C1.3907 19.913 1.00152 17.9657 1.00002 15.9988ZM2.21775 15.9828C2.2173 18.7035 3.02345 21.3633 4.53428 23.6259C6.04511 25.8885 8.19277 27.6523 10.7058 28.6942C13.2187 29.7361 15.9842 30.0094 18.6524 29.4796C21.3207 28.9497 23.772 27.6405 25.6964 25.7175C27.6208 23.7944 28.9318 21.3438 29.4638 18.6756C29.9958 16.0073 29.7249 13.2412 28.6852 10.727C27.6455 8.21279 25.8838 6.06332 23.6229 4.55037C21.3619 3.03742 18.7031 2.22893 15.9828 2.22711C14.173 2.22104 12.38 2.57314 10.7069 3.26314C9.0338 3.95314 7.51374 4.9674 6.23427 6.24749C4.9548 7.52759 3.9412 9.04822 3.25186 10.7218C2.56253 12.3954 2.21107 14.1888 2.21775 15.9988V15.9828Z" fill="#B0B0B0" stroke="#B0B0B0" stroke-width="0.25"/>
<path d="M12.375 22C11.9969 22 11.6731 21.8726 11.4036 21.6178C11.1341 21.363 10.9995 21.0571 11 20.7V10.3C11 9.9425 11.1348 9.63635 11.4043 9.38155C11.6738 9.12675 11.9973 8.99957 12.375 9H17.3078C17.4911 9 17.666 9.0325 17.8324 9.0975C17.9988 9.1625 18.1447 9.25458 18.2703 9.37375L21.6047 12.5263C21.7307 12.6454 21.8281 12.7837 21.8969 12.941C21.9656 13.0983 22 13.2634 22 13.4363V20.7C22 21.0575 21.8653 21.3636 21.5958 21.6184C21.3263 21.8732 21.0027 22.0004 20.625 22H12.375ZM17.1875 12.9C17.1875 13.0842 17.2535 13.2387 17.3855 13.3635C17.5175 13.4883 17.6807 13.5504 17.875 13.55H20.625L17.1875 10.3V12.9ZM15.7609 17.5312L14.7984 16.6212C14.7297 16.5562 14.6552 16.5075 14.575 16.475C14.4948 16.4425 14.4118 16.4262 14.3261 16.4262C14.24 16.4262 14.154 16.4425 14.0683 16.475C13.9826 16.5075 13.9051 16.5562 13.8359 16.6212C13.6984 16.7512 13.6297 16.9057 13.6297 17.0847C13.6297 17.2637 13.6984 17.4179 13.8359 17.5475L15.2969 18.945C15.3656 19.01 15.4401 19.0561 15.5203 19.0834C15.6005 19.1107 15.6865 19.1242 15.7781 19.1237C15.8698 19.1237 15.9557 19.1101 16.0359 19.0828C16.1161 19.0555 16.1906 19.0096 16.2594 18.945L19.1641 16.1987C19.3016 16.0687 19.3703 15.9117 19.3703 15.7275C19.3703 15.5433 19.3016 15.3862 19.1641 15.2562C19.0266 15.1262 18.8604 15.0612 18.6656 15.0612C18.4708 15.0612 18.3047 15.1262 18.1672 15.2562L15.7609 17.5312Z" fill="#B0B0B0"/>
</svg>
