<svg width="136" height="135" viewBox="0 0 136 135" fill="none" xmlns="http://www.w3.org/2000/svg">
<path d="M68.1001 135C105.379 135 135.6 104.779 135.6 67.5C135.6 30.2208 105.379 0 68.1001 0C30.8209 0 0.600098 30.2208 0.600098 67.5C0.600098 104.779 30.8209 135 68.1001 135Z" fill="#29CC97" fill-opacity="0.28"/>
<path fill-rule="evenodd" clip-rule="evenodd" d="M95.3998 41C88.6998 34.3 79.6998 30.6 70.1998 30.6C50.5998 30.6 34.5998 46.6 34.5998 66.2C34.5998 72.5 36.1998 78.6 39.3998 84L34.2998 102.5L53.1998 97.5C58.3998 100.3 64.2998 101.8 70.1998 101.8C89.7998 101.8 105.8 85.8 105.8 66.2C105.9 56.7 102.2 47.7 95.3998 41ZM70.1998 95.8C64.8998 95.8 59.6998 94.4 55.0998 91.7L53.9998 91.1L42.8998 94L45.8998 83.1L45.1998 82C42.1998 77.3 40.6998 71.8 40.6998 66.2C40.6998 49.9 53.9998 36.6 70.2998 36.6C78.1998 36.6 85.5998 39.7 91.1998 45.3C96.7998 50.9 99.8998 58.3 99.8998 66.2C99.7998 82.5 86.5998 95.8 70.1998 95.8ZM86.4998 73.6C85.5998 73.2 81.1998 71 80.3998 70.7C79.5998 70.4 78.9998 70.3 78.3998 71.1C77.7998 72 76.0998 74 75.5998 74.6C75.0998 75.2 74.5998 75.3 73.6998 74.8C72.7998 74.4 69.8998 73.4 66.4998 70.4C63.8998 68 62.0998 65.1 61.4998 64.2C60.9998 63.3 61.3998 62.8 61.8998 62.4C62.2998 62 62.7998 61.4 63.1998 60.8C63.5998 60.3 63.7998 59.9 64.0998 59.3C64.3998 58.7 64.1998 58.2 63.9998 57.7C63.7998 57.3 61.9998 52.9 61.2998 51.1C60.5998 49.4 59.7998 49.6 59.2998 49.6C58.7998 49.6 58.1998 49.6 57.5998 49.6C56.9998 49.6 55.9998 49.8 55.1998 50.7C54.3998 51.6 52.0998 53.7 52.0998 58.1C52.0998 62.5 55.2998 66.7 55.6998 67.3C56.0998 67.9 61.9998 76.9 70.8998 80.7C72.9998 81.6 74.6998 82.2 75.9998 82.6C78.0998 83.3 80.0998 83.2 81.5998 83C83.2998 82.7 86.8998 80.8 87.5998 78.8C88.2998 76.7 88.2998 74.9 88.0998 74.6C87.9998 74.3 87.3998 74.1 86.4998 73.6Z" fill="#00B97D"/>
</svg>
