<svg width="100" height="100" viewBox="0 0 100 100" fill="none" xmlns="http://www.w3.org/2000/svg">
<g clip-path="url(#clip0_19_639)">
<path d="M26.6212 43.9227C25.3027 45.7851 23.3503 47.1026 21.1298 47.6284C18.9094 48.1542 16.5734 47.852 14.5598 46.7787C12.5461 45.7053 10.9931 43.9344 10.1918 41.7978C9.39048 39.6613 9.3959 37.3059 10.207 35.1731C11.0182 33.0403 12.5793 31.2765 14.5979 30.2124C16.6164 29.1483 18.9537 28.857 21.1718 29.3929C23.3898 29.9289 25.3361 31.2554 26.6461 33.1238C27.956 34.9922 28.5395 37.2742 28.2873 39.5421L42.2948 44.8658C43.2623 43.4986 44.5801 42.4171 46.1097 41.7349C47.6919 41.0246 49.374 40.7884 50.9862 40.9689L56.3099 26.9613C54.4476 25.6428 53.13 23.6904 52.6043 21.4699C52.0785 19.2495 52.3807 16.9135 53.454 14.8999C54.5274 12.8862 56.2983 11.3332 58.4348 10.5319C60.5714 9.73057 62.9268 9.73599 65.0596 10.5471C67.1924 11.3583 68.9562 12.9194 70.0203 14.938C71.0844 16.9565 71.3757 19.2938 70.8398 21.5118C70.3038 23.7299 68.9773 25.6762 67.1089 26.9862C65.2405 28.2961 62.9585 28.8796 60.6906 28.6274L55.3669 42.6349C56.7368 43.6003 57.8217 44.9163 58.5081 46.4452C59.1944 47.974 59.4569 49.6593 59.268 51.3244L73.2756 56.6481C74.5941 54.7858 76.5466 53.4682 78.7671 52.9425C80.9875 52.4167 83.3235 52.7188 85.3371 53.7922C87.3507 54.8656 88.9038 56.6365 89.7051 58.773C90.5064 60.9095 90.501 63.265 89.6898 65.3978C88.8787 67.5306 87.3175 69.2943 85.299 70.3584C83.2805 71.4225 80.9431 71.7139 78.7251 71.1779C76.5071 70.642 74.5607 69.3155 73.2508 67.4471C71.9409 65.5787 71.3574 63.2967 71.6096 61.0288L57.602 55.7051C56.6356 57.0736 55.3185 58.1565 53.7891 58.8402C52.2618 59.5288 50.5774 59.7934 48.9125 59.6062L43.5888 73.6138C45.4512 74.9323 46.7687 76.8848 47.2945 79.1052C47.8203 81.3257 47.5181 83.6617 46.4448 85.6753C45.3714 87.6889 43.6005 89.2419 41.4639 90.0432C39.3274 90.8446 36.972 90.8391 34.8392 90.028C32.7064 89.2169 30.9426 87.6557 29.8785 85.6372C28.8144 83.6186 28.5231 81.2813 29.059 79.0633C29.595 76.8453 30.9215 74.8989 32.7899 73.589C34.6583 72.279 36.9403 71.6955 39.2082 71.9478L44.5319 57.9402C43.1634 56.9738 42.0804 55.6567 41.3968 54.1273C40.6864 52.545 40.4502 50.863 40.6307 49.2507L26.6232 43.927L26.6212 43.9227ZM23.2449 36.5854C22.7357 35.4512 21.7969 34.5658 20.6349 34.1239C19.4729 33.6819 18.1829 33.7197 17.0488 34.2289C15.9146 34.7381 15.0292 35.6769 14.5873 36.8389C14.1453 38.0009 14.1831 39.2909 14.6923 40.4251C15.2015 41.5592 16.1403 42.4446 17.3023 42.8866C18.4643 43.3285 19.7543 43.2907 20.8885 42.7815C22.0226 42.2724 22.908 41.3335 23.35 40.1715C23.7919 39.0095 23.7541 37.7195 23.2449 36.5854ZM42.4434 79.3485C41.9342 78.2144 40.9953 77.3289 39.8333 76.887C38.6713 76.4451 37.3813 76.4829 36.2472 76.992C35.113 77.5012 34.2276 78.4401 33.7857 79.6021C33.3438 80.7641 33.3816 82.054 33.8907 83.1882C34.3999 84.3223 35.3388 85.2078 36.5008 85.6497C37.6628 86.0916 38.9527 86.0538 40.0869 85.5447C41.221 85.0355 42.1065 84.0966 42.5484 82.9346C42.9903 81.7726 42.9525 80.4827 42.4434 79.3485ZM63.6516 23.5831C64.7857 23.0739 65.6712 22.1351 66.1131 20.9731C66.555 19.8111 66.5172 18.5211 66.0081 17.3869C65.4989 16.2528 64.56 15.3674 63.398 14.9254C62.236 14.4835 60.946 14.5213 59.8119 15.0305C58.6777 15.5396 57.7923 16.4785 57.3504 17.6405C56.9085 18.8025 56.9463 20.0925 57.4554 21.2266C57.9646 22.3608 58.9035 23.2462 60.0655 23.6881C61.2275 24.13 62.5174 24.0923 63.6516 23.5831ZM85.2065 60.1501C84.6973 59.0159 83.7585 58.1305 82.5965 57.6886C81.4344 57.2466 80.1445 57.2844 79.0103 57.7936C77.8762 58.3028 76.9908 59.2416 76.5488 60.4036C76.1069 61.5656 76.1447 62.8556 76.6539 63.9898C77.163 65.1239 78.1019 66.0093 79.2639 66.4513C80.4259 66.8932 81.7159 66.8554 82.85 66.3462C83.9842 65.8371 84.8696 64.8982 85.3115 63.7362C85.7534 62.5742 85.7157 61.2842 85.2065 60.1501ZM54.2257 48.3677C53.7165 47.2336 52.7777 46.3481 51.6157 45.9062C50.4537 45.4643 49.1637 45.5021 48.0295 46.0113C46.8954 46.5204 46.01 47.4593 45.568 48.6213C45.1261 49.7833 45.1639 51.0733 45.6731 52.2074C46.1823 53.3416 47.1211 54.227 48.2831 54.6689C49.4451 55.1108 50.7351 55.0731 51.8692 54.5639C53.0034 54.0547 53.8888 53.1158 54.3307 51.9538C54.7727 50.7918 54.7349 49.5019 54.2257 48.3677Z" fill="#95A6BD" fill-opacity="0.2"/>
</g>
<defs>
<clipPath id="clip0_19_639">
<rect width="75" height="75" fill="white" transform="translate(0.380127 31.4358) rotate(-24.1776)"/>
</clipPath>
</defs>
</svg>
