<svg width="40" height="40" viewBox="0 0 40 40" fill="none" xmlns="http://www.w3.org/2000/svg">
<circle cx="20" cy="20" r="20" fill="#0692E3"/>
<g clip-path="url(#clip0_259_1964)">
<path d="M26.4017 20.6089H25.0096C25.1515 20.9974 25.2291 21.4166 25.2291 21.8536V27.1147C25.2291 27.2969 25.1973 27.4717 25.1397 27.6344H27.441C28.3007 27.6344 29.0001 26.935 29.0001 26.0753V23.2073C29.0001 21.7745 27.8345 20.6089 26.4017 20.6089Z" fill="white"/>
<path d="M14.771 21.8536C14.771 21.4166 14.8486 20.9974 14.9905 20.6089H13.5984C12.1656 20.6089 11 21.7745 11 23.2073V26.0754C11 26.935 11.6994 27.6344 12.559 27.6344H14.8604C14.8028 27.4717 14.771 27.2969 14.771 27.1147V21.8536Z" fill="white"/>
<path d="M21.5911 19.2552H18.4087C16.9759 19.2552 15.8103 20.4209 15.8103 21.8537V27.1148C15.8103 27.4018 16.043 27.6345 16.33 27.6345H23.6698C23.9569 27.6345 24.1895 27.4018 24.1895 27.1148V21.8537C24.1895 20.4209 23.0239 19.2552 21.5911 19.2552Z" fill="white"/>
<path d="M20 12.3655C18.2769 12.3655 16.8751 13.7673 16.8751 15.4904C16.8751 16.6592 17.5202 17.68 18.4729 18.2159C18.9247 18.4701 19.4457 18.6153 20 18.6153C20.5544 18.6153 21.0753 18.4701 21.5272 18.2159C22.4799 17.68 23.1249 16.6592 23.1249 15.4904C23.1249 13.7673 21.7231 12.3655 20 12.3655Z" fill="white"/>
<path d="M14.5127 15.2782C13.224 15.2782 12.1757 16.3266 12.1757 17.6152C12.1757 18.9039 13.224 19.9522 14.5127 19.9522C14.8396 19.9522 15.1508 19.8845 15.4336 19.7628C15.9225 19.5523 16.3256 19.1797 16.575 18.713C16.7501 18.3855 16.8497 18.0118 16.8497 17.6152C16.8497 16.3266 15.8013 15.2782 14.5127 15.2782Z" fill="white"/>
<path d="M25.4874 15.2782C24.1988 15.2782 23.1504 16.3266 23.1504 17.6152C23.1504 18.0118 23.25 18.3855 23.4251 18.713C23.6745 19.1798 24.0776 19.5524 24.5665 19.7628C24.8492 19.8845 25.1605 19.9522 25.4874 19.9522C26.7761 19.9522 27.8244 18.9039 27.8244 17.6152C27.8244 16.3266 26.7761 15.2782 25.4874 15.2782Z" fill="white"/>
</g>
<defs>
<clipPath id="clip0_259_1964">
<rect width="18" height="18" fill="white" transform="translate(11 11)"/>
</clipPath>
</defs>
</svg>
