<svg width="50" height="50" viewBox="0 0 50 50" fill="none" xmlns="http://www.w3.org/2000/svg">
<path fill-rule="evenodd" clip-rule="evenodd" d="M25 50C38.8071 50 50 38.8071 50 25C50 11.1929 38.8071 0 25 0C11.1929 0 0 11.1929 0 25C0 38.8071 11.1929 50 25 50Z" fill="#F9B54C"/>
<path d="M28.8904 33.6553L33.1891 36.7742C33.499 36.9992 33.9263 36.9657 34.1973 36.6954L36.7728 34.126C37.012 33.8853 37.069 33.5178 36.9137 33.2161C34.9383 29.3247 30.1271 26.5781 24.4999 26.5781C18.8728 26.5781 14.0616 29.3247 12.0861 33.2161C11.9298 33.5181 11.9864 33.8865 12.2262 34.1277L14.8016 36.6954C15.0727 36.9657 15.5 36.9992 15.8098 36.7742L20.1085 33.6553C20.2619 33.544 20.3692 33.3804 20.4103 33.1954L20.9275 30.8574C21.005 30.5172 21.2665 30.249 21.6047 30.163C23.5025 29.6791 25.4913 29.6791 27.3891 30.163C27.7273 30.2489 27.9888 30.5172 28.0659 30.8574L28.5831 33.1954C28.6256 33.3812 28.735 33.5449 28.8904 33.6553Z" fill="white"/>
<path d="M33.0163 14.1373L26.9818 14.8076C26.8171 14.8255 26.6772 14.9363 26.6221 15.0926C26.5669 15.2489 26.6062 15.4229 26.7232 15.5403L28.4905 17.3076L24.4452 21.3528L17.6361 15.2981C17.1733 14.8729 16.4755 14.8313 15.9655 15.1985C15.6553 15.4317 15.4662 15.792 15.4505 16.1797C15.4348 16.5675 15.5941 16.9418 15.8844 17.1994L23.643 24.0959C24.1548 24.5507 24.9322 24.5278 25.4163 24.0438L30.3215 19.1364L32.0887 20.9037C32.2061 21.0207 32.3802 21.06 32.5364 21.0048C32.6927 20.9497 32.8035 20.8098 32.8215 20.6451L33.4918 14.6106C33.5053 14.481 33.4595 14.3522 33.3671 14.2603C33.2748 14.1684 33.1458 14.1232 33.0163 14.1373Z" fill="white"/>
</svg>
