<svg width="50" height="50" viewBox="0 0 50 50" fill="none" xmlns="http://www.w3.org/2000/svg">
<path fill-rule="evenodd" clip-rule="evenodd" d="M25 50C38.8071 50 50 38.8071 50 25C50 11.1929 38.8071 0 25 0C11.1929 0 0 11.1929 0 25C0 38.8071 11.1929 50 25 50Z" fill="#EE2F2F"/>
<path d="M41 35.0298C40.8131 35.2827 40.5503 35.3319 40.2405 35.3319C30.4124 35.3273 20.5844 35.3281 10.7563 35.3281C10.1351 35.3281 10.0008 35.1966 10.0008 34.5971C10 28.1978 10 21.7993 10 15.4009C10 14.8005 10.1343 14.6699 10.7555 14.6699C20.5836 14.6699 30.4116 14.6706 40.2396 14.666C40.5494 14.666 40.8123 14.7152 40.9992 14.9681C41 21.6548 41 28.3423 41 35.0298ZM11.0524 15.6707C11.0524 21.9054 11.0524 28.114 11.0524 34.3157C20.7016 34.3157 30.3299 34.3157 39.9525 34.3157C39.9525 28.0887 39.9525 21.8862 39.9525 15.6707C30.3145 15.6707 20.6936 15.6707 11.0524 15.6707Z" fill="white"/>
<path d="M29.6479 33.3613C26.7828 33.3613 23.9169 33.3613 21.0518 33.3613C20.4897 33.3613 20.3279 33.2129 20.3279 32.6802C20.3263 27.56 20.3263 22.4391 20.3279 17.319C20.3279 16.787 20.4905 16.6387 21.0534 16.6387C26.7739 16.6387 32.4952 16.6387 38.2157 16.6387C38.7763 16.6387 38.9389 16.7916 38.9389 17.3197C38.9389 22.4399 38.9389 27.5608 38.9389 32.681C38.9389 33.2083 38.7763 33.3613 38.2149 33.3613C35.3587 33.3613 32.5033 33.3613 29.6479 33.3613ZM21.398 17.6272C21.398 22.5583 21.398 27.4609 21.398 32.3612C26.905 32.3612 32.3893 32.3612 37.8768 32.3612C37.8768 27.4401 37.8768 22.5367 37.8768 17.6272C32.3755 17.6272 26.8977 17.6272 21.398 17.6272Z" fill="white"/>
<path d="M12.7234 22.4991C12.4387 21.5444 12.6571 20.8403 13.3778 20.3676C13.893 20.0293 14.8031 19.8556 15.6767 20.5705C16.4378 19.9924 17.2572 19.8602 18.0718 20.4452C18.7966 20.9656 18.93 21.682 18.6412 22.4814C19.2746 22.6797 19.3118 22.7297 19.3118 23.3792C19.3118 25.1556 19.3126 26.9321 19.3118 28.7085C19.3118 29.265 19.1363 29.4333 18.5579 29.4333C16.632 29.4341 14.7052 29.4341 12.7792 29.4333C12.2332 29.4333 12.0617 29.2665 12.0609 28.7392C12.0601 26.9144 12.0609 25.0903 12.0609 23.2655C12.0601 22.7266 12.1531 22.6167 12.7234 22.4991ZM13.1125 28.4171C13.4522 28.4171 13.7774 28.4171 14.0993 28.4171C14.0993 26.7806 14.0993 25.1649 14.0993 23.5553C13.7588 23.5553 13.4417 23.5553 13.1125 23.5553C13.1125 25.1849 13.1125 26.7914 13.1125 28.4171ZM16.1596 28.4248C16.1596 26.7776 16.1596 25.1626 16.1596 23.5506C15.8239 23.5506 15.5149 23.5506 15.1954 23.5506C15.1954 25.1833 15.1954 26.7975 15.1954 28.4248C15.5278 28.4248 15.8352 28.4248 16.1596 28.4248ZM17.2702 23.5506C17.2702 25.1833 17.2702 26.7983 17.2702 28.421C17.6034 28.421 17.9116 28.421 18.2287 28.421C18.2287 26.7868 18.2287 25.1702 18.2287 23.5506C17.8963 23.5506 17.5881 23.5506 17.2702 23.5506ZM16.2194 22.5245C16.5082 22.5245 16.7687 22.5345 17.0283 22.5222C17.415 22.5029 17.7498 22.1586 17.7482 21.7988C17.7466 21.4414 17.4012 21.0955 17.0259 21.0747C16.6158 21.0517 16.2534 21.3399 16.2235 21.7343C16.2041 21.981 16.2194 22.2308 16.2194 22.5245ZM15.1493 22.5222C15.1493 22.2308 15.1654 21.9726 15.1452 21.7166C15.1169 21.3484 14.7432 21.0571 14.3525 21.074C13.978 21.0901 13.6463 21.4037 13.6277 21.7596C13.6083 22.1317 13.9117 22.4906 14.2975 22.5191C14.5669 22.5383 14.8386 22.5222 15.1493 22.5222Z" fill="white"/>
<path d="M35.8423 24.2376C36.2767 24.4928 36.593 24.8241 36.7499 25.2668C37.0177 26.0209 36.8413 26.6943 36.2614 27.2538C35.0149 28.4576 33.7546 29.649 32.4968 30.8413C31.6596 31.6345 30.1655 31.6422 29.2919 30.3393C29.2078 30.4631 29.1496 30.5753 29.0654 30.6668C28.2161 31.5961 26.8572 31.6584 25.9407 30.706C25.4319 31.1964 24.8268 31.4854 24.0819 31.3747C23.5884 31.3009 23.1735 31.0788 22.8523 30.7044C22.1106 29.8404 22.2724 28.9695 23.4202 27.7366C22.7779 27.3323 22.4026 26.785 22.4042 26.027C22.4058 25.2699 22.9001 24.7802 23.4323 24.2929C23.0076 24.0385 22.6914 23.7218 22.5328 23.2913C22.2481 22.5196 22.4212 21.8324 23.0165 21.2528C23.7356 20.5525 24.4725 19.8684 25.1981 19.1735C26.024 18.3825 27.5245 18.3295 28.3908 19.604C28.5178 19.4733 28.6327 19.3449 28.7589 19.2265C29.7506 18.2988 31.0901 18.4087 31.9079 19.4825C31.9305 19.5125 31.9605 19.5386 32.0365 19.6186C32.1675 19.471 32.2784 19.3226 32.4135 19.1973C33.1366 18.5263 34.1574 18.4148 34.9275 18.9145C35.7623 19.4572 36.0357 20.3527 35.6547 21.2705C35.6248 21.3419 35.6231 21.4649 35.6684 21.518C36.5372 22.5349 36.5833 23.143 35.8423 24.2376ZM34.8498 20.5141C34.7795 20.0513 34.4842 19.7116 34.0409 19.6201C33.6794 19.5455 33.3874 19.6701 33.1374 19.9053C32.792 20.2289 32.4547 20.5594 32.1093 20.8823C31.9419 21.0383 31.7518 21.1298 31.5083 21.0352C31.2705 20.943 31.1815 20.7685 31.1783 20.5364C31.1734 20.1213 30.9825 19.8084 30.5732 19.657C30.1607 19.504 29.8064 19.6293 29.5031 19.923C29.1779 20.2381 28.8495 20.5502 28.5186 20.86C28.3463 21.0214 28.1538 21.1375 27.8958 21.036C27.6345 20.933 27.5593 20.7385 27.556 20.4833C27.552 20.1036 27.3554 19.8207 26.989 19.6701C26.621 19.5186 26.2651 19.5763 25.9811 19.8415C25.2167 20.5533 24.4612 21.2735 23.7114 21.9999C23.4339 22.269 23.3547 22.6026 23.5116 22.9562C23.6661 23.3028 23.95 23.4996 24.3553 23.5073C24.6149 23.5127 24.839 23.578 24.9466 23.8248C25.0622 24.0892 24.9223 24.2844 24.7346 24.4635C24.3852 24.7964 24.0301 25.1238 23.692 25.4674C23.4186 25.7449 23.3579 26.0808 23.5229 26.4275C23.6806 26.7596 23.9678 26.9495 24.3545 26.9564C24.619 26.961 24.8365 27.0163 24.9474 27.2638C25.0671 27.529 24.9263 27.722 24.7379 27.9011C24.3876 28.2331 24.0285 28.5575 23.6952 28.905C23.3312 29.2839 23.3555 29.8059 23.7235 30.1479C24.0899 30.4877 24.6392 30.4915 25.0323 30.1479C25.2256 29.9788 25.4044 29.7959 25.5912 29.6206C25.9989 29.2378 26.3581 29.3016 26.5999 29.7982C26.9356 30.4854 27.6418 30.6061 28.2153 30.0703C28.5607 29.7474 28.8972 29.4154 29.245 29.0948C29.4157 28.938 29.6203 28.8658 29.8533 28.9734C30.0652 29.071 30.1631 29.2363 30.1583 29.4607C30.1502 29.8674 30.3386 30.1694 30.7285 30.3293C31.1346 30.4954 31.497 30.3916 31.8044 30.0995C33.0387 28.925 34.2715 27.7489 35.5075 26.5751C35.81 26.2876 35.9014 25.9502 35.755 25.5743C35.6045 25.1907 35.2802 25.0108 34.8595 25.0062C34.5983 25.0039 34.4017 24.9163 34.3071 24.6865C34.2173 24.4659 34.3063 24.2737 34.4745 24.1123C34.6662 23.9278 34.8676 23.7518 35.0472 23.558C35.5107 23.0569 35.3392 22.3743 34.6929 22.1175C34.1445 21.9 34.0879 21.5833 34.4794 21.1436C34.6403 20.9622 34.7293 20.7255 34.8498 20.5141Z" fill="white"/>
<path d="M27.0464 25.9994C27.1103 26.2416 27.226 26.4322 27.5188 26.4522C27.8003 26.4722 28.0195 26.3108 28.0543 26.0586C28.0923 25.7804 27.9338 25.5644 27.6474 25.5152C27.4889 25.4875 27.3231 25.4867 27.1694 25.4445C26.5926 25.2838 26.2011 24.9287 26.0636 24.3691C25.9212 23.7895 26.0766 23.2614 26.5773 22.9001C26.8798 22.6818 27.1629 22.5089 27.0213 22.0723C27.391 22.0723 27.7178 22.0723 28.0494 22.0723C28.0583 22.0823 28.0834 22.0984 28.0818 22.1107C28.0389 22.4528 28.1546 22.6718 28.4984 22.8602C28.9198 23.0908 29.0929 23.5166 29.1212 24.0016C28.7783 24.0016 28.4482 24.0016 28.2517 24.0016C27.9823 23.8095 27.8165 23.6227 27.6094 23.5612C27.3489 23.4836 27.1103 23.6903 27.0723 23.9402C27.031 24.2115 27.1961 24.4336 27.4832 24.4844C27.6418 24.5128 27.8076 24.512 27.9613 24.5551C28.5857 24.7327 28.9829 25.1247 29.0929 25.7419C29.194 26.31 29.0064 26.8104 28.5105 27.1294C28.1934 27.3331 27.9928 27.5245 28.1166 27.925C27.7453 27.925 27.4104 27.925 27.0327 27.925C27.1661 27.4976 26.896 27.3016 26.5676 27.0925C26.2011 26.8604 26.0482 26.4706 26.0329 26.0002C26.3597 25.9994 26.6881 25.9994 27.0464 25.9994Z" fill="white"/>
<path d="M32.2074 27.9333C31.8709 27.9333 31.5522 27.9333 31.2318 27.9333C31.2197 27.9195 31.1946 27.9041 31.1962 27.8918C31.2391 27.549 31.1202 27.3345 30.778 27.1462C30.3615 26.9171 30.1609 26.5036 30.1592 26.0032C30.4941 26.0032 30.8209 26.0032 31.1704 26.0032C31.2456 26.2322 31.3621 26.4513 31.6848 26.4559C31.9566 26.4598 32.1702 26.2853 32.2017 26.0285C32.23 25.8033 32.0537 25.5681 31.8094 25.5197C31.6225 25.4828 31.4244 25.482 31.2448 25.4259C30.6486 25.2399 30.2684 24.8471 30.173 24.256C30.0735 23.6433 30.2943 23.1175 30.8573 22.7978C31.1259 22.6448 31.2262 22.4888 31.1857 22.2151C31.1793 22.1705 31.193 22.1236 31.1987 22.0645C31.5336 22.0645 31.8531 22.0645 32.1718 22.0645C32.1847 22.0798 32.209 22.0967 32.2066 22.1098C32.158 22.4542 32.2818 22.6671 32.6231 22.8547C33.0421 23.0845 33.2298 23.5034 33.2468 24.0177C32.9378 24.0177 32.6393 24.0261 32.3424 24.0107C32.2818 24.0077 32.2057 23.9231 32.1718 23.8593C32.0334 23.5987 31.8361 23.4896 31.5643 23.5588C31.3184 23.6218 31.1995 23.7947 31.193 24.0269C31.1857 24.2698 31.3823 24.4627 31.6743 24.4904C32.4403 24.5627 32.9912 24.8878 33.195 25.6311C33.3641 26.2461 33.1036 26.9148 32.5204 27.2184C32.2607 27.3537 32.1766 27.5005 32.2163 27.7542C32.2252 27.8057 32.2122 27.8626 32.2074 27.9333Z" fill="white"/>
</svg>
