<svg width="28" height="28" viewBox="0 0 28 28" fill="none" xmlns="http://www.w3.org/2000/svg">
<circle cx="14" cy="14" r="14" fill="#B0E2FF"/>
<path d="M21.0001 7.66057C20.8888 8.00941 20.7721 8.35689 20.6665 8.70753C19.4272 12.8243 18.1896 16.9414 16.9507 21.0586C16.8168 21.5047 16.4597 21.6249 16.0911 21.3476C14.6565 20.2682 13.2225 19.1875 11.7884 18.1072C11.736 18.0676 11.6824 18.0298 11.6181 17.9825C11.477 18.2648 11.3413 18.5335 11.2077 18.8031C10.7358 19.7537 10.2647 20.7048 9.79186 21.6555C9.66544 21.9098 9.47515 22.0273 9.25558 21.9949C8.98766 21.9548 8.81644 21.7554 8.81555 21.4718C8.81378 20.8205 8.81511 20.1692 8.81511 19.5179C8.81511 18.3836 8.812 17.2498 8.8191 16.1155C8.81999 15.9768 8.77297 15.9242 8.65187 15.8774C7.22445 15.3224 5.79969 14.7602 4.37315 14.2034C4.16378 14.1215 4.0245 13.9873 4.00277 13.7555C3.97926 13.5044 4.10612 13.3185 4.36428 13.2181C5.23014 12.8814 6.09644 12.5465 6.9623 12.2112C11.3856 10.4972 15.8085 8.78315 20.2314 7.06867C20.592 6.92869 20.7632 6.99215 21.0001 7.35719C21.0001 7.45847 21.0001 7.55929 21.0001 7.66057ZM16.1793 20.1476C17.2501 16.5854 18.3143 13.0439 19.3788 9.50198C19.3677 9.49658 19.3567 9.49163 19.3456 9.48622C16.964 12.0357 14.5825 14.5851 12.1916 17.1444C13.5214 18.1464 14.8424 19.1407 16.1793 20.1476ZM5.91014 13.7065C5.97002 13.7339 6.00861 13.7542 6.04898 13.7699C7.07275 14.1714 8.09696 14.5702 9.11851 14.9767C9.22586 15.0195 9.29284 14.988 9.37268 14.9299C11.6731 13.2663 13.9739 11.6036 16.2747 9.94084C16.4761 9.795 16.677 9.64827 16.878 9.50198C16.8718 9.48938 16.866 9.47722 16.8598 9.46462C13.2171 10.8762 9.57362 12.2873 5.91014 13.7065ZM9.81005 19.2816C9.82025 19.2838 9.83089 19.2865 9.8411 19.2888C9.86594 19.2406 9.89166 19.1929 9.91606 19.1443C10.2572 18.4592 10.5956 17.7728 10.9407 17.09C10.9953 16.9819 11.0658 16.8771 11.1474 16.7893C12.8805 14.9294 14.6166 13.0723 16.3519 11.2142C16.39 11.1732 16.4251 11.1291 16.4614 11.0868C15.9784 11.4033 15.5157 11.7377 15.0527 12.0721C13.3507 13.3018 11.6482 14.5311 9.948 15.7639C9.889 15.8067 9.81581 15.8855 9.81537 15.9485C9.80783 17.0594 9.81005 18.1702 9.81005 19.2816Z" fill="#0692E3"/>
</svg>
