<svg width="29" height="28" viewBox="0 0 29 28" fill="none" xmlns="http://www.w3.org/2000/svg">
<path fill-rule="evenodd" clip-rule="evenodd" d="M14.5625 28C22.2945 28 28.5625 21.732 28.5625 14C28.5625 6.26801 22.2945 0 14.5625 0C6.83051 0 0.5625 6.26801 0.5625 14C0.5625 21.732 6.83051 28 14.5625 28Z" fill="#C2C2C2"/>
<circle cx="14.5625" cy="14" r="6" fill="white"/>
<path d="M14.5938 12.5625C13.8183 12.5625 13.1875 13.1933 13.1875 13.9688C13.1875 14.7442 13.8183 15.375 14.5938 15.375C15.3692 15.375 16 14.7442 16 13.9688C16 13.1933 15.3692 12.5625 14.5938 12.5625Z" fill="#C2C2C2"/>
<path d="M14.5312 6C10.1372 6 6.5625 9.57469 6.5625 13.9688C6.5625 18.3628 10.1372 22 14.5312 22C18.9253 22 22.5625 18.3628 22.5625 13.9688C22.5625 9.57469 18.9253 6 14.5312 6ZM17.875 16.3125C17.2415 16.3125 16.6827 15.995 16.3432 15.5126C15.9134 15.9991 15.2923 16.3125 14.5938 16.3125C13.3015 16.3125 12.25 15.261 12.25 13.9688C12.25 12.6765 13.3015 11.625 14.5938 11.625C15.1234 11.625 15.6071 11.8083 16 12.1057V12.0938C16 11.8347 16.2097 11.625 16.4688 11.625C16.7278 11.625 16.9375 11.8347 16.9375 12.0938C16.9375 13.1363 16.9375 13.3945 16.9375 14.4375C16.9375 14.9543 17.3582 15.375 17.875 15.375C18.3918 15.375 18.8125 14.9543 18.8125 14.4375C18.8125 11.3003 16.7365 9.75 14.5938 9.75C12.2674 9.75 10.375 11.6424 10.375 13.9688C10.375 16.2951 12.2674 18.1875 14.5938 18.1875C15.5312 18.1875 16.4179 17.8872 17.1582 17.3187C17.6526 16.9412 18.2188 17.6863 17.7294 18.0621C16.8235 18.7574 15.7395 19.125 14.5938 19.125C11.7506 19.125 9.4375 16.8119 9.4375 13.9688C9.4375 11.1256 11.7506 8.8125 14.5938 8.8125C17.1843 8.8125 19.75 10.723 19.75 14.4375C19.75 15.4716 18.9091 16.3125 17.875 16.3125Z" fill="#C2C2C2"/>
</svg>
