<svg width="29" height="28" viewBox="0 0 29 28" fill="none" xmlns="http://www.w3.org/2000/svg">
<path fill-rule="evenodd" clip-rule="evenodd" d="M14.8125 28C22.5445 28 28.8125 21.732 28.8125 14C28.8125 6.26801 22.5445 0 14.8125 0C7.08051 0 0.8125 6.26801 0.8125 14C0.8125 21.732 7.08051 28 14.8125 28Z" fill="#C2C2C2"/>
<circle cx="13.8125" cy="14" r="7" fill="white"/>
<path d="M19.5461 8.90906C16.6014 5.96522 11.8277 5.96592 8.88386 8.91068C5.94001 11.8554 5.94071 16.6291 8.88547 19.5729C11.8302 22.5168 16.6039 22.5161 19.5477 19.5713C20.9615 18.1571 21.7556 16.2391 21.7551 14.2394C21.7547 12.24 20.9601 10.3226 19.5461 8.90906ZM18.0945 17.2039L18.0935 17.2049V17.2024L17.7115 17.5818C17.2175 18.0821 16.498 18.2879 15.8141 18.1247C15.1251 17.9402 14.4701 17.6467 13.874 17.2551C13.3201 16.9012 12.8069 16.4874 12.3435 16.0212C11.9171 15.598 11.5341 15.1332 11.2 14.6339C10.8346 14.0967 10.5454 13.5115 10.3405 12.8949C10.1057 12.1705 10.3003 11.3757 10.8432 10.8417L11.2905 10.3943C11.4149 10.2694 11.617 10.269 11.7419 10.3933L11.7429 10.3943L13.1552 11.8067C13.2801 11.9311 13.2806 12.1332 13.1562 12.2581L13.1552 12.2591L12.3259 13.0884C12.0879 13.3238 12.058 13.6978 12.2555 13.968C12.5555 14.3796 12.8874 14.767 13.2482 15.1265C13.6505 15.5305 14.0878 15.8981 14.555 16.2248C14.825 16.4131 15.191 16.3813 15.4246 16.1494L16.2262 15.3351C16.3506 15.2102 16.5527 15.2098 16.6776 15.3341L16.6786 15.3351L18.0935 16.7525C18.2184 16.8769 18.2189 17.0789 18.0945 17.2039Z" fill="#C2C2C2"/>
</svg>
