<svg width="29" height="28" viewBox="0 0 29 28" fill="none" xmlns="http://www.w3.org/2000/svg">
<path fill-rule="evenodd" clip-rule="evenodd" d="M14.4375 28C22.1695 28 28.4375 21.732 28.4375 14C28.4375 6.26801 22.1695 0 14.4375 0C6.70551 0 0.4375 6.26801 0.4375 14C0.4375 21.732 6.70551 28 14.4375 28Z" fill="#C2C2C2"/>
<path fill-rule="evenodd" clip-rule="evenodd" d="M15.2028 18.9001V14.4901H16.6309L16.8642 12.5301H15.2028V11.5755C15.2028 11.0708 15.2165 10.5701 15.9688 10.5701H16.7307V9.16867C16.7307 9.1476 16.0762 9.10007 15.4141 9.10007C14.0313 9.10007 13.1655 9.912 13.1655 11.4031V12.5301H11.6375V14.4901H13.1655V18.9001H15.2028Z" fill="white"/>
</svg>
