<svg width="120" height="26" viewBox="0 0 120 26" fill="none" xmlns="http://www.w3.org/2000/svg">
<g clip-path="url(#clip0_73_417)">
<path d="M12.1105 20.4554C6.66511 21.5869 1.34349 18.104 0.211983 12.6586C-0.919523 7.23089 2.56339 1.90927 8.00877 0.777768C11.4917 0.0528966 14.9392 1.21976 17.2553 3.60653L10.0243 10.6608L6.55903 7.10713L5.30376 7.24857L5.14464 8.52151L9.97122 13.4719L18.4929 5.16235C19.147 6.1701 19.6244 7.31929 19.8896 8.55687C21.0211 14.0022 17.5382 19.3239 12.1105 20.4554Z" fill="#E41E26"/>
</g>
<g clip-path="url(#clip1_73_417)">
<path d="M33.0717 10.2605H36.0495V16.1604C35.2859 16.7523 34.4079 17.2061 33.3962 17.5219C32.3845 17.8376 31.3919 17.9954 30.3612 17.9954C28.9104 17.9954 27.5933 17.6797 26.429 17.0286C25.2837 16.3971 24.3674 15.4895 23.6993 14.3647C23.0312 13.2203 22.7067 11.918 22.7067 10.4973C22.7067 9.05685 23.0312 7.77428 23.6993 6.62983C24.3674 5.48537 25.2837 4.59744 26.4671 3.94628C27.6315 3.29513 28.9677 2.97942 30.4375 2.97942C31.6592 2.97942 32.7854 3.19647 33.778 3.63057C34.7896 4.06467 35.6295 4.67636 36.2976 5.5051L34.217 7.4783C33.2053 6.39304 32.0027 5.84055 30.5902 5.84055C29.6931 5.84055 28.8913 6.03787 28.2042 6.41277C27.517 6.80741 26.9634 7.34018 26.5817 8.05053C26.1999 8.76088 26.009 9.56988 26.009 10.4776C26.009 11.3852 26.1999 12.1745 26.5817 12.8849C26.9634 13.5952 27.517 14.1477 28.2042 14.5423C28.8913 14.937 29.674 15.1343 30.5711 15.1343C31.5065 15.1343 32.3463 14.9172 33.0908 14.5029V10.2605H33.0717Z" fill="#231916"/>
<path d="M49.9267 15.0554V17.7586H39.0463V3.23593H49.6595V5.93921H42.2723V9.09632H48.8005V11.7009H42.2723V15.0554H49.9267Z" fill="#231916"/>
<path d="M55.4241 5.95894H50.9384V3.23593H63.174V5.97867H58.6883V17.7586H55.4432V5.95894H55.4241Z" fill="#231916"/>
<path d="M64.9301 3.23593H68.1752V15.0159H75.2188V17.7586H64.9301V3.23593Z" fill="#E41E26"/>
<path d="M87.9125 15.0554V17.7586H77.0322V3.23593H87.6453V5.93921H80.2581V9.09632H86.7863V11.7009H80.2581V15.0554H87.9125Z" fill="#E41E26"/>
<path d="M99.7664 14.641H93.2382L91.9974 17.7389H88.657L94.9179 3.2162H98.1248L104.405 17.7389H100.988L99.7664 14.641ZM98.7356 12.0758L96.5023 6.53117L94.288 12.0758H98.7356Z" fill="#E41E26"/>
<path d="M105.875 3.23593H112.25C113.777 3.23593 115.113 3.53191 116.297 4.1436C117.461 4.75529 118.377 5.58403 119.026 6.68902C119.676 7.77428 120 9.05685 120 10.4973C120 11.9377 119.676 13.2203 119.026 14.3056C118.377 15.3908 117.461 16.2393 116.297 16.851C115.132 17.4627 113.777 17.7586 112.25 17.7586H105.875V3.23593ZM112.097 14.9962C113.51 14.9962 114.617 14.6015 115.457 13.7925C116.297 12.9835 116.717 11.8785 116.717 10.4973C116.717 9.11605 116.297 8.01106 115.457 7.20205C114.617 6.39304 113.51 5.9984 112.097 5.9984H109.12V14.9962H112.097Z" fill="#E41E26"/>
</g>
<defs>
<clipPath id="clip0_73_417">
<rect width="20.1019" height="20.1019" fill="white" transform="translate(0 0.565796)"/>
</clipPath>
<clipPath id="clip1_73_417">
<rect width="97.2933" height="22.5141" fill="white" transform="translate(22.7067 2.97942)"/>
</clipPath>
</defs>
</svg>
