<svg width="29" height="28" viewBox="0 0 29 28" fill="none" xmlns="http://www.w3.org/2000/svg">
<path fill-rule="evenodd" clip-rule="evenodd" d="M14.9204 28C22.6524 28 28.9204 21.732 28.9204 14C28.9204 6.26801 22.6524 0 14.9204 0C7.18839 0 0.92038 6.26801 0.92038 14C0.92038 21.732 7.18839 28 14.9204 28Z" fill="#C2C2C2"/>
<mask id="mask0_72_384" style="mask-type:alpha" maskUnits="userSpaceOnUse" x="10" y="9" width="10" height="10">
<path fill-rule="evenodd" clip-rule="evenodd" d="M10.7204 9.80009H19.8204V18.9001H10.7204V9.80009Z" fill="white"/>
</mask>
<g mask="url(#mask0_72_384)">
<path fill-rule="evenodd" clip-rule="evenodd" d="M18.2452 11.9213C18.2452 12.2228 18.0007 12.4673 17.6992 12.4673C17.3976 12.4673 17.1531 12.2228 17.1531 11.9213C17.1531 11.6197 17.3976 11.3753 17.6992 11.3753C18.0007 11.3753 18.2452 11.6197 18.2452 11.9213ZM15.2704 15.8668C14.4327 15.8668 13.7537 15.1877 13.7537 14.3501C13.7537 13.5125 14.4327 12.8334 15.2704 12.8334C16.108 12.8334 16.787 13.5125 16.787 14.3501C16.787 15.1877 16.108 15.8668 15.2704 15.8668ZM15.2704 12.0136C13.98 12.0136 12.9339 13.0597 12.9339 14.3501C12.9339 15.6405 13.98 16.6866 15.2704 16.6866C16.5608 16.6866 17.6069 15.6405 17.6069 14.3501C17.6069 13.0597 16.5608 12.0136 15.2704 12.0136ZM15.2704 9.80009C14.0346 9.80009 13.8797 9.80532 13.3944 9.82747C12.9101 9.84958 12.5794 9.92646 12.2899 10.039C11.9907 10.1552 11.737 10.3108 11.484 10.5638C11.2311 10.8167 11.0755 11.0704 10.9592 11.3697C10.8468 11.6591 10.7698 11.9898 10.7477 12.4741C10.7256 12.9594 10.7204 13.1144 10.7204 14.3501C10.7204 15.5858 10.7256 15.7408 10.7477 16.226C10.7698 16.7103 10.8468 17.0411 10.9592 17.3305C11.0755 17.6297 11.2311 17.8835 11.484 18.1364C11.737 18.3894 11.9907 18.5449 12.2899 18.6612C12.5794 18.7737 12.9101 18.8506 13.3944 18.8727C13.8797 18.8949 14.0346 18.9001 15.2704 18.9001C16.5061 18.9001 16.6611 18.8949 17.1463 18.8727C17.6306 18.8506 17.9614 18.7737 18.2508 18.6612C18.55 18.5449 18.8038 18.3894 19.0567 18.1364C19.3096 17.8835 19.4652 17.6297 19.5815 17.3305C19.694 17.0411 19.7709 16.7103 19.793 16.226C19.8151 15.7408 19.8204 15.5858 19.8204 14.3501C19.8204 13.1144 19.8151 12.9594 19.793 12.4741C19.7709 11.9898 19.694 11.6591 19.5815 11.3697C19.4652 11.0704 19.3096 10.8167 19.0567 10.5638C18.8038 10.3108 18.55 10.1552 18.2508 10.039C17.9614 9.92646 17.6306 9.84958 17.1463 9.82747C16.6611 9.80532 16.5061 9.80009 15.2704 9.80009ZM15.2704 10.6199C16.4853 10.6199 16.6292 10.6245 17.109 10.6464C17.5526 10.6667 17.7935 10.7408 17.9539 10.8031C18.1662 10.8856 18.3178 10.9843 18.477 11.1434C18.6362 11.3027 18.7348 11.4543 18.8174 11.6666C18.8797 11.827 18.9538 12.0679 18.974 12.5115C18.9959 12.9913 19.0006 13.1352 19.0006 14.3501C19.0006 15.565 18.9959 15.7089 18.974 16.1886C18.9538 16.6323 18.8797 16.8732 18.8174 17.0336C18.7348 17.2459 18.6362 17.3975 18.477 17.5567C18.3178 17.7159 18.1662 17.8146 17.9539 17.8971C17.7935 17.9594 17.5526 18.0335 17.109 18.0538C16.6293 18.0756 16.4854 18.0802 15.2704 18.0802C14.0554 18.0802 13.9115 18.0756 13.4318 18.0538C12.9882 18.0335 12.7473 17.9594 12.5869 17.8971C12.3745 17.8146 12.2229 17.7159 12.0637 17.5567C11.9045 17.3975 11.8059 17.2459 11.7234 17.0336C11.6611 16.8732 11.587 16.6323 11.5667 16.1887C11.5448 15.7089 11.5402 15.565 11.5402 14.3501C11.5402 13.1352 11.5448 12.9913 11.5667 12.5115C11.587 12.0679 11.6611 11.827 11.7234 11.6666C11.8059 11.4543 11.9045 11.3027 12.0637 11.1434C12.2229 10.9843 12.3745 10.8856 12.5869 10.8031C12.7473 10.7408 12.9882 10.6667 13.4318 10.6464C13.9116 10.6245 14.0555 10.6199 15.2704 10.6199Z" fill="white"/>
</g>
</svg>
