<svg width="29" height="29" viewBox="0 0 29 29" fill="none" xmlns="http://www.w3.org/2000/svg">
<path fill-rule="evenodd" clip-rule="evenodd" d="M14.0856 28.4065C21.8176 28.4065 28.0856 22.1385 28.0856 14.4065C28.0856 6.67451 21.8176 0.406494 14.0856 0.406494C6.35358 0.406494 0.0855713 6.67451 0.0855713 14.4065C0.0855713 22.1385 6.35358 28.4065 14.0856 28.4065Z" fill="#C2C2C2"/>
<path d="M11.1854 9.73548C11.1852 10.0137 11.0746 10.2804 10.8778 10.477C10.681 10.6736 10.4141 10.784 10.1359 10.7839C9.85773 10.7837 9.59099 10.6731 9.39437 10.4763C9.19776 10.2795 9.08739 10.0126 9.08752 9.73443C9.08766 9.45624 9.19831 9.1895 9.39512 8.99288C9.59192 8.79627 9.85878 8.6859 10.137 8.68604C10.4152 8.68617 10.6819 8.79682 10.8785 8.99363C11.0751 9.19043 11.1855 9.45729 11.1854 9.73548ZM11.2168 11.5606H9.11899V18.1268H11.2168V11.5606ZM14.5314 11.5606H12.4441V18.1268H14.5104V14.6811C14.5104 12.7616 17.0121 12.5833 17.0121 14.6811V18.1268H19.0837V13.9679C19.0837 10.7319 15.381 10.8526 14.5104 12.4417L14.5314 11.5606Z" fill="white"/>
</svg>
