<svg width="29" height="28" viewBox="0 0 29 28" fill="none" xmlns="http://www.w3.org/2000/svg">
<path fill-rule="evenodd" clip-rule="evenodd" d="M14.816 28C22.548 28 28.816 21.732 28.816 14C28.816 6.26801 22.548 0 14.816 0C7.08402 0 0.81601 6.26801 0.81601 14C0.81601 21.732 7.08402 28 14.816 28Z" fill="#C2C2C2"/>
<path fill-rule="evenodd" clip-rule="evenodd" d="M13.478 18.2C16.9119 18.2 18.7901 15.2373 18.7901 12.6683C18.7901 12.584 18.7901 12.5001 18.7847 12.4167C19.15 12.1419 19.4653 11.8008 19.716 11.4103C19.3757 11.5676 19.014 11.6709 18.6441 11.7164C19.0335 11.4733 19.3252 11.0915 19.4649 10.6409C19.0982 10.8673 18.6973 11.027 18.2792 11.1128C17.5721 10.33 16.3895 10.2921 15.6374 11.0284C15.1528 11.5032 14.9467 12.2111 15.0973 12.8863C13.5963 12.8076 12.1976 12.0694 11.2494 10.855C10.7539 11.7434 11.0073 12.8796 11.8277 13.4501C11.5306 13.4411 11.2398 13.3577 10.98 13.207V13.2317C10.9805 14.157 11.607 14.954 12.4779 15.1373C12.2031 15.2155 11.9146 15.2269 11.6352 15.1705C11.8796 15.9627 12.5807 16.5052 13.3793 16.5209C12.7181 17.062 11.9014 17.3557 11.0606 17.3548C10.9122 17.3543 10.7639 17.3453 10.616 17.3268C11.4701 17.8973 12.4633 18.2 13.478 18.1986" fill="white"/>
</svg>
