<svg xmlns="http://www.w3.org/2000/svg" xmlns:xlink="http://www.w3.org/1999/xlink" viewBox="0 0 300 300"><defs><style>.cls-1{isolation:isolate;}.cls-2{fill:#fff;}.cls-3{fill:url(#linear-gradient);}.cls-4{fill:#ffe143;mix-blend-mode:multiply;opacity:0.4;}.cls-5{fill:#fff599;}.cls-6{fill:#231f20;}.cls-7{fill:#e4003c;}.cls-8{fill:#52c1dd;}</style><linearGradient id="linear-gradient" x1="150.09" y1="58.26" x2="150.09" y2="199.01" gradientUnits="userSpaceOnUse"><stop offset="0" stop-color="#fff046"/><stop offset="1" stop-color="#ffd300"/></linearGradient></defs><g class="cls-1"><g id="Layer_2" data-name="Layer 2"><g id="Layer_1-2" data-name="Layer 1"><rect class="cls-2" width="300" height="300"/><path class="cls-3" d="M235.91,130a85.82,85.82,0,1,1-85.82-85.82A85.81,85.81,0,0,1,235.91,130Z"/><path class="cls-4" d="M150.09,44.19a85.79,85.79,0,0,0-12,.85c41.73,5.82,83.37,21.59,81.69,85.48-1.43,54.84-38,79.23-81.69,84.46a87.35,87.35,0,0,0,12,.84,85.82,85.82,0,1,0,0-171.63Z"/><path class="cls-5" d="M134.92,49.54c2.17-.65-54.47,19.27-65.19,83.31C69.73,132.85,70,68.94,134.92,49.54Z"/><path class="cls-6" d="M126.89,174.68s28.6-10.09,48-1.68c0,0-8.11-29.33-26.29-28.49S126.89,174.68,126.89,174.68Z"/><path class="cls-7" d="M127.68,174.42c4.56-1.49,29.62-9,47.16-1.42l-.17-.56C170.43,166.18,161.3,160,151.28,160A27.07,27.07,0,0,0,127.68,174.42Z"/><path class="cls-8" d="M181.18,107.85V210a86,86,0,0,0,18.54-10V107.85S192.47,109.94,181.18,107.85Z"/><path class="cls-8" d="M101.48,107.85v92.88A85.54,85.54,0,0,0,120,210.4V107.85C108.73,109.94,101.48,107.85,101.48,107.85Z"/><path class="cls-6" d="M128.28,110.63H91.61a3.37,3.37,0,0,1,0-6.73h36.67a3.37,3.37,0,1,1,0,6.73Z"/><path class="cls-6" d="M208.46,110.63H171.8a3.37,3.37,0,1,1,0-6.73h36.66a3.37,3.37,0,1,1,0,6.73Z"/><path d="M53.89,241.34V228H56v13.3Zm1.78-6.21v-1.35h3a1.86,1.86,0,0,0,1.5-.55,2.34,2.34,0,0,0,0-2.84,1.86,1.86,0,0,0-1.5-.55h-3V228h2.72a5.12,5.12,0,0,1,3.31.92,3.26,3.26,0,0,1,1.12,2.66v.25a2.81,2.81,0,0,1-2.13,3,8.07,8.07,0,0,1-2.3.3Zm0,6.21v-1.8h3.48a2,2,0,1,0,0-4H55.67v-1.37h3.26a7.6,7.6,0,0,1,2.29.31,3.15,3.15,0,0,1,1.56,1,3,3,0,0,1,.58,2v.25a3.72,3.72,0,0,1-.5,2,3.14,3.14,0,0,1-1.47,1.25,6.32,6.32,0,0,1-2.46.42Z"/><path d="M70.14,241.59a5.13,5.13,0,0,1-2.19-.43A4.27,4.27,0,0,1,66.42,240a4.88,4.88,0,0,1-.89-1.61,5.65,5.65,0,0,1-.3-1.82v-.35a5.72,5.72,0,0,1,.3-1.84,4.84,4.84,0,0,1,.89-1.6,4.3,4.3,0,0,1,1.5-1.14,5,5,0,0,1,2.12-.42,4.73,4.73,0,0,1,2.61.68,4.39,4.39,0,0,1,1.56,1.78,5.32,5.32,0,0,1,.52,2.35v.84h-8.6v-1.42h7.18l-.57.72a4.27,4.27,0,0,0-.31-1.68,2.34,2.34,0,0,0-.9-1.1A2.66,2.66,0,0,0,70,233a2.69,2.69,0,0,0-1.57.44,2.57,2.57,0,0,0-.94,1.18,4.84,4.84,0,0,0-.3,1.78,4.74,4.74,0,0,0,.3,1.74,2.68,2.68,0,0,0,1,1.21,3.33,3.33,0,0,0,3.31,0,1.77,1.77,0,0,0,.79-1h2a3.78,3.78,0,0,1-.8,1.73,3.92,3.92,0,0,1-1.52,1.13A5.13,5.13,0,0,1,70.14,241.59Z"/><path d="M75.67,233.13v-1.57h6.77v1.57ZM81,241.38a5.5,5.5,0,0,1-2-.33,2.33,2.33,0,0,1-1.25-1.12,4.44,4.44,0,0,1-.43-2.14v-9h2V238a1.56,1.56,0,0,0,.41,1.16,1.54,1.54,0,0,0,1.14.41h1.62v1.84Z"/><path d="M83.39,233.13v-1.57h6.77v1.57Zm5.31,8.25a5.5,5.5,0,0,1-2-.33,2.36,2.36,0,0,1-1.25-1.12,4.44,4.44,0,0,1-.43-2.14v-9h2V238a1.56,1.56,0,0,0,.41,1.16,1.54,1.54,0,0,0,1.14.41h1.62v1.84Z"/><path d="M96.62,241.59a5.13,5.13,0,0,1-2.19-.43A4.27,4.27,0,0,1,92.9,240a4.91,4.91,0,0,1-.9-1.61,5.92,5.92,0,0,1-.29-1.82v-.35A6,6,0,0,1,92,234.4a4.86,4.86,0,0,1,.9-1.6,4.21,4.21,0,0,1,1.5-1.14,5,5,0,0,1,2.11-.42,4.69,4.69,0,0,1,2.61.68,4.34,4.34,0,0,1,1.57,1.78,5.32,5.32,0,0,1,.52,2.35v.84h-8.6v-1.42h7.18l-.58.72a4.27,4.27,0,0,0-.3-1.68,2.47,2.47,0,0,0-.9-1.1,3,3,0,0,0-3.06.05,2.57,2.57,0,0,0-.94,1.18,4.84,4.84,0,0,0-.3,1.78,4.74,4.74,0,0,0,.3,1.74,2.62,2.62,0,0,0,1,1.21,2.89,2.89,0,0,0,1.65.44,2.93,2.93,0,0,0,1.66-.44,1.81,1.81,0,0,0,.79-1h2a3.85,3.85,0,0,1-2.32,2.86A5.13,5.13,0,0,1,96.62,241.59Z"/><path d="M103.48,241.27v-9.71h1.67v4.05h-.07a4.59,4.59,0,0,1,.92-3.12,3.44,3.44,0,0,1,2.72-1h.34v1.85h-.65a2.54,2.54,0,0,0-2.82,2.81v5.15Z"/><path d="M113.76,229.75v-1.62h3.4v1.62ZM115,241.27V228.13h2.12v13.14Z"/><path d="M123.58,241.55a3.2,3.2,0,0,1-2.62-1.1,5,5,0,0,1-.92-3.27v-5.62h2.11v5.91a2.21,2.21,0,0,0,.55,1.59,2,2,0,0,0,1.51.59,2.19,2.19,0,0,0,1.6-.62,2.35,2.35,0,0,0,.62-1.71v-5.76h2.11v9.71h-1.68v-4.14h.22a6.67,6.67,0,0,1-.39,2.44,3.18,3.18,0,0,1-1.13,1.48,3.29,3.29,0,0,1-1.89.5Z"/><path d="M135.88,241.59a5.22,5.22,0,0,1-2.17-.42,4.23,4.23,0,0,1-1.53-1.15,5.17,5.17,0,0,1-.9-1.62,5.68,5.68,0,0,1-.3-1.81v-.33a5.47,5.47,0,0,1,.31-1.84,4.78,4.78,0,0,1,.92-1.61,4.5,4.5,0,0,1,1.52-1.15,5,5,0,0,1,2.13-.42,5.1,5.1,0,0,1,2.22.47,3.93,3.93,0,0,1,1.58,1.32,3.82,3.82,0,0,1,.67,2h-2a2.14,2.14,0,0,0-.73-1.37,2.45,2.45,0,0,0-1.7-.56,2.63,2.63,0,0,0-1.55.44,2.58,2.58,0,0,0-.91,1.18,4.35,4.35,0,0,0-.31,1.71,4.6,4.6,0,0,0,.3,1.7,2.46,2.46,0,0,0,.91,1.18,2.7,2.7,0,0,0,1.58.44,2.94,2.94,0,0,0,1.27-.26,2.28,2.28,0,0,0,.85-.71,1.89,1.89,0,0,0,.38-1h2.05a3.69,3.69,0,0,1-.66,2,4.07,4.07,0,0,1-1.62,1.33A5.21,5.21,0,0,1,135.88,241.59Z"/><path d="M142.61,241.27V228.13h2.11v13.14Zm6.73,0-3.45-4.52h-1.52l4.27-5.19h2.23L147,236.28l.09-1.08,4.71,6.07Z"/><path d="M157.32,241.27v-9.71H159v4.16h-.2a6.65,6.65,0,0,1,.39-2.43,3,3,0,0,1,1.18-1.5,3.55,3.55,0,0,1,2-.51h.09a3.17,3.17,0,0,1,2.68,1.13,5.31,5.31,0,0,1,.88,3.31v5.55h-2.1v-5.84a2.25,2.25,0,0,0-.58-1.62,2,2,0,0,0-1.58-.63,2.25,2.25,0,0,0-1.66.64,2.33,2.33,0,0,0-.63,1.7v5.75Z"/><path d="M173.14,241.59a5.2,5.2,0,0,1-2.2-.43,4.45,4.45,0,0,1-1.53-1.14,5.07,5.07,0,0,1-.89-1.61,5.65,5.65,0,0,1-.3-1.82v-.35a5.72,5.72,0,0,1,.3-1.84,5,5,0,0,1,.89-1.6,4.34,4.34,0,0,1,1.51-1.14,5,5,0,0,1,2.11-.42,4.73,4.73,0,0,1,2.61.68,4.34,4.34,0,0,1,1.57,1.78,5.46,5.46,0,0,1,.52,2.35v.84h-8.61v-1.42h7.19l-.58.72a4.1,4.1,0,0,0-.31-1.68,2.34,2.34,0,0,0-.9-1.1A2.64,2.64,0,0,0,173,233a2.71,2.71,0,0,0-1.57.44,2.49,2.49,0,0,0-.93,1.18,4.64,4.64,0,0,0-.31,1.78,4.54,4.54,0,0,0,.31,1.74,2.6,2.6,0,0,0,.95,1.21,2.93,2.93,0,0,0,1.66.44,2.89,2.89,0,0,0,1.65-.44,1.79,1.79,0,0,0,.8-1h2a3.89,3.89,0,0,1-.8,1.73,4,4,0,0,1-1.52,1.13A5.16,5.16,0,0,1,173.14,241.59Z"/><path d="M178.83,241.27l3.31-5.13-.07.37-3.1-4.95h2.3l2.15,3.53h.27l2-3.53h2.16l-2.93,4.88,0-.34,3.48,5.17h-2.31l-2.52-3.8h-.25l-2.39,3.8Z"/><path d="M188.89,233.13v-1.57h6.77v1.57Zm5.31,8.25a5.55,5.55,0,0,1-2-.33,2.36,2.36,0,0,1-1.25-1.12,4.57,4.57,0,0,1-.42-2.14v-9h2V238a1.41,1.41,0,0,0,1.55,1.57h1.62v1.84Z"/><path d="M200.61,233.13v-1.57h6.76v1.57Zm5.31,8.25a5.52,5.52,0,0,1-2-.33,2.36,2.36,0,0,1-1.25-1.12,4.57,4.57,0,0,1-.42-2.14v-9h2V238a1.41,1.41,0,0,0,1.54,1.57h1.62v1.84Z"/><path d="M208.71,233.18v-1.62h3.52v1.62Zm2.1-3a1.24,1.24,0,0,1-1-.34,1.36,1.36,0,0,1,0-1.75,1.2,1.2,0,0,1,1-.35,1.16,1.16,0,0,1,1.3,1.22,1.25,1.25,0,0,1-.32.88A1.27,1.27,0,0,1,210.81,230.21Zm-.68,11.06v-9.71h2.1v9.71Z"/><path d="M215.37,241.27v-9.71H217v4.18h-.2a6.9,6.9,0,0,1,.37-2.43,2.94,2.94,0,0,1,3-2h.09a3.18,3.18,0,0,1,1.88.52,3.12,3.12,0,0,1,1.12,1.51,7.14,7.14,0,0,1,.37,2.43h-.58a6.89,6.89,0,0,1,.38-2.43,3.14,3.14,0,0,1,1.13-1.51,3.19,3.19,0,0,1,1.87-.52h.09a3.22,3.22,0,0,1,1.89.52,3.1,3.1,0,0,1,1.14,1.51,6.89,6.89,0,0,1,.38,2.43v5.53h-2.11v-5.84a2.4,2.4,0,0,0-.53-1.65,1.88,1.88,0,0,0-1.47-.6,2,2,0,0,0-1.55.63,2.42,2.42,0,0,0-.57,1.71v5.75h-2.13v-5.84a2.4,2.4,0,0,0-.52-1.65,1.83,1.83,0,0,0-1.46-.6,2,2,0,0,0-1.55.63,2.38,2.38,0,0,0-.59,1.71v5.75Z"/><path d="M237.11,241.59a5.2,5.2,0,0,1-2.2-.43,4.45,4.45,0,0,1-1.53-1.14,5.07,5.07,0,0,1-.89-1.61,5.64,5.64,0,0,1-.29-1.82v-.35a5.71,5.71,0,0,1,.29-1.84,5,5,0,0,1,.89-1.6,4.34,4.34,0,0,1,1.51-1.14,5,5,0,0,1,2.11-.42,4.71,4.71,0,0,1,2.61.68,4.34,4.34,0,0,1,1.57,1.78,5.32,5.32,0,0,1,.52,2.35v.84h-8.61v-1.42h7.19l-.58.72a4.27,4.27,0,0,0-.3-1.68,2.47,2.47,0,0,0-.9-1.1,3,3,0,0,0-3.07.05,2.49,2.49,0,0,0-.93,1.18,4.64,4.64,0,0,0-.31,1.78,4.54,4.54,0,0,0,.31,1.74,2.6,2.6,0,0,0,.95,1.21,2.93,2.93,0,0,0,1.66.44,2.89,2.89,0,0,0,1.65-.44,1.79,1.79,0,0,0,.8-1h2a3.85,3.85,0,0,1-2.32,2.86A5.16,5.16,0,0,1,237.11,241.59Z"/><path d="M243.89,241.27v-2.43h2.53v2.43Zm.19-4.11v-9h2.16v9Z"/></g></g></g></svg>