<svg width="358" height="315" viewBox="0 0 358 315" fill="none" xmlns="http://www.w3.org/2000/svg">
<g clip-path="url(#clip0_119_1742)">
<path d="M12.3873 293.332C12.3873 293.332 -38.9921 114.784 68.1841 139.703C175.36 164.621 60.805 91.0619 156.093 97.8882C251.381 104.715 289.051 35.8112 293.926 0.0415955" stroke="#FF61D6" stroke-opacity="0.1" stroke-width="0.17" stroke-miterlimit="10"/>
<path d="M12.3873 293.332C12.3873 293.332 3.91835 263.599 1.68881 231.03C-1.21459 190.763 4.0681 144.517 43.6924 139.428C51.1797 138.447 59.7818 138.854 69.7565 141.091C176.109 164.838 62.1611 91.303 157.225 98.3704C252.438 105.488 290.174 36.9668 293.926 0.0498657" stroke="#FF61D6" stroke-opacity="0.1" stroke-width="0.17" stroke-miterlimit="10"/>
<path d="M12.3873 293.332C12.3873 293.332 4.0681 263.258 2.40426 231.388C0.299499 191.893 5.88168 146.462 45.3812 141.108C54.0568 140.044 62.8514 140.5 71.3704 142.455C176.891 165.029 63.5753 91.5774 158.406 98.8361C253.536 106.219 291.355 38.1393 294.009 0.0415955" stroke="#FF61D6" stroke-opacity="0.1" stroke-width="0.17" stroke-miterlimit="10"/>
<path d="M12.3873 293.332C12.3873 293.332 4.118 262.925 3.01987 231.754C1.65552 193.033 7.57047 148.35 46.9619 142.787C55.6012 141.637 64.3745 141.992 72.8928 143.835C177.573 165.237 64.8897 91.8518 159.496 99.3183C254.542 106.951 292.428 39.27 293.926 0.0415955" stroke="#FF61D6" stroke-opacity="0.1" stroke-width="0.17" stroke-miterlimit="10"/>
<path d="M12.3873 293.332C12.3873 293.332 4.20118 262.568 3.69371 232.12C3.06977 194.18 9.32581 150.237 48.6174 144.467C57.2149 143.233 65.9606 143.483 74.4734 145.207C178.314 165.436 66.2707 92.1345 160.644 99.7923C255.591 107.691 293.576 40.4258 293.926 0.0415955" stroke="#FF61D6" stroke-opacity="0.1" stroke-width="0.17" stroke-miterlimit="10"/>
<path d="M12.3873 293.332C12.3873 293.332 4.25111 262.269 4.34262 232.486C4.45909 195.319 11.0479 152.116 50.2396 146.146C58.7986 144.83 67.5191 144.976 76.0291 146.579C179.012 165.644 67.6184 92.4089 161.758 100.275C256.647 108.415 294.683 41.5732 293.926 0.0415955" stroke="#FF61D6" stroke-opacity="0.1" stroke-width="0.17" stroke-miterlimit="10"/>
<path d="M12.3873 293.332C12.3873 293.332 4.326 261.944 5.00817 232.851C5.84009 196.475 12.7866 153.995 51.8785 147.826C60.3965 146.423 69.0902 146.468 77.5932 147.959C179.728 165.844 68.9578 92.7248 162.89 100.748C257.729 109.146 295.806 42.7289 293.926 0.0415955" stroke="#FF61D6" stroke-opacity="0.1" stroke-width="0.17" stroke-miterlimit="10"/>
<path d="M12.3873 293.332C12.3873 293.332 4.40087 261.628 5.6737 233.242C7.27099 197.647 14.5253 155.916 53.5174 149.53C61.998 148.052 70.6655 147.993 79.1655 149.356C180.435 166.068 70.3471 92.9909 164.021 101.256C258.744 109.903 296.929 43.8847 293.917 0.0665283" stroke="#FF61D6" stroke-opacity="0.1" stroke-width="0.17" stroke-miterlimit="10"/>
<path d="M12.3873 293.332C12.3873 293.332 4.47572 261.304 6.33922 233.583C8.67692 198.778 16.264 157.754 55.1563 151.185C63.5967 149.624 72.2369 149.464 80.7295 150.711C181.134 166.251 71.7115 93.2403 165.161 101.705C259.8 110.61 298.06 45.0404 293.926 0.0415955" stroke="#FF61D6" stroke-opacity="0.1" stroke-width="0.17" stroke-miterlimit="10"/>
<path d="M12.3873 293.332C12.3873 293.332 4.56724 260.988 7.0214 233.949C10.1078 199.942 18.0194 159.633 56.8118 152.865C64.4904 151.526 72.9178 150.728 82.3184 152.083C181.841 166.459 73.0841 93.523 166.342 102.195C260.907 111.341 299.233 46.2127 293.975 0.058197" stroke="#FF61D6" stroke-opacity="0.1" stroke-width="0.17" stroke-miterlimit="10"/>
<path d="M12.3873 293.332C12.3873 293.332 4.62548 260.68 7.6703 234.315C11.4971 201.106 19.7415 161.503 58.4174 154.544C66.121 153.156 74.5151 152.208 83.8492 153.463C182.498 166.659 74.4402 93.5979 167.407 102.661C261.963 111.848 300.315 47.3436 293.926 0.0415955" stroke="#FF61D6" stroke-opacity="0.1" stroke-width="0.17" stroke-miterlimit="10"/>
<path d="M12.3873 293.332C12.3873 293.332 4.70035 260.373 8.33584 234.681C12.9114 202.254 21.4718 163.374 60.0729 156.224C67.8015 154.785 76.1706 153.729 85.4382 154.835C183.197 166.866 75.8212 93.8556 168.564 103.135C262.986 112.588 301.438 48.4993 293.926 0.0332642" stroke="#FF61D6" stroke-opacity="0.1" stroke-width="0.17" stroke-miterlimit="10"/>
<path d="M12.3873 293.332C12.3873 293.332 4.79185 260.073 9.00969 235.046C14.3423 203.451 23.2355 165.245 61.7284 157.903C69.4902 156.423 77.8178 155.176 87.0188 156.24C183.879 167.116 77.2021 94.1466 169.712 103.65C264.051 113.337 302.586 49.6883 293.942 0.0748291" stroke="#FF61D6" stroke-opacity="0.1" stroke-width="0.17" stroke-miterlimit="10"/>
<path d="M12.3873 293.332C12.3873 293.332 4.90002 259.782 9.67524 235.412C15.7566 204.648 24.9742 167.116 63.3673 159.583C71.1541 158.053 79.4483 156.664 88.5911 157.587C184.545 167.29 78.6081 94.396 170.843 104.091C265.108 114.019 303.709 50.8108 293.967 0.0415955" stroke="#FF61D6" stroke-opacity="0.1" stroke-width="0.17" stroke-miterlimit="10"/>
<path d="M12.3873 293.332C12.3873 293.332 4.9 259.491 10.3241 235.737C17.1459 205.804 26.6963 168.953 64.9896 161.229C72.8013 159.649 81.0706 158.111 90.1385 158.926C185.185 167.473 79.9142 94.6039 171.958 104.532C266.123 114.734 304.815 51.9831 293.926 0.0415955" stroke="#FF61D6" stroke-opacity="0.1" stroke-width="0.17" stroke-miterlimit="10"/>
<path d="M12.3873 293.332C12.3873 293.332 5.01648 259.242 11.0063 236.136C18.5768 207.034 28.4766 170.849 66.6451 162.967C74.4901 161.304 82.7178 159.641 91.7275 160.364C185.859 167.748 81.2952 94.9282 173.106 105.072C267.221 115.474 305.963 53.1389 293.942 0.0665283" stroke="#FF61D6" stroke-opacity="0.1" stroke-width="0.17" stroke-miterlimit="10"/>
<path d="M12.3873 293.332C12.3873 293.332 5.08304 258.926 11.6718 236.501C19.991 208.232 30.1904 172.72 68.284 164.621C76.1539 162.959 84.34 161.113 93.2915 161.711C186.466 167.947 82.6679 95.1943 174.246 105.521C268.253 116.164 307.087 54.2697 293.942 0.0415955" stroke="#FF61D6" stroke-opacity="0.1" stroke-width="0.17" stroke-miterlimit="10"/>
<path d="M12.3873 293.332C12.3873 293.332 5.15791 258.652 12.3374 236.867C21.3887 209.429 31.9291 174.582 69.9145 166.301C77.8178 164.58 85.9706 162.601 94.8721 163.092C187.09 168.172 84.0156 95.4271 175.36 106.028C269.317 116.904 308.201 55.4503 293.926 0.0665283" stroke="#FF61D6" stroke-opacity="0.1" stroke-width="0.17" stroke-miterlimit="10"/>
<path d="M12.3873 293.332C12.3873 293.332 5.22446 258.411 13.0029 237.233C22.7863 210.626 33.6678 176.445 71.5534 167.981C79.4816 166.21 87.6011 164.081 96.4278 164.464C187.764 168.405 85.3966 95.6931 176.508 106.477C270.382 117.594 309.341 56.5894 293.942 0.0498657" stroke="#FF61D6" stroke-opacity="0.1" stroke-width="0.17" stroke-miterlimit="10"/>
<path d="M12.3873 293.332C12.3873 293.332 5.28268 258.128 13.6684 237.624C24.1839 211.849 35.4065 178.332 73.1923 169.685C81.1538 167.864 89.2234 165.594 98.0001 165.86C188.38 168.662 86.7609 96.0175 177.64 106.984C271.439 118.334 310.464 57.7535 293.942 0.0665283" stroke="#FF61D6" stroke-opacity="0.1" stroke-width="0.17" stroke-miterlimit="10"/>
<path d="M12.3873 293.332C12.3873 293.332 5.34094 257.87 14.334 237.965C25.5566 213.071 37.1286 180.162 74.7813 171.34C82.7677 169.469 90.8041 167.049 99.5143 167.182C188.946 168.845 88.0754 96.1837 178.73 107.4C272.445 118.999 311.546 58.851 293.892 0.00830078" stroke="#FF61D6" stroke-opacity="0.1" stroke-width="0.17" stroke-miterlimit="10"/>
<path d="M12.3873 293.332C12.3873 293.332 5.39085 257.621 14.9912 238.331C26.9376 214.31 38.8673 182.024 76.4451 173.019C84.4565 171.099 92.4513 168.538 101.112 168.588C189.57 169.128 89.4647 96.483 179.886 107.891C273.535 119.747 312.71 60.04 293.926 0.0415955" stroke="#FF61D6" stroke-opacity="0.1" stroke-width="0.17" stroke-miterlimit="10"/>
<path d="M12.3873 293.332C12.3873 293.332 5.41578 257.355 15.6401 238.697C28.3102 215.54 40.5977 183.878 78.0923 174.674C86.137 172.703 94.0818 170.001 102.684 169.943C190.177 169.361 90.8456 96.7242 181.026 108.365C274.592 120.438 313.833 61.1708 293.926 0.0166321" stroke="#FF61D6" stroke-opacity="0.1" stroke-width="0.17" stroke-miterlimit="10"/>
<path d="M12.3873 293.332C12.3873 293.332 5.4574 257.138 16.3056 239.062C29.6746 216.787 42.3364 185.732 79.7728 176.378C87.8424 174.358 95.7457 171.506 104.298 171.34C190.817 169.677 92.2516 97.0151 182.199 108.864C275.69 121.186 314.998 62.3432 293.967 0.0415955" stroke="#FF61D6" stroke-opacity="0.1" stroke-width="0.17" stroke-miterlimit="10"/>
<path d="M12.3873 293.332C12.3873 293.332 5.5073 256.906 16.9878 239.428C31.0472 218.026 44.1001 187.586 81.3867 178.058C89.4813 175.988 97.3429 172.994 105.837 172.72C191.358 169.918 93.591 97.2812 183.314 109.346C276.721 121.901 316.096 63.4989 293.959 0.0415955" stroke="#FF61D6" stroke-opacity="0.1" stroke-width="0.17" stroke-miterlimit="10"/>
<path d="M12.3873 293.332C12.3873 293.332 5.52395 256.673 17.6533 239.786C32.3534 219.274 45.8221 189.441 83.0089 179.737C91.1285 177.617 98.9485 174.483 107.393 174.092C191.916 170.192 94.9137 97.5473 184.428 109.82C277.77 122.658 317.211 64.6546 293.926 0.0415955" stroke="#FF61D6" stroke-opacity="0.1" stroke-width="0.17" stroke-miterlimit="10"/>
<path d="M12.3873 293.332C12.3873 293.332 5.5406 256.44 18.3189 240.118C33.7177 220.488 47.5775 191.253 84.6645 181.384C92.8173 179.214 100.579 175.938 108.973 175.43C192.49 170.442 96.3197 97.7801 185.576 110.26C278.826 123.314 318.351 65.7771 293.942 0.00830078" stroke="#FF61D6" stroke-opacity="0.1" stroke-width="0.17" stroke-miterlimit="10"/>
<path d="M12.3873 293.332C12.3873 293.332 5.54059 256.215 18.9844 240.517C35.0405 221.768 49.3162 193.124 86.3034 183.097C94.4811 180.877 102.201 177.459 110.545 176.844C193.047 170.774 97.6923 98.0795 186.708 110.776C279.883 124.079 319.482 66.9661 293.942 0.0415955" stroke="#FF61D6" stroke-opacity="0.1" stroke-width="0.17" stroke-miterlimit="10"/>
<path d="M12.3873 293.332C12.3873 293.332 5.53225 255.983 19.6499 240.883C36.3299 223.015 51.0383 194.995 87.9256 184.776C96.1283 182.506 103.799 178.956 112.093 178.216C193.621 171.082 99.04 98.3455 187.798 111.25C280.889 124.786 320.555 68.1135 293.892 0.0415955" stroke="#FF61D6" stroke-opacity="0.1" stroke-width="0.17" stroke-miterlimit="10"/>
<path d="M12.3873 293.332C12.3873 293.332 5.52393 255.75 20.3155 241.249C37.636 224.262 52.7603 196.832 89.5811 186.456C97.8171 184.128 105.388 180.436 113.707 179.596C194.162 171.406 100.446 98.6116 189.004 111.732C282.021 125.509 321.753 69.2693 293.967 0.0415955" stroke="#FF61D6" stroke-opacity="0.1" stroke-width="0.17" stroke-miterlimit="10"/>
<path d="M12.3873 293.332C12.3873 293.332 5.48236 255.517 20.9561 241.615C38.9089 225.501 54.5157 198.678 91.1951 188.135C99.4643 185.757 107.002 181.924 115.229 180.968C194.653 171.73 101.769 98.886 190.102 112.206C283.044 126.233 322.851 70.425 293.934 0.0415955" stroke="#FF61D6" stroke-opacity="0.1" stroke-width="0.17" stroke-miterlimit="10"/>
<path d="M12.3873 293.332C12.3873 293.332 5.44907 255.276 21.6216 241.981C40.1817 226.732 56.2544 200.524 92.8339 189.815C101.153 187.387 108.64 183.413 116.802 182.332C195.177 172.071 103.133 99.152 191.25 112.68C284.117 126.94 323.991 71.5724 293.951 0.0332642" stroke="#FF61D6" stroke-opacity="0.1" stroke-width="0.17" stroke-miterlimit="10"/>
<path d="M12.3873 293.332C12.3873 293.332 5.39917 255.035 22.2871 242.388C41.4213 227.996 57.9848 202.403 94.4728 191.536C102.792 189.042 110.279 184.942 118.366 183.762C195.734 172.47 104.506 99.4597 192.356 113.204C285.149 127.646 325.098 72.7697 293.926 0.0415955" stroke="#FF61D6" stroke-opacity="0.1" stroke-width="0.17" stroke-miterlimit="10"/>
<path d="M12.3873 293.332C12.3873 293.332 5.35756 254.785 22.9527 242.713C42.6941 229.168 59.7235 204.207 96.1117 193.174C104.431 190.68 111.868 186.398 119.938 185.092C196.242 172.795 105.87 99.6925 193.496 113.636C286.205 128.395 326.221 73.8839 293.926 0.0415955" stroke="#FF61D6" stroke-opacity="0.1" stroke-width="0.17" stroke-miterlimit="10"/>
<path d="M12.3873 293.332C12.3873 293.332 5.31598 254.519 23.6348 243.078C43.9586 230.374 61.4789 206.045 97.7672 194.854C106.145 192.268 113.49 187.886 121.519 186.472C196.732 173.169 107.251 100 194.644 114.135C287.27 129.101 327.36 75.0562 293.942 0.058197" stroke="#FF61D6" stroke-opacity="0.1" stroke-width="0.17" stroke-miterlimit="10"/>
<path d="M12.3873 293.332C12.3873 293.332 5.25773 254.253 24.3004 243.444C45.1982 231.571 63.2176 207.891 99.4061 196.533C107.808 193.897 115.104 189.382 123.091 187.844C197.232 173.568 108.615 100.233 195.776 114.592C288.327 129.841 328.492 76.1953 293.942 0.0415955" stroke="#FF61D6" stroke-opacity="0.1" stroke-width="0.17" stroke-miterlimit="10"/>
<path d="M12.3873 293.332C12.3873 293.332 5.17455 253.979 24.9493 243.802C46.4211 232.76 64.9397 209.712 101.028 198.213C109.464 195.519 116.693 190.879 124.638 189.224C197.714 173.984 109.963 100.499 196.89 115.075C289.367 130.573 329.598 77.3511 293.926 0.0415955" stroke="#FF61D6" stroke-opacity="0.1" stroke-width="0.17" stroke-miterlimit="10"/>
<path d="M12.3873 293.332C12.3873 293.332 5.108 253.688 25.6148 244.168C47.6524 233.941 66.67 211.566 102.667 199.892C111.128 197.148 118.299 192.409 126.211 190.596C198.205 174.408 111.327 100.798 198.03 115.549C290.423 131.296 330.73 78.4985 293.926 0.0415955" stroke="#FF61D6" stroke-opacity="0.1" stroke-width="0.17" stroke-miterlimit="10"/>
<path d="M12.3873 293.332C12.3873 293.332 5.04974 253.422 26.2887 244.533C48.9002 235.105 68.4254 213.395 104.323 201.572C112.808 198.778 119.921 193.872 127.791 191.977C198.687 174.848 112.7 101.039 199.162 116.006C291.505 131.995 331.853 79.6293 293.926 0.0166321" stroke="#FF61D6" stroke-opacity="0.1" stroke-width="0.17" stroke-miterlimit="10"/>
<path d="M12.3873 293.332C12.3873 293.332 4.96657 253.089 26.9376 244.883C50.1232 236.252 70.1475 215.216 105.97 203.235C114.48 200.383 121.535 195.352 129.372 193.332C199.195 175.289 114.089 101.306 200.318 116.488C292.561 132.727 333.001 80.7933 293.951 0.0249634" stroke="#FF61D6" stroke-opacity="0.1" stroke-width="0.17" stroke-miterlimit="10"/>
<path d="M12.3873 293.332C12.3873 293.332 4.90001 252.773 27.6197 245.265C51.3544 237.399 71.8779 217.07 107.584 204.972C116.128 202.071 123.116 196.915 130.878 194.762C199.619 175.821 115.396 101.638 201.391 117.02C293.576 133.467 334.107 81.9657 293.926 0.0415955" stroke="#FF61D6" stroke-opacity="0.1" stroke-width="0.17" stroke-miterlimit="10"/>
<path d="M12.3873 293.332C12.3873 293.332 4.82512 252.449 28.2686 245.631C52.5856 238.555 73.6166 218.899 109.223 206.635C117.792 203.675 124.721 198.396 132.475 196.126C200.127 176.27 116.793 101.871 202.564 117.461C294.641 134.198 335.23 83.1131 293.926 0.0415955" stroke="#FF61D6" stroke-opacity="0.1" stroke-width="0.17" stroke-miterlimit="10"/>
<path d="M12.3873 293.332C12.3873 293.332 4.75857 252.116 28.9342 245.997C53.8252 239.694 75.347 220.77 110.862 208.298C119.455 205.288 126.327 199.884 134.047 197.489C200.601 176.794 118.158 102.154 203.696 117.951C295.698 134.947 336.353 84.2855 293.926 0.058197" stroke="#FF61D6" stroke-opacity="0.1" stroke-width="0.17" stroke-miterlimit="10"/>
<path d="M12.3873 293.332C12.3873 293.332 4.70865 251.759 29.6163 246.363C55.0814 240.817 77.1023 222.566 112.509 209.97C121.136 206.901 127.949 201.38 135.628 198.853C201.1 177.301 119.539 102.403 204.844 118.417C296.771 135.653 337.502 85.4246 293.942 0.0415955" stroke="#FF61D6" stroke-opacity="0.1" stroke-width="0.17" stroke-miterlimit="10"/>
<path d="M12.3873 293.332C12.3873 293.332 4.65042 251.435 30.2819 246.77C56.321 241.981 78.8327 224.437 114.148 211.691C122.808 208.573 129.547 202.927 137.2 200.266C201.574 177.892 120.903 102.727 205.975 118.933C297.827 136.393 338.625 86.6219 293.942 0.0831604" stroke="#FF61D6" stroke-opacity="0.1" stroke-width="0.17" stroke-miterlimit="10"/>
<path d="M12.3873 293.332C12.3873 293.332 4.57555 251.085 30.9308 247.094C57.5522 243.062 80.5548 226.225 115.787 213.329C124.472 210.152 131.152 204.39 138.764 201.605C202.065 178.407 122.259 102.968 207.098 119.332C298.867 137.075 339.739 87.736 293.926 0.00830078" stroke="#FF61D6" stroke-opacity="0.1" stroke-width="0.17" stroke-miterlimit="10"/>
<path d="M12.3873 293.332C12.3873 293.332 4.51732 250.703 31.5963 247.46C58.8084 244.134 82.2852 228.054 117.409 215.033C126.119 211.799 133.373 207.209 140.32 203.002C205.759 190.314 123.623 103.226 208.229 119.855C299.924 137.848 340.862 88.8917 293.917 0.0498657" stroke="#FF61D6" stroke-opacity="0.1" stroke-width="0.17" stroke-miterlimit="10"/>
<path d="M12.3873 293.332C12.3873 293.332 4.48405 250.362 32.2702 247.826C60.0563 245.29 84.0239 229.916 119.048 216.688C127.783 213.362 135.004 208.706 141.884 204.349C206.416 190.838 124.988 103.534 209.361 120.321C300.972 138.572 341.986 90.0392 293.926 0.0415955" stroke="#FF61D6" stroke-opacity="0.1" stroke-width="0.17" stroke-miterlimit="10"/>
<path d="M12.3873 293.332C12.3873 293.332 4.42583 249.996 32.9191 248.209C61.4123 246.421 85.7543 231.729 120.687 218.392C129.447 215.066 136.643 210.252 143.456 205.754C207.057 191.403 126.36 103.792 210.492 120.803C302.003 139.303 343.117 91.1949 293.926 0.0415955" stroke="#FF61D6" stroke-opacity="0.1" stroke-width="0.17" stroke-miterlimit="10"/>
<path d="M12.3873 293.332C12.3873 293.332 4.40085 249.63 33.6012 248.549C62.6103 247.485 87.5013 233.533 122.342 220.047C131.127 216.646 138.298 211.732 145.037 207.101C207.755 191.96 127.733 104.074 211.64 121.277C303.102 140.035 344.257 92.3507 293.942 0.0415955" stroke="#FF61D6" stroke-opacity="0.1" stroke-width="0.17" stroke-miterlimit="10"/>
<path d="M12.3873 293.332C12.3873 293.332 4.35925 249.264 34.2668 248.915C63.8748 248.583 89.2317 235.354 123.981 221.726C132.799 218.268 139.929 213.262 146.609 208.481C208.413 192.517 129.139 104.349 212.78 121.76C304.158 140.767 345.388 93.4898 293.942 0.0415955" stroke="#FF61D6" stroke-opacity="0.1" stroke-width="0.17" stroke-miterlimit="10"/>
<path d="M12.3873 293.332C12.3873 293.332 4.32597 248.882 34.9323 249.265C65.1559 249.664 90.9704 237.158 125.612 223.389C134.455 219.881 141.559 214.759 148.165 209.836C209.07 193.058 130.453 104.615 213.887 122.217C305.19 141.482 346.486 94.6372 293.917 -0.0083313" stroke="#FF61D6" stroke-opacity="0.1" stroke-width="0.17" stroke-miterlimit="10"/>
<path d="M12.3873 293.332C12.3873 293.332 4.2927 248.508 35.5978 249.647C66.4288 250.769 92.7008 239.004 127.259 225.086C136.127 221.519 143.198 216.297 149.721 211.233C209.71 193.631 131.801 104.906 215.018 122.707C306.246 142.23 347.651 95.8096 293.926 0.0415955" stroke="#FF61D6" stroke-opacity="0.1" stroke-width="0.17" stroke-miterlimit="10"/>
<path d="M12.3873 293.332C12.3873 293.332 4.26776 248.125 36.2634 250.013C67.7183 251.867 94.4312 240.867 128.898 226.732C137.791 223.107 144.837 217.777 151.31 212.597C210.376 194.18 133.19 105.18 216.199 123.181C307.344 142.954 348.791 96.957 293.967 0.0332642" stroke="#FF61D6" stroke-opacity="0.1" stroke-width="0.17" stroke-miterlimit="10"/>
<path d="M12.3873 293.332C12.3873 293.332 4.24278 247.751 36.9289 250.379C68.9994 252.956 96.1616 242.646 130.537 228.445C139.455 224.761 146.476 219.299 152.882 213.977C211.058 194.745 134.58 105.463 217.314 123.664C308.376 143.694 349.889 98.121 293.942 0.0415955" stroke="#FF61D6" stroke-opacity="0.1" stroke-width="0.17" stroke-miterlimit="10"/>
<path d="M12.3873 293.332C12.3873 293.332 4.20951 247.377 37.5778 250.744C70.2806 254.07 97.8754 244.467 132.159 230.124C141.102 226.383 148.09 220.845 154.429 215.357C211.699 195.311 135.902 105.746 218.429 124.146C309.383 144.425 350.979 99.2685 293.926 0.0415955" stroke="#FF61D6" stroke-opacity="0.1" stroke-width="0.17" stroke-miterlimit="10"/>
<path d="M12.3873 293.332C12.3873 293.332 4.19288 246.986 38.235 251.11C71.5701 255.143 99.6058 246.28 133.798 231.804C142.766 228.004 149.729 222.367 156.002 216.729C212.364 195.868 137.267 106.028 219.535 124.62C310.439 145.157 352.102 100.424 293.901 0.0415955" stroke="#FF61D6" stroke-opacity="0.1" stroke-width="0.17" stroke-miterlimit="10"/>
<path d="M12.3873 293.332C12.3873 293.332 4.19287 246.604 38.9172 251.476C72.8845 256.232 101.353 248.1 135.42 233.483C144.421 229.625 151.351 223.88 157.557 218.11C213.013 196.425 138.623 106.303 220.683 125.094C311.512 145.88 353.241 101.58 293.892 0.0415955" stroke="#FF61D6" stroke-opacity="0.1" stroke-width="0.17" stroke-miterlimit="10"/>
<path d="M12.3873 293.332C12.3873 293.332 4.18456 246.221 39.5827 251.842C74.1906 257.33 103.075 249.921 137.084 235.163C146.11 231.247 153.015 225.401 159.155 219.481C213.695 196.982 140.02 106.585 221.848 125.576C312.594 146.629 354.398 102.736 293.942 0.0249634" stroke="#FF61D6" stroke-opacity="0.1" stroke-width="0.17" stroke-miterlimit="10"/>
<path d="M12.3873 293.332C12.3873 293.332 4.15961 245.839 40.2316 252.2C75.4801 258.419 104.789 251.734 138.706 236.842C147.757 232.868 154.629 226.923 160.702 220.862C214.344 197.539 141.36 106.868 222.963 126.075C313.642 147.394 355.504 103.908 293.926 0.0665283" stroke="#FF61D6" stroke-opacity="0.1" stroke-width="0.17" stroke-miterlimit="10"/>
<path d="M12.3873 293.332C12.3873 293.332 4.17625 245.465 40.9138 252.59C76.8028 259.533 106.536 253.58 140.362 238.547C149.438 234.514 156.284 228.461 162.291 222.259C215.018 198.146 142.741 107.176 224.111 126.557C314.699 148.125 356.652 105.064 293.942 0.0665283" stroke="#FF61D6" stroke-opacity="0.1" stroke-width="0.17" stroke-miterlimit="10"/>
<path d="M12.3873 293.332C12.3873 293.332 4.16792 245.107 41.5794 252.931C78.1089 260.606 108.266 255.367 142 240.202C151.102 236.111 157.923 229.958 163.855 223.572C215.684 198.628 144.105 107.4 225.242 126.973C315.747 148.807 357.775 106.186 293.942 0.00830078" stroke="#FF61D6" stroke-opacity="0.1" stroke-width="0.17" stroke-miterlimit="10"/>
<path d="M12.3873 293.332C12.3873 293.332 4.15128 244.7 42.2282 253.297C79.4067 261.695 109.971 257.188 143.623 241.881C152.774 237.724 159.537 231.471 165.411 224.986C216.324 199.21 145.445 107.749 226.365 127.488C316.787 149.58 358.882 107.35 293.926 0.0415955" stroke="#FF61D6" stroke-opacity="0.1" stroke-width="0.17" stroke-miterlimit="10"/>
<path d="M12.3873 293.332C12.3873 293.332 4.15129 244.317 42.8938 253.663C80.7212 262.809 111.702 259.001 145.262 243.561C154.413 239.353 161.176 232.993 166.975 226.358C216.981 199.751 146.817 107.999 227.497 127.962C317.843 150.312 360.013 108.506 293.926 0.0415955" stroke="#FF61D6" stroke-opacity="0.1" stroke-width="0.17" stroke-miterlimit="10"/>
<path d="M12.3873 293.332C12.3873 293.332 4.15962 243.935 43.551 254.029C82.0356 263.882 113.432 260.813 146.9 245.24C156.052 240.975 162.807 234.506 168.53 227.779C217.614 200.341 148.165 108.323 228.612 128.478C318.875 151.094 361.12 109.695 293.909 0.0831604" stroke="#FF61D6" stroke-opacity="0.1" stroke-width="0.17" stroke-miterlimit="10"/>
<path d="M12.3873 293.332C12.3873 293.332 4.15961 243.561 44.2165 254.395C83.3168 264.979 115.154 262.626 148.539 246.911C157.74 242.588 164.446 236.019 170.111 229.101C218.304 200.873 149.546 108.539 229.76 128.91C319.948 151.784 362.268 110.801 293.926 0.0332642" stroke="#FF61D6" stroke-opacity="0.1" stroke-width="0.17" stroke-miterlimit="10"/>
<path d="M12.3873 293.332C12.3873 293.332 4.16793 243.22 44.8821 254.76C84.6728 266.077 116.876 264.439 150.178 248.599C159.404 244.209 164.936 236.468 171.683 230.482C213.196 193.673 150.885 108.855 230.891 129.392C320.996 152.532 363.391 111.932 293.926 0.0415955" stroke="#FF61D6" stroke-opacity="0.1" stroke-width="0.17" stroke-miterlimit="10"/>
<path d="M12.3873 293.332C12.3873 293.332 4.17624 242.804 45.5476 255.126C85.9955 267.174 118.598 266.251 151.817 250.279C161.068 245.831 166.567 238.015 173.247 231.862C213.837 194.513 152.266 109.138 232.031 129.875C322.053 153.272 364.514 113.121 293.926 0.0415955" stroke="#FF61D6" stroke-opacity="0.1" stroke-width="0.17" stroke-miterlimit="10"/>
<path d="M12.3873 293.332C12.3873 293.332 4.18454 242.388 46.2131 255.492C87.3183 268.263 120.329 268.064 153.456 251.958C162.732 247.452 168.198 239.561 174.82 233.234C214.486 195.361 153.631 109.429 233.162 130.349C323.101 154.012 365.645 114.268 293.892 0.0415955" stroke="#FF61D6" stroke-opacity="0.1" stroke-width="0.17" stroke-miterlimit="10"/>
<path d="M12.3873 293.332C12.3873 293.332 4.2012 242.047 46.8787 255.858C88.6411 269.361 122.051 269.876 155.095 253.638C164.387 249.073 169.828 241.108 176.384 234.614C215.151 196.217 154.995 109.712 234.294 130.822C324.141 154.752 366.768 115.424 293.926 0.0415955" stroke="#FF61D6" stroke-opacity="0.1" stroke-width="0.17" stroke-miterlimit="10"/>
<path d="M12.3873 293.332C12.3873 293.332 4.2095 241.673 47.5442 256.216C89.9721 270.458 123.773 271.681 156.725 255.318C166.051 250.703 171.467 242.654 177.939 235.986C215.808 197.065 156.309 110.003 235.408 131.305C325.189 155.492 367.9 116.58 293.926 0.0415955" stroke="#FF61D6" stroke-opacity="0.1" stroke-width="0.17" stroke-miterlimit="10"/>
<path d="M12.3873 293.332C12.3873 293.332 4.24279 241.299 48.2264 256.581C91.3115 271.548 125.512 273.493 158.381 256.997C167.732 252.308 173.114 244.209 179.537 237.366C216.532 197.922 157.74 110.285 236.581 131.77C326.279 156.224 369.04 117.727 293.942 0.0332642" stroke="#FF61D6" stroke-opacity="0.1" stroke-width="0.17" stroke-miterlimit="10"/>
<path d="M12.3873 293.332C12.3873 293.332 4.25112 240.95 48.8919 256.947C92.6426 272.662 127.234 275.306 160.02 258.677C169.396 253.929 174.761 245.764 181.109 238.722C217.239 198.761 159.096 110.56 237.679 132.244C327.294 156.964 370.129 118.874 293.909 0.0415955" stroke="#FF61D6" stroke-opacity="0.1" stroke-width="0.17" stroke-miterlimit="10"/>
<path d="M12.3873 293.332C12.3873 293.332 4.2511 240.551 49.5325 257.355C93.957 273.801 128.939 277.152 161.642 260.398C171.043 255.584 176.384 247.352 182.656 240.152C217.938 199.668 160.444 110.901 238.828 132.776C328.359 157.72 371.277 120.08 293.926 0.0831604" stroke="#FF61D6" stroke-opacity="0.1" stroke-width="0.17" stroke-miterlimit="10"/>
<path d="M12.3873 293.332C12.3873 293.332 4.26774 240.177 50.198 257.679C95.2881 274.865 130.661 278.923 163.281 262.036C172.698 257.163 178.031 248.865 184.229 241.49C218.67 200.482 161.808 111.15 239.967 133.217C329.424 158.469 372.409 121.194 293.934 0.0415955" stroke="#FF61D6" stroke-opacity="0.1" stroke-width="0.17" stroke-miterlimit="10"/>
<path d="M12.3873 293.332C12.3873 293.332 4.28439 239.802 50.8636 258.045C96.6192 275.963 132.392 280.727 164.92 263.715C174.362 258.785 179.678 250.412 185.793 242.862C219.41 201.289 163.164 111.441 241.099 133.691C330.463 159.209 373.532 122.35 293.926 0.0415955" stroke="#FF61D6" stroke-opacity="0.1" stroke-width="0.17" stroke-miterlimit="10"/>
<path d="M12.3873 293.332C12.3873 293.332 4.31768 239.428 51.5458 258.411C97.9669 277.06 134.122 282.523 166.575 265.395C176.043 260.406 181.35 251.975 187.373 244.242C220.168 202.179 164.537 111.732 242.238 134.165C331.52 159.94 374.663 123.506 293.934 0.0415955" stroke="#FF61D6" stroke-opacity="0.1" stroke-width="0.17" stroke-miterlimit="10"/>
<path d="M12.3873 293.332C12.3873 293.332 4.31768 239.062 52.1947 258.776C99.2813 278.166 135.828 284.344 168.198 267.091C177.69 262.036 182.981 253.547 188.929 245.631C220.933 203.043 165.893 112.031 243.361 134.664C332.56 160.714 375.778 124.686 293.926 0.058197" stroke="#FF61D6" stroke-opacity="0.1" stroke-width="0.17" stroke-miterlimit="10"/>
<path d="M12.3873 293.332C12.3873 293.332 4.3343 238.688 52.8602 259.142C100.612 279.272 137.55 286.148 169.836 268.754C179.345 263.632 184.645 255.085 190.501 246.995C221.707 203.867 167.249 112.297 244.493 135.121C333.616 161.445 376.91 125.809 293.926 0.0415955" stroke="#FF61D6" stroke-opacity="0.1" stroke-width="0.17" stroke-miterlimit="10"/>
<path d="M12.3873 293.332C12.3873 293.332 4.35927 238.322 53.5257 259.508C101.952 280.378 139.263 287.952 171.475 270.434C181.009 265.254 186.3 256.64 192.065 248.366C222.497 204.698 168.613 112.597 245.633 135.603C334.648 162.21 378.033 126.964 293.926 0.0748291" stroke="#FF61D6" stroke-opacity="0.1" stroke-width="0.17" stroke-miterlimit="10"/>
<path d="M12.3873 293.332C12.3873 293.332 4.37589 237.948 54.1912 259.849C103.275 281.467 140.985 289.732 173.156 272.088C182.715 266.842 188.006 258.169 193.679 249.713C223.345 205.505 170.011 112.863 246.806 136.052C335.754 162.917 379.206 128.095 293.967 0.0166321" stroke="#FF61D6" stroke-opacity="0.1" stroke-width="0.17" stroke-miterlimit="10"/>
<path d="M12.3873 293.332C12.3873 293.332 4.40086 237.582 54.8152 260.231C104.589 282.581 142.666 291.569 174.72 273.793C184.295 268.488 189.594 259.749 195.168 251.119C224.078 206.353 171.301 113.179 247.862 136.56C336.728 163.682 380.254 129.276 293.892 0.0415955" stroke="#FF61D6" stroke-opacity="0.1" stroke-width="0.17" stroke-miterlimit="10"/>
<path d="M12.3873 293.332C12.3873 293.332 4.41751 237.208 55.514 260.597C105.962 283.687 144.421 293.374 176.392 275.472C185.992 270.101 191.292 261.337 196.774 252.491C224.934 207.167 172.69 113.47 249.027 137.033C337.809 164.472 381.41 130.423 293.951 0.0415955" stroke="#FF61D6" stroke-opacity="0.1" stroke-width="0.17" stroke-miterlimit="10"/>
<path d="M12.3873 293.332C12.3873 293.332 4.44245 236.842 56.1795 260.963C107.293 284.793 146.135 295.178 178.022 277.152C187.648 271.714 192.997 262.859 198.338 253.871C225.791 207.974 174.054 113.769 250.167 137.507C338.858 165.179 382.542 131.579 293.926 0.0415955" stroke="#FF61D6" stroke-opacity="0.1" stroke-width="0.17" stroke-miterlimit="10"/>
<path d="M12.3873 293.332C12.3873 293.332 4.45909 236.477 56.8451 261.329C108.632 285.899 147.857 296.982 179.661 278.831C189.312 273.335 194.636 264.414 199.91 255.243C226.615 208.781 175.41 114.06 251.298 138.006C339.906 165.952 383.665 132.751 293.926 0.058197" stroke="#FF61D6" stroke-opacity="0.1" stroke-width="0.17" stroke-miterlimit="10"/>
<path d="M12.3873 293.332C12.3873 293.332 4.50068 236.111 57.5272 261.736C109.988 287.046 149.587 298.82 181.317 280.552C190.984 274.99 196.291 266.01 201.491 256.664C227.472 209.57 176.775 114.343 252.429 138.455C340.996 166.725 384.788 133.891 293.926 0.0415955" stroke="#FF61D6" stroke-opacity="0.1" stroke-width="0.17" stroke-miterlimit="10"/>
<path d="M12.3873 293.332C12.3873 293.332 4.50901 235.737 58.1429 262.061C111.311 288.119 151.318 300.591 182.931 282.19C192.623 276.561 197.98 267.515 203.038 257.995C228.329 210.352 178.081 114.642 253.553 138.946C341.994 167.432 385.911 135.038 293.917 0.0415955" stroke="#FF61D6" stroke-opacity="0.1" stroke-width="0.17" stroke-miterlimit="10"/>
<path d="M12.3873 293.332C12.3873 293.332 4.52565 235.379 58.8417 262.427C112.65 289.225 152.982 302.387 184.595 283.87C194.303 278.183 199.686 269.07 204.627 259.367C229.227 211.142 179.512 114.941 254.709 139.42C343.067 168.18 387.059 136.194 293.942 0.0415955" stroke="#FF61D6" stroke-opacity="0.1" stroke-width="0.17" stroke-miterlimit="10"/>
<path d="M12.3873 293.332C12.3873 293.332 4.56725 235.013 59.5239 262.792C114.006 290.33 154.729 304.191 186.234 285.55C195.967 279.796 201.366 270.583 206.2 260.747C230.101 211.899 180.868 115.241 255.849 139.894C344.115 168.937 388.19 137.349 293.942 0.0415955" stroke="#FF61D6" stroke-opacity="0.1" stroke-width="0.17" stroke-miterlimit="10"/>
<path d="M12.3873 293.332C12.3873 293.332 4.57557 234.647 60.1728 263.175C115.329 291.445 156.426 306.012 187.856 287.246C197.606 281.426 203.03 272.188 207.747 262.136C230.974 212.672 182.207 115.549 256.963 140.393C345.147 169.702 389.297 138.522 293.926 0.058197" stroke="#FF61D6" stroke-opacity="0.1" stroke-width="0.17" stroke-miterlimit="10"/>
<path d="M12.3873 293.332C12.3873 293.332 4.61715 234.298 60.8466 263.524C116.685 292.55 158.181 307.8 189.511 288.909C199.286 283.03 204.735 273.718 209.336 263.499C231.889 213.395 183.588 115.823 258.111 140.85C346.212 170.433 390.437 139.661 293.942 0.0415955" stroke="#FF61D6" stroke-opacity="0.1" stroke-width="0.17" stroke-miterlimit="10"/>
<path d="M12.3873 293.332C12.3873 293.332 4.62549 233.924 61.4706 263.89C117.983 293.656 159.828 309.62 191.109 290.597C200.9 284.643 206.374 275.264 210.858 264.871C232.746 214.152 184.902 116.122 259.201 141.332C347.218 171.19 391.526 140.808 293.901 0.0415955" stroke="#FF61D6" stroke-opacity="0.1" stroke-width="0.17" stroke-miterlimit="10"/>
<path d="M12.3873 293.332C12.3873 293.332 4.65875 233.558 62.1777 264.231C119.364 294.746 161.584 311.375 192.789 292.251C202.597 286.231 208.105 276.786 212.464 266.226C233.678 214.859 186.258 116.413 260.366 141.781C348.283 171.922 392.641 141.939 293.926 0.0166321" stroke="#FF61D6" stroke-opacity="0.1" stroke-width="0.17" stroke-miterlimit="10"/>
<path d="M12.3873 293.332C12.3873 293.332 4.66707 233.192 62.8266 264.613C120.687 295.876 163.281 313.204 194.411 293.956C204.245 287.869 209.777 278.357 214.02 267.623C234.593 215.582 187.639 116.713 261.497 142.288C349.331 172.695 393.773 143.12 293.942 0.0415955" stroke="#FF61D6" stroke-opacity="0.1" stroke-width="0.17" stroke-miterlimit="10"/>
<path d="M12.3873 293.332C12.3873 293.332 4.70867 232.835 63.5088 264.979C122.043 296.99 165.003 315 196.067 295.635C205.917 289.482 211.482 279.896 215.6 269.028C235.566 216.322 188.979 117.186 262.645 142.796C350.338 173.651 394.921 144.309 293.942 0.0748291" stroke="#FF61D6" stroke-opacity="0.1" stroke-width="0.17" stroke-miterlimit="10"/>
<path d="M12.3873 293.332C12.3873 293.332 4.73363 232.469 64.1743 265.345C123.365 298.096 166.708 316.804 197.689 297.315C207.556 291.095 213.154 281.442 217.156 270.375C236.44 216.987 190.31 117.428 263.744 143.236C351.353 174.358 396.019 145.423 293.909 0.0415955" stroke="#FF61D6" stroke-opacity="0.1" stroke-width="0.17" stroke-miterlimit="10"/>
<path d="M12.3873 293.332C12.3873 293.332 4.74194 232.111 64.7982 265.711C124.696 299.21 168.389 318.6 199.303 298.969C209.195 292.692 214.827 282.955 218.695 271.722C237.347 217.677 191.649 117.685 264.875 143.677C352.401 175.048 397.15 146.537 293.901 -3.05176e-05" stroke="#FF61D6" stroke-opacity="0.1" stroke-width="0.17" stroke-miterlimit="10"/>
<path d="M12.3873 293.332C12.3873 293.332 4.85007 231.637 65.5053 266.077C126.127 300.208 170.144 320.404 200.975 300.674C210.892 294.33 216.557 284.519 220.309 273.127C238.328 218.351 193.055 117.985 266.065 144.192C353.508 175.788 398.34 147.734 293.959 0.0415955" stroke="#FF61D6" stroke-opacity="0.1" stroke-width="0.17" stroke-miterlimit="10"/>
<path d="M12.3873 293.332C12.3873 293.332 4.90001 231.305 66.1709 266.443C127.458 301.364 171.825 322.2 202.606 302.353C212.539 295.943 218.246 286.057 221.865 274.499C239.26 219.016 194.411 118.259 267.171 144.675C354.523 176.553 399.446 148.89 293.934 -3.05176e-05" stroke="#FF61D6" stroke-opacity="0.1" stroke-width="0.17" stroke-miterlimit="10"/>
<path d="M12.3873 293.332C12.3873 293.332 4.90001 230.972 66.8281 266.808C128.781 302.495 173.563 324.005 204.253 304.033C214.236 297.556 219.951 287.595 223.445 275.88C240.208 219.681 195.784 118.542 268.311 145.149C355.596 177.285 400.586 150.046 293.942 0.0415955" stroke="#FF61D6" stroke-opacity="0.1" stroke-width="0.17" stroke-miterlimit="10"/>
<path d="M12.3873 293.332C12.3873 293.332 4.90001 230.64 67.4936 267.174C130.087 303.709 175.252 325.776 205.892 305.713C215.875 299.161 221.64 289.133 225.026 277.252C241.165 220.33 197.132 118.816 269.45 145.623C356.652 178.05 401.726 151.193 293.942 0.0415955" stroke="#FF61D6" stroke-opacity="0.1" stroke-width="0.17" stroke-miterlimit="10"/>
<path d="M12.3873 293.332C12.3873 293.332 4.9 230.307 68.1259 267.557C131.352 304.806 176.941 327.622 207.497 307.409C265.324 269.161 183.422 113.47 270.549 146.105C357.676 178.74 402.824 152.349 293.909 0.0415955" stroke="#FF61D6" stroke-opacity="0.1" stroke-width="0.17" stroke-miterlimit="10"/>
</g>
<defs>
<clipPath id="clip0_119_1742">
<rect width="358" height="315" fill="white"/>
</clipPath>
</defs>
</svg>
