<svg xmlns="http://www.w3.org/2000/svg" viewBox="0 0 534.8 85.53"><g id="Layer_2" data-name="Layer 2"><g id="Layer_1-2" data-name="Layer 1"><path d="M50.81,84.63A42.19,42.19,0,1,1,72.43,13.85L42.06,43.47,27.54,28.56l-5.3.62-.61,5.35,20.28,20.8L77.69,20.46a41.69,41.69,0,0,1,5.83,14.25A42.19,42.19,0,0,1,50.81,84.63" style="fill:#e32227"/><rect x="410.05" width="124.72" height="52.92" rx="2.31" style="fill:#e32227"/><path d="M420.62,17.56a16.53,16.53,0,0,1,6.27-6.15,18.44,18.44,0,0,1,18.28.44,15,15,0,0,1,6.1,7.51h-6.66a9,9,0,0,0-3.64-4,10.9,10.9,0,0,0-5.4-1.31,11.83,11.83,0,0,0-6,1.51,10.48,10.48,0,0,0-4.11,4.33A13.86,13.86,0,0,0,424,26.46,13.83,13.83,0,0,0,425.48,33a10.75,10.75,0,0,0,4.11,4.36,11.65,11.65,0,0,0,6,1.53,10.8,10.8,0,0,0,5.4-1.32,8.89,8.89,0,0,0,3.64-4h6.66a14.91,14.91,0,0,1-6.1,7.49,17.73,17.73,0,0,1-9.6,2.62,17.48,17.48,0,0,1-8.7-2.21,16.55,16.55,0,0,1-6.25-6.15,17.27,17.27,0,0,1-2.31-8.9A17.27,17.27,0,0,1,420.62,17.56Z" style="fill:#fff;stroke:#fff;stroke-miterlimit:10;stroke-width:1.20000004768372px"/><path d="M475.29,43.43l-7.78-13.52h-4.23V43.43h-5.54V9.64h11.67A14.5,14.5,0,0,1,476,11a9.4,9.4,0,0,1,4,3.65,9.81,9.81,0,0,1,1.34,5.1,10.12,10.12,0,0,1-1.92,6,9.79,9.79,0,0,1-5.91,3.67l8.37,14Zm-12-17.94h6.13a6.41,6.41,0,0,0,4.69-1.56,5.56,5.56,0,0,0,1.58-4.18,5.43,5.43,0,0,0-1.55-4.11,6.61,6.61,0,0,0-4.72-1.48h-6.13Z" style="fill:#fff;stroke:#fff;stroke-miterlimit:10;stroke-width:1.20000004768372px"/><path d="M524.06,9.64V43.43h-5.54V20.29L508.21,43.43h-3.84L494,20.29V43.43h-5.54V9.64h6l11.86,26.5,11.82-26.5Z" style="fill:#fff;stroke:#fff;stroke-miterlimit:10;stroke-width:1.20000004768372px"/><path d="M133.24,26.94h9.2V44.59a26.18,26.18,0,0,1-8.2,4.1,32,32,0,0,1-9.39,1.43,25.42,25.42,0,0,1-12.18-2.89,21.55,21.55,0,0,1-8.48-8,22.1,22.1,0,0,1-3.08-11.59A22.1,22.1,0,0,1,104.19,16a21.44,21.44,0,0,1,8.54-8A26,26,0,0,1,125,5.13a27,27,0,0,1,10.38,1.92,20.62,20.62,0,0,1,7.83,5.59l-6.46,6a15,15,0,0,0-11.25-4.91,15.38,15.38,0,0,0-7.4,1.74,12.51,12.51,0,0,0-5,4.91,14.46,14.46,0,0,0-1.8,7.27,14.32,14.32,0,0,0,1.8,7.21,12.77,12.77,0,0,0,5,4.94,14.83,14.83,0,0,0,7.3,1.77,16.35,16.35,0,0,0,7.83-1.86Z" style="fill:#fff"/><polygon points="185.45 41.3 185.45 49.38 151.76 49.38 151.76 5.87 184.64 5.87 184.64 13.95 161.77 13.95 161.77 23.4 181.97 23.4 181.97 31.23 161.77 31.23 161.77 41.3 185.45 41.3" style="fill:#fff"/><polygon points="202.48 14.07 188.56 14.07 188.56 5.87 226.47 5.87 226.47 14.07 212.55 14.07 212.55 49.38 202.48 49.38 202.48 14.07" style="fill:#fff"/><polygon points="231.88 5.87 241.95 5.87 241.95 41.17 263.76 41.17 263.76 49.38 231.88 49.38 231.88 5.87" style="fill:#fff"/><polygon points="303.1 41.3 303.1 49.38 269.42 49.38 269.42 5.87 302.29 5.87 302.29 13.95 279.42 13.95 279.42 23.4 299.62 23.4 299.62 31.23 279.42 31.23 279.42 41.3 303.1 41.3" style="fill:#fff"/><path d="M339.77,40.05h-20.2l-3.85,9.32H305.4l19.39-43.5h9.95l19.45,43.5H343.62Zm-3.17-7.64-6.9-16.66-6.9,16.66Z" style="fill:#fff"/><path d="M358.72,5.87h19.77A27.79,27.79,0,0,1,391,8.57a20.23,20.23,0,0,1,8.45,7.62,21.39,21.39,0,0,1,3,11.43,21.42,21.42,0,0,1-3,11.44A20.21,20.21,0,0,1,391,46.67a27.79,27.79,0,0,1-12.52,2.7H358.72ZM378,41.11q6.52,0,10.41-3.64t3.89-9.85a12.86,12.86,0,0,0-3.89-9.85q-3.88-3.63-10.41-3.63h-9.2v27Z" style="fill:#fff"/><path d="M109.86,67.19a5.46,5.46,0,1,0,0,10.92,6.41,6.41,0,0,0,4.32-1.84L115.73,78a8.8,8.8,0,0,1-6,2.55,7.85,7.85,0,1,1,.09-15.69,8.55,8.55,0,0,1,5.89,2.4l-1.53,1.9a6.05,6.05,0,0,0-4.32-2" style="fill:#fff"/><path d="M133.21,72.68A8.22,8.22,0,1,1,125,64.86a7.94,7.94,0,0,1,8.22,7.82m-13.78,0A5.57,5.57,0,0,0,125,78.2a5.5,5.5,0,1,0-5.59-5.52" style="fill:#fff"/><polygon points="138.58 64.93 146.88 76.08 146.88 64.93 149.46 64.93 149.46 80.44 146.88 80.44 138.62 69.32 138.62 80.44 136.01 80.44 136.01 64.93 138.58 64.93" style="fill:#fff"/><polygon points="156.12 64.93 164.43 76.08 164.43 64.93 167 64.93 167 80.44 164.43 80.44 156.17 69.32 156.17 80.44 153.55 80.44 153.55 64.93 156.12 64.93" style="fill:#fff"/><polygon points="182.18 64.93 182.18 67.28 173.72 67.28 173.72 71.49 181.29 71.49 181.29 73.81 173.72 73.81 173.72 78.09 182.44 78.09 182.44 80.44 171.1 80.44 171.1 64.93 182.18 64.93" style="fill:#fff"/><path d="M192.55,67.19a5.46,5.46,0,1,0,0,10.92,6.42,6.42,0,0,0,4.32-1.84L198.42,78a8.81,8.81,0,0,1-6,2.55,7.85,7.85,0,1,1,.09-15.69,8.55,8.55,0,0,1,5.9,2.4l-1.53,1.9a6.05,6.05,0,0,0-4.32-2" style="fill:#fff"/><polygon points="211.67 64.93 211.67 67.28 206.75 67.28 206.75 80.44 204.13 80.44 204.13 67.28 199.24 67.28 199.24 64.93 211.67 64.93" style="fill:#fff"/><path d="M242.26,79.15a1.4,1.4,0,1,1-2.79,0,1.4,1.4,0,1,1,2.79,0" style="fill:#fff"/><path d="M281.92,76.94H274.1l-1.48,3.5h-2.73l6.85-15.51h2.68l6.78,15.51h-2.79Zm-1-2.33L278,67.72l-2.92,6.89Z" style="fill:#fff"/><polygon points="290.83 64.93 299.14 76.08 299.14 64.93 301.71 64.93 301.71 80.44 299.14 80.44 290.87 69.32 290.87 80.44 288.26 80.44 288.26 64.93 290.83 64.93" style="fill:#fff"/><path d="M315.82,76.94H308l-1.49,3.5h-2.72l6.85-15.51h2.68l6.78,15.51h-2.79Zm-1-2.33-2.92-6.89L309,74.61Z" style="fill:#fff"/><polygon points="324.77 64.93 324.77 78.07 331.49 78.07 331.49 80.44 322.16 80.44 322.16 64.93 324.77 64.93" style="fill:#fff"/><polygon points="340.35 75.28 340.35 80.44 337.75 80.44 337.75 75.36 331.97 64.93 334.61 64.93 339.04 72.48 343.38 64.93 346.04 64.93 340.35 75.28" style="fill:#fff"/><path d="M353,67.28c-1.53,0-2.53.57-2.53,1.62,0,3.39,8.38,1.57,8.36,7.15,0,2.77-2.44,4.48-5.85,4.48a9.54,9.54,0,0,1-6.34-2.46l1.13-2.26A8.18,8.18,0,0,0,353,78.07c1.82,0,2.9-.69,2.9-1.89,0-3.45-8.37-1.52-8.37-7,0-2.66,2.28-4.32,5.65-4.32a10.14,10.14,0,0,1,5.43,1.59l-1.09,2.31A9.26,9.26,0,0,0,353,67.28" style="fill:#fff"/><polygon points="372.96 64.93 372.96 67.28 364.5 67.28 364.5 71.49 372.07 71.49 372.07 73.81 364.5 73.81 364.5 78.09 373.23 78.09 373.23 80.44 361.88 80.44 361.88 64.93 372.96 64.93" style="fill:#fff"/><path d="M404.77,79.15a1.4,1.4,0,1,1-2.79,0,1.4,1.4,0,1,1,2.79,0" style="fill:#fff"/><path d="M434.68,67.19a5.46,5.46,0,1,0,0,10.92A6.41,6.41,0,0,0,439,76.27L440.55,78a8.8,8.8,0,0,1-6,2.55,7.85,7.85,0,1,1,.09-15.69,8.55,8.55,0,0,1,5.89,2.4L439,69.16a6.05,6.05,0,0,0-4.32-2" style="fill:#fff"/><path d="M458,72.68a8.23,8.23,0,1,1-8.22-7.82A7.93,7.93,0,0,1,458,72.68m-13.78,0a5.57,5.57,0,0,0,5.59,5.52,5.5,5.5,0,1,0-5.59-5.52" style="fill:#fff"/><polygon points="463.4 64.93 471.7 76.08 471.7 64.93 474.27 64.93 474.27 80.44 471.7 80.44 463.44 69.32 463.44 80.44 460.83 80.44 460.83 64.93 463.4 64.93" style="fill:#fff"/><polygon points="479.21 64.93 484 77.54 488.83 64.93 491.56 64.93 485.29 80.44 482.58 80.44 476.4 64.93 479.21 64.93" style="fill:#fff"/><polygon points="504.74 64.93 504.74 67.28 496.27 67.28 496.27 71.49 503.85 71.49 503.85 73.81 496.27 73.81 496.27 78.09 505 78.09 505 80.44 493.66 80.44 493.66 64.93 504.74 64.93" style="fill:#fff"/><path d="M518,80.44l-2.83-4.7c-.23,0-.47,0-.71,0h-3.68v4.68H508.2V64.93h6.29c4,0,6.25,1.93,6.25,5.29a5,5,0,0,1-3.22,5L521,80.44Zm-3.54-7c2.39,0,3.76-1,3.76-3.13s-1.37-3-3.76-3h-3.68v6.14Z" style="fill:#fff"/><polygon points="534.8 64.93 534.8 67.28 529.89 67.28 529.89 80.44 527.27 80.44 527.27 67.28 522.38 67.28 522.38 64.93 534.8 64.93" style="fill:#fff"/></g></g></svg>