<?xml version="1.0" encoding="utf-8"?>
<!-- Svg Vector Icons : http://www.onlinewebfonts.com/icon -->
<!DOCTYPE svg PUBLIC "-//W3C//DTD SVG 1.1//EN" "http://www.w3.org/Graphics/SVG/1.1/DTD/svg11.dtd">
<svg version="1.1" xmlns="http://www.w3.org/2000/svg" xmlns:xlink="http://www.w3.org/1999/xlink" x="0px" y="0px" viewBox="0 0 1000 1000" fill="#565656" enable-background="new 0 0 1000 1000" xml:space="preserve">
<g><g transform="matrix(1 0 0 -1 0 1920)"><path d="M112.1,930C84,930,60,940,40,960c-20,20-30,44-30,72.1v775.8c0,28,10,52.1,30,72.1c20,20,44,30,72.1,30h775.8c28,0,52.1-10,72.1-30s30-44,30-72.1v-775.8c0-28-10-52.1-30-72.1s-44-30-72.1-30H112.1z M381.6,1124.4c32.9,0,64,4.5,93.3,13.5c29.3,9,55.3,22,78.2,39.2c22.9,17.2,42.7,37.4,59.4,60.8c16.7,23.4,29.5,50,38.4,79.8c8.8,29.8,13.3,61.5,13.3,94.9c0,10.9-0.3,20.1-0.8,27.6c-0.5,7.5-1.2,13.1-1.8,16.7c-0.7,3.7-1.7,6.5-3.1,8.4c-1.4,1.9-2.5,3-3.3,3.3c-0.8,0.3-2,0.4-3.7,0.4H369.3v-98h164.1c-2.2-9-5.4-18.1-9.8-27.4c-4.4-9.3-10.7-19.4-19-30.4c-8.3-11-17.8-20.7-28.6-29c-10.8-8.3-24.4-15.2-40.8-20.8c-16.5-5.6-34.4-8.4-53.7-8.4c-31.6,0-60.3,7.1-86.2,21.2c-25.9,14.2-46.1,33.8-60.8,58.8c-14.7,25-22,52.8-22,83.3c0,31,7.6,59.8,22.7,86.4c15.1,26.5,35.7,47.5,61.7,62.9c26,15.4,54.2,23.1,84.7,23.1c43.3,0,79.4-13.9,108.2-41.6l5.7-5.7l89.4,86.2l-6.1,6.1c-27,25-57.2,44.1-90.6,57.2c-33.5,13.1-69,19.6-106.6,19.6c-26.7,0-52.7-3.5-78-10.6s-48.7-16.9-70.2-29.6s-41.3-28-59.4-46.1c-18.1-18.1-33.5-37.9-46.1-59.4c-12.7-21.5-22.5-44.9-29.6-70.2c-7.1-25.3-10.6-51.3-10.6-78c0-39.7,7.8-77.8,23.3-114.1c15.5-36.3,36.4-67.6,62.7-93.9c26.3-26.3,57.6-47.2,93.9-62.7C303.8,1132.1,341.8,1124.4,381.6,1124.4z M785.8,1297.5h81.7v81.7h81.7v81.7h-81.7v81.7h-81.7v-81.7h-81.7v-81.7h81.7V1297.5z"/></g></g>
</svg>
