<svg width="13" height="14" viewBox="0 0 13 14" fill="none" xmlns="http://www.w3.org/2000/svg">
<path fill-rule="evenodd" clip-rule="evenodd" d="M6.55104 0.971069C3.00729 0.971069 0.134369 3.84399 0.134369 7.38774C0.134369 10.9315 3.00729 13.8044 6.55104 13.8044C10.0948 13.8044 12.9677 10.9315 12.9677 7.38774C12.9677 3.84399 10.0948 0.971069 6.55104 0.971069ZM7.13437 9.72107C7.13437 9.87578 7.07291 10.0242 6.96351 10.1335C6.85412 10.2429 6.70574 10.3044 6.55104 10.3044C6.39633 10.3044 6.24795 10.2429 6.13856 10.1335C6.02916 10.0242 5.9677 9.87578 5.9677 9.72107V7.97107H4.2177C4.06299 7.97107 3.91462 7.90961 3.80522 7.80022C3.69583 7.69082 3.63437 7.54245 3.63437 7.38774C3.63437 7.23303 3.69583 7.08465 3.80522 6.97526C3.91462 6.86586 4.06299 6.8044 4.2177 6.8044H5.9677V5.0544C5.9677 4.89969 6.02916 4.75132 6.13856 4.64192C6.24795 4.53253 6.39633 4.47107 6.55104 4.47107C6.70574 4.47107 6.85412 4.53253 6.96351 4.64192C7.07291 4.75132 7.13437 4.89969 7.13437 5.0544V6.8044H8.88437C9.03908 6.8044 9.18745 6.86586 9.29685 6.97526C9.40624 7.08465 9.4677 7.23303 9.4677 7.38774C9.4677 7.54245 9.40624 7.69082 9.29685 7.80022C9.18745 7.90961 9.03908 7.97107 8.88437 7.97107H7.13437V9.72107Z" fill="#E43958"/>
</svg>
