<svg width="17" height="17" viewBox="0 0 17 17" fill="none" xmlns="http://www.w3.org/2000/svg">
<path d="M15.1786 0.1875H1.82143C0.815848 0.1875 0 0.985352 0 1.96875V15.0312C0 16.0146 0.815848 16.8125 1.82143 16.8125H15.1786C16.1842 16.8125 17 16.0146 17 15.0312V1.96875C17 0.985352 16.1842 0.1875 15.1786 0.1875ZM4.8192 13.2686C4.61049 13.6248 4.14375 13.7436 3.78326 13.5395C3.41897 13.3354 3.29754 12.8789 3.50625 12.5264L4.04888 11.6098C4.65982 11.4279 5.16071 11.5689 5.55156 12.0328L4.8192 13.2686ZM10.09 11.2684H3.1875C2.77009 11.2684 2.42857 10.9344 2.42857 10.5262C2.42857 10.118 2.77009 9.78398 3.1875 9.78398H5.12277L7.60446 5.5832L6.82656 4.26953C6.61786 3.91328 6.74308 3.46055 7.10357 3.25645C7.46786 3.05234 7.9308 3.1748 8.13951 3.52734L8.47723 4.09883L8.81496 3.52734C9.02366 3.17109 9.4904 3.05234 9.85089 3.25645C10.2152 3.46055 10.3366 3.91699 10.1279 4.26953L6.8721 9.78398H9.22857C9.99509 9.78398 10.4239 10.6635 10.09 11.2684ZM13.8125 11.2684H12.7121L13.4558 12.5264C13.6645 12.8826 13.5393 13.3354 13.1788 13.5395C12.8145 13.7436 12.3516 13.6211 12.1429 13.2686C10.8944 11.157 9.96094 9.56875 9.33482 8.51484C8.70112 7.43867 9.15268 6.3625 9.60424 5.99883C10.1013 6.84121 10.8451 8.10293 11.8393 9.78398H13.8125C14.2299 9.78398 14.5714 10.118 14.5714 10.5262C14.5714 10.9381 14.2299 11.2684 13.8125 11.2684Z" fill="#2F3941"/>
</svg>
