<svg width="37" height="37" viewBox="0 0 37 37" fill="none" xmlns="http://www.w3.org/2000/svg">
<g clip-path="url(#clip0_35_1331)">
<path d="M18.6841 36.7627C28.6252 36.7627 36.6841 28.7038 36.6841 18.7627C36.6841 8.82157 28.6252 0.762695 18.6841 0.762695C8.74296 0.762695 0.684082 8.82157 0.684082 18.7627C0.684082 28.7038 8.74296 36.7627 18.6841 36.7627Z" fill="#29CC97"/>
<path d="M20.419 16.4038H14.3827C14.2177 16.4038 14.0839 16.5376 14.0839 16.7026C14.0839 16.8677 14.2177 17.0015 14.3827 17.0015H20.419C20.584 17.0015 20.7179 16.8677 20.7179 16.7026C20.7179 16.5376 20.584 16.4038 20.419 16.4038Z" fill="#29CC97"/>
<path d="M14.3827 18.6747H16.3749C16.5399 18.6747 16.6737 18.541 16.6737 18.3759C16.6737 18.2109 16.5399 18.0771 16.3749 18.0771H14.3827C14.2177 18.0771 14.0839 18.2109 14.0839 18.3759C14.0839 18.541 14.2177 18.6747 14.3827 18.6747Z" fill="#29CC97"/>
<path d="M20.419 14.7305H14.3827C14.2177 14.7305 14.0839 14.8643 14.0839 15.0294C14.0839 15.1943 14.2177 15.3282 14.3827 15.3282H20.419C20.584 15.3282 20.7179 15.1943 20.7179 15.0294C20.7179 14.8643 20.584 14.7305 20.419 14.7305Z" fill="#29CC97"/>
<path d="M20.7179 20.0493C20.7179 19.8842 20.584 19.7505 20.419 19.7505H14.3827C14.2177 19.7505 14.0839 19.8842 14.0839 20.0493C14.0839 20.2143 14.2177 20.3481 14.3827 20.3481H20.419C20.584 20.3481 20.7179 20.2143 20.7179 20.0493Z" fill="#29CC97"/>
<path d="M14.3827 22.0215H15.9217C16.0866 22.0215 16.2205 21.8877 16.2205 21.7227C16.2205 21.5577 16.0866 21.4238 15.9217 21.4238H14.3827C14.2177 21.4238 14.0839 21.5577 14.0839 21.7227C14.0839 21.8877 14.2177 22.0215 14.3827 22.0215Z" fill="#29CC97"/>
<path d="M19.4329 21.7227C19.4329 21.5577 19.2991 21.4238 19.1341 21.4238H17.2665C17.1015 21.4238 16.9677 21.5577 16.9677 21.7227C16.9677 21.8877 17.1015 22.0215 17.2665 22.0215H19.1341C19.2992 22.0215 19.4329 21.8877 19.4329 21.7227Z" fill="#29CC97"/>
<path d="M14.3827 23.6953H17.0124C17.1773 23.6953 17.3112 23.5615 17.3112 23.3965C17.3112 23.2315 17.1773 23.0977 17.0124 23.0977H14.3827C14.2177 23.0977 14.0839 23.2315 14.0839 23.3965C14.0839 23.5615 14.2177 23.6953 14.3827 23.6953Z" fill="#29CC97"/>
<path d="M17.8507 26.2627C17.8507 25.9312 17.719 25.6132 17.4846 25.3788C17.2502 25.1444 16.9322 25.0127 16.6007 25.0127C16.2692 25.0127 15.9512 25.1444 15.7168 25.3788C15.4824 25.6132 15.3507 25.9312 15.3507 26.2627H11.184C10.963 26.2627 10.7511 26.1749 10.5948 26.0186C10.4385 25.8623 10.3507 25.6504 10.3507 25.4294V12.096C10.3507 11.875 10.4385 11.6631 10.5948 11.5068C10.7511 11.3505 10.963 11.2627 11.184 11.2627H15.3507C15.3507 11.5942 15.4824 11.9122 15.7168 12.1466C15.9512 12.381 16.2692 12.5127 16.6007 12.5127C16.9322 12.5127 17.2502 12.381 17.4846 12.1466C17.719 11.9122 17.8507 11.5942 17.8507 11.2627H26.184C26.4051 11.2627 26.617 11.3505 26.7733 11.5068C26.9296 11.6631 27.0174 11.875 27.0174 12.096V16.6794C26.4648 16.6794 25.9349 16.8989 25.5442 17.2896C25.1535 17.6803 24.934 18.2102 24.934 18.7627C24.934 19.3152 25.1535 19.8451 25.5442 20.2358C25.9349 20.6265 26.4648 20.846 27.0174 20.846V25.4294C27.0174 25.6504 26.9296 25.8623 26.7733 26.0186C26.617 26.1749 26.4051 26.2627 26.184 26.2627H17.8507ZM16.6007 17.5127C16.9322 17.5127 17.2502 17.381 17.4846 17.1466C17.719 16.9122 17.8507 16.5942 17.8507 16.2627C17.8507 15.9312 17.719 15.6132 17.4846 15.3788C17.2502 15.1444 16.9322 15.0127 16.6007 15.0127C16.2692 15.0127 15.9512 15.1444 15.7168 15.3788C15.4824 15.6132 15.3507 15.9312 15.3507 16.2627C15.3507 16.5942 15.4824 16.9122 15.7168 17.1466C15.9512 17.381 16.2692 17.5127 16.6007 17.5127ZM16.6007 22.5127C16.9322 22.5127 17.2502 22.381 17.4846 22.1466C17.719 21.9122 17.8507 21.5942 17.8507 21.2627C17.8507 20.9312 17.719 20.6132 17.4846 20.3788C17.2502 20.1444 16.9322 20.0127 16.6007 20.0127C16.2692 20.0127 15.9512 20.1444 15.7168 20.3788C15.4824 20.6132 15.3507 20.9312 15.3507 21.2627C15.3507 21.5942 15.4824 21.9122 15.7168 22.1466C15.9512 22.381 16.2692 22.5127 16.6007 22.5127Z" fill="white"/>
</g>
<defs>
<clipPath id="clip0_35_1331">
<rect width="36" height="36" fill="white" transform="translate(0.684082 0.762695)"/>
</clipPath>
</defs>
</svg>
