<svg width="18" height="15" viewBox="0 0 188 188" fill="none" xmlns="http://www.w3.org/2000/svg">
<g clip-path="url(#clip0_404_4463)">
<path d="M111.86 15.6667C115.148 15.6675 118.353 16.7029 121.02 18.6262C123.687 20.5494 125.681 23.263 126.72 26.3827L130.973 39.1667H156.667C158.744 39.1667 160.737 39.992 162.206 41.461C163.675 42.93 164.5 44.9225 164.5 47C164.5 49.0775 163.675 51.07 162.206 52.539C160.737 54.008 158.744 54.8333 156.667 54.8333L156.643 55.3895L149.852 150.51C149.428 156.436 146.775 161.983 142.426 166.032C138.077 170.081 132.356 172.333 126.414 172.333H61.5857C55.6437 172.333 49.9227 170.081 45.5741 166.032C41.2255 161.983 38.5722 156.436 38.1483 150.51L31.3568 55.3817C31.3427 55.1992 31.3348 55.0163 31.3333 54.8333C29.2558 54.8333 27.2634 54.008 25.7943 52.539C24.3253 51.07 23.5 49.0775 23.5 47C23.5 44.9225 24.3253 42.93 25.7943 41.461C27.2634 39.992 29.2558 39.1667 31.3333 39.1667H57.0267L61.2802 26.3827C62.3196 23.2618 64.3151 20.5472 66.9836 18.6239C69.6521 16.7005 72.8584 15.6659 76.1478 15.6667H111.852H111.86ZM140.977 54.8333H47.0235L53.7758 149.39C53.9165 151.365 54.8002 153.214 56.2493 154.564C57.6983 155.915 59.6051 156.666 61.5857 156.667H126.414C128.395 156.666 130.302 155.915 131.751 154.564C133.2 153.214 134.084 151.365 134.224 149.39L140.977 54.8333ZM78.3333 78.3333C80.252 78.3336 82.1038 79.038 83.5376 80.3129C84.9714 81.5879 85.8874 83.3447 86.1118 85.2502L86.1667 86.1667V125.333C86.1645 127.33 85.3999 129.25 84.0294 130.702C82.6588 132.154 80.7855 133.028 78.7924 133.145C76.7993 133.262 74.8367 132.613 73.3056 131.332C71.7746 130.05 70.7906 128.232 70.5548 126.25L70.5 125.333V86.1667C70.5 84.0891 71.3253 82.0967 72.7943 80.6277C74.2634 79.1586 76.2558 78.3333 78.3333 78.3333V78.3333ZM109.667 78.3333C111.744 78.3333 113.737 79.1586 115.206 80.6277C116.675 82.0967 117.5 84.0891 117.5 86.1667V125.333C117.5 127.411 116.675 129.403 115.206 130.872C113.737 132.341 111.744 133.167 109.667 133.167C107.589 133.167 105.597 132.341 104.128 130.872C102.659 129.403 101.833 127.411 101.833 125.333V86.1667C101.833 84.0891 102.659 82.0967 104.128 80.6277C105.597 79.1586 107.589 78.3333 109.667 78.3333V78.3333ZM111.86 31.3333H76.14L73.5315 39.1667H114.469L111.852 31.3333H111.86Z" fill="black"/>
</g>
<defs>
<clipPath id="clip0_404_4463">
<rect width="188" height="188" fill="white"/>
</clipPath>
</defs>
</svg>
