<svg width="29" height="29" viewBox="0 0 29 29" fill="none" xmlns="http://www.w3.org/2000/svg">
<path d="M14.1636 28.897C17.8766 28.897 21.4376 27.422 24.0631 24.7965C26.6886 22.171 28.1636 18.61 28.1636 14.897C28.1636 11.1839 26.6886 7.62299 24.0631 4.99748C21.4376 2.37197 17.8766 0.896973 14.1636 0.896973C10.4505 0.896973 6.88959 2.37197 4.26408 4.99748C1.63857 7.62299 0.163574 11.1839 0.163574 14.897C0.163574 18.61 1.63857 22.171 4.26408 24.7965C6.88959 27.422 10.4505 28.897 14.1636 28.897ZM14.1636 16.595L10.9116 19.847C10.6864 20.0721 10.381 20.1986 10.0626 20.1986C9.74414 20.1986 9.43874 20.0721 9.21357 19.847C8.98841 19.6218 8.86191 19.3164 8.86191 18.998C8.86191 18.6795 8.98841 18.3741 9.21357 18.149L12.4656 14.897L9.21357 11.645C9.10208 11.5335 9.01364 11.4011 8.9533 11.2554C8.89296 11.1098 8.86191 10.9536 8.86191 10.796C8.86191 10.6383 8.89296 10.4822 8.9533 10.3365C9.01364 10.1908 9.10208 10.0585 9.21357 9.94697C9.32507 9.83548 9.45743 9.74704 9.6031 9.6867C9.74877 9.62636 9.9049 9.5953 10.0626 9.5953C10.2202 9.5953 10.3764 9.62636 10.522 9.6867C10.6677 9.74704 10.8001 9.83548 10.9116 9.94697L14.1636 13.199L17.4156 9.94697C17.5271 9.83548 17.6594 9.74704 17.8051 9.6867C17.9508 9.62636 18.1069 9.5953 18.2646 9.5953C18.4222 9.5953 18.5784 9.62636 18.7241 9.6867C18.8697 9.74704 19.0021 9.83548 19.1136 9.94697C19.2251 10.0585 19.3135 10.1908 19.3738 10.3365C19.4342 10.4822 19.4652 10.6383 19.4652 10.796C19.4652 10.9536 19.4342 11.1098 19.3738 11.2554C19.3135 11.4011 19.2251 11.5335 19.1136 11.645L15.8616 14.897L19.1136 18.149C19.2251 18.2605 19.3135 18.3928 19.3738 18.5385C19.4342 18.6842 19.4652 18.8403 19.4652 18.998C19.4652 19.1556 19.4342 19.3118 19.3738 19.4574C19.3135 19.6031 19.2251 19.7355 19.1136 19.847C19.0021 19.9585 18.8697 20.0469 18.7241 20.1072C18.5784 20.1676 18.4222 20.1986 18.2646 20.1986C18.1069 20.1986 17.9508 20.1676 17.8051 20.1072C17.6594 20.0469 17.5271 19.9585 17.4156 19.847L14.1636 16.595Z" fill="#E9E9E9"/>
</svg>
