<svg width="15" height="17" viewBox="0 0 15 17" fill="none" xmlns="http://www.w3.org/2000/svg">
<path d="M1.725 16.375C1.57625 16.3776 1.4275 16.3522 1.2875 16.2997L8.33475 9.24986L10.6675 11.5852L2.56938 16.1352C2.31289 16.2857 2.02227 16.3682 1.725 16.375ZM0.706503 15.7931C0.563247 15.5337 0.491953 15.2406 0.500003 14.9444V2.07749C0.498821 1.88217 0.528348 1.68788 0.587503 1.50174L7.79138 8.70736L0.703878 15.7949L0.706503 15.7931ZM11.3631 11.1924L8.87725 8.70824L11.6186 5.96774L14.0538 7.33536C14.521 7.54536 14.8343 7.99599 14.8658 8.50699C14.8502 8.75802 14.7663 9 14.623 9.2067C14.4797 9.41339 14.2825 9.5769 14.0529 9.67949L11.3631 11.1924ZM8.33475 8.16224L1.03725 0.865613C1.23763 0.716863 1.48 0.638113 1.72938 0.637238C2.02338 0.647738 2.31038 0.730863 2.565 0.879613L10.9221 5.57661L8.33563 8.16224H8.33475Z" fill="#2F3941"/>
</svg>
