<svg width="40" height="41" viewBox="0 0 40 41" fill="none" xmlns="http://www.w3.org/2000/svg">
<circle cx="20" cy="20.5" r="20" fill="#E9E9E9"/>
<g clip-path="url(#clip0_214_140)">
<path d="M20 17.4C21.36 17.4 22.448 16.32 22.448 15C22.448 13.68 21.36 12.6 20 12.6C18.64 12.6 17.552 13.68 17.552 15C17.552 16.32 18.64 17.4 20 17.4ZM20 19C17.76 19 15.952 17.208 15.952 15C15.952 12.792 17.76 11 20 11C22.24 11 24.048 12.792 24.048 15C24.048 17.208 22.24 19 20 19ZM14.4 25.4H25.6V24.336C25.6 22.936 23.752 21.488 20 21.488C16.248 21.488 14.4 22.936 14.4 24.336V25.4ZM20 19.888C25.328 19.888 27.2 22.552 27.2 24.336V27H12.8V24.336C12.8 22.552 14.672 19.888 20 19.888V19.888Z" fill="#444444"/>
</g>
<defs>
<clipPath id="clip0_214_140">
<rect width="16" height="16" fill="white" transform="translate(12 11)"/>
</clipPath>
</defs>
</svg>
