<svg width="94" height="94" viewBox="0 0 94 94" fill="none" xmlns="http://www.w3.org/2000/svg">
<g clip-path="url(#clip0_19_99)">
<path d="M11.855 22.4795H23.48V34.1045H11.855V22.4795Z" fill="black"/>
<path d="M35.105 10.8545V45.7295H0.22998V10.8545H35.105ZM29.2925 16.667H6.04248V39.917H29.2925V16.667ZM23.48 80.6045H11.855V92.2295H23.48V80.6045Z" fill="black"/>
<path d="M35.105 68.9795V103.854H0.22998V68.9795H35.105ZM6.04248 74.792V98.042H29.2925V74.792H6.04248ZM69.98 22.4795H81.605V34.1045H69.98V22.4795Z" fill="black"/>
<path d="M58.355 10.8545V45.7295H93.23V10.8545H58.355ZM87.4175 16.667V39.917H64.1675V16.667H87.4175ZM46.73 16.667V10.8545H52.5425V22.4795H46.73V34.1045H40.9175V16.667H46.73ZM46.73 45.7295V34.1045H52.5425V45.7295H46.73ZM35.105 57.3545V51.542H40.9175V45.7295H46.73V57.3545H52.5425V51.542H81.605V57.3545H58.355V63.167H40.9175V57.3545H35.105ZM35.105 57.3545V63.167H11.855V57.3545H6.04248V63.167H0.22998V51.542H17.6675V57.3545H35.105ZM93.23 63.167H87.4175V51.542H93.23V63.167ZM87.4175 63.167H81.605V74.792H93.23V68.9795H87.4175V63.167ZM64.1675 63.167H75.7925V68.9795H69.98V74.792H64.1675V63.167ZM75.7925 80.6045V74.792H69.98V80.6045H64.1675V86.417H52.5425V92.2295H69.98V80.6045H75.7925ZM75.7925 80.6045H93.23V86.417H81.605V92.2295H75.7925V80.6045ZM52.5425 74.792V80.6045H58.355V68.9795H40.9175V74.792H52.5425Z" fill="black"/>
<path d="M40.9175 80.6045H46.73V98.042H69.98V103.854H40.9175V80.6045ZM93.23 92.2295V103.854H75.7925V98.042H87.4175V92.2295H93.23Z" fill="black"/>
</g>
<defs>
<clipPath id="clip0_19_99">
<rect width="93" height="93" fill="white" transform="translate(0.22998 0.854492)"/>
</clipPath>
</defs>
</svg>
