<svg width="107" height="71" viewBox="0 0 107 71" fill="none" xmlns="http://www.w3.org/2000/svg">
<g clip-path="url(#clip0_40_370)">
<path d="M22.6322 71.0001C22.6013 71.0001 22.5703 71.0001 22.5703 70.9693C22.5084 70.9386 22.4774 70.8464 22.5084 70.7542C25.4187 65.2832 28.9792 60.1196 33.066 55.417C33.1279 55.3555 33.2208 55.3555 33.2827 55.417C33.3446 55.4784 33.3446 55.5706 33.2827 55.6321C29.2269 60.304 25.6664 65.4369 22.7561 70.9079C22.7561 70.9693 22.6942 71.0001 22.6322 71.0001Z" fill="black"/>
<path d="M18.917 68.0801C18.886 68.0801 18.855 68.0801 18.8241 68.0493C18.7622 67.9878 18.7312 67.8956 18.7931 67.8342C21.9201 63.3467 25.5116 59.1359 29.4126 55.2939C29.4745 55.2324 29.5674 55.2324 29.6293 55.2939C29.6913 55.3554 29.6913 55.4476 29.6293 55.5091C25.7283 59.3203 22.1678 63.5311 19.0408 68.0186C19.0098 68.0493 18.9789 68.0801 18.917 68.0801Z" fill="black"/>
<path d="M0.154803 58.091C0.0928819 58.091 0.0309606 58.0295 0 57.9681C0 57.8759 0.0309606 57.8144 0.123843 57.7836C9.84549 56.2776 19.1646 53.204 27.8336 48.5936C27.8955 48.5629 27.9884 48.5936 28.0503 48.6551C28.0813 48.7165 28.0503 48.8088 27.9884 48.8702C19.2885 53.4806 9.90741 56.5849 0.154803 58.091Z" fill="black"/>
<path d="M1.11458 68.0802C1.05266 68.0802 1.0217 68.0494 0.990741 68.0187C0.95978 67.9572 0.95978 67.865 1.05266 67.8035L27.555 51.5135C27.6169 51.4828 27.7098 51.4828 27.7717 51.575C27.8027 51.6364 27.8027 51.7286 27.7098 51.7901L1.20747 68.0802C1.14554 68.0802 1.14554 68.0802 1.11458 68.0802Z" fill="black"/>
<path d="M37.4933 18.9026C37.4933 18.4416 37.8649 18.0728 38.3293 18.0728C38.7937 18.0728 39.1652 18.4416 39.1652 18.9026C39.1652 19.3637 38.7937 19.7325 38.3293 19.7325C37.8958 19.7325 37.4933 19.3637 37.4933 18.9026Z" fill="white"/>
<path d="M38.3602 19.8863C37.803 19.8863 37.3695 19.456 37.3695 18.9027C37.3695 18.3495 37.803 17.9192 38.3602 17.9192C38.9175 17.9192 39.351 18.3495 39.351 18.9027C39.351 19.4253 38.8866 19.8863 38.3602 19.8863ZM38.3602 18.1958C37.9887 18.1958 37.6791 18.5032 37.6791 18.872C37.6791 19.2408 37.9887 19.5482 38.3602 19.5482C38.7318 19.5482 39.0414 19.2408 39.0414 18.872C39.0414 18.5032 38.7318 18.1958 38.3602 18.1958Z" fill="black"/>
<path d="M73.2219 1.10648C73.2219 0.645442 73.5935 0.276611 74.0579 0.276611C74.5223 0.276611 74.8938 0.645442 74.8938 1.10648C74.8938 1.56752 74.5223 1.93635 74.0579 1.93635C73.6244 1.93635 73.2219 1.56752 73.2219 1.10648Z" fill="white"/>
<path d="M74.0888 2.09015C73.5315 2.09015 73.0981 1.65984 73.0981 1.1066C73.0981 0.55335 73.5315 0.123047 74.0888 0.123047C74.6461 0.123047 75.0796 0.55335 75.0796 1.1066C75.0796 1.65984 74.6152 2.09015 74.0888 2.09015ZM74.0888 0.39967C73.7173 0.39967 73.4077 0.70703 73.4077 1.07586C73.4077 1.44469 73.7173 1.75205 74.0888 1.75205C74.4604 1.75205 74.77 1.44469 74.77 1.07586C74.77 0.70703 74.4604 0.39967 74.0888 0.39967Z" fill="black"/>
<path d="M75.2653 47.8865C75.2653 47.1181 75.9155 46.4727 76.6895 46.4727C77.4635 46.4727 78.1137 47.1181 78.1137 47.8865C78.1137 48.6549 77.4635 49.3004 76.6895 49.3004C75.9155 49.3004 75.2653 48.6549 75.2653 47.8865Z" fill="white"/>
<path d="M76.6895 49.4234C75.8226 49.4234 75.1105 48.7165 75.1105 47.8559C75.1105 46.9953 75.8226 46.2883 76.6895 46.2883C77.5564 46.2883 78.2685 46.9953 78.2685 47.8559C78.2376 48.7165 77.5255 49.4234 76.6895 49.4234ZM76.6895 46.5957C75.9774 46.5957 75.4201 47.1489 75.4201 47.8559C75.4201 48.5628 75.9774 49.116 76.6895 49.116C77.4016 49.116 77.9589 48.5628 77.9589 47.8559C77.9589 47.1797 77.3707 46.5957 76.6895 46.5957Z" fill="black"/>
<path d="M102.387 31.4123C95.7303 31.566 89.1047 31.7504 82.4482 31.9041C80.5906 31.9656 78.5781 31.9348 77.1849 30.7361C75.6059 29.3837 75.6059 26.679 77.1539 25.3266C78.702 23.9742 81.4884 24.2816 82.6649 25.9721C82.634 23.2673 85.4204 21.0236 88.2069 21.1158C90.9933 21.208 93.4392 23.298 94.4609 25.8184C94.2752 24.1279 96.3186 22.7448 98.0214 23.1751C99.7242 23.6054 100.808 25.3881 100.87 27.0786C102.108 25.3266 105.297 25.3881 106.443 27.2322C106.752 27.724 106.907 28.308 106.845 28.8612C106.721 30.0599 105.576 30.982 104.368 31.2894C103.13 31.6275 101.861 31.4123 102.387 31.4123Z" fill="white"/>
<path d="M81.6123 32.0884C79.9404 32.0884 78.2685 31.904 77.0611 30.8897C76.287 30.2135 75.8226 29.1993 75.8226 28.0928C75.8226 26.9863 76.2561 25.9412 77.0301 25.2958C77.8041 24.6196 78.9187 24.3122 80.0333 24.4352C81.024 24.5581 81.8909 24.9884 82.5101 25.6339C82.603 24.5581 83.1293 23.5438 83.9962 22.6832C85.1108 21.5767 86.6898 20.962 88.2069 21.0235C90.6837 21.1157 93.1296 22.8062 94.3061 25.2343C94.399 24.7118 94.7086 24.22 95.173 23.8205C95.978 23.1443 97.0926 22.8677 98.0214 23.1135C99.7242 23.5746 100.746 25.2343 100.963 26.8018C101.613 26.1257 102.604 25.7261 103.687 25.7568C104.926 25.7876 106.009 26.3408 106.567 27.2629C106.907 27.8161 107.062 28.4309 107 28.9841C106.845 30.3365 105.545 31.2586 104.399 31.5352C103.625 31.7196 102.511 31.7503 102.201 31.6274L82.4172 32.1192C82.1696 32.0577 81.8909 32.0884 81.6123 32.0884ZM79.5379 24.6811C78.671 24.6811 77.8351 24.9577 77.2468 25.4802C76.5347 26.0949 76.1322 27.0477 76.1322 28.062C76.1322 29.107 76.5657 30.0291 77.2778 30.6438C78.5781 31.7503 80.4667 31.8118 82.4482 31.7503L102.356 31.2586H102.387C102.418 31.2586 102.48 31.2893 102.511 31.32C102.851 31.3508 103.594 31.3815 104.337 31.1971C105.39 30.9512 106.598 30.1213 106.721 28.8919C106.783 28.4001 106.628 27.8469 106.319 27.3551C105.793 26.5252 104.833 26.0335 103.687 26.0027C102.542 25.972 101.551 26.433 100.994 27.2014C100.963 27.2629 100.901 27.2629 100.839 27.2629C100.777 27.2322 100.746 27.2014 100.746 27.1399C100.684 25.6031 99.7242 23.8205 97.9905 23.3594C97.1545 23.1443 96.1328 23.3902 95.4207 24.0049C94.8325 24.4967 94.5538 25.1728 94.6157 25.8183C94.6157 25.8798 94.5848 25.972 94.4919 25.972C94.43 26.0027 94.3371 25.9412 94.3061 25.8798C93.2535 23.2672 90.7457 21.3616 88.2069 21.2694C86.7827 21.2079 85.2966 21.7919 84.213 22.8369C83.2841 23.7283 82.7888 24.8348 82.8197 25.972C82.8197 26.0335 82.7888 26.0949 82.7269 26.1257C82.6649 26.1564 82.603 26.1257 82.5721 26.0642C82.0148 25.2958 81.1169 24.804 80.0642 24.6811C79.8475 24.6811 79.6927 24.6811 79.5379 24.6811Z" fill="black"/>
<g opacity="0.1294">
<path d="M105.978 29.5987C105.669 29.8446 105.7 29.8753 105.235 30.0905C104.957 30.2134 104.306 30.3671 103.749 30.3978C103.13 30.4286 102.48 30.3056 101.861 30.3056C100.158 30.3056 98.4858 30.3364 96.783 30.3364C94.6157 30.3671 92.4175 30.3978 90.2503 30.4286C89.4763 30.4593 88.7332 30.5208 87.9592 30.5822C87.0923 30.6437 86.1944 30.6745 85.2966 30.7052C83.9653 30.7359 82.6649 30.8281 81.3336 30.7359C81.1169 30.7052 80.8692 30.6437 80.7144 30.8281C80.4667 31.074 80.6525 31.5658 81.024 31.5351C81.9528 31.658 82.8817 31.6273 83.7795 31.5965C84.151 31.5965 84.4916 31.5965 84.8631 31.5658C84.8941 31.658 84.987 31.7195 85.1108 31.6887C86.1944 31.7809 87.2781 31.7195 88.3617 31.781C90.9005 31.8732 93.4702 31.8424 96.009 31.6887C96.9378 31.6273 97.8976 31.5965 98.8264 31.5658C99.167 31.5658 99.4766 31.5351 99.8171 31.5043C99.91 31.5043 100.034 31.5043 100.096 31.4121C100.158 31.3506 100.158 31.2892 100.158 31.2277C100.777 31.2277 101.365 31.2277 101.984 31.2277C102.139 31.2277 102.294 31.2277 102.449 31.2277C102.449 31.3199 102.48 31.4121 102.573 31.4429C102.666 31.5043 102.789 31.4736 102.882 31.4736C103.068 31.4429 103.254 31.4429 103.44 31.4121C103.749 31.3814 104.059 31.2892 104.368 31.2277C104.492 31.197 104.647 31.1662 104.771 31.1048C104.833 31.0433 104.864 30.9818 104.864 30.9203C105.359 30.7667 105.823 30.49 106.164 30.1212C106.257 29.9983 106.443 29.9061 106.443 29.7216C106.443 29.568 106.133 29.445 105.978 29.5987Z" fill="black"/>
</g>
<path d="M67.0608 68.5411C70.8689 68.6026 74.708 68.5104 78.4852 68.2645C78.9806 68.2338 79.476 68.203 79.9404 67.9879C81.055 67.4346 81.3336 65.7134 80.4667 64.8221C79.5998 63.9307 77.928 64.0229 77.123 64.9757C77.0611 63.5619 75.9465 62.2095 74.5532 62.1173C73.6554 62.0558 72.7575 62.5169 72.1383 63.1623C71.5191 63.8078 71.1166 64.6377 70.776 65.4675C70.6832 64.8835 70.0639 64.4532 69.4447 64.3918C68.8255 64.3303 68.2373 64.5762 67.7109 64.8528C66.9988 65.2524 66.2867 65.8056 66.0081 66.574C65.7914 67.3424 66.07 68.5104 67.0608 68.5411Z" fill="white"/>
<path d="M69.2899 68.6948C68.5469 68.6948 67.8038 68.6948 67.0917 68.6641C66.6892 68.6641 66.3487 68.4797 66.1319 68.1723C65.8223 67.742 65.7604 67.0351 65.9462 66.4818C66.1939 65.7749 66.7821 65.1602 67.7109 64.6684C68.423 64.2996 68.9803 64.1459 69.5376 64.1766C70.033 64.2074 70.5903 64.5147 70.838 64.9758C71.1166 64.3303 71.4881 63.5927 72.0764 62.9779C72.7885 62.2403 73.7173 61.8407 74.6152 61.9022C75.9155 61.9944 77.092 63.1624 77.3087 64.5762C77.7112 64.2074 78.2995 63.9922 78.8877 63.9922C79.5689 63.9615 80.219 64.2074 80.6215 64.6684C81.0859 65.1295 81.2717 65.8671 81.1479 66.574C81.024 67.2502 80.6215 67.8035 80.0642 68.0801C79.5689 68.326 79.0116 68.3567 78.5472 68.3875C75.4511 68.6026 72.355 68.6948 69.2899 68.6948ZM67.0608 68.3875C70.8689 68.4489 74.708 68.3567 78.4852 68.1108C78.9497 68.0801 79.445 68.0494 79.8785 67.8342C80.3429 67.5883 80.6834 67.1273 80.8073 66.5433C80.9311 65.9286 80.7454 65.3139 80.3738 64.9143C80.0023 64.5147 79.445 64.3303 78.8568 64.3303C78.2376 64.3611 77.6493 64.6069 77.2778 65.0372C77.2468 65.0987 77.1849 65.0987 77.123 65.068C77.0611 65.0372 77.0301 65.0065 77.0301 64.945C76.9682 63.5312 75.8536 62.3017 74.5842 62.2095C73.8102 62.1481 72.9433 62.5169 72.2931 63.1931C71.6429 63.8693 71.2405 64.7606 70.9618 65.4675C70.9308 65.529 70.8689 65.5598 70.807 65.5598C70.7451 65.5598 70.6832 65.4983 70.6832 65.4368C70.5903 64.8836 70.002 64.5455 69.5067 64.484C69.0113 64.4533 68.485 64.5762 67.8657 64.945C66.9988 65.4061 66.4725 65.9593 66.2558 66.6048C66.101 67.0658 66.1629 67.6498 66.4106 68.0186C66.5344 68.2645 66.7821 68.3875 67.0608 68.3875Z" fill="black"/>
<g opacity="0.1294">
<path d="M81.024 66.4512C81.024 66.2361 80.7144 66.0824 80.5287 66.2053C80.4667 66.2361 80.4358 66.2668 80.4048 66.3283C80.4048 66.3283 80.4048 66.3283 80.3738 66.359C80.25 66.5127 80.1881 66.6971 79.9404 66.8201C79.6927 66.9737 78.0828 67.2811 77.866 67.3118C77.0611 67.3733 76.287 67.4348 75.4821 67.404C75.0796 67.3733 74.6461 67.404 74.2436 67.404C73.7792 67.404 73.3148 67.3733 72.8504 67.404C71.6739 67.4348 70.4974 67.527 69.2899 67.6192C68.7326 67.6192 68.1444 67.6499 67.5871 67.6807C67.4013 67.6807 67.2156 67.6807 67.0298 67.7114C66.9369 67.7114 66.8131 67.7421 66.7512 67.8343C66.5035 68.0495 66.6892 68.5105 67.0298 68.4798C67.9586 68.4491 68.8565 68.4491 69.7853 68.4183C70.776 68.3876 71.7358 68.2954 72.7266 68.2954C73.2839 68.2646 73.8411 68.3261 74.3984 68.3261C74.9867 68.3261 75.544 68.3261 76.1322 68.3261C76.9372 68.2954 77.6183 68.2032 78.2066 68.111C78.2376 68.2646 78.3924 68.3876 78.6091 68.3261C79.0425 68.2646 79.445 68.2032 79.8475 68.0495C80.0333 67.9573 80.219 67.8958 80.3429 67.7421C80.4048 67.6499 80.4048 67.5577 80.3738 67.4655C80.4358 67.4348 80.4977 67.3733 80.5906 67.3118C80.8073 67.1274 80.9931 66.9123 81.055 66.6356C81.055 66.6356 81.055 66.6356 81.055 66.6049C81.024 66.5434 81.024 66.482 81.024 66.4512Z" fill="black"/>
</g>
<path d="M47.6484 29.9368L36.3788 26.5251L23.6849 39.5572L42.4161 36.3606L47.6484 29.9368Z" fill="white"/>
<path d="M23.6849 39.7108C23.623 39.7108 23.592 39.6801 23.5611 39.6186C23.5301 39.5571 23.5301 39.4956 23.592 39.4342L36.2859 26.4329C36.3168 26.4021 36.3788 26.3714 36.4407 26.4021L47.7104 29.7831C47.7723 29.7831 47.8032 29.8446 47.8032 29.8753C47.8032 29.9368 47.8032 29.9675 47.7723 29.9982L42.5399 36.422C42.509 36.4528 42.478 36.4835 42.4471 36.4835L23.6849 39.7108ZM36.4407 26.7095L24.1183 39.342L42.3232 36.2376L47.4008 30.029L36.4407 26.7095Z" fill="black"/>
<path d="M59.4135 43.9832L58.237 55.6013L41.2705 62.2403L51.4256 46.3191L59.4135 43.9832Z" fill="white"/>
<path d="M41.2705 62.3941C41.2396 62.3941 41.1777 62.3634 41.1467 62.3326C41.1157 62.2711 41.1157 62.2097 41.1467 62.1482L51.3018 46.227C51.3328 46.1963 51.3637 46.1655 51.3947 46.1655L59.3825 43.8296C59.4444 43.8296 59.4754 43.8296 59.5064 43.8603C59.5373 43.8911 59.5683 43.9525 59.5683 43.9833L58.3918 55.6014C58.3918 55.6629 58.3608 55.6937 58.2989 55.7244L41.3015 62.3634C41.3015 62.3941 41.2705 62.3941 41.2705 62.3941ZM51.5185 46.4421L41.6111 61.9331L58.0822 55.4785L59.2277 44.1677L51.5185 46.4421Z" fill="black"/>
<path d="M45.0787 48.3169C42.0446 50.9909 41.3015 52.6507 40.1869 54.2489C36.6264 51.0524 34.0567 47.3026 32.5087 43.184C35.5428 42.6615 37.4624 41.8316 39.7844 40.7559C41.4563 43.4914 43.4997 45.9195 45.0787 48.3169Z" fill="white"/>
<path d="M40.1869 54.4026C40.156 54.4026 40.125 54.4026 40.094 54.3719C36.5026 51.1139 33.9019 47.3948 32.3848 43.2455C32.3848 43.2147 32.3848 43.1533 32.3848 43.1225C32.4158 43.0918 32.4468 43.061 32.4777 43.061C35.5428 42.5385 37.4933 41.7087 39.7225 40.6329C39.7844 40.6022 39.8773 40.6329 39.9083 40.6944C40.8681 42.2619 41.9826 43.768 43.0353 45.2126C43.8093 46.2576 44.5524 47.2411 45.2025 48.2554C45.2335 48.3169 45.2335 48.4091 45.1716 48.4398C42.7876 50.5299 41.8588 52.0052 40.9919 53.2961C40.7442 53.6649 40.5275 54.003 40.2798 54.3411C40.2798 54.3719 40.2488 54.4026 40.1869 54.4026ZM32.7254 43.3069C34.2425 47.2719 36.7193 50.8987 40.156 54.0338C40.3727 53.7264 40.5584 53.4498 40.7752 53.1117C41.6111 51.8208 42.5709 50.3455 44.8929 48.2862C44.2428 47.3333 43.5307 46.3805 42.7876 45.3662C41.735 43.9524 40.6823 42.5078 39.7225 40.9403C37.5862 41.9546 35.6667 42.7844 32.7254 43.3069Z" fill="black"/>
<path d="M39.1652 42.5076C40.0012 44.2903 41.1157 45.9193 42.509 47.3024C43.7784 48.5933 45.2645 49.7306 46.9363 50.6219C47.3698 50.8678 47.3388 50.6526 47.8032 50.8678C53.2523 49.4847 75.4511 35.2847 81.798 30.7972C95.0182 21.4228 98.7645 4.08771 98.7645 4.08771C98.7645 4.08771 81.055 1.93619 67.8038 11.3107C61.1782 16.0132 40.7752 32.8565 37.7101 37.6821C37.9578 39.4033 38.4531 41.0016 39.1652 42.5076Z" fill="white"/>
<path d="M47.7723 51.0523C47.7413 51.0523 47.7413 51.0523 47.7104 51.0523C47.5246 50.9601 47.4317 50.9601 47.3388 50.9601C47.215 50.9601 47.0911 50.9601 46.8435 50.8064C45.2025 49.9151 43.6855 48.7778 42.3851 47.4562C40.9919 46.0423 39.8773 44.4133 39.0104 42.5999C38.2983 41.0939 37.803 39.4649 37.5243 37.7744C37.5243 37.7436 37.5243 37.7129 37.5553 37.6822C40.6204 32.8566 60.8996 16.0748 67.7109 11.2493C74.5842 6.39299 82.634 4.67178 88.2069 4.0878C94.2442 3.44234 98.7025 3.99559 98.7645 3.99559C98.7954 3.99559 98.8573 4.02632 98.8573 4.05706C98.8883 4.0878 98.8883 4.11853 98.8883 4.18C98.8883 4.21074 97.9285 8.60598 95.3588 14.0462C93.0058 19.0869 88.7332 26.0947 81.86 30.951C75.7917 35.254 53.4381 49.6077 47.8342 51.0523C47.8032 51.0523 47.8032 51.0523 47.7723 51.0523ZM37.8339 37.7436C38.1126 39.3726 38.6079 40.9709 39.2891 42.4462C40.125 44.2289 41.2396 45.8272 42.6019 47.2103C43.9022 48.532 45.3574 49.6384 46.9983 50.4991C47.184 50.622 47.2769 50.622 47.3698 50.622C47.4627 50.622 47.5865 50.622 47.8032 50.7142C53.2214 49.2696 75.2344 35.2233 81.6742 30.6744C88.4855 25.8488 92.6962 18.8718 95.0492 13.8926C97.3093 9.06702 98.331 5.07135 98.5168 4.24148C97.6499 4.14927 93.5321 3.81117 88.2069 4.36442C82.6649 4.9484 74.6461 6.63888 67.8657 11.4644C61.0854 16.2592 40.9919 32.8874 37.8339 37.7436Z" fill="black"/>
<path d="M47.246 48.0097C45.1097 46.4729 43.3449 44.4136 41.9517 42.2006C41.1777 40.9712 40.5275 39.6496 40.0321 38.2664C39.7535 37.5595 39.5367 36.8526 39.351 36.1149C39.32 35.992 39.2891 35.869 39.2581 35.7461C38.546 36.5452 37.9887 37.2214 37.6481 37.7439C37.9268 39.4344 38.4222 41.0327 39.1343 42.5387C39.9702 44.3214 41.0848 45.9504 42.478 47.3335C43.7474 48.6244 45.2335 49.7617 46.9054 50.653C47.3388 50.8989 47.3079 50.6838 47.7723 50.8989C48.4844 50.7145 49.4442 50.3457 50.6207 49.7924C49.4132 49.3621 48.2986 48.7474 47.246 48.0097Z" fill="white"/>
<path d="M47.7723 51.0525C47.7413 51.0525 47.7413 51.0525 47.7104 51.0525C47.5246 50.9603 47.4317 50.9603 47.3388 50.9603C47.215 50.9603 47.0911 50.9603 46.8435 50.8066C45.2025 49.9153 43.6855 48.7781 42.3851 47.4564C40.9919 46.0426 39.8773 44.4136 39.0104 42.6001C38.2983 41.0941 37.803 39.4651 37.5243 37.7746C37.5243 37.7439 37.5243 37.7131 37.5553 37.6824C37.8958 37.1599 38.4222 36.4837 39.1652 35.6538C39.1962 35.6231 39.2581 35.5923 39.32 35.6231C39.3819 35.6231 39.4129 35.6846 39.4129 35.746C39.4439 35.869 39.4748 35.9919 39.5058 36.1149C39.6606 36.791 39.8773 37.498 40.156 38.2664C40.6823 39.6495 41.3015 40.9711 42.0755 42.1698C43.5926 44.598 45.3574 46.5343 47.3388 47.9482C48.3915 48.7166 49.5061 49.3006 50.6826 49.7001C50.7445 49.7309 50.7755 49.7616 50.7755 49.8231C50.7755 49.8846 50.7445 49.946 50.6826 49.9768C49.4442 50.5607 48.4844 50.9296 47.8032 51.114C47.8032 51.0525 47.8032 51.0525 47.7723 51.0525ZM37.8339 37.7439C38.1126 39.3729 38.6079 40.9711 39.2891 42.4465C40.125 44.2291 41.2396 45.8274 42.6019 47.2105C43.9022 48.5322 45.3574 49.6387 46.9983 50.4993C47.184 50.6222 47.2769 50.6222 47.3698 50.6222C47.4627 50.6222 47.5865 50.6222 47.8032 50.7144C48.3915 50.5607 49.2274 50.2534 50.2491 49.7616C49.1965 49.362 48.1438 48.7781 47.184 48.1019C45.2025 46.6573 43.4068 44.6902 41.8588 42.2313C41.0848 41.0019 40.4346 39.6802 39.9083 38.2971C39.6296 37.5287 39.4129 36.8218 39.2271 36.1149C39.2271 36.0841 39.1962 36.0534 39.1962 36.0226C38.577 36.7296 38.1126 37.3136 37.8339 37.7439Z" fill="black"/>
<path d="M76.6895 11.5259C77.5255 13.0627 78.4233 14.5995 79.3831 16.0749C80.3429 17.5502 81.3646 18.9948 82.5101 20.3471C83.6247 21.6995 84.8322 22.9597 86.1325 24.0969C86.6589 24.558 87.1852 24.9883 87.7425 25.3878C96.1328 15.9826 98.7025 4.08784 98.7025 4.08784C98.7025 4.08784 86.3802 2.61251 74.6152 7.53026C75.2963 8.88264 75.9774 10.2043 76.6895 11.5259Z" fill="white"/>
<path d="M87.7734 25.5416C87.7425 25.5416 87.7115 25.5416 87.6806 25.5109C87.0923 25.0806 86.566 24.6503 86.0706 24.1892C84.8012 23.0827 83.5937 21.8226 82.4172 20.4087C81.3336 19.1178 80.3119 17.7039 79.2902 16.1364C78.3924 14.7533 77.4945 13.278 76.5657 11.5568C75.9155 10.3581 75.2653 9.12862 74.4913 7.59182C74.4604 7.56109 74.4604 7.49962 74.4913 7.46888C74.4913 7.43814 74.5223 7.40741 74.5842 7.37667C80.6834 4.82559 86.9375 4.02646 91.0862 3.78057C95.6065 3.53468 98.7025 3.90351 98.7335 3.90351C98.7645 3.90351 98.8264 3.93425 98.8264 3.96498C98.8573 3.99572 98.8573 4.02646 98.8573 4.08793C98.8573 4.11866 98.2072 7.13079 96.5353 11.2187C94.9873 14.9992 92.2318 20.5624 87.8973 25.4187C87.8663 25.5416 87.8044 25.5416 87.7734 25.5416ZM76.8443 11.4646C77.7731 13.155 78.64 14.6304 79.5379 16.0135C80.5596 17.581 81.5813 18.9641 82.634 20.255C83.7795 21.6381 85.0179 22.8983 86.2564 24.0048C86.7208 24.4044 87.2161 24.8039 87.7425 25.2035C92.015 20.378 94.7086 14.9377 96.2566 11.1879C97.7118 7.62256 98.3929 4.9178 98.5477 4.24161C97.8356 4.18014 95.0182 3.93425 91.0862 4.11866C86.9685 4.33382 80.8382 5.13295 74.8319 7.62256C75.5749 9.09788 76.1941 10.2966 76.8443 11.4646Z" fill="black"/>
<path d="M87.7734 21.085C86.7208 19.9785 85.761 18.8412 84.8322 17.6425C83.9034 16.4438 83.0055 15.2144 82.2005 13.9235C81.3955 12.6633 80.6525 11.3417 79.9714 9.98929C79.3521 8.75985 78.7949 7.49968 78.2685 6.2395C77.0611 6.60833 75.8536 7.06937 74.6461 7.56115C75.3273 8.88279 76.0084 10.2044 76.7205 11.5261C77.5564 13.0629 78.4543 14.5997 79.4141 16.075C80.3738 17.5503 81.3955 18.9949 82.5411 20.3473C83.6557 21.6997 84.8631 22.9598 86.1635 24.0971C86.6898 24.5581 87.2161 24.9884 87.7734 25.388C88.4546 24.6196 89.1047 23.8205 89.724 23.0213C89.0428 22.4066 88.3927 21.7611 87.7734 21.085Z" fill="white"/>
<path d="M87.7734 25.5416C87.7425 25.5416 87.7115 25.5416 87.6806 25.5108C87.0923 25.0805 86.566 24.6502 86.0706 24.1892C84.8012 23.0827 83.5937 21.8225 82.4172 20.4087C81.3336 19.1178 80.3119 17.7039 79.2902 16.1364C78.3924 14.7533 77.4945 13.2779 76.5657 11.5567C75.9155 10.358 75.2653 9.12858 74.4913 7.59178C74.4604 7.56104 74.4604 7.49957 74.4913 7.46884C74.4913 7.4381 74.5223 7.40736 74.5842 7.37663C75.7297 6.88485 76.9682 6.45455 78.2066 6.05498C78.2685 6.02425 78.3614 6.05498 78.3924 6.14719C78.8877 7.40736 79.476 8.66754 80.0952 9.89697C80.7454 11.1879 81.4884 12.5095 82.3244 13.8004C83.1293 15.0299 83.9962 16.29 84.956 17.5195C85.8848 18.7182 86.8756 19.8554 87.8973 20.9619C88.5784 21.6996 89.1976 22.3143 89.8478 22.8983C89.9097 22.9597 89.9097 23.0212 89.8788 23.0827C89.2286 23.9126 88.5784 24.7117 87.9282 25.4494C87.8663 25.5416 87.8044 25.5416 87.7734 25.5416ZM74.8319 7.65325C75.5749 9.09784 76.1941 10.3273 76.8134 11.4645C77.7422 13.155 78.6091 14.6303 79.5069 16.0134C80.5286 17.581 81.5503 18.9641 82.603 20.255C83.7485 21.6381 84.987 22.8983 86.2254 24.0048C86.6898 24.4043 87.1852 24.8039 87.7115 25.2035C88.2998 24.5273 88.888 23.8204 89.4763 23.052C88.888 22.4987 88.2688 21.884 87.6186 21.1771C86.5969 20.0706 85.5752 18.9026 84.6464 17.7346C83.6866 16.5052 82.7888 15.245 82.0147 13.9849C81.1788 12.6632 80.4358 11.3416 79.7546 10.0507C79.1664 8.85195 78.6091 7.65325 78.1137 6.42381C77.0301 6.79265 75.9155 7.19221 74.8319 7.65325Z" fill="black"/>
<path d="M74.9213 26.7017C75.4785 23.5071 73.3215 20.469 70.1036 19.9159C66.8857 19.3628 63.8253 21.5041 63.2682 24.6986C62.711 27.8932 64.868 30.9313 68.0859 31.4844C71.3038 32.0376 74.3641 29.8962 74.9213 26.7017Z" fill="white"/>
<path d="M69.1042 31.7195C68.7636 31.7195 68.423 31.6887 68.0825 31.6273C66.4725 31.3507 65.0793 30.49 64.1505 29.1684C63.2216 27.8468 62.8501 26.2485 63.0978 24.681C63.3764 23.0827 64.2433 21.6996 65.5747 20.7775C66.906 19.8554 68.5159 19.4866 70.0949 19.7325C71.7049 20.0091 73.0981 20.8697 74.0269 22.1913C74.9557 23.513 75.3273 25.1113 75.0796 26.6788C74.8009 28.2771 73.934 29.6602 72.6027 30.5823C71.581 31.3199 70.3426 31.7195 69.1042 31.7195ZM69.0732 19.9476C67.8657 19.9476 66.7202 20.3165 65.7295 21.0234C64.4601 21.9147 63.6551 23.2364 63.3764 24.7424C63.1288 26.2485 63.4693 27.7853 64.3672 29.0147C65.265 30.2749 66.5964 31.074 68.1134 31.3507C69.6305 31.5965 71.1785 31.2584 72.417 30.3671C73.6863 29.4758 74.4913 28.1541 74.77 26.6481C75.0177 25.142 74.6771 23.6052 73.7792 22.3758C72.8814 21.1156 71.5501 20.3165 70.033 20.0398C69.7234 19.9784 69.3828 19.9476 69.0732 19.9476Z" fill="black"/>
<path d="M66.6273 22.2529C68.5469 20.9006 71.1785 21.3309 72.5408 23.2365C73.9031 25.1421 73.4696 27.7547 71.5501 29.107C69.6305 30.4594 66.9988 30.0291 65.6366 28.1235C64.2743 26.2486 64.7078 23.6053 66.6273 22.2529Z" fill="white"/>
<path d="M69.1042 30.0291C68.8565 30.0291 68.6088 29.9984 68.3611 29.9676C67.2156 29.7832 66.1939 29.1378 65.5127 28.1849C64.8316 27.2321 64.5529 26.0949 64.7697 24.9269C64.9554 23.7897 65.6056 22.7754 66.5654 22.0992C68.5469 20.7161 71.2714 21.1464 72.6956 23.1135C73.3767 24.0663 73.6554 25.2036 73.4387 26.3715C73.2529 27.5088 72.6027 28.523 71.6429 29.1992C70.8999 29.7525 70.002 30.0291 69.1042 30.0291ZM66.7202 22.3759C65.8223 23.0213 65.2341 23.9434 65.0483 25.0191C64.8626 26.0949 65.1102 27.1707 65.7604 28.062C66.4106 28.9533 67.3394 29.5373 68.423 29.7217C69.5067 29.9062 70.5903 29.6603 71.4881 29.0148C72.386 28.3694 72.9742 27.4473 73.16 26.3715C73.3458 25.2958 73.0981 24.22 72.4479 23.3287C71.1166 21.4845 68.5469 21.085 66.7202 22.3759Z" fill="black"/>
<path d="M52.7215 41.828C55.4728 41.5079 57.4417 39.0343 57.1192 36.303C56.7968 33.5718 54.3051 31.6172 51.5539 31.9373C48.8027 32.2574 46.8338 34.731 47.1562 37.4622C47.4786 40.1935 49.9703 42.1481 52.7215 41.828Z" fill="white"/>
<path d="M52.1687 42.0159C50.5587 42.0159 48.9488 41.2783 47.958 39.8644C47.1531 38.7579 46.8435 37.4056 47.0602 36.0532C47.2769 34.7008 48.02 33.5328 49.1655 32.7337C50.2801 31.9346 51.6424 31.6272 53.0046 31.8423C54.3669 32.0575 55.5434 32.7952 56.3484 33.9324C57.1534 35.0389 57.463 36.3913 57.2462 37.7436C57.0295 39.096 56.2865 40.264 55.1409 41.0631C54.2431 41.7086 53.1904 42.0159 52.1687 42.0159ZM52.1377 32.0575C51.147 32.0575 50.1562 32.3649 49.3203 32.9488C48.2676 33.6865 47.5556 34.8237 47.3388 36.0839C47.1221 37.3441 47.4317 38.635 48.1748 39.68C49.7228 41.8623 52.7879 42.354 54.9551 40.8172C56.0078 40.0796 56.7199 38.9423 56.9366 37.6822C57.1534 36.422 56.8437 35.1311 56.1007 34.0861C55.3576 33.0411 54.2121 32.3341 52.9427 32.119C52.695 32.0882 52.4164 32.0575 52.1377 32.0575Z" fill="black"/>
<path d="M50.0634 33.994C51.6733 32.8568 53.9334 33.2256 55.079 34.8239C56.2245 36.4221 55.853 38.6659 54.2431 39.8031C52.6331 40.9403 50.373 40.5715 49.2274 38.9732C48.0819 37.3442 48.4534 35.1312 50.0634 33.994Z" fill="white"/>
<path d="M52.1687 40.6021C51.952 40.6021 51.7662 40.5714 51.5495 40.5407C50.5587 40.387 49.6918 39.8337 49.1345 39.0346C47.9271 37.3749 48.3296 35.0389 50.0014 33.871C50.8064 33.287 51.7972 33.0718 52.7879 33.2255C53.7786 33.3792 54.6455 33.9324 55.2028 34.7316C55.7911 35.5307 56.0078 36.5143 55.853 37.4978C55.6982 38.4814 55.1409 39.342 54.3359 39.8952C53.6858 40.3563 52.9427 40.6021 52.1687 40.6021ZM52.1377 33.4714C51.4256 33.4714 50.7445 33.6866 50.1562 34.1169C48.6082 35.2234 48.2367 37.3441 49.3513 38.8809C49.8776 39.6186 50.6826 40.1104 51.5804 40.264C52.4783 40.4177 53.4071 40.2026 54.1502 39.6801C54.8932 39.1576 55.3886 38.3584 55.5434 37.4671C55.6982 36.5757 55.4815 35.6537 54.9551 34.916C54.4288 34.1783 53.6238 33.6866 52.726 33.5329C52.5402 33.5021 52.3235 33.4714 52.1377 33.4714Z" fill="black"/>
<path d="M51.0541 38.8196C51.0231 38.8196 50.9922 38.7888 50.9922 38.7581L51.3328 34.7317C51.3328 34.701 51.3637 34.6702 51.3947 34.701C51.4256 34.701 51.4566 34.7317 51.4256 34.7624L51.0851 38.7888C51.0851 38.8196 51.0851 38.8196 51.0541 38.8196Z" fill="black"/>
<path d="M52.6641 39.4034C52.6331 39.4034 52.6021 39.3726 52.6021 39.3419L52.7569 34.3012C52.7569 34.2705 52.7879 34.2397 52.8189 34.2397C52.8498 34.2397 52.8808 34.2705 52.8808 34.3012L52.726 39.3419C52.726 39.3726 52.695 39.4034 52.6641 39.4034Z" fill="black"/>
<path d="M68.1134 26.771C68.0825 26.771 68.0515 26.7403 68.0515 26.7095L68.1444 24.4965C68.1444 24.4658 68.1753 24.4351 68.2063 24.4351C68.2373 24.4351 68.2682 24.4658 68.2682 24.4965L68.1753 26.7095C68.1444 26.771 68.1444 26.771 68.1134 26.771Z" fill="black"/>
<path d="M69.5376 28.5844C69.5067 28.5844 69.4757 28.5537 69.4757 28.523C69.4757 26.5251 69.5376 24.4966 69.6615 22.4987C69.6615 22.468 69.6924 22.4373 69.7234 22.4373C69.7543 22.4373 69.7853 22.468 69.7853 22.4987C69.6924 24.4966 69.6305 26.5251 69.5995 28.523C69.5995 28.5844 69.5686 28.5844 69.5376 28.5844Z" fill="black"/>
<path d="M61.4878 36.9754C61.4569 36.9754 61.4259 36.9447 61.4259 36.914C61.5498 36.4837 61.7355 36.0533 61.9523 35.6538C61.9523 35.623 61.9832 35.623 62.0142 35.623C62.0451 35.623 62.0451 35.6538 62.0451 35.6845C61.8284 36.0841 61.6426 36.4837 61.5188 36.914C61.5188 36.9447 61.5188 36.9754 61.4878 36.9754Z" fill="black"/>
<path d="M61.8594 37.3748C61.8284 37.3748 61.7975 37.3441 61.7975 37.3133C61.8594 36.9445 61.9832 36.6064 62.138 36.299C62.138 36.2683 62.169 36.2683 62.1999 36.2683C62.2309 36.2683 62.2309 36.299 62.2309 36.3298C62.0761 36.6371 61.9523 36.9752 61.8903 37.3133C61.9213 37.3441 61.8903 37.3748 61.8594 37.3748Z" fill="black"/>
<path d="M62.3238 37.7436C62.2928 37.7436 62.2619 37.7129 62.2619 37.6822C62.2619 37.3133 62.3547 36.9445 62.5095 36.6064C62.5095 36.5757 62.5405 36.5757 62.5715 36.5757C62.6024 36.5757 62.6024 36.6064 62.6024 36.6372C62.4476 36.9752 62.3547 37.3133 62.3547 37.6822C62.3857 37.7129 62.3547 37.7436 62.3238 37.7436Z" fill="black"/>
<path d="M62.8192 37.9896C62.7882 37.9896 62.7572 37.9588 62.7572 37.9281C62.7572 37.59 62.8192 37.2519 62.912 36.9446C62.912 36.9138 62.943 36.9138 62.974 36.9138C63.0049 36.9138 63.0049 36.9446 63.0049 36.9753C62.912 37.2827 62.8811 37.6207 62.8501 37.9588C62.8811 37.9896 62.8501 37.9896 62.8192 37.9896Z" fill="black"/>
<path d="M63.3764 38.3584C63.3455 38.3584 63.3145 38.3277 63.3145 38.2969C63.3145 37.9589 63.3455 37.59 63.3764 37.2519C63.3764 37.2212 63.4074 37.2212 63.4384 37.2212C63.4693 37.2212 63.4693 37.2519 63.4693 37.2827C63.4074 37.6208 63.4074 37.9589 63.4074 38.3277C63.4384 38.3584 63.4074 38.3584 63.3764 38.3584Z" fill="black"/>
<path d="M63.9028 38.6044C63.8718 38.6044 63.8409 38.5737 63.8409 38.543C63.8409 38.2663 63.8409 37.959 63.8718 37.6823C63.8718 37.6516 63.9028 37.6516 63.9337 37.6516C63.9647 37.6516 63.9957 37.6823 63.9647 37.7131C63.9337 37.9897 63.9337 38.2663 63.9337 38.543C63.9647 38.5737 63.9337 38.6044 63.9028 38.6044C63.9337 38.6044 63.9028 38.6044 63.9028 38.6044Z" fill="black"/>
<path d="M64.4291 39.004C64.3981 39.004 64.3981 38.9733 64.3672 38.9733C64.3362 38.7274 64.3362 38.5123 64.3672 38.2664C64.3672 38.2356 64.3981 38.2049 64.4291 38.2356C64.4601 38.2356 64.491 38.2664 64.4601 38.2971C64.4291 38.5123 64.4291 38.7581 64.4601 38.9733C64.491 38.9733 64.4601 39.004 64.4291 39.004Z" fill="black"/>
<path d="M75.7917 8.66745C75.7607 8.66745 75.7297 8.63672 75.7297 8.60598L75.9774 7.49949C75.9774 7.46875 76.0084 7.46875 76.0394 7.46875C76.0703 7.46875 76.0703 7.49949 76.0703 7.53022L75.8226 8.63672C75.8226 8.66745 75.8226 8.66745 75.7917 8.66745Z" fill="black"/>
<path d="M76.4109 10.0508C76.3799 10.0508 76.349 10.02 76.349 9.9893C76.4728 9.03649 76.6276 8.11441 76.8753 7.16159C76.8753 7.13086 76.9062 7.13086 76.9372 7.13086C76.9682 7.13086 76.9682 7.16159 76.9682 7.19233C76.7514 8.11441 76.5657 9.06722 76.4418 9.9893C76.4728 10.0508 76.4418 10.0508 76.4109 10.0508Z" fill="black"/>
<path d="M77.0611 11.2802C77.0301 11.2802 76.9991 11.2495 76.9991 11.2188C77.1539 9.77416 77.3707 8.32957 77.6183 6.88498C77.6183 6.85425 77.6493 6.85425 77.6803 6.85425C77.7112 6.85425 77.7112 6.88498 77.7112 6.91572C77.4635 8.32957 77.2778 9.8049 77.092 11.2495C77.123 11.2495 77.092 11.2802 77.0611 11.2802Z" fill="black"/>
<path d="M77.7731 12.6017C77.7422 12.6017 77.7112 12.571 77.7112 12.5403C77.866 10.8191 78.0518 9.03637 78.2685 7.31516C78.2685 7.28442 78.2995 7.28442 78.3304 7.28442C78.3614 7.28442 78.3924 7.31516 78.3614 7.3459C78.1447 9.06711 77.9589 10.8191 77.8041 12.571L77.7731 12.6017Z" fill="black"/>
<path d="M78.4543 13.5238C78.4233 13.5238 78.4233 13.5238 78.4543 13.5238C78.4233 13.5238 78.3924 13.4931 78.3924 13.4623L78.8258 9.00562C78.8258 8.97489 78.8568 8.94415 78.8877 8.97489C78.9187 8.97489 78.9497 9.00563 78.9187 9.03636L78.4852 13.4931L78.4543 13.5238Z" fill="black"/>
<path d="M79.0735 14.8148C79.0735 14.8148 79.0425 14.8148 79.0735 14.8148C79.0425 14.8148 79.0116 14.7841 79.0116 14.7534L79.5069 10.3274C79.5069 10.2967 79.5379 10.2659 79.5689 10.2967C79.5998 10.2967 79.6308 10.3274 79.5998 10.3581L79.1045 14.7534C79.1045 14.7841 79.0735 14.8148 79.0735 14.8148Z" fill="black"/>
<path d="M79.7856 15.9211C79.7546 15.9211 79.7237 15.8904 79.7237 15.8597C79.9094 14.4151 80.0642 12.9705 80.1571 11.5259C80.1571 11.4952 80.1881 11.4644 80.219 11.4952C80.25 11.4952 80.281 11.5259 80.25 11.5566C80.1262 13.0012 80.0023 14.4765 79.8165 15.8904C79.8165 15.9211 79.8166 15.9211 79.7856 15.9211Z" fill="black"/>
<path d="M80.5596 17.0584C80.5287 17.0584 80.4977 17.0277 80.4977 16.997L80.8073 12.7861C80.8073 12.7554 80.8383 12.7247 80.8692 12.7554C80.9002 12.7554 80.9311 12.7861 80.9002 12.8169L80.5906 17.0277C80.6215 17.0584 80.5906 17.0584 80.5596 17.0584Z" fill="black"/>
<path d="M81.3646 18.1649C81.3336 18.1649 81.3027 18.1342 81.3027 18.1034C81.3336 16.7203 81.3955 15.3065 81.4884 13.9233C81.4884 13.8926 81.5194 13.8619 81.5503 13.8926C81.5813 13.8926 81.6123 13.9234 81.5813 13.9541C81.4884 15.3372 81.4265 16.7511 81.3955 18.1342C81.3955 18.1342 81.3955 18.1649 81.3646 18.1649Z" fill="black"/>
<path d="M82.1076 19.1179C82.0767 19.1179 82.0767 19.1179 82.1076 19.1179C82.0767 19.1179 82.0457 19.0871 82.0457 19.0564L82.2624 15.0607C82.2624 15.03 82.2934 14.9993 82.3244 14.9993C82.3553 14.9993 82.3863 15.03 82.3863 15.0607L82.1696 19.0564C82.1386 19.0871 82.1076 19.1179 82.1076 19.1179Z" fill="black"/>
<path d="M82.7268 19.8555C82.6959 19.8555 82.6649 19.8247 82.6649 19.794L82.9745 16.075C82.9745 16.0442 83.0055 16.0135 83.0365 16.0442C83.0674 16.0442 83.0984 16.075 83.0674 16.1057L82.7578 19.8247C82.7578 19.8555 82.7578 19.8555 82.7268 19.8555Z" fill="black"/>
<path d="M83.4699 20.7776C83.439 20.7776 83.408 20.7468 83.408 20.7161C83.5009 19.4867 83.5628 18.2572 83.5938 17.0278C83.5938 16.997 83.6247 16.9663 83.6557 16.9663C83.6866 16.9663 83.7176 16.997 83.7176 17.0278C83.6866 18.2572 83.6247 19.4867 83.5318 20.7161C83.5009 20.7776 83.5009 20.7776 83.4699 20.7776Z" fill="black"/>
<path d="M84.213 21.6075C84.182 21.6075 84.151 21.5767 84.151 21.546L84.3987 17.8884C84.3987 17.8577 84.4297 17.827 84.4606 17.8577C84.4916 17.8577 84.5226 17.8884 84.4916 17.9192L84.2439 21.5767C84.2439 21.5767 84.2439 21.6075 84.213 21.6075Z" fill="black"/>
<path d="M84.8631 22.2835C84.8322 22.2835 84.8012 22.2527 84.8012 22.222C84.956 21.1155 85.0799 19.9783 85.1418 18.8718C85.1418 18.841 85.1727 18.8103 85.2037 18.8103C85.2347 18.8103 85.2656 18.841 85.2656 18.8718C85.2037 19.9783 85.0799 21.1155 84.9251 22.222C84.9251 22.2527 84.8941 22.2835 84.8631 22.2835Z" fill="black"/>
<path d="M85.761 23.3287C85.73 23.3287 85.6991 23.298 85.6991 23.2672L85.8848 19.7326C85.8848 19.7019 85.9158 19.6711 85.9468 19.6711C85.9777 19.6711 86.0087 19.7019 86.0087 19.7326L85.8229 23.2672C85.8229 23.3287 85.792 23.3287 85.761 23.3287Z" fill="black"/>
<path d="M86.6898 24.0971C86.6589 24.0971 86.6279 24.0663 86.6279 24.0356V20.5624C86.6279 20.5317 86.6589 20.501 86.6898 20.501C86.7208 20.501 86.7517 20.5317 86.7517 20.5624V24.0356C86.7517 24.0663 86.7208 24.0971 86.6898 24.0971Z" fill="black"/>
<path d="M87.5258 24.6196C87.4948 24.6196 87.4638 24.5888 87.4638 24.5581L87.4019 21.3923C87.4019 21.3615 87.4329 21.3308 87.4638 21.3308C87.4948 21.3308 87.5258 21.3615 87.5258 21.3923L87.5877 24.5581C87.5877 24.5888 87.5567 24.6196 87.5258 24.6196Z" fill="black"/>
<path d="M88.2998 23.9741C88.2688 23.9741 88.2379 23.9434 88.2379 23.9434C88.1759 23.3901 88.1759 22.8062 88.2069 22.2222C88.2069 22.1914 88.2379 22.1607 88.2688 22.1914C88.2998 22.1914 88.3307 22.2222 88.2998 22.2529C88.2688 22.8062 88.2688 23.3901 88.3307 23.9434C88.3617 23.9434 88.3307 23.9434 88.2998 23.9741Z" fill="black"/>
<path d="M38.0506 38.3892C38.0197 38.3892 37.9887 38.3585 37.9887 38.3278L38.2674 37.3442C38.2674 37.3135 38.2983 37.3135 38.3293 37.3135C38.3602 37.3135 38.3602 37.3442 38.3602 37.3749L38.0816 38.3585C38.1126 38.3892 38.0816 38.3892 38.0506 38.3892Z" fill="black"/>
<path d="M38.4841 39.5878C38.4531 39.5878 38.4222 39.5571 38.4222 39.5264C38.577 38.6658 38.7937 37.7744 39.0414 36.9446C39.0414 36.9138 39.0723 36.9138 39.1033 36.9138C39.1343 36.9138 39.1343 36.9446 39.1343 36.9753C38.8866 37.8359 38.7008 38.6965 38.515 39.5571C38.515 39.5571 38.515 39.5878 38.4841 39.5878Z" fill="black"/>
<path d="M39.0104 41.0324C38.9795 41.0324 38.9485 41.0017 38.9485 40.9709C39.0723 40.0181 39.2581 39.0346 39.4439 38.0818C39.4439 38.051 39.4748 38.051 39.5058 38.051C39.5367 38.051 39.5367 38.0818 39.5367 38.1125C39.32 39.0653 39.1652 40.0181 39.0414 41.0017C39.0414 41.0017 39.0414 41.0324 39.0104 41.0324Z" fill="black"/>
<path d="M39.5987 42.2619C39.5677 42.2619 39.5367 42.2312 39.5367 42.2005C39.6296 41.2476 39.7535 40.2948 39.9083 39.342C39.9083 39.3113 39.9392 39.3113 39.9702 39.3113C40.0012 39.3113 40.0012 39.342 40.0012 39.3728C39.8464 40.3256 39.7225 41.2784 39.6296 42.2005C39.6606 42.2312 39.6296 42.2619 39.5987 42.2619Z" fill="black"/>
<path d="M40.1869 43.5221C40.156 43.5221 40.125 43.4913 40.125 43.4606L40.4346 40.4485C40.4346 40.4177 40.4656 40.4177 40.4965 40.4177C40.5275 40.4177 40.5584 40.4485 40.5275 40.4792L40.2179 43.4913L40.1869 43.5221Z" fill="black"/>
<path d="M40.8371 44.6286C40.8061 44.6286 40.7752 44.5979 40.7752 44.5672L41.0848 41.678C41.0848 41.6473 41.1157 41.6165 41.1467 41.6473C41.1777 41.6473 41.2086 41.678 41.1777 41.7087L40.8681 44.5979C40.899 44.5979 40.8681 44.6286 40.8371 44.6286Z" fill="black"/>
<path d="M41.6421 45.7044C41.6111 45.7044 41.5802 45.6737 41.5802 45.643L41.7969 42.9075C41.7969 42.8767 41.8278 42.846 41.8588 42.8767C41.8898 42.8767 41.9207 42.9075 41.8898 42.9382L41.673 45.6737C41.673 45.6737 41.673 45.7044 41.6421 45.7044Z" fill="black"/>
<path d="M42.478 46.7493C42.447 46.7493 42.4161 46.7186 42.4161 46.6879C42.4161 45.7965 42.447 44.8744 42.509 43.9831C42.509 43.9524 42.5399 43.9216 42.5709 43.9216C42.6019 43.9216 42.6328 43.9524 42.6328 43.9831C42.5709 44.8744 42.5399 45.7965 42.5399 46.6879C42.5399 46.7186 42.509 46.7493 42.478 46.7493Z" fill="black"/>
<path d="M43.4068 47.5793C43.3759 47.5793 43.3449 47.5485 43.3449 47.5178C43.3139 46.6572 43.283 45.7966 43.283 44.936C43.283 44.9052 43.3139 44.8745 43.3449 44.8745C43.3759 44.8745 43.4068 44.9052 43.4068 44.936C43.4068 45.7966 43.4068 46.6572 43.4687 47.5178C43.4687 47.5793 43.4378 47.5793 43.4068 47.5793Z" fill="black"/>
<path d="M44.3047 48.5013C44.2737 48.5013 44.2428 48.4705 44.2428 48.4705C44.1499 47.6406 44.1189 46.8108 44.1189 45.9809C44.1189 45.9502 44.1499 45.9194 44.1808 45.9194C44.2118 45.9194 44.2428 45.9502 44.2428 45.9809C44.2428 46.8108 44.2737 47.6406 44.3666 48.4398C44.3666 48.4705 44.3356 48.5013 44.3047 48.5013Z" fill="black"/>
<path d="M45.2335 49.1775C45.2025 49.1775 45.2025 49.1468 45.1716 49.1468C45.0787 48.4091 44.9858 47.6714 44.9239 46.9338C44.9239 46.903 44.9549 46.8723 44.9549 46.8723C44.9858 46.8723 45.0168 46.9031 45.0168 46.9031C45.0787 47.6407 45.1406 48.3784 45.2645 49.116C45.2954 49.1468 45.2954 49.1775 45.2335 49.1775C45.2645 49.1775 45.2645 49.1775 45.2335 49.1775Z" fill="black"/>
<path d="M46.2552 49.8845C46.2242 49.8845 46.2242 49.8537 46.1933 49.8537C46.0385 49.0853 45.8837 48.3169 45.7908 47.5485C45.7908 47.5178 45.8218 47.4871 45.8218 47.4871C45.8527 47.4871 45.8837 47.5178 45.8837 47.5178C45.9766 48.2862 46.1314 49.0546 46.2862 49.823C46.2862 49.8537 46.2862 49.8845 46.2552 49.8845Z" fill="black"/>
<path d="M47.1531 50.3763C47.1221 50.3763 47.1221 50.3763 47.0911 50.3456C46.9363 49.6387 46.7815 48.9317 46.6577 48.2248C46.6577 48.1941 46.6577 48.1633 46.6887 48.1633C46.7196 48.1633 46.7506 48.1633 46.7506 48.1941C46.8744 48.901 47.0292 49.6079 47.184 50.2841C47.215 50.3456 47.215 50.3763 47.1531 50.3763C47.184 50.3763 47.184 50.3763 47.1531 50.3763Z" fill="black"/>
<path d="M47.989 50.4071C47.958 50.4071 47.958 50.3763 47.9271 50.3763L47.5556 48.8088C47.5556 48.778 47.5556 48.7473 47.5865 48.7473C47.6175 48.7473 47.6484 48.7473 47.6484 48.778L48.02 50.3456C48.02 50.3763 48.02 50.3763 47.989 50.4071Z" fill="black"/>
<path d="M48.763 50.1611C48.7321 50.1611 48.7011 50.1611 48.7011 50.0997L48.4844 49.362C48.4844 49.3313 48.4844 49.3005 48.5153 49.3005C48.5463 49.3005 48.5773 49.3005 48.5773 49.3313L48.794 50.0382C48.794 50.0382 48.794 50.0382 48.8249 50.0382C48.8559 50.0689 48.8559 50.0689 48.8249 50.0997C48.8249 50.1304 48.794 50.1611 48.763 50.1611Z" fill="black"/>
<g opacity="0.1294">
<path d="M91.8293 20.1629C91.7364 20.0707 91.6435 20.0707 91.5506 20.1014C91.4578 20.0707 91.3649 20.1014 91.303 20.1629C90.9005 20.5932 90.498 21.0235 90.1265 21.4845C89.9097 21.423 89.7549 21.6382 89.6311 21.8226C89.4763 22.0378 89.3524 22.2222 89.1976 22.4066C89.1357 22.4988 89.0738 22.591 88.9809 22.6525C87.8973 23.6053 86.7208 24.4966 85.6062 25.4494C83.5938 27.0784 81.5504 28.7075 79.5689 30.2442C79.476 30.3057 79.4141 30.3672 79.3212 30.3979C77.9899 31.2893 76.6276 32.1499 75.2963 33.0412C72.5408 34.9161 69.8472 36.8832 67.0298 38.6352C65.7604 39.4343 64.491 40.2334 63.2216 41.0326C62.3857 41.5551 61.5188 42.0161 60.6519 42.5079C59.3516 43.2763 58.1131 44.1061 56.7818 44.8438C55.6363 45.5507 54.4598 46.1962 53.2523 46.8416C52.1997 47.4564 51.147 48.0711 50.0943 48.7165C49.7847 48.901 49.4751 49.0854 49.1655 49.2698C49.0417 49.362 48.8869 49.3927 48.794 49.5464C48.5773 49.6386 48.3605 49.7308 48.1748 49.823C47.989 49.8538 47.8961 50.0689 47.9271 50.2533C47.989 50.4378 48.1748 50.53 48.3605 50.4992C48.4534 50.4685 48.5463 50.4378 48.6392 50.407C48.2986 50.5914 48.4844 51.1447 48.9178 51.0525C51.4876 50.4685 54.0263 49.823 56.5961 49.362C57.2772 49.2391 57.5249 49.2083 58.0822 49.1468C58.4847 49.1161 58.7324 49.0854 58.8872 48.8088C58.9181 48.3784 58.98 47.9174 59.011 47.4871C59.1039 46.7494 59.1968 46.0118 59.3206 45.3049C59.3206 45.2434 59.3206 45.2126 59.3516 45.1512C59.2896 45.0897 59.2277 45.059 59.1658 45.059C59.4444 44.8746 59.7541 44.6901 60.0327 44.5057C60.2185 44.352 60.4971 44.2291 60.59 44.0754C61.0854 43.8295 61.6117 43.5529 62.138 43.307C62.8811 42.9382 63.5622 42.5079 64.2743 42.0776C65.6366 41.3092 66.906 40.4178 68.1753 39.5265C69.2899 38.7581 70.4045 38.0512 71.5501 37.3135C72.5718 36.6373 73.7173 36.0841 74.739 35.3771C75.7607 34.701 76.7514 33.994 77.7731 33.3486C78.64 32.7646 79.5069 32.2421 80.3429 31.6274C80.6215 31.4122 80.9002 31.1971 81.1788 30.9819C81.6123 30.6746 82.0457 30.3672 82.4792 30.0598C83.0674 29.6295 83.6557 29.23 84.182 28.7382C85.5443 27.5702 86.8756 26.4023 88.0521 25.0499C88.145 24.9269 88.2688 24.8347 88.3307 24.681C88.3617 24.6196 88.3617 24.5274 88.3307 24.4659C88.6094 24.0971 88.888 23.759 89.1667 23.3901C89.2905 23.2672 89.3834 23.1442 89.4763 22.9906C89.8788 22.6217 90.2503 22.2529 90.6218 21.8533C90.9934 21.4538 91.3339 21.0542 91.6435 20.6239C91.6745 20.5932 91.7364 20.5317 91.7364 20.501C91.7674 20.4395 91.7983 20.378 91.7983 20.3165C91.9222 20.2858 91.8912 20.2243 91.8293 20.1629ZM49.8157 50.1919C49.5061 50.2533 49.1655 50.3455 48.8559 50.407C49.1655 50.2841 49.4751 50.1304 49.7847 49.9767C49.8157 50.0382 49.8466 50.0689 49.8776 50.0997C49.8157 50.1304 49.8157 50.1611 49.8157 50.1919ZM58.2679 45.7044C58.0822 45.8274 57.0605 46.5343 56.5651 46.8416C55.884 47.2105 55.2028 47.5486 54.4907 47.8867C55.048 47.5793 55.5744 47.272 56.1317 46.9339C56.9057 46.4728 57.6797 46.0425 58.4227 45.5815C58.3918 45.6122 58.3299 45.6429 58.2679 45.7044Z" fill="black"/>
</g>
<g opacity="0.1294">
<path d="M53.4381 40.1412C53.4381 40.1412 53.4071 40.1412 53.4381 40.1412C53.5 40.1105 53.5 40.1105 53.4381 40.1412Z" fill="black"/>
</g>
<g opacity="0.1294">
<path d="M55.4196 36.0226C55.2957 36.0533 55.2028 36.1762 55.2028 36.2992C55.2028 36.3914 55.2028 36.4529 55.2028 36.5451C55.2028 36.5758 55.2028 36.5758 55.2028 36.6065C55.1409 37.0061 54.9242 37.713 54.8623 37.8052C53.9954 39.5879 52.4164 39.9875 50.6207 39.5265C50.4659 39.4957 50.2801 39.3728 50.1253 39.465C49.9086 39.5879 49.9086 39.926 50.1253 40.049C50.7445 40.3256 51.4566 40.3871 52.1377 40.4178C52.5402 40.4178 52.9427 40.3563 53.3452 40.2026C53.3762 40.2026 53.3762 40.1719 53.4071 40.1719C54.1811 39.8338 54.8313 39.1884 55.2648 38.4814C55.5434 38.0511 55.6672 37.5286 55.7292 37.0368C55.7911 36.668 55.9459 35.9611 55.4196 36.0226Z" fill="black"/>
</g>
<g opacity="0.1294">
<path d="M73.4696 25.0805C73.4387 24.6502 72.8194 24.6809 72.8194 25.1112C72.8194 25.3264 72.7575 25.6645 72.6337 26.064V26.0948C72.5408 26.2792 72.4479 26.4943 72.355 26.6787C71.9835 27.3549 71.7668 27.6008 71.1476 28.1233C71.0856 28.1848 70.9928 28.2463 70.7451 28.4C70.4355 28.5844 69.9401 28.8303 69.8782 28.8303C70.0949 28.7381 69.5995 28.9225 69.5066 28.9532C69.197 29.0454 68.7636 29.1376 68.7326 29.1069C68.454 29.1376 68.1753 29.1069 67.9277 29.0761C67.8038 29.0454 67.649 29.0147 67.5252 29.0761C67.2775 29.1991 67.3394 29.5987 67.618 29.6909C68.0825 29.7831 68.5469 29.8445 69.0113 29.8138H69.0422C69.0732 29.906 69.1661 29.9675 69.2899 29.9675C69.8163 29.9675 70.3116 29.906 70.807 29.7216C71.1166 29.5987 71.3952 29.3835 71.6739 29.1991C72.0764 28.9532 72.386 28.6458 72.6337 28.277C72.7266 28.1233 72.9123 28.0004 72.8504 27.7852C72.8194 27.7238 72.7885 27.6623 72.7266 27.6316C72.9742 27.232 73.191 26.8017 73.3148 26.3406C73.3767 26.187 73.3767 26.0026 73.4077 25.8489C73.4077 25.9718 73.4077 25.9411 73.4077 25.8489C73.4387 25.603 73.5006 25.3264 73.4696 25.0805Z" fill="black"/>
</g>
<g opacity="0.1294">
<path d="M44.026 48.6858C43.9332 48.6551 43.8712 48.6858 43.8093 48.7166C43.6855 48.7166 43.5926 48.8088 43.4687 48.8702C43.2211 48.9932 43.0043 49.1161 42.7876 49.2698C41.9517 49.8231 41.1777 50.4993 40.4656 51.2062C39.9083 51.7902 39.5987 52.036 39.1962 52.62C39.1033 52.7737 39.1033 52.9581 39.1962 53.1118C39.2271 53.1733 39.2581 53.2347 39.32 53.2655C39.351 53.2962 39.4439 53.3577 39.4748 53.3577C39.5058 53.3884 39.5677 53.4499 39.5677 53.4499C39.7225 53.6343 39.7535 53.9109 39.9702 54.0646C40.156 54.1876 40.4346 54.0954 40.5584 53.9109C40.5894 53.8802 40.5894 53.8187 40.6204 53.788C40.6204 53.7573 40.6513 53.7265 40.6513 53.6958C40.8061 53.3577 40.9919 53.0196 41.1777 52.6815C41.8898 51.5135 42.447 50.7451 43.4687 49.8538C43.7474 49.6079 44.088 49.362 44.1808 49.2698C44.3666 49.0239 44.2428 48.7473 44.026 48.6858Z" fill="black"/>
</g>
<path d="M37.5862 8.60614C42.9424 9.19013 48.3605 9.15939 53.7167 9.00571C55.0171 8.97497 56.4103 8.88277 57.432 8.0529C58.8562 6.8542 58.7014 4.27238 57.1843 3.19662C55.6672 2.12086 53.2523 2.70485 52.3235 4.30311C52.4473 2.30528 50.8374 0.368914 48.8559 0.123027C46.8744 -0.12286 44.831 1.3832 44.4905 3.3503C44.3976 1.99792 42.478 1.41394 41.3634 2.1516C40.2488 2.88926 39.8773 4.42606 40.0631 5.77844C39.5677 4.48753 37.5553 4.33385 36.6574 5.37887C35.7596 6.45463 36.0072 8.42173 37.5862 8.60614Z" fill="white"/>
<path d="M43.5926 9.19007C41.5492 9.1286 39.5677 8.97492 37.5862 8.75977C36.9051 8.6983 36.4097 8.29873 36.162 7.68401C35.8524 6.91561 36.0072 5.9628 36.5336 5.31734C36.998 4.7641 37.8339 4.48747 38.6389 4.61042C39.1343 4.70263 39.5367 4.91778 39.8464 5.22514C39.8154 4.08791 40.1869 2.76626 41.2396 2.05934C41.8898 1.62903 42.8186 1.5983 43.5616 1.96713C43.9641 2.18228 44.2737 2.4589 44.4595 2.82773C45.0787 1.07579 46.9983 -0.184387 48.8559 0.0307641C50.7445 0.245916 52.3235 1.99786 52.4783 3.87276C52.9737 3.2273 53.7477 2.797 54.5836 2.61258C55.5434 2.39743 56.5341 2.58185 57.2772 3.10436C58.0512 3.6576 58.5466 4.61042 58.5775 5.65544C58.6085 6.66973 58.237 7.5918 57.5249 8.17579C56.5341 9.00566 55.1409 9.1286 53.7167 9.15934C50.0634 9.25154 46.7506 9.28228 43.5926 9.19007ZM37.6172 8.45241C42.6638 9.00566 47.7104 9.03639 53.7477 8.85198C55.11 8.82124 56.4413 8.72903 57.3701 7.9299C57.9893 7.40739 58.3299 6.57752 58.2989 5.65544C58.2679 4.70263 57.8345 3.81128 57.1224 3.31951C56.4413 2.85847 55.5744 2.67405 54.6765 2.88921C53.7167 3.10436 52.9117 3.6576 52.4783 4.39527C52.4473 4.45674 52.3854 4.48747 52.3235 4.45674C52.2616 4.426 52.2306 4.36453 52.2306 4.30306C52.3545 2.39743 50.7755 0.522539 48.8869 0.276652C46.9983 0.0615 45.0168 1.50609 44.6762 3.38098C44.6762 3.44245 44.6143 3.50392 44.5214 3.50392C44.4595 3.50392 44.3976 3.44245 44.3976 3.38098C44.3666 2.88921 44.026 2.4589 43.5307 2.21302C42.8805 1.90566 42.0446 1.93639 41.5182 2.30522C40.3727 3.07362 40.125 4.64115 40.2798 5.77838C40.2798 5.83986 40.2488 5.93206 40.156 5.93206C40.094 5.9628 40.0012 5.90133 39.9702 5.83986C39.7844 5.31734 39.2891 4.97925 38.6698 4.85631C37.9578 4.73336 37.2457 4.97925 36.8122 5.47102C36.3478 6.02427 36.224 6.88488 36.4716 7.53033C36.6264 8.08358 37.0599 8.39094 37.6172 8.45241Z" fill="black"/>
<g opacity="0.1294">
<path d="M57.8035 7.43822C57.8035 7.28454 57.6487 7.1616 57.4939 7.13086C57.3701 7.13086 57.2772 7.19233 57.1843 7.2538C57.0605 7.31527 56.9366 7.37675 56.8128 7.43822C56.3484 7.5919 55.884 7.77631 55.4196 7.80705C55.3886 7.80705 55.3267 7.80705 55.2957 7.80705C55.4815 7.77631 55.3267 7.80705 55.2028 7.80705C52.9737 7.74558 50.7755 7.89926 48.5463 7.89926C47.5246 7.89926 46.5339 7.92999 45.5122 7.92999C43.8403 7.89926 42.1374 7.89926 40.4656 7.86852C40.0321 7.83779 39.6296 7.83779 39.1962 7.77631C38.4841 7.68411 37.803 7.56116 37.0909 7.49969C36.5645 7.49969 36.5026 8.26809 37.0599 8.29882C38.1435 8.39103 38.2364 8.51398 39.5987 8.66766C40.6513 8.7906 41.704 8.72913 42.7567 8.7906C43.8093 8.82134 44.862 8.88281 45.9146 8.91354C46.7815 8.94428 47.6484 8.91354 48.5153 8.91354C48.5463 8.91354 48.5773 8.91354 48.6082 8.91354C49.8157 8.97502 50.9922 8.97502 52.1997 8.97502C52.726 8.94428 53.2214 8.97502 53.7477 8.97502C54.2121 8.94428 54.3669 8.91354 54.6765 8.91354C55.2648 8.88281 55.853 8.85207 56.4103 8.60618C56.5651 8.54471 56.7509 8.48324 56.8747 8.32956C56.9366 8.26809 56.9366 8.20662 56.9366 8.14514C57.0914 8.05294 57.2462 7.99147 57.401 7.86852C57.463 7.83779 57.6178 7.71484 57.463 7.80705C57.5249 7.74558 57.5868 7.71484 57.6797 7.65337C57.7726 7.68411 57.8345 7.56116 57.8035 7.43822Z" fill="black"/>
</g>
</g>
<defs>
<clipPath id="clip0_40_370">
<rect width="107" height="71" fill="white"/>
</clipPath>
</defs>
</svg>
