<svg width="313" height="278" viewBox="0 0 313 278" fill="none" xmlns="http://www.w3.org/2000/svg">
<g clip-path="url(#clip0_29_2384)">
<g style="mix-blend-mode:multiply">
<path d="M264.016 179.312C260.55 176.744 257.494 174.43 255.023 170.821C254.542 170.124 253.86 169.591 253.068 169.293C252.32 165.755 251.254 162.217 250.371 158.679C248.808 151.851 247.629 144.941 246.842 137.981C246.496 135.377 242.395 135.25 242.649 137.981C243.306 145.177 243.948 152.338 243.786 159.57C243.708 163.193 243.263 166.738 243.412 170.368C243.532 173.241 243.962 176.213 243.341 179.058C242.134 184.662 236.515 188.419 232.096 191.441C226.551 195.167 220.811 198.592 214.901 201.701C206.479 206.152 198.009 210.405 189.538 214.58C188.927 214.52 188.31 214.615 187.745 214.856C181.526 217.325 175.611 220.913 169.752 224.344C162.587 227.883 155.443 231.505 148.37 235.242C148.06 234.257 147.808 233.256 147.615 232.241C146.288 227.026 145.102 221.776 144.015 216.504C143.359 209.223 142.78 201.581 140.33 194.788C140.294 194.685 140.234 194.591 140.156 194.515C140.078 194.439 139.983 194.382 139.879 194.349C139.079 190.255 137.782 186.275 136.017 182.497C135.923 182.34 135.784 182.214 135.62 182.134C135.455 182.054 135.27 182.024 135.089 182.047C134.907 182.07 134.736 182.146 134.597 182.265C134.457 182.383 134.355 182.54 134.302 182.716C131.888 192.127 133.928 202.586 135.481 212.011C135.714 213.426 135.961 214.841 136.187 216.299C136.123 217.523 136.06 218.74 135.982 219.936C135.417 228.718 134.768 237.485 134.57 246.287C134.54 247.031 134.66 247.774 134.925 248.47C135.189 249.166 135.592 249.8 136.109 250.335C133.06 249.281 130.243 247.625 127.434 246.089C120.234 242.113 113.09 237.994 105.763 234.265C98.8383 230.727 92.2099 226.644 84.3181 225.979C84.2702 225.979 84.223 225.992 84.1814 226.016C84.1399 226.04 84.1054 226.074 84.0811 226.116C84.0569 226.157 84.0437 226.204 84.0432 226.252C84.0427 226.3 84.0549 226.348 84.0782 226.389C88.1159 233.317 94.8218 237.577 101.02 242.353C107.373 247.25 114.001 251.814 120.523 256.505C127.307 261.374 133.229 268.69 142.363 267.933C146.655 267.579 150.425 265.577 154.328 263.893C158.232 262.209 161.86 260.482 165.566 258.593C194.119 244.037 222.214 228.208 249.214 210.914C256.435 206.293 266.896 201.836 269.487 192.913C271.216 187.245 268.393 182.546 264.016 179.312Z" fill="#D7DCE0"/>
</g>
<g style="mix-blend-mode:multiply">
<path d="M222.009 143.338C218.126 146.571 214.759 149.466 210.206 151.871C205.055 154.494 200.041 157.38 195.185 160.518C189.813 164.106 184.554 166.179 178.081 164.495C171.608 162.811 166.667 157.525 160.272 155.961C160.133 155.917 159.985 155.916 159.846 155.959C159.707 156.002 159.585 156.087 159.496 156.202C159.407 156.318 159.356 156.458 159.35 156.603C159.343 156.749 159.382 156.893 159.46 157.016C162.199 163.384 170.246 168.847 176.295 171.826C183.531 175.364 191.338 176.999 199.025 173.991C202.66 172.576 205.816 170.51 209.239 168.677C212.133 167.127 215.155 165.847 218.098 164.389C224.366 161.318 231.454 156.98 232.64 149.529C233.642 143.168 227.084 139.113 222.009 143.338Z" fill="#D7DCE0"/>
</g>
<path d="M218.966 97.5415L243.383 134.174L184.787 167.297L160.371 130.665L218.966 97.5415Z" fill="#F6D84C"/>
<path d="M216.002 65.4301L134.937 112.344L68.1672 73.4119L149.232 26.4976L216.002 65.4301Z" fill="#D7DCE0"/>
<path d="M183.27 165.019V166.42L160.371 153.166V130.665L183.27 165.019Z" fill="#F6D84C"/>
<path d="M149.232 14.5391V26.4976L68.1674 73.412L57.8755 67.4115L149.232 14.5391Z" fill="#3A3A3A"/>
<path d="M107.972 147.166V196.479L85.4475 183.445V134.132L107.972 147.166Z" fill="#D7DCE0"/>
<path d="M85.4475 134.132V183.445L62.9226 170.404V121.091L85.4475 134.132Z" fill="#D7DCE0"/>
<path d="M247.414 59.5073V187.655L134.916 252.762" stroke="#3A3A3A" stroke-width="5" stroke-linecap="round" stroke-linejoin="round"/>
<path d="M36.7554 67.376V195.517L134.916 252.762V124.614" stroke="#3A3A3A" stroke-width="5" stroke-linecap="round" stroke-linejoin="round"/>
<path d="M247.414 59.5074L134.916 124.614L36.7554 67.376L149.253 2.26904L247.414 59.5074Z" stroke="#3A3A3A" stroke-width="5" stroke-linecap="round" stroke-linejoin="round"/>
<path d="M160.371 130.664V153.166L184.787 167.297L160.371 130.664Z" stroke="#3A3A3A" stroke-width="5" stroke-linecap="round" stroke-linejoin="round"/>
<path d="M184.787 167.297L243.383 134.174L218.966 97.5413L160.371 130.664" stroke="#3A3A3A" stroke-width="5" stroke-linecap="round" stroke-linejoin="round"/>
<path d="M85.4475 134.132L107.972 147.166V196.479L62.9226 170.404V121.091L85.4475 134.132Z" stroke="#3A3A3A" stroke-width="5" stroke-linecap="round" stroke-linejoin="round"/>
<path d="M85.4475 134.132V183.445" stroke="#3A3A3A" stroke-width="5" stroke-linecap="round" stroke-linejoin="round"/>
<path d="M68.1674 73.412L57.8755 67.4115L149.232 14.5391L226.294 59.4721L134.937 112.345L68.1674 73.412Z" stroke="#3A3A3A" stroke-width="5" stroke-linecap="round" stroke-linejoin="round"/>
<path d="M68.1675 73.4119L149.232 26.4976L216.002 65.4301" stroke="#3A3A3A" stroke-width="5" stroke-linecap="round" stroke-linejoin="round"/>
</g>
<g style="mix-blend-mode:multiply">
<path d="M261.294 237.041C257.792 238.085 257.119 242.046 259.285 244.656C260.051 245.495 260.95 246.2 261.947 246.744C262.015 246.794 262.089 246.836 262.166 246.869C262.037 246.945 261.9 247.008 261.759 247.057C260.992 247.319 260.183 247.433 259.374 247.391C257.009 247.433 254.634 246.666 252.379 246.034C251.262 245.721 247.948 244.881 247.681 243.748C247.415 242.615 246.178 242.365 245.286 242.772C244.466 243.178 243.773 243.801 243.283 244.573C242.792 245.345 242.523 246.237 242.503 247.151C242.409 249.897 244.257 251.922 246.491 253.237C251.314 256.072 257.4 257.69 262.954 256.771C267.997 255.941 272.606 252.073 272.444 246.608C272.308 241.31 266.9 235.376 261.294 237.041Z" fill="#D7DCE0"/>
</g>
<g style="mix-blend-mode:multiply">
<path d="M306.857 213.124C306.147 213.132 305.459 213.369 304.894 213.799C304.33 214.23 303.92 214.832 303.725 215.515C303.303 216.976 303.924 218.365 303.511 219.79C303.128 220.792 302.485 221.675 301.648 222.347C299.341 224.435 295.854 225.563 292.879 226.262C289.664 227.014 285.947 227.306 282.706 226.622C279.871 226.017 278.034 224.2 276.656 221.768C276.582 221.645 276.471 221.549 276.338 221.495C276.205 221.44 276.059 221.43 275.92 221.465C274.046 222.065 272.945 224.122 272.663 225.97C272.198 228.997 273.618 231.899 275.748 233.956C280.795 238.836 288.599 238.732 295.061 237.636C301.173 236.592 307.974 233.888 311.346 228.36C314.06 223.856 313.867 213.516 306.857 213.124Z" fill="#D7DCE0"/>
</g>
<path d="M304.889 217.743C306.278 220.682 304.968 223.965 300.969 226.267C297.994 227.985 294.105 228.841 290.212 228.841C286.318 228.841 282.429 227.985 279.454 226.246C275.455 223.944 274.151 220.661 275.534 217.723L278.342 211.161C278.106 211.696 277.983 212.274 277.982 212.858C277.982 214.669 279.172 216.465 281.563 217.848C286.339 220.609 294.09 220.609 298.845 217.848C301.157 216.517 302.358 214.789 302.426 213.03C302.453 212.389 302.334 211.749 302.076 211.161L304.889 217.743Z" fill="#F6D84C"/>
<path d="M265.042 242.328C265.997 244.348 265.1 246.608 262.344 248.195C260.048 249.362 257.509 249.97 254.934 249.97C252.359 249.97 249.82 249.362 247.525 248.195C244.769 246.629 243.871 244.348 244.821 242.328L254.932 218.704L265.042 242.328Z" fill="#D7DCE0"/>
<path d="M246.757 237.803L244.821 242.329C243.871 244.349 244.769 246.609 247.525 248.195C249.82 249.362 252.359 249.97 254.934 249.97C257.509 249.97 260.048 249.362 262.344 248.195C265.1 246.63 265.997 244.349 265.042 242.329L254.932 218.704L246.757 237.803Z" stroke="#3A3A3A" stroke-width="5" stroke-linecap="round" stroke-linejoin="round"/>
<path d="M278.342 211.182L275.539 217.744C274.156 220.682 275.461 223.965 279.459 226.267C282.434 227.985 286.323 228.841 290.217 228.841C294.111 228.841 297.984 227.985 300.969 226.246C304.968 223.945 306.278 220.661 304.889 217.723L290.211 183.445L278.342 211.182Z" stroke="#3A3A3A" stroke-width="5" stroke-linecap="round" stroke-linejoin="round"/>
<path d="M302.081 211.182C302.339 211.77 302.458 212.41 302.431 213.051C302.363 214.81 301.163 216.538 298.85 217.869C294.085 220.63 286.323 220.63 281.568 217.869C279.177 216.486 277.987 214.69 277.987 212.879C277.989 212.295 278.111 211.717 278.347 211.182" stroke="#3A3A3A" stroke-width="5" stroke-linecap="round" stroke-linejoin="round"/>
<g style="mix-blend-mode:multiply">
<path d="M18.7806 168.496C18.4065 168.5 18.0437 168.625 17.7463 168.852C17.4489 169.079 17.2329 169.396 17.1303 169.756C16.9075 170.526 17.2348 171.257 17.0175 172.008C16.8155 172.536 16.4766 173.002 16.0356 173.356C14.82 174.456 12.9827 175.05 11.4149 175.419C9.72068 175.815 7.76238 175.969 6.05437 175.608C4.56089 175.289 3.59275 174.332 2.86664 173.051C2.82765 172.986 2.7689 172.935 2.69907 172.907C2.62924 172.878 2.55203 172.873 2.47883 172.891C1.49142 173.207 0.911081 174.291 0.762558 175.265C0.517771 176.86 1.26589 178.389 2.38806 179.473C5.04771 182.044 9.15959 181.989 12.5646 181.412C15.7854 180.862 19.3692 179.437 21.1459 176.524C22.5761 174.151 22.4744 168.702 18.7806 168.496Z" fill="#D7DCE0"/>
</g>
<path d="M3.75504 167.473L2.27806 170.93C1.5492 172.478 2.23681 174.208 4.34363 175.421C5.91137 176.326 7.96043 176.777 10.0122 176.777C12.0641 176.777 14.1049 176.326 15.6781 175.41C17.7849 174.197 18.4753 172.467 17.7437 170.919L10.0095 152.857L3.75504 167.473Z" stroke="#3A3A3A" stroke-width="2.63465" stroke-linecap="round" stroke-linejoin="round"/>
<path d="M17.3685 171.213C18.0647 172.687 17.4077 174.333 15.4029 175.487C13.911 176.348 11.9611 176.777 10.0086 176.777C8.05608 176.777 6.10619 176.348 4.61433 175.477C2.60947 174.322 1.95514 172.676 2.64873 171.203L4.05684 167.913C3.93859 168.181 3.8771 168.47 3.87625 168.763C3.87625 169.671 4.473 170.572 5.67172 171.265C8.06656 172.65 11.9533 172.65 14.3376 171.265C15.4971 170.598 16.0991 169.732 16.1331 168.85C16.1469 168.528 16.0869 168.207 15.9577 167.913L17.3685 171.213Z" fill="#F6D84C"/>
<path d="M16.2641 167.473C16.3998 167.783 16.4628 168.119 16.4483 168.457C16.4126 169.384 15.78 170.295 14.5615 170.996C12.0504 172.451 7.96053 172.451 5.4549 170.996C4.19521 170.267 3.56812 169.321 3.56812 168.367C3.56901 168.059 3.63363 167.754 3.75789 167.473" stroke="#3A3A3A" stroke-width="2.63465" stroke-linecap="round" stroke-linejoin="round"/>
<defs>
<clipPath id="clip0_29_2384">
<rect width="242" height="277" fill="white" transform="translate(33 0.5)"/>
</clipPath>
</defs>
</svg>
