<svg width="488" height="299" viewBox="0 0 488 299" fill="none" xmlns="http://www.w3.org/2000/svg">
<path d="M367.345 244.584C524.792 190.147 501.22 165.004 443.826 133.864C417.875 119.784 390.693 107.873 362.142 100.352C323.966 90.2957 262.892 77.748 160.879 66.4288C75.8127 56.9899 -15.4019 107.068 40.7704 171.644C52.3015 184.9 65.612 200.309 79.7122 219.286C142.136 303.3 129.212 326.918 367.345 244.584Z" fill="#EFF0F1"/>
<path d="M254.079 216.177L251.379 213.909L248.062 215.124L250.771 217.385L254.079 216.177Z" fill="#C2C7CC"/>
<path d="M246.243 225.513L248.952 227.774L252.26 226.566L249.559 224.306L246.243 225.513Z" fill="#C2C7CC"/>
<path d="M245.481 221.813L248.797 220.606L246.088 218.344L242.78 219.553L245.481 221.813Z" fill="#C2C7CC"/>
<path d="M240.199 226.242L243.507 225.034L240.807 222.773L237.491 223.98L240.199 226.242Z" fill="#C2C7CC"/>
<path d="M236.728 220.281L240.045 219.074L239.144 218.32L236.01 219.685L236.728 220.281Z" fill="#C2C7CC"/>
<path d="M244.973 229.318L244.237 228.728L240.954 229.982L241.737 230.64L244.973 229.318Z" fill="#C2C7CC"/>
<path d="M234.755 223.501L232.18 221.339L229.046 222.703L231.447 224.71L234.755 223.501Z" fill="#C2C7CC"/>
<path d="M230.235 231.63L226.927 232.839L229.627 235.107L232.936 233.891L230.235 231.63Z" fill="#C2C7CC"/>
<path d="M235.517 227.201L232.209 228.41L234.908 230.678L238.226 229.463L235.517 227.201Z" fill="#C2C7CC"/>
<path d="M224.192 232.36L221.483 230.098L218.175 231.306L220.874 233.575L224.192 232.36Z" fill="#C2C7CC"/>
<path d="M229.473 227.931L226.773 225.67L223.456 226.877L226.164 229.147L229.473 227.931Z" fill="#C2C7CC"/>
<path d="M216.355 241.704L217.503 242.668C217.986 242.358 218.453 242.037 218.934 241.735C219.415 241.434 219.804 241.225 220.227 240.963L219.664 240.487L216.355 241.704Z" fill="#C2C7CC"/>
<path d="M223.704 238.979L225.637 237.908L226.564 237.407L224.954 236.06L221.636 237.275L223.704 238.979Z" fill="#C2C7CC"/>
<path d="M212.884 235.742L215.593 238.004L218.901 236.796L216.201 234.527L212.884 235.742Z" fill="#C2C7CC"/>
<path d="M213.872 229.521C212.857 229.998 211.857 230.486 210.849 230.972L212.123 232.034L215.441 230.819L213.872 229.521Z" fill="#C2C7CC"/>
<path d="M220.699 226.378L220.326 226.547L220.721 226.398L220.699 226.378Z" fill="#C2C7CC"/>
<path d="M213.619 241.225L210.912 238.955L207.602 240.171L210.303 242.431L213.619 241.225Z" fill="#C2C7CC"/>
<path d="M206.406 251.08L206.804 250.722C207.163 250.399 207.543 250.096 207.917 249.784L205.784 250.56L206.406 251.08Z" fill="#C2C7CC"/>
<path d="M213.942 245.083L211.065 246.131L211.739 246.694C212.463 246.149 213.196 245.606 213.942 245.083Z" fill="#C2C7CC"/>
<path d="M204.867 239.692L202.159 237.423L198.85 238.639L201.55 240.899L204.867 239.692Z" fill="#C2C7CC"/>
<path d="M210.148 235.263L207.449 232.995L205.083 233.856C204.804 234.009 204.52 234.144 204.234 234.295L206.847 236.431L210.148 235.263Z" fill="#C2C7CC"/>
<path d="M203.048 250.081L200.339 247.82L197.031 249.028L199.732 251.288L203.048 250.081Z" fill="#C2C7CC"/>
<path d="M208.329 245.652L205.629 243.392L202.312 244.599L205.021 246.861L208.329 245.652Z" fill="#C2C7CC"/>
<path d="M196.269 245.328L199.585 244.122L196.876 241.86L193.568 243.068L196.269 245.328Z" fill="#C2C7CC"/>
<path d="M195.212 259.417L197.063 260.975C197.735 260.203 198.42 259.45 199.139 258.703L198.569 258.217L195.212 259.417Z" fill="#C2C7CC"/>
<path d="M201.614 255.922C202.27 255.198 202.922 254.54 203.586 253.859L200.492 254.996L201.614 255.922Z" fill="#C2C7CC"/>
<path d="M192.542 266.04C193.222 265.32 193.915 264.527 194.617 263.777L193.271 262.643L189.931 263.846L192.542 266.04Z" fill="#C2C7CC"/>
<path d="M190.097 237.107L192.806 239.368L196.114 238.16L193.415 235.892L190.097 237.107Z" fill="#C2C7CC"/>
<path d="M191.595 246.289L188.278 247.496L190.987 249.757L194.295 248.549L191.595 246.289Z" fill="#C2C7CC"/>
<path d="M189.776 256.678L186.46 257.885L189.167 260.155L192.477 258.938L189.776 256.678Z" fill="#C2C7CC"/>
<path d="M195.057 252.249L191.75 253.457L194.449 255.725L197.766 254.51L195.057 252.249Z" fill="#C2C7CC"/>
<path d="M188.739 270.032C189.155 269.618 189.573 269.196 189.983 268.773L187.957 267.067L184.64 268.282L187.349 270.544L188.739 270.032Z" fill="#C2C7CC"/>
<path d="M187.362 236.628L187.077 236.385L186.071 237.098L187.362 236.628Z" fill="#C2C7CC"/>
<path d="M179.526 245.963L182.235 248.225L185.543 247.017L182.842 244.757L179.526 245.963Z" fill="#C2C7CC"/>
<path d="M187.516 243.796L190.833 242.589L188.124 240.328L184.816 241.536L187.516 243.796Z" fill="#C2C7CC"/>
<path d="M184.486 261.106L181.177 262.322L183.878 264.582L187.194 263.376L184.486 261.106Z" fill="#C2C7CC"/>
<path d="M181.023 255.146L177.707 256.353L180.415 258.622L183.724 257.406L181.023 255.146Z" fill="#C2C7CC"/>
<path d="M186.305 250.717L182.997 251.925L185.696 254.193L189.014 252.978L186.305 250.717Z" fill="#C2C7CC"/>
<path d="M179.205 265.535L175.887 266.75L178.596 269.012L181.904 267.803L179.205 265.535Z" fill="#C2C7CC"/>
<path d="M174.068 277.139L176.777 279.401L177.808 279.027C178.429 278.641 179.037 278.235 179.638 277.82L177.387 275.916L174.068 277.139Z" fill="#C2C7CC"/>
<path d="M184.38 274.127L185.067 273.509L182.666 271.503L179.358 272.711L182.059 274.971L184.38 274.127Z" fill="#C2C7CC"/>
<path d="M170.782 244.433L173.482 246.693L176.79 245.485L174.09 243.224L170.782 244.433Z" fill="#C2C7CC"/>
<path d="M177.329 239.865C176.932 239.929 176.556 240.015 176.172 240.098L178.77 242.231L182.086 241.024L181.237 240.314L180.496 240.805C180.068 240.428 179.563 240.148 179.016 239.985C178.47 239.823 177.894 239.782 177.329 239.865Z" fill="#C2C7CC"/>
<path d="M175.734 259.574L172.424 260.79L175.125 263.05L178.441 261.843L175.734 259.574Z" fill="#C2C7CC"/>
<path d="M168.963 254.822L171.662 257.09L174.972 255.874L172.271 253.614L168.963 254.822Z" fill="#C2C7CC"/>
<path d="M174.244 250.393L176.944 252.661L180.261 251.446L177.552 249.184L174.244 250.393Z" fill="#C2C7CC"/>
<path d="M173.914 269.971L170.606 271.179L173.306 273.439L176.622 272.232L173.914 269.971Z" fill="#C2C7CC"/>
<path d="M167.143 265.219L169.843 267.479L173.151 266.271L170.452 264.003L167.143 265.219Z" fill="#C2C7CC"/>
<path d="M168.632 274.4L165.324 275.608L168.025 277.868L171.333 276.66L168.632 274.4Z" fill="#C2C7CC"/>
<path d="M173.465 281.497L172.103 280.361L168.795 281.569L170.42 282.928C171.444 282.481 172.459 282.004 173.465 281.497Z" fill="#C2C7CC"/>
<path d="M166.214 244.59L168.011 243.914L167.615 243.585C167.171 243.918 166.68 244.277 166.214 244.59Z" fill="#C2C7CC"/>
<path d="M163.672 259.258L166.381 261.519L169.689 260.311L166.989 258.043L163.672 259.258Z" fill="#C2C7CC"/>
<path d="M160.21 253.29L162.91 255.558L166.227 254.343L163.518 252.081L160.21 253.29Z" fill="#C2C7CC"/>
<path d="M165.492 248.861L168.199 251.13L171.509 249.914L168.808 247.654L165.492 248.861Z" fill="#C2C7CC"/>
<path d="M158.39 263.687L161.091 265.947L164.407 264.74L161.7 262.47L158.39 263.687Z" fill="#C2C7CC"/>
<path d="M157.628 259.987L160.936 258.779L158.237 256.511L154.919 257.726L157.628 259.987Z" fill="#C2C7CC"/>
<path d="M156.571 274.076L159.272 276.336L162.588 275.129L159.879 272.868L156.571 274.076Z" fill="#C2C7CC"/>
<path d="M164.562 271.908L167.87 270.7L165.169 268.44L161.853 269.647L164.562 271.908Z" fill="#C2C7CC"/>
<path d="M155.809 270.376L159.117 269.168L156.417 266.908L153.1 268.114L155.809 270.376Z" fill="#C2C7CC"/>
<path d="M152.779 287.686L149.767 288.787C150.944 288.581 152.116 288.359 153.284 288.11L152.779 287.686Z" fill="#C2C7CC"/>
<path d="M154.751 284.473L157.452 286.733L160.768 285.526L158.061 283.257L154.751 284.473Z" fill="#C2C7CC"/>
<path d="M154.598 277.297L151.282 278.504L153.989 280.773L157.299 279.557L154.598 277.297Z" fill="#C2C7CC"/>
<path d="M166.051 281.089L163.35 278.829L160.034 280.036L162.742 282.305L166.051 281.089Z" fill="#C2C7CC"/>
<path d="M161.384 248.888L162.756 248.381L162.273 247.978C161.969 248.277 161.681 248.579 161.384 248.888Z" fill="#C2C7CC"/>
<path d="M150.813 261.723C150.579 262.001 150.346 262.279 150.106 262.547L152.338 264.415L155.655 263.208L152.947 260.938L150.813 261.723Z" fill="#C2C7CC"/>
<path d="M147.819 272.544L150.52 274.804L153.836 273.597L151.127 271.335L147.819 272.544Z" fill="#C2C7CC"/>
<path d="M144.027 286.154L140.717 287.37L143.418 289.63L146.726 288.422L144.027 286.154Z" fill="#C2C7CC"/>
<path d="M145.999 282.941L148.7 285.201L152.016 283.994L149.308 281.724L145.999 282.941Z" fill="#C2C7CC"/>
<path d="M145.845 275.764L142.537 276.973L145.237 279.241L148.546 278.025L145.845 275.764Z" fill="#C2C7CC"/>
<path d="M147.664 265.375L147.323 265.5C146.667 266.132 145.973 266.741 145.256 267.337L147.057 268.844L150.365 267.635L147.664 265.375Z" fill="#C2C7CC"/>
<path d="M141.244 270.218C140.642 270.591 140.018 270.943 139.38 271.284L141.759 273.27L145.067 272.062L142.385 269.788L141.244 270.218Z" fill="#C2C7CC"/>
<path d="M137.246 281.409L139.955 283.67L143.263 282.462L140.564 280.194L137.246 281.409Z" fill="#C2C7CC"/>
<path d="M131.965 285.838L134.666 288.098L137.982 286.891L135.274 284.621L131.965 285.838Z" fill="#C2C7CC"/>
<path d="M131.203 282.138L134.511 280.93L131.811 278.661L128.494 279.876L131.203 282.138Z" fill="#C2C7CC"/>
<path d="M133.785 275.441L136.484 277.709L139.802 276.494L137.093 274.232L133.785 275.441Z" fill="#C2C7CC"/>
<path d="M126.675 290.265L128.71 291.964L132.549 291.369L132.692 291.319L129.991 289.058L126.675 290.265Z" fill="#C2C7CC"/>
<path d="M123.212 284.305L125.913 286.566L129.229 285.359L126.522 283.089L123.212 284.305Z" fill="#C2C7CC"/>
<path d="M124.434 278.285L124.201 278.37L120.547 279.014L122.45 280.606L125.76 279.389L124.434 278.285Z" fill="#C2C7CC"/>
<path d="M120.631 290.995L123.939 289.787L121.239 287.526L117.923 288.733L120.631 290.995Z" fill="#C2C7CC"/>
<path d="M117.169 285.035L120.477 283.826L117.777 281.558L114.46 282.773L117.169 285.035Z" fill="#C2C7CC"/>
<path d="M114.876 295.014L116.153 294.625C116.913 294.405 117.677 294.212 118.442 294.01L115.99 291.961L112.674 293.168L114.876 295.014Z" fill="#C2C7CC"/>
<path d="M112.486 285.994L109.178 287.202L111.879 289.462L115.195 288.256L112.486 285.994Z" fill="#C2C7CC"/>
<path d="M108.277 297.383C109.075 297.044 109.886 296.725 110.694 296.421L107.386 297.63L107.532 297.756L108.277 297.383Z" fill="#C2C7CC"/>
<path d="M106.442 286.724L103.734 284.462L100.426 285.67L103.126 287.93L106.442 286.724Z" fill="#C2C7CC"/>
<path d="M111.724 282.294L110.094 280.918C108.834 281.179 107.575 281.45 106.317 281.734L108.418 283.494L111.724 282.294Z" fill="#C2C7CC"/>
<path d="M104.624 297.112L101.915 294.851L98.6069 296.059L101.308 298.319L104.624 297.112Z" fill="#C2C7CC"/>
<path d="M109.905 292.684L107.205 290.423L103.888 291.63L106.597 293.892L109.905 292.684Z" fill="#C2C7CC"/>
<path d="M98.452 288.891L95.1359 290.098L97.8448 292.359L101.153 291.151L98.452 288.891Z" fill="#C2C7CC"/>
<path d="M97.69 285.191L96.8343 284.471C95.7426 284.858 94.6534 285.28 93.5762 285.73L94.382 286.399L97.69 285.191Z" fill="#C2C7CC"/>
<path d="M95.8712 295.58L93.1623 293.319L89.8543 294.527L92.5551 296.787L95.8712 295.58Z" fill="#C2C7CC"/>
<path d="M89.771 287.43C88.7805 287.911 87.7938 288.418 86.8206 288.944L89.0895 290.843L92.4056 289.637L89.771 287.43Z" fill="#C2C7CC"/>
<path d="M87.1188 294.048L84.418 291.788L81.1019 292.995L83.8108 295.256L87.1188 294.048Z" fill="#C2C7CC"/>
<path d="M249.228 80.0013L248.384 79.9163L246.31 82.7522L246.807 82.811C247.77 82.0206 248.589 81.0701 249.228 80.0013Z" fill="#C2C7CC"/>
<path d="M243.774 83.8845L240.264 83.5236L238.287 86.3342C239.868 86.1737 241.418 85.7867 242.888 85.1851L243.774 83.8845Z" fill="#C2C7CC"/>
<path d="M245.684 77.2747L242.181 76.9105L240.106 79.7649L243.617 80.1257L245.684 77.2747Z" fill="#C2C7CC"/>
<path d="M247.049 93.4297L244.563 93.1729L242.499 96.0315L245.935 96.3891C246.082 96.1698 246.221 95.9539 246.345 95.7263C246.746 95.0218 246.986 94.2377 247.049 93.4297Z" fill="#C2C7CC"/>
<path d="M239.806 93.3866L241.87 90.528L240.028 90.3364C239.096 91.0029 238.092 91.5633 237.036 92.0073L236.292 93.0182L239.806 93.3866Z" fill="#C2C7CC"/>
<path d="M237.895 100.015L239.97 97.1605L236.457 96.792L234.393 99.6506L237.895 100.015Z" fill="#C2C7CC"/>
<path d="M222.631 92.7085L221.946 93.648L225.459 94.0164L225.57 93.8584C224.525 93.6675 223.527 93.2771 222.631 92.7085Z" fill="#C2C7CC"/>
<path d="M226.947 102.377C228.226 102.444 229.509 102.416 230.784 102.293L231.909 100.759L228.403 100.387L226.947 102.377Z" fill="#C2C7CC"/>
<path d="M231.692 97.0089L233.756 94.1503L230.357 93.7943L230.244 93.8448L228.2 96.6673L231.692 97.0089Z" fill="#C2C7CC"/>
<path d="M215.039 95.636C215.382 96.3121 215.807 96.9434 216.304 97.5155L217.376 97.6254L219.44 94.7668L215.937 94.4025L215.039 95.636Z" fill="#C2C7CC"/>
<path d="M225.65 97.7694L222.14 97.4085L220.072 100.26L223.579 100.631L225.65 97.7694Z" fill="#C2C7CC"/>
<path d="M234.068 80.533L231.993 83.3874L235.503 83.7483L237.57 80.8973L234.068 80.533Z" fill="#C2C7CC"/>
<path d="M226.432 79.4881C226.481 79.8217 226.558 80.1506 226.663 80.4713L229.293 80.7455L231.368 77.8911L227.857 77.5302L226.432 79.4881Z" fill="#C2C7CC"/>
<path d="M217.606 88.5517L217.308 88.5128L215.773 90.6286L219.276 90.9928L219.937 90.082C219.631 89.7416 219.293 89.4318 218.927 89.1571C218.627 88.9923 218.33 88.835 218.016 88.6585C217.297 88.5271 217.145 88.5315 217.606 88.5517Z" fill="#C2C7CC"/>
<path d="M329.488 19.5872L328.644 19.5022L326.57 22.3382L327.067 22.3969C328.03 21.6065 328.848 20.656 329.488 19.5872Z" fill="#C2C7CC"/>
<path d="M324.034 23.4704L320.524 23.1095L318.547 25.9202C320.128 25.7596 321.677 25.3726 323.148 24.7711L324.034 23.4704Z" fill="#C2C7CC"/>
<path d="M325.944 16.8607L322.441 16.4964L320.366 19.3508L323.877 19.7117L325.944 16.8607Z" fill="#C2C7CC"/>
<path d="M327.309 33.0157L324.823 32.7588L322.759 35.6174L326.195 35.9751C326.342 35.7558 326.481 35.5399 326.605 35.3122C327.006 34.6077 327.246 33.8236 327.309 33.0157Z" fill="#C2C7CC"/>
<path d="M320.066 32.9726L322.13 30.114L320.288 29.9223C319.356 30.5888 318.352 31.1492 317.296 31.5933L316.552 32.6041L320.066 32.9726Z" fill="#C2C7CC"/>
<path d="M318.155 39.6008L320.23 36.7464L316.716 36.3779L314.652 39.2366L318.155 39.6008Z" fill="#C2C7CC"/>
<path d="M302.89 32.2945L302.205 33.2339L305.719 33.6023L305.83 33.4444C304.785 33.2534 303.787 32.863 302.89 32.2945Z" fill="#C2C7CC"/>
<path d="M307.207 41.963C308.486 42.0296 309.769 42.0016 311.044 41.8794L312.169 40.345L308.663 39.9732L307.207 41.963Z" fill="#C2C7CC"/>
<path d="M311.952 36.5948L314.016 33.7362L310.617 33.3802L310.503 33.4307L308.459 36.2532L311.952 36.5948Z" fill="#C2C7CC"/>
<path d="M295.299 35.222C295.642 35.8981 296.066 36.5294 296.564 37.1015L297.636 37.2113L299.7 34.3527L296.197 33.9885L295.299 35.222Z" fill="#C2C7CC"/>
<path d="M305.91 37.3553L302.4 36.9944L300.332 39.8455L303.838 40.2173L305.91 37.3553Z" fill="#C2C7CC"/>
<path d="M314.327 20.119L312.253 22.9734L315.763 23.3342L317.83 20.4832L314.327 20.119Z" fill="#C2C7CC"/>
<path d="M306.692 19.074C306.741 19.4077 306.818 19.7366 306.923 20.0572L309.552 20.3315L311.627 17.4771L308.117 17.1162L306.692 19.074Z" fill="#C2C7CC"/>
<path d="M297.866 28.1376L297.568 28.0987L296.033 30.2145L299.535 30.5788L300.197 29.6679C299.891 29.3275 299.553 29.0178 299.187 28.7431C298.887 28.5782 298.59 28.421 298.276 28.2444C297.557 28.113 297.405 28.1174 297.866 28.1376Z" fill="#C2C7CC"/>
<path d="M361.292 88.505L360.173 88.3922L357.423 92.1528L358.082 92.2307C359.358 91.1826 360.444 89.9222 361.292 88.505Z" fill="#C2C7CC"/>
<path d="M354.06 93.6541L349.405 93.1756L346.784 96.9026C348.88 96.6897 350.935 96.1765 352.886 95.3788L354.06 93.6541Z" fill="#C2C7CC"/>
<path d="M356.593 84.8893L351.948 84.4063L349.197 88.1914L353.851 88.6699L356.593 84.8893Z" fill="#C2C7CC"/>
<path d="M358.403 106.311L355.106 105.971L352.369 109.761L356.926 110.236C357.12 109.945 357.304 109.659 357.47 109.357C358.001 108.423 358.319 107.383 358.403 106.311Z" fill="#C2C7CC"/>
<path d="M348.798 106.254L351.535 102.463L349.093 102.209C347.857 103.093 346.526 103.836 345.125 104.425L344.139 105.765L348.798 106.254Z" fill="#C2C7CC"/>
<path d="M346.265 115.044L349.016 111.258L344.357 110.77L341.62 114.561L346.265 115.044Z" fill="#C2C7CC"/>
<path d="M326.023 105.355L325.115 106.601L329.774 107.089L329.921 106.88C328.535 106.627 327.212 106.109 326.023 105.355Z" fill="#C2C7CC"/>
<path d="M331.747 118.176C333.443 118.264 335.144 118.227 336.835 118.065L338.327 116.031L333.678 115.538L331.747 118.176Z" fill="#C2C7CC"/>
<path d="M338.039 111.057L340.776 107.267L336.268 106.795L336.118 106.862L333.408 110.604L338.039 111.057Z" fill="#C2C7CC"/>
<path d="M315.957 109.237C316.411 110.133 316.974 110.971 317.634 111.729L319.055 111.875L321.792 108.084L317.147 107.601L315.957 109.237Z" fill="#C2C7CC"/>
<path d="M330.027 112.066L325.372 111.587L322.631 115.368L327.28 115.861L330.027 112.066Z" fill="#C2C7CC"/>
<path d="M341.189 89.2095L338.438 92.9946L343.092 93.4731L345.834 89.6926L341.189 89.2095Z" fill="#C2C7CC"/>
<path d="M331.064 87.8243C331.129 88.2667 331.231 88.7029 331.37 89.1281L334.857 89.4917L337.609 85.7067L332.954 85.2281L331.064 87.8243Z" fill="#C2C7CC"/>
<path d="M319.361 99.843L318.966 99.7913L316.929 102.597L321.574 103.08L322.451 101.872C322.046 101.421 321.597 101.01 321.112 100.646C320.714 100.427 320.321 100.219 319.904 99.9845C318.95 99.8103 318.749 99.8162 319.361 99.843Z" fill="#C2C7CC"/>
<path d="M243.151 74.7135C243.225 74.6473 243.201 74.6721 243.151 74.7135Z" fill="#D7DCE0"/>
<path d="M341.141 71.3245C343.976 72.9776 343.976 75.6061 341.141 77.2428C339.225 78.2406 337.055 78.6462 334.908 78.4082C333.495 78.3166 332.119 77.919 330.875 77.2428C330.399 77.0088 329.975 76.6831 329.626 76.2845C329.277 75.8859 329.01 75.4222 328.841 74.9201C328.502 73.6554 329.18 72.3081 330.875 71.3328C332.464 70.5215 334.222 70.0979 336.007 70.0964C337.791 70.095 339.55 70.5158 341.141 71.3245Z" fill="white"/>
<path d="M354.779 105.015C348.919 107.892 341.653 109.322 334.404 109.264C326.659 109.206 318.956 107.47 313.062 104.065C307.169 100.659 304.152 96.2042 304.052 91.7325C304.048 91.6526 304.048 91.5726 304.052 91.4928V75.1845C304.152 79.6563 307.152 84.1033 313.062 87.5087C318.972 90.9142 326.659 92.6582 334.404 92.7161C342.414 92.774 350.456 91.063 356.573 87.517C362.689 83.971 365.582 79.4993 365.582 74.9531V91.4845C365.582 96.0307 362.574 100.577 356.573 104.048C356.019 104.387 355.391 104.701 354.779 105.015Z" fill="#3A3A3A"/>
<path d="M328.808 74.92C320.591 73.795 312.252 73.8841 304.061 75.1845C303.953 70.5639 306.954 65.9186 313.062 62.3892C325.08 55.4543 344.563 55.4543 356.581 62.3892C362.59 65.8608 365.591 70.4069 365.591 74.953C365.591 79.4992 362.59 84.0453 356.581 87.5169C350.572 90.9885 342.422 92.7739 334.412 92.716C335.522 90.5105 336.139 88.0899 336.221 85.6222C336.302 83.1544 335.846 80.6985 334.884 78.4246C337.04 78.6626 339.219 78.251 341.141 77.2427C343.968 75.5895 343.968 72.9527 341.141 71.3244C339.552 70.5158 337.794 70.0943 336.012 70.0943C334.229 70.0943 332.472 70.5158 330.883 71.3244C329.188 72.2997 328.511 73.6471 328.85 74.9117L328.808 74.92Z" fill="#EBEDEF"/>
<path d="M328.808 74.92C328.977 75.4221 329.244 75.8858 329.593 76.2844C329.942 76.683 330.366 77.0087 330.842 77.2426C332.086 77.9188 333.462 78.3165 334.875 78.4081C335.838 80.6819 336.294 83.1379 336.213 85.6056C336.131 88.0734 335.514 90.4939 334.404 92.6994C326.659 92.6416 318.956 90.8975 313.062 87.4921C307.169 84.0866 304.152 79.6397 304.053 75.1679C312.244 73.8676 320.582 73.7784 328.8 74.9034L328.808 74.92Z" fill="white"/>
<path d="M317.302 11.3651C319.179 12.4479 319.187 14.2085 317.302 15.2913C316.031 15.951 314.594 16.2213 313.17 16.0682C312.235 16.0014 311.325 15.7365 310.5 15.2913C310.185 15.1368 309.903 14.9214 309.672 14.6575C309.441 14.3936 309.264 14.0865 309.152 13.7539C308.929 12.9273 309.376 12.0263 310.5 11.3733C311.553 10.8369 312.718 10.5566 313.9 10.5552C315.082 10.5537 316.248 10.8312 317.302 11.3651Z" fill="white"/>
<path d="M319.964 34.0129C317.63 34.485 315.253 34.7122 312.872 34.6907C307.739 34.6907 302.631 33.5005 298.721 31.244C294.811 28.9874 292.786 26.0366 292.753 23.0774V13.9273C292.819 16.8947 294.811 19.829 298.721 22.0938C302.631 24.3586 307.739 25.4993 312.872 25.5406C318.179 25.5406 323.502 24.433 327.552 22.0938C331.602 19.7546 333.528 16.779 333.528 13.7703V22.9204C333.528 25.9291 331.536 28.9461 327.552 31.244C325.187 32.5677 322.625 33.5027 319.964 34.0129Z" fill="#3A3A3A"/>
<path d="M309.161 13.7538C309.272 14.0864 309.449 14.3936 309.68 14.6575C309.912 14.9214 310.193 15.1368 310.508 15.2912C311.333 15.7365 312.243 16.0014 313.178 16.0682C313.815 17.5738 314.118 19.1998 314.065 20.8339C314.012 22.468 313.605 24.0711 312.872 25.5324C307.739 25.4911 302.631 24.3421 298.721 22.0856C294.811 19.8291 292.819 16.8865 292.753 13.9191C298.181 13.0541 303.707 12.9957 309.152 13.7456L309.161 13.7538Z" fill="white"/>
<path d="M309.152 13.7539C303.707 13.004 298.181 13.0624 292.753 13.9274C292.687 10.8608 294.671 7.78599 298.721 5.4468C306.681 0.851068 319.592 0.851068 327.56 5.4468C331.536 7.74466 333.528 10.7616 333.528 13.7704C333.528 16.7791 331.536 19.7961 327.552 22.0939C323.568 24.3918 318.179 25.582 312.872 25.5407C313.605 24.0794 314.012 22.4763 314.065 20.8422C314.118 19.2081 313.815 17.5821 313.178 16.0765C314.602 16.2296 316.039 15.9593 317.311 15.2995C319.187 14.2167 319.179 12.4561 317.311 11.3733C316.258 10.8396 315.094 10.5614 313.913 10.5614C312.733 10.5614 311.569 10.8396 310.516 11.3733C309.392 12.0263 308.946 12.9108 309.169 13.7539H309.152Z" fill="#EBEDEF"/>
<path d="M234.554 64.3315C236.794 65.621 236.803 67.7122 234.554 69.0099C233.029 69.8027 231.303 70.1249 229.595 69.9356C228.48 69.858 227.395 69.5423 226.413 69.0099C226.029 68.83 225.684 68.575 225.4 68.2598C225.116 67.9446 224.899 67.5757 224.76 67.1749C224.495 66.1747 225.032 65.1084 226.413 64.3397C227.672 63.6916 229.067 63.3528 230.483 63.3513C231.899 63.3499 233.294 63.6859 234.554 64.3315Z" fill="white"/>
<path d="M253.905 77.2095V78.1104C253.905 81.706 251.532 85.2933 246.78 88.0293C242.027 90.7652 235.596 92.1621 229.265 92.1621C223.148 92.1621 217.056 90.7404 212.394 88.0293C207.732 85.3181 205.319 81.8217 205.277 78.284V67.3733C205.36 70.911 207.757 74.4157 212.394 77.1185C217.031 79.8214 223.14 81.177 229.265 81.2514C235.596 81.301 241.952 79.9289 246.78 77.1185C251.607 74.3082 253.905 70.7788 253.905 67.1997V77.2095Z" fill="#3A3A3A"/>
<path d="M224.842 67.1751C224.981 67.5759 225.199 67.9449 225.483 68.26C225.767 68.5752 226.111 68.8303 226.495 69.0101C227.478 69.5425 228.563 69.8582 229.678 69.9359C230.437 71.7326 230.797 73.6728 230.732 75.6222C230.668 77.5717 230.181 79.4839 229.306 81.2268C223.189 81.1772 217.097 79.8051 212.436 77.0939C207.774 74.3828 205.401 70.8864 205.319 67.3487C211.792 66.3239 218.382 66.2543 224.875 67.1421L224.842 67.1751Z" fill="white"/>
<path d="M229.636 69.9357C231.345 70.125 233.071 69.8029 234.596 69.01C236.836 67.7123 236.828 65.6211 234.596 64.3316C233.342 63.6916 231.954 63.3579 230.546 63.3579C229.138 63.3579 227.75 63.6916 226.495 64.3316C225.156 65.1003 224.619 66.1666 224.842 67.1668C218.348 66.279 211.759 66.3486 205.286 67.3734C205.203 63.72 207.575 60.05 212.402 57.2644C221.9 51.7843 237.299 51.7843 246.796 57.2644C251.541 60.0004 253.913 63.5959 253.913 67.1833C253.913 70.7706 251.541 74.3661 246.788 77.1021C242.035 79.838 235.604 81.2349 229.273 81.2349C230.148 79.492 230.635 77.5798 230.699 75.6304C230.764 73.6809 230.404 71.7408 229.645 69.944L229.636 69.9357Z" fill="#EBEDEF"/>
<path d="M334.404 92.716C342.414 92.7739 350.456 91.0629 356.573 87.5169C362.689 83.9709 365.582 79.4992 365.582 74.953C365.582 70.4069 362.582 65.8608 356.573 62.3892C344.554 55.4543 325.072 55.4543 313.054 62.3892C306.946 65.9186 303.962 70.5639 304.053 75.1845C304.152 79.6562 307.152 84.1032 313.062 87.5086C318.972 90.9141 326.659 92.6582 334.404 92.716Z" stroke="#3A3A3A" stroke-width="3" stroke-linecap="round" stroke-linejoin="round"/>
<path d="M334.875 78.408C337.033 78.6447 339.212 78.2393 341.141 77.2426C343.968 75.5894 343.968 72.9526 341.141 71.3243C339.552 70.5157 337.795 70.0942 336.012 70.0942C334.229 70.0942 332.472 70.5157 330.883 71.3243C329.188 72.2997 328.511 73.647 328.85 74.9116C329.019 75.4137 329.285 75.8774 329.634 76.2761C329.983 76.6747 330.408 77.0004 330.883 77.2343C332.116 77.9034 333.476 78.3035 334.875 78.408Z" stroke="#3A3A3A" stroke-width="3" stroke-linecap="round" stroke-linejoin="round"/>
<path d="M334.875 78.4246C335.838 80.6984 336.294 83.1543 336.213 85.6221C336.131 88.0898 335.514 90.5104 334.404 92.7159" stroke="#3A3A3A" stroke-width="3" stroke-linecap="round" stroke-linejoin="round"/>
<path d="M365.582 74.9531V91.4845C365.582 96.0306 362.574 100.577 356.573 104.048C355.994 104.387 355.391 104.701 354.779 104.999C348.919 107.875 341.653 109.305 334.404 109.247C326.659 109.19 318.956 107.454 313.062 104.048C307.169 100.643 304.152 96.1876 304.052 91.7159C304.048 91.636 304.048 91.556 304.052 91.4762V75.1845C312.244 73.8841 320.582 73.7951 328.8 74.92" stroke="#3A3A3A" stroke-width="3" stroke-linecap="round" stroke-linejoin="round"/>
<path d="M312.872 25.5407C318.179 25.5407 323.502 24.4331 327.552 22.0939C331.602 19.7547 333.528 16.7791 333.528 13.7704C333.528 10.7616 331.536 7.74466 327.56 5.4468C319.592 0.851068 306.681 0.851068 298.721 5.4468C294.671 7.78599 292.687 10.8608 292.753 13.9274C292.819 16.994 294.811 19.8291 298.721 22.0939C302.631 24.3587 307.739 25.4994 312.872 25.5407Z" stroke="#3A3A3A" stroke-width="3" stroke-linecap="round" stroke-linejoin="round"/>
<path d="M313.178 16.0683C314.602 16.2174 316.038 15.9474 317.311 15.2913C319.187 14.2085 319.179 12.4479 317.311 11.3651C316.258 10.8314 315.094 10.5532 313.914 10.5532C312.733 10.5532 311.569 10.8314 310.516 11.3651C309.392 12.0181 308.946 12.9025 309.169 13.7456C309.281 14.0783 309.457 14.3854 309.689 14.6493C309.92 14.9132 310.201 15.1286 310.516 15.283C311.338 15.7301 312.245 15.9977 313.178 16.0683Z" stroke="#3A3A3A" stroke-width="3" stroke-linecap="round" stroke-linejoin="round"/>
<path d="M313.178 16.0764C313.815 17.582 314.118 19.208 314.065 20.8421C314.012 22.4762 313.605 24.0793 312.872 25.5406" stroke="#3A3A3A" stroke-width="3" stroke-linecap="round" stroke-linejoin="round"/>
<path d="M333.528 13.7703V22.9205C333.528 25.9292 331.536 28.9462 327.552 31.244C325.186 32.5643 322.624 33.499 319.964 34.013C317.63 34.4851 315.253 34.7123 312.872 34.6908C307.739 34.6908 302.631 33.5006 298.721 31.244C294.811 28.9875 292.786 26.0367 292.753 23.0775V13.9274C298.181 13.0624 303.707 13.004 309.152 13.7539" stroke="#3A3A3A" stroke-width="3" stroke-linecap="round" stroke-linejoin="round"/>
<path d="M229.265 81.2349C235.596 81.2845 241.952 79.9124 246.78 77.1021C251.607 74.2917 253.905 70.7623 253.905 67.1833C253.905 63.6042 251.532 59.9921 246.788 57.2644C237.291 51.7843 221.892 51.7843 212.394 57.2644C207.567 60.05 205.195 63.72 205.277 67.3734C205.36 71.0268 207.757 74.4158 212.394 77.1186C217.031 79.8215 223.148 81.1853 229.265 81.2349Z" stroke="#3A3A3A" stroke-width="3" stroke-linecap="round" stroke-linejoin="round"/>
<path d="M229.637 69.9358C231.345 70.1206 233.069 69.7986 234.596 69.01C236.836 67.7123 236.828 65.6211 234.596 64.3316C233.342 63.6916 231.954 63.3579 230.546 63.3579C229.138 63.3579 227.75 63.6916 226.496 64.3316C225.156 65.1004 224.619 66.1666 224.842 67.1668C224.981 67.5676 225.199 67.9365 225.483 68.2516C225.767 68.5668 226.111 68.8219 226.496 69.0017C227.465 69.5314 228.535 69.8498 229.637 69.9358Z" stroke="#3A3A3A" stroke-width="3" stroke-linecap="round" stroke-linejoin="round"/>
<path d="M229.636 69.9441C230.395 71.7409 230.755 73.681 230.691 75.6304C230.627 77.5799 230.14 79.4921 229.264 81.235" stroke="#3A3A3A" stroke-width="3" stroke-linecap="round" stroke-linejoin="round"/>
<path d="M253.905 67.1998V78.1105C253.905 81.7061 251.532 85.2934 246.78 88.0293C242.027 90.7653 235.596 92.1622 229.265 92.1622C223.148 92.1622 217.056 90.7405 212.394 88.0293C207.732 85.3182 205.319 81.8218 205.277 78.284V67.3734C211.751 66.3485 218.34 66.2789 224.834 67.1667" stroke="#3A3A3A" stroke-width="3" stroke-linecap="round" stroke-linejoin="round"/>
<path d="M317.848 29.6902L331.387 57.2976" stroke="#3A3A3A" stroke-width="3" stroke-linecap="round" stroke-linejoin="round"/>
<path d="M251.408 76.978L304.028 81.7804" stroke="#3A3A3A" stroke-width="3" stroke-linecap="round" stroke-linejoin="round"/>
<path d="M238.439 56.6077V100.465L202.549 121.179V77.3215L238.439 56.6077Z" fill="#F6D84C"/>
<path d="M238.439 56.6078L202.549 77.3216L168.527 57.674L204.409 36.9602L238.439 56.6078Z" fill="#F6D84C"/>
<path d="M168.527 57.6738L202.549 77.3214V121.179" stroke="#3A3A3A" stroke-width="3" stroke-linecap="round" stroke-linejoin="round"/>
<path d="M202.549 201.762V245.619L148.822 276.632C129.811 287.601 112.602 288.626 100.129 281.418L99.9965 281.344C87.598 274.103 79.9274 258.712 79.9274 236.858V227.666C79.9274 183.8 110.833 130.272 148.822 108.334L202.549 77.3215V121.179L148.822 152.192C131.778 162.037 117.908 186.082 117.908 205.737V214.912C117.908 234.593 131.778 242.602 148.822 232.758L202.549 201.762Z" fill="white"/>
<path d="M238.439 181.048L202.549 201.762L168.527 182.114L204.409 161.4L238.439 181.048Z" fill="#F6D84C"/>
<path d="M202.549 77.3216L148.822 108.335C110.8 130.272 79.9274 183.8 79.9274 227.666V236.858C79.9274 258.712 87.598 274.103 99.9965 281.344L66.1072 261.771C53.626 254.571 45.9058 239.147 45.9058 217.21V208.019C45.9058 164.153 76.8112 110.624 114.8 88.6869L168.527 57.6741L202.549 77.3216Z" fill="#D7DCE0"/>
<path d="M238.439 181.048V224.906L202.549 245.619V201.762L238.439 181.048Z" fill="#F6D84C"/>
<path d="M202.549 201.762L148.822 232.774C131.778 242.619 117.908 234.609 117.908 214.929V211.333L168.519 182.114L202.549 201.762Z" fill="#3A3A3A"/>
<path d="M117.917 211.333L204.409 161.4L238.439 181.048" stroke="#3A3A3A" stroke-width="3" stroke-linecap="round" stroke-linejoin="round"/>
<path d="M100.005 281.344C87.6062 274.103 79.9356 258.713 79.9356 236.858V227.667C79.9356 183.801 110.841 130.272 148.83 108.335L238.439 56.6079V100.466L148.83 152.192C131.786 162.037 117.917 186.082 117.917 205.738V214.913C117.917 234.593 131.786 242.603 148.83 232.758L238.439 181.023V224.881L148.83 276.608C129.819 287.576 112.61 288.601 100.137 281.394" stroke="#3A3A3A" stroke-width="3" stroke-linecap="round" stroke-linejoin="round"/>
<path d="M168.527 182.114L202.549 201.762V245.619" stroke="#3A3A3A" stroke-width="3" stroke-linecap="round" stroke-linejoin="round"/>
<path d="M100.137 281.418L66.1155 261.771C53.6343 254.571 45.9141 239.147 45.9141 217.21V208.019C45.9141 164.153 76.8195 110.624 114.809 88.6869L204.409 36.9602L238.439 56.6077" stroke="#3A3A3A" stroke-width="3" stroke-linecap="round" stroke-linejoin="round"/>
</svg>
