<svg width="373" height="390" viewBox="0 0 373 390" fill="none" xmlns="http://www.w3.org/2000/svg">
<path d="M92.9488 334.878C-55.2344 264.467 -0.141403 228.313 78.5236 209.793C120.983 202.655 146.849 217.284 240.642 216.81C313.303 216.443 351.238 243.916 316.681 307.834C268.125 397.644 278.178 422.891 92.9488 334.878Z" fill="#EFF0F1"/>
<path d="M286.649 283.965L285.111 280.515L281.346 280.132L282.897 283.579L286.649 283.965Z" fill="#C2C7CC"/>
<path d="M274.727 289.289L276.278 292.736L280.031 293.122L278.487 289.679L274.727 289.289Z" fill="#C2C7CC"/>
<path d="M275.726 285.367L279.486 285.758L277.936 282.31L274.183 281.925L275.726 285.367Z" fill="#C2C7CC"/>
<path d="M268.564 287.161L272.316 287.546L270.773 284.103L267.013 283.713L268.564 287.161Z" fill="#C2C7CC"/>
<path d="M268.012 279.791L271.772 280.182L271.258 279.035L267.599 278.881L268.012 279.791Z" fill="#C2C7CC"/>
<path d="M271.721 292.36L271.289 291.446L267.539 291.118L267.985 292.118L271.721 292.36Z" fill="#C2C7CC"/>
<path d="M264.602 281.97L263.134 278.68L259.476 278.527L260.849 281.585L264.602 281.97Z" fill="#C2C7CC"/>
<path d="M256.441 287.684L252.688 287.299L254.226 290.749L257.984 291.127L256.441 287.684Z" fill="#C2C7CC"/>
<path d="M263.603 285.891L259.851 285.506L261.389 288.956L265.154 289.339L263.603 285.891Z" fill="#C2C7CC"/>
<path d="M250.276 285.556L248.726 282.109L244.973 281.723L246.511 285.173L250.276 285.556Z" fill="#C2C7CC"/>
<path d="M257.439 283.763L255.896 280.321L252.136 279.93L253.681 283.385L257.439 283.763Z" fill="#C2C7CC"/>
<path d="M238.349 290.887L239.004 292.355C239.614 292.282 240.215 292.192 240.819 292.126C241.424 292.06 241.896 292.041 242.427 291.988L242.108 291.265L238.349 290.887Z" fill="#C2C7CC"/>
<path d="M246.706 291.705L249.07 291.578L250.198 291.53L249.278 289.477L245.512 289.094L246.706 291.705Z" fill="#C2C7CC"/>
<path d="M237.798 283.518L239.348 286.966L243.101 287.351L241.563 283.902L237.798 283.518Z" fill="#C2C7CC"/>
<path d="M241.664 277.988C240.463 277.972 239.271 277.973 238.072 277.97L238.802 279.59L242.567 279.973L241.664 277.988Z" fill="#C2C7CC"/>
<path d="M249.714 278.158L249.274 278.146L249.725 278.188L249.714 278.158Z" fill="#C2C7CC"/>
<path d="M235.938 289.144L234.393 285.69L230.635 285.311L232.178 288.754L235.938 289.144Z" fill="#C2C7CC"/>
<path d="M224.372 295.261L224.924 295.102C225.421 294.959 225.929 294.845 226.435 294.72L224.017 294.468L224.372 295.261Z" fill="#C2C7CC"/>
<path d="M234.443 293.012L231.179 292.675L231.565 293.533C232.518 293.347 233.478 293.168 234.443 293.012Z" fill="#C2C7CC"/>
<path d="M228.224 283.568L226.679 280.114L222.921 279.735L224.464 283.178L228.224 283.568Z" fill="#C2C7CC"/>
<path d="M235.386 281.775L233.848 278.326L231.166 278.047C230.826 278.064 230.489 278.061 230.142 278.072L231.66 281.354L235.386 281.775Z" fill="#C2C7CC"/>
<path d="M221.606 292.726L220.055 289.278L216.302 288.893L217.846 292.335L221.606 292.726Z" fill="#C2C7CC"/>
<path d="M228.768 290.932L227.225 287.49L223.465 287.099L225.016 290.547L228.768 290.932Z" fill="#C2C7CC"/>
<path d="M217.301 284.971L221.061 285.362L219.511 281.914L215.758 281.529L217.301 284.971Z" fill="#C2C7CC"/>
<path d="M209.684 298.049L210.737 300.416C211.746 299.988 212.759 299.584 213.801 299.2L213.48 298.466L209.684 298.049Z" fill="#C2C7CC"/>
<path d="M217.488 297.681C218.459 297.29 219.396 296.962 220.355 296.618L216.842 296.263L217.488 297.681Z" fill="#C2C7CC"/>
<path d="M204.009 303.18C205.002 302.804 206.041 302.365 207.068 301.971L206.303 300.249L202.521 299.843L204.009 303.18Z" fill="#C2C7CC"/>
<path d="M215.206 274.16L216.757 277.607L220.509 277.993L218.971 274.543L215.206 274.16Z" fill="#C2C7CC"/>
<path d="M212.348 283.707L208.588 283.317L210.138 286.764L213.891 287.15L212.348 283.707Z" fill="#C2C7CC"/>
<path d="M205.73 292.864L201.97 292.473L203.515 295.928L207.273 296.306L205.73 292.864Z" fill="#C2C7CC"/>
<path d="M212.892 291.071L209.139 290.686L210.678 294.135L214.443 294.519L212.892 291.071Z" fill="#C2C7CC"/>
<path d="M198.476 305.243C199.071 305.04 199.671 304.829 200.264 304.613L199.111 302.021L195.346 301.638L196.896 305.085L198.476 305.243Z" fill="#C2C7CC"/>
<path d="M212.795 272.417L212.634 272.05L211.331 272.266L212.795 272.417Z" fill="#C2C7CC"/>
<path d="M200.873 277.741L202.424 281.188L206.177 281.574L204.633 278.131L200.873 277.741Z" fill="#C2C7CC"/>
<path d="M209.587 279.395L213.347 279.786L211.796 276.338L208.044 275.953L209.587 279.395Z" fill="#C2C7CC"/>
<path d="M198.559 294.652L194.801 294.274L196.345 297.716L200.105 298.107L198.559 294.652Z" fill="#C2C7CC"/>
<path d="M198.015 287.288L194.255 286.898L195.8 290.353L199.558 290.731L198.015 287.288Z" fill="#C2C7CC"/>
<path d="M205.178 285.495L201.425 285.11L202.963 288.559L206.728 288.943L205.178 285.495Z" fill="#C2C7CC"/>
<path d="M191.397 296.445L187.631 296.062L189.182 299.51L192.935 299.895L191.397 296.445Z" fill="#C2C7CC"/>
<path d="M181.013 305.219L182.563 308.666L183.731 308.789C184.511 308.708 185.286 308.602 186.06 308.484L184.783 305.595L181.013 305.219Z" fill="#C2C7CC"/>
<path d="M192.358 307.147L193.309 306.874L191.936 303.816L188.183 303.431L189.726 306.873L192.358 307.147Z" fill="#C2C7CC"/>
<path d="M193.166 272.17L194.709 275.613L198.462 275.998L196.919 272.556L193.166 272.17Z" fill="#C2C7CC"/>
<path d="M201.614 270.836C201.201 270.712 200.799 270.618 200.39 270.519L201.893 273.791L205.653 274.181L205.168 273.099L204.224 273.225C203.989 272.661 203.633 272.155 203.183 271.743C202.732 271.33 202.196 271.021 201.614 270.836Z" fill="#C2C7CC"/>
<path d="M190.845 289.076L187.087 288.698L188.63 292.141L192.39 292.531L190.845 289.076Z" fill="#C2C7CC"/>
<path d="M186.548 281.327L188.086 284.777L191.844 285.155L190.3 281.712L186.548 281.327Z" fill="#C2C7CC"/>
<path d="M193.71 279.534L195.248 282.983L199.014 283.367L197.463 279.919L193.71 279.534Z" fill="#C2C7CC"/>
<path d="M184.221 298.24L180.468 297.855L182.012 301.297L185.772 301.688L184.221 298.24Z" fill="#C2C7CC"/>
<path d="M179.924 290.491L181.467 293.934L185.22 294.319L183.682 290.87L179.924 290.491Z" fill="#C2C7CC"/>
<path d="M177.059 300.033L173.306 299.648L174.849 303.09L178.602 303.476L177.059 300.033Z" fill="#C2C7CC"/>
<path d="M178.39 309.135L177.61 307.402L173.857 307.017L174.787 309.087C175.983 309.135 177.184 309.151 178.39 309.135Z" fill="#C2C7CC"/>
<path d="M188.692 270.182L190.74 270.373L190.513 269.87C189.929 269.983 189.288 270.099 188.692 270.182Z" fill="#C2C7CC"/>
<path d="M179.373 283.122L180.923 286.57L184.676 286.955L183.138 283.506L179.373 283.122Z" fill="#C2C7CC"/>
<path d="M178.833 275.751L180.371 279.201L184.136 279.584L182.586 276.137L178.833 275.751Z" fill="#C2C7CC"/>
<path d="M185.996 273.958L187.541 277.413L191.299 277.791L189.756 274.349L185.996 273.958Z" fill="#C2C7CC"/>
<path d="M172.21 284.915L173.753 288.358L177.513 288.748L175.968 285.293L172.21 284.915Z" fill="#C2C7CC"/>
<path d="M173.209 280.994L176.961 281.379L175.423 277.93L171.658 277.546L173.209 280.994Z" fill="#C2C7CC"/>
<path d="M165.591 294.072L167.135 297.514L170.895 297.905L169.344 294.457L165.591 294.072Z" fill="#C2C7CC"/>
<path d="M174.305 295.727L178.057 296.112L176.514 292.67L172.754 292.279L174.305 295.727Z" fill="#C2C7CC"/>
<path d="M166.59 290.151L170.343 290.536L168.8 287.094L165.04 286.703L166.59 290.151Z" fill="#C2C7CC"/>
<path d="M155.563 305.408L152.145 305.057C153.375 305.411 154.609 305.745 155.851 306.052L155.563 305.408Z" fill="#C2C7CC"/>
<path d="M158.968 303.236L160.511 306.679L164.271 307.069L162.726 303.614L158.968 303.236Z" fill="#C2C7CC"/>
<path d="M162.181 296.251L158.421 295.86L159.967 299.315L163.725 299.693L162.181 296.251Z" fill="#C2C7CC"/>
<path d="M171.439 305.269L169.896 301.827L166.136 301.436L167.681 304.891L171.439 305.269Z" fill="#C2C7CC"/>
<path d="M182.025 272.06L183.585 272.215L183.308 271.6C182.875 271.746 182.456 271.902 182.025 272.06Z" fill="#C2C7CC"/>
<path d="M165.83 279.474C165.475 279.632 165.12 279.791 164.763 279.937L166.039 282.782L169.799 283.173L168.253 279.718L165.83 279.474Z" fill="#C2C7CC"/>
<path d="M157.877 288.496L159.42 291.939L163.18 292.329L161.63 288.882L157.877 288.496Z" fill="#C2C7CC"/>
<path d="M147.848 299.832L144.09 299.453L145.634 302.896L149.386 303.281L147.848 299.832Z" fill="#C2C7CC"/>
<path d="M151.253 297.66L152.796 301.103L156.556 301.494L155.011 298.039L151.253 297.66Z" fill="#C2C7CC"/>
<path d="M154.467 290.675L150.714 290.29L152.252 293.739L156.01 294.117L154.467 290.675Z" fill="#C2C7CC"/>
<path d="M161.085 281.518L160.698 281.479C159.77 281.78 158.817 282.041 157.847 282.28L158.876 284.575L162.628 284.96L161.085 281.518Z" fill="#C2C7CC"/>
<path d="M152.632 283.176C151.877 283.253 151.111 283.3 150.336 283.33L151.698 286.358L155.451 286.743L153.933 283.297L152.632 283.176Z" fill="#C2C7CC"/>
<path d="M143.539 292.085L145.089 295.532L148.842 295.918L147.304 292.468L143.539 292.085Z" fill="#C2C7CC"/>
<path d="M136.376 293.878L137.919 297.32L141.679 297.711L140.134 294.256L136.376 293.878Z" fill="#C2C7CC"/>
<path d="M137.375 289.956L141.127 290.342L139.589 286.892L135.824 286.509L137.375 289.956Z" fill="#C2C7CC"/>
<path d="M142.999 284.714L144.538 288.163L148.303 288.547L146.752 285.099L142.999 284.714Z" fill="#C2C7CC"/>
<path d="M129.206 295.666L130.371 298.256L134.348 299.48L134.509 299.499L132.966 296.056L129.206 295.666Z" fill="#C2C7CC"/>
<path d="M128.662 288.302L130.205 291.744L133.965 292.135L132.42 288.68L128.662 288.302Z" fill="#C2C7CC"/>
<path d="M132.659 283.074L132.394 283.046L128.572 281.956L129.66 284.381L133.418 284.759L132.659 283.074Z" fill="#C2C7CC"/>
<path d="M123.042 293.537L126.795 293.923L125.252 290.48L121.492 290.09L123.042 293.537Z" fill="#C2C7CC"/>
<path d="M122.497 286.174L126.25 286.559L124.712 283.11L120.947 282.726L122.497 286.174Z" fill="#C2C7CC"/>
<path d="M115.615 294.713L117.027 294.936C117.862 295.081 118.689 295.253 119.52 295.417L118.117 292.294L114.357 291.904L115.615 294.713Z" fill="#C2C7CC"/>
<path d="M117.537 284.904L113.784 284.519L115.327 287.962L119.087 288.352L117.537 284.904Z" fill="#C2C7CC"/>
<path d="M108.147 293.905C109.075 293.952 110.006 294.024 110.926 294.111L107.174 293.726L107.255 293.915L108.147 293.905Z" fill="#C2C7CC"/>
<path d="M111.373 282.776L109.823 279.329L106.07 278.943L107.613 282.386L111.373 282.776Z" fill="#C2C7CC"/>
<path d="M118.536 280.983L117.61 278.894C116.274 278.555 114.934 278.227 113.59 277.911L114.788 280.591L118.536 280.983Z" fill="#C2C7CC"/>
<path d="M104.755 291.933L103.204 288.485L99.4514 288.1L100.995 291.543L104.755 291.933Z" fill="#C2C7CC"/>
<path d="M111.917 290.14L110.374 286.698L106.614 286.307L108.164 289.755L111.917 290.14Z" fill="#C2C7CC"/>
<path d="M102.66 281.122L98.8996 280.731L100.45 284.179L104.203 284.564L102.66 281.122Z" fill="#C2C7CC"/>
<path d="M103.659 277.2L103.172 276.106C101.938 275.968 100.691 275.864 99.4433 275.792L99.9059 276.815L103.659 277.2Z" fill="#C2C7CC"/>
<path d="M97.04 286.357L95.4896 282.91L91.7368 282.524L93.28 285.967L97.04 286.357Z" fill="#C2C7CC"/>
<path d="M94.9808 275.648C93.8012 275.648 92.6132 275.674 91.4292 275.725L92.7254 278.617L96.4854 279.008L94.9808 275.648Z" fill="#C2C7CC"/>
<path d="M89.3258 280.782L87.7825 277.339L84.0225 276.949L85.5729 280.396L89.3258 280.782Z" fill="#C2C7CC"/>
<path d="M204.648 351.584L206.696 351.775L206.469 351.272C205.885 351.385 205.244 351.501 204.648 351.584Z" fill="#C2C7CC"/>
<path d="M237.562 374.127L236.011 370.68L232.258 370.294L233.802 373.737L237.562 374.127Z" fill="#C2C7CC"/>
<path d="M233.257 366.373L237.017 366.764L235.467 363.316L231.714 362.931L233.257 366.373Z" fill="#C2C7CC"/>
<path d="M228.304 365.109L224.544 364.719L226.094 368.166L229.847 368.552L228.304 365.109Z" fill="#C2C7CC"/>
<path d="M221.685 374.266L217.925 373.875L219.471 377.33L223.229 377.709L221.685 374.266Z" fill="#C2C7CC"/>
<path d="M228.848 372.473L225.096 372.088L226.634 375.537L230.399 375.921L228.848 372.473Z" fill="#C2C7CC"/>
<path d="M228.751 353.819L228.591 353.452L227.287 353.668L228.751 353.819Z" fill="#C2C7CC"/>
<path d="M216.83 359.143L218.38 362.59L222.133 362.976L220.59 359.533L216.83 359.143Z" fill="#C2C7CC"/>
<path d="M225.543 360.797L229.303 361.188L227.752 357.74L224 357.355L225.543 360.797Z" fill="#C2C7CC"/>
<path d="M214.515 376.054L210.757 375.676L212.301 379.118L216.061 379.509L214.515 376.054Z" fill="#C2C7CC"/>
<path d="M213.971 368.69L210.211 368.3L211.756 371.755L215.514 372.133L213.971 368.69Z" fill="#C2C7CC"/>
<path d="M221.134 366.897L217.381 366.512L218.919 369.962L222.684 370.345L221.134 366.897Z" fill="#C2C7CC"/>
<path d="M207.353 377.847L203.588 377.464L205.138 380.912L208.891 381.297L207.353 377.847Z" fill="#C2C7CC"/>
<path d="M209.122 353.572L210.665 357.015L214.418 357.4L212.875 353.958L209.122 353.572Z" fill="#C2C7CC"/>
<path d="M217.57 352.238C217.157 352.114 216.755 352.021 216.346 351.922L217.849 355.193L221.609 355.583L221.124 354.501L220.18 354.627C219.945 354.063 219.59 353.558 219.139 353.145C218.688 352.732 218.153 352.423 217.57 352.238Z" fill="#C2C7CC"/>
<path d="M206.801 370.478L203.043 370.1L204.586 373.543L208.346 373.933L206.801 370.478Z" fill="#C2C7CC"/>
<path d="M202.504 362.729L204.042 366.179L207.8 366.557L206.257 363.115L202.504 362.729Z" fill="#C2C7CC"/>
<path d="M209.666 360.936L211.205 364.386L214.97 364.769L213.419 361.321L209.666 360.936Z" fill="#C2C7CC"/>
<path d="M200.177 379.642L196.424 379.257L197.968 382.7L201.728 383.09L200.177 379.642Z" fill="#C2C7CC"/>
<path d="M195.88 371.893L197.423 375.336L201.176 375.721L199.638 372.272L195.88 371.893Z" fill="#C2C7CC"/>
<path d="M193.014 381.435L189.262 381.05L190.805 384.492L194.558 384.878L193.014 381.435Z" fill="#C2C7CC"/>
<path d="M195.329 364.524L196.879 367.972L200.632 368.357L199.094 364.908L195.329 364.524Z" fill="#C2C7CC"/>
<path d="M194.789 357.153L196.327 360.603L200.093 360.986L198.542 357.539L194.789 357.153Z" fill="#C2C7CC"/>
<path d="M201.952 355.36L203.497 358.815L207.255 359.193L205.712 355.751L201.952 355.36Z" fill="#C2C7CC"/>
<path d="M188.166 366.317L189.709 369.76L193.469 370.151L191.924 366.696L188.166 366.317Z" fill="#C2C7CC"/>
<path d="M189.165 362.396L192.917 362.782L191.379 359.332L187.614 358.949L189.165 362.396Z" fill="#C2C7CC"/>
<path d="M181.547 375.474L183.091 378.917L186.851 379.307L185.3 375.86L181.547 375.474Z" fill="#C2C7CC"/>
<path d="M190.26 377.129L194.013 377.514L192.47 374.072L188.71 373.681L190.26 377.129Z" fill="#C2C7CC"/>
<path d="M182.546 371.553L186.299 371.938L184.756 368.496L180.996 368.105L182.546 371.553Z" fill="#C2C7CC"/>
<path d="M174.924 384.639L176.467 388.081L180.227 388.472L178.682 385.017L174.924 384.639Z" fill="#C2C7CC"/>
<path d="M178.137 377.653L174.377 377.262L175.923 380.717L179.681 381.095L178.137 377.653Z" fill="#C2C7CC"/>
<path d="M187.395 386.671L185.852 383.229L182.092 382.838L183.637 386.293L187.395 386.671Z" fill="#C2C7CC"/>
<path d="M197.982 353.463L199.541 353.618L199.265 353.003C198.831 353.148 198.413 353.304 197.982 353.463Z" fill="#C2C7CC"/>
<path d="M181.786 360.876C181.431 361.034 181.076 361.193 180.719 361.339L181.995 364.184L185.754 364.575L184.209 361.12L181.786 360.876Z" fill="#C2C7CC"/>
<path d="M173.833 369.898L175.376 373.341L179.136 373.731L177.586 370.284L173.833 369.898Z" fill="#C2C7CC"/>
<path d="M167.209 379.063L168.752 382.505L172.512 382.896L170.967 379.441L167.209 379.063Z" fill="#C2C7CC"/>
<path d="M170.423 372.077L166.67 371.692L168.208 375.141L171.966 375.519L170.423 372.077Z" fill="#C2C7CC"/>
<path d="M177.041 362.92L176.655 362.881C175.726 363.182 174.773 363.444 173.803 363.682L174.832 365.977L178.585 366.362L177.041 362.92Z" fill="#C2C7CC"/>
<path d="M168.588 364.578C167.833 364.655 167.067 364.703 166.292 364.732L167.654 367.76L171.407 368.145L169.889 364.699L168.588 364.578Z" fill="#C2C7CC"/>
<path d="M159.495 373.487L161.045 376.934L164.798 377.32L163.26 373.87L159.495 373.487Z" fill="#C2C7CC"/>
<path d="M158.956 366.116L160.494 369.565L164.259 369.949L162.708 366.501L158.956 366.116Z" fill="#C2C7CC"/>
<path d="M165.386 361.183C165.153 363.589 166.454 365.909 169.337 367.611L189.029 379.298C198.81 385.096 217.59 379.464 217.62 370.691V370.544C217.62 348.247 213.872 341.457 203.041 333.688C201.407 335.52 199.349 336.9 197.058 337.701C194.767 338.501 192.316 338.697 189.932 338.27C187.548 337.843 185.306 336.807 183.415 335.257C181.524 333.707 180.044 331.694 179.111 329.402C171.276 333.639 165.404 341.298 165.386 361.183Z" fill="#F6D84C"/>
<path d="M202.956 333.911C204.53 332.129 205.658 329.98 206.243 327.65C206.828 325.319 206.851 322.878 206.312 320.536C205.773 318.194 204.687 316.022 203.148 314.208C201.609 312.393 199.664 310.991 197.479 310.122C195.295 309.253 192.938 308.944 190.611 309.221C188.284 309.497 186.058 310.352 184.125 311.71C182.191 313.068 180.609 314.89 179.514 317.017C178.419 319.145 177.844 321.514 177.84 323.921C177.831 325.885 178.21 327.831 178.952 329.641C179.887 331.941 181.37 333.962 183.265 335.517C185.16 337.073 187.406 338.113 189.795 338.541C192.185 338.97 194.641 338.773 196.937 337.969C199.233 337.166 201.295 335.781 202.932 333.942L202.956 333.911Z" fill="white"/>
<path d="M217.62 369.962C217.562 347.784 214.011 341.03 203.58 333.302" stroke="#373A3A" stroke-width="2.34" stroke-linecap="round" stroke-linejoin="round"/>
<path d="M179.111 329.402C171.27 333.611 165.386 341.274 165.386 361.171C165.153 363.578 166.454 365.9 169.337 367.603L189.029 379.297C198.81 385.098 217.59 379.462 217.62 370.684V370.537" stroke="#373A3A" stroke-width="2.34" stroke-linecap="round" stroke-linejoin="round"/>
<path d="M178.954 329.653C178.21 327.84 177.831 325.892 177.84 323.925C177.844 320.249 179.179 316.705 181.584 313.983C183.99 311.26 187.295 309.553 190.858 309.193C194.42 308.834 197.986 309.847 200.862 312.036C203.738 314.225 205.719 317.434 206.42 321.039C207.121 324.644 206.493 328.388 204.657 331.544C202.82 334.7 199.908 337.042 196.484 338.116C193.06 339.19 189.37 338.918 186.131 337.354C182.891 335.79 180.333 333.045 178.954 329.653Z" stroke="#373A3A" stroke-width="2.34" stroke-linecap="round" stroke-linejoin="round"/>
<path d="M138.075 317.963C137.941 319.168 138.682 320.322 140.311 321.15L151.469 326.975C157.006 329.869 167.642 327.058 167.691 322.686V322.61C167.691 311.488 165.575 308.104 159.439 304.229C158.515 305.144 157.351 305.834 156.054 306.235C154.756 306.637 153.368 306.736 152.017 306.525C150.667 306.313 149.396 305.797 148.324 305.025C147.252 304.253 146.413 303.249 145.883 302.106C141.411 304.229 138.089 308.053 138.075 317.963Z" fill="#5F646B"/>
<path d="M156.505 302.935C157.59 301.745 158.234 300.219 158.328 298.611C158.422 297.003 157.96 295.412 157.02 294.104C156.079 292.797 154.718 291.852 153.164 291.429C151.61 291.006 149.958 291.13 148.485 291.78C147.011 292.431 145.806 293.568 145.072 295.001C144.338 296.435 144.119 298.077 144.451 299.653C144.784 301.228 145.648 302.642 146.9 303.656C148.151 304.67 149.713 305.223 151.323 305.222C152.299 305.224 153.264 305.022 154.156 304.628C155.049 304.234 155.849 303.657 156.505 302.935Z" fill="white"/>
<path d="M167.691 323.114C167.657 311.42 165.619 307.861 159.61 303.787" stroke="#373A3A" stroke-width="2.34" stroke-linecap="round" stroke-linejoin="round"/>
<path d="M145.834 302.106C141.397 304.205 138.075 308.033 138.075 317.953C137.941 319.159 138.682 320.314 140.311 321.143L151.469 326.974C157.006 329.871 167.642 327.057 167.691 322.681V322.604" stroke="#373A3A" stroke-width="2.34" stroke-linecap="round" stroke-linejoin="round"/>
<path d="M145.866 301.656C145.451 300.732 145.239 299.739 145.243 298.736C145.246 296.86 145.993 295.051 147.341 293.662C148.688 292.273 150.54 291.402 152.535 291.219C154.53 291.035 156.527 291.553 158.138 292.67C159.748 293.787 160.857 295.425 161.25 297.265C161.642 299.105 161.289 301.016 160.261 302.626C159.232 304.236 157.6 305.431 155.682 305.979C153.765 306.526 151.698 306.387 149.884 305.588C148.07 304.789 146.638 303.388 145.866 301.656Z" stroke="#373A3A" stroke-width="2.34" stroke-linecap="round" stroke-linejoin="round"/>
<path d="M262.629 72.5259C290.157 88.464 300.083 110.6 292.424 131.08L292.291 131.417C287.908 142.839 278.018 153.695 262.629 162.576C219.561 187.439 149.726 187.439 106.657 162.576C91.2684 153.695 81.3691 142.83 76.9861 131.382L76.8622 131.045C69.1942 110.627 79.1289 88.4285 106.675 72.5259C149.726 47.6626 219.561 47.6626 262.629 72.5259ZM253.349 155.014C291.3 134.33 291.3 100.789 253.349 80.0876C215.399 59.3859 153.878 59.4036 115.928 80.0876C77.9778 100.772 77.9867 134.33 115.928 155.014C136.78 166.366 164.681 171.492 191.926 170.341C194.812 170.226 197.708 170.04 200.577 169.774C206.291 169.266 211.974 168.459 217.604 167.357C221.978 166.507 226.249 165.474 230.416 164.258C238.372 162.013 246.061 158.914 253.349 155.014Z" fill="white"/>
<path d="M292.291 131.381L277.425 171.049V171.102L274.857 177.965V178.018C270.695 186.217 262.691 193.956 250.879 200.393C214.319 220.316 155.056 220.316 118.496 200.393C106.675 194 98.653 186.279 94.4736 178.089L76.9861 131.381C81.4133 142.795 91.2683 153.659 106.657 162.54C149.726 187.404 219.561 187.404 262.629 162.54C278.018 153.695 287.908 142.839 292.291 131.381Z" fill="white"/>
<path d="M274.848 178L277.416 171.138C276.825 173.516 275.964 175.819 274.848 178Z" fill="white"/>
<path d="M274.812 178.053L261.531 213.595C257.635 219.793 251.171 225.602 242.051 230.551C210.334 247.844 158.908 247.844 127.182 230.551C118.115 225.602 111.66 219.793 107.755 213.595L94.4736 178.089C98.6529 186.279 106.675 194 118.452 200.446C155.012 220.369 214.275 220.369 250.835 200.446C262.646 193.991 270.651 186.279 274.812 178.053Z" fill="#F6D84C"/>
<path d="M261.504 213.604L238.731 274.381C236.552 280.172 231.567 285.688 223.767 290.186C202.153 302.662 167.098 302.662 145.502 290.186C137.71 285.688 132.725 280.136 130.582 274.381L107.773 213.604C111.678 219.802 118.133 225.611 127.2 230.56C158.925 247.853 210.352 247.853 242.069 230.56C251.145 225.611 257.608 219.802 261.504 213.604Z" fill="#C2C7CC"/>
<path d="M253.349 80.0876C291.3 100.789 291.3 134.33 253.349 155.014C246.062 158.926 238.373 162.037 230.416 164.294V147.993L191.926 125.786V170.341C164.681 171.457 136.754 166.33 115.928 154.979C77.9867 134.295 77.9867 100.736 115.928 80.0522C153.869 59.3682 215.408 59.4036 253.349 80.0876Z" fill="#5F646B"/>
<path d="M230.416 147.992V164.293C226.284 165.509 222.013 166.543 217.604 167.393C216.762 166.156 215.804 165.003 214.744 163.948C215.948 163.461 216.71 162.177 216.71 160.194C216.604 158.27 216.046 156.399 215.081 154.731C214.117 153.063 212.773 151.646 211.158 150.596C208.094 148.825 205.624 150.259 205.624 153.801C205.704 155.949 206.379 158.033 207.572 159.822C203.481 159.149 200.559 161.974 200.559 167.295V169.81C197.69 170.075 194.795 170.261 191.908 170.376V125.785L230.416 147.992Z" fill="#C2C7CC"/>
<path d="M214.744 163.948C215.804 165.003 216.762 166.156 217.604 167.393C211.974 168.494 206.291 169.301 200.577 169.81V167.295C200.577 161.983 203.499 159.149 207.589 159.822C208.495 161.264 209.723 162.476 211.175 163.364C211.685 163.73 212.272 163.972 212.891 164.074C213.51 164.175 214.144 164.132 214.744 163.948Z" fill="#373A3A"/>
<path d="M211.158 150.596C212.769 151.648 214.11 153.066 215.072 154.734C216.033 156.401 216.588 158.272 216.692 160.194C216.692 162.142 215.93 163.47 214.726 163.948C214.133 164.133 213.504 164.18 212.89 164.083C212.276 163.986 211.692 163.749 211.184 163.39C209.732 162.502 208.504 161.29 207.598 159.848C206.405 158.06 205.731 155.976 205.65 153.827C205.642 150.259 208.112 148.825 211.158 150.596Z" fill="white"/>
<path d="M91.844 171.085L94.4561 178.053C93.317 175.84 92.4404 173.502 91.844 171.085Z" fill="white"/>
<path d="M292.424 131.08C300.083 110.636 290.157 88.4285 262.629 72.5259C219.561 47.6626 149.725 47.6626 106.675 72.5259C79.1466 88.464 69.2118 110.6 76.8798 131.08" stroke="#373A3A" stroke-width="2.34" stroke-linecap="round" stroke-linejoin="round"/>
<path d="M76.9861 131.381C81.4133 142.795 91.2683 153.659 106.657 162.54C149.726 187.404 219.561 187.404 262.629 162.54C278.018 153.686 287.908 142.804 292.291 131.381" stroke="#373A3A" stroke-width="2.34" stroke-linecap="round" stroke-linejoin="round"/>
<path d="M230.416 164.293C238.372 162.033 246.06 158.922 253.349 155.014C291.299 134.33 291.299 100.789 253.349 80.0875C215.399 59.3858 153.878 59.4035 115.928 80.0875C77.9777 100.772 77.9866 134.33 115.928 155.014C136.78 166.365 164.681 171.474 191.926 170.341C194.812 170.226 197.708 170.04 200.577 169.774C206.291 169.265 211.974 168.459 217.604 167.357C221.978 166.519 226.249 165.498 230.416 164.293Z" stroke="#373A3A" stroke-width="2.34" stroke-linecap="round" stroke-linejoin="round"/>
<path d="M274.848 178C275.964 175.819 276.825 173.516 277.416 171.138" stroke="#373A3A" stroke-width="2.34" stroke-linecap="round" stroke-linejoin="round"/>
<path d="M94.4736 178.089C98.6529 186.279 106.675 194 118.452 200.446C155.012 220.369 214.275 220.369 250.835 200.446C262.646 194.009 270.651 186.279 274.812 178.071" stroke="#373A3A" stroke-width="2.34" stroke-linecap="round" stroke-linejoin="round"/>
<path d="M91.844 171.085C92.4404 173.502 93.317 175.84 94.4561 178.053" stroke="#373A3A" stroke-width="2.34" stroke-linecap="round" stroke-linejoin="round"/>
<path d="M107.773 213.604C111.678 219.802 118.133 225.611 127.2 230.56C158.925 247.853 210.352 247.853 242.069 230.56C251.145 225.611 257.608 219.802 261.549 213.604" stroke="#373A3A" stroke-width="2.34" stroke-linecap="round" stroke-linejoin="round"/>
<path d="M76.8621 131.08L107.773 213.595L130.582 274.381C132.751 280.172 137.736 285.688 145.528 290.186C167.151 302.662 202.197 302.662 223.793 290.186C231.594 285.688 236.579 280.172 238.757 274.381L261.531 213.604L274.812 178.062V178.009L277.38 171.147V171.094L292.38 131.089" stroke="#373A3A" stroke-width="2.34" stroke-linecap="round" stroke-linejoin="round"/>
<path d="M191.926 170.376V125.785L230.416 147.992V164.293" stroke="#373A3A" stroke-width="2.34" stroke-linecap="round" stroke-linejoin="round"/>
<path d="M214.744 163.948C215.948 163.47 216.71 162.177 216.71 160.194C216.604 158.27 216.046 156.399 215.081 154.731C214.117 153.063 212.773 151.647 211.158 150.596C208.094 148.825 205.624 150.259 205.624 153.801C205.703 155.95 206.378 158.034 207.572 159.822C208.473 161.268 209.701 162.481 211.158 163.364C211.669 163.734 212.259 163.98 212.882 164.081C213.504 164.183 214.142 164.137 214.744 163.948Z" stroke="#373A3A" stroke-width="2.34" stroke-linecap="round" stroke-linejoin="round"/>
<path d="M200.577 169.81V167.295C200.577 161.983 203.499 159.149 207.589 159.822" stroke="#373A3A" stroke-width="2.34" stroke-linecap="round" stroke-linejoin="round"/>
<path d="M214.744 163.948C215.805 165.003 216.762 166.156 217.604 167.393" stroke="#373A3A" stroke-width="2.34" stroke-linecap="round" stroke-linejoin="round"/>
<path d="M183.31 73.3582C183.715 77.3382 183.895 81.3379 183.851 85.3382C183.851 87.8972 183.851 90.4561 183.851 93.0151C183.851 95.8396 184.187 98.3277 184.152 100.55C183.558 133.312 164.123 114.142 164.123 164.851C164.123 166.454 164.123 168.065 164.123 169.686" stroke="white" stroke-width="2.34" stroke-linecap="round" stroke-linejoin="round"/>
<path d="M130.423 112.451C132.017 111.68 133.753 111.245 135.523 111.176C143.146 111.176 144.377 120.03 144.377 127.645C144.377 137.969 142.81 147.78 142.81 156.068C142.81 157.555 142.81 159.069 142.81 160.583C142.81 162.098 142.81 163.789 142.677 165.347" stroke="white" stroke-width="2.34" stroke-linecap="round" stroke-linejoin="round"/>
<path d="M246.089 99.9216C245.699 116.745 244.743 149.321 244.318 159.362" stroke="white" stroke-width="2.34" stroke-linecap="round" stroke-linejoin="round"/>
<path d="M130.423 85.7898V142.29L119.797 148.426V136.862C119.797 130.328 116.185 126.848 111.147 127.671C112.624 125.476 113.461 122.913 113.564 120.269C113.564 115.913 110.518 114.151 106.755 116.329C104.769 117.622 103.116 119.366 101.931 121.418C100.746 123.471 100.063 125.774 99.9368 128.141C99.9368 130.54 100.866 132.161 102.345 132.754C97.307 137.748 93.7032 145.389 93.7032 151.933V163.443L83.0779 169.58V113.088L130.423 85.7898Z" fill="#C2C7CC"/>
<path d="M119.797 136.862V148.426L93.7032 163.479V151.968C93.7032 145.425 97.307 137.801 102.345 132.789C103.086 133.024 103.871 133.085 104.639 132.966C105.407 132.848 106.137 132.554 106.772 132.107C108.578 131.003 110.095 129.486 111.2 127.68C116.185 126.848 119.797 130.328 119.797 136.862Z" fill="#F6D84C"/>
<path d="M106.755 116.329C110.518 114.151 113.564 115.913 113.564 120.269C113.461 122.913 112.624 125.476 111.147 127.672C110.042 129.477 108.525 130.995 106.719 132.099C106.084 132.546 105.353 132.84 104.585 132.958C103.818 133.076 103.033 133.015 102.292 132.781C100.813 132.187 99.8837 130.567 99.8837 128.167C100.012 125.792 100.701 123.48 101.896 121.422C103.09 119.364 104.755 117.619 106.755 116.329Z" fill="white"/>
<path d="M93.7032 163.488L83.069 169.624V113.132L130.423 85.7898V142.29L93.7032 163.488Z" stroke="#373A3A" stroke-width="2.34" stroke-linecap="round" stroke-linejoin="round"/>
<path d="M111.147 127.672C112.624 125.476 113.461 122.913 113.564 120.269C113.564 115.913 110.518 114.151 106.755 116.329C104.769 117.622 103.116 119.366 101.931 121.418C100.747 123.471 100.063 125.774 99.9369 128.141C99.9369 130.54 100.867 132.161 102.345 132.754C103.086 132.989 103.871 133.049 104.639 132.931C105.407 132.813 106.137 132.519 106.773 132.072C108.556 130.969 110.054 129.461 111.147 127.672Z" stroke="#373A3A" stroke-width="2.34" stroke-linecap="round" stroke-linejoin="round"/>
<path d="M93.7032 163.488V151.977C93.7032 145.433 97.307 137.81 102.345 132.798" stroke="#373A3A" stroke-width="2.34" stroke-linecap="round" stroke-linejoin="round"/>
<path d="M111.147 127.671C116.185 126.848 119.798 130.328 119.798 136.862V148.426" stroke="#373A3A" stroke-width="2.34" stroke-linecap="round" stroke-linejoin="round"/>
<path d="M207.058 1.66357V58.828L196.291 65.0261V53.3471C196.291 46.7328 192.652 43.2087 187.552 44.041C189.046 41.8227 189.892 39.2317 189.996 36.559C189.996 32.1318 186.905 30.3609 183.107 32.5657C181.096 33.8719 179.423 35.6347 178.222 37.7105C177.022 39.7862 176.329 42.1161 176.2 44.5103C176.2 46.9365 177.148 48.5834 178.644 49.1855C173.553 54.2325 169.896 61.9713 169.896 68.5856V80.2824L159.147 86.4805V29.3338L207.058 1.66357Z" fill="#C2C7CC"/>
<path d="M196.291 53.347V65.0349L169.896 80.2823V68.5856C169.896 61.9713 173.553 54.2325 178.644 49.1854C179.839 49.6724 181.389 49.4865 183.071 48.5036C184.871 47.3915 186.386 45.8758 187.499 44.0764C192.652 43.2087 196.291 46.7327 196.291 53.347Z" fill="white"/>
<path d="M189.996 36.5591C189.892 39.2317 189.046 41.8227 187.552 44.0411C186.44 45.8404 184.924 47.3562 183.124 48.4683C181.407 49.4512 179.857 49.6371 178.697 49.1501C177.201 48.548 176.253 46.9011 176.253 44.4749C176.382 42.0807 177.075 39.7508 178.275 37.6751C179.476 35.5994 181.149 33.8366 183.16 32.5303C186.905 30.3609 189.996 32.1495 189.996 36.5591Z" fill="#DAE0E5"/>
<path d="M169.896 80.2824L159.147 86.4982V29.3338L207.058 1.66357V58.828L169.896 80.2824Z" stroke="#373A3A" stroke-width="2.34" stroke-linecap="round" stroke-linejoin="round"/>
<path d="M187.552 44.0411C189.046 41.8227 189.892 39.2317 189.996 36.5591C189.996 32.1318 186.906 30.3609 183.107 32.5657C181.096 33.872 179.423 35.6348 178.223 37.7105C177.022 39.7862 176.33 42.1161 176.201 44.5104C176.201 46.9365 177.148 48.5834 178.644 49.1855C179.84 49.6725 181.389 49.4866 183.072 48.5037C184.892 47.3855 186.427 45.8573 187.552 44.0411Z" stroke="#373A3A" stroke-width="2.34" stroke-linecap="round" stroke-linejoin="round"/>
<path d="M169.896 80.2824V68.5857C169.896 61.9714 173.553 54.2326 178.644 49.1855" stroke="#373A3A" stroke-width="2.34" stroke-linecap="round" stroke-linejoin="round"/>
<path d="M187.552 44.0412C192.652 43.2089 196.291 46.6976 196.291 53.3473V65.0352" stroke="#373A3A" stroke-width="2.34" stroke-linecap="round" stroke-linejoin="round"/>
<path d="M268.552 66.983V112.893L259.91 107.908V98.5137C259.91 93.2011 256.98 87.0029 252.889 82.9299C254.093 82.4518 254.855 81.159 254.855 79.1756C254.751 77.2536 254.195 75.3832 253.232 73.7168C252.269 72.0504 250.926 70.6351 249.312 69.5862C246.248 67.8153 243.778 69.2409 243.778 72.7827C243.861 74.9293 244.538 77.0107 245.734 78.7949C241.644 78.1308 238.713 80.9554 238.713 86.268V95.6626L230.071 90.651V44.7583L268.552 66.983Z" fill="#C2C7CC"/>
<path d="M259.91 98.5136V107.908L238.713 95.6624V86.2678C238.713 80.9552 241.644 78.1306 245.734 78.7947C246.624 80.2342 247.837 81.4468 249.276 82.3364C249.787 82.689 250.371 82.9215 250.984 83.0165C251.598 83.1116 252.224 83.0668 252.818 82.8854C256.98 86.985 259.91 93.2009 259.91 98.5136Z" fill="#373A3A"/>
<path d="M249.311 69.586C250.921 70.6314 252.261 72.0411 253.224 73.701C254.187 75.3608 254.746 77.2241 254.854 79.14C254.854 81.0968 254.093 82.4162 252.889 82.8943C252.295 83.0756 251.668 83.1205 251.055 83.0254C250.442 82.9303 249.858 82.6979 249.347 82.3453C247.907 81.4557 246.695 80.2431 245.805 78.8035C244.609 77.0193 243.931 74.938 243.848 72.7914C243.777 69.2407 246.248 67.8151 249.311 69.586Z" fill="white"/>
<path d="M238.713 95.6626L230.071 90.6776V44.7583L268.552 66.983V112.893L238.713 95.6626Z" stroke="#373A3A" stroke-width="2.34" stroke-linecap="round" stroke-linejoin="round"/>
<path d="M252.889 82.9299C254.093 82.4518 254.855 81.159 254.855 79.1756C254.751 77.2536 254.195 75.3832 253.232 73.7168C252.269 72.0504 250.926 70.6351 249.312 69.5863C246.248 67.8154 243.778 69.2409 243.778 72.7827C243.861 74.9293 244.538 77.0107 245.734 78.7949C246.624 80.2344 247.837 81.447 249.276 82.3367C249.792 82.7075 250.386 82.954 251.013 83.0569C251.64 83.1598 252.282 83.1164 252.889 82.9299Z" stroke="#373A3A" stroke-width="2.34" stroke-linecap="round" stroke-linejoin="round"/>
<path d="M238.713 95.6624V86.2678C238.713 80.9552 241.644 78.1306 245.734 78.7947" stroke="#373A3A" stroke-width="2.34" stroke-linecap="round" stroke-linejoin="round"/>
<path d="M252.889 82.9299C256.98 86.9853 259.91 93.2011 259.91 98.5138V107.908" stroke="#373A3A" stroke-width="2.34" stroke-linecap="round" stroke-linejoin="round"/>
<g clip-path="url(#clip0_29_2140)">
<path d="M290.483 196.321L284.893 213.154" stroke="#3A3A3A" stroke-width="1.48139" stroke-linecap="round" stroke-linejoin="round"/>
<path d="M288.896 210.916L284.893 213.154L282.579 209.097" stroke="#3A3A3A" stroke-width="1.48139" stroke-linecap="round" stroke-linejoin="round"/>
</g>
<g clip-path="url(#clip1_29_2140)">
<path d="M276.306 241.821L267.509 267.853" stroke="#3A3A3A" stroke-width="1.48139" stroke-linecap="round" stroke-linejoin="round"/>
<path d="M271.512 265.615L267.509 267.853L265.195 263.796" stroke="#3A3A3A" stroke-width="1.48139" stroke-linecap="round" stroke-linejoin="round"/>
</g>
<g clip-path="url(#clip2_29_2140)">
<path d="M305.315 150.901L296.651 176.995" stroke="#3A3A3A" stroke-width="1.48139" stroke-linecap="round" stroke-linejoin="round"/>
<path d="M300.655 174.758L296.651 176.995L294.338 172.939" stroke="#3A3A3A" stroke-width="1.48139" stroke-linecap="round" stroke-linejoin="round"/>
</g>
<path d="M172.021 199.782C171.941 199.782 171.879 199.761 171.835 199.717C171.792 199.666 171.77 199.604 171.77 199.531V192.401C171.77 192.32 171.792 192.259 171.835 192.215C171.879 192.164 171.941 192.138 172.021 192.138H172.523C172.611 192.138 172.676 192.16 172.72 192.204C172.763 192.24 172.789 192.27 172.796 192.291L176.422 197.861V192.401C176.422 192.32 176.443 192.259 176.487 192.215C176.531 192.164 176.593 192.138 176.673 192.138H177.197C177.277 192.138 177.339 192.164 177.383 192.215C177.434 192.259 177.459 192.32 177.459 192.401V199.52C177.459 199.593 177.434 199.655 177.383 199.706C177.339 199.757 177.281 199.782 177.208 199.782H176.684C176.604 199.782 176.542 199.761 176.498 199.717C176.462 199.673 176.436 199.644 176.422 199.63L172.807 194.115V199.531C172.807 199.604 172.782 199.666 172.731 199.717C172.687 199.761 172.625 199.782 172.545 199.782H172.021ZM181.492 199.892C180.735 199.892 180.134 199.662 179.69 199.204C179.246 198.738 179.002 198.104 178.959 197.304C178.951 197.209 178.948 197.089 178.948 196.943C178.948 196.79 178.951 196.667 178.959 196.572C178.988 196.055 179.108 195.604 179.319 195.218C179.53 194.825 179.818 194.523 180.182 194.312C180.553 194.1 180.986 193.995 181.481 193.995C182.034 193.995 182.497 194.111 182.868 194.344C183.246 194.577 183.534 194.909 183.731 195.338C183.927 195.768 184.025 196.27 184.025 196.845V197.031C184.025 197.111 184 197.173 183.949 197.216C183.905 197.26 183.847 197.282 183.774 197.282H179.996C179.996 197.289 179.996 197.304 179.996 197.325C179.996 197.347 179.996 197.366 179.996 197.38C180.01 197.679 180.076 197.959 180.192 198.221C180.309 198.476 180.476 198.683 180.695 198.843C180.92 199.004 181.183 199.084 181.481 199.084C181.743 199.084 181.961 199.044 182.136 198.963C182.311 198.883 182.453 198.796 182.562 198.701C182.671 198.599 182.744 198.519 182.78 198.461C182.846 198.374 182.897 198.323 182.933 198.308C182.97 198.286 183.028 198.276 183.108 198.276H183.643C183.709 198.276 183.763 198.297 183.807 198.341C183.858 198.377 183.88 198.432 183.872 198.505C183.865 198.614 183.807 198.749 183.698 198.909C183.589 199.062 183.432 199.215 183.228 199.368C183.032 199.52 182.784 199.648 182.486 199.75C182.194 199.844 181.863 199.892 181.492 199.892ZM179.996 196.528H182.988V196.496C182.988 196.168 182.926 195.877 182.802 195.622C182.686 195.367 182.515 195.167 182.289 195.021C182.063 194.868 181.794 194.792 181.481 194.792C181.168 194.792 180.899 194.868 180.673 195.021C180.455 195.167 180.287 195.367 180.171 195.622C180.054 195.877 179.996 196.168 179.996 196.496V196.528ZM186.689 199.782C186.594 199.782 186.521 199.761 186.47 199.717C186.419 199.666 186.376 199.597 186.339 199.509L184.789 194.443C184.774 194.406 184.767 194.37 184.767 194.333C184.767 194.268 184.789 194.213 184.832 194.17C184.883 194.126 184.938 194.104 184.996 194.104H185.477C185.557 194.104 185.619 194.126 185.662 194.17C185.706 194.213 185.735 194.253 185.75 194.29L186.962 198.407L188.261 194.333C188.276 194.282 188.305 194.231 188.349 194.181C188.4 194.13 188.472 194.104 188.567 194.104H188.938C189.033 194.104 189.106 194.13 189.157 194.181C189.208 194.231 189.237 194.282 189.244 194.333L190.543 198.407L191.756 194.29C191.763 194.253 191.788 194.213 191.832 194.17C191.876 194.126 191.938 194.104 192.018 194.104H192.509C192.567 194.104 192.618 194.126 192.662 194.17C192.706 194.213 192.727 194.268 192.727 194.333C192.727 194.37 192.72 194.406 192.706 194.443L191.166 199.509C191.137 199.597 191.097 199.666 191.046 199.717C190.995 199.761 190.915 199.782 190.806 199.782H190.38C190.285 199.782 190.205 199.761 190.139 199.717C190.081 199.666 190.041 199.597 190.019 199.509L188.753 195.6L187.486 199.509C187.457 199.597 187.413 199.666 187.355 199.717C187.297 199.761 187.217 199.782 187.115 199.782H186.689Z" fill="#323338"/>
<path d="M154.242 231.092C153.572 231.092 153.015 230.968 152.571 230.72C152.134 230.473 151.803 230.127 151.577 229.683C151.352 229.239 151.228 228.722 151.206 228.132C151.199 227.834 151.195 227.514 151.195 227.171C151.195 226.829 151.199 226.502 151.206 226.189C151.228 225.599 151.352 225.082 151.577 224.638C151.803 224.194 152.134 223.848 152.571 223.601C153.015 223.353 153.572 223.229 154.242 223.229C154.744 223.229 155.184 223.298 155.563 223.437C155.942 223.575 156.255 223.761 156.502 223.994C156.757 224.227 156.95 224.489 157.081 224.78C157.212 225.064 157.285 225.359 157.299 225.664C157.307 225.73 157.285 225.785 157.234 225.828C157.19 225.872 157.135 225.894 157.07 225.894H156.469C156.404 225.894 156.346 225.876 156.295 225.839C156.251 225.803 156.218 225.737 156.196 225.643C156.073 225.075 155.84 224.685 155.497 224.474C155.163 224.263 154.744 224.157 154.242 224.157C153.652 224.157 153.186 224.325 152.844 224.66C152.502 224.987 152.32 225.515 152.298 226.243C152.276 226.84 152.276 227.452 152.298 228.078C152.32 228.806 152.502 229.337 152.844 229.672C153.186 230 153.652 230.163 154.242 230.163C154.744 230.163 155.163 230.058 155.497 229.847C155.84 229.636 156.073 229.246 156.196 228.678C156.218 228.584 156.251 228.518 156.295 228.482C156.346 228.445 156.404 228.427 156.469 228.427H157.07C157.135 228.427 157.19 228.449 157.234 228.493C157.285 228.529 157.307 228.58 157.299 228.646C157.285 228.951 157.212 229.25 157.081 229.541C156.95 229.832 156.757 230.094 156.502 230.327C156.255 230.56 155.942 230.746 155.563 230.884C155.184 231.022 154.744 231.092 154.242 231.092ZM160.947 231.092C160.393 231.092 159.931 230.986 159.56 230.775C159.189 230.564 158.905 230.273 158.708 229.901C158.512 229.523 158.402 229.093 158.381 228.613C158.373 228.489 158.37 228.333 158.37 228.143C158.37 227.947 158.373 227.79 158.381 227.674C158.402 227.186 158.512 226.756 158.708 226.385C158.912 226.014 159.2 225.723 159.571 225.512C159.942 225.3 160.401 225.195 160.947 225.195C161.493 225.195 161.951 225.3 162.323 225.512C162.694 225.723 162.978 226.014 163.174 226.385C163.378 226.756 163.491 227.186 163.513 227.674C163.52 227.79 163.524 227.947 163.524 228.143C163.524 228.333 163.52 228.489 163.513 228.613C163.491 229.093 163.382 229.523 163.185 229.901C162.989 230.273 162.705 230.564 162.334 230.775C161.962 230.986 161.5 231.092 160.947 231.092ZM160.947 230.251C161.398 230.251 161.758 230.109 162.028 229.825C162.297 229.534 162.443 229.111 162.465 228.558C162.472 228.449 162.476 228.311 162.476 228.143C162.476 227.976 162.472 227.837 162.465 227.728C162.443 227.175 162.297 226.756 162.028 226.472C161.758 226.181 161.398 226.036 160.947 226.036C160.495 226.036 160.131 226.181 159.855 226.472C159.585 226.756 159.443 227.175 159.429 227.728C159.422 227.837 159.418 227.976 159.418 228.143C159.418 228.311 159.422 228.449 159.429 228.558C159.443 229.111 159.585 229.534 159.855 229.825C160.131 230.109 160.495 230.251 160.947 230.251ZM165.142 230.982C165.07 230.982 165.008 230.961 164.957 230.917C164.913 230.866 164.891 230.804 164.891 230.731V225.555C164.891 225.482 164.913 225.424 164.957 225.38C165.008 225.33 165.07 225.304 165.142 225.304H165.656C165.728 225.304 165.787 225.33 165.83 225.38C165.881 225.424 165.907 225.482 165.907 225.555V226.036C166.096 225.788 166.333 225.588 166.617 225.435C166.908 225.275 167.279 225.195 167.73 225.195C168.204 225.195 168.604 225.3 168.932 225.512C169.266 225.715 169.518 226.003 169.685 226.374C169.86 226.738 169.947 227.164 169.947 227.652V230.731C169.947 230.804 169.922 230.866 169.871 230.917C169.827 230.961 169.769 230.982 169.696 230.982H169.15C169.077 230.982 169.015 230.961 168.964 230.917C168.921 230.866 168.899 230.804 168.899 230.731V227.706C168.899 227.197 168.775 226.8 168.528 226.516C168.28 226.225 167.916 226.079 167.436 226.079C166.984 226.079 166.62 226.225 166.344 226.516C166.074 226.8 165.94 227.197 165.94 227.706V230.731C165.94 230.804 165.914 230.866 165.863 230.917C165.819 230.961 165.761 230.982 165.688 230.982H165.142ZM171.765 230.982C171.692 230.982 171.63 230.961 171.579 230.917C171.535 230.866 171.514 230.804 171.514 230.731V225.555C171.514 225.482 171.535 225.424 171.579 225.38C171.63 225.33 171.692 225.304 171.765 225.304H172.278C172.351 225.304 172.409 225.33 172.453 225.38C172.504 225.424 172.529 225.482 172.529 225.555V226.036C172.718 225.788 172.955 225.588 173.239 225.435C173.53 225.275 173.901 225.195 174.353 225.195C174.826 225.195 175.226 225.3 175.554 225.512C175.889 225.715 176.14 226.003 176.307 226.374C176.482 226.738 176.57 227.164 176.57 227.652V230.731C176.57 230.804 176.544 230.866 176.493 230.917C176.449 230.961 176.391 230.982 176.318 230.982H175.772C175.7 230.982 175.638 230.961 175.587 230.917C175.543 230.866 175.521 230.804 175.521 230.731V227.706C175.521 227.197 175.397 226.8 175.15 226.516C174.902 226.225 174.538 226.079 174.058 226.079C173.607 226.079 173.243 226.225 172.966 226.516C172.697 226.8 172.562 227.197 172.562 227.706V230.731C172.562 230.804 172.536 230.866 172.485 230.917C172.442 230.961 172.384 230.982 172.311 230.982H171.765ZM180.407 231.092C179.65 231.092 179.05 230.862 178.606 230.404C178.161 229.938 177.918 229.304 177.874 228.504C177.867 228.409 177.863 228.289 177.863 228.143C177.863 227.99 177.867 227.867 177.874 227.772C177.903 227.255 178.023 226.804 178.234 226.418C178.445 226.025 178.733 225.723 179.097 225.512C179.468 225.3 179.901 225.195 180.396 225.195C180.95 225.195 181.412 225.311 181.783 225.544C182.162 225.777 182.449 226.108 182.646 226.538C182.842 226.968 182.941 227.47 182.941 228.045V228.231C182.941 228.311 182.915 228.373 182.864 228.416C182.821 228.46 182.762 228.482 182.69 228.482H178.911C178.911 228.489 178.911 228.504 178.911 228.525C178.911 228.547 178.911 228.565 178.911 228.58C178.926 228.879 178.991 229.159 179.108 229.421C179.224 229.676 179.392 229.883 179.61 230.043C179.836 230.203 180.098 230.284 180.396 230.284C180.658 230.284 180.877 230.244 181.052 230.163C181.226 230.083 181.368 229.996 181.477 229.901C181.587 229.799 181.659 229.719 181.696 229.661C181.761 229.574 181.812 229.523 181.849 229.508C181.885 229.486 181.943 229.475 182.023 229.475H182.559C182.624 229.475 182.679 229.497 182.722 229.541C182.773 229.577 182.795 229.632 182.788 229.705C182.781 229.814 182.722 229.949 182.613 230.109C182.504 230.262 182.347 230.415 182.144 230.567C181.947 230.72 181.7 230.848 181.401 230.95C181.11 231.044 180.779 231.092 180.407 231.092ZM178.911 227.728H181.903V227.696C181.903 227.368 181.841 227.077 181.718 226.822C181.601 226.567 181.43 226.367 181.204 226.221C180.979 226.068 180.709 225.992 180.396 225.992C180.083 225.992 179.814 226.068 179.588 226.221C179.37 226.367 179.202 226.567 179.086 226.822C178.97 227.077 178.911 227.368 178.911 227.696V227.728ZM186.54 231.092C186.023 231.092 185.575 230.993 185.196 230.797C184.825 230.593 184.538 230.305 184.334 229.934C184.13 229.556 184.021 229.104 184.006 228.58C183.999 228.471 183.995 228.325 183.995 228.143C183.995 227.961 183.999 227.816 184.006 227.706C184.021 227.182 184.13 226.735 184.334 226.363C184.538 225.985 184.825 225.697 185.196 225.501C185.575 225.297 186.023 225.195 186.54 225.195C186.962 225.195 187.322 225.253 187.621 225.37C187.926 225.486 188.178 225.635 188.374 225.817C188.571 225.999 188.716 226.196 188.811 226.407C188.913 226.618 188.968 226.818 188.975 227.008C188.982 227.08 188.96 227.139 188.909 227.182C188.858 227.226 188.796 227.248 188.724 227.248H188.199C188.127 227.248 188.072 227.233 188.036 227.204C187.999 227.168 187.963 227.109 187.926 227.029C187.795 226.673 187.617 226.422 187.391 226.276C187.166 226.13 186.885 226.058 186.551 226.058C186.114 226.058 185.757 226.192 185.48 226.462C185.211 226.731 185.065 227.164 185.044 227.761C185.036 228.023 185.036 228.278 185.044 228.525C185.065 229.13 185.211 229.566 185.48 229.836C185.757 230.098 186.114 230.229 186.551 230.229C186.885 230.229 187.166 230.156 187.391 230.011C187.617 229.865 187.795 229.614 187.926 229.257C187.963 229.177 187.999 229.119 188.036 229.082C188.072 229.046 188.127 229.028 188.199 229.028H188.724C188.796 229.028 188.858 229.053 188.909 229.104C188.96 229.148 188.982 229.206 188.975 229.279C188.968 229.432 188.935 229.588 188.877 229.748C188.818 229.909 188.724 230.072 188.593 230.24C188.469 230.4 188.312 230.546 188.123 230.677C187.934 230.8 187.708 230.902 187.446 230.982C187.184 231.055 186.882 231.092 186.54 231.092ZM192.488 230.982C192.081 230.982 191.749 230.906 191.495 230.753C191.24 230.593 191.054 230.371 190.938 230.087C190.821 229.796 190.763 229.454 190.763 229.061V226.178H189.911C189.838 226.178 189.777 226.156 189.726 226.112C189.682 226.061 189.66 225.999 189.66 225.926V225.555C189.66 225.482 189.682 225.424 189.726 225.38C189.777 225.33 189.838 225.304 189.911 225.304H190.763V223.48C190.763 223.408 190.785 223.349 190.829 223.306C190.88 223.255 190.941 223.229 191.014 223.229H191.527C191.6 223.229 191.658 223.255 191.702 223.306C191.753 223.349 191.779 223.408 191.779 223.48V225.304H193.133C193.213 225.304 193.275 225.33 193.318 225.38C193.362 225.424 193.384 225.482 193.384 225.555V225.926C193.384 225.999 193.362 226.061 193.318 226.112C193.275 226.156 193.213 226.178 193.133 226.178H191.779V228.984C191.779 229.326 191.837 229.596 191.953 229.792C192.07 229.989 192.277 230.087 192.576 230.087H193.242C193.315 230.087 193.373 230.112 193.417 230.163C193.468 230.207 193.493 230.265 193.493 230.338V230.731C193.493 230.804 193.468 230.866 193.417 230.917C193.373 230.961 193.315 230.982 193.242 230.982H192.488ZM196.809 231.092C196.051 231.092 195.451 230.862 195.007 230.404C194.563 229.938 194.319 229.304 194.275 228.504C194.268 228.409 194.264 228.289 194.264 228.143C194.264 227.99 194.268 227.867 194.275 227.772C194.304 227.255 194.424 226.804 194.636 226.418C194.847 226.025 195.134 225.723 195.498 225.512C195.869 225.3 196.303 225.195 196.798 225.195C197.351 225.195 197.813 225.311 198.185 225.544C198.563 225.777 198.851 226.108 199.047 226.538C199.244 226.968 199.342 227.47 199.342 228.045V228.231C199.342 228.311 199.317 228.373 199.266 228.416C199.222 228.46 199.164 228.482 199.091 228.482H195.313C195.313 228.489 195.313 228.504 195.313 228.525C195.313 228.547 195.313 228.565 195.313 228.58C195.327 228.879 195.393 229.159 195.509 229.421C195.626 229.676 195.793 229.883 196.011 230.043C196.237 230.203 196.499 230.284 196.798 230.284C197.06 230.284 197.278 230.244 197.453 230.163C197.628 230.083 197.77 229.996 197.879 229.901C197.988 229.799 198.061 229.719 198.097 229.661C198.163 229.574 198.214 229.523 198.25 229.508C198.286 229.486 198.345 229.475 198.425 229.475H198.96C199.025 229.475 199.08 229.497 199.124 229.541C199.175 229.577 199.196 229.632 199.189 229.705C199.182 229.814 199.124 229.949 199.014 230.109C198.905 230.262 198.749 230.415 198.545 230.567C198.348 230.72 198.101 230.848 197.802 230.95C197.511 231.044 197.18 231.092 196.809 231.092ZM195.313 227.728H198.305V227.696C198.305 227.368 198.243 227.077 198.119 226.822C198.003 226.567 197.831 226.367 197.606 226.221C197.38 226.068 197.111 225.992 196.798 225.992C196.485 225.992 196.215 226.068 195.99 226.221C195.771 226.367 195.604 226.567 195.487 226.822C195.371 227.077 195.313 227.368 195.313 227.696V227.728ZM202.723 231.092C202.322 231.092 201.976 231.022 201.685 230.884C201.394 230.739 201.154 230.546 200.964 230.305C200.782 230.058 200.644 229.778 200.549 229.465C200.462 229.152 200.411 228.82 200.397 228.471C200.389 228.354 200.386 228.245 200.386 228.143C200.386 228.041 200.389 227.932 200.397 227.816C200.411 227.473 200.462 227.146 200.549 226.833C200.644 226.52 200.782 226.24 200.964 225.992C201.154 225.744 201.394 225.552 201.685 225.413C201.976 225.268 202.322 225.195 202.723 225.195C203.152 225.195 203.509 225.271 203.793 225.424C204.077 225.577 204.31 225.766 204.492 225.992V223.48C204.492 223.408 204.513 223.349 204.557 223.306C204.608 223.255 204.67 223.229 204.743 223.229H205.267C205.34 223.229 205.398 223.255 205.442 223.306C205.493 223.349 205.518 223.408 205.518 223.48V230.731C205.518 230.804 205.493 230.866 205.442 230.917C205.398 230.961 205.34 230.982 205.267 230.982H204.776C204.695 230.982 204.634 230.961 204.59 230.917C204.546 230.866 204.524 230.804 204.524 230.731V230.273C204.342 230.506 204.106 230.702 203.815 230.862C203.523 231.015 203.159 231.092 202.723 231.092ZM202.952 230.207C203.316 230.207 203.607 230.123 203.825 229.956C204.044 229.789 204.208 229.577 204.317 229.323C204.426 229.061 204.484 228.795 204.492 228.525C204.499 228.409 204.503 228.271 204.503 228.11C204.503 227.943 204.499 227.801 204.492 227.685C204.484 227.43 204.422 227.179 204.306 226.931C204.197 226.684 204.029 226.48 203.804 226.32C203.585 226.159 203.301 226.079 202.952 226.079C202.581 226.079 202.286 226.163 202.067 226.331C201.849 226.491 201.692 226.705 201.598 226.975C201.503 227.237 201.449 227.521 201.434 227.827C201.427 228.038 201.427 228.249 201.434 228.46C201.449 228.766 201.503 229.053 201.598 229.323C201.692 229.585 201.849 229.799 202.067 229.967C202.286 230.127 202.581 230.207 202.952 230.207Z" fill="#323338"/>
<path d="M164.215 273.032C164.12 273.032 164.044 272.999 163.985 272.934C163.927 272.876 163.88 272.825 163.843 272.781L163.396 272.169C163.003 272.344 162.548 272.431 162.031 272.431C161.412 272.431 160.88 272.326 160.436 272.115C159.992 271.896 159.646 271.565 159.399 271.121C159.159 270.67 159.028 270.106 159.006 269.428C158.999 269.108 158.995 268.802 158.995 268.511C158.995 268.213 158.999 267.903 159.006 267.583C159.028 266.913 159.166 266.356 159.421 265.912C159.676 265.461 160.025 265.126 160.469 264.908C160.92 264.682 161.441 264.569 162.031 264.569C162.628 264.569 163.148 264.682 163.592 264.908C164.044 265.126 164.397 265.461 164.651 265.912C164.906 266.356 165.041 266.913 165.056 267.583C165.07 267.903 165.077 268.213 165.077 268.511C165.077 268.802 165.07 269.108 165.056 269.428C165.019 270.426 164.757 271.172 164.269 271.667L164.99 272.694C164.997 272.701 165.005 272.712 165.012 272.726C165.019 272.748 165.023 272.777 165.023 272.814C165.03 272.872 165.012 272.923 164.968 272.967C164.924 273.01 164.87 273.032 164.804 273.032H164.215ZM162.031 271.503C162.584 271.503 163.039 271.336 163.396 271.001C163.752 270.666 163.945 270.124 163.974 269.374C163.989 269.046 163.996 268.755 163.996 268.5C163.996 268.238 163.989 267.947 163.974 267.627C163.96 267.124 163.865 266.717 163.691 266.404C163.523 266.091 163.297 265.861 163.013 265.716C162.73 265.57 162.402 265.497 162.031 265.497C161.674 265.497 161.35 265.57 161.059 265.716C160.775 265.861 160.549 266.091 160.382 266.404C160.214 266.717 160.12 267.124 160.098 267.627C160.091 267.947 160.087 268.238 160.087 268.5C160.087 268.755 160.091 269.046 160.098 269.374C160.127 270.124 160.32 270.666 160.677 271.001C161.033 271.336 161.485 271.503 162.031 271.503ZM168.656 272.431C168.191 272.431 167.794 272.33 167.466 272.126C167.146 271.915 166.902 271.623 166.735 271.252C166.567 270.881 166.483 270.455 166.483 269.974V266.895C166.483 266.822 166.505 266.764 166.549 266.72C166.6 266.669 166.662 266.644 166.735 266.644H167.281C167.353 266.644 167.412 266.669 167.455 266.72C167.506 266.764 167.532 266.822 167.532 266.895V269.92C167.532 271.005 168.005 271.547 168.951 271.547C169.403 271.547 169.763 271.405 170.032 271.121C170.309 270.83 170.447 270.429 170.447 269.92V266.895C170.447 266.822 170.469 266.764 170.513 266.72C170.564 266.669 170.626 266.644 170.698 266.644H171.244C171.317 266.644 171.376 266.669 171.419 266.72C171.463 266.764 171.485 266.822 171.485 266.895V272.071C171.485 272.144 171.463 272.206 171.419 272.257C171.376 272.3 171.317 272.322 171.244 272.322H170.731C170.658 272.322 170.597 272.3 170.546 272.257C170.502 272.206 170.48 272.144 170.48 272.071V271.591C170.284 271.845 170.043 272.049 169.759 272.202C169.483 272.355 169.115 272.431 168.656 272.431ZM174.69 272.431C174.326 272.431 173.995 272.359 173.697 272.213C173.398 272.067 173.158 271.871 172.976 271.623C172.794 271.376 172.703 271.096 172.703 270.783C172.703 270.28 172.907 269.88 173.315 269.581C173.722 269.283 174.254 269.086 174.909 268.992L176.536 268.762V268.446C176.536 268.096 176.434 267.823 176.23 267.627C176.034 267.43 175.71 267.332 175.258 267.332C174.938 267.332 174.676 267.397 174.472 267.528C174.268 267.659 174.126 267.827 174.046 268.031C174.002 268.14 173.926 268.195 173.817 268.195H173.325C173.245 268.195 173.183 268.173 173.14 268.129C173.103 268.078 173.085 268.02 173.085 267.954C173.085 267.845 173.125 267.71 173.205 267.55C173.293 267.39 173.424 267.234 173.598 267.081C173.773 266.928 173.995 266.8 174.265 266.698C174.541 266.589 174.876 266.535 175.269 266.535C175.706 266.535 176.074 266.593 176.372 266.709C176.671 266.819 176.904 266.968 177.071 267.157C177.246 267.346 177.369 267.561 177.442 267.801C177.522 268.042 177.562 268.286 177.562 268.533V272.071C177.562 272.144 177.537 272.206 177.486 272.257C177.442 272.3 177.384 272.322 177.311 272.322H176.809C176.729 272.322 176.667 272.3 176.623 272.257C176.58 272.206 176.558 272.144 176.558 272.071V271.602C176.463 271.733 176.336 271.864 176.176 271.995C176.015 272.118 175.815 272.224 175.575 272.311C175.335 272.391 175.04 272.431 174.69 272.431ZM174.92 271.612C175.218 271.612 175.491 271.551 175.739 271.427C175.986 271.296 176.179 271.096 176.318 270.826C176.463 270.557 176.536 270.218 176.536 269.811V269.505L175.269 269.691C174.752 269.763 174.363 269.887 174.101 270.062C173.839 270.229 173.708 270.444 173.708 270.706C173.708 270.91 173.766 271.081 173.882 271.219C174.006 271.35 174.159 271.449 174.341 271.514C174.53 271.58 174.723 271.612 174.92 271.612ZM179.394 272.322C179.322 272.322 179.26 272.3 179.209 272.257C179.165 272.206 179.143 272.144 179.143 272.071V264.82C179.143 264.747 179.165 264.689 179.209 264.646C179.26 264.595 179.322 264.569 179.394 264.569H179.908C179.988 264.569 180.049 264.595 180.093 264.646C180.137 264.689 180.159 264.747 180.159 264.82V272.071C180.159 272.144 180.137 272.206 180.093 272.257C180.049 272.3 179.988 272.322 179.908 272.322H179.394ZM182.145 272.322C182.073 272.322 182.011 272.3 181.96 272.257C181.916 272.206 181.894 272.144 181.894 272.071V266.895C181.894 266.822 181.916 266.764 181.96 266.72C182.011 266.669 182.073 266.644 182.145 266.644H182.67C182.742 266.644 182.801 266.669 182.844 266.72C182.895 266.764 182.921 266.822 182.921 266.895V272.071C182.921 272.144 182.895 272.206 182.844 272.257C182.801 272.3 182.742 272.322 182.67 272.322H182.145ZM182.058 265.585C181.985 265.585 181.923 265.563 181.872 265.519C181.829 265.468 181.807 265.406 181.807 265.333V264.744C181.807 264.671 181.829 264.609 181.872 264.558C181.923 264.507 181.985 264.482 182.058 264.482H182.746C182.819 264.482 182.881 264.507 182.932 264.558C182.983 264.609 183.008 264.671 183.008 264.744V265.333C183.008 265.406 182.983 265.468 182.932 265.519C182.881 265.563 182.819 265.585 182.746 265.585H182.058ZM185.358 272.322C185.285 272.322 185.223 272.3 185.172 272.257C185.129 272.206 185.107 272.144 185.107 272.071V267.517H184.179C184.106 267.517 184.044 267.496 183.993 267.452C183.949 267.401 183.927 267.339 183.927 267.266V266.895C183.927 266.822 183.949 266.764 183.993 266.72C184.044 266.669 184.106 266.644 184.179 266.644H185.107V266.098C185.107 265.727 185.169 265.403 185.292 265.126C185.416 264.842 185.613 264.624 185.882 264.471C186.159 264.318 186.526 264.241 186.985 264.241H188.667C188.739 264.241 188.798 264.267 188.841 264.318C188.892 264.362 188.918 264.42 188.918 264.493V264.864C188.918 264.937 188.892 264.999 188.841 265.05C188.798 265.093 188.739 265.115 188.667 265.115H187.007C186.665 265.115 186.432 265.206 186.308 265.388C186.184 265.563 186.122 265.818 186.122 266.152V266.644H188.667C188.739 266.644 188.798 266.669 188.841 266.72C188.892 266.764 188.918 266.822 188.918 266.895V272.071C188.918 272.144 188.892 272.206 188.841 272.257C188.798 272.3 188.739 272.322 188.667 272.322H188.164C188.084 272.322 188.022 272.3 187.979 272.257C187.935 272.206 187.913 272.144 187.913 272.071V267.517H186.122V272.071C186.122 272.144 186.097 272.206 186.046 272.257C186.002 272.3 185.944 272.322 185.871 272.322H185.358ZM192.825 272.431C192.068 272.431 191.467 272.202 191.023 271.744C190.579 271.278 190.335 270.644 190.291 269.843C190.284 269.749 190.28 269.629 190.28 269.483C190.28 269.33 190.284 269.206 190.291 269.112C190.32 268.595 190.441 268.144 190.652 267.758C190.863 267.365 191.15 267.062 191.514 266.851C191.886 266.64 192.319 266.535 192.814 266.535C193.367 266.535 193.829 266.651 194.201 266.884C194.579 267.117 194.867 267.448 195.063 267.878C195.26 268.307 195.358 268.81 195.358 269.385V269.57C195.358 269.651 195.333 269.712 195.282 269.756C195.238 269.8 195.18 269.822 195.107 269.822H191.329C191.329 269.829 191.329 269.843 191.329 269.865C191.329 269.887 191.329 269.905 191.329 269.92C191.343 270.218 191.409 270.499 191.525 270.761C191.642 271.016 191.809 271.223 192.028 271.383C192.253 271.543 192.515 271.623 192.814 271.623C193.076 271.623 193.294 271.583 193.469 271.503C193.644 271.423 193.786 271.336 193.895 271.241C194.004 271.139 194.077 271.059 194.113 271.001C194.179 270.914 194.23 270.863 194.266 270.848C194.303 270.826 194.361 270.815 194.441 270.815H194.976C195.042 270.815 195.096 270.837 195.14 270.881C195.191 270.917 195.213 270.972 195.205 271.045C195.198 271.154 195.14 271.289 195.031 271.449C194.921 271.602 194.765 271.754 194.561 271.907C194.364 272.06 194.117 272.188 193.818 272.29C193.527 272.384 193.196 272.431 192.825 272.431ZM191.329 269.068H194.321V269.035C194.321 268.708 194.259 268.417 194.135 268.162C194.019 267.907 193.848 267.707 193.622 267.561C193.396 267.408 193.127 267.332 192.814 267.332C192.501 267.332 192.231 267.408 192.006 267.561C191.787 267.707 191.62 267.907 191.503 268.162C191.387 268.417 191.329 268.708 191.329 269.035V269.068ZM198.739 272.431C198.338 272.431 197.993 272.362 197.701 272.224C197.41 272.078 197.17 271.885 196.981 271.645C196.799 271.398 196.66 271.117 196.566 270.804C196.478 270.491 196.427 270.16 196.413 269.811C196.405 269.694 196.402 269.585 196.402 269.483C196.402 269.381 196.405 269.272 196.413 269.155C196.427 268.813 196.478 268.486 196.566 268.173C196.66 267.86 196.799 267.579 196.981 267.332C197.17 267.084 197.41 266.891 197.701 266.753C197.993 266.607 198.338 266.535 198.739 266.535C199.168 266.535 199.525 266.611 199.809 266.764C200.093 266.917 200.326 267.106 200.508 267.332V264.82C200.508 264.747 200.53 264.689 200.573 264.646C200.624 264.595 200.686 264.569 200.759 264.569H201.283C201.356 264.569 201.414 264.595 201.458 264.646C201.509 264.689 201.534 264.747 201.534 264.82V272.071C201.534 272.144 201.509 272.206 201.458 272.257C201.414 272.3 201.356 272.322 201.283 272.322H200.792C200.712 272.322 200.65 272.3 200.606 272.257C200.562 272.206 200.541 272.144 200.541 272.071V271.612C200.359 271.845 200.122 272.042 199.831 272.202C199.54 272.355 199.176 272.431 198.739 272.431ZM198.968 271.547C199.332 271.547 199.623 271.463 199.842 271.296C200.06 271.128 200.224 270.917 200.333 270.662C200.442 270.4 200.5 270.135 200.508 269.865C200.515 269.749 200.519 269.61 200.519 269.45C200.519 269.283 200.515 269.141 200.508 269.024C200.5 268.77 200.439 268.518 200.322 268.271C200.213 268.023 200.045 267.82 199.82 267.659C199.601 267.499 199.317 267.419 198.968 267.419C198.597 267.419 198.302 267.503 198.084 267.67C197.865 267.831 197.709 268.045 197.614 268.315C197.519 268.577 197.465 268.861 197.45 269.166C197.443 269.378 197.443 269.589 197.45 269.8C197.465 270.106 197.519 270.393 197.614 270.662C197.709 270.925 197.865 271.139 198.084 271.307C198.302 271.467 198.597 271.547 198.968 271.547Z" fill="#323338"/>
<path d="M176.815 358.324C176.145 358.324 175.588 358.2 175.144 357.953C174.707 357.705 174.376 357.359 174.15 356.915C173.925 356.471 173.801 355.954 173.779 355.365C173.772 355.066 173.768 354.746 173.768 354.404C173.768 354.062 173.772 353.734 173.779 353.421C173.801 352.831 173.925 352.314 174.15 351.87C174.376 351.426 174.707 351.08 175.144 350.833C175.588 350.585 176.145 350.462 176.815 350.462C177.317 350.462 177.757 350.531 178.136 350.669C178.515 350.807 178.828 350.993 179.075 351.226C179.33 351.459 179.523 351.721 179.654 352.012C179.785 352.296 179.858 352.591 179.872 352.897C179.88 352.962 179.858 353.017 179.807 353.061C179.763 353.104 179.708 353.126 179.643 353.126H179.042C178.977 353.126 178.919 353.108 178.868 353.072C178.824 353.035 178.791 352.97 178.769 352.875C178.646 352.307 178.413 351.918 178.07 351.707C177.736 351.495 177.317 351.39 176.815 351.39C176.225 351.39 175.759 351.557 175.417 351.892C175.075 352.22 174.893 352.748 174.871 353.476C174.849 354.073 174.849 354.684 174.871 355.31C174.893 356.038 175.075 356.57 175.417 356.904C175.759 357.232 176.225 357.396 176.815 357.396C177.317 357.396 177.736 357.29 178.07 357.079C178.413 356.868 178.646 356.479 178.769 355.911C178.791 355.816 178.824 355.751 178.868 355.714C178.919 355.678 178.977 355.66 179.042 355.66H179.643C179.708 355.66 179.763 355.681 179.807 355.725C179.858 355.761 179.88 355.812 179.872 355.878C179.858 356.184 179.785 356.482 179.654 356.773C179.523 357.065 179.33 357.327 179.075 357.56C178.828 357.793 178.515 357.978 178.136 358.117C177.757 358.255 177.317 358.324 176.815 358.324ZM181.456 358.215C181.383 358.215 181.321 358.193 181.27 358.149C181.227 358.098 181.205 358.036 181.205 357.964V350.713C181.205 350.64 181.227 350.582 181.27 350.538C181.321 350.487 181.383 350.462 181.456 350.462H181.969C182.049 350.462 182.111 350.487 182.155 350.538C182.198 350.582 182.22 350.64 182.22 350.713V357.964C182.22 358.036 182.198 358.098 182.155 358.149C182.111 358.193 182.049 358.215 181.969 358.215H181.456ZM186.175 358.324C185.622 358.324 185.159 358.218 184.788 358.007C184.417 357.796 184.133 357.505 183.936 357.134C183.74 356.755 183.631 356.326 183.609 355.845C183.602 355.721 183.598 355.565 183.598 355.376C183.598 355.179 183.602 355.023 183.609 354.906C183.631 354.418 183.74 353.989 183.936 353.618C184.14 353.246 184.428 352.955 184.799 352.744C185.17 352.533 185.629 352.427 186.175 352.427C186.721 352.427 187.18 352.533 187.551 352.744C187.922 352.955 188.206 353.246 188.403 353.618C188.607 353.989 188.719 354.418 188.741 354.906C188.749 355.023 188.752 355.179 188.752 355.376C188.752 355.565 188.749 355.721 188.741 355.845C188.719 356.326 188.61 356.755 188.414 357.134C188.217 357.505 187.933 357.796 187.562 358.007C187.191 358.218 186.728 358.324 186.175 358.324ZM186.175 357.483C186.626 357.483 186.987 357.341 187.256 357.057C187.525 356.766 187.671 356.344 187.693 355.791C187.7 355.681 187.704 355.543 187.704 355.376C187.704 355.208 187.7 355.07 187.693 354.961C187.671 354.407 187.525 353.989 187.256 353.705C186.987 353.414 186.626 353.268 186.175 353.268C185.724 353.268 185.36 353.414 185.083 353.705C184.814 353.989 184.672 354.407 184.657 354.961C184.65 355.07 184.646 355.208 184.646 355.376C184.646 355.543 184.65 355.681 184.657 355.791C184.672 356.344 184.814 356.766 185.083 357.057C185.36 357.341 185.724 357.483 186.175 357.483ZM192.085 358.324C191.677 358.324 191.328 358.273 191.037 358.171C190.746 358.069 190.509 357.945 190.327 357.8C190.145 357.654 190.007 357.509 189.912 357.363C189.825 357.217 189.777 357.101 189.77 357.014C189.763 356.934 189.788 356.872 189.847 356.828C189.905 356.784 189.963 356.762 190.021 356.762H190.513C190.549 356.762 190.578 356.77 190.6 356.784C190.629 356.792 190.666 356.821 190.709 356.872C190.804 356.974 190.909 357.076 191.026 357.177C191.142 357.279 191.284 357.363 191.452 357.429C191.627 357.494 191.841 357.527 192.096 357.527C192.467 357.527 192.773 357.458 193.013 357.319C193.254 357.174 193.374 356.963 193.374 356.686C193.374 356.504 193.323 356.358 193.221 356.249C193.126 356.14 192.951 356.042 192.697 355.954C192.449 355.867 192.107 355.776 191.67 355.681C191.233 355.579 190.888 355.456 190.633 355.31C190.378 355.157 190.196 354.979 190.087 354.775C189.978 354.564 189.923 354.327 189.923 354.065C189.923 353.796 190.003 353.537 190.163 353.29C190.323 353.035 190.556 352.828 190.862 352.667C191.175 352.507 191.565 352.427 192.031 352.427C192.409 352.427 192.733 352.475 193.002 352.569C193.272 352.664 193.494 352.784 193.669 352.93C193.843 353.068 193.974 353.206 194.062 353.345C194.149 353.483 194.196 353.599 194.204 353.694C194.211 353.767 194.189 353.829 194.138 353.88C194.087 353.923 194.029 353.945 193.963 353.945H193.505C193.454 353.945 193.41 353.934 193.374 353.912C193.345 353.891 193.315 353.865 193.286 353.836C193.214 353.741 193.126 353.647 193.024 353.552C192.93 353.457 192.802 353.381 192.642 353.323C192.489 353.257 192.285 353.224 192.031 353.224C191.667 353.224 191.394 353.301 191.212 353.454C191.03 353.607 190.939 353.8 190.939 354.032C190.939 354.171 190.979 354.295 191.059 354.404C191.139 354.513 191.292 354.611 191.517 354.699C191.743 354.786 192.078 354.881 192.522 354.983C193.002 355.077 193.381 355.205 193.658 355.365C193.934 355.525 194.131 355.711 194.247 355.922C194.364 356.133 194.422 356.377 194.422 356.653C194.422 356.959 194.335 357.239 194.16 357.494C193.985 357.749 193.723 357.953 193.374 358.106C193.024 358.251 192.595 358.324 192.085 358.324ZM197.958 358.324C197.2 358.324 196.6 358.095 196.156 357.636C195.712 357.17 195.468 356.537 195.424 355.736C195.417 355.641 195.413 355.521 195.413 355.376C195.413 355.223 195.417 355.099 195.424 355.004C195.453 354.487 195.573 354.036 195.784 353.65C195.996 353.257 196.283 352.955 196.647 352.744C197.018 352.533 197.452 352.427 197.947 352.427C198.5 352.427 198.962 352.544 199.333 352.777C199.712 353.01 200 353.341 200.196 353.77C200.393 354.2 200.491 354.702 200.491 355.277V355.463C200.491 355.543 200.465 355.605 200.415 355.649C200.371 355.692 200.313 355.714 200.24 355.714H196.462C196.462 355.721 196.462 355.736 196.462 355.758C196.462 355.78 196.462 355.798 196.462 355.812C196.476 356.111 196.542 356.391 196.658 356.653C196.775 356.908 196.942 357.116 197.16 357.276C197.386 357.436 197.648 357.516 197.947 357.516C198.209 357.516 198.427 357.476 198.602 357.396C198.777 357.316 198.919 357.228 199.028 357.134C199.137 357.032 199.21 356.952 199.246 356.894C199.312 356.806 199.363 356.755 199.399 356.741C199.435 356.719 199.494 356.708 199.574 356.708H200.109C200.174 356.708 200.229 356.73 200.273 356.773C200.324 356.81 200.345 356.864 200.338 356.937C200.331 357.046 200.273 357.181 200.163 357.341C200.054 357.494 199.898 357.647 199.694 357.8C199.497 357.953 199.25 358.08 198.951 358.182C198.66 358.277 198.329 358.324 197.958 358.324ZM196.462 354.961H199.454V354.928C199.454 354.6 199.392 354.309 199.268 354.054C199.151 353.8 198.98 353.599 198.755 353.454C198.529 353.301 198.26 353.224 197.947 353.224C197.634 353.224 197.364 353.301 197.139 353.454C196.92 353.599 196.753 353.8 196.636 354.054C196.52 354.309 196.462 354.6 196.462 354.928V354.961ZM203.871 358.324C203.471 358.324 203.125 358.255 202.834 358.117C202.543 357.971 202.303 357.778 202.113 357.538C201.931 357.29 201.793 357.01 201.698 356.697C201.611 356.384 201.56 356.053 201.546 355.703C201.538 355.587 201.535 355.478 201.535 355.376C201.535 355.274 201.538 355.165 201.546 355.048C201.56 354.706 201.611 354.378 201.698 354.065C201.793 353.752 201.931 353.472 202.113 353.224C202.303 352.977 202.543 352.784 202.834 352.646C203.125 352.5 203.471 352.427 203.871 352.427C204.301 352.427 204.658 352.504 204.942 352.657C205.226 352.809 205.459 352.999 205.641 353.224V350.713C205.641 350.64 205.662 350.582 205.706 350.538C205.757 350.487 205.819 350.462 205.892 350.462H206.416C206.489 350.462 206.547 350.487 206.591 350.538C206.642 350.582 206.667 350.64 206.667 350.713V357.964C206.667 358.036 206.642 358.098 206.591 358.149C206.547 358.193 206.489 358.215 206.416 358.215H205.924C205.844 358.215 205.782 358.193 205.739 358.149C205.695 358.098 205.673 358.036 205.673 357.964V357.505C205.491 357.738 205.255 357.935 204.963 358.095C204.672 358.248 204.308 358.324 203.871 358.324ZM204.101 357.44C204.465 357.44 204.756 357.356 204.974 357.188C205.193 357.021 205.357 356.81 205.466 356.555C205.575 356.293 205.633 356.027 205.641 355.758C205.648 355.641 205.651 355.503 205.651 355.343C205.651 355.175 205.648 355.033 205.641 354.917C205.633 354.662 205.571 354.411 205.455 354.164C205.346 353.916 205.178 353.712 204.953 353.552C204.734 353.392 204.45 353.312 204.101 353.312C203.73 353.312 203.435 353.395 203.216 353.563C202.998 353.723 202.841 353.938 202.747 354.207C202.652 354.469 202.597 354.753 202.583 355.059C202.576 355.27 202.576 355.481 202.583 355.692C202.597 355.998 202.652 356.286 202.747 356.555C202.841 356.817 202.998 357.032 203.216 357.199C203.435 357.359 203.73 357.44 204.101 357.44Z" fill="#323338"/>
<path d="M142.724 319.122C142.644 319.122 142.582 319.1 142.538 319.057C142.495 319.006 142.473 318.944 142.473 318.871V311.729C142.473 311.657 142.495 311.598 142.538 311.555C142.582 311.504 142.644 311.478 142.724 311.478H143.303C143.375 311.478 143.434 311.504 143.477 311.555C143.528 311.598 143.554 311.657 143.554 311.729V318.172H147.179C147.259 318.172 147.321 318.198 147.365 318.249C147.416 318.292 147.441 318.354 147.441 318.434V318.871C147.441 318.944 147.416 319.006 147.365 319.057C147.321 319.1 147.259 319.122 147.179 319.122H142.724ZM150.693 319.232C150.139 319.232 149.677 319.126 149.306 318.915C148.934 318.704 148.651 318.413 148.454 318.041C148.257 317.663 148.148 317.233 148.126 316.753C148.119 316.629 148.115 316.472 148.115 316.283C148.115 316.087 148.119 315.93 148.126 315.814C148.148 315.326 148.257 314.896 148.454 314.525C148.658 314.154 148.945 313.863 149.317 313.651C149.688 313.44 150.147 313.335 150.693 313.335C151.239 313.335 151.697 313.44 152.069 313.651C152.44 313.863 152.724 314.154 152.92 314.525C153.124 314.896 153.237 315.326 153.259 315.814C153.266 315.93 153.27 316.087 153.27 316.283C153.27 316.472 153.266 316.629 153.259 316.753C153.237 317.233 153.128 317.663 152.931 318.041C152.735 318.413 152.451 318.704 152.079 318.915C151.708 319.126 151.246 319.232 150.693 319.232ZM150.693 318.391C151.144 318.391 151.504 318.249 151.774 317.965C152.043 317.674 152.189 317.251 152.21 316.698C152.218 316.589 152.221 316.451 152.221 316.283C152.221 316.116 152.218 315.977 152.21 315.868C152.189 315.315 152.043 314.896 151.774 314.612C151.504 314.321 151.144 314.176 150.693 314.176C150.241 314.176 149.877 314.321 149.601 314.612C149.331 314.896 149.189 315.315 149.175 315.868C149.167 315.977 149.164 316.116 149.164 316.283C149.164 316.451 149.167 316.589 149.175 316.698C149.189 317.251 149.331 317.674 149.601 317.965C149.877 318.249 150.241 318.391 150.693 318.391ZM156.603 319.232C156.195 319.232 155.846 319.181 155.554 319.079C155.263 318.977 155.027 318.853 154.845 318.707C154.663 318.562 154.524 318.416 154.43 318.271C154.342 318.125 154.295 318.008 154.288 317.921C154.28 317.841 154.306 317.779 154.364 317.735C154.422 317.692 154.481 317.67 154.539 317.67H155.03C155.067 317.67 155.096 317.677 155.118 317.692C155.147 317.699 155.183 317.728 155.227 317.779C155.321 317.881 155.427 317.983 155.543 318.085C155.66 318.187 155.802 318.271 155.969 318.336C156.144 318.402 156.359 318.434 156.614 318.434C156.985 318.434 157.291 318.365 157.531 318.227C157.771 318.081 157.891 317.87 157.891 317.594C157.891 317.412 157.84 317.266 157.738 317.157C157.644 317.048 157.469 316.949 157.214 316.862C156.967 316.775 156.625 316.684 156.188 316.589C155.751 316.487 155.405 316.363 155.15 316.218C154.896 316.065 154.714 315.886 154.604 315.683C154.495 315.471 154.441 315.235 154.441 314.973C154.441 314.703 154.521 314.445 154.681 314.197C154.841 313.943 155.074 313.735 155.38 313.575C155.693 313.415 156.082 313.335 156.548 313.335C156.927 313.335 157.251 313.382 157.52 313.477C157.789 313.571 158.011 313.691 158.186 313.837C158.361 313.975 158.492 314.114 158.579 314.252C158.667 314.39 158.714 314.507 158.721 314.601C158.728 314.674 158.707 314.736 158.656 314.787C158.605 314.831 158.546 314.853 158.481 314.853H158.022C157.971 314.853 157.928 314.842 157.891 314.82C157.862 314.798 157.833 314.773 157.804 314.743C157.731 314.649 157.644 314.554 157.542 314.459C157.447 314.365 157.32 314.288 157.16 314.23C157.007 314.165 156.803 314.132 156.548 314.132C156.184 314.132 155.911 314.208 155.729 314.361C155.547 314.514 155.456 314.707 155.456 314.94C155.456 315.078 155.496 315.202 155.576 315.311C155.656 315.42 155.809 315.519 156.035 315.606C156.261 315.693 156.595 315.788 157.039 315.89C157.52 315.985 157.899 316.112 158.175 316.272C158.452 316.432 158.648 316.618 158.765 316.829C158.881 317.04 158.94 317.284 158.94 317.561C158.94 317.867 158.852 318.147 158.677 318.402C158.503 318.656 158.241 318.86 157.891 319.013C157.542 319.159 157.112 319.232 156.603 319.232ZM162.41 319.122C162.002 319.122 161.671 319.046 161.416 318.893C161.161 318.733 160.976 318.511 160.859 318.227C160.743 317.936 160.684 317.594 160.684 317.2V314.318H159.833C159.76 314.318 159.698 314.296 159.647 314.252C159.603 314.201 159.582 314.139 159.582 314.066V313.695C159.582 313.622 159.603 313.564 159.647 313.52C159.698 313.469 159.76 313.444 159.833 313.444H160.684V311.62C160.684 311.547 160.706 311.489 160.75 311.446C160.801 311.395 160.863 311.369 160.936 311.369H161.449C161.522 311.369 161.58 311.395 161.624 311.446C161.675 311.489 161.7 311.547 161.7 311.62V313.444H163.054C163.134 313.444 163.196 313.469 163.24 313.52C163.283 313.564 163.305 313.622 163.305 313.695V314.066C163.305 314.139 163.283 314.201 163.24 314.252C163.196 314.296 163.134 314.318 163.054 314.318H161.7V317.124C161.7 317.466 161.758 317.735 161.875 317.932C161.991 318.129 162.199 318.227 162.497 318.227H163.163C163.236 318.227 163.294 318.252 163.338 318.303C163.389 318.347 163.414 318.405 163.414 318.478V318.871C163.414 318.944 163.389 319.006 163.338 319.057C163.294 319.1 163.236 319.122 163.163 319.122H162.41Z" fill="#323338"/>
<defs>
<clipPath id="clip0_29_2140">
<rect width="8.63027" height="29.1768" fill="white" transform="translate(289.726 184.902) rotate(18.3663)"/>
</clipPath>
<clipPath id="clip1_29_2140">
<rect width="8.63027" height="29.1768" fill="white" transform="translate(272.342 239.601) rotate(18.3663)"/>
</clipPath>
<clipPath id="clip2_29_2140">
<rect width="8.63027" height="29.1768" fill="white" transform="translate(301.484 148.743) rotate(18.3663)"/>
</clipPath>
</defs>
</svg>
