<svg width="534" height="86" viewBox="0 0 534 86" fill="none" xmlns="http://www.w3.org/2000/svg">
<g clip-path="url(#clip0_95_431)">
<path d="M42.21 85.64C65.5219 85.64 84.42 66.7419 84.42 43.43C84.42 20.118 65.5219 1.21997 42.21 1.21997C18.8981 1.21997 0 20.118 0 43.43C0 66.7419 18.8981 85.64 42.21 85.64Z" fill="white"/>
<path d="M50.81 84.74C43.6354 86.2345 36.1953 85.8344 29.2223 83.579C22.2494 81.3237 15.9842 77.2909 11.0438 71.8779C6.10346 66.4649 2.65828 59.8583 1.04764 52.7089C-0.563004 45.5595 -0.283563 38.1138 1.85844 31.1053C4.00044 24.0967 7.93112 17.767 13.2633 12.7395C18.5956 7.71199 25.1454 4.16017 32.2678 2.43384C39.3901 0.7075 46.8393 0.866198 53.8817 2.8943C60.9241 4.9224 67.3167 8.74995 72.43 14L42.06 43.58L27.54 28.67L22.24 29.29L21.63 34.64L41.91 55.44L77.69 20.57C80.5012 24.9168 82.4782 29.7492 83.52 34.82C84.6516 40.2456 84.7031 45.8411 83.6715 51.2867C82.6399 56.7323 80.5454 61.9212 77.5078 66.5571C74.4701 71.1929 70.5488 75.1848 65.9679 78.3047C61.387 81.4246 56.2363 83.6113 50.81 84.74Z" fill="#E32227"/>
<path d="M531.43 0H411.33C410.054 0 409.02 1.03422 409.02 2.31V50.61C409.02 51.8858 410.054 52.92 411.33 52.92H531.43C532.706 52.92 533.74 51.8858 533.74 50.61V2.31C533.74 1.03422 532.706 0 531.43 0Z" fill="#E32227"/>
<path d="M419.59 17.5601C421.088 14.9793 423.258 12.8537 425.87 11.4101C428.692 9.88765 431.863 9.12752 435.068 9.20468C438.274 9.28184 441.404 10.1936 444.15 11.8501C446.949 13.6194 449.092 16.2573 450.25 19.3601H443.59C442.813 17.6836 441.538 16.2871 439.94 15.3601C438.284 14.4634 436.423 14.012 434.54 14.0501C432.442 14.0137 430.371 14.5347 428.54 15.5601C426.779 16.5744 425.351 18.0788 424.43 19.8901C423.427 21.9314 422.936 24.1864 423 26.4601C422.947 28.7253 423.445 30.9695 424.45 33.0001C425.379 34.8135 426.804 36.3256 428.56 37.3601C430.386 38.401 432.459 38.9296 434.56 38.8901C436.444 38.9297 438.306 38.4746 439.96 37.5701C441.562 36.6477 442.838 35.2498 443.61 33.5701H450.27C449.118 36.671 446.974 39.3043 444.17 41.0601C441.281 42.8307 437.947 43.7396 434.56 43.6801C431.517 43.7109 428.519 42.9493 425.86 41.4701C423.264 40.0165 421.105 37.8926 419.61 35.3201C418.05 32.6166 417.252 29.541 417.3 26.4201C417.253 23.3145 418.044 20.2537 419.59 17.5601Z" fill="white" stroke="white" stroke-width="1.2" stroke-miterlimit="10"/>
<path d="M474.27 43.43L466.49 29.91H462.26V43.43H456.72V9.64H468.38C470.663 9.56444 472.932 10.0305 475 11C476.662 11.799 478.053 13.0681 479 14.65C479.896 16.1986 480.356 17.9611 480.33 19.75C480.345 21.9033 479.672 24.0052 478.41 25.75C476.958 27.6529 474.859 28.9583 472.51 29.42L480.87 43.42L474.27 43.43ZM462.27 25.49H468.39C469.238 25.553 470.089 25.4476 470.896 25.1798C471.703 24.9121 472.448 24.4873 473.09 23.93C473.626 23.379 474.043 22.7236 474.315 22.0044C474.587 21.2853 474.708 20.5179 474.67 19.75C474.713 18.9938 474.596 18.2371 474.327 17.5291C474.058 16.821 473.644 16.1774 473.11 15.64C471.787 14.5544 470.096 14.0238 468.39 14.16H462.27V25.49Z" fill="white" stroke="white" stroke-width="1.2" stroke-miterlimit="10"/>
<path d="M523 9.64001V43.43H517.46V20.29L507.18 43.43H503.34L493 20.29V43.43H487.45V9.64001H493.45L505.32 36.14L517.1 9.64001H523Z" fill="white" stroke="white" stroke-width="1.2" stroke-miterlimit="10"/>
<path d="M132.22 26.9401H141.42V44.5901C138.944 46.4266 136.166 47.8143 133.21 48.6901C130.172 49.6319 127.011 50.114 123.83 50.1201C119.592 50.1896 115.405 49.196 111.65 47.2301C108.137 45.3963 105.199 42.6278 103.16 39.2301C101.088 35.7236 100.025 31.7125 100.09 27.6401C100.016 23.5507 101.079 19.521 103.16 16.0001C105.211 12.5907 108.172 9.82045 111.71 8.00005C115.509 6.04853 119.73 5.06283 124 5.13005C127.553 5.08086 131.08 5.73333 134.38 7.05005C137.394 8.26993 140.077 10.1854 142.21 12.6401L135.75 18.6401C134.327 17.0746 132.589 15.8278 130.65 14.9816C128.711 14.1354 126.615 13.7089 124.5 13.7301C121.93 13.6804 119.388 14.2788 117.11 15.4701C115.008 16.5951 113.273 18.2991 112.11 20.3801C110.882 22.6033 110.261 25.1107 110.31 27.6501C110.265 30.1699 110.886 32.657 112.11 34.8601C113.28 36.9433 115.013 38.6553 117.11 39.8001C119.351 41.008 121.865 41.6176 124.41 41.5701C127.134 41.6121 129.826 40.9728 132.24 39.7101L132.22 26.9401Z" fill="white"/>
<path d="M184.42 41.3V49.38H150.74V5.87H183.62V13.95H160.75V23.4H180.94V31.23H160.75V41.3H184.42Z" fill="white"/>
<path d="M201.45 14.07H187.53V5.87H225.44V14.07H211.52V49.38H201.45V14.07Z" fill="white"/>
<path d="M230.85 5.87H240.92V41.17H262.74V49.38H230.85V5.87Z" fill="white"/>
<path d="M302.07 41.3V49.38H268.39V5.87H301.27V13.95H278.39V23.4H298.59V31.23H278.39V41.3H302.07Z" fill="white"/>
<path d="M338.74 40.05H318.54L314.69 49.37H304.37L323.76 5.87H333.71L353.16 49.37H342.6L338.74 40.05ZM335.57 32.41L328.67 15.75L321.77 32.41H335.57Z" fill="white"/>
<path d="M357.7 5.86997H377.46C381.793 5.78123 386.087 6.70579 390 8.56997C393.486 10.252 396.418 12.896 398.45 16.19C400.499 19.6443 401.539 23.6044 401.45 27.62C401.539 31.6387 400.499 35.6019 398.45 39.06C396.417 42.3509 393.485 44.9915 390 46.67C386.09 48.5326 381.8 49.4571 377.47 49.37H357.7V5.86997ZM377 41.11C381.36 41.11 384.82 39.9 387.41 37.47C390 35.04 391.3 31.77 391.3 27.62C391.388 25.7961 391.087 23.9743 390.416 22.276C389.745 20.5776 388.72 19.0415 387.41 17.77C384.82 15.35 381.36 14.14 377 14.14H367.81V41.14L377 41.11Z" fill="white"/>
<path d="M111.164 67.3812C109.724 67.3812 108.344 67.9675 107.326 69.011C106.307 70.0545 105.736 71.4698 105.736 72.9456C105.736 74.4213 106.307 75.8366 107.326 76.8801C108.344 77.9237 109.724 78.5099 111.164 78.5099C112.775 78.4632 114.31 77.7933 115.459 76.6347L117 78.3978C115.408 80.0123 113.274 80.942 111.035 80.9965C109.987 81.0282 108.944 80.8433 107.968 80.4528C106.991 80.0623 106.102 79.4742 105.352 78.7236C104.602 77.9731 104.007 77.0754 103.603 76.0841C103.199 75.0929 102.994 74.0284 103 72.9541C103.006 71.8798 103.223 70.8178 103.638 69.8314C104.053 68.8449 104.658 67.9543 105.416 67.2126C106.174 66.4709 107.071 65.8933 108.051 65.5144C109.032 65.1354 110.077 64.9627 111.124 65.0067C113.311 65.0177 115.409 65.8939 116.98 67.4526L115.469 69.3889C114.925 68.7691 114.263 68.2689 113.525 67.9185C112.787 67.5682 111.987 67.375 111.174 67.3507" fill="#D1D3D4"/>
<path d="M133.971 72.604C134.05 74.202 133.649 75.7872 132.819 77.1546C131.99 78.5221 130.769 79.6089 129.315 80.2747C127.862 80.9405 126.242 81.1546 124.666 80.8893C123.089 80.624 121.629 79.8916 120.472 78.7867C119.316 77.6818 118.518 76.2552 118.18 74.6913C117.843 73.1274 117.981 71.4981 118.579 70.014C119.176 68.5299 120.204 67.2592 121.531 66.3663C122.857 65.4733 124.421 64.999 126.019 65.0048C127.045 64.9685 128.067 65.1374 129.026 65.5015C129.985 65.8657 130.862 66.4178 131.605 67.1256C132.349 67.8333 132.943 68.6824 133.354 69.6232C133.766 70.5639 133.985 71.5773 134 72.604M120.621 72.604C120.621 74.0344 121.189 75.4062 122.199 76.4176C123.21 77.4291 124.581 77.9973 126.01 77.9973C127.439 77.9973 128.809 77.4291 129.82 76.4176C130.83 75.4062 131.398 74.0344 131.398 72.604C131.398 71.1736 130.83 69.8018 129.82 68.7904C128.809 67.7789 127.439 67.2107 126.01 67.2107C124.581 67.2107 123.21 67.7789 122.199 68.7904C121.189 69.8018 120.621 71.1736 120.621 72.604Z" fill="#D1D3D4"/>
<path d="M139.675 65L148.325 75.7834V65H151V80H148.325L139.717 69.2456V80H137V65H139.675Z" fill="#D1D3D4"/>
<path d="M157.486 65L165.524 75.7834V65H168V80H165.524L157.525 69.2456V80H155V65H157.486Z" fill="#D1D3D4"/>
<path d="M181.762 65V67.2727H174.308V71.3443H180.987V73.588H174.308V77.7273H182V80H172V65H181.762Z" fill="#D1D3D4"/>
<path d="M192.164 67.3812C190.724 67.3812 189.344 67.9675 188.326 69.011C187.307 70.0545 186.736 71.4698 186.736 72.9456C186.736 74.4213 187.307 75.8366 188.326 76.8801C189.344 77.9237 190.724 78.5099 192.164 78.5099C193.775 78.4642 195.31 77.7941 196.459 76.6347L198 78.3978C196.409 80.0149 194.274 80.9451 192.035 80.9965C190.987 81.0282 189.944 80.8433 188.968 80.4528C187.991 80.0623 187.102 79.4742 186.352 78.7236C185.602 77.9731 185.007 77.0754 184.603 76.0841C184.199 75.0929 183.994 74.0284 184 72.9541C184.006 71.8798 184.223 70.8178 184.638 69.8314C185.053 68.8449 185.658 67.9543 186.416 67.2126C187.174 66.4709 188.071 65.8933 189.051 65.5144C190.032 65.1354 191.077 64.9627 192.124 65.0067C194.31 65.0198 196.408 65.8957 197.98 67.4526L196.459 69.3889C195.915 68.7691 195.253 68.2689 194.515 67.9185C193.777 67.5682 192.977 67.375 192.164 67.3507" fill="#D1D3D4"/>
<path d="M211 65V67.2727H206.25V80H203.73V67.2727H199V65H211Z" fill="#D1D3D4"/>
<path d="M241.995 79.5C242.012 79.6908 241.987 79.8829 241.919 80.0641C241.852 80.2453 241.745 80.4117 241.605 80.5527C241.464 80.6937 241.293 80.8062 241.103 80.8832C240.913 80.9602 240.708 81 240.5 81C240.292 81 240.087 80.9602 239.897 80.8832C239.707 80.8062 239.536 80.6937 239.395 80.5527C239.255 80.4117 239.148 80.2453 239.081 80.0641C239.013 79.8829 238.988 79.6908 239.005 79.5C238.988 79.3092 239.013 79.1171 239.081 78.9359C239.148 78.7547 239.255 78.5883 239.395 78.4473C239.536 78.3063 239.707 78.1938 239.897 78.1168C240.087 78.0398 240.292 78 240.5 78C240.708 78 240.913 78.0398 241.103 78.1168C241.293 78.1938 241.464 78.3063 241.605 78.4473C241.745 78.5883 241.852 78.7547 241.919 78.9359C241.987 79.1171 242.012 79.3092 241.995 79.5Z" fill="#D1D3D4"/>
<path d="M281.547 76.6151H273.391L271.837 80H269L276.134 65H278.929L286 80H283.09L281.547 76.6151ZM280.504 74.3617L277.479 67.6983L274.434 74.3617H280.504Z" fill="#D1D3D4"/>
<path d="M290.484 65L298.516 75.7834V65H301V80H298.516L290.532 69.2456V80H288V65H290.484Z" fill="#D1D3D4"/>
<path d="M314.036 76.6151H306.872L305.511 80H303L309.3 65H311.765L318 80H315.434L314.036 76.6151ZM313.116 74.3617L310.422 67.6983L307.792 74.3617H313.116Z" fill="#D1D3D4"/>
<path d="M322.808 65V77.7079H330V80H320V65H322.808Z" fill="#D1D3D4"/>
<path d="M338.334 75.0097V80H335.755V75.087L330 65H332.619L337.03 72.3017L341.361 65H344L338.334 75.0097Z" fill="#D1D3D4"/>
<path d="M351.261 67.471C349.755 67.471 348.78 68.053 348.78 69.1251C348.78 72.5865 357.02 70.7281 357 76.4257C357 79.254 354.598 81 351.241 81C348.934 80.9845 346.713 80.0906 345 78.4882L346.112 76.1806C347.507 77.5633 349.334 78.382 351.261 78.4882C353.052 78.4882 354.125 77.7837 354.125 76.5584C354.125 73.0357 345.876 75.0064 345.876 69.411C345.876 66.695 348.121 65 351.438 65C353.332 65.003 355.187 65.5662 356.783 66.6235L355.71 68.9821C354.38 68.0839 352.846 67.5629 351.261 67.471Z" fill="#D1D3D4"/>
<path d="M370.738 65V67.2727H362.532V71.3443H369.884V73.588H362.532V77.7273H371V80H360V65H370.738Z" fill="#D1D3D4"/>
<path d="M401.996 79.5C402.008 79.6908 401.991 79.8829 401.946 80.0641C401.902 80.2453 401.83 80.4117 401.736 80.5527C401.643 80.6937 401.529 80.8062 401.402 80.8832C401.275 80.9602 401.138 81 401 81C400.862 81 400.725 80.9602 400.598 80.8832C400.471 80.8062 400.357 80.6937 400.264 80.5527C400.17 80.4117 400.098 80.2453 400.054 80.0641C400.009 79.8829 399.992 79.6908 400.004 79.5C399.992 79.3092 400.009 79.1171 400.054 78.9359C400.098 78.7547 400.17 78.5883 400.264 78.4473C400.357 78.3063 400.471 78.1938 400.598 78.1168C400.725 78.0398 400.862 78 401 78C401.138 78 401.275 78.0398 401.402 78.1168C401.529 78.1938 401.643 78.3063 401.736 78.4473C401.83 78.5883 401.902 78.7547 401.946 78.9359C401.991 79.1171 402.008 79.3092 401.996 79.5Z" fill="#D1D3D4"/>
<path d="M432.154 67.3812C430.714 67.3812 429.334 67.9675 428.316 69.011C427.298 70.0545 426.726 71.4698 426.726 72.9456C426.726 74.4213 427.298 75.8366 428.316 76.8801C429.334 77.9237 430.714 78.5099 432.154 78.5099C433.776 78.4739 435.324 77.803 436.479 76.6347L438 78.3978C436.408 80.0123 434.274 80.942 432.035 80.9965C430.987 81.0282 429.944 80.8433 428.968 80.4528C427.991 80.0623 427.102 79.4742 426.352 78.7236C425.602 77.9731 425.007 77.0754 424.603 76.0841C424.199 75.0929 423.994 74.0284 424 72.9541C424.006 71.8798 424.223 70.8178 424.638 69.8314C425.053 68.8449 425.658 67.9543 426.416 67.2126C427.174 66.4709 428.071 65.8933 429.051 65.5144C430.032 65.1354 431.077 64.9627 432.124 65.0067C434.311 65.0177 436.409 65.8939 437.98 67.4526L436.479 69.3889C435.936 68.7668 435.276 68.265 434.537 67.9145C433.798 67.5639 432.998 67.3721 432.184 67.3507" fill="#D1D3D4"/>
<path d="M454.99 72.604C455.07 74.2007 454.669 75.7847 453.839 77.1515C453.01 78.5183 451.789 79.6051 450.336 80.2717C448.882 80.9383 447.262 81.154 445.684 80.8911C444.107 80.6282 442.645 79.8987 441.486 78.7968C440.327 77.6948 439.526 76.271 439.184 74.7091C438.843 73.1472 438.978 71.5189 439.571 70.0343C440.165 68.5497 441.19 67.2771 442.514 66.3806C443.838 65.4841 445.401 65.0049 447 65.0048C448.026 64.9685 449.05 65.1374 450.01 65.5015C450.97 65.8657 451.848 66.4178 452.593 67.1256C453.337 67.8333 453.932 68.6824 454.344 69.6232C454.755 70.5639 454.975 71.5773 454.99 72.604ZM441.595 72.604C441.595 74.0344 442.164 75.4062 443.175 76.4176C444.187 77.429 445.559 77.9973 446.99 77.9973C448.421 77.9973 449.793 77.429 450.805 76.4176C451.817 75.4062 452.385 74.0344 452.385 72.604C452.385 71.1736 451.817 69.8018 450.805 68.7904C449.793 67.7789 448.421 67.2107 446.99 67.2107C445.559 67.2107 444.187 67.7789 443.175 68.7904C442.164 69.8018 441.595 71.1736 441.595 72.604Z" fill="#D1D3D4"/>
<path d="M460.484 65L468.516 75.7834V65H471V80H468.516L460.523 69.2456V80H458V65H460.484Z" fill="#D1D3D4"/>
<path d="M475.782 65L480.515 77.1954L485.307 65H488L481.792 80H479.119L473 65H475.782Z" fill="#D1D3D4"/>
<path d="M500.738 65V67.2727H492.539V71.3443H499.885V73.588H492.539V77.7273H501V80H490V65H500.738Z" fill="#D1D3D4"/>
<path d="M513.963 80L511.087 75.4545C510.864 75.4545 510.611 75.4545 510.368 75.4545H506.643V79.9807H504V65H510.368C514.418 65 516.696 66.8665 516.696 70.1161C516.767 71.1481 516.49 72.1747 515.905 73.045C515.32 73.9153 514.458 74.5836 513.446 74.9516L517 80H513.963ZM510.368 73.2302C512.788 73.2302 514.185 72.2631 514.185 70.2031C514.185 68.1431 512.788 67.3017 510.368 67.3017H506.643V73.2398L510.368 73.2302Z" fill="#D1D3D4"/>
<path d="M531 65V67.2727H525.854V80H523.125V67.2727H518V65H531Z" fill="#D1D3D4"/>
</g>
<defs>
<clipPath id="clip0_95_431">
<rect width="533.78" height="85.64" fill="white"/>
</clipPath>
</defs>
</svg>
