<svg width="15" height="17" viewBox="0 0 15 17" fill="none" xmlns="http://www.w3.org/2000/svg">
<path d="M13.3625 12.151V8.02093C12.9654 8.10035 12.5682 8.17977 12.1711 8.17977H11.774V12.9453H3.83153V7.38553C3.83153 5.16164 5.57887 3.41429 7.80276 3.41429C7.88219 2.38177 8.35874 1.5081 8.99413 0.793278C8.75586 0.475579 8.27931 0.237305 7.80276 0.237305C6.92909 0.237305 6.21427 0.952127 6.21427 1.8258V2.06407C3.83153 2.7789 2.24304 4.92336 2.24304 7.38553V12.151L0.654541 13.7395V14.5338H14.951V13.7395L13.3625 12.151ZM6.21427 15.328C6.21427 16.2017 6.92909 16.9165 7.80276 16.9165C8.67644 16.9165 9.39126 16.2017 9.39126 15.328H6.21427Z" fill="#444444"/>
<path d="M2.24328 12.151V8.02093C2.6404 8.10035 3.03753 8.17977 3.43465 8.17977H3.83177V12.9453H11.7742V7.38553C11.7742 5.16164 10.0269 3.41429 7.80301 3.41429C7.72358 2.38177 7.24704 1.5081 6.61164 0.793278C6.84991 0.475579 7.32646 0.237305 7.80301 0.237305C8.67668 0.237305 9.3915 0.952127 9.3915 1.8258V2.06407C11.7742 2.7789 13.3627 4.92336 13.3627 7.38553V12.151L14.9512 13.7395V14.5338H0.654786V13.7395L2.24328 12.151ZM9.3915 15.328C9.3915 16.2017 8.67668 16.9165 7.80301 16.9165C6.92934 16.9165 6.21452 16.2017 6.21452 15.328H9.3915Z" fill="#444444"/>
</svg>
