<svg xmlns="http://www.w3.org/2000/svg" viewBox="0 0 113.75 113.74"><defs><style>.cls-1{fill:#fff;}.cls-2{fill:#e41e26;}</style></defs><g id="Layer_2" data-name="Layer 2"><g id="Layer_1-2" data-name="Layer 1"><path class="cls-1" d="M113.74,57.21v-.32c0-.26,0-.51,0-.77s0-.74,0-1.11V55c0-.25,0-.5,0-.75a1.69,1.69,0,0,0,0-.23c0-.36,0-.72-.07-1.07s-.06-.77-.09-1.15c-.06-.64-.13-1.27-.21-1.9,0-.22,0-.44-.08-.66-.09-.64-.19-1.27-.3-1.91l0-.22c0-.14,0-.28-.07-.42s-.06-.25-.08-.38v0c0-.18-.06-.36-.1-.53-.06-.34-.14-.67-.21-1h0c0-.15,0-.3-.09-.45l-.06-.28c0-.17-.09-.33-.13-.5s-.09-.39-.14-.59-.11-.4-.16-.6l-.18-.7-.09-.28c0-.2-.11-.39-.17-.59s-.13-.42-.19-.64,0-.16-.08-.24c-.09-.29-.17-.57-.27-.85,0-.11-.07-.22-.11-.33s-.15-.44-.23-.65-.1-.3-.16-.44c-.13-.38-.26-.75-.41-1.12,0-.14-.1-.27-.16-.41s-.19-.46-.28-.7l-.12-.27L108.93,34c-.08-.17-.16-.35-.23-.52s-.22-.45-.32-.67l-.09-.2v0c-.15-.32-.31-.64-.47-1l-.33-.66-.18-.34a.3.3,0,0,0,0-.08l-.13-.23-.26-.52h0l-.14-.25-.29-.55c-.09-.16-.18-.32-.28-.48s-.25-.42-.38-.64l-.41-.67c-.15-.26-.3-.51-.46-.76l-.19-.3-.39-.58-.56-.85-.14-.21-.38-.53,0,0-.09-.12c-.06-.08-.11-.16-.17-.23-.45-.62-.9-1.23-1.37-1.83l-.27-.34-.86-1.05h0c-.08-.09-.16-.17-.23-.26s-.26-.31-.4-.46c-.41-.48-.83-.94-1.26-1.41l-.45-.48c-.47-.49-.95-1-1.43-1.45h0l0,0-.73-.71c-.37-.35-.75-.69-1.13-1l-.35-.32-.27-.24-.36-.29-.06-.06-.28-.23-.11-.09c-.19-.17-.39-.33-.59-.49l-.56-.46-.15-.12-.27-.2-.46-.36-.4-.3c-.45-.34-.9-.67-1.36-1l0,0-.36-.24-.6-.41c-.42-.28-.83-.56-1.25-.82l-.16-.1-.27-.17-.75-.46c-.37-.22-.74-.44-1.12-.65l-.4-.22L84.28,7l-.64-.34-1-.5L82,5.88l-.7-.35-.44-.2-.6-.28-.56-.25-.47-.2-.55-.23-.67-.28,0,0L77.89,4,77.73,4,77,3.67l-1.39-.5-.11,0L75,3l-.34-.12-.81-.25,0,0-1.07-.33-.46-.13L71.83,2l-1.38-.35-.28-.08-.61-.14-.06,0-.12,0c-.57-.13-1.15-.25-1.73-.36L67.43,1,66.75.86l-.25,0c-.38-.06-.77-.13-1.16-.18l-.7-.11L63.92.44l-.15,0h-.06L62.54.28,61.83.21l-.75,0H61l-.7,0C59.84.08,59.43.05,59,0l-.78,0H58L56.22,0l-.58,0H55L53.44.1,53,.14h-.18L52,.22l-.33,0-.52,0-.23,0-.58.07L49.1.54l-.79.11-.52.08L46.32,1l-.84.16-.23.05-1.68.38-.77.19c-.59.15-1.16.31-1.74.48l-.11,0-.06,0-.7.2q-.6.18-1.2.39l-.4.13h0l-.46.15-.53.19-1,.38L36,4l-.64.25L35,4.37l-.07,0h0l-.57.25-.05,0-.12,0L33.49,5l-.81.37-.22.11-.65.32,0,0L31.53,6,31,6.21l-.88.47c-.28.14-.55.3-.82.45l-.39.21-.32.18L27.77,8l-.85.52-.5.32h0L26.26,9l-.77.5-.57.37h0l-.58.42-.07,0-.71.5,0,0-.33.25c-.21.14-.41.3-.61.45l-1,.75-.5.39-.84.7-.07.06-.64.55-.22.19-.32.29c-.26.22-.51.45-.76.68l-.2.19-.7.66-.29.28-.85.86c-.29.29-.56.58-.84.87l-.08.09c-.35.37-.69.75-1,1.13l-.62.72c-.42.48-.81,1-1.21,1.46-.15.19-.31.38-.46.58-.42.54-.82,1.09-1.22,1.64l-.37.51c-.18.25-.36.5-.53.76a2.13,2.13,0,0,0-.16.25c-.1.14-.19.29-.29.44l-.34.51-.2.3-.22.35h0l-.07.11c-.14.23-.29.46-.43.7s-.32.55-.48.82l-.19.33c-.12.2-.23.4-.34.6s-.33.6-.49.91-.37.7-.55,1c-.06.13-.13.26-.2.4l0,.07-.46,1c-.19.4-.37.8-.55,1.21l-.09.21-.09.2L4.36,35,4,35.88,4,36c0,.06-.05.13-.08.2s-.14.35-.2.52l-.1.24h0l-.12.32s0,.09,0,.13c-.16.45-.32.89-.47,1.33,0,0,0,.11,0,.16v0l-.18.56c0,.09-.06.18-.08.26L2.57,40c0,.11-.08.22-.11.33s-.14.48-.2.71-.07.21-.1.32L2,42l-.12.45-.06.25-.15.6c0,.13-.07.25-.09.38l-.06.23,0,.12c-.08.35-.15.7-.23,1l0,.18s0,.11,0,.17L1.05,46,1,46.36c0,.13-.05.26-.08.39L.73,47.82a2.51,2.51,0,0,1,0,.27s0,.07,0,.11l-.06.37c0,.18-.06.36-.08.54a.25.25,0,0,0,0,.08c0,.1,0,.21,0,.31l-.12.94c0,.16,0,.31,0,.47l0,.23c0,.22,0,.45-.07.68,0,.07,0,.14,0,.22s0,.13,0,.19v.09l-.06.94a1.09,1.09,0,0,0,0,.18c0,.21,0,.41,0,.61l0,.49c0,.21,0,.42,0,.64s0,.35,0,.53,0,.53,0,.79,0,.5,0,.75,0,.58,0,.86v.12c0,.12,0,.24,0,.37v.17H0l0,.76c0,.39,0,.77.07,1.16s.07,1,.12,1.48.09.91.14,1.37.13,1,.21,1.55c0,.3.08.6.13.89s.1.61.16.91v0s0,.1,0,.14l0,.12c.07.33.13.67.19,1l.12.55c.08.38.17.77.26,1.16v0c.08.34.17.67.25,1l.06.24.24.89a2.45,2.45,0,0,1,.08.29c0,.16.1.32.14.49s.19.61.29.92a1,1,0,0,0,.05.16c.1.31.19.62.29.93v0a1.12,1.12,0,0,1,.05.13c.09.28.2.56.29.84s.29.8.45,1.2c.07.19.13.37.2.55s.19.47.29.7c.16.41.34.81.51,1.22.1.22.19.44.29.65.16.36.33.72.5,1.07l0,0,0,.06.24.51.09.18,0,.11.27.55c.16.31.33.62.5.93l.25.46.15.28.21.39.23.39c.07.14.15.27.23.41l0,.05c.06.1.13.2.19.31l.28.46.24.4.32.51.15.24c.08.12.16.24.23.36l.15.21,0,0c.1.15.19.3.29.44l.35.52.44.63.07.09c.08.11.15.22.23.32l.08.11c.27.37.54.74.82,1.1l.54.7c0,.06.1.13.16.19.33.43.68.85,1,1.26.18.23.37.45.56.66l0,.06,0,0c.38.43.77.86,1.16,1.28.2.21.39.42.59.62s.62.65.94,1l.05,0,.24.23c.05.06.11.11.16.16l.57.55h0l.09.09c.13.11.24.23.37.35h0l.26.23.43.39.46.42.34.29c.32.28.65.55,1,.82s.67.56,1,.83.81.62,1.22.93l.92.68,1.45,1c.26.16.5.34.76.5s.83.52,1.24.77h0l.67.4.38.23.35.19c.58.33,1.16.65,1.75,1l.21.11.29.15.09,0,.5.25,1,.47.5.24h0l.43.2,1,.45.81.34.57.24.09,0c.58.23,1.18.45,1.77.66l.64.23.27.1,1.16.37.6.18.24.07.28.09.45.14,1.26.32.72.19.2,0,.22.06h0l.11,0,.25,0,.24.06.53.1.7.15.11,0c.2,0,.4.09.6.12l.62.12.14,0,.08,0,.44.06.15,0,.88.14.5.07.63.08.38,0,.42,0,.35,0H51l1,.1.51,0h.1l.34,0,1.15.07.73,0h.27c.56,0,1.13,0,1.69,0,.2,0,.4,0,.61,0,.77,0,1.55,0,2.34-.07h.11l.51,0c.72,0,1.44-.1,2.16-.17h.06l.29,0h0c.7-.08,1.39-.17,2.09-.27l.62-.09.15,0,1.38-.23h.06l.3-.06,1-.2h0l.08,0,1.33-.29.16,0h0l1.26-.32h0l.43-.12.29-.08.14,0,.6-.16,1.68-.53.62-.2.29-.09.17-.07c.34-.11.67-.24,1-.36l.37-.14.31-.12.72-.27.21-.09.19-.07.57-.24.83-.37,1.24-.55.26-.13c.39-.18.77-.37,1.15-.57l1-.52c.37-.19.73-.39,1.09-.6l.34-.19.19-.1.67-.39c.67-.39,1.32-.8,2-1.21l.28-.18.52-.34.31-.22.5-.35.17-.12,1.14-.81.76-.58.58-.45.43-.33h0l.17-.15c.31-.24.61-.49.91-.74l.87-.76.3-.26.83-.75c.34-.31.67-.63,1-1l.06-.06.23-.22.63-.63c.5-.52,1-1,1.48-1.57l.37-.41c.44-.48.86-1,1.27-1.47h0c.31-.37.6-.73.89-1.1l.21-.26c.44-.56.87-1.14,1.29-1.73l.13-.18c.14-.19.28-.39.41-.59l.36-.5c.08-.13.17-.26.26-.39l.3-.46.26-.39.41-.66,0,0v0c.18-.28.36-.56.53-.84l.18-.31a1.4,1.4,0,0,1,.1-.16l.21-.37.22-.38,0-.09c.05-.1.11-.19.16-.28.18-.34.37-.67.54-1l.21-.4a2.44,2.44,0,0,0,.14-.28l.15-.28c0-.08.09-.17.13-.26s.05-.09.07-.14l.48-1,.3-.67s0-.09.07-.14l.09-.21c.06-.12.11-.23.16-.35l.09-.21c.12-.26.24-.53.35-.8s.28-.69.42-1l0-.06h0c0-.14.11-.27.16-.4l.11-.3.07-.19c.06-.15.12-.29.17-.44.16-.42.3-.84.44-1.26,0-.13.09-.26.13-.38s.07-.22.11-.33q.29-.88.54-1.77l0-.11v0c0-.13.09-.26.12-.39l.11-.38c.11-.41.21-.83.31-1.24.07-.26.13-.52.19-.79s.12-.47.17-.71l0-.15h0s0-.06,0-.08l.09-.39.18-1,.06-.29,0-.1.15-.83a2.51,2.51,0,0,1,0-.27c0-.1,0-.19,0-.29.08-.5.16-1,.22-1.52,0-.22.06-.44.08-.66q.09-.69.15-1.38c0-.14,0-.27,0-.4s0-.46,0-.69a.86.86,0,0,0,0-.16c0-.53.07-1.06.1-1.6,0-.15,0-.31,0-.46s0-.41,0-.62v-.07c0-.19,0-.37,0-.55h0C113.75,57.46,113.74,57.34,113.74,57.21Z"/><path class="cls-2" d="M68.47,112.54A56.86,56.86,0,1,1,97.6,17.16L56.68,57.07,37.1,37,30,37.82,29.15,45l27.32,28,48.22-47a56.05,56.05,0,0,1,7.85,19.2,56.86,56.86,0,0,1-44.07,67.27"/></g></g></svg>