<svg width="150" height="32" viewBox="0 0 150 32" fill="none" xmlns="http://www.w3.org/2000/svg">
<g clip-path="url(#clip0_202_139)">
<path d="M15.8009 25.2342C9.02864 26.6414 2.41035 22.3099 1.00314 15.5377C-0.404075 8.78744 3.9275 2.16914 10.6997 0.761931C15.0313 -0.139564 19.3189 1.31162 22.1993 4.27996L13.2063 13.053L8.89672 8.63352L7.33559 8.80942L7.1377 10.3925L13.1403 16.5491L23.7384 6.21488C24.552 7.46818 25.1456 8.89738 25.4754 10.4365C26.8826 17.2087 22.5511 23.827 15.8009 25.2342Z" fill="#E41E26"/>
</g>
<g clip-path="url(#clip1_202_139)">
<path d="M41.8695 12.5552H45.5728V19.8926C44.6232 20.6288 43.5312 21.1933 42.273 21.5859C41.0148 21.9785 39.7804 22.1748 38.4985 22.1748C36.6943 22.1748 35.0562 21.7822 33.6081 20.9724C32.1838 20.1871 31.0443 19.0583 30.2134 17.6595C29.3825 16.2362 28.9789 14.6166 28.9789 12.8497C28.9789 11.0583 29.3825 9.46319 30.2134 8.03988C31.0443 6.61656 32.1838 5.51227 33.6556 4.70245C35.1037 3.89264 36.7655 3.5 38.5934 3.5C40.1127 3.5 41.5134 3.76994 42.7478 4.30982C44.006 4.84969 45.0506 5.61043 45.8814 6.6411L43.2938 9.09509C42.0356 7.7454 40.5401 7.05828 38.7833 7.05828C37.6676 7.05828 36.6705 7.30368 35.8159 7.76994C34.9613 8.26074 34.2728 8.92331 33.7981 9.80675C33.3233 10.6902 33.0859 11.6963 33.0859 12.8252C33.0859 13.954 33.3233 14.9356 33.7981 15.819C34.2728 16.7025 34.9613 17.3896 35.8159 17.8804C36.6705 18.3712 37.6438 18.6166 38.7596 18.6166C39.9228 18.6166 40.9674 18.3466 41.8932 17.8313V12.5552H41.8695Z" fill="#231916"/>
<path d="M62.8314 18.5184V21.8804H49.2999V3.81902H62.4991V7.18098H53.3119V11.1074H61.4308V14.3466H53.3119V18.5184H62.8314Z" fill="#231916"/>
<path d="M69.6684 7.20552H64.0896V3.81902H79.3066V7.23006H73.7278V21.8804H69.6921V7.20552H69.6684Z" fill="#231916"/>
<path d="M81.4906 3.81902H85.5263V18.4693H94.2862V21.8804H81.4906V3.81902Z" fill="#E41E26"/>
<path d="M110.073 18.5184V21.8804H96.5414V3.81902H109.741V7.18098H100.553V11.1074H108.672V14.3466H100.553V18.5184H110.073Z" fill="#E41E26"/>
<path d="M124.815 18.0031H116.696L115.153 21.8558H110.999L118.785 3.79448H122.773L130.584 21.8558H126.334L124.815 18.0031ZM123.533 14.8129L120.756 7.91718L118.002 14.8129H123.533Z" fill="#E41E26"/>
<path d="M132.412 3.81902H140.341C142.24 3.81902 143.902 4.18711 145.373 4.94785C146.822 5.70859 147.961 6.73926 148.768 8.11349C149.575 9.46319 149.979 11.0583 149.979 12.8497C149.979 14.6411 149.575 16.2362 148.768 17.5859C147.961 18.9356 146.822 19.9908 145.373 20.7515C143.925 21.5123 142.24 21.8804 140.341 21.8804H132.412V3.81902ZM140.151 18.4448C141.908 18.4448 143.284 17.954 144.329 16.9479C145.373 15.9417 145.896 14.5675 145.896 12.8497C145.896 11.1319 145.373 9.75767 144.329 8.75153C143.284 7.7454 141.908 7.2546 140.151 7.2546H136.447V18.4448H140.151Z" fill="#E41E26"/>
</g>
<defs>
<clipPath id="clip0_202_139">
<rect width="25" height="25" fill="white" transform="translate(0.739441 0.49826)"/>
</clipPath>
<clipPath id="clip1_202_139">
<rect width="121" height="28" fill="white" transform="translate(28.9789 3.5)"/>
</clipPath>
</defs>
</svg>
