<svg width="14" height="17" viewBox="0 0 14 17" fill="none" xmlns="http://www.w3.org/2000/svg">
<path d="M12.3224 11.9215V7.96774C11.9422 8.04378 11.562 8.11981 11.1819 8.11981H10.8017V12.6819H3.19824V7.35947C3.19824 5.2305 4.871 3.55774 6.99997 3.55774C7.076 2.56929 7.53221 1.73291 8.14049 1.0486C7.91238 0.744461 7.45618 0.516357 6.99997 0.516357C6.16359 0.516357 5.47928 1.20067 5.47928 2.03705V2.26515C3.19824 2.94946 1.67755 5.0024 1.67755 7.35947V11.9215L0.15686 13.4422V14.2026H13.8431V13.4422L12.3224 11.9215ZM5.47928 14.9629C5.47928 15.7993 6.16359 16.4836 6.99997 16.4836C7.83635 16.4836 8.52066 15.7993 8.52066 14.9629H5.47928Z" fill="#444444"/>
<path d="M11.1818 6.59912C12.6265 6.59912 13.843 5.38257 13.843 3.93791C13.843 2.49326 12.6265 1.2767 11.1818 1.2767C9.73718 1.2767 8.52063 2.49326 8.52063 3.93791C8.52063 5.38257 9.73718 6.59912 11.1818 6.59912Z" fill="#FF4B4B"/>
</svg>
