<svg width="27" height="29" viewBox="0 0 27 29" fill="none" xmlns="http://www.w3.org/2000/svg">
<path d="M13.5 11.6C15.965 11.6 17.937 9.6425 17.937 7.25C17.937 4.8575 15.965 2.9 13.5 2.9C11.035 2.9 9.06301 4.8575 9.06301 7.25C9.06301 9.6425 11.035 11.6 13.5 11.6ZM13.5 14.5C9.44001 14.5 6.16301 11.252 6.16301 7.25C6.16301 3.248 9.44001 0 13.5 0C17.56 0 20.837 3.248 20.837 7.25C20.837 11.252 17.56 14.5 13.5 14.5ZM3.35001 26.1H23.65V24.1715C23.65 21.634 20.3005 19.0095 13.5 19.0095C6.69951 19.0095 3.35001 21.634 3.35001 24.1715V26.1ZM13.5 16.1095C23.157 16.1095 26.55 20.938 26.55 24.1715V29H0.450012V24.1715C0.450012 20.938 3.84301 16.1095 13.5 16.1095Z" fill="#444444"/>
</svg>
