<svg width="21" height="20" viewBox="0 0 21 20" fill="none" xmlns="http://www.w3.org/2000/svg">
<path d="M10.8613 18.75C8.54068 18.75 6.31509 17.8281 4.67414 16.1872C3.0332 14.5462 2.11133 12.3206 2.11133 10C2.11133 7.67936 3.0332 5.45376 4.67414 3.81282C6.31509 2.17187 8.54068 1.25 10.8613 1.25C13.182 1.25 15.4076 2.17187 17.0485 3.81282C18.6895 5.45376 19.6113 7.67936 19.6113 10C19.6113 12.3206 18.6895 14.5462 17.0485 16.1872C15.4076 17.8281 13.182 18.75 10.8613 18.75ZM10.8613 20C13.5135 20 16.057 18.9464 17.9324 17.0711C19.8078 15.1957 20.8613 12.6522 20.8613 10C20.8613 7.34784 19.8078 4.8043 17.9324 2.92893C16.057 1.05357 13.5135 0 10.8613 0C8.20916 0 5.66562 1.05357 3.79026 2.92893C1.9149 4.8043 0.861328 7.34784 0.861328 10C0.861328 12.6522 1.9149 15.1957 3.79026 17.0711C5.66562 18.9464 8.20916 20 10.8613 20Z" fill="#444444"/>
<path d="M7.43008 7.2325C7.42836 7.27287 7.43493 7.31316 7.44936 7.3509C7.4638 7.38863 7.4858 7.42302 7.51402 7.45194C7.54224 7.48085 7.57607 7.5037 7.61344 7.51906C7.65081 7.53442 7.69093 7.54197 7.73133 7.54125H8.76258C8.93508 7.54125 9.07258 7.4 9.09508 7.22875C9.20758 6.40875 9.77008 5.81125 10.7726 5.81125C11.6301 5.81125 12.4151 6.24 12.4151 7.27125C12.4151 8.065 11.9476 8.43 11.2088 8.985C10.3676 9.59625 9.70133 10.31 9.74883 11.4688L9.75258 11.74C9.75389 11.822 9.78739 11.9002 9.84585 11.9577C9.90432 12.0153 9.98305 12.0475 10.0651 12.0475H11.0788C11.1617 12.0475 11.2412 12.0146 11.2998 11.956C11.3584 11.8974 11.3913 11.8179 11.3913 11.735V11.6038C11.3913 10.7063 11.7326 10.445 12.6538 9.74625C13.4151 9.1675 14.2088 8.525 14.2088 7.17625C14.2088 5.2875 12.6138 4.375 10.8676 4.375C9.28383 4.375 7.54883 5.1125 7.43008 7.2325ZM9.37633 14.4362C9.37633 15.1025 9.90758 15.595 10.6388 15.595C11.4001 15.595 11.9238 15.1025 11.9238 14.4362C11.9238 13.7463 11.3988 13.2613 10.6376 13.2613C9.90758 13.2613 9.37633 13.7463 9.37633 14.4362Z" fill="#444444"/>
</svg>
