<svg width="23" height="22" viewBox="0 0 23 22" fill="none" xmlns="http://www.w3.org/2000/svg">
<path d="M13.5711 21.7698C11.7404 22.1585 9.84221 22.0536 8.06328 21.4654C6.28435 20.8773 4.68603 19.8261 3.42563 18.4154C2.16522 17.0047 1.28619 15.2831 0.875048 13.42C0.463905 11.5569 0.534824 9.61655 1.08082 7.78995C1.62682 5.96336 2.62908 4.31346 3.98895 3.00266C5.34883 1.69186 7.01944 0.765346 8.83635 0.314301C10.6533 -0.136745 12.5538 -0.0967717 14.351 0.43029C16.1482 0.957351 17.7801 1.95333 19.086 3.3202L11.339 11.0388L7.63223 7.15722L6.27923 7.31644L6.12335 8.71114L11.2984 14.1244L20.4296 5.03333C21.1469 6.16693 21.6512 7.4271 21.9167 8.74935C22.2056 10.1634 22.2188 11.6217 21.9557 13.041C21.6926 14.4603 21.1583 15.8127 20.3832 17.021C19.6082 18.2293 18.6077 19.2697 17.4388 20.0829C16.27 20.8961 14.9557 21.466 13.5711 21.7602" fill="#DE6165"/>
</svg>
