<svg width="18" height="8" viewBox="0 0 18 8" fill="none" xmlns="http://www.w3.org/2000/svg">
<path d="M3.33252 3.55322H0.234863V2.59473H3.33252V3.55322ZM6.92529 3.55322H3.82764V2.59473H6.92529V3.55322ZM8.03613 6.38428C8.03613 6.18115 8.09538 6.01188 8.21387 5.87646C8.33659 5.74105 8.51855 5.67334 8.75977 5.67334C9.00098 5.67334 9.18294 5.74105 9.30566 5.87646C9.43262 6.01188 9.49609 6.18115 9.49609 6.38428C9.49609 6.57894 9.43262 6.74186 9.30566 6.87305C9.18294 7.00423 9.00098 7.06982 8.75977 7.06982C8.51855 7.06982 8.33659 7.00423 8.21387 6.87305C8.09538 6.74186 8.03613 6.57894 8.03613 6.38428ZM8.04248 0.779297C8.04248 0.576172 8.10173 0.406901 8.22021 0.271484C8.34294 0.136068 8.5249 0.0683594 8.76611 0.0683594C9.00732 0.0683594 9.18929 0.136068 9.31201 0.271484C9.43896 0.406901 9.50244 0.576172 9.50244 0.779297C9.50244 0.973958 9.43896 1.13688 9.31201 1.26807C9.18929 1.39925 9.00732 1.46484 8.76611 1.46484C8.5249 1.46484 8.34294 1.39925 8.22021 1.26807C8.10173 1.13688 8.04248 0.973958 8.04248 0.779297ZM13.6665 3.55322H10.5688V2.59473H13.6665V3.55322ZM17.2593 3.55322H14.1616V2.59473H17.2593V3.55322Z" fill="#3A3D4B"/>
</svg>
