<svg width="22" height="22" viewBox="0 0 22 22" fill="none" xmlns="http://www.w3.org/2000/svg">
<path d="M14.6287 10.5688L10.0605 7.24802C9.8928 7.12649 9.67025 7.10819 9.4865 7.20263C9.30128 7.29634 9.18561 7.48668 9.18561 7.69239V14.3317C9.18561 14.5396 9.30128 14.7292 9.4865 14.8229C9.56483 14.8625 9.65048 14.8822 9.73687 14.8822C9.84961 14.8822 9.96382 14.8464 10.0605 14.7754L14.6287 11.4575C14.7729 11.3514 14.8571 11.1874 14.8571 11.0131C14.8578 10.836 14.7714 10.6727 14.6287 10.5688Z" fill="#95A6BD"/>
<path d="M11.0004 0.000976562C4.92403 0.000976562 0 4.925 0 11.0013C0 17.0755 4.92403 21.998 11.0004 21.998C17.0752 21.998 22 17.0747 22 11.0013C22.0007 4.925 17.0752 0.000976562 11.0004 0.000976562ZM11.0004 20.1627C5.94017 20.1627 1.83754 16.0623 1.83754 11.0013C1.83754 5.94261 5.94017 1.83705 11.0004 1.83705C16.0598 1.83705 20.1617 5.94188 20.1617 11.0013C20.1625 16.0623 16.0598 20.1627 11.0004 20.1627Z" fill="#95A6BD"/>
</svg>
