<svg width="18" height="20" viewBox="0 0 18 20" fill="none" xmlns="http://www.w3.org/2000/svg">
<g clip-path="url(#clip0)">
<path d="M15.3677 10.6279H14.02C14.1574 11.0287 14.2324 11.4613 14.2324 11.9121V17.3403C14.2324 17.5282 14.2017 17.7087 14.1459 17.8765H16.3739C17.2062 17.8765 17.8833 17.1549 17.8833 16.2679V13.3088C17.8833 11.8306 16.7548 10.6279 15.3677 10.6279Z" fill="white"/>
<path d="M4.10764 11.9121C4.10764 11.4613 4.18269 11.0287 4.32006 10.6279H2.97238C1.58528 10.6279 0.456787 11.8306 0.456787 13.3088V16.268C0.456787 17.1549 1.13386 17.8765 1.96614 17.8765H4.1942C4.13834 17.7086 4.10764 17.5282 4.10764 17.3403V11.9121Z" fill="white"/>
<path d="M10.7103 9.23145H7.62936C6.24226 9.23145 5.11377 10.4341 5.11377 11.9123V17.3405C5.11377 17.6366 5.33902 17.8767 5.61689 17.8767H12.7228C13.0007 17.8767 13.2259 17.6366 13.2259 17.3405V11.9123C13.2259 10.4341 12.0974 9.23145 10.7103 9.23145Z" fill="white"/>
<path d="M9.16984 2.12305C7.50167 2.12305 6.14453 3.56937 6.14453 5.34719C6.14453 6.55307 6.76905 7.60624 7.69136 8.15917C8.12882 8.42142 8.63316 8.5713 9.16984 8.5713C9.70651 8.5713 10.2109 8.42142 10.6483 8.15917C11.5707 7.60624 12.1951 6.55303 12.1951 5.34719C12.1951 3.56941 10.838 2.12305 9.16984 2.12305Z" fill="white"/>
<path d="M3.8575 5.12793C2.60992 5.12793 1.59497 6.20957 1.59497 7.53914C1.59497 8.8687 2.60992 9.95035 3.8575 9.95035C4.17397 9.95035 4.47532 9.88048 4.74907 9.75491C5.22238 9.53775 5.61263 9.15333 5.85412 8.67182C6.02361 8.33387 6.12004 7.94833 6.12004 7.53914C6.12004 6.20961 5.10509 5.12793 3.8575 5.12793Z" fill="white"/>
<path d="M14.4825 5.12793C13.2349 5.12793 12.22 6.20957 12.22 7.53914C12.22 7.94836 12.3164 8.3339 12.4859 8.67182C12.7274 9.15337 13.1176 9.53778 13.5909 9.75491C13.8647 9.88048 14.166 9.95035 14.4825 9.95035C15.7301 9.95035 16.745 8.8687 16.745 7.53914C16.745 6.20957 15.7301 5.12793 14.4825 5.12793Z" fill="white"/>
</g>
<defs>
<clipPath id="clip0">
<rect width="17.4263" height="18.5714" fill="white" transform="translate(0.456787 0.713867)"/>
</clipPath>
</defs>
</svg>
