<svg width="16" height="16" viewBox="0 0 16 16" fill="none" xmlns="http://www.w3.org/2000/svg">
<path d="M15.8983 7.68809C15.7554 7.49256 12.3496 2.90039 7.99992 2.90039C3.65019 2.90039 0.244313 7.49256 0.101531 7.6879C-0.0338438 7.8734 -0.0338438 8.12499 0.101531 8.3105C0.244313 8.50603 3.65019 13.0982 7.99992 13.0982C12.3496 13.0982 15.7554 8.506 15.8983 8.31065C16.0339 8.12518 16.0339 7.8734 15.8983 7.68809ZM7.99992 12.0433C4.79588 12.0433 2.02085 8.99534 1.19938 7.99893C2.01979 7.00165 4.78901 3.95533 7.99992 3.95533C11.2038 3.95533 13.9787 7.00271 14.8005 7.99965C13.9801 8.9969 11.2108 12.0433 7.99992 12.0433Z" fill="#FC5E6C"/>
<path d="M8.00005 4.83496C6.25499 4.83496 4.83521 6.25474 4.83521 7.99981C4.83521 9.74488 6.25499 11.1647 8.00005 11.1647C9.74512 11.1647 11.1649 9.74488 11.1649 7.99981C11.1649 6.25474 9.74512 4.83496 8.00005 4.83496ZM8.00005 10.1097C6.83661 10.1097 5.89018 9.16322 5.89018 7.99981C5.89018 6.8364 6.83665 5.88993 8.00005 5.88993C9.16346 5.88993 10.1099 6.8364 10.1099 7.99981C10.1099 9.16322 9.16349 10.1097 8.00005 10.1097Z" fill="#FC5E6C"/>
</svg>
